<?xml version="1.0" encoding="UTF-8"?> <svg xmlns="http://www.w3.org/2000/svg" width="12" height="12" viewBox="0 0 12 12" fill="none"><path d="M11.585 9.22152C12.1383 8.66817 12.1383 7.76958 11.585 7.21867C11.0316 6.66531 10.133 6.66531 9.58213 7.21867L8.83044 7.97035C8.62232 8.17847 8.28198 8.17847 8.07386 7.97035L6.7321 6.62613C6.64885 6.54289 6.53622 6.49637 6.42114 6.49637C6.30361 6.49637 6.19098 6.54289 6.11018 6.62613C5.74291 6.99341 5.25566 7.19663 4.73414 7.19663C4.21261 7.19663 3.72536 6.99341 3.35809 6.62613L2.14364 5.41169L4.89329 2.66205L6.10773 3.87649C6.44562 4.21438 6.6464 4.66245 6.67333 5.13746C6.68802 5.37251 6.88145 5.5537 7.11406 5.5537C7.1214 5.5537 7.1312 5.5537 7.14099 5.5537C7.38339 5.53901 7.56948 5.33089 7.55478 5.08849C7.51561 4.39557 7.22179 3.74427 6.7321 3.25458L5.51765 2.04013L5.65232 1.90547C5.82371 1.73407 5.82371 1.45495 5.65232 1.2811C5.48092 1.10971 5.2018 1.10971 5.02795 1.2811L4.16364 2.14542L2.66517 0.646947C2.49378 0.475554 2.21465 0.475554 2.04081 0.646947C1.86941 0.818341 1.86941 1.09747 2.04081 1.27131L3.53928 2.76978L2.25138 4.05768L0.752908 2.55921C0.581514 2.38782 0.302387 2.38782 0.128545 2.55921C-0.0428484 2.7306 -0.0428484 3.00973 0.128545 3.18357L1.62946 4.68204L0.76515 5.54635C0.593756 5.71775 0.593756 5.99688 0.76515 6.17072C0.850847 6.25641 0.963477 6.30049 1.07611 6.30049C1.18874 6.30049 1.30137 6.25641 1.38706 6.17072L1.52173 6.03605L2.73618 7.2505C3.26994 7.78427 3.98 8.07808 4.73414 8.07808C5.33891 8.07808 5.91675 7.88955 6.39665 7.53697L7.45195 8.59226C7.72863 8.86894 8.091 9.00606 8.45338 9.00606C8.81575 9.00606 9.17813 8.86894 9.4548 8.59226L10.2065 7.84058C10.4146 7.63246 10.7549 7.63246 10.9631 7.84058C11.1712 8.0487 11.1712 8.38904 10.9631 8.59716L10.2114 9.34884C9.9445 9.61573 9.79759 9.97076 9.79759 10.3503C9.79759 10.7298 9.9445 11.0848 10.2114 11.3517C10.2971 11.4374 10.4097 11.4815 10.5223 11.4815C10.635 11.4815 10.7476 11.4374 10.8333 11.3517C11.0047 11.1803 11.0047 10.9012 10.8333 10.7273C10.7329 10.627 10.6766 10.4923 10.6766 10.3503C10.6766 10.2083 10.7329 10.0736 10.8333 9.97321L11.585 9.22152Z" fill="#402F22"></path></svg> 