<?xml version="1.0" encoding="UTF-8"?> <svg xmlns="http://www.w3.org/2000/svg" width="32" height="32" viewBox="0 0 32 32" fill="none"><g clip-path="url(#new1clip0)"><path d="M21.848 13.1888C21.8424 13.1724 21.8358 13.1564 21.8282 13.1408C21.8194 13.1138 21.8085 13.0876 21.7957 13.0624C21.7844 13.0453 21.7721 13.029 21.7589 13.0133C21.745 12.9921 21.7294 12.9719 21.7125 12.953C21.6967 12.939 21.6801 12.9258 21.6629 12.9136C21.646 12.8982 21.6282 12.8838 21.6096 12.8704L16.2762 9.67039C16.1072 9.56886 15.8959 9.56886 15.7269 9.67039L10.3936 12.8704C10.3738 12.8834 10.3551 12.8978 10.3376 12.9136C10.3202 12.9258 10.3034 12.939 10.2874 12.953C10.2708 12.9719 10.2555 12.9918 10.2416 13.0128C10.228 13.0285 10.2156 13.045 10.2042 13.0624C10.1917 13.087 10.181 13.1124 10.1722 13.1386C10.1646 13.1552 10.1578 13.1721 10.152 13.1893C10.1395 13.2343 10.1332 13.2808 10.1333 13.3274V18.6608C10.1334 18.848 10.2315 19.0214 10.392 19.1178L15.7253 22.3178L15.7312 22.3205L15.737 22.3248C15.765 22.3393 15.7943 22.3513 15.8245 22.3605C15.8368 22.3648 15.8485 22.3717 15.8613 22.3754C15.9521 22.4003 16.0479 22.4003 16.1386 22.3754C16.1514 22.3717 16.1632 22.3648 16.1754 22.3605C16.2056 22.3513 16.2349 22.3393 16.2629 22.3248L16.2688 22.3205L16.2746 22.3178L21.608 19.1178C21.7684 19.0214 21.8666 18.848 21.8666 18.6608V13.3274C21.8667 13.2806 21.8604 13.234 21.848 13.1888ZM16 10.7493L17.6298 11.7275L13.3333 14.3056L11.7034 13.3274L16 10.7493ZM15.4666 20.9184L11.2 18.3584V14.2693L15.4666 16.8293V20.9184ZM16 15.9056L14.3701 14.9274L18.6666 12.3493L20.2965 13.3274L16 15.9056ZM20.8 18.3589L16.5333 20.9189V16.8293L20.8 14.2693V18.3589Z" fill="#402F22"></path><path d="M16.4265 0.20734C16.2326 -0.0283266 15.8844 -0.0621266 15.6487 0.13174C15.6211 0.154406 15.5958 0.17974 15.5731 0.20734L13.9731 2.34067L14.8265 2.98067L15.4665 2.12734V6.39399H16.5331V2.12734L17.1731 2.98067L18.0265 2.34067L16.4265 0.20734Z" fill="#402F22"></path><path d="M17.1731 29.0071L16.5331 29.8604V25.5938H15.4665V29.8604L14.8265 29.0071L13.9731 29.6471L15.5731 31.7804C15.7499 32.0161 16.0841 32.0638 16.3198 31.8871C16.3602 31.8567 16.3961 31.8208 16.4265 31.7804L18.0265 29.6471L17.1731 29.0071Z" fill="#402F22"></path><path d="M16.5335 7.46045H15.4668V8.52711H16.5335V7.46045Z" fill="#402F22"></path><path d="M16.5335 23.4604H15.4668V24.5271H16.5335V23.4604Z" fill="#402F22"></path><path d="M6.40003 15.4606H2.13337L2.9867 14.8206L2.3467 13.9673L0.213373 15.5673C-0.0222935 15.744 -0.0700268 16.0783 0.106706 16.3139C0.137039 16.3543 0.172973 16.3903 0.213373 16.4206L2.3467 18.0206L2.9867 17.1673L2.13337 16.5273H6.40003V15.4606Z" fill="#402F22"></path><path d="M31.8934 15.6739C31.8631 15.6335 31.8272 15.5976 31.7868 15.5673L29.6534 13.9673L29.0134 14.8206L29.8668 15.4606H25.6001V16.5273H29.8668L29.0134 17.1673L29.6534 18.0206L31.7868 16.4206C32.0224 16.2439 32.0702 15.9096 31.8934 15.6739Z" fill="#402F22"></path><path d="M8.53346 15.4604H7.4668V16.5271H8.53346V15.4604Z" fill="#402F22"></path><path d="M24.5335 15.4604H23.4668V16.5271H24.5335V15.4604Z" fill="#402F22"></path><path d="M9.58861 8.82866L6.57208 5.81214L7.62754 5.96254L7.77847 4.90654L5.13901 4.52734C4.84768 4.48407 4.57641 4.68521 4.53314 4.97661C4.52541 5.02854 4.52541 5.08134 4.53314 5.13321L4.91021 7.77266L5.96621 7.62173L5.81581 6.56627L8.83234 9.58279L9.58861 8.82866Z" fill="#402F22"></path><path d="M27.4655 26.8548L27.0884 24.2153L26.0314 24.3673L26.1818 25.4228L23.1653 22.4062L22.4111 23.1604L25.4277 26.1769L24.3733 26.0254L24.2223 27.0814L26.8618 27.4585C26.8869 27.4621 26.9122 27.4639 26.9375 27.4638C27.232 27.4639 27.4708 27.2251 27.4709 26.9306C27.471 26.9052 27.4691 26.8799 27.4655 26.8548Z" fill="#402F22"></path><path d="M10.3431 9.58365L9.58887 10.3379L10.3431 11.0921L11.0973 10.3379L10.3431 9.58365Z" fill="#402F22"></path><path d="M21.6571 20.8966L20.9028 21.6509L21.6571 22.4051L22.4113 21.6509L21.6571 20.8966Z" fill="#402F22"></path><path d="M6.5701 26.1759L9.58662 23.1594L8.83462 22.4053L5.8181 25.4218L5.9685 24.3663L4.9125 24.2154L4.5333 26.8549C4.4915 27.1464 4.6939 27.4167 4.9855 27.4585C5.01063 27.4621 5.03597 27.4639 5.0613 27.4639C5.08663 27.464 5.11197 27.4622 5.13703 27.4586L7.77649 27.0815L7.62556 26.0255L6.5701 26.1759Z" fill="#402F22"></path><path d="M27.3135 4.68009C27.1953 4.56055 27.0271 4.50449 26.8607 4.52915L24.2213 4.90622L24.3722 5.96222L25.4277 5.81182L22.4111 8.82834L23.1653 9.58247L26.1818 6.56595L26.0314 7.62035L27.0874 7.77235L27.4644 5.13288C27.4883 4.96662 27.4324 4.79889 27.3135 4.68009Z" fill="#402F22"></path><path d="M10.3436 20.8966L9.58936 21.6509L10.3436 22.4051L11.0978 21.6509L10.3436 20.8966Z" fill="#402F22"></path><path d="M21.6571 9.5817L20.9028 10.3359L21.6571 11.0902L22.4113 10.3359L21.6571 9.5817Z" fill="#402F22"></path></g><defs><clipPath id="new1clip0"><rect width="32" height="32" fill="white"></rect></clipPath></defs></svg> 