<?xml version="1.0" encoding="UTF-8"?> <svg xmlns="http://www.w3.org/2000/svg" width="32" height="32" viewBox="0 0 32 32" fill="none"><g clip-path="url(#new-2clip0)"><path d="M27.1866 17.5422C27.184 16.4718 26.9318 15.4199 26.4508 14.465L27.5554 13.3604C28.3836 12.5323 28.3836 11.1847 27.5554 10.3566C27.1424 9.9435 26.6002 9.73656 26.0575 9.73556C26.0568 9.16932 25.836 8.63715 25.4355 8.23666C25.0222 7.82342 24.4796 7.61642 23.9366 7.61567C23.9359 7.07274 23.7289 6.53007 23.3156 6.11676C22.9153 5.71658 22.3835 5.49577 21.8177 5.49477C21.8166 4.92897 21.5959 4.39711 21.1957 3.99687C20.7945 3.59569 20.2611 3.37476 19.6938 3.37476C19.1265 3.37476 18.5931 3.59569 18.1919 3.99687L16.001 6.18782L14.7819 4.96866C14.3807 4.56748 13.8473 4.34655 13.28 4.34655C12.7126 4.34655 12.1792 4.56748 11.7781 4.96866C11.3776 5.36915 11.1569 5.90133 11.1561 6.46757C10.6135 6.46857 10.0712 6.6755 9.65817 7.08855C9.25793 7.4888 9.03718 8.0206 9.03612 8.58646C8.47032 8.58752 7.93845 8.80827 7.53821 9.20851C6.85435 9.89237 6.73585 10.9302 7.18141 11.7375C6.87454 11.8378 6.58598 12.0091 6.34249 12.2526C5.51438 13.0807 5.51438 14.4282 6.34249 15.2564L7.22716 16.1411L0.198668 23.1695C-0.0453894 23.4136 -0.0453894 23.8093 0.198668 24.0535C0.320728 24.1755 0.480663 24.2365 0.640597 24.2365C0.800532 24.2365 0.960528 24.1755 1.08253 24.0535L5.84706 19.2889L10.3103 23.7522L3.16142 30.901C2.91737 31.1451 2.91737 31.5408 3.16142 31.7849C3.28348 31.9069 3.44342 31.968 3.60335 31.968C3.76329 31.968 3.92328 31.9069 4.04528 31.7849L13.7078 22.1224C13.8858 21.9444 14.0885 21.8001 14.3077 21.6916L15.8199 22.6877C16.8201 23.3464 18.0395 23.6038 19.2152 23.4134L27.6186 31.8168C27.7406 31.9388 27.9006 31.9999 28.0605 31.9999C28.2204 31.9999 28.3804 31.9388 28.5024 31.8168C28.7465 31.5727 28.7465 31.177 28.5024 30.9329L23.6266 26.0571L24.2161 25.4677C24.4601 25.2236 24.4601 24.8279 24.2161 24.5838C23.972 24.3398 23.5763 24.3398 23.3322 24.5838L22.7427 25.1732L21.3627 23.7931L26.5162 18.6396L27.8963 20.0197L27.3082 20.6078C27.0641 20.8519 27.0641 21.2476 27.3082 21.4917C27.4303 21.6137 27.5902 21.6748 27.7501 21.6748C27.9101 21.6748 28.0701 21.6137 28.1921 21.4917L28.7802 20.9036L30.9329 23.0564C31.055 23.1783 31.2149 23.2394 31.3749 23.2394C31.5348 23.2394 31.6948 23.1783 31.8168 23.0564C32.0609 22.8123 32.0609 22.4166 31.8168 22.1724L27.1866 17.5422ZM19.0758 4.88073C19.2409 4.71567 19.4604 4.62473 19.6938 4.62473C19.9272 4.62473 20.1467 4.71567 20.3118 4.88073C20.4769 5.04578 20.5678 5.26528 20.5678 5.49871C20.5678 5.73221 20.4768 5.9517 20.3118 6.11676L18.9384 7.49017C18.6943 7.73423 18.6943 8.12997 18.9384 8.37409C19.1824 8.61821 19.5782 8.61815 19.8223 8.37409L21.1957 7.00068C21.3608 6.83556 21.5803 6.74469 21.8137 6.74469C22.0472 6.74469 22.2667 6.83562 22.4317 7.00068C22.7725 7.34149 22.7725 7.89591 22.4317 8.23672L20.3345 10.3339C20.0905 10.578 20.0905 10.9737 20.3345 11.2178C20.4566 11.3399 20.6165 11.4009 20.7765 11.4009C20.9364 11.4009 21.0964 11.3399 21.2184 11.2178L23.3156 9.12064C23.4807 8.95552 23.7001 8.86464 23.9336 8.86464C24.1671 8.86464 24.3866 8.95558 24.5516 9.12064C24.7167 9.2857 24.8076 9.50519 24.8076 9.73863C24.8076 9.97206 24.7167 10.1916 24.5516 10.3566L22.4544 12.4538C22.2104 12.6979 22.2104 13.0936 22.4544 13.3377C22.5765 13.4598 22.7364 13.5208 22.8963 13.5208C23.0563 13.5208 23.2163 13.4598 23.3383 13.3377L25.4354 11.2405C25.7762 10.8997 26.3307 10.8998 26.6715 11.2405C27.0123 11.5813 27.0123 12.1358 26.6715 12.4766L21.5056 17.6425C19.8516 19.2965 17.6525 20.2074 15.3133 20.2074C14.6799 20.2074 14.0723 20.3742 13.5397 20.6859L9.92217 17.0684C10.2005 16.9633 10.456 16.7997 10.6728 16.583C11.0733 16.1825 11.294 15.6503 11.2948 15.0841C11.8374 15.0831 12.3797 14.8761 12.7927 14.463C13.2058 14.05 13.4127 13.5077 13.4137 12.9651C13.98 12.9644 14.5122 12.7436 14.9126 12.3431C15.3257 11.93 15.5326 11.3878 15.5336 10.8452C16.0999 10.8444 16.632 10.6236 17.0325 10.2232C17.4336 9.822 17.6546 9.28863 17.6546 8.72127C17.6546 8.15391 17.4336 7.62054 17.0325 7.21936L16.8847 7.07156L19.0758 4.88073ZM12.662 5.85252C12.827 5.68746 13.0465 5.59652 13.28 5.59652C13.5134 5.59652 13.7329 5.68746 13.898 5.85252L16.1488 8.10328C16.3139 8.26834 16.4048 8.48784 16.4048 8.72127C16.4048 8.9547 16.3139 9.1742 16.1488 9.33932C15.9837 9.50438 15.7642 9.59532 15.5308 9.59532C15.2974 9.59532 15.0781 9.50444 14.913 9.33951C14.9129 9.33945 14.9129 9.33938 14.9128 9.33926L12.662 7.08849C12.4969 6.92343 12.406 6.70394 12.406 6.4705C12.406 6.23707 12.4969 6.01764 12.662 5.85252ZM10.542 7.97241C10.7125 7.80198 10.9362 7.71685 11.1601 7.71685C11.3839 7.71685 11.6078 7.80204 11.7781 7.97241L14.0288 10.2232C14.3696 10.564 14.3696 11.1185 14.0288 11.4593C13.8638 11.6243 13.6443 11.7153 13.4108 11.7153C13.1775 11.7153 12.9581 11.6244 12.793 11.4595C12.793 11.4594 12.7929 11.4593 12.7929 11.4592L10.5421 9.20845C10.377 9.04339 10.2861 8.82389 10.2861 8.5904C10.286 8.35697 10.377 8.13753 10.542 7.97241ZM8.42213 10.0924C8.58719 9.92725 8.80669 9.83637 9.04012 9.83637C9.27362 9.83637 9.49311 9.92731 9.65817 10.0924L11.9089 12.3431C12.2497 12.6839 12.2497 13.2384 11.9089 13.5792C11.5681 13.9199 11.0136 13.92 10.6728 13.5792L8.42207 11.3284C8.08133 10.9877 8.08133 10.4331 8.42213 10.0924ZM7.22634 13.1364C7.39678 12.966 7.62059 12.8809 7.84439 12.8809C8.06789 12.8809 8.29151 12.9659 8.46176 13.1359L9.78898 14.4631C9.95404 14.6282 10.045 14.8476 10.045 15.0811C10.045 15.3145 9.95404 15.534 9.78898 15.6991C9.62392 15.8643 9.40443 15.9551 9.17093 15.9551C8.93769 15.9551 8.71831 15.8643 8.55326 15.6994L8.55294 15.6991L7.22634 14.3725C6.8856 14.0317 6.8856 13.4772 7.22634 13.1364ZM6.73098 18.405L8.11108 17.0249L12.5744 21.4881L11.1943 22.8682L6.73098 18.405ZM19.8627 22.2931C19.7088 22.1392 19.4859 22.0762 19.2744 22.1275C18.3285 22.3552 17.32 22.1789 16.5075 21.6438L16.169 21.4208C18.5193 21.223 20.7026 20.2133 22.3895 18.5263L25.5086 15.4073C25.7769 16.0557 25.9217 16.7488 25.935 17.4533L20.479 22.9094L19.8627 22.2931Z" fill="#402F22"></path><path d="M25.3194 22.5967C25.2031 22.7129 25.1362 22.8736 25.1362 23.0386C25.1362 23.2029 25.2031 23.3642 25.3194 23.4804C25.4356 23.5966 25.5969 23.6636 25.7612 23.6636C25.9262 23.6636 26.0869 23.5967 26.2031 23.4804C26.3194 23.3642 26.3862 23.2029 26.3862 23.0386C26.3862 22.8735 26.3194 22.7129 26.2031 22.5967C26.0869 22.4804 25.9256 22.4136 25.7612 22.4136C25.5969 22.4136 25.4356 22.4804 25.3194 22.5967Z" fill="#402F22"></path><path d="M4.22267 5.10626C4.34473 5.22832 4.50466 5.28931 4.66459 5.28931C4.82453 5.28931 4.98453 5.22832 5.10652 5.10626C5.35058 4.8622 5.35058 4.46646 5.10652 4.22234L2.16464 1.28046C1.92059 1.0364 1.52484 1.0364 1.28072 1.28046C1.0366 1.52451 1.03667 1.92026 1.28072 2.16438L4.22267 5.10626Z" fill="#402F22"></path><path d="M7.62548 3.40718C7.97066 3.40718 8.25046 3.12738 8.25046 2.7822V0.624988C8.25046 0.279807 7.97066 0 7.62548 0C7.28029 0 7.00049 0.279807 7.00049 0.624988V2.7822C7.00049 3.12738 7.28029 3.40718 7.62548 3.40718Z" fill="#402F22"></path><path d="M0.625476 8.24974H2.78268C3.12786 8.24974 3.40767 7.96993 3.40767 7.62475C3.40767 7.27956 3.12786 6.99976 2.78268 6.99976H0.625476C0.280295 6.99976 0.000488281 7.27956 0.000488281 7.62475C0.000488281 7.96993 0.280295 8.24974 0.625476 8.24974Z" fill="#402F22"></path><path d="M27.3355 5.28909C27.4954 5.28909 27.6554 5.22809 27.7774 5.10603L30.7193 2.16415C30.9634 1.9201 30.9634 1.52435 30.7193 1.28023C30.4752 1.03611 30.0795 1.03618 29.8354 1.28023L26.8935 4.22211C26.6494 4.46617 26.6494 4.86191 26.8935 5.10603C27.0156 5.22809 27.1756 5.28909 27.3355 5.28909Z" fill="#402F22"></path><path d="M24.375 3.40718C24.7202 3.40718 25 3.12738 25 2.7822V0.624988C25 0.279807 24.7202 0 24.375 0C24.0298 0 23.75 0.279807 23.75 0.624988V2.7822C23.75 3.12738 24.0298 3.40718 24.375 3.40718Z" fill="#402F22"></path><path d="M28.5928 7.62475C28.5928 7.96993 28.8726 8.24974 29.2178 8.24974H31.375C31.7202 8.24974 32 7.96993 32 7.62475C32 7.27956 31.7202 6.99976 31.375 6.99976H29.2178C28.8726 6.99976 28.5928 7.27956 28.5928 7.62475Z" fill="#402F22"></path></g><defs><clipPath id="new-2clip0"><rect width="32" height="32" fill="white"></rect></clipPath></defs></svg> 