<?xml version="1.0" encoding="UTF-8"?> <svg xmlns="http://www.w3.org/2000/svg" width="48" height="48" viewBox="0 0 48 48" fill="none"><g clip-path="url(#franclip2)"><path d="M21.4554 23.1753C21.6769 23.3969 21.8246 23.6184 21.8246 23.9138H22.9323C22.9323 23.323 22.6369 22.8061 22.1939 22.363C21.8985 22.0676 21.5292 21.9199 21.0862 21.8461V20.6646H19.9785V21.8461C19.5354 21.9199 19.1662 22.0676 18.8708 22.363C18.4277 22.8061 18.1323 23.323 18.1323 23.9138C18.1323 24.5046 18.4277 25.0215 18.8708 25.4646C19.3139 25.8338 19.9046 26.0553 20.5692 26.0553C20.9385 26.0553 21.2339 26.203 21.5292 26.3507C21.7508 26.5722 21.8985 26.7938 21.8985 27.0892C21.8985 27.3846 21.7508 27.6061 21.5292 27.8276C21.0123 28.2707 20.1262 28.2707 19.6831 27.8276C19.4616 27.6061 19.3139 27.3846 19.3139 27.0892H18.2062C18.2062 27.6799 18.5016 28.1969 18.9446 28.6399C19.24 28.9353 19.6092 29.083 20.0523 29.1569V30.3384H21.16V29.1569C21.6031 29.083 21.9723 28.8615 22.2677 28.6399C22.7108 28.1969 23.0062 27.6799 23.0062 27.0892C23.0062 26.4984 22.7108 25.9815 22.2677 25.5384C21.8246 25.1692 21.2339 24.9476 20.5692 24.9476C20.2 24.9476 19.9046 24.7999 19.6092 24.6522C19.3877 24.4307 19.24 24.2092 19.24 23.9138C19.24 23.6184 19.3877 23.3969 19.6092 23.1753C20.0523 22.7322 20.9385 22.8061 21.4554 23.1753Z" fill="#333333"></path><path d="M43.3139 20.8122C43.3139 18.9661 41.8369 17.4892 39.9908 17.4892V16.4553C39.9908 14.9046 38.7354 13.6492 37.1846 13.6492H3.80615C2.25538 13.6492 1 14.9046 1 16.4553V34.6215C1 36.1722 2.25538 37.4276 3.80615 37.4276H4.84C4.84 39.2738 6.31692 40.7507 8.16308 40.7507C8.16308 42.5969 9.64 44.0738 11.4862 44.0738H43.1662C45.0123 44.0738 46.4892 42.5969 46.4892 40.7507V24.1353C46.6369 22.2892 45.0862 20.8122 43.3139 20.8122ZM3.80615 36.2461C2.92 36.2461 2.10769 35.5076 2.10769 34.5476V16.3815C2.10769 15.4953 2.84615 14.683 3.80615 14.683H37.1846C38.0708 14.683 38.8831 15.4215 38.8831 16.3815V34.5476C38.8831 35.4338 38.1446 36.2461 37.1846 36.2461H3.80615ZM8.23692 39.5692C6.98154 39.5692 6.02154 38.6092 6.02154 37.3538H37.1846C38.7354 37.3538 39.9908 36.0984 39.9908 34.5476V18.5969C41.2462 18.5969 42.2062 19.6307 42.2062 20.8122V37.3538C42.2062 38.6092 41.1723 39.5692 39.9908 39.5692H8.23692ZM45.5292 40.6769C45.5292 41.9322 44.4954 42.8922 43.3139 42.8922H11.56C10.3046 42.8922 9.34462 41.9322 9.34462 40.6769H39.9908C41.8369 40.6769 43.3139 39.1999 43.3139 37.3538V21.9199C44.5692 21.9199 45.5292 22.9538 45.5292 24.1353V40.6769Z" fill="#333333"></path><path d="M33.2705 18.6708V18.0801H7.71978V18.6708C7.71978 19.557 6.98132 20.3693 6.02132 20.3693H5.50439V30.7078H6.09516C6.98132 30.7078 7.79363 31.4462 7.79363 32.4062V32.997H33.3444V32.4062C33.3444 31.5201 34.0829 30.7078 35.0429 30.7078H35.6336V20.3693H35.0429C34.009 20.2955 33.2705 19.557 33.2705 18.6708ZM34.3782 29.6001C33.2705 29.8216 32.4582 30.7078 32.2367 31.7416H8.75363C8.53209 30.6339 7.64593 29.8216 6.61209 29.6001V21.3293C7.71978 21.1078 8.53209 20.2216 8.75363 19.1878H32.2367C32.4582 20.2955 33.3444 21.1078 34.3782 21.3293V29.6001Z" fill="#333333"></path><path d="M36.077 4.04931L35.2647 3.237L33.5662 4.93546V-1.71069H32.4585V4.93546L30.7601 3.237L29.9478 4.04931L32.9754 7.077L36.077 4.04931Z" fill="#333333"></path><path d="M27.2893 2.35083H26.1816V3.53237H27.2893V2.35083Z" fill="#333333"></path><path d="M29.7263 9.14451L28.9878 8.40605L27.2894 10.0307V4.63989H26.1817V10.0307L24.4832 8.40605L23.6709 9.14451L26.6986 12.1722L29.7263 9.14451Z" fill="#333333"></path></g><defs><clipPath id="franclip2"><rect width="48" height="48" fill="white"></rect></clipPath></defs></svg> 