<?xml version="1.0" encoding="UTF-8"?> <svg xmlns="http://www.w3.org/2000/svg" width="32" height="32" viewBox="0 0 32 32" fill="none"><path d="M5.94891 21.3463C6.12578 21.3463 6.26891 21.203 6.26891 21.0263V19.7077C6.26891 19.531 6.12578 19.3877 5.94891 19.3877C5.77203 19.3877 5.62891 19.531 5.62891 19.7077V21.0263C5.62891 21.203 5.77203 21.3463 5.94891 21.3463Z" fill="black"></path><path d="M25.8367 23.6536H23.0817C22.9048 23.6536 22.7617 23.7968 22.7617 23.9736V26.8533C22.7617 27.03 22.9048 27.1733 23.0817 27.1733H25.8367C26.0136 27.1733 26.1567 27.03 26.1567 26.8533V23.9736C26.1567 23.7968 26.0136 23.6536 25.8367 23.6536ZM25.5167 26.5333H23.4017V24.2936H25.5167V26.5333Z" fill="black"></path><path d="M21.1863 23.6536H18.4313C18.2545 23.6536 18.1113 23.7968 18.1113 23.9736V26.8533C18.1113 27.03 18.2545 27.1733 18.4313 27.1733H21.1863C21.3632 27.1733 21.5063 27.03 21.5063 26.8533V23.9736C21.5063 23.7968 21.3632 23.6536 21.1863 23.6536ZM20.8663 26.5333H18.7513V24.2936H20.8663V26.5333Z" fill="black"></path><path d="M16.5364 23.6536H13.7814C13.6046 23.6536 13.4614 23.7968 13.4614 23.9736V26.8533C13.4614 27.03 13.6046 27.1733 13.7814 27.1733H16.5364C16.7133 27.1733 16.8564 27.03 16.8564 26.8533V23.9736C16.8564 23.7968 16.7133 23.6536 16.5364 23.6536ZM16.2164 26.5333H14.1014V24.2936H16.2164V26.5333Z" fill="black"></path><path d="M28.7993 11.5873L28.1493 3.49433C28.1358 3.32808 27.9971 3.19995 27.8302 3.19995H4.1702C4.00332 3.19995 3.86457 3.32808 3.85113 3.49433L3.20113 11.5873C3.20018 11.5992 3.2052 11.6103 3.20557 11.6221C3.20477 11.6313 3.2002 11.6392 3.2002 11.6487C3.2002 12.2457 3.48389 12.777 3.92301 13.1196V28.4799C3.92301 28.6567 4.06613 28.7999 4.24301 28.7999H27.838C28.0149 28.7999 28.158 28.6567 28.158 28.4799V13.0528C28.5507 12.7097 28.8002 12.2082 28.8002 11.6487C28.8002 11.6392 28.7956 11.6313 28.7948 11.6221C28.7952 11.6102 28.8002 11.5992 28.7993 11.5873ZM26.9202 12.879C26.3354 12.879 25.847 12.4742 25.7169 11.9329H28.1235C27.9934 12.4742 27.5049 12.879 26.9202 12.879ZM16.2121 20.5599H13.8199V19.811C13.8199 19.5617 14.0227 19.3589 14.2721 19.3589H15.7599C16.0093 19.3589 16.2121 19.5617 16.2121 19.811V20.5599ZM27.518 21.2V22.0487H12.1224V21.2H27.518ZM21.0099 20.5599H18.618V19.811C18.618 19.5617 18.8208 19.3589 19.0699 19.3589H20.558C20.8071 19.3589 21.0099 19.5617 21.0099 19.811V20.5599ZM25.808 20.5599H23.4158V19.811C23.4158 19.5617 23.6186 19.3589 23.868 19.3589H25.3558C25.6052 19.3589 25.808 19.5617 25.808 19.811V20.5599ZM11.3202 12.879C10.7354 12.879 10.247 12.4742 10.1169 11.9329H12.5235C12.3934 12.4742 11.9049 12.879 11.3202 12.879ZM3.87689 11.9329H6.2835C6.15342 12.4742 5.66494 12.879 5.0802 12.879C4.49545 12.879 4.00697 12.4742 3.87689 11.9329ZM22.5602 11.2929V3.83995H25.0952V11.2929H22.5602ZM21.9202 11.2929H19.4402V3.83995H21.9202V11.2929ZM18.8002 11.2929H16.3161V3.83995H18.8002V11.2929ZM15.6761 11.2929H13.2002V3.83995H15.6761V11.2929ZM12.5602 11.2929H10.0802V3.83995H12.5602V11.2929ZM9.4402 11.2929H6.9602V3.83995H9.4402V11.2929ZM9.4035 11.9329C9.27342 12.4742 8.78494 12.879 8.2002 12.879C7.61545 12.879 7.12697 12.4742 6.99689 11.9329H9.4035ZM15.6435 11.9329C15.5134 12.4742 15.0249 12.879 14.4402 12.879C13.8554 12.879 13.367 12.4742 13.2369 11.9329H15.6435ZM18.7635 11.9329C18.6334 12.4742 18.1449 12.879 17.5602 12.879C16.9754 12.879 16.487 12.4742 16.3569 11.9329H18.7635ZM21.8835 11.9329C21.7534 12.4742 21.2649 12.879 20.6802 12.879C20.0954 12.879 19.607 12.4742 19.4769 11.9329H21.8835ZM25.0035 11.9329C24.8734 12.4742 24.3849 12.879 23.8002 12.879C23.2154 12.879 22.727 12.4742 22.5969 11.9329H25.0035ZM28.1333 11.2929H25.7352V3.83995H27.5349L28.1333 11.2929ZM4.46551 3.83995H6.3202V11.2929H3.86707L4.46551 3.83995ZM5.0802 13.519C5.7291 13.519 6.30221 13.1901 6.6402 12.6912C6.97818 13.1901 7.55129 13.519 8.2002 13.519C8.8491 13.519 9.42221 13.1901 9.7602 12.6912C10.0982 13.1901 10.6713 13.519 11.3202 13.519C11.3749 13.519 11.4288 13.5154 11.4824 13.5108V26.0267H4.56301V13.4453C4.72756 13.4923 4.90068 13.519 5.0802 13.519ZM4.56301 26.6667H11.4824V28.16H4.56301V26.6667ZM12.1224 28.16V22.6887H27.518V28.16H12.1224ZM27.518 20.5599H26.448V19.811C26.448 19.2089 25.958 18.7189 25.3558 18.7189H23.868C23.2658 18.7189 22.7758 19.2089 22.7758 19.811V20.5599H21.6499V19.811C21.6499 19.2089 21.1602 18.7189 20.558 18.7189H19.0699C18.4677 18.7189 17.978 19.2089 17.978 19.811V20.5599H16.8521V19.811C16.8521 19.2089 16.3621 18.7189 15.7599 18.7189H14.2721C13.6699 18.7189 13.1799 19.2089 13.1799 19.811V20.5599H12.1224V13.3376C12.4293 13.1927 12.6918 12.9693 12.8802 12.6912C13.2182 13.1901 13.7913 13.519 14.4402 13.519C15.0891 13.519 15.6622 13.1901 16.0002 12.6912C16.3382 13.1901 16.9113 13.519 17.5602 13.519C18.2091 13.519 18.7822 13.1901 19.1202 12.6912C19.4582 13.1901 20.0313 13.519 20.6802 13.519C21.3291 13.519 21.9022 13.1901 22.2402 12.6912C22.5782 13.1901 23.1513 13.519 23.8002 13.519C24.4491 13.519 25.0222 13.1901 25.3602 12.6912C25.6982 13.1901 26.2713 13.519 26.9202 13.519C27.1293 13.519 27.3299 13.4834 27.518 13.4204V20.5599Z" fill="black"></path></svg> 