<?xml version="1.0" encoding="UTF-8"?> <svg xmlns="http://www.w3.org/2000/svg" width="30" height="30" viewBox="0 0 30 30" fill="none"><path d="M26.1738 4.23626H23.6139V3.09664C23.6139 1.98326 22.7082 1.07764 21.5949 1.07764C20.4815 1.07764 19.5759 1.98345 19.5759 3.09664V6.68839C19.5759 7.80176 20.4817 8.70739 21.5949 8.70739C22.7081 8.70739 23.6139 7.80176 23.6139 6.68839V5.54876H26.1738C27.0039 5.54876 27.6791 6.22414 27.6791 7.0542V10.3938H2.3208V7.0542C2.3208 6.22414 2.99618 5.54876 3.82605 5.54876H6.38599V6.68839C6.38599 7.80176 7.2918 8.70739 8.40499 8.70739C9.51818 8.70739 10.424 7.80176 10.424 6.68839V3.09664C10.424 1.98326 9.51818 1.07764 8.40499 1.07764C7.2918 1.07764 6.38599 1.98345 6.38599 3.09664V4.23626H3.82605C2.27224 4.23626 1.0083 5.50039 1.0083 7.0542V26.1048C1.0083 27.6586 2.27243 28.9225 3.82605 28.9225H26.1738C27.7276 28.9225 28.9916 27.6586 28.9916 26.1048V7.0542C28.9916 5.50039 27.7276 4.23626 26.1738 4.23626ZM22.3014 6.68839C22.3014 7.07801 21.9845 7.39489 21.5949 7.39489C21.2052 7.39489 20.8884 7.07801 20.8884 6.68839V3.09664C20.8884 2.70701 21.2052 2.39014 21.5949 2.39014C21.9845 2.39014 22.3014 2.70701 22.3014 3.09664V6.68839ZM7.69849 3.09664C7.69849 2.70701 8.01536 2.39014 8.40499 2.39014C8.79461 2.39014 9.11149 2.70701 9.11149 3.09664V6.68839C9.11149 7.07801 8.79461 7.39489 8.40499 7.39489C8.01536 7.39489 7.69849 7.07801 7.69849 6.68839V3.09664ZM27.6791 26.1046C27.6791 26.9346 27.0037 27.6098 26.1738 27.6098H3.82605C2.99599 27.6098 2.3208 26.9345 2.3208 26.1046V11.7061H27.6792V26.1046H27.6791Z" fill="black"></path><path d="M5.24365 18.4417H9.36865C9.62759 18.4417 9.8374 18.2318 9.8374 17.9729V13.8479C9.8374 13.589 9.62759 13.3792 9.36865 13.3792H5.24365C4.98471 13.3792 4.7749 13.589 4.7749 13.8479V17.9729C4.7749 18.2318 4.98471 18.4417 5.24365 18.4417ZM5.7124 14.3167H8.8999V17.5042H5.7124V14.3167Z" fill="black"></path><path d="M12.9375 18.4417H17.0625C17.3214 18.4417 17.5313 18.2318 17.5313 17.9729V13.8479C17.5313 13.589 17.3214 13.3792 17.0625 13.3792H12.9375C12.6786 13.3792 12.4688 13.589 12.4688 13.8479V17.9729C12.4688 18.2318 12.6786 18.4417 12.9375 18.4417ZM13.4063 14.3167H16.5938V17.5042H13.4063V14.3167Z" fill="black"></path><path d="M20.6318 18.4417H24.7568C25.0158 18.4417 25.2256 18.2318 25.2256 17.9729V13.8479C25.2256 13.589 25.0158 13.3792 24.7568 13.3792H20.6318C20.3729 13.3792 20.1631 13.589 20.1631 13.8479V17.9729C20.1631 18.2318 20.3729 18.4417 20.6318 18.4417ZM21.1006 14.3167H24.2881V17.5042H21.1006V14.3167Z" fill="black"></path><path d="M5.24365 25.8567H9.36865C9.62759 25.8567 9.8374 25.6469 9.8374 25.3879V21.2629C9.8374 21.004 9.62759 20.7942 9.36865 20.7942H5.24365C4.98471 20.7942 4.7749 21.004 4.7749 21.2629V25.3879C4.7749 25.6469 4.98471 25.8567 5.24365 25.8567ZM5.7124 21.7317H8.8999V24.9192H5.7124V21.7317Z" fill="black"></path><path d="M12.9375 25.8567H17.0625C17.3214 25.8567 17.5313 25.6469 17.5313 25.3879V21.2629C17.5313 21.004 17.3214 20.7942 17.0625 20.7942H12.9375C12.6786 20.7942 12.4688 21.004 12.4688 21.2629V25.3879C12.4688 25.6469 12.6786 25.8567 12.9375 25.8567ZM13.4063 21.7317H16.5938V24.9192H13.4063V21.7317Z" fill="black"></path><path d="M19.107 4.23621H10.8926V5.54871H19.107V4.23621Z" fill="black"></path></svg> 