<?xml version="1.0" encoding="UTF-8"?> <svg xmlns="http://www.w3.org/2000/svg" width="36" height="36" viewBox="0 0 36 36" fill="none"><g clip-path="url(#z4clip0)"><path d="M32.1101 31.8938L27.4765 20.7074C27.3584 20.4225 27.0317 20.287 26.7467 20.4051C26.4618 20.5232 26.3264 20.8499 26.4445 21.1348L30.6334 31.2477L26.8125 30.1406C26.5617 30.0678 26.2938 30.1788 26.1679 30.4076L24.2489 33.8922L19.7543 23.041C24.9419 22.0406 28.8727 17.4668 28.8727 11.9916C28.8727 5.78638 23.8245 0.738037 17.6193 0.738037C11.4141 0.738037 6.36573 5.78638 6.36573 11.9916C6.36573 14.505 7.19411 16.8284 8.59202 18.7036L3.12845 31.8938C3.04631 32.0922 3.08511 32.3201 3.22831 32.4801C3.37144 32.64 3.59373 32.7038 3.79993 32.644L8.3077 31.3378L10.5715 35.449C10.6701 35.6279 10.858 35.738 11.0606 35.738C11.0709 35.738 11.0813 35.7377 11.0916 35.7372C11.306 35.7253 11.4946 35.5916 11.5768 35.3932L15.9061 24.9414C16.0241 24.6564 15.8888 24.3297 15.6038 24.2117C15.3188 24.0937 14.9921 24.229 14.8741 24.514L10.9894 33.8922L9.07063 30.4076C8.94463 30.1788 8.67662 30.0678 8.42596 30.1406L4.60515 31.2477L9.40067 19.6702C11.4558 21.8685 14.3796 23.245 17.6193 23.245C17.9537 23.245 18.2845 23.2295 18.6116 23.2008L23.6618 35.3932C23.744 35.5916 23.9326 35.7253 24.1469 35.7371C24.1573 35.7377 24.1676 35.738 24.178 35.738C24.3806 35.738 24.5685 35.6279 24.667 35.449L26.9309 31.3378L31.4387 32.644C31.645 32.7038 31.8671 32.64 32.0103 32.4801C32.1535 32.3201 32.1922 32.0922 32.1101 31.8938ZM7.48275 11.9916C7.48275 6.4023 12.03 1.85506 17.6193 1.85506C23.2085 1.85506 27.7557 6.4023 27.7557 11.9916C27.7557 17.5809 23.2085 22.128 17.6193 22.128C12.03 22.128 7.48275 17.5809 7.48275 11.9916Z" fill="#402F22"></path><path d="M24.0727 9.89464C24.0084 9.6967 23.8392 9.5509 23.6339 9.51642L19.8757 8.88575L18.1146 5.50646C18.0184 5.32185 17.8276 5.20605 17.6194 5.20605C17.4112 5.20605 17.2203 5.32185 17.1241 5.50646L15.3629 8.88575L11.6048 9.51642C11.3995 9.55082 11.2304 9.69663 11.166 9.89464C11.1017 10.0927 11.1528 10.3099 11.2987 10.4585L13.9683 13.1777L13.4069 16.9468C13.3762 17.1527 13.4626 17.3586 13.631 17.481C13.7993 17.6033 14.0219 17.6218 14.2082 17.5291L17.6194 15.8303L21.0304 17.5291C21.1093 17.5684 21.1945 17.5877 21.2794 17.5877C21.3953 17.5877 21.5105 17.5517 21.6077 17.4811C21.7762 17.3587 21.8625 17.1528 21.8319 16.9469L21.2704 13.1778L23.9401 10.4585C24.0859 10.3099 24.137 10.0927 24.0727 9.89464ZM20.2785 12.5937C20.1557 12.7187 20.0988 12.894 20.1246 13.0672L20.5692 16.0514L17.8684 14.7065C17.7899 14.6674 17.7047 14.6479 17.6194 14.6479C17.5341 14.6479 17.4487 14.6674 17.3704 14.7065L14.6696 16.0514L15.1142 13.0672C15.14 12.894 15.0831 12.7186 14.9603 12.5937L12.8466 10.4406L15.8221 9.94126C15.9948 9.91229 16.144 9.80394 16.2249 9.6486L17.6194 6.97303L19.0138 9.64867C19.0948 9.80401 19.2439 9.91236 19.4166 9.94133L22.3922 10.4407L20.2785 12.5937Z" fill="#402F22"></path><path d="M26.0796 12.555C25.7737 12.5141 25.493 12.7295 25.4526 13.0353C24.9345 16.9454 21.5668 19.8941 17.6191 19.8941C13.2617 19.8941 9.71663 16.3492 9.71663 11.9917C9.71663 7.63417 13.2617 4.08919 17.6191 4.08919C21.5669 4.08919 24.9345 7.03783 25.4526 10.948C25.493 11.2538 25.7743 11.4694 26.0796 11.4283C26.3853 11.3878 26.6004 11.1071 26.5598 10.8013C25.9685 6.33798 22.1249 2.97217 17.6191 2.97217C12.6458 2.97217 8.59961 7.01824 8.59961 11.9917C8.59961 16.9651 12.6458 21.0111 17.6191 21.0111C22.1249 21.0111 25.9685 17.6453 26.5599 13.182C26.6004 12.8763 26.3853 12.5955 26.0796 12.555Z" fill="#402F22"></path></g><defs><clipPath id="z4clip0"><rect width="35" height="35" fill="white" transform="translate(0.119141 0.738037)"></rect></clipPath></defs></svg> 