<?xml version="1.0" encoding="UTF-8"?> <svg xmlns="http://www.w3.org/2000/svg" width="36" height="36" viewBox="0 0 36 36" fill="none"><g clip-path="url(#z1clip0)"><path d="M14.1983 31.9202C14.1607 31.7982 14.0888 31.6896 13.9912 31.6072C10.66 28.7891 10.8999 25.9109 11.1597 22.8596C11.4129 19.8682 11.6727 16.7702 8.49478 13.892C8.31506 13.7269 8.05948 13.6732 7.82854 13.7521C6.14297 14.2785 4.90377 15.7908 4.33747 18.0227C3.81389 20.3888 3.94281 22.8528 4.71056 25.1514C6.12298 29.6685 9.37421 32.9464 12.4789 32.9464C12.9126 32.947 13.3439 32.8818 13.758 32.7532C14.1096 32.6447 14.3068 32.2718 14.1983 31.9202ZM6.00306 24.7518C5.30867 22.6888 5.18667 20.4761 5.64995 18.3492C6.05636 16.7569 6.84251 15.6443 7.8885 15.158C10.2736 17.5098 10.0671 19.9415 9.82725 22.7464C9.5874 25.5512 9.33423 28.6226 12.0458 31.5807C9.68734 31.2609 7.14898 28.436 6.00306 24.7518Z" fill="#402F22"></path><path d="M28.1951 17.5767C27.3114 16.8493 26.1945 16.466 25.0504 16.4974C23.0517 16.4974 20.8598 17.4368 18.8744 19.0424C16.969 14.592 13.4379 12.0203 10.3866 12.9597C10.0352 13.069 9.83893 13.4424 9.94819 13.7937C9.984 13.9087 10.0503 14.0119 10.1401 14.0923C12.805 16.5307 12.6185 19.0424 12.372 21.9605C12.1588 24.4589 11.9456 27.0373 13.6645 29.6156C13.7859 30.7947 14.3444 31.8857 15.2301 32.6736C15.5098 32.9127 15.9303 32.8799 16.1694 32.6002C16.2518 32.5038 16.305 32.386 16.3227 32.2605C16.9357 27.9367 19.5073 26.6109 22.2256 25.2118C24.8905 23.8393 27.6621 22.4202 28.4149 18.1963C28.4557 17.9655 28.3723 17.7301 28.1951 17.5767ZM13.7044 22.0671H13.6978C13.9176 19.4022 14.1508 16.6973 12.0055 14.1123C14.1575 14.3255 16.496 16.6307 17.8084 19.9752C17.4842 20.2905 17.1711 20.6237 16.8691 20.9745C15.4017 22.637 14.3593 24.6305 13.831 26.7841C13.5191 25.2306 13.4762 23.635 13.7044 22.0671ZM21.646 24.0459C19.1476 25.3317 16.376 26.7241 15.3034 30.6016V30.5949C14.9213 29.6392 14.8264 28.5926 15.0302 27.5836C15.4461 25.4459 16.4338 23.4612 17.8884 21.8406C20.0137 19.3622 22.7586 17.8432 25.0504 17.8432C25.755 17.8174 26.451 18.003 27.0491 18.3762C26.3229 21.6407 24.1443 22.76 21.646 24.0459Z" fill="#402F22"></path><path d="M30.2146 19.2822C30.0272 19.1355 29.7758 19.1 29.5551 19.1889C29.3288 19.2694 29.1634 19.4654 29.122 19.7019C28.4558 23.2796 26.2372 24.4322 23.6389 25.7713C20.874 27.1904 17.7361 28.8027 17.0232 33.8194C16.9913 34.0449 17.0767 34.271 17.2497 34.4191C18.1334 35.1464 19.2502 35.5298 20.3943 35.4984C23.0593 35.4984 26.1906 33.7795 28.5624 31.0146C30.1776 29.2064 31.2714 26.9934 31.727 24.6121C32.0867 22.3402 31.5538 20.4614 30.2146 19.2822ZM30.4145 24.3989L30.4078 24.4055C29.992 26.5432 29.0042 28.5279 27.5497 30.1485C25.4244 32.6269 22.6795 34.1459 20.3877 34.1459C19.6818 34.1678 18.9856 33.9774 18.389 33.5996C19.1018 29.6022 21.5936 28.2697 24.2318 26.9372C26.5903 25.7247 29.0221 24.4722 30.0747 21.2876C30.5046 22.2652 30.6232 23.3515 30.4145 24.3989Z" fill="#402F22"></path><path d="M12.9316 0.720725C12.6856 0.447152 12.2643 0.424833 11.9907 0.67084C11.7171 0.916848 11.6948 1.33816 11.9408 1.61173C11.9629 1.6363 11.9867 1.65912 12.0122 1.6801C13.8043 3.39899 13.1781 4.29841 12.2387 5.67752C11.3792 6.92337 10.1933 8.6356 11.9389 10.9874C12.1597 11.2818 12.5772 11.3414 12.8716 11.1207C13.166 10.8999 13.2256 10.4823 13.0049 10.1879C11.819 8.60895 12.4519 7.68954 13.3313 6.4237C14.3173 4.99795 15.5432 3.23243 12.9316 0.720725Z" fill="#402F22"></path><path d="M18.7683 2.71951C18.4845 2.48533 18.0646 2.52556 17.8304 2.80937C17.6205 3.06379 17.6283 3.43363 17.8489 3.67889C19.6411 5.39778 19.0148 6.2972 18.0754 7.6763C17.2093 8.92216 16.0167 10.6344 17.7756 12.9862C17.9964 13.2806 18.4139 13.3402 18.7083 13.1194C19.0027 12.8987 19.0624 12.4811 18.8416 12.1867C17.6557 10.6077 18.2886 9.68833 19.168 8.42249C20.1541 6.99674 21.3799 5.23122 18.7683 2.71951Z" fill="#402F22"></path><path d="M24.5915 4.71829C24.3077 4.48411 23.8878 4.52434 23.6537 4.80815C23.4437 5.06257 23.4515 5.43241 23.6721 5.67767C25.4643 7.39656 24.8381 8.29598 23.8987 9.67508C23.0326 10.9209 21.8466 12.6332 23.5989 14.985C23.8194 15.2795 24.2369 15.3396 24.5315 15.1191C24.8261 14.8985 24.8861 14.481 24.6656 14.1864C24.6653 14.1861 24.6651 14.1858 24.6649 14.1855C23.479 12.6065 24.1119 11.6871 24.9914 10.4213C25.9773 8.99552 27.2032 7.23 24.5915 4.71829Z" fill="#402F22"></path></g><defs><clipPath id="z1clip0"><rect width="35" height="35" fill="white" transform="translate(0.428711 0.5)"></rect></clipPath></defs></svg> 