<?xml version="1.0" encoding="UTF-8"?> <svg xmlns="http://www.w3.org/2000/svg" width="36" height="36" viewBox="0 0 36 36" fill="none"><g clip-path="url(#z2clip0)"><path d="M34.959 14.6162H29.3535V13.1692C29.3535 12.7916 29.0474 12.4856 28.6699 12.4856H13.9043C13.5268 12.4856 13.2207 12.7916 13.2207 13.1692C13.2207 13.5467 13.5268 13.8528 13.9043 13.8528H27.9863V19.0936C27.9863 23.6975 25.5283 27.9764 21.5593 30.3045H8.43678C4.46776 27.9764 2.00977 23.6975 2.00977 19.0937V13.8529H6.58984C6.96732 13.8529 7.27344 13.5468 7.27344 13.1693C7.27344 12.7917 6.96732 12.4857 6.58984 12.4857H1.32617C0.948691 12.4857 0.642578 12.7917 0.642578 13.1693V19.0937C0.642578 21.6777 1.33711 24.2113 2.65111 26.4206C3.53726 27.9107 4.68706 29.2265 6.03354 30.3046H1.32617C0.948691 30.3046 0.642578 30.6107 0.642578 30.9882C0.642578 33.476 2.66649 35.4999 5.1543 35.4999H26.4824C28.9702 35.4999 30.9941 33.476 30.9941 30.9882C30.9941 30.6107 30.688 30.3046 30.3105 30.3046H23.9626C25.2018 29.3123 26.2739 28.1183 27.1277 26.7727H29.0573C32.6884 26.7727 35.6426 23.8185 35.6426 20.1874V15.2997C35.6426 14.9222 35.3365 14.6162 34.959 14.6162ZM29.5521 31.6718C29.2392 33.0781 27.9816 34.1327 26.4824 34.1327H5.1543C3.65511 34.1327 2.39764 33.0781 2.08462 31.6718H8.25364H21.7425H29.5521ZM29.3535 19.0937V18.7177H31.541V20.1874C31.541 21.5569 30.4268 22.6711 29.0573 22.6711H28.9021C29.2005 21.5086 29.3535 20.3067 29.3535 19.0937ZM34.2754 20.1874C34.2754 23.0647 31.9346 25.4055 29.0573 25.4055H27.8938C28.1121 24.9597 28.3071 24.5034 28.4774 24.0383H29.0573C31.1808 24.0383 32.9082 22.3108 32.9082 20.1874V18.0341C32.9082 17.6566 32.6021 17.3505 32.2246 17.3505H29.3535V15.9833H34.2754V20.1874Z" fill="#402F22"></path><path d="M15.6509 4.28324L15.2952 3.83664C14.773 3.18121 14.7723 2.26499 15.2933 1.60861C15.5281 1.31288 15.4786 0.882904 15.1829 0.648226C14.8871 0.413412 14.4572 0.462972 14.2224 0.758695C13.3035 1.91643 13.3049 3.53238 14.2258 4.68847L14.5814 5.13506C15.2637 5.9916 15.2648 7.18892 14.5839 8.04676L14.2194 8.506C13.9847 8.80172 14.0342 9.2317 14.3299 9.46638C14.4556 9.56612 14.6055 9.61458 14.7544 9.61458C14.9558 9.61458 15.1553 9.52599 15.2903 9.35591L15.6548 8.89667C16.7335 7.53755 16.732 5.64044 15.6509 4.28324Z" fill="#402F22"></path><path d="M19.4399 5.8201L19.0842 5.37358C18.5621 4.71808 18.5614 3.80186 19.0824 3.14547C19.3171 2.84975 19.2677 2.41977 18.9719 2.18509C18.6761 1.95028 18.2462 1.99984 18.0115 2.29556C17.0926 3.45329 17.094 5.06924 18.0148 6.2254L18.3705 6.672C19.0527 7.52861 19.0538 8.72599 18.3729 9.58376L18.0085 10.0429C17.7737 10.3387 17.8232 10.7686 18.1189 11.0033C18.2447 11.103 18.3946 11.1514 18.5435 11.1514C18.7448 11.1514 18.9445 11.0628 19.0794 10.8928L19.4437 10.4336C20.5225 9.07455 20.521 7.17744 19.4399 5.8201Z" fill="#402F22"></path><path d="M11.8618 5.82034L11.5061 5.37382C10.984 4.71839 10.9832 3.8021 11.5042 3.14571C11.739 2.84999 11.6895 2.42001 11.3937 2.18526C11.0979 1.95052 10.668 2.00015 10.4333 2.29573C9.51447 3.45347 9.51584 5.06948 10.4367 6.22558L10.7924 6.67217C11.4746 7.52878 11.4756 8.72616 10.7948 9.58387L10.4304 10.043C10.1956 10.3388 10.245 10.7687 10.5408 11.0035C10.6665 11.1032 10.8163 11.1517 10.9653 11.1517C11.1666 11.1517 11.3662 11.0631 11.5011 10.8931L11.8657 10.4338C12.9444 9.0748 12.9428 7.17769 11.8618 5.82034Z" fill="#402F22"></path><path d="M10.9159 12.6856C10.7888 12.5585 10.6124 12.4854 10.4326 12.4854C10.2528 12.4854 10.0765 12.5585 9.94932 12.6856C9.82224 12.8135 9.74902 12.9892 9.74902 13.1689C9.74902 13.3487 9.82217 13.5251 9.94932 13.6529C10.0765 13.7801 10.2528 13.8525 10.4326 13.8525C10.6124 13.8525 10.7888 13.7801 10.9159 13.6529C11.0437 13.5251 11.1162 13.3494 11.1162 13.1689C11.1162 12.9892 11.0437 12.8128 10.9159 12.6856Z" fill="#402F22"></path><path d="M25.3881 18.4102C25.0106 18.4102 24.7045 18.7162 24.7045 19.0937C24.7045 21.6312 23.6752 24.1249 21.8807 25.9354C21.6149 26.2035 21.6169 26.6363 21.885 26.9021C22.0183 27.0342 22.1923 27.1002 22.3662 27.1002C22.5422 27.1001 22.7181 27.0326 22.8518 26.8977C24.8981 24.8333 26.0717 21.9888 26.0717 19.0937C26.0717 18.7162 25.7655 18.4102 25.3881 18.4102Z" fill="#402F22"></path><path d="M20.7322 27.7907C20.5467 27.4619 20.1298 27.3457 19.801 27.5312L19.7854 27.54C19.4565 27.7255 19.3403 28.1424 19.5258 28.4713C19.6515 28.694 19.8831 28.8191 20.1218 28.8191C20.2356 28.8191 20.351 28.7906 20.4571 28.7308L20.4727 28.722C20.8015 28.5365 20.9177 28.1195 20.7322 27.7907Z" fill="#402F22"></path></g><defs><clipPath id="z2clip0"><rect width="35" height="35" fill="white" transform="translate(0.642578 0.5)"></rect></clipPath></defs></svg> 