<?xml version="1.0" encoding="UTF-8"?> <svg xmlns="http://www.w3.org/2000/svg" width="32" height="32" viewBox="0 0 32 32" fill="none"><g clip-path="url(#q2clip0)"><path d="M31.9351 12.2988C31.7751 11.8066 31.3556 11.4711 30.8402 11.4233L21.0568 10.5159L19.1175 6.01251C19.015 5.77476 18.7394 5.66489 18.5016 5.76739C18.2638 5.86976 18.1541 6.14551 18.2565 6.3832L20.3059 11.1422C20.3738 11.2998 20.5223 11.4077 20.6931 11.4235L30.7537 12.3566C30.9533 12.3751 31.0229 12.5248 31.0436 12.5883C31.0642 12.6518 31.0959 12.8138 30.9453 12.9461L23.3545 19.6146C23.2256 19.7279 23.1689 19.9025 23.2066 20.0699L25.4282 29.9263C25.4723 30.122 25.3514 30.2344 25.2973 30.2736C25.2433 30.3129 25.0991 30.3933 24.9266 30.2908L16.2389 25.1322C16.0915 25.0447 15.9077 25.0447 15.7603 25.1322L7.07266 30.2908C6.90016 30.3934 6.75604 30.3129 6.70197 30.2736C6.64791 30.2344 6.52697 30.122 6.57104 29.9264L7.71778 24.8385C7.77472 24.586 7.6161 24.3351 7.3636 24.2782C7.11066 24.2213 6.86022 24.3799 6.80329 24.6324L5.65654 29.7203C5.54279 30.2252 5.73222 30.7278 6.15091 31.0321C6.5696 31.3362 7.10622 31.3611 7.55116 31.0969L15.9995 26.0803L24.4479 31.0969C24.6529 31.2186 24.8773 31.279 25.1006 31.279C25.3621 31.279 25.6223 31.1961 25.8481 31.0321C26.2668 30.7278 26.4562 30.2253 26.3425 29.7203L24.1821 20.1353L31.5639 13.6506C31.9528 13.309 32.0949 12.791 31.9351 12.2988Z" fill="#402F22"></path><path d="M18.2563 4.01207L17.1709 1.49157C16.9661 1.0162 16.5175 0.720947 15.9999 0.720947C15.4824 0.720947 15.0337 1.01626 14.8289 1.49163L10.9427 10.5159L1.15944 11.4232C0.64413 11.471 0.224568 11.8064 0.0645676 12.2987C-0.0953699 12.7909 0.0468176 13.3089 0.435693 13.6505L7.81732 20.1352L7.25538 22.6284C7.19844 22.881 7.35707 23.1319 7.60957 23.1888C7.64432 23.1966 7.67894 23.2004 7.71307 23.2004C7.92744 23.2004 8.12082 23.0524 8.16988 22.8346L8.793 20.0698C8.83076 19.9023 8.774 19.7277 8.64513 19.6145L1.05438 12.9462C0.903755 12.8139 0.935505 12.6519 0.956193 12.5884C0.976818 12.5249 1.04632 12.3751 1.24601 12.3566L11.3065 11.4236C11.4773 11.4078 11.6259 11.2998 11.6938 11.1423L15.69 1.86245C15.7693 1.67832 15.9332 1.65838 15.9999 1.65838C16.0668 1.65838 16.2306 1.67826 16.3099 1.86238L17.3954 4.38282C17.4979 4.62057 17.7735 4.73039 18.0113 4.62795C18.2489 4.52557 18.3587 4.24982 18.2563 4.01207Z" fill="#402F22"></path></g><defs><clipPath id="q2clip0"><rect width="32" height="32" fill="white"></rect></clipPath></defs></svg> 