<?xml version="1.0" encoding="UTF-8"?> <svg xmlns="http://www.w3.org/2000/svg" width="32" height="32" viewBox="0 0 32 32" fill="none"><g clip-path="url(#q1clip0)"><path d="M29.8848 14.5374C29.8436 12.8287 29.4982 11.1759 28.8548 9.61531C29.0773 9.46419 29.2493 9.24444 29.3381 8.98763C29.4503 8.66294 29.4236 8.30219 29.2646 7.998C28.2773 6.10769 26.9218 4.48125 25.2361 3.164C25.0326 3.00506 24.7388 3.041 24.5797 3.24456C24.4208 3.44806 24.4568 3.74194 24.6603 3.90094C26.2403 5.1355 27.5105 6.65963 28.4358 8.43106C28.4766 8.50925 28.4832 8.59838 28.4543 8.682C28.4252 8.76612 28.3646 8.83256 28.2835 8.86906L26.0757 9.86456C25.9239 9.93287 25.7437 9.8725 25.6654 9.72694C23.7613 6.18825 20.0838 3.98994 16.068 3.98994C12.0522 3.98994 8.37469 6.18825 6.47063 9.72694C6.39225 9.8725 6.212 9.933 6.06038 9.86456L3.85244 8.869C3.77144 8.83256 3.71081 8.76612 3.68175 8.68206C3.65281 8.59844 3.65938 8.50919 3.70025 8.431C6.11531 3.80737 10.8543 0.935125 16.068 0.935125C18.5042 0.935125 20.9114 1.5805 23.0293 2.8015C23.253 2.93019 23.5389 2.85362 23.6679 2.62994C23.7969 2.40619 23.7201 2.12031 23.4964 1.99131C21.2366 0.688563 18.6679 0 16.068 0C13.3475 0 10.6763 0.74925 8.34331 2.16681C6.01825 3.57944 4.12613 5.59588 2.87138 7.998C2.71244 8.30231 2.68569 8.663 2.798 8.98775C2.88688 9.24463 3.05888 9.46431 3.28144 9.61544C2.64519 11.1588 2.29963 12.7921 2.25238 14.4808C1.39419 14.8011 0.781313 15.6289 0.781313 16.5974V20.4468C0.781313 20.705 0.990625 20.9143 1.24888 20.9143C1.50713 20.9143 1.71644 20.705 1.71644 20.4468V16.5974C1.71644 15.8677 2.31006 15.2741 3.03975 15.2741H4.25831C4.988 15.2741 5.58163 15.8678 5.58163 16.5974V23.3799C5.58163 24.1096 4.988 24.7033 4.25831 24.7033H3.03969C2.31 24.7033 1.71638 24.1096 1.71638 23.3799V22.5002C1.71638 22.2419 1.50706 22.0326 1.24881 22.0326C0.990563 22.0326 0.78125 22.2419 0.78125 22.5002V23.3799C0.78125 24.6252 1.79438 25.6384 3.03975 25.6384H4.25831C5.50363 25.6384 6.51681 24.6253 6.51681 23.3799V16.5974C6.51681 15.634 5.91025 14.8101 5.05913 14.4861C5.10413 13.2043 5.36825 11.96 5.84531 10.7776C6.40238 10.9374 7.01306 10.6926 7.29425 10.17C9.035 6.93481 12.3969 4.92506 16.0681 4.92506C19.7393 4.92506 23.1013 6.93475 24.842 10.17C25.066 10.5863 25.4993 10.8272 25.9478 10.8272C26.0624 10.8272 26.1779 10.8111 26.2913 10.7786C26.7623 11.9464 27.0253 13.1746 27.0749 14.4397C26.1545 14.7251 25.484 15.5844 25.484 16.5974V23.3799C25.484 24.2448 25.9729 24.9973 26.6886 25.3766C26.0447 26.8241 24.688 27.8542 23.1139 28.0729C22.9596 27.8044 22.7452 27.5697 22.4803 27.3906C22.2663 27.2461 21.9756 27.3024 21.8311 27.5164C21.6865 27.7303 21.7428 28.0209 21.9568 28.1656C22.2676 28.3755 22.4531 28.7242 22.4531 29.0986V29.94C22.4531 30.5603 21.9485 31.0649 21.3282 31.0649H19.0453C18.425 31.0649 17.9204 30.5603 17.9204 29.94V29.0986C17.9204 28.4783 18.4249 27.9737 19.0453 27.9737H19.9997C20.2579 27.9737 20.4673 27.7644 20.4673 27.5061C20.4673 27.2479 20.2579 27.0386 19.9997 27.0386H19.0453C17.9094 27.0386 16.9853 27.9627 16.9853 29.0986V29.94C16.9853 31.0759 17.9094 32 19.0453 32H21.3282C22.1214 32 22.8109 31.549 23.155 30.8902C24.6695 30.753 26.0828 30.1632 27.2533 29.1749C28.3928 28.213 29.2019 26.962 29.6058 25.5441C30.5378 25.2659 31.2194 24.4013 31.2194 23.3799V16.5974C31.2194 15.6812 30.6706 14.8912 29.8848 14.5374ZM4.98669 10.4062C4.4775 11.6612 4.19006 12.9804 4.12956 14.339H3.19344C3.25438 12.841 3.5675 11.3916 4.12713 10.0188L4.98669 10.4062ZM28.0064 14.339C27.9459 12.9803 27.6585 11.6612 27.1493 10.4063L28.0089 10.0187C28.5685 11.3916 28.8816 12.8411 28.9425 14.339H28.0064ZM23.3881 29.9223V29.0986C23.3881 29.0578 23.3868 29.0172 23.3844 28.9768C25.2616 28.6655 26.8631 27.3944 27.5959 25.6332C27.6444 25.6363 27.6931 25.6384 27.7424 25.6384H28.5939C27.7996 27.9032 25.7661 29.5812 23.3881 29.9223ZM30.2843 23.3799C30.2843 24.1096 29.6906 24.7033 28.961 24.7033H27.7424C27.0127 24.7033 26.4191 24.1096 26.4191 23.3799V16.5974C26.4191 15.8677 27.0128 15.2741 27.7424 15.2741H28.961C29.6907 15.2741 30.2843 15.8678 30.2843 16.5974V23.3799Z" fill="#402F22"></path><path d="M16.8965 21.8193C16.8388 21.8193 16.7803 21.8087 16.7234 21.786C16.4828 21.6904 16.3653 21.4178 16.4611 21.1773L18.3981 16.3072C18.4938 16.0666 18.7665 15.949 19.0068 16.0448C19.2475 16.1405 19.3649 16.4131 19.2692 16.6536L17.3322 21.5237C17.2591 21.7074 17.0828 21.8193 16.8965 21.8193Z" fill="#402F22"></path><path d="M21.4111 21.8195C21.3481 21.8195 21.2841 21.8067 21.2227 21.7797C20.9857 21.6755 20.878 21.3989 20.9822 21.1619L22.8341 16.9492H20.873C20.6141 16.9492 20.4043 16.7394 20.4043 16.4805C20.4043 16.2215 20.6141 16.0117 20.873 16.0117H23.5522C23.7106 16.0117 23.8582 16.0917 23.9447 16.2242C24.0312 16.3568 24.0451 16.5242 23.9814 16.6691L21.8405 21.5392C21.7633 21.7148 21.5914 21.8195 21.4111 21.8195Z" fill="#402F22"></path><path d="M14.4569 21.8191C14.4556 21.8191 14.4542 21.8191 14.4528 21.8191C14.1939 21.8169 13.9859 21.6052 13.9881 21.3464C13.9907 21.052 13.9932 20.7235 13.9957 20.3817H12.0322C11.8664 20.3817 11.7129 20.2941 11.6286 20.1513C11.5443 20.0085 11.5417 19.8317 11.6218 19.6865C11.8956 19.1902 13.2756 16.697 13.5554 16.3539C13.7889 16.0675 14.1037 15.9508 14.3978 16.0418C14.6953 16.1339 14.9066 16.4232 14.9362 16.7788C14.9509 16.9542 14.9467 18.2555 14.9397 19.4442H15.0906C15.3494 19.4442 15.5593 19.654 15.5593 19.9129C15.5593 20.1719 15.3494 20.3817 15.0906 20.3817H14.9334C14.9302 20.8205 14.9272 21.1765 14.9257 21.3544C14.9234 21.6119 14.7139 21.8191 14.4569 21.8191ZM12.8284 19.4442H14.0019C14.0066 18.6434 14.0097 17.8709 14.0084 17.3782C13.7273 17.8495 13.2814 18.6324 12.8284 19.4442Z" fill="#402F22"></path><path d="M9.61703 21.8679C8.68122 21.8679 8.6124 21.845 8.54946 21.824C8.39321 21.7719 8.27653 21.6539 8.22921 21.5001C8.14765 21.2351 8.26159 21.0859 8.56603 20.6873C8.81365 20.3631 9.27472 19.7594 10.0472 18.6557C10.2766 18.3279 10.4246 18.0344 10.4872 17.7826L10.5038 17.6524C10.4899 17.2359 10.1467 16.9014 9.72684 16.9014C9.35609 16.9014 9.03528 17.1647 8.96397 17.5276C8.91403 17.7816 8.66765 17.9468 8.41365 17.8972C8.15965 17.8473 7.99415 17.601 8.04403 17.3469C8.20146 16.5456 8.90915 15.9639 9.72678 15.9639C10.6723 15.9639 11.4417 16.7332 11.4417 17.6787C11.4417 17.6986 11.4404 17.7184 11.4378 17.7381L11.4138 17.9265C11.4118 17.9422 11.409 17.9577 11.4055 17.9731C11.3188 18.3469 11.1202 18.7574 10.8151 19.1932C10.2396 20.0154 9.83397 20.5648 9.55934 20.9292C10.0205 20.9307 10.615 20.9251 11.1734 20.9181C11.4325 20.9161 11.6448 21.1221 11.648 21.3808C11.6513 21.6397 11.4441 21.8522 11.1852 21.8554C10.4919 21.8643 9.98678 21.8679 9.61703 21.8679Z" fill="#402F22"></path></g><defs><clipPath id="q1clip0"><rect width="32" height="32" fill="white"></rect></clipPath></defs></svg> 