<?xml version="1.0" encoding="UTF-8"?> <svg xmlns="http://www.w3.org/2000/svg" width="41" height="40" viewBox="0 0 41 40" fill="none"><g clip-path="url(#clip01)"><path d="M33.7624 22.7155C33.4644 17.7262 30.3401 13.3522 25.7258 11.4392L30.7727 3.07568C30.7823 3.06607 30.7919 3.04684 30.7919 3.03723C31.311 2.08552 30.9554 0.893483 29.994 0.374369C29.5711 0.143652 29.0808 0.0763595 28.6193 0.191718L27.0428 0.55702C23.8704 1.28762 20.5827 1.38376 17.3719 0.82619L12.7095 0.0282934C11.6424 -0.154358 10.6234 0.566633 10.4408 1.6337C10.3639 2.06629 10.4408 2.5085 10.6523 2.89303C10.6619 2.90264 10.6619 2.92187 10.6715 2.93148L15.7761 11.4488C11.1521 13.3522 8.03746 17.7358 7.74906 22.7251L6.79735 38.9906C6.76851 39.5194 7.17227 39.9712 7.69138 40C7.71061 40 7.72983 40 7.74906 40H33.7432C34.2719 40 34.7045 39.5771 34.7045 39.0483C34.7045 39.0291 34.7045 39.0099 34.7045 38.9906L33.7624 22.7155ZM12.325 1.97978C12.325 1.97016 12.325 1.96055 12.3346 1.94132C12.3538 1.9221 12.3634 1.9221 12.373 1.9221L17.0354 2.71999C20.4962 3.31601 24.0435 3.21988 27.4658 2.4316L29.0327 2.06629C29.0519 2.05668 29.0712 2.06629 29.0808 2.08552C29.0904 2.10475 29.0904 2.10475 29.0904 2.11436L23.9569 10.6124C23.9185 10.6797 23.88 10.7566 23.8608 10.8335C23.6301 10.7759 23.3994 10.7278 23.1687 10.6797C23.1687 10.6701 23.1783 10.6605 23.1783 10.6413L23.9762 7.50737C24.1108 6.98826 23.7935 6.46915 23.284 6.34418C22.7745 6.2192 22.2458 6.52683 22.1208 7.03633L21.3325 10.1798C21.3037 10.276 21.3037 10.3721 21.3037 10.4682C21.121 10.4586 20.9384 10.4586 20.7557 10.4586C20.6308 10.4586 20.4962 10.4586 20.3712 10.4682L18.785 5.4886C18.6312 4.9791 18.0929 4.70031 17.5834 4.85413C17.0739 5.00794 16.7951 5.54628 16.9489 6.05578C16.9489 6.06539 16.9489 6.06539 16.9585 6.075L18.4197 10.6701C18.1313 10.7182 17.8525 10.7855 17.5642 10.8528C17.5449 10.7182 17.5065 10.5932 17.4296 10.4779L12.325 1.97978ZM8.77767 38.0774L9.6717 22.8308C10.037 16.7072 15.2954 12.0352 21.4191 12.4005C22.092 12.439 22.7649 12.5447 23.4186 12.7081C28.1387 13.8809 31.5418 17.9762 31.8398 22.8308L32.7338 38.0774H8.77767Z" fill="#402F22"></path><path d="M25.3123 30.0791C25.1393 29.5793 24.5913 29.3197 24.0818 29.4927C24.0626 29.5024 24.0434 29.5024 24.0338 29.512C22.3419 30.1561 20.4192 29.7523 19.1407 28.4737C18.9868 28.3295 18.8426 28.1661 18.7273 27.9835H23.2647C23.7934 27.9835 24.226 27.5509 24.226 27.0221C24.226 26.4934 23.7934 26.0608 23.2647 26.0608H17.8813C17.814 25.7147 17.7948 25.3591 17.814 25.0034H23.7742C24.3029 25.0034 24.7355 24.5708 24.7355 24.0421C24.7355 23.5133 24.3029 23.0807 23.7742 23.0807H18.3524C18.5639 22.6866 18.833 22.3213 19.1503 22.0041C20.4288 20.7159 22.3515 20.3025 24.0434 20.9562C24.5337 21.1485 25.0912 20.9081 25.2931 20.4083C25.4854 19.918 25.245 19.3604 24.7452 19.1585H24.7355C22.3322 18.2357 19.6117 18.8221 17.7852 20.639C17.0834 21.3215 16.5643 22.1579 16.2567 23.0807H15.2377C14.709 23.0807 14.2764 23.5133 14.2764 24.0421C14.2764 24.5708 14.709 25.0034 15.2377 25.0034H15.8914C15.8818 25.3591 15.8914 25.7147 15.9395 26.0608H15.2377C14.709 26.0608 14.2764 26.4934 14.2764 27.0221C14.2764 27.5509 14.709 27.9835 15.2377 27.9835H16.497C16.8239 28.666 17.2565 29.2909 17.7852 29.8292C19.6021 31.6461 22.3226 32.2229 24.7259 31.3096C25.2258 31.1366 25.4854 30.5886 25.3123 30.0791Z" fill="#402F22"></path></g><defs><clipPath id="clip01"><rect width="40" height="40" fill="white" transform="translate(0.75)"></rect></clipPath></defs></svg> 