<?xml version="1.0" encoding="UTF-8"?> <svg xmlns="http://www.w3.org/2000/svg" width="40" height="40" viewBox="0 0 40 40" fill="none"><g clip-path="url(#clip02)"><path d="M39.2188 16.1328H32.8125V14.4791C32.8125 14.0476 32.4627 13.6979 32.0312 13.6979H15.1562C14.7248 13.6979 14.375 14.0476 14.375 14.4791C14.375 14.9106 14.7248 15.2604 15.1562 15.2604H31.25V21.2499C31.25 26.5115 28.4409 31.4016 23.9048 34.0624H8.90766C4.37164 31.4017 1.5625 26.5115 1.5625 21.25V15.2605H6.79688C7.22828 15.2605 7.57812 14.9107 7.57812 14.4792C7.57812 14.0477 7.22828 13.698 6.79688 13.698H0.78125C0.349844 13.698 0 14.0477 0 14.4792V21.25C0 24.2031 0.79375 27.0987 2.29547 29.6236C3.3082 31.3265 4.62227 32.8303 6.16109 34.0625H0.78125C0.349844 34.0625 0 34.4122 0 34.8437C0 37.6869 2.31305 40 5.15625 40H29.5312C32.3745 40 34.6875 37.6869 34.6875 34.8437C34.6875 34.4122 34.3377 34.0625 33.9062 34.0625H26.6514C28.0677 32.9284 29.293 31.5638 30.2687 30.026H32.474C36.6238 30.026 40 26.6498 40 22.5V16.914C40 16.4826 39.6502 16.1328 39.2188 16.1328ZM33.0395 35.625C32.6818 37.2322 31.2446 38.4375 29.5312 38.4375H5.15625C3.44289 38.4375 2.00578 37.2322 1.64805 35.625H8.69836H24.1141H33.0395ZM32.8125 21.25V20.8203H35.3125V22.5C35.3125 24.0651 34.0391 25.3385 32.474 25.3385H32.2966C32.6376 24.0099 32.8125 22.6363 32.8125 21.25ZM38.4375 22.5C38.4375 25.7883 35.7623 28.4635 32.474 28.4635H31.1443C31.3938 27.954 31.6166 27.4325 31.8112 26.901H32.474C34.9008 26.901 36.875 24.9267 36.875 22.5V20.039C36.875 19.6076 36.5252 19.2578 36.0938 19.2578H32.8125V17.6953H38.4375V22.5Z" fill="#402F22"></path><path d="M17.1525 4.3237L16.746 3.81331C16.1492 3.06424 16.1484 2.01714 16.7439 1.26698C17.0121 0.929011 16.9556 0.437604 16.6176 0.169401C16.2796 -0.098958 15.7882 -0.0423174 15.52 0.295651C14.4698 1.61878 14.4714 3.46557 15.5238 4.78682L15.9303 5.29721C16.71 6.27612 16.7112 7.64448 15.9331 8.62487L15.5165 9.14971C15.2482 9.48768 15.3048 9.97909 15.6428 10.2473C15.7864 10.3613 15.9578 10.4167 16.1279 10.4167C16.3581 10.4167 16.5861 10.3154 16.7404 10.121L17.157 9.5962C18.3898 8.04292 18.388 5.87479 17.1525 4.3237Z" fill="#402F22"></path><path d="M21.4835 6.08023L21.077 5.56992C20.4803 4.82078 20.4794 3.77367 21.0749 3.02351C21.3432 2.68554 21.2866 2.19414 20.9487 1.92593C20.6106 1.65757 20.1193 1.71421 19.851 2.05218C18.8009 3.37531 18.8024 5.2221 19.8548 6.54343L20.2613 7.05382C21.041 8.03281 21.0422 9.40124 20.2641 10.3816L19.8476 10.9063C19.5793 11.2443 19.6359 11.7357 19.9738 12.0039C20.1175 12.1179 20.2888 12.1732 20.459 12.1732C20.6891 12.1732 20.9173 12.0719 21.0715 11.8776L21.4879 11.3528C22.7208 9.7996 22.719 7.63148 21.4835 6.08023Z" fill="#402F22"></path><path d="M12.8214 6.08029L12.4149 5.56997C11.8182 4.82091 11.8173 3.77372 12.4127 3.02357C12.681 2.6856 12.6245 2.19419 12.2865 1.92591C11.9484 1.65763 11.4571 1.71435 11.1888 2.05216C10.1388 3.37529 10.1403 5.22216 11.1927 6.54341L11.5992 7.0538C12.3789 8.03279 12.3801 9.40122 11.602 10.3815L11.1855 10.9062C10.9172 11.2442 10.9737 11.7356 11.3116 12.0039C11.4553 12.1179 11.6266 12.1733 11.7968 12.1733C12.027 12.1733 12.255 12.072 12.4092 11.8777L12.8259 11.3529C14.0587 9.79966 14.0569 7.63154 12.8214 6.08029Z" fill="#402F22"></path><path d="M11.7408 13.9265C11.5955 13.7812 11.3939 13.6976 11.1885 13.6976C10.983 13.6976 10.7814 13.7812 10.6361 13.9265C10.4909 14.0726 10.4072 14.2734 10.4072 14.4789C10.4072 14.6844 10.4908 14.8859 10.6361 15.032C10.7814 15.1773 10.983 15.2601 11.1885 15.2601C11.3939 15.2601 11.5955 15.1773 11.7408 15.032C11.8868 14.8859 11.9697 14.6851 11.9697 14.4789C11.9697 14.2734 11.8868 14.0719 11.7408 13.9265Z" fill="#402F22"></path><path d="M28.2807 20.4688C27.8493 20.4688 27.4994 20.8185 27.4994 21.25C27.4994 24.1499 26.3232 26.9998 24.2723 29.069C23.9685 29.3754 23.9708 29.8701 24.2772 30.1738C24.4295 30.3248 24.6283 30.4002 24.8272 30.4002C25.0283 30.4002 25.2294 30.323 25.3821 30.1688C27.7207 27.8095 29.0619 24.5587 29.0619 21.25C29.0619 20.8185 28.7121 20.4688 28.2807 20.4688Z" fill="#402F22"></path><path d="M22.9592 31.1894C22.7471 30.8136 22.2706 30.6808 21.8949 30.8928L21.8771 30.9029C21.5012 31.1149 21.3685 31.5914 21.5804 31.9672C21.724 32.2217 21.9888 32.3647 22.2616 32.3647C22.3916 32.3647 22.5235 32.3322 22.6447 32.2638L22.6625 32.2537C23.0384 32.0417 23.1711 31.5652 22.9592 31.1894Z" fill="#402F22"></path></g><defs><clipPath id="clip02"><rect width="40" height="40" fill="white"></rect></clipPath></defs></svg> 