<?xml version="1.0" encoding="UTF-8"?> <svg xmlns="http://www.w3.org/2000/svg" width="80" height="80" viewBox="0 0 80 80" fill="none"><path d="M64.7227 64.2849C60.861 68.26 55.9618 70.4568 51.5745 71.1857C49.382 71.5499 47.3447 71.5429 45.6528 71.2259C43.9465 70.9063 42.6719 70.2879 41.9058 69.5052C41.1373 68.72 40.5252 67.4159 40.2008 65.6729C39.8791 63.9443 39.8563 61.8631 40.1948 59.6221C40.8722 55.138 42.9787 50.1236 46.8402 46.1488C50.6004 42.2781 56.3433 40.9934 61.3177 40.7274C63.7819 40.5956 66.0047 40.7166 67.6119 40.871C68.4104 40.9477 69.0545 41.0324 69.4979 41.0977C69.5651 41.5502 69.6528 42.2077 69.7338 43.0229C69.8968 44.6639 70.0317 46.934 69.9211 49.4527C69.6977 54.5372 68.4829 60.4143 64.7227 64.2849Z" fill="#F4F0EC" stroke="#402F22" stroke-width="2"></path><path d="M40.2684 66.0123L61.0856 48.9965" stroke="#402F22" stroke-width="2" stroke-linecap="round"></path><path d="M56.165 53.2504C57.5529 54.1527 60.9341 55.8801 63.3564 55.5707" stroke="#402F22" stroke-width="2" stroke-linecap="round"></path><path d="M55.644 45.9026C55.3643 47.5589 54.9517 50.6993 56.1651 52.8636" stroke="#402F22" stroke-width="2" stroke-linecap="round"></path><path d="M49.7306 59.0513C51.3375 59.9396 55.2526 61.6401 58.0575 61.3356" stroke="#402F22" stroke-width="2" stroke-linecap="round"></path><path d="M48.8411 49.7699C48.5639 51.6151 48.1267 56.0689 49.3523 58.6646" stroke="#402F22" stroke-width="2" stroke-linecap="round"></path><path d="M43.6749 63.692C45.2819 64.5804 49.197 66.2809 52.0018 65.9763" stroke="#402F22" stroke-width="2" stroke-linecap="round"></path><path d="M38.1867 21.0243C41.3804 25.5763 42.6852 30.8777 42.6586 35.4191C42.6454 37.6886 42.2996 39.7401 41.7122 41.392C41.1198 43.0578 40.3109 44.2392 39.4279 44.8809C38.5422 45.5245 37.1817 45.9243 35.4455 45.9611C33.7238 45.9976 31.7115 45.6742 29.6051 44.9603C25.3903 43.5317 20.9016 40.5751 17.7082 36.0233C14.5985 31.591 14.3142 25.5914 14.8852 20.5354C15.168 18.0308 15.6546 15.8115 16.0711 14.2179C16.278 13.426 16.467 12.7911 16.6038 12.3553C17.0517 12.3628 17.7009 12.3839 18.5013 12.4379C20.1121 12.5467 22.3254 12.7885 24.7377 13.3191C29.6074 14.3902 35.0771 16.5919 38.1867 21.0243Z" fill="#F4F0EC" stroke="#402F22" stroke-width="2"></path><path d="M35.7845 45.9494L22.8268 22.1447" stroke="#402F22" stroke-width="2" stroke-linecap="round"></path><path d="M26.1135 27.8099C27.2153 26.5619 29.4449 23.4427 29.5494 20.9507" stroke="#402F22" stroke-width="2" stroke-linecap="round"></path><path d="M18.9357 27.1124C20.4876 27.6698 23.4496 28.6081 25.7403 27.7457" stroke="#402F22" stroke-width="2" stroke-linecap="round"></path><path d="M30.6411 35.2579C31.7658 33.7868 34.0584 30.1253 34.2312 27.2487" stroke="#402F22" stroke-width="2" stroke-linecap="round"></path><path d="M21.5359 34.61C23.2705 35.1963 27.496 36.3778 30.205 35.5749" stroke="#402F22" stroke-width="2" stroke-linecap="round"></path><path d="M34.1121 42.1313C35.2368 40.6602 37.5294 36.9987 37.7021 34.1221" stroke="#402F22" stroke-width="2" stroke-linecap="round"></path><path d="M57.2268 44.652C54.2786 48.81 50.4003 51.6311 46.5509 52.8601C42.7018 54.0891 38.9473 53.7147 36.1031 51.6093C33.2589 49.504 31.7407 45.9755 31.6842 41.8556C31.6278 37.7353 33.0429 33.091 35.9911 28.9329C38.9394 24.7749 42.8176 21.9539 46.667 20.7248C50.5161 19.4958 54.2706 19.8703 57.1148 21.9756C59.9591 24.081 61.4772 27.6095 61.5337 31.7294C61.5901 35.8496 60.175 40.494 57.2268 44.652Z" fill="#F4F0EC" stroke="#402F22" stroke-width="2"></path><path d="M57.6597 22.1495C55.0746 23.1139 49.3722 27.3436 47.2433 36.5462C45.1143 45.7488 38.885 50.4156 36.0365 51.5986" stroke="#402F22" stroke-width="2" stroke-linecap="round"></path><path d="M44.3573 50.0136C45.7716 55.4068 45.4444 60.6879 43.8197 64.8541C42.1948 69.0211 39.3086 72.0048 35.6183 73.0151C31.928 74.0254 27.9685 72.9159 24.5221 70.1373C21.0763 67.3593 18.2086 62.9529 16.7942 57.5597C15.3799 52.1665 15.7071 46.8855 17.3317 42.7192C18.9567 38.5522 21.8428 35.5686 25.5331 34.5582C29.2234 33.5479 33.183 34.6574 36.6294 37.436C40.0752 40.2141 42.9429 44.6205 44.3573 50.0136Z" fill="#F4F0EC" stroke="#402F22" stroke-width="2"></path><path d="M26.0722 34.3009C25.1011 37.1794 24.6884 44.964 30.8061 53.0739C36.9238 61.1839 36.5111 69.7193 35.54 72.9733" stroke="#402F22" stroke-width="2" stroke-linecap="round"></path></svg> 