<?xml version="1.0" encoding="UTF-8"?> <svg xmlns="http://www.w3.org/2000/svg" width="80" height="81" viewBox="0 0 80 81" fill="none"><path d="M1 71.3976H77C78.1046 71.3976 79 72.293 79 73.3976V78C79 79.1046 78.1046 80 77 80H3C1.89543 80 1 79.1046 1 78V71.3976Z" stroke="#402F22" stroke-width="2"></path><rect x="12.7073" y="9.71094" width="15.561" height="49.0843" rx="7.78049" fill="#F4F0EC" stroke="#402F22" stroke-width="2"></rect><path d="M1 57.265C1 52.2945 5.02944 48.265 10 48.265H14.3903C19.3608 48.265 23.3902 52.2945 23.3902 57.265V71.3253H1V57.265Z" fill="#F4F0EC" stroke="#402F22" stroke-width="2"></path><path d="M43.9268 37.735C43.9268 36.6304 44.8222 35.735 45.9268 35.735H67.3658C68.6693 35.735 69.6245 36.9619 69.3047 38.2256L68.8718 39.9365C68.6471 40.8241 67.8485 41.4458 66.9329 41.4458H45.9268C44.8222 41.4458 43.9268 40.5504 43.9268 39.4458V37.735Z" fill="#F4F0EC" stroke="#402F22" stroke-width="2"></path><rect x="1.42262" y="0.0197216" width="10.0873" height="33.5784" rx="5.04364" transform="matrix(0.721051 -0.692882 0.701567 0.712603 15.9927 21.9327)" fill="#F4F0EC" stroke="#402F22" stroke-width="2"></rect><path d="M64.3902 24.1325C63.3867 21.2643 68.2927 17.3855 68.2927 17.3855C68.2927 17.3855 73.1987 21.2643 72.1951 24.1325C71.5335 26.0233 70.1785 27.506 68.2927 27.506C66.4068 27.506 65.0518 26.0233 64.3902 24.1325Z" stroke="#402F22" stroke-width="2" stroke-linecap="round"></path><path d="M25.8536 5.81923C27.7979 5.40546 29.339 5.86222 30.7317 7.26502C31.9972 8.5397 32.4333 9.83248 32.1951 11.6024" stroke="#402F22" stroke-width="2" stroke-linecap="round"></path><path d="M25.3658 1.26196C28.9204 0.522113 31.7378 1.33882 34.2839 3.84707C36.5974 6.12625 37.3948 8.4378 36.9593 11.6024" stroke="#402F22" stroke-width="2" stroke-linecap="round"></path><path d="M18.5122 60.2771C18.5122 63.7059 15.6954 66.506 12.1951 66.506C8.69484 66.506 5.87805 63.7059 5.87805 60.2771C5.87805 56.8484 8.69484 54.0482 12.1951 54.0482C15.6954 54.0482 18.5122 56.8484 18.5122 60.2771Z" fill="#F4F0EC" stroke="#402F22" stroke-width="2"></path><path d="M14.6098 60.2771C14.6098 61.5765 13.5402 62.6506 12.1952 62.6506C10.8501 62.6506 9.78052 61.5765 9.78052 60.2771C9.78052 58.9776 10.8501 57.9036 12.1952 57.9036C13.5402 57.9036 14.6098 58.9776 14.6098 60.2771Z" stroke="#402F22" stroke-width="2"></path><path d="M28.2683 17.8676C28.2683 22.0948 24.7963 25.5423 20.4878 25.5423C16.1793 25.5423 12.7073 22.0948 12.7073 17.8676C12.7073 13.6403 16.1793 10.1929 20.4878 10.1929C24.7963 10.1929 28.2683 13.6403 28.2683 17.8676Z" fill="#F4F0EC" stroke="#402F22" stroke-width="2"></path><path d="M23.5854 17.8675C23.5854 19.5396 22.21 20.9157 20.4878 20.9157C18.7656 20.9157 17.3903 19.5396 17.3903 17.8675C17.3903 16.1955 18.7656 14.8193 20.4878 14.8193C22.21 14.8193 23.5854 16.1955 23.5854 17.8675Z" stroke="#402F22" stroke-width="2"></path><path d="M49.7317 37.6266C49.7317 41.8538 46.2597 45.3013 41.9512 45.3013C37.6427 45.3013 34.1707 41.8538 34.1707 37.6266C34.1707 33.3994 37.6427 29.9519 41.9512 29.9519C46.2597 29.9519 49.7317 33.3994 49.7317 37.6266Z" fill="#F4F0EC" stroke="#402F22" stroke-width="2"></path><path d="M45.0488 37.6266C45.0488 39.2986 43.6734 40.6748 41.9512 40.6748C40.229 40.6748 38.8536 39.2986 38.8536 37.6266C38.8536 35.9545 40.229 34.5784 41.9512 34.5784C43.6734 34.5784 45.0488 35.9545 45.0488 37.6266Z" stroke="#402F22" stroke-width="2"></path><rect x="18.561" y="32.8434" width="4.82927" height="13.4217" rx="2.41463" fill="#F4F0EC" stroke="#402F22" stroke-width="2"></rect><path d="M61.7586 33.0838C61.6602 31.917 62.5806 30.9156 63.7515 30.9156H71.8582C73.0291 30.9156 73.9496 31.917 73.8512 33.0838L72.8938 44.4331C72.8065 45.4689 71.9403 46.265 70.9009 46.265H64.7088C63.6694 46.265 62.8033 45.4689 62.7159 44.4331L61.7586 33.0838Z" fill="#F4F0EC" stroke="#402F22" stroke-width="2"></path><path d="M59.5122 30.8795L76.0976 30.8795" stroke="#402F22" stroke-width="3" stroke-linecap="round"></path><path d="M36.5323 58.2222C36.3843 57.0291 37.3148 55.976 38.5171 55.976H46.361C47.5632 55.976 48.4938 57.0291 48.3458 58.2222L46.9379 69.5716C46.8137 70.5732 45.9625 71.3253 44.9532 71.3253H39.9249C38.9155 71.3253 38.0644 70.5732 37.9401 69.5716L36.5323 58.2222Z" fill="#F4F0EC" stroke="#402F22" stroke-width="2"></path><path d="M34.1464 55.9397L50.7317 55.9397" stroke="#402F22" stroke-width="3" stroke-linecap="round"></path><path d="M37.0732 60.759H47.8049" stroke="#402F22" stroke-width="2" stroke-linecap="round"></path><path d="M58.9713 58.2222C58.8233 57.0291 59.7539 55.976 60.9561 55.976H68.8C70.0022 55.976 70.9328 57.0291 70.7848 58.2222L69.377 69.5716C69.2527 70.5732 68.4015 71.3253 67.3922 71.3253H62.3639C61.3546 71.3253 60.5034 70.5732 60.3791 69.5716L58.9713 58.2222Z" fill="#F4F0EC" stroke="#402F22" stroke-width="2"></path><path d="M56.5854 55.9397L73.1708 55.9397" stroke="#402F22" stroke-width="3" stroke-linecap="round"></path><path d="M59.5122 60.759H70.2439" stroke="#402F22" stroke-width="2" stroke-linecap="round"></path></svg> 