<?xml version="1.0" encoding="UTF-8"?> <svg xmlns="http://www.w3.org/2000/svg" width="80" height="80" viewBox="0 0 80 80" fill="none"><path d="M62.2739 17.2262L57.3241 22.1759" stroke="#402F22" stroke-width="2" stroke-linecap="round"></path><path d="M63.5477 62.5477L58.5979 57.598" stroke="#402F22" stroke-width="2" stroke-linecap="round"></path><path d="M22.6759 56.8241L17.7262 61.7738" stroke="#402F22" stroke-width="2" stroke-linecap="round"></path><path d="M22.9498 21.9497L18 17" stroke="#402F22" stroke-width="2" stroke-linecap="round"></path><circle cx="40" cy="40" r="33" stroke="#402F22" stroke-width="2"></circle><circle cx="40" cy="40" r="39" stroke="#402F22" stroke-width="2"></circle><rect x="38" y="7" width="4" height="8" rx="2" stroke="#402F22" stroke-width="2" stroke-linejoin="round"></rect><rect x="73" y="38" width="4" height="8" rx="2" transform="rotate(90 73 38)" stroke="#402F22" stroke-width="2" stroke-linejoin="round"></rect><rect x="38" y="65" width="4" height="8" rx="2" stroke="#402F22" stroke-width="2" stroke-linejoin="round"></rect><rect x="15" y="38" width="4" height="8" rx="2" transform="rotate(90 15 38)" stroke="#402F22" stroke-width="2" stroke-linejoin="round"></rect><circle cx="16.5" cy="28.5" r="1.5" fill="#402F22"></circle><circle cx="64.5" cy="28.5" r="1.5" fill="#402F22"></circle><circle cx="64.5" cy="50.5" r="1.5" fill="#402F22"></circle><circle cx="16.5" cy="50.5" r="1.5" fill="#402F22"></circle><circle cx="51.5" cy="63.5" r="1.5" fill="#402F22"></circle><circle cx="51.5" cy="15.5" r="1.5" fill="#402F22"></circle><circle cx="29.5" cy="15.5" r="1.5" fill="#402F22"></circle><circle cx="29.5" cy="63.5" r="1.5" fill="#402F22"></circle><path d="M29.3064 28.2646C29.1666 26.1966 30.6298 24.3644 32.6774 24.0432L46.0093 21.9519C48.5343 21.5559 50.7779 23.597 50.6217 26.1481L48.8403 55.2444C48.7111 57.3547 46.962 59 44.8478 59H35.1225C33.018 59 31.2735 57.3694 31.1316 55.2697L29.3064 28.2646Z" stroke="#402F22" stroke-width="2"></path><rect x="28" y="30" width="24" height="5" rx="1" fill="#F4F0EC" stroke="#402F22" stroke-width="2"></rect><path d="M44 46.5C44 48.0935 43.5021 49.4996 42.7429 50.4865C41.9846 51.4723 41.0062 52 40 52C38.9938 52 38.0154 51.4723 37.2571 50.4865C36.4979 49.4996 36 48.0935 36 46.5C36 44.9065 36.4979 43.5004 37.2571 42.5135C38.0154 41.5277 38.9938 41 40 41C41.0062 41 41.9846 41.5277 42.7429 42.5135C43.5021 43.5004 44 44.9065 44 46.5Z" stroke="#402F22" stroke-width="2"></path><path d="M40 52L40 47" stroke="#402F22" stroke-width="2" stroke-linecap="round"></path></svg> 