<svg width="12" height="12" viewBox="0 0 12 12" fill="none" xmlns="http://www.w3.org/2000/svg">
<path d="M5.72349 4.92957C5.80359 4.84946 5.89587 4.80949 6.00006 4.80949C6.10426 4.80949 6.19637 4.84942 6.27643 4.92957L11.8801 10.533C11.9602 10.6131 12 10.7054 12 10.8096C12 10.9138 11.9599 11.006 11.8801 11.0861L11.2789 11.6875C11.1988 11.7676 11.1066 11.8076 11.0022 11.8076C10.8982 11.8076 10.8059 11.7676 10.7258 11.6875L6.00006 6.96186L1.27451 11.6875C1.19436 11.7676 1.10213 11.8076 0.997933 11.8076C0.893696 11.8076 0.801463 11.7676 0.721359 11.6875L0.120283 11.0861C0.04001 11.006 0 10.9139 0 10.8096C0 10.7052 0.0401363 10.6131 0.120283 10.533L5.72349 4.92957Z" fill="#402F22"/>
<path d="M11.2789 7.07015C11.1988 7.15029 11.1066 7.1903 11.0022 7.1903C10.8982 7.1903 10.8059 7.15029 10.7258 7.07015L6.00006 2.34459L1.27451 7.07027C1.19436 7.15042 1.10213 7.19043 0.997933 7.19043C0.893696 7.19043 0.801463 7.15042 0.721359 7.07027L0.120283 6.46899C0.04001 6.38884 0 6.29661 0 6.19245C0 6.08826 0.0401363 5.99598 0.120283 5.91575L5.72349 0.312421C5.80359 0.232275 5.89587 0.192223 6.00006 0.192223C6.10426 0.192223 6.19637 0.232275 6.27643 0.312421L11.8801 5.91575C11.9602 5.9959 12 6.08813 12 6.19224C12 6.29644 11.9599 6.38855 11.8801 6.46882L11.2789 7.07015Z" fill="#402F22"/>
</svg>
