<svg width="42" height="42" viewBox="0 0 42 42" fill="none" xmlns="http://www.w3.org/2000/svg">
<path d="M20.2499 30.2148L23.7856 30.2148C24.0391 30.2148 24.2902 30.1733 24.5244 30.0925C24.7587 30.0117 24.9715 29.8934 25.1508 29.7441C25.3301 29.5949 25.4723 29.4177 25.5693 29.2227C25.6664 29.0277 25.7163 28.8188 25.7163 28.6077C25.7163 28.3966 25.6664 28.1877 25.5693 27.9927C25.4723 27.7977 25.3301 27.6205 25.1508 27.4713C24.9715 27.322 24.7587 27.2037 24.5244 27.1229C24.2902 27.0421 24.0391 27.0006 23.7856 27.0006L16.7542 27.0006C16.0898 27.0006 15.6083 26.3639 15.7395 25.7126C16.321 22.8283 16.4273 18.6948 13.7892 17.5986C13.2924 17.3921 12.7901 17.7761 12.6896 18.3046C11.9013 22.4496 9.92666 29.2227 7.07129 29.2227" stroke="#402F22" stroke-linecap="round"/>
<path d="M20.5713 30.2144L23.1406 30.2144C23.3941 30.2144 23.6452 30.256 23.8794 30.3368C24.1137 30.4175 24.3265 30.5359 24.5058 30.6851C24.6851 30.8344 24.8273 31.0116 24.9244 31.2065C25.0214 31.4015 25.0713 31.6105 25.0713 31.8216C25.0713 32.0326 25.0214 32.2416 24.9244 32.4366C24.8273 32.6316 24.6851 32.8088 24.5058 32.958C24.3265 33.1072 24.1137 33.2256 23.8795 33.3064C23.6452 33.3871 23.3941 33.4287 23.1406 33.4287L19.9285 33.4287" stroke="#402F22" stroke-linecap="round"/>
<path d="M19.2856 33.4293L22.4978 33.4293C22.7513 33.4293 23.0024 33.4708 23.2366 33.5516C23.4709 33.6324 23.6837 33.7508 23.863 33.9C24.0423 34.0492 24.1845 34.2264 24.2815 34.4214C24.3786 34.6164 24.4285 34.8254 24.4285 35.0364C24.4285 35.2475 24.3786 35.4565 24.2815 35.6514C24.1845 35.8464 24.0423 36.0236 23.863 36.1728C23.6837 36.3221 23.4709 36.4405 23.2366 36.5212C23.0024 36.602 22.7513 36.6436 22.4978 36.6436L19.2856 36.6436" stroke="#402F22" stroke-linecap="round"/>
<path d="M18.6427 36.6432L21.5334 36.6432C21.787 36.6432 22.038 36.6848 22.2723 36.7655C22.5065 36.8463 22.7194 36.9647 22.8986 37.1139C23.0779 37.2631 23.2201 37.4403 23.3172 37.6353C23.4142 37.8303 23.4641 38.0393 23.4641 38.2503C23.4641 38.4614 23.4142 38.6704 23.3172 38.8653C23.2201 39.0603 23.0779 39.2375 22.8986 39.3867C22.7194 39.536 22.5065 39.6544 22.2723 39.7351C22.038 39.8159 21.787 39.8575 21.5334 39.8575L17.0356 39.8575C13.7141 39.9368 7.07129 39.8494 7.07129 38.8653" stroke="#402F22" stroke-linecap="round"/>
<rect x="0.5" y="26.2148" width="6.71429" height="14.4286" rx="0.5" stroke="#402F22"/>
<g clip-path="url(#clip0_210_1170)">
<path d="M27.8261 2.33849C27.9994 1.93474 28.5718 1.93473 28.7451 2.33849L31.0601 7.73275C31.2771 8.23853 31.7537 8.58482 32.3018 8.63496L38.1475 9.16971C38.585 9.20974 38.7619 9.75413 38.4314 10.0437L34.0165 13.9123C33.6026 14.275 33.4205 14.8353 33.5422 15.3721L34.84 21.0968C34.9372 21.5253 34.4741 21.8618 34.0966 21.637L29.0531 18.6336C28.5802 18.352 27.991 18.352 27.5181 18.6336L22.4746 21.637C22.0971 21.8618 21.634 21.5253 21.7312 21.0968L23.029 15.3721C23.1507 14.8353 22.9686 14.275 22.5547 13.9123L18.1398 10.0437C17.8093 9.75413 17.9862 9.20974 18.4238 9.16971L24.2694 8.63496C24.8175 8.58482 25.2941 8.23853 25.5112 7.73275L27.8261 2.33849Z" stroke="#402F22"/>
</g>
<path d="M7.71436 6.42871V9.00014" stroke="#402F22" stroke-linecap="round"/>
<path d="M37.2856 32.1426V34.714" stroke="#402F22" stroke-linecap="round"/>
<path d="M9 7.71387L6.42857 7.71387" stroke="#402F22" stroke-linecap="round"/>
<path d="M38.5715 33.4287L36.0001 33.4287" stroke="#402F22" stroke-linecap="round"/>
<defs>
<clipPath id="clip0_210_1170">
<rect width="25.7143" height="25.7143" fill="white" transform="translate(15.4285)"/>
</clipPath>
</defs>
</svg>
