<svg width="8" height="12" viewBox="0 0 8 12" fill="none" xmlns="http://www.w3.org/2000/svg">
<path d="M1.95195 8.27209C1.95195 7.74943 2.03728 7.28009 2.20795 6.86409C2.37861 6.44809 2.73061 6.08543 3.26395 5.77609C3.42395 5.68009 3.62128 5.57343 3.85595 5.45609C4.09061 5.32809 4.31995 5.17876 4.54395 5.00809C4.76795 4.83743 4.95461 4.64009 5.10395 4.41609C5.26395 4.18143 5.34395 3.91476 5.34395 3.61609C5.34395 3.39209 5.30128 3.19476 5.21595 3.02409C5.13061 2.85343 5.01861 2.70943 4.87995 2.59209C4.74128 2.47476 4.57595 2.38943 4.38395 2.33609C4.20261 2.27209 4.01595 2.24009 3.82395 2.24009C3.58928 2.24009 3.37595 2.28276 3.18395 2.36809C2.99195 2.44276 2.81595 2.54409 2.65595 2.67209C2.50661 2.78943 2.36795 2.92809 2.23995 3.08809C2.12261 3.23743 2.02128 3.38143 1.93595 3.52009L0.543945 2.56009C0.682612 2.22943 0.863945 1.93609 1.08795 1.68009C1.32261 1.42409 1.58395 1.21076 1.87195 1.04009C2.17061 0.858761 2.49061 0.725427 2.83195 0.640094C3.17328 0.544094 3.52528 0.496094 3.88795 0.496094C4.29328 0.496094 4.69328 0.554761 5.08795 0.672094C5.48261 0.789427 5.83461 0.976094 6.14395 1.23209C6.46395 1.48809 6.71995 1.81876 6.91195 2.22409C7.11461 2.61876 7.21595 3.09343 7.21595 3.64809C7.21595 3.98943 7.17328 4.29343 7.08795 4.56009C7.01328 4.81609 6.90128 5.05076 6.75195 5.26409C6.60261 5.47743 6.42661 5.66943 6.22395 5.84009C6.02128 6.01076 5.79195 6.17609 5.53595 6.33609C5.32261 6.46409 5.10928 6.58676 4.89595 6.70409C4.68261 6.82143 4.48528 6.95476 4.30395 7.10409C4.13328 7.24276 3.98928 7.40809 3.87195 7.60009C3.76528 7.78143 3.71195 8.00543 3.71195 8.27209H1.95195ZM1.98395 12.0001V9.79209H3.75995V12.0001H1.98395Z" fill="#402F22"/>
</svg>
