<svg width="14" height="14" viewBox="0 0 14 14" fill="none" xmlns="http://www.w3.org/2000/svg">
<path d="M5.22449 5.55031C5.95925 4.35633 7.00015 3.43788 8.1635 2.94804C7.15323 1.01931 5.31634 -0.113445 3.57129 0.00901448C4.36728 0.896846 5.0408 2.42759 5.16326 4.96862C5.19388 5.18293 5.22449 5.36662 5.22449 5.55031Z" fill="#402F22"/>
<path d="M3.66321 5.06061C3.54075 2.24403 2.65292 1.08066 1.94878 0.59082C0.234344 1.72357 -0.408568 4.32585 0.479263 6.77504C1.1834 8.67317 2.6223 9.98959 4.15305 10.4182C4.0612 9.68344 4.0612 8.91807 4.21428 8.15269C3.93874 7.26488 3.72444 6.25459 3.66321 5.06061Z" fill="#402F22"/>
<path d="M12.0517 4.05005C11.3475 4.53989 10.4597 5.70325 10.3372 8.48921C10.2148 11.0302 9.4494 12.7753 8.46973 13.9693C8.59221 13.9693 8.71465 13.9999 8.83713 13.9999C10.7353 13.9999 12.664 12.4998 13.5212 10.2343C14.409 7.75445 13.7661 5.1828 12.0517 4.05005Z" fill="#402F22"/>
<path d="M10.398 3.49915C10.3062 3.49915 10.2144 3.49915 10.0919 3.49915C8.19376 3.49915 6.26504 4.96865 5.40783 7.26476C4.48939 9.74456 5.16291 12.3162 6.87733 13.4489C7.82639 12.4693 8.68362 10.9385 8.77544 8.45874C8.92852 5.8871 9.60204 4.38697 10.398 3.49915Z" fill="#402F22"/>
</svg>
