<svg width="7" height="12" viewBox="0 0 7 12" fill="none" xmlns="http://www.w3.org/2000/svg">
<path d="M1.6121 7.82141C1.6121 7.29874 1.69744 6.82941 1.8681 6.41341C2.03877 5.99741 2.39077 5.63474 2.9241 5.32541C3.0841 5.22941 3.28144 5.12274 3.5161 5.00541C3.75077 4.87741 3.9801 4.72808 4.2041 4.55741C4.4281 4.38674 4.61477 4.18941 4.7641 3.96541C4.9241 3.73074 5.0041 3.46408 5.0041 3.16541C5.0041 2.94141 4.96143 2.74408 4.8761 2.57341C4.79077 2.40274 4.67877 2.25874 4.5401 2.14141C4.40143 2.02408 4.2361 1.93874 4.0441 1.88541C3.86277 1.82141 3.6761 1.78941 3.4841 1.78941C3.24944 1.78941 3.0361 1.83208 2.8441 1.91741C2.6521 1.99208 2.4761 2.09341 2.3161 2.22141C2.16677 2.33874 2.0281 2.47741 1.9001 2.63741C1.78277 2.78674 1.68143 2.93074 1.5961 3.06941L0.204102 2.10941C0.342768 1.77874 0.524102 1.48541 0.748102 1.22941C0.982768 0.97341 1.2441 0.760077 1.5321 0.58941C1.83077 0.408077 2.15077 0.274744 2.4921 0.18941C2.83344 0.0934102 3.18544 0.0454102 3.5481 0.0454102C3.95344 0.0454102 4.35344 0.104077 4.7481 0.221411C5.14277 0.338744 5.49477 0.52541 5.8041 0.78141C6.1241 1.03741 6.3801 1.36808 6.5721 1.77341C6.77477 2.16808 6.8761 2.64274 6.8761 3.19741C6.8761 3.53874 6.83344 3.84274 6.7481 4.10941C6.67344 4.36541 6.56144 4.60008 6.4121 4.81341C6.26277 5.02674 6.08677 5.21874 5.8841 5.38941C5.68144 5.56008 5.4521 5.72541 5.1961 5.88541C4.98277 6.01341 4.76943 6.13608 4.5561 6.25341C4.34277 6.37074 4.14544 6.50408 3.9641 6.65341C3.79344 6.79208 3.64944 6.95741 3.5321 7.14941C3.42543 7.33074 3.3721 7.55474 3.3721 7.82141H1.6121ZM1.6441 11.5494V9.34141H3.4201V11.5494H1.6441Z" fill="#402F22"/>
</svg>
