<svg width="166" height="47" viewBox="0 0 166 47" fill="none" xmlns="http://www.w3.org/2000/svg">
<path d="M49.102 42.998C48.9147 42.8707 48.7512 42.8069 48.6115 42.8069C46.9139 44.6761 44.9327 45.6099 42.6683 45.6099C41.1358 45.6099 39.8252 44.8293 38.7366 43.2675C37.648 41.7063 37.1039 39.8631 37.1039 37.74C37.1039 35.5991 37.6003 33.7959 38.5931 32.331C39.5859 30.8657 40.8656 30.1332 42.4333 30.1332C44.1055 30.1332 45.3527 30.5192 46.1756 31.2912C46.9984 32.0631 47.615 33.1425 48.0242 34.5288C48.3983 34.6604 48.7815 34.6165 49.1734 34.3973C49.0863 33.5019 48.8903 32.1113 48.5856 30.2253C48.4031 30.2074 47.6994 30.0087 46.476 29.6282C45.2526 29.2476 44.001 29.0576 42.7208 29.0576C39.9779 29.0576 37.7308 29.8794 35.9807 31.5234C34.23 33.1674 33.3552 35.4107 33.3552 38.2532C33.3552 39.5946 33.6156 40.9214 34.1374 42.2325C34.6593 43.5431 35.4015 44.5667 36.3639 45.3035C37.8932 46.4349 40.0038 47 42.6943 47C45.3858 47 47.6496 45.7912 49.4869 43.3726C49.417 43.2497 49.2887 43.1252 49.102 42.998Z" fill="black"/>
<path d="M60.6622 29.0576C59.3896 29.0576 58.2073 29.3245 57.116 29.8577C56.0247 30.3915 55.0957 31.1304 54.3287 32.075C52.9299 33.7981 52.2305 35.9195 52.2305 38.4383C52.2305 40.9999 53.0668 43.0667 54.7401 44.6404C56.4139 46.214 58.3968 47 60.6898 47C63.3196 47.0087 65.427 46.1263 67.012 44.3508C68.4958 42.6802 69.2374 40.5289 69.2374 37.897C69.2374 35.2829 68.4136 33.156 66.7652 31.5163C65.1163 29.8772 63.082 29.0576 60.6622 29.0576ZM64.3639 43.8982C63.6141 45.2494 62.5672 45.9249 61.2241 45.9249C59.7073 45.9249 58.4536 45.2055 57.4641 43.7661C56.474 42.3272 55.9792 40.3709 55.9792 37.897C55.9792 35.2829 56.3868 33.3352 57.2021 32.0544C58.0173 30.7731 59.0659 30.1332 60.3483 30.1332C61.8477 30.1332 63.0798 30.8592 64.0434 32.3115C65.0064 33.7645 65.4887 35.815 65.4887 38.4649C65.4887 40.7357 65.1136 42.547 64.3639 43.8982Z" fill="black"/>
<path d="M84.6773 30.2237C84.6426 29.717 84.6161 29.4377 84.5988 29.3852C84.5988 29.3327 84.5641 29.2812 84.4943 29.2812C84.0764 29.3511 83.6368 29.3603 83.1751 29.3603H75.1547L71.0271 29.3338C70.9572 29.4209 70.9226 29.5866 70.9226 29.8053C70.9226 30.0239 70.9572 30.1836 71.0271 30.2708C72.0285 30.306 72.6944 30.4559 72.9726 30.7136C73.2514 30.9718 73.416 31.6414 73.416 32.7171V43.4592C73.416 44.0011 73.3494 44.4363 73.2666 44.7639C73.1837 45.0919 73.0186 45.3328 72.7967 45.4854C72.5748 45.6386 72.3506 45.7372 72.1374 45.7805C71.9241 45.8243 71.5917 45.8546 71.1478 45.8725C70.9995 45.951 70.9264 46.1063 70.9307 46.338C70.9351 46.5697 71.006 46.7208 71.1456 46.7906C72.565 46.7554 73.9384 46.7381 75.2662 46.7381C76.7289 46.7381 78.1743 46.7554 79.6023 46.7906C79.7376 46.7034 79.8053 46.5502 79.8053 46.331C79.8053 46.1128 79.736 45.9596 79.5974 45.8725C79.1378 45.8546 78.7908 45.8243 78.557 45.7805C78.3231 45.7372 78.0785 45.6386 77.8229 45.4854C77.5669 45.3328 77.4408 45.0897 77.3325 44.7573C77.2242 44.4255 77.2259 43.9925 77.2259 43.4592V38.6501H79.2764C80.1707 38.6501 80.7916 38.8098 81.1391 39.0674C81.4867 39.3251 81.6778 39.7847 81.7124 40.4137C81.799 40.5014 81.995 40.5528 82.2998 40.5528C82.6045 40.5528 82.7918 40.5128 82.8617 40.4251C82.827 39.1665 82.8097 38.3767 82.8097 38.0535C82.8097 37.5874 82.827 36.8144 82.8617 35.7323C82.7918 35.6538 82.6045 35.6148 82.2998 35.6148C81.995 35.6148 81.799 35.6592 81.7124 35.7464C81.6778 36.4636 81.4932 36.9757 81.1586 37.1896C80.8241 37.4039 80.1972 37.5571 79.2764 37.5571H77.2259V31.8087C77.2259 31.465 77.2762 31.1423 77.4895 30.8733C77.7022 30.6048 77.9052 30.4532 78.2095 30.4532H80.6211C81.5424 30.4532 82.2115 30.7082 82.6289 31.184C83.0457 31.6599 83.4241 32.4388 83.763 33.5053C84.2069 33.5756 84.5901 33.5356 84.9122 33.377C84.8776 33.0689 84.8386 32.5942 84.7948 31.9489C84.7509 31.3037 84.7119 30.7304 84.6773 30.2237Z" fill="black"/>
<path d="M99.8816 30.2237C99.847 29.717 99.8205 29.4377 99.8031 29.3852C99.8031 29.3327 99.7685 29.2812 99.6986 29.2812C99.2807 29.3511 98.8412 29.3603 98.3794 29.3603H90.3591L86.2314 29.3338C86.1616 29.4209 86.127 29.5866 86.127 29.8053C86.127 30.0239 86.1616 30.1836 86.2314 30.2708C87.2329 30.306 87.915 30.4559 88.1937 30.7136C88.472 30.9718 88.6539 31.6414 88.6539 32.7171V43.4592C88.6539 44.0011 88.5705 44.4363 88.4877 44.7639C88.4049 45.0919 88.2316 45.3328 88.0092 45.4854C87.7872 45.6386 87.5593 45.7372 87.3455 45.7805C87.1322 45.8243 86.7982 45.8546 86.3543 45.8725C86.206 45.951 86.1318 46.1063 86.1362 46.338C86.1405 46.5697 86.2109 46.7208 86.3505 46.7906C87.7693 46.7554 89.1427 46.7381 90.4711 46.7381C91.9333 46.7381 93.3786 46.7554 94.8066 46.7906C94.942 46.7034 95.0096 46.5502 95.0096 46.331C95.0096 46.1128 94.9404 45.9596 94.8018 45.8725C94.3422 45.8546 93.9952 45.8243 93.7613 45.7805C93.5275 45.7372 93.2823 45.6386 93.0268 45.4854C92.7712 45.3328 92.5255 45.0897 92.4172 44.7573C92.3089 44.4255 92.1909 43.9925 92.1909 43.4592V38.6501H94.4808C95.3751 38.6501 95.9959 38.8098 96.3435 39.0674C96.691 39.3251 96.8816 39.7847 96.9162 40.4137C97.0034 40.5014 97.1993 40.5528 97.5041 40.5528C97.8089 40.5528 97.9962 40.5128 98.066 40.4251C98.0314 39.1665 98.014 38.3767 98.014 38.0535C98.014 37.5874 98.0314 36.8144 98.066 35.7323C97.9962 35.6538 97.8089 35.6148 97.5041 35.6148C97.1993 35.6148 97.0034 35.6592 96.9162 35.7464C96.8816 36.4636 96.6975 36.9757 96.363 37.1896C96.0284 37.4039 95.4016 37.5571 94.4808 37.5571H92.1909V31.8087C92.1909 31.465 92.3615 31.1423 92.5742 30.8733C92.7869 30.6048 93.1096 30.4532 93.4133 30.4532H95.8254C96.7468 30.4532 97.4159 30.7082 97.8332 31.184C98.2506 31.6599 98.6284 32.4388 98.9673 33.5053C99.4118 33.5756 99.7945 33.5356 100.117 33.377C100.082 33.0689 100.043 32.5942 99.9991 31.9489C99.9558 31.3037 99.9163 30.7304 99.8816 30.2237Z" fill="black"/>
<path d="M115.086 42.2468C114.443 44.5545 113.187 45.7535 111.318 45.7535H108.619C108.323 45.7535 108.019 45.5824 107.802 45.3313C107.585 45.0806 107.429 44.7288 107.429 44.3677V38.1034H109.686C110.58 38.1034 111.201 38.2669 111.548 38.5251C111.896 38.7833 112.086 39.244 112.121 39.8736C112.208 39.9607 112.404 40.0138 112.709 40.0138C113.014 40.0138 113.201 39.9781 113.271 39.8985C113.236 38.6421 113.219 37.8533 113.219 37.528C113.219 37.0554 113.236 36.2829 113.271 35.2073C113.201 35.1202 113.014 35.0768 112.709 35.0768C112.404 35.0768 112.208 35.1212 112.121 35.2084C112.086 35.9251 111.902 36.4329 111.568 36.6472C111.233 36.8616 110.606 37.0105 109.686 37.0105H107.429V31.8094C107.429 31.4651 107.583 31.1419 107.796 30.8729C108.009 30.6044 108.314 30.4528 108.618 30.4528H110.887C111.816 30.4528 112.495 30.691 112.921 31.1333C113.346 31.5755 113.72 32.3312 114.042 33.3841C114.486 33.455 114.869 33.415 115.191 33.2553C115.156 32.9462 115.117 32.4833 115.073 31.8624C115.03 31.2421 114.991 30.6877 114.956 30.1978C114.921 29.7074 114.895 29.4367 114.878 29.3847C114.869 29.3322 114.829 29.2803 114.76 29.2803C114.35 29.3506 113.915 29.3599 113.454 29.3599H105.564L101.436 29.3333C101.366 29.4205 101.332 29.5861 101.332 29.8048C101.332 30.0235 101.366 30.1832 101.436 30.2704C102.438 30.3056 103.137 30.4555 103.415 30.7132C103.694 30.9714 103.892 31.641 103.892 32.7166V43.4588C103.892 44.5166 103.695 45.1748 103.418 45.4325C103.14 45.6907 102.474 45.8374 101.478 45.8721C101.409 45.9505 101.359 46.1059 101.359 46.3376C101.359 46.5693 101.387 46.775 101.456 46.8443C102.334 46.827 103.71 46.8465 105.596 46.8465H111.875C112.737 46.8465 113.969 46.8091 115.57 46.8443C115.674 46.4594 115.772 45.9895 115.864 45.4888C115.955 44.9886 116.04 44.3969 116.118 43.7408C116.197 43.0848 116.254 42.636 116.288 42.3632C115.931 42.1694 115.53 42.1412 115.086 42.2468Z" fill="black"/>
<path d="M131.232 42.2468C130.588 44.5545 129.332 45.7535 127.463 45.7535H124.764C124.468 45.7535 124.255 45.5824 124.038 45.3313C123.82 45.0806 123.755 44.7288 123.755 44.3677V38.1034H125.831C126.725 38.1034 127.346 38.2669 127.693 38.5251C128.041 38.7833 128.232 39.244 128.266 39.8736C128.353 39.9607 128.549 40.0138 128.854 40.0138C129.159 40.0138 129.346 39.9781 129.416 39.8985C129.381 38.6421 129.364 37.8533 129.364 37.528C129.364 37.0554 129.381 36.2829 129.416 35.2073C129.346 35.1202 129.159 35.0768 128.854 35.0768C128.549 35.0768 128.353 35.1212 128.266 35.2084C128.232 35.9251 128.047 36.4329 127.713 36.6472C127.379 36.8616 126.751 37.0105 125.831 37.0105H123.755V31.8094C123.755 31.4651 123.818 31.1419 124.031 30.8729C124.244 30.6044 124.46 30.4528 124.763 30.4528H127.032C127.962 30.4528 128.64 30.691 129.065 31.1333C129.491 31.5755 129.865 32.3312 130.186 33.3841C130.631 33.455 131.014 33.415 131.336 33.2553C131.301 32.9462 131.262 32.4833 131.219 31.8624C131.175 31.2421 131.136 30.6877 131.101 30.1978C131.066 29.7074 131.04 29.4367 131.023 29.3847C131.014 29.3322 130.975 29.2803 130.905 29.2803C130.496 29.3506 130.06 29.3599 129.599 29.3599H121.709L117.582 29.3333C117.512 29.4205 117.477 29.5861 117.477 29.8048C117.477 30.0235 117.512 30.1832 117.582 30.2704C118.583 30.3056 119.236 30.4555 119.515 30.7132C119.793 30.9714 119.946 31.641 119.946 32.7166V43.4588C119.946 44.5166 119.794 45.1748 119.517 45.4325C119.24 45.6907 118.597 45.8374 117.6 45.8721C117.531 45.9505 117.493 46.1059 117.493 46.3376C117.493 46.5693 117.526 46.775 117.596 46.8443C118.474 46.827 119.855 46.8465 121.742 46.8465H128.021C128.882 46.8465 130.113 46.8091 131.715 46.8443C131.82 46.4594 131.918 45.9895 132.009 45.4888C132.1 44.9886 132.185 44.3969 132.263 43.7408C132.342 43.0848 132.398 42.636 132.433 42.3632C132.076 42.1694 131.676 42.1412 131.232 42.2468Z" fill="black"/>
<path d="M20.8001 19.2584C20.144 19.2584 19.6071 19.0998 19.1897 18.782C18.7718 18.4648 18.3295 17.9429 17.8623 17.2165L13.7163 10.7129C14.6512 10.3048 15.4507 9.66219 16.1138 8.78578C16.777 7.90937 17.1088 6.75903 17.1088 5.33425C17.1186 3.47207 16.3569 2.07273 14.8239 1.13569C13.7076 0.468766 12.0484 0.134766 9.84577 0.134766C9.43761 0.134766 7.83203 0.169952 5.02848 0.239784C2.22492 0.309616 0.61874 0.344274 0.211226 0.344274C0.0718334 0.422225 0.00238302 0.587332 0.00238302 0.839051C0.00238302 1.09131 0.0718334 1.26615 0.211226 1.36305C0.728089 1.38308 1.10843 1.41827 1.35213 1.46807C1.59589 1.51787 1.84437 1.63046 2.09771 1.80531C2.35159 1.98016 2.48422 2.25788 2.57354 2.63789C2.66286 3.01791 2.66881 3.51321 2.66881 4.12275V16.4386C2.66881 17.0584 2.66286 17.5559 2.57354 17.931C2.48422 18.3062 2.3321 18.5806 2.07822 18.756C1.82488 18.9309 1.58344 19.0434 1.33492 19.0938C1.08634 19.1441 0.713363 19.1788 0.206353 19.1988C0.0669599 19.2881 0 19.4608 0 19.7152C0 19.9697 0.0705902 20.1472 0.209983 20.2468C1.84058 20.2089 3.41206 20.1905 4.92346 20.1905C6.38505 20.1905 7.93109 20.2089 9.56212 20.2468C9.71099 20.1526 9.78298 19.9881 9.77811 19.7526C9.77324 19.5171 9.70124 19.3525 9.56212 19.2584C9.05489 19.2383 8.67975 19.2026 8.43615 19.1517C8.19255 19.1014 7.94408 18.9872 7.69074 18.8096C7.43686 18.632 7.26092 18.3511 7.16619 17.9657C7.072 17.5808 7.02274 17.0784 7.02274 16.4602V11.441C8.11081 11.441 8.91631 11.5049 9.26926 11.6315C9.62221 11.7582 9.91398 12.0089 10.143 12.384L13.6871 17.7984C14.9289 19.5902 16.2708 20.4866 17.7129 20.4866C19.4625 20.4866 20.5019 20.4065 20.8299 20.2468C20.8895 20.1526 20.9144 19.993 20.9046 19.7667C20.8943 19.5409 20.8597 19.3715 20.8001 19.2584ZM11.6798 9.35255C10.9144 9.9334 9.80085 10.2349 8.33925 10.2349H7.02274V4.09786C7.02274 3.00599 7.13642 2.27736 7.36053 1.91142C7.5841 1.54548 8.08483 1.36305 8.86001 1.36305C11.505 1.36305 12.828 2.86632 12.828 5.86096C12.828 7.60405 12.4458 8.7717 11.6798 9.35255Z" fill="black"/>
<path d="M36.0343 19.7591C36.0343 19.515 35.9948 19.3428 35.9152 19.2427C34.6328 19.1929 33.7748 19.0207 33.4316 18.7262C33.0889 18.4318 32.8724 17.6701 32.8724 16.4424V11.9796C32.8724 10.8515 33.0765 9.99783 33.4246 9.41915L37.3692 2.85984C37.6973 2.30065 38.0491 1.93363 38.4021 1.75932C38.7545 1.58447 39.305 1.46213 40.0407 1.3923C40.1403 1.28241 40.1928 1.10539 40.1928 0.860713C40.1928 0.616032 40.1441 0.443896 40.045 0.34375C38.8222 0.383808 37.8732 0.403834 37.1971 0.403834C36.5708 0.403834 35.4426 0.383808 33.8122 0.34375C33.7125 0.443896 33.6627 0.618743 33.6627 0.868296C33.6627 1.11785 33.7125 1.29269 33.8122 1.3923C34.5283 1.43236 35.028 1.57906 35.3111 1.83403C35.5948 2.08845 35.6121 2.44031 35.3636 2.88961L32.2163 8.83505C32.0176 9.22427 31.7892 9.1945 31.5304 8.7452L28.3388 3.09912C27.9707 2.53018 27.8543 2.11389 27.9885 1.84918C28.1228 1.58447 28.5975 1.43236 29.4128 1.3923C29.5118 1.28241 29.5616 1.10539 29.5616 0.860713C29.5616 0.616032 29.5118 0.443896 29.4128 0.34375C27.7817 0.383808 26.5193 0.403834 25.6245 0.403834C23.954 0.403834 22.5075 0.383808 21.2847 0.34375C21.2051 0.443896 21.165 0.618743 21.165 0.868296C21.165 1.11785 21.2148 1.29269 21.3144 1.3923C22.0003 1.44264 22.5297 1.58718 22.9027 1.82645C23.2757 2.06625 23.7006 2.59514 24.1781 3.41418L28.0703 10.0033C28.3388 10.4726 28.5623 10.8266 28.6322 11.0664C28.7014 11.3062 28.7908 11.7003 28.7908 12.2492V16.4424C28.7908 17.6701 28.5623 18.4339 28.2142 18.7338C27.8662 19.0332 27.0239 19.2032 25.7415 19.2427C25.6613 19.3428 25.6083 19.515 25.6083 19.7591C25.6083 20.0043 25.6413 20.1662 25.7209 20.2463C27.7195 20.2062 29.5005 20.1862 31.0714 20.1862C32.2645 20.1862 33.8787 20.2062 35.9168 20.2463C35.9964 20.1662 36.0343 20.0043 36.0343 19.7591Z" fill="black"/>
<path d="M60.6128 20.2473C60.6923 20.1672 60.7319 19.9923 60.7319 19.7228C60.7319 19.4532 60.6923 19.2789 60.6128 19.1987C60.1851 19.1592 59.9464 19.1387 59.8966 19.1387C59.8468 19.1387 59.6584 19.104 59.3303 19.0342C59.0018 18.9644 58.7879 18.8794 58.6889 18.7792C58.5893 18.6802 58.4523 18.5275 58.2785 18.3229C58.1048 18.1183 57.9678 17.8882 57.8682 17.5786L51.5747 0.399414C51.5747 0.399414 49.45 0.399414 48.6948 0.399414L41.5823 17.0848C41.3441 17.7036 41.055 18.1518 40.7172 18.456C40.3794 18.7608 40.0611 18.9459 39.7629 19.0261C39.4646 19.1062 39.0521 19.1625 38.5254 19.2025C38.4258 19.2919 38.376 19.4678 38.376 19.732C38.376 19.9967 38.4258 20.1683 38.5254 20.2479C40.0362 20.2083 40.9955 20.1878 41.4036 20.1878C42.5967 20.1878 43.9484 20.2072 45.4604 20.2473C45.5394 20.1672 45.5795 19.9923 45.5795 19.7233C45.5795 19.4537 45.5394 19.2789 45.4604 19.1987C45.2016 19.1793 45.0051 19.1641 44.8709 19.1538C44.7366 19.1441 44.5477 19.1192 44.3041 19.0791C44.0605 19.0396 43.8916 18.9893 43.7974 18.9292C43.7027 18.8696 43.5809 18.7868 43.432 18.6823C43.2826 18.5773 43.2279 18.4479 43.2674 18.2931C43.3075 18.1383 43.3373 17.9613 43.3573 17.761L44.9678 13.5083C45.0576 13.2988 45.167 13.1505 45.2958 13.0806C45.4252 13.0108 45.6737 12.9675 46.0418 12.9675H51.8432L53.5581 17.9775C53.5982 18.1177 53.6231 18.2417 53.6328 18.3413C53.6426 18.4409 53.6328 18.5356 53.6031 18.6201C53.5733 18.705 53.5332 18.7787 53.484 18.8388C53.4336 18.8983 53.3568 18.9438 53.2528 18.9736C53.1483 19.0039 53.0563 19.0336 52.9767 19.064C52.8972 19.0937 52.7802 19.1138 52.626 19.124C52.4717 19.1338 52.3401 19.1441 52.2313 19.1538C52.1214 19.1641 51.9677 19.1738 51.7685 19.1841C51.5698 19.1939 51.4107 19.1987 51.2916 19.1987C51.192 19.2886 51.1422 19.4662 51.1422 19.7303C51.1422 19.995 51.192 20.1672 51.2916 20.2473C52.8024 20.2072 54.5477 20.1872 56.5263 20.1872C57.7394 20.1872 59.1014 20.2072 60.6128 20.2473ZM46.6529 11.6017C46.5138 11.6017 46.3969 11.5492 46.3027 11.5438C46.208 11.5395 46.1262 11.5016 46.0564 11.4815C45.9871 11.4615 45.9373 11.4242 45.9075 11.3944C45.8777 11.3641 45.8577 11.3181 45.848 11.2683C45.8377 11.2184 45.848 11.1535 45.8777 11.0934L48.592 4.22446H48.8009L51.2916 11.6017H46.6529Z" fill="black"/>
<path d="M80.2496 2.48525C80.4233 2.076 80.6832 1.81129 80.9868 1.69166C81.29 1.57202 81.8595 1.47241 82.6747 1.3923C82.7743 1.28241 82.8295 1.10539 82.8295 0.860713C82.8295 0.616032 82.7819 0.443896 82.6828 0.34375C80.6843 0.383808 79.587 0.403834 79.3883 0.403834C79.0603 0.403834 77.8774 0.383808 75.8393 0.34375C75.7397 0.443896 75.6905 0.618743 75.6905 0.868296C75.6905 1.11785 75.7403 1.29269 75.8399 1.3923C76.6551 1.47241 77.217 1.56714 77.525 1.67649C77.8336 1.78638 78.1129 2.04624 78.2867 2.45548C78.4605 2.86473 78.586 3.53868 78.586 4.47734V13.1029C78.586 13.4623 78.4307 13.6372 78.2867 13.6269C78.1427 13.6172 77.937 13.4775 77.7086 13.2079L69.6005 3.62367L66.8668 0.403834L61.8979 0.34375C61.8086 0.443896 61.7647 0.618743 61.7696 0.868296C61.775 1.11785 61.8162 1.29269 61.8963 1.3923C62.5026 1.43236 62.9632 1.6516 63.4104 2.0511C63.8581 2.4506 64.1645 2.87446 64.1645 3.32431V16.1127C64.1645 17.0313 64.1461 17.6956 63.9772 18.1048C63.8077 18.5141 63.602 18.7782 63.2945 18.8984C62.986 19.018 62.4403 19.1182 61.6256 19.1977C61.5455 19.2876 61.5146 19.4652 61.5146 19.7293C61.5146 19.994 61.558 20.1662 61.6375 20.2463C63.6361 20.2062 64.7816 20.1862 65.0701 20.1862C65.3088 20.1862 66.4483 20.2062 68.4864 20.2463C68.566 20.1662 68.6061 19.9913 68.6061 19.7218C68.6061 19.4522 68.5666 19.2779 68.487 19.1977C67.6717 19.1182 67.1125 19.0234 66.8094 18.913C66.5063 18.8037 66.2497 18.5444 66.0759 18.1346C65.9016 17.7253 65.7971 17.0514 65.7971 16.1127V6.99291C65.7971 6.58366 65.8946 6.37904 66.0537 6.37904C66.2026 6.37904 66.4554 6.58366 66.7932 6.99291L77.0286 19.1977C77.4265 19.7174 77.8363 20.1711 78.2537 20.5608C79.0294 20.5608 79.6297 20.4358 80.137 20.1862L79.9464 17.0562V4.47734C79.9464 3.55871 80.0758 2.89504 80.2496 2.48525Z" fill="black"/>
<path d="M101.19 11.6315C101.543 11.7582 101.809 12.0089 102.038 12.384L105.569 17.7984C106.812 19.5902 108.147 20.4866 109.589 20.4866C111.339 20.4866 112.375 20.4065 112.703 20.2468C112.763 20.1526 112.786 19.993 112.776 19.7667C112.766 19.5409 112.731 19.3715 112.671 19.2584C112.015 19.2584 111.477 19.0998 111.06 18.782C110.642 18.4648 110.199 17.9429 109.732 17.2165L105.586 10.7129C106.522 10.3048 107.321 9.66219 107.984 8.78578C108.647 7.90937 108.979 6.75903 108.979 5.33425C108.988 3.47207 108.227 2.07273 106.694 1.13569C105.578 0.468766 103.918 0.134766 101.716 0.134766C101.308 0.134766 99.7024 0.169952 96.8983 0.239784C94.0947 0.309616 92.4886 0.344274 92.0815 0.344274C91.9419 0.422225 91.8726 0.587332 91.8726 0.839051C91.8726 1.09131 91.9419 1.26615 92.0815 1.36305C92.598 1.38308 92.9785 1.41827 93.2221 1.46807C93.4657 1.51787 93.7142 1.63046 93.9681 1.80531C94.2214 1.98016 94.4049 2.25788 94.4942 2.63789C94.5836 3.01791 94.6404 3.51321 94.6404 4.12275V16.4386C94.6404 17.0584 94.5836 17.5559 94.4942 17.931C94.4049 18.3062 94.2274 18.5806 93.9735 18.756C93.7201 18.9309 93.4662 19.0434 93.2178 19.0938C92.9688 19.1441 92.5898 19.1788 92.0826 19.1988C91.9435 19.2881 91.8731 19.4608 91.8731 19.7152C91.8731 19.9697 91.9424 20.1472 92.0815 20.2468C93.712 20.2089 95.2829 20.1905 96.7943 20.1905C98.2559 20.1905 99.8014 20.2089 101.432 20.2468C101.581 20.1526 101.653 19.9881 101.648 19.7526C101.644 19.5171 101.572 19.3525 101.432 19.2584C100.925 19.2383 100.55 19.2026 100.306 19.1517C100.062 19.1014 99.8144 18.9872 99.5606 18.8096C99.3072 18.632 99.1816 18.3511 99.0869 17.9657C98.9922 17.5808 98.9938 17.0784 98.9938 16.4602V11.441C100.082 11.441 100.837 11.5049 101.19 11.6315ZM98.9938 4.09786C98.9938 3.00599 99.0571 2.27736 99.2812 1.91142C99.5048 1.54548 99.9801 1.36305 100.756 1.36305C103.4 1.36305 104.711 2.86092 104.711 5.85556C104.711 7.59865 104.322 8.7717 103.556 9.35255C102.79 9.9334 101.671 10.2349 100.21 10.2349H98.9938V4.09786Z" fill="black"/>
<path d="M123.766 0C122.313 0 120.963 0.304763 119.718 0.91376C118.471 1.52276 117.41 2.36671 116.535 3.44504C114.938 5.41223 114.139 7.83414 114.139 10.7102C114.139 13.6345 115.094 15.9947 117.005 17.7914C118.915 19.588 121.18 20.4861 123.797 20.4861C126.8 20.4959 129.207 19.4879 131.016 17.4606C132.71 15.5535 133.557 13.0975 133.557 10.092C133.557 7.10768 132.615 4.67927 130.734 2.80734C128.852 0.935963 126.529 0 123.766 0ZM127.992 16.9442C127.136 18.487 125.941 19.2578 124.408 19.2578C122.675 19.2578 121.244 18.4366 120.114 16.7932C118.984 15.1502 118.42 12.9167 118.42 10.092C118.42 7.10768 118.885 4.88389 119.816 3.42176C120.746 1.95908 121.944 1.22774 123.407 1.22774C125.12 1.22774 126.526 2.05706 127.626 3.71516C128.726 5.37379 129.276 7.71559 129.276 10.7405C129.276 13.3335 128.848 15.4014 127.992 16.9442Z" fill="black"/>
<path d="M165.666 0.34375C164.155 0.383808 163.196 0.403834 162.788 0.403834C161.595 0.403834 160.243 0.383808 158.732 0.34375C158.632 0.443896 158.582 0.618743 158.582 0.868296C158.582 1.11785 158.632 1.29269 158.732 1.3923C159.368 1.46213 159.897 1.68949 160.32 2.07383C160.742 2.45818 160.864 2.91994 160.685 3.45857L157.24 13.7465L156.852 14.8547L156.405 13.5674L152.124 1.3923C151.538 1.52222 150.926 1.52222 150.29 1.3923L145.935 13.7465L145.697 14.5407L145.413 13.5674L142.088 2.60542C142.008 2.36561 142.008 2.16857 142.088 2.01375C142.167 1.85893 142.328 1.74201 142.572 1.66189C142.816 1.58177 143.059 1.52223 143.303 1.48217C143.546 1.44265 143.892 1.41233 144.339 1.3923C144.429 1.28241 144.471 1.10539 144.466 0.860713C144.461 0.616032 144.419 0.443896 144.339 0.34375C142.838 0.383808 141.049 0.403834 138.971 0.403834C137.748 0.403834 136.38 0.383808 134.869 0.34375C134.789 0.443896 134.75 0.618743 134.75 0.868296C134.75 1.11785 134.789 1.29269 134.869 1.3923C135.605 1.47241 136.198 1.61912 136.651 1.83403C137.104 2.04894 137.429 2.4506 137.628 3.03957L143.37 19.8419C143.529 20.321 143.865 20.5581 144.377 20.5532C144.889 20.5478 145.234 20.3107 145.413 19.8419L149.991 7.62193L154.675 19.8419C154.734 20.0119 154.876 20.1738 155.099 20.3286C155.324 20.4834 155.515 20.5608 155.674 20.5608C156.211 20.5505 156.559 20.3107 156.718 19.8419L162.46 4.16283C162.619 3.71353 162.813 3.31673 163.041 2.9719C163.27 2.62761 163.524 2.34559 163.802 2.12581C164.08 1.90657 164.376 1.73442 164.69 1.60937C165.003 1.48432 165.328 1.41233 165.666 1.3923C165.746 1.28241 165.786 1.10539 165.786 0.860713C165.786 0.616032 165.746 0.443896 165.666 0.34375Z" fill="black"/>
</svg>
