<svg width="1920" height="2488" viewBox="0 0 1920 2488" fill="none" xmlns="http://www.w3.org/2000/svg">
<g clip-path="url(#clip0)">
<g opacity="0.05">
<path d="M2106.27 486.075C2071.12 500.885 2035.69 514.822 2000.48 528.583C1845.82 588.959 1686.09 651.326 1588.94 780.754C1548.49 834.964 1521.29 898.53 1495.19 960.17C1468.05 1023.33 1440.21 1088.47 1397.96 1143.67C1286.7 1289.21 1100.68 1343.29 920.705 1395.74L919.6 1396.2C747.253 1446.19 555.322 1512.75 458.89 1669.74C432.274 1712.79 414.469 1761.25 397.3 1808.13C382.848 1847.49 367.76 1888.42 347.536 1925.93C303.612 2007.94 217.666 2082.57 124.759 2064.28L125.334 2061.66C217.017 2079.78 302.033 2005.84 345.435 1924.59C365.427 1887.26 380.515 1846.33 395.142 1807.2C412.311 1760.32 430.348 1711.69 456.965 1668.64C486.596 1620.39 525.279 1580.29 569.458 1546.99C669.673 1471.45 799.223 1428.55 918.894 1393.82L919.999 1393.35C1099.5 1341.26 1284.89 1287.29 1395.86 1142.33C1437.88 1087.31 1465.66 1022.57 1492.57 959.592C1518.9 897.777 1546.33 834.036 1587.01 779.651C1615.16 742.013 1648.56 709.901 1685.53 682.035C1776.45 613.509 1889.1 569.472 1999.31 526.547C2034.52 512.785 2069.72 499.023 2104.63 484.388L2106.03 486.25L2106.27 486.075Z" fill="url(#paint0_linear)"/>
<path d="M2086.8 460.242C2075.04 465.45 2063.11 470.427 2051.42 475.227C2033.32 482.663 2014.76 490.448 1996.67 497.884C1895.83 539.217 1791.45 582.132 1707.15 642.021C1655.23 678.598 1613.99 719.174 1581.5 765.561C1562.29 792.81 1545.25 823.9 1525.68 865.658C1515.61 887.12 1506 909.689 1496.56 931.033C1467.05 999.264 1436.37 1069.83 1389.7 1128.36C1304.78 1234.34 1179.92 1286.85 1080.69 1321.13C1026.28 1339.88 969.758 1355.84 915.393 1371.27L903.926 1374.44C854.567 1388.29 790.309 1407.53 728.165 1432.47C589.563 1488.04 495.687 1559.89 441.365 1652.29C417.886 1692.25 401.876 1736.8 386.094 1779.72C383.724 1786.25 381.354 1792.78 378.927 1799.72C365.458 1836.51 350.247 1875.35 330.019 1911.4C316.978 1934.73 301.077 1956.2 282.782 1975.47C228.593 2032.73 162.725 2059.02 102.167 2047.37L102.742 2044.75C162.309 2056.05 227.304 2030.05 280.97 1973.55C298.801 1954.63 314.934 1932.98 327.918 1910.06C347.914 1874.19 363.125 1835.35 376.769 1798.79C379.139 1792.26 381.741 1785.55 384.111 1779.02C399.718 1735.87 415.728 1691.32 439.44 1651.19C494.051 1558.2 588.392 1486 727.46 1430.08C789.603 1405.14 854.269 1385.96 903.453 1371.88L914.92 1368.71C969.285 1353.28 1025.8 1337.32 1080.22 1318.57C1227.28 1267.94 1322.3 1208.73 1388.07 1126.68C1434.68 1068.55 1465.12 998.161 1494.64 929.93C1503.9 908.353 1513.68 886.017 1523.76 864.554C1543.38 822.388 1560.83 791.356 1579.86 763.874C1612.58 717.313 1653.83 676.736 1706.03 639.576C1790.8 579.336 1894.95 536.597 1996.02 495.088C2014.11 487.653 2032.44 480.042 2050.77 472.432C2062.47 467.631 2073.99 462.597 2085.51 457.564L2087.26 459.891L2086.8 460.242Z" fill="url(#paint1_linear)"/>
<path d="M2067.32 434.408C2055.57 439.617 2043.82 444.826 2031.89 449.802C2019.27 455.304 2006.87 460.63 1994.25 466.132C1888.24 511.73 1778.51 558.675 1693.18 624.451C1644.06 661.838 1605.2 703.168 1574.23 750.6C1552.25 784.322 1534.87 820.773 1520.92 852.09C1513.74 867.72 1506.92 883.815 1500.15 899.503C1467.44 974.15 1433.76 1051.36 1381.51 1114.1C1294.25 1217.47 1167.46 1268.87 1066.95 1301.93C1015.03 1319.16 961.423 1333.66 909.502 1347.98L888.314 1353.73C838.779 1367.34 774.171 1386.12 710.689 1411.7C570.981 1467.74 477.109 1541.05 423.901 1635.9C402.861 1673.29 388.299 1714.92 374.141 1755.15C370.441 1765.24 366.916 1775.56 363.217 1785.65C351.657 1817.72 335.23 1859.29 312.563 1897.91C299.171 1920.78 282.165 1942.72 263.751 1961.34C207.756 2018.15 142.523 2042.86 80.2765 2031.39L80.8517 2028.77C163.557 2044.16 229.934 1991.94 261.94 1959.42C280.353 1940.8 297.127 1919.03 310.462 1896.57C332.897 1858.13 349.091 1816.73 360.826 1784.89C364.526 1774.81 368.05 1764.49 371.75 1754.4C385.908 1714.17 400.47 1672.53 421.568 1634.73C475.241 1539.54 569.578 1465.88 709.75 1409.49C773.232 1383.9 838.248 1365.19 887.783 1351.58L908.971 1345.82C960.893 1331.5 1014.5 1317.01 1066.42 1299.78C1166.93 1266.72 1293.07 1215.43 1379.87 1112.42C1432.07 1050.08 1465.52 973.046 1498.22 898.399C1504.99 882.712 1511.99 866.85 1519 850.987C1532.95 819.67 1550.32 783.218 1572.54 749.321C1603.74 701.714 1642.83 660.209 1692.01 622.414C1777.57 556.462 1887.53 509.342 1993.72 463.977C2006.34 458.475 2018.74 453.149 2031.36 447.647C2042.88 442.614 2054.63 437.405 2066.15 432.371L2067.56 434.233L2067.32 434.408Z" fill="url(#paint2_linear)"/>
<path d="M2047.85 408.576C2036.1 413.785 2024.29 419.402 2012.31 424.786L1995.67 432.218C1882.97 482.49 1766.26 534.693 1679.2 606.882C1633.06 645.312 1596.19 687.337 1566.96 735.64C1548.58 765.917 1533.41 798.518 1516.22 838.116C1512.52 846.747 1508.82 855.378 1505.11 864.009C1469.23 946.528 1432.54 1031.85 1373.6 1099.26C1284.99 1200.35 1156.1 1250.42 1053.61 1282.79C1004.43 1298.32 953.264 1311.71 903.786 1324.92C893.425 1327.62 883.063 1330.32 872.469 1333.19C798.601 1352.74 743.078 1370.5 692.629 1390.65C552.224 1447.21 458.181 1521.74 405.678 1618.98C386.555 1654.56 373.384 1693.68 360.384 1731.58C355.877 1744.47 351.488 1757.99 346.748 1771.05C330.334 1817 313.659 1852.93 294.581 1883.73C280.605 1906.31 263.191 1928.19 244.194 1946.52C187.146 2001.93 120.748 2026.07 57.8601 2014.71L58.2027 2012.26C120.507 2023.33 186.033 1999.49 242.383 1944.6C261.38 1926.27 278.737 1904.79 292.48 1882.39C311.558 1851.59 328.001 1815.84 344.415 1769.89C349.155 1756.83 353.719 1743.54 358.051 1730.42C371.051 1692.52 384.222 1653.4 403.402 1617.41C456.194 1519.59 550.527 1444.47 691.748 1388.03C742.429 1367.71 797.777 1349.71 871.645 1330.16C882.006 1327.46 892.368 1324.76 902.962 1321.89C952.207 1308.86 1003.2 1295.24 1052.55 1279.93C1154.81 1247.75 1283.24 1198.03 1371.38 1097.28C1430.26 1030.28 1466.95 944.959 1502.6 862.615C1506.31 853.984 1510.01 845.353 1513.72 836.722C1530.9 797.125 1546.31 764.348 1564.69 734.071C1594.14 685.593 1631.07 643.16 1677.62 604.787C1684.89 598.946 1691.92 593.28 1699.36 587.672C1783.77 524.054 1890.93 476.123 1994.55 429.773L2011.19 422.34C2022.94 417.132 2034.7 411.923 2046.27 406.481L2047.85 408.576Z" fill="url(#paint3_linear)"/>
<path d="M2028.38 382.743C2016.16 388.302 2004.35 393.919 1992.78 399.361C1875.14 453.721 1753.49 510.012 1665.06 589.079C1621.3 628.263 1586.59 671.216 1559.12 720.389C1540.57 753.347 1525.35 789.27 1510.71 824.026C1471.88 915.699 1431.95 1010.75 1364.47 1084.25C1274.57 1182.66 1149.4 1229.93 1038.93 1262.83C992.253 1276.85 943.706 1289.35 896.904 1301.27C883.107 1304.74 869.719 1308.26 855.923 1311.72C782.752 1330.75 725.075 1349.04 674.394 1369.36C534.686 1425.39 438.032 1503.72 387.048 1602C369.377 1636.12 357.307 1673.32 345.816 1709.35C340.734 1724.86 335.595 1740.78 330.104 1756.23C314.269 1801.01 296.607 1838.04 276.366 1869.72C261.518 1892.59 244.218 1913.66 224.173 1932.05C166.072 1986.07 98.7392 2009.45 34.5709 1998.33L34.9135 1995.88C98.2659 2006.88 164.783 1983.39 222.129 1930.31C241.709 1912.27 259.474 1890.85 274.033 1868.56C294.216 1837.29 311.879 1800.26 327.481 1755.65C332.972 1740.2 338.344 1724.11 343.193 1708.77C354.917 1672.56 366.986 1635.37 384.657 1601.24C435.699 1502.56 532.818 1423.88 673.223 1367.32C723.904 1347 781.814 1328.53 854.984 1309.51C868.373 1305.99 882.169 1302.53 895.965 1299.06C942.767 1287.14 991.083 1274.81 1037.99 1260.62C1148.29 1227.48 1272.99 1180.57 1362.43 1082.5C1429.45 1009.36 1469.55 914.538 1508.14 823.04C1522.78 788.284 1538 752.361 1556.37 719.171C1584.08 669.822 1618.85 626.461 1662.6 587.278C1751.1 507.803 1872.98 451.336 1991.02 397.033C2003.01 391.649 2014.58 386.208 2026.16 380.766L2027.92 383.094L2028.38 382.743Z" fill="url(#paint4_linear)"/>
<path d="M2008.91 356.909C1996.87 362.701 1985.06 368.318 1973.25 373.935C1850.21 432.734 1732.94 491.93 1651.08 571.509C1610.36 611.327 1578.04 655.033 1551.85 705.428C1536.96 734.533 1524.35 765.206 1511.04 797.862L1506.01 810.05C1470.72 897.23 1426.73 996.08 1356.74 1069.63C1264.91 1165.49 1137.88 1211.24 1025.83 1243.51C981.418 1256.18 935.546 1267.4 891.363 1278.44C874.54 1282.73 857.541 1286.78 840.951 1290.89C767.429 1309.45 709.112 1327.86 657.557 1348.47C516.744 1404.97 420.095 1484.76 370.223 1585.48C354.18 1618.38 343.155 1654.06 332.301 1688.52C326.933 1706.06 321.275 1724.2 315.034 1742.04C299.257 1786.41 281.129 1823.8 259.55 1856.12C244.527 1878.76 225.946 1900.06 205.782 1917.81C146.862 1970.25 78.5374 1993.29 13.3207 1982.23L13.6633 1979.78C78.0641 1990.72 145.515 1967.98 203.971 1915.89C224.135 1898.14 242.483 1877.01 257.449 1854.78C279.028 1822.46 297.099 1785.48 312.644 1741.29C318.885 1723.44 324.542 1705.31 329.91 1687.76C340.589 1653.07 351.614 1617.39 367.89 1584.32C417.818 1483.19 514.933 1403.05 656.619 1346.26C708.406 1325.47 766.491 1307.24 840.245 1288.51C857.068 1284.22 873.658 1280.11 890.657 1276.05C934.84 1265.01 980.712 1253.79 1025.12 1241.12C1136.94 1209.03 1263.51 1163.63 1354.93 1067.71C1424.86 994.569 1468.39 896.069 1503.85 809.122L1508.88 796.934C1522.19 764.278 1534.63 733.372 1549.52 704.267C1575.53 653.64 1608.32 609.583 1649.27 569.59C1731.36 489.836 1848.69 430.232 1972.13 371.49C1983.94 365.873 1995.52 360.432 2007.33 354.815L2008.91 356.909Z" fill="url(#paint5_linear)"/>
<path d="M1989.44 331.076C1979.61 335.931 1969.78 340.786 1959.94 345.642L1953.89 348.742C1843.31 403.263 1718.54 468.476 1637.52 553.996C1599.19 594.567 1569.6 638.035 1544.99 690.524C1532.89 716.069 1522.71 742.717 1511.67 771.115C1508.43 779.396 1505.13 788.084 1501.66 796.54C1469.73 877.536 1423.3 980.412 1349.01 1055.02C1255.37 1148.96 1126.47 1193.2 1012.49 1224.37C970.525 1235.93 927.329 1245.86 885.357 1255.96C865.565 1260.66 845.131 1265.48 825.514 1270.41C751.642 1288.5 692.508 1306.8 640.256 1327.93C497.873 1385.26 401.227 1466.5 352.759 1569.08C337.703 1600.87 327.665 1635.44 317.623 1668.56C311.969 1688.15 305.851 1708.09 298.916 1727.91C283.543 1770.88 264.195 1809.55 241.568 1841.94C225.961 1864.28 206.797 1885.3 186.225 1902.99C126.428 1954.27 56.7614 1976.49 -9.32824 1965.72L-8.98563 1963.27C56.2882 1973.93 125.082 1952 184.414 1901.07C205.161 1883.61 223.917 1862.54 239.467 1840.6C262.094 1808.22 280.977 1769.9 296.175 1726.69C303.109 1706.87 308.82 1686.87 314.649 1667.51C324.516 1634.17 334.554 1599.59 349.843 1567.63C398.425 1464.23 495.711 1382.87 638.559 1325.2C690.811 1304.06 749.945 1285.77 824.049 1267.5C844.075 1262.63 864.1 1257.75 883.893 1253.05C925.632 1243.12 968.885 1232.78 1011.03 1221.45C1124.54 1190.64 1253.03 1146.34 1346.38 1052.99C1420.62 978.786 1466.58 876.261 1498.69 795.497C1501.98 786.808 1505.45 778.353 1508.69 770.072C1519.51 741.85 1529.91 715.026 1542.02 689.481C1566.86 636.816 1596.68 593.174 1635.24 552.427C1716.55 466.324 1841.73 401.169 1952.55 346.472L1958.6 343.372C1968.2 338.692 1978.03 333.836 1987.86 328.981L1989.44 331.076Z" fill="url(#paint6_linear)"/>
<path d="M1969.97 305.244C1963.68 308.519 1957.46 311.386 1951.18 314.661L1933.96 323.26C1817.33 382.339 1698.8 449.053 1623.14 536.37C1587.66 577.343 1560.29 621.331 1536.91 675.449C1527.36 697.61 1518.92 720.759 1510.14 744.899C1505.74 756.969 1501.06 769.622 1496.14 782.451C1451.85 898.316 1402.33 980.163 1339.88 1040.01C1244.49 1131.62 1113.48 1174.53 997.991 1204.64C958.291 1214.86 917.657 1224.32 878.361 1233.14C855.598 1238.25 831.963 1243.66 809.143 1249.18C734.688 1266.98 675.146 1285.21 622.254 1306.47C523.511 1346.23 393.643 1421.12 334.594 1551.76C320.701 1582.67 311.241 1616.07 302.362 1648.31C296.48 1669.53 290.308 1691.34 282.913 1712.97C267.89 1756.41 248.135 1795.02 224.17 1828.05C208.155 1850.34 188.407 1871.06 167.02 1888.64C106.17 1938.52 35.7446 1960.22 -31.3935 1949.51L-31.0509 1947.06C35.5039 1957.48 105.231 1936.31 165.384 1886.95C186.539 1869.55 206.054 1849 222.244 1826.94C245.977 1794.09 265.732 1755.48 280.698 1712.45C288.269 1691.05 294.44 1669.24 300.322 1648.02C309.434 1615.61 318.893 1582.2 332.844 1550.89C392.007 1419.43 522.748 1344.25 621.956 1304.14C675.081 1282.71 734.622 1264.47 809.486 1246.73C832.306 1241.21 855.941 1235.8 878.704 1230.69C918.232 1221.7 958.866 1212.23 998.334 1202.19C1113.59 1172.25 1244.13 1129.7 1339.29 1038.26C1401.28 978.766 1450.74 897.327 1494.8 781.637C1499.48 768.984 1504.17 756.331 1508.79 744.086C1517.81 719.77 1526.02 696.797 1535.8 674.461C1559.01 620.11 1586.84 575.772 1622.32 534.798C1698.21 447.307 1816.97 380.416 1933.84 321.163L1951.06 312.564C1957.1 309.464 1963.15 306.364 1969.38 303.497L1970.43 304.893L1969.97 305.244Z" fill="url(#paint7_linear)"/>
<path d="M1950.32 279.177C1947.64 280.464 1944.73 281.927 1942.23 283.447C1933.04 288.184 1923.62 293.097 1914.43 297.835C1804.96 354.801 1683.12 425.834 1608.99 518.567C1576.43 559.535 1551.21 604.45 1529.47 660.255C1522.01 679.382 1515.31 699.031 1508.26 719.672C1502.71 735.531 1497.28 752.032 1491.27 768.242C1450.69 878.39 1396.99 964.848 1331.8 1024.93C1234.88 1114.04 1107.54 1154.55 984.361 1184.62C947.104 1193.73 908.914 1202.08 872.004 1210.19C846.039 1215.89 819.434 1221.71 793.412 1227.82C718.373 1245.33 658.248 1263.28 604.659 1285.06C505.042 1325.11 374.42 1400.94 317.011 1534.72C304.048 1564.93 295.343 1597.4 286.985 1628.88C280.875 1651.73 274.883 1675.23 266.909 1698.02C251.886 1741.46 231.666 1780.43 206.595 1813.92C189.997 1835.92 169.609 1856.76 147.87 1873.88C86.3758 1922.42 14.6085 1943.3 -53.8105 1932.83L-53.4678 1930.38C14.1352 1940.74 85.0296 1920.15 146.059 1871.96C167.798 1854.84 187.896 1834.58 204.494 1812.58C229.332 1779.26 249.728 1740.53 264.461 1697.68C272.436 1674.88 278.66 1651.21 284.538 1628.53C292.896 1597.05 301.425 1564.35 314.62 1533.96C372.319 1399.6 503.639 1323.25 603.72 1282.85C657.718 1261.13 717.9 1242.77 793.114 1225.49C819.136 1219.38 845.741 1213.56 871.706 1207.86C908.616 1199.75 947.039 1191.22 984.063 1182.29C1106.83 1152.16 1233.94 1111.83 1330.39 1023.07C1395.12 963.336 1448.76 877.286 1489.11 767.314C1495.18 750.696 1500.78 734.428 1506.1 718.744C1513.15 698.103 1519.85 678.454 1527.31 659.327C1549.11 603.114 1574.56 558.023 1607.12 517.056C1681.31 423.915 1803.55 352.939 1913.26 295.797C1922.45 291.06 1931.87 286.147 1941.06 281.409C1943.74 280.122 1946.24 278.602 1948.68 277.491L1950.09 279.352L1950.32 279.177Z" fill="url(#paint8_linear)"/>
<path d="M1930.85 253.344C1918.92 259.777 1906.83 265.977 1894.9 272.409C1793.05 326.914 1666.86 402.326 1595.25 500.822C1565.13 542.135 1542.72 586.404 1522.26 644.887C1516.66 661.154 1511.46 677.479 1506.09 695.028C1500.09 714.152 1493.97 734.092 1486.57 754.267C1448.72 861.263 1392.46 949.649 1323.89 1010.09C1225.17 1097.28 1095.78 1136.04 970.85 1165.25C936.037 1173.24 900.233 1180.88 865.534 1188.06C836.599 1194.18 807.024 1200.41 777.857 1206.7C702.292 1223.51 641.702 1241.81 587.064 1263.65C486.75 1304.23 355.14 1381.16 299.253 1517.45C286.987 1547.13 279.213 1578.9 271.377 1609.62C265.271 1633.93 259.108 1658.65 250.673 1683.26C235.882 1726.52 215.022 1765.6 188.613 1799.74C171.607 1821.68 151.101 1841.88 128.779 1858.71C128.546 1858.88 128.314 1859.06 127.849 1859.41C65.5341 1906.38 -7.16739 1926.5 -76.4593 1916.32L-76.1167 1913.88C-7.46525 1924.17 64.4203 1903.93 126.27 1857.31L126.502 1857.14C148.824 1840.31 169.33 1820.11 186.512 1798.4C212.631 1764.85 233.259 1725.94 248.05 1682.68C256.428 1658.48 262.648 1633.35 268.522 1609.22C276.182 1578.26 284.132 1546.73 296.455 1516.64C352.689 1379.36 484.763 1302.08 585.718 1261.38C640.588 1239.37 701.178 1221.07 776.976 1204.08C805.968 1197.56 835.951 1191.38 864.653 1185.44C899.351 1178.26 935.156 1170.62 969.968 1162.63C1094.66 1133.6 1223.64 1094.77 1321.67 1008.11C1389.78 948.022 1445.8 859.812 1483.77 753.457C1490.94 733.457 1497.06 713.517 1503.06 694.393C1508.43 676.844 1513.62 660.519 1519.46 644.076C1539.97 585.185 1562.63 540.741 1592.8 499.021C1664.87 400.174 1791.3 324.587 1893.38 269.907C1905.3 263.474 1917.17 257.449 1929.09 251.017L1930.85 253.344Z" fill="url(#paint9_linear)"/>
<path d="M1911.38 227.511C1899.45 233.944 1887.3 240.552 1875.14 247.16C1727.29 328.674 1633.77 403.905 1580.87 483.195C1553.73 524.094 1533.23 569.466 1514.35 630.044C1510.2 643.395 1506.39 657.212 1502.3 671.612C1495.84 694 1489.49 717.028 1481.4 740.642C1445.24 846.003 1387.99 934.041 1315.35 995.365C1214.87 1080.22 1083.79 1117.71 956.931 1145.81C924.329 1152.87 890.736 1159.58 858.423 1166.05C826.752 1172.4 793.799 1178.99 761.605 1186.11C685.456 1202.63 624.283 1220.64 568.948 1243C425.691 1300.62 323.424 1392.3 280.974 1500.93C269.406 1530.09 262.329 1561.34 255.191 1591.53C249.321 1617.12 242.93 1643.47 234.323 1669.3C219.708 1712.8 198.207 1752 170.75 1786.2C153.103 1808.26 131.548 1828.52 108.643 1845.05C45.4515 1890.86 -28.1841 1910.23 -98.757 1900.29L-98.4144 1897.84C-28.2494 1907.72 44.5703 1888.24 107.297 1842.78C130.202 1826.25 151.524 1806.16 168.881 1784.68C196.106 1750.66 217.374 1711.64 232.165 1668.37C240.947 1642.78 246.931 1616.37 252.976 1591.01C260.114 1560.82 267.423 1529.4 278.816 1500.01C321.556 1390.79 424.345 1298.35 568.242 1240.61C623.577 1218.25 684.983 1200.07 761.364 1183.37C793.326 1176.43 826.278 1169.84 858.183 1163.31C890.495 1156.84 924.088 1150.13 956.69 1143.07C1083.31 1115.15 1214.16 1077.84 1314 993.095C1386.18 932.122 1443.42 844.084 1479.3 739.306C1487.39 715.692 1493.74 692.664 1500.2 670.276C1504.29 655.876 1508.27 642.292 1512.25 628.708C1531.19 567.722 1551.68 522.35 1579.06 481.276C1632.25 401.403 1726 325.996 1874.08 244.307C1886.01 237.874 1897.93 231.441 1909.86 225.009L1911.61 227.336L1911.38 227.511Z" fill="url(#paint10_linear)"/>
<path d="M1891.91 201.679C1879.75 208.287 1867.77 215.128 1855.61 221.736C1711.03 303.709 1616.47 383.371 1566.9 465.626C1542.26 506.462 1524.38 550.955 1507.09 615.083C1504.09 626.102 1501.33 636.945 1498.27 648.372C1491.82 673.673 1485.25 699.79 1476.3 726.61C1442.39 829.17 1382.12 919.487 1306.8 980.64C1204.74 1063.4 1071.56 1099.56 943.012 1126.38C912.796 1132.73 881.414 1138.5 851.488 1144.27C816.671 1150.81 780.749 1157.81 745.817 1165.16C669.086 1181.39 607.272 1199.52 551.296 1222C406.701 1280.26 304.439 1373.4 263.102 1484.48C252.406 1513.34 245.619 1544.01 239.179 1573.68C233.371 1600.32 227.391 1628.18 218.205 1655.18C203.59 1698.67 181.624 1738.22 152.886 1772.66C134.656 1794.42 112.693 1814.63 89.205 1830.87C25.3686 1875.34 -49.4337 1894.13 -121.463 1884.19L-121.12 1881.74C-49.907 1891.57 24.2549 1872.89 87.6262 1828.78C110.882 1812.71 133.02 1792.74 151.018 1771.14C179.523 1736.88 201.432 1697.74 215.815 1654.42C224.768 1627.6 230.923 1599.97 236.731 1573.33C243.172 1543.66 249.959 1513 260.887 1483.96C302.281 1372.47 405.241 1278.81 550.533 1220.02C606.741 1197.36 668.555 1179.24 745.287 1163.01C780.218 1155.66 816.141 1148.65 850.958 1142.12C880.883 1136.35 912.266 1130.58 942.481 1124.22C1070.8 1097.58 1203.57 1061.37 1305.34 979.186C1380.2 918.383 1440.18 828.65 1473.85 726.266C1482.57 699.62 1489.37 673.328 1495.82 648.027C1498.7 636.368 1501.47 625.525 1504.47 614.506C1521.76 550.377 1539.69 505.476 1564.57 464.465C1614.37 382.035 1708.98 301.965 1854.03 219.641C1865.78 212.976 1877.94 206.367 1889.92 199.527L1891.67 201.854L1891.91 201.679Z" fill="url(#paint11_linear)"/>
<path d="M1872.43 175.845C1860.45 182.685 1848.06 189.469 1836.26 196.542C1692.49 280.088 1600.05 362.542 1553.1 448.288C1525.69 498.51 1511.28 550.979 1499.82 600.122C1497.81 608.575 1495.97 617.26 1493.95 625.713C1487.74 653.752 1481.18 682.782 1471.77 712.867C1439.44 814.608 1378.18 904.577 1299.07 966.029C1201.24 1042.32 1080.7 1077.34 929.733 1106.83C901.728 1112.24 872.908 1117.54 844.96 1122.55C807.406 1129.32 768.338 1136.51 730.438 1144.27C653.122 1160.21 590.725 1178.05 534.052 1201.06C388.119 1259.96 285.861 1354.55 245.694 1467.67C235.697 1496.01 229.375 1526.32 223.632 1555.47C218.06 1583.39 212.142 1612.3 202.609 1640.29C187.937 1684.19 165.33 1723.86 135.719 1758.59C117.082 1780.3 94.5356 1800.21 70.2313 1816.34C5.75037 1859.47 -70.2187 1877.68 -143.296 1867.8L-142.954 1865.35C-70.284 1875.18 4.86917 1856.85 69.0605 1814.3C92.8997 1798.53 115.446 1778.61 134.026 1757.31C163.58 1722.99 185.954 1683.5 200.569 1640C209.87 1612.19 215.788 1583.28 221.36 1555.36C227.335 1526.04 233.425 1495.9 243.479 1467.15C283.935 1353.45 386.716 1258.1 533.289 1199.08C589.962 1176.07 652.592 1158.06 730.083 1142.35C767.983 1134.59 807.051 1127.4 844.605 1120.63C872.553 1115.62 901.373 1110.32 929.378 1104.9C1079.94 1075.36 1200.07 1040.28 1297.61 964.575C1376.25 903.473 1437.46 813.913 1469.5 712.755C1479.09 682.903 1485.41 654.048 1491.62 626.009C1493.46 617.323 1495.48 608.871 1497.32 600.185C1508.83 550.635 1523.24 498.165 1550.71 447.535C1597.71 361.381 1690.57 278.984 1834.8 195.088C1846.78 188.248 1858.76 181.407 1870.74 174.566L1871.97 176.195L1872.43 175.845Z" fill="url(#paint12_linear)"/>
<path d="M1852.79 149.779C1840.57 156.795 1828.36 163.811 1816.56 170.885C1675.59 255.24 1582.28 342.358 1539.01 430.078C1516.31 476.387 1504.09 523.55 1492.21 584.696C1490.94 590.758 1489.85 597.053 1488.59 603.116C1482.62 633.893 1476.71 665.719 1466.72 698.427C1436.48 797.134 1373.99 886.93 1290.81 950.721C1289.88 951.422 1288.95 952.123 1288.02 952.824C1181.76 1032.92 1046.12 1062.9 916.103 1086.81C890.252 1091.69 863.643 1096.06 838.082 1100.36C797.383 1107.32 755.635 1114.33 714.764 1122.51C636.69 1137.93 573.828 1156.12 516.514 1179.24C431.212 1213.61 280.507 1294.72 227.994 1449.99C218.637 1478.21 213.012 1508 207.326 1536.74C201.816 1565.71 196.134 1595.9 186.663 1624.94C172.166 1669.07 148.919 1708.86 118.26 1743.65C99.0384 1765.07 75.852 1785.1 51.1969 1800.76C-13.9286 1842.55 -90.8319 1860.01 -165.423 1850.54L-165.08 1848.09C-91.1297 1857.68 -14.6344 1840.16 49.7936 1798.9C74.2161 1783.41 97.3454 1763.79 116.334 1742.54C146.936 1708.16 169.776 1668.32 184.391 1624.83C194.037 1596.02 199.719 1565.83 204.997 1537.03C210.507 1508.06 216.132 1478.28 225.722 1449.88C278.406 1293.39 429.984 1211.98 515.519 1177.44C572.833 1154.31 636.103 1136.18 714.177 1120.76C755.047 1112.59 797.028 1105.39 837.494 1098.62C863.056 1094.31 889.722 1089.54 915.516 1085.06C1045.3 1061.33 1180.53 1031.29 1286.33 951.545C1287.26 950.844 1288.19 950.143 1289.12 949.442C1372.07 885.827 1434.26 796.613 1464.22 698.49C1474.2 665.782 1480.11 633.956 1486.26 603.412C1487.35 597.117 1488.61 591.054 1489.7 584.759C1501.82 523.438 1513.63 476.217 1536.8 429.558C1580.12 341.43 1673.72 253.729 1815.33 169.255C1827.13 162.182 1839.35 155.166 1851.33 148.326L1852.55 149.955L1852.79 149.779Z" fill="url(#paint13_linear)"/>
<path d="M1833.32 123.946C1821.1 130.962 1808.83 138.386 1796.79 145.635C1656.41 231.737 1564.8 321.59 1524.81 412.683C1502.87 462.428 1493.69 513.14 1484.71 569.91L1482.88 581.509C1477.61 614.674 1472.17 649.063 1461.73 685.035C1432.71 783.914 1367.26 875.581 1282.21 936.404C1170.12 1016.51 1027.02 1046.27 901.894 1067.96C878.255 1071.91 853.975 1075.97 830.567 1079.75C787.131 1086.94 742.238 1094.14 698.63 1102.56C621.021 1117.62 555.654 1135.87 498.515 1159.23C352.118 1218.49 246.788 1318.68 210.008 1434.36C201.115 1462.22 195.956 1491.66 190.91 1520.28C185.637 1550.53 180.249 1581.6 170.431 1611.63C155.991 1655.35 131.7 1696.66 100.282 1730.92C80.4198 1752.46 56.7072 1771.79 31.6441 1787.4C-33.8935 1827.67 -111.788 1844.78 -188.011 1835.08L-187.668 1832.64C-112.029 1842.04 -34.5992 1825.29 30.2979 1785.13C55.3038 1769.93 79.0165 1750.6 98.6457 1729.23C129.831 1695.14 154.066 1654.25 168.273 1610.7C178.091 1580.67 183.479 1549.6 188.695 1519.76C193.741 1491.14 198.725 1461.47 207.85 1433.43C245.152 1316.99 350.771 1216.22 497.81 1156.85C555.124 1133.72 620.723 1115.29 698.332 1100.23C741.94 1091.81 786.833 1084.61 830.269 1077.42C853.677 1073.64 878.132 1069.81 901.596 1065.63C1026.49 1044.12 1169.36 1014.53 1280.8 934.542C1365.39 874.069 1430.14 782.928 1459.11 684.457C1469.49 648.893 1474.93 614.504 1480.2 581.34L1482.03 569.741C1491.01 512.97 1500.42 462.084 1522.42 411.93C1562.7 320.254 1654.55 230.226 1795.39 143.773C1807.43 136.524 1819.47 129.275 1831.68 122.259L1833.08 124.121L1833.32 123.946Z" fill="url(#paint14_linear)"/>
<path d="M1813.84 98.1126C1801.57 105.537 1789.54 112.785 1777.44 120.442C1639.28 207.065 1547.16 302.046 1510.84 395.113C1490.71 446.778 1483.98 499.291 1477.27 554.717L1476.52 560.02C1472.14 595.806 1467.41 632.582 1456.62 671.002C1428.88 769.645 1362.27 860.732 1273.89 921.503C1160.23 999.512 1020.96 1027.11 888.207 1048.35C866.722 1051.77 844.595 1055.31 823.167 1058.32C777.05 1065.34 729.244 1072.55 682.667 1081.38C604.474 1096.16 538.467 1114.52 480.512 1137.77C332.777 1197.66 227.451 1299.31 191.842 1417.03C183.59 1444.78 178.663 1474.04 174.083 1502.31C169.103 1533.43 163.776 1565.55 153.786 1596.8C139.522 1640.76 114.59 1682.18 81.8913 1716.68C61.6217 1738.16 37.0931 1757.38 11.4467 1772.7C-55.4329 1812.16 -132.34 1828.16 -211.3 1818.7L-210.958 1816.25C-132.814 1825.59 -56.3713 1809.95 10.0434 1770.84C35.6327 1755.93 59.7533 1736.65 79.9659 1715.58C112.432 1681.25 136.899 1640.18 151.106 1596.63C161.039 1565.79 166.365 1533.67 171.345 1502.55C175.926 1474.28 180.677 1444.78 189.161 1416.86C212.363 1340.25 265.001 1270.28 339.406 1214.2C379.864 1183.7 427.033 1157.27 479.517 1135.96C537.296 1112.48 603.536 1093.94 681.904 1079.4C728.249 1070.74 776.287 1063.37 822.404 1056.34C843.657 1053.1 865.959 1049.79 887.444 1046.37C1020.03 1024.9 1159 997.883 1272.02 919.991C1359.93 859.571 1426.09 768.835 1453.71 671.007C1464.26 632.763 1469 595.987 1473.55 560.434L1474.3 555.13C1481.25 499.529 1487.8 446.784 1507.98 394.711C1536.9 320.363 1601.58 244.605 1696.68 172.924C1721.09 154.522 1747.31 136.583 1775.57 118.931C1787.44 111.449 1799.71 104.025 1811.74 96.7765L1813.15 98.6383L1813.84 98.1126Z" fill="url(#paint15_linear)"/>
<path d="M1794.37 72.2805C1782.1 79.7046 1770.01 87.3611 1757.91 95.0178C1661.91 156.794 1538.4 256.091 1497.1 377.369C1480.17 426.988 1475.53 477.923 1470.68 531.948L1470 539.757C1466.61 577.346 1463.05 616.16 1452.1 657.26C1425.46 755.436 1357.8 846.582 1266.16 906.893C1150.92 982.808 1009.79 1008.9 874.928 1028.8C855.597 1031.69 836.089 1034.35 816.349 1037.18C767.32 1044.21 716.602 1051.42 667.519 1060.31C588.568 1074.57 521.92 1093.05 463.733 1116.47C314.484 1176.78 209.338 1280.12 175.075 1400.1C167.056 1427.68 163.002 1456.65 158.829 1484.97C154.143 1516.97 149.286 1550.19 138.774 1582.2C124.453 1626.57 98.8804 1668.11 65.133 1702.67C44.2801 1723.86 19.3436 1743.02 -7.06151 1757.82C-74.4104 1796.17 -152.427 1811.18 -232.668 1801.96L-232.326 1799.51C-152.725 1808.85 -75.1162 1793.78 -8.23236 1755.78C17.9403 1741.16 42.6442 1722.18 63.2647 1701.16C96.7796 1666.77 121.887 1625.59 136.151 1581.63C146.43 1549.79 151.463 1516.8 155.917 1484.98C159.857 1456.83 164.143 1427.69 172.395 1399.93C206.948 1279.37 312.791 1175.5 462.738 1114.67C521.158 1091.07 588.038 1072.41 666.989 1058.16C716.304 1049.09 767.022 1041.88 816.227 1035.09C835.734 1032.43 855.474 1029.59 874.806 1026.7C1009.49 1006.57 1150.39 980.653 1265.17 905.089C1356.34 845.128 1423.71 754.565 1450.06 656.973C1460.95 616.28 1464.52 577.467 1467.9 539.877L1468.58 532.068C1473.44 478.044 1477.9 426.876 1495.06 377.082C1536.89 255.045 1660.45 155.341 1757.09 93.4461C1769.19 85.7896 1781.28 78.1328 1793.32 70.8842L1794.37 72.2805Z" fill="url(#paint16_linear)"/>
<path d="M1774.73 46.2142C1762.4 54.0462 1750.13 61.4702 1738.21 69.3597C1642.21 132.593 1520.05 234.159 1482.77 359.333C1468.58 407.257 1466.15 455.8 1463.33 507.198C1463.17 512.792 1462.78 518.561 1462.38 524.33C1459.94 565.589 1457.42 602.885 1447.05 642.819C1421.46 740.934 1352.63 831.501 1257.5 891.527C1140.68 965.348 997.442 990.099 860.659 1008.9C843.481 1011.26 825.894 1013.57 808.308 1015.87C756.599 1022.73 702.968 1029.95 650.973 1038.85C571.439 1052.81 504.207 1071 445.323 1094.95C294.736 1155.9 189.361 1260.87 156.269 1382.89C148.89 1410.35 145.069 1439.14 141.361 1467.12C136.969 1499.99 132.58 1534.32 121.955 1567.15C107.633 1611.52 81.7713 1653.64 46.9755 1688.26C25.7146 1709.39 0.194779 1728.26 -26.7937 1742.76C-94.5546 1779.6 -173.563 1794.27 -255.435 1784.81L-255.093 1782.36C-173.804 1791.53 -95.0279 1777.04 -27.9074 1740.32C-1.15145 1725.99 24.1358 1707.3 45.3968 1686.16C79.9601 1651.72 105.708 1610.41 119.797 1566.22C130.19 1533.57 134.754 1499.47 139.146 1466.6C142.853 1438.62 146.675 1409.83 154.111 1381.96C187.493 1259.36 293.39 1153.63 444.617 1092.56C503.734 1068.44 571.198 1050.07 650.908 1036.34C702.96 1027.03 756.534 1020.23 808.476 1013.19C826.062 1010.89 843.24 1008.52 860.826 1006.21C997.202 987.361 1140.2 962.785 1256.56 889.315C1350.99 829.814 1419.59 739.423 1444.83 642.299C1454.97 602.541 1457.9 565.302 1460.11 524.218C1460.5 518.449 1460.66 512.855 1461.05 507.085C1463.7 455.455 1466.36 406.738 1480.79 358.638C1518.18 232.648 1640.81 130.731 1737.27 67.1474C1749.19 59.2579 1761.52 51.4259 1773.79 44.0019L1775.19 45.8637L1774.73 46.2142Z" fill="url(#paint17_linear)"/>
<path d="M1755.25 20.3814C1742.93 28.2132 1730.6 36.045 1718.62 44.3425C1582.92 135.68 1494.26 241.551 1468.74 342.172C1456.82 388.751 1456.31 435.483 1455.4 485.071C1455.31 493.17 1455.21 501.27 1454.89 509.545C1454.18 547.304 1452.49 587.629 1441.88 629.195C1417.35 727.249 1347.29 817.643 1249.13 877.035C1130.73 948.761 991.331 971.349 846.915 989.694C831.658 991.704 816.226 993.483 800.969 995.493C746.579 1002.18 690.093 1008.99 635.304 1018.54C555.186 1032.22 487.314 1050.53 427.789 1074.59C278.075 1135.25 170.033 1244.42 138.572 1366.67C131.601 1394.19 128.012 1422.8 124.77 1450.43C120.847 1484.41 116.577 1519.38 105.837 1553.02C91.4582 1597.8 64.9559 1640.03 29.1117 1674.71C7.44284 1695.79 -18.8929 1714.55 -46.4647 1728.76C-114.462 1764.32 -194.405 1778.23 -278.199 1769.12L-277.856 1766.68C-194.703 1775.9 -115.168 1761.93 -47.6356 1726.72C-20.2962 1712.68 5.39902 1694.05 27.2433 1673.2C62.855 1638.7 89.0677 1597.04 103.389 1552.67C114.129 1519.03 118.166 1484.24 122.265 1450.49C125.74 1422.69 128.921 1394.02 136.125 1366.33C152.718 1301.27 188.957 1241.47 244.206 1188.51C293.471 1141.16 356.736 1100.78 426.851 1072.38C486.609 1048.14 554.713 1029.65 635.006 1016.21C689.971 1006.9 746.282 999.854 800.671 993.163C816.103 991.385 831.36 989.374 846.617 987.363C990.625 968.961 1130.02 946.373 1247.96 874.998C1345.65 815.956 1415.42 726.146 1439.44 628.85C1449.81 587.459 1451.26 547.309 1452.15 509.783C1452.48 501.508 1452.57 493.409 1452.66 485.31C1453.57 435.722 1454.31 388.814 1466.3 341.827C1499.02 212.058 1620.76 107.521 1717.22 42.4806C1729.37 34.4159 1741.29 26.5265 1753.62 18.6947L1755.02 20.5565L1755.25 20.3814Z" fill="url(#paint18_linear)"/>
<path d="M1735.78 -5.45179C1723.46 2.38007 1711.07 10.62 1699.09 18.9175C1563.51 112.352 1476.79 220.784 1454.83 324.194C1445.11 369.837 1446.06 415.109 1447.01 463.295C1447.04 473.492 1447.47 483.746 1447.44 494.351C1447.84 530.185 1447.37 572.139 1437.18 615.219C1413.87 713.446 1342.41 803.435 1241.22 862.192C1121.47 931.648 979.978 952.9 833.636 970.141C820.533 971.624 807.198 973.281 793.687 974.706C736.617 981.227 677.451 987.868 619.981 997.245C539.28 1010.63 470.593 1028.83 410.602 1053.24C259.55 1114.54 151.28 1225.35 121.398 1349.69C114.659 1377.03 111.711 1405.53 108.877 1433.21C105.247 1468.06 101.446 1504.14 90.5917 1538.6C76.1562 1583.78 49.0134 1626.14 12.1208 1660.88C-10.3639 1681.84 -36.875 1700.36 -65.0302 1714.29C-133.032 1748.39 -214.141 1761.72 -299.624 1752.79L-299.281 1750.35C-214.206 1759.21 -133.738 1746 -65.9686 1712.07C-38.0458 1698.33 -11.5348 1679.8 10.485 1659.19C47.145 1624.63 73.9982 1582.85 88.1441 1538.25C99.1737 1504.03 102.742 1468.13 106.547 1433.51C109.382 1405.83 112.563 1377.15 119.126 1349.58C139.451 1265.28 195.27 1187.44 275.954 1126.63C315.249 1097.01 360.207 1071.52 410.015 1051.49C470.413 1027.14 538.925 1008.71 620.034 995.38C677.504 986.003 736.67 979.362 793.973 972.666C807.308 971.008 820.586 969.759 833.921 968.101C980.03 951.035 1121.29 929.958 1240.63 860.445C1341.36 802.039 1412.35 712.401 1435.55 614.989C1445.68 572.317 1446.15 530.363 1445.93 494.762C1445.73 484.333 1445.52 473.903 1445.49 463.706C1444.54 415.52 1443.83 370.073 1453.37 324.197C1473.37 228.831 1548.24 129.338 1665.2 41.1837C1676.12 32.9465 1687.23 24.9421 1698.74 16.9952C1710.72 8.69788 1722.87 0.633083 1735.43 -7.37409L1736.48 -5.97772L1735.78 -5.45179Z" fill="url(#paint19_linear)"/>
<path d="M1716.14 -31.5185C1703.75 -23.2785 1691.37 -15.0386 1679.39 -6.74116C1600.73 48.5337 1465.32 163.003 1440.68 306.391C1432.94 351.272 1435.46 395.726 1437.86 442.452C1438.48 454.396 1439.27 466.572 1439.83 478.924C1441.53 523.263 1441.23 561.08 1431.9 600.953C1409.64 699.12 1336.96 788.936 1232.32 847C1111.17 914.594 967.808 934.336 818.958 950.183C807.776 951.312 796.595 952.441 785.181 953.745C725.256 959.864 663.409 966.335 603.202 975.95C521.742 988.812 452.59 1007.36 391.959 1031.89C239.569 1093.84 131.302 1206.1 102.591 1332.48C96.4934 1359.7 93.9528 1388.26 91.3509 1415.77C88.015 1451.49 84.7403 1488.26 73.5394 1523.71C59.0468 1569.31 31.4961 1611.6 -6.44485 1646.41C-29.3375 1667.31 -56.6645 1685.72 -85.1706 1699.18C-153.409 1732 -235.452 1744.57 -323.032 1735.77L-322.689 1733.32C-235.75 1742.24 -153.882 1729.43 -86.5168 1696.91C-58.1862 1683.22 -30.9163 1665.22 -8.25613 1644.49C29.2198 1610.04 56.9459 1567.97 70.9735 1522.73C82.1173 1487.69 85.392 1450.91 88.6708 1415.6C91.2727 1388.09 93.8133 1359.53 99.9682 1331.9C128.793 1204.7 237.582 1091.68 390.845 1029.45C451.708 1004.74 521.036 986.424 602.729 973.388C662.936 963.773 724.782 957.301 784.708 951.182C795.889 950.053 807.303 948.749 818.484 947.62C966.927 931.715 1109.88 911.917 1230.57 844.673C1334.33 786.902 1406.49 697.844 1428.87 600.318C1437.73 560.795 1438.44 523.036 1436.51 478.873C1435.95 466.521 1435.39 454.169 1434.54 442.4C1431.96 395.441 1429.45 350.988 1437.24 305.698C1462.23 161.319 1598.1 46.4995 1677.23 -9.12604C1689.44 -17.5987 1701.41 -25.896 1713.97 -33.9033L1715.9 -31.3433L1716.14 -31.5185Z" fill="url(#paint20_linear)"/>
<path d="M1696.67 -57.3504C1684.28 -49.1105 1671.84 -40.4628 1659.8 -31.7573C1581.15 24.9743 1446.45 141.831 1426.65 289.23C1420.66 333.525 1424.74 377.16 1428.89 423.3C1430.16 436.583 1431.3 450.682 1432.27 464.548C1435 502.999 1436.29 544.367 1427.09 587.795C1406.04 684.677 1330.4 776.364 1224.3 832.974C1101.57 898.474 961.991 916.46 805.565 931.448C796.305 932.224 787.22 933.232 777.728 934.183C715.122 940.131 650.42 946.201 587.708 955.879C505.665 968.45 435.929 986.707 374.426 1011.53C220.522 1073.89 112.203 1188.01 84.8949 1316.26C79.205 1343.54 76.8969 1371.92 74.703 1399.48C71.8933 1435.91 68.6798 1473.73 57.5973 1509.82C43.28 1555.64 15.0318 1598.47 -24.133 1633.1C-47.4336 1653.95 -75.3439 1672.06 -104.666 1685.41C-173.606 1717.3 -254.719 1729.17 -345.387 1720.14L-345.22 1717.46C-255.135 1726.19 -174.487 1714.68 -105.78 1682.96C-76.8656 1669.56 -49.1878 1651.62 -25.9443 1631.18C12.5801 1596.67 40.5387 1554.43 55.0313 1508.83C66.2893 1472.98 69.2703 1435.33 72.2554 1399.14C74.4493 1371.57 76.7574 1343.19 82.5044 1315.5C101.304 1227.25 157.812 1145.97 241.286 1083.05C280.117 1053.79 324.609 1028.64 373.777 1008.74C435.281 983.912 505.249 965.479 587.525 952.733C650.236 943.055 714.938 936.985 777.544 931.037C786.804 930.261 795.889 929.253 805.149 928.477C961.399 913.256 1100.52 895.621 1223.01 830.297C1328.23 773.979 1403.59 682.876 1424.52 586.809C1433.66 543.79 1432.56 502.655 1429.59 464.378C1428.62 450.512 1427.24 436.589 1425.98 423.306C1421.83 377.166 1417.75 333.531 1423.8 288.828C1443.71 140.613 1579.1 23.2303 1657.99 -33.6767C1670.03 -42.3821 1682.24 -50.8546 1694.62 -59.0947L1696.2 -57.0001L1696.67 -57.3504Z" fill="url(#paint21_linear)"/>
<path d="M1677.19 -83.1838C1664.75 -74.5359 1652.54 -66.0634 1640.28 -57.1827C1561.45 0.772964 1427.4 120.426 1412.5 271.427C1408.2 315.545 1413.62 358.536 1419.34 403.857C1421.25 418.479 1423.04 433.916 1424.66 449.121C1428.67 487.337 1430.94 529.053 1422.04 573.354C1401.98 670.584 1324.94 761.866 1216.05 817.666C1091.91 881.304 950.462 897.778 791.936 911.43L770.038 913.337C704.985 918.942 637.659 924.433 572.211 934.35C489.352 946.806 419.032 964.773 357.064 989.949C201.59 1053.12 93.5068 1168.53 67.5454 1299.04C62.088 1326.15 60.1878 1354.59 58.4017 1382.21C55.8858 1419.51 53.1986 1458.03 42.0018 1494.93C27.6275 1541.17 -1.26112 1584.11 -41.2989 1619.03C-65.4154 1639.76 -93.5011 1657.65 -123.406 1670.7C-192.351 1701.13 -274.398 1712.25 -367.22 1703.75L-367.052 1701.07C-274.639 1709.51 -193.056 1698.75 -124.52 1668.25C-95.0228 1655.15 -66.7616 1637.49 -43.1102 1617.11C-3.36206 1582.77 25.0616 1540.18 39.3788 1494.35C50.751 1457.68 53.2057 1419.34 55.8971 1382.27C57.6831 1354.65 59.5832 1326.21 65.0977 1298.7C78.4801 1231.31 114.646 1166.1 169.422 1110.58C219.608 1059.61 284.208 1017.13 356.301 987.97C418.27 962.794 489.054 944.476 571.913 932.02C637.537 922.336 704.687 916.611 769.74 911.007L791.638 909.1C950.165 895.448 1091.21 878.916 1214.87 815.629C1323.3 760.179 1399.65 669.423 1419.59 573.009C1428.67 528.941 1426.34 487.633 1422.33 449.417C1420.71 434.212 1418.69 418.95 1417.02 404.153C1411.12 358.599 1405.7 315.608 1410.06 271.082C1424.89 119.032 1559.87 -1.32161 1638.7 -59.2773C1650.73 -67.9826 1663 -76.8632 1675.62 -85.2784L1677.19 -83.1838Z" fill="url(#paint22_linear)"/>
<path d="M1657.55 -109.249C1645.11 -100.602 1632.84 -91.7209 1620.57 -82.8402L1619.64 -82.1393C1486.18 18.4585 1405.61 140.862 1398.59 253.45C1395.97 297.389 1402.91 339.969 1410.14 384.88C1412.69 400.84 1415.6 417.266 1417.68 433.577C1422.56 470.044 1426.24 513.621 1417.39 558.971C1398.33 656.549 1319.89 747.425 1208.2 802.415C1082.48 863.958 945.224 878.734 778.713 891.47L762.523 892.725C694.846 897.752 624.841 903.074 556.712 912.821C473.094 924.754 402.31 943.072 339.701 968.366C185.565 1030.9 74.5247 1151.09 50.0197 1281.6C44.9701 1308.76 43.535 1336.85 41.9815 1364.29C39.7593 1402.46 37.7738 1441.92 26.0549 1479.58C11.6235 1526.22 -17.7302 1569.52 -58.7593 1604.09C-83.2837 1624.76 -112.185 1642.53 -142.441 1655.12C-212.087 1684.62 -292.739 1694.69 -389.114 1686.31L-388.947 1683.63C-292.805 1692.18 -212.56 1682.06 -143.555 1652.68C-113.474 1639.86 -84.63 1622.49 -60.338 1602C-19.5415 1567.6 9.52258 1524.89 23.8969 1478.65C35.3833 1441.16 37.5442 1401.94 39.7664 1363.77C41.3199 1336.33 42.7551 1308.24 47.8616 1280.67C60.5424 1212.35 96.4142 1146.27 151.537 1089.76C201.838 1037.97 266.727 994.903 339.285 965.395C401.894 940.101 473.086 921.841 556.937 909.732C625.065 899.985 695.071 894.663 762.747 889.637L778.938 888.381C944.461 876.755 1081.72 861.978 1206.79 800.553C1318.02 745.914 1395.76 655.563 1414.89 559.034C1423.68 514.092 1419.94 470.923 1415.06 434.457C1412.8 417.913 1410.31 401.544 1407.53 385.759C1400.12 340.616 1393.18 298.035 1395.85 253.688C1402.99 140.284 1483.84 17.2979 1618.01 -83.8257C1618.24 -84.001 1618.7 -84.3516 1618.94 -84.5268C1631.03 -93.6402 1643.29 -102.521 1655.91 -110.936L1657.31 -109.074L1657.55 -109.249Z" fill="url(#paint23_linear)"/>
<path d="M1638.08 -135.083C1625.4 -126.259 1613.31 -117.146 1601.22 -108.033C1466.77 -4.8694 1387.67 120.445 1384.38 236.055C1383.23 279.991 1391.44 322.336 1400.37 367.069C1403.62 383.96 1406.99 401.492 1409.95 418.967C1416.05 455.606 1420.95 499.356 1412.4 545.579C1394.16 643.272 1314.66 734.208 1199.59 788.098C1062.65 852.634 904.169 862.965 764.505 872.619L754.021 873.222C683.897 877.903 611.269 882.648 540.635 892.458C456.434 904.101 384.834 922.304 321.76 947.948C166.053 1011.3 55.0168 1132.95 31.6825 1265.49C27.041 1292.71 25.7812 1321.03 24.6928 1348.13C22.9969 1387 21.305 1427.32 9.47196 1465.8C-5.01652 1512.85 -34.7782 1556.09 -77.0882 1590.9C-102.021 1611.52 -131.505 1629 -162.577 1641.47C-231.819 1669.57 -313.463 1679.29 -412.518 1670.74L-412.351 1668.06C-313.296 1676.61 -231.885 1667.07 -163.051 1638.9C-132.387 1626.37 -103.134 1609.07 -78.259 1588.86C-36.4141 1554.4 -6.70954 1511.57 7.48936 1465.11C19.2654 1427.04 20.7247 1386.89 22.4206 1348.02C23.5662 1320.51 24.8259 1292.19 29.4674 1264.97C52.7405 1131.38 164.474 1009.2 321.054 945.561C384.36 919.741 456.136 901.771 540.57 889.953C611.203 880.143 683.832 875.398 754.363 870.774L764.847 870.171C904.454 860.925 1062.35 850.304 1199.06 785.943C1313.26 732.346 1392.23 642.168 1410.36 545.292C1418.86 499.476 1413.9 456.134 1407.97 419.728C1405.01 402.254 1401.64 384.722 1398.39 367.83C1389.7 322.922 1381.07 280.52 1382.46 236.408C1385.86 119.982 1465.08 -6.14802 1599.99 -109.662C1612.08 -118.775 1624.58 -127.831 1636.85 -136.712L1638.08 -135.083Z" fill="url(#paint24_linear)"/>
<path d="M1618.6 -160.915C1606.11 -151.859 1593.61 -142.804 1581.46 -133.282C1446.9 -27.846 1369.9 100.261 1370.41 218.486C1370.48 262.595 1380.21 304.529 1390.59 349.258C1394.54 367.081 1399.02 385.601 1402.68 404.007C1409.6 440.76 1415.73 484.683 1407.71 531.604C1390.45 629.645 1309.56 720.176 1191.69 773.255C1053.39 835.522 892.759 844.925 751.051 852.834L746.449 853.018C673.703 857.122 598.451 861.289 525.313 871.163C440.528 882.515 368.112 900.603 304.806 926.423C181.742 976.482 40.7914 1087.47 14.7411 1248.34C10.5075 1275.61 9.48023 1303.76 8.56725 1331.09C7.16504 1370.83 5.99951 1411.85 -5.71531 1450.97C-20.2609 1498.43 -50.663 1541.79 -94.0213 1576.66C-119.362 1597.22 -149.662 1614.58 -181.085 1626.59C-250.621 1653.82 -331.045 1662.25 -433.885 1654L-433.718 1651.32C-331.11 1659.74 -251.27 1651.02 -181.966 1623.97C-150.719 1611.73 -120.883 1594.71 -95.6 1574.56C-52.7068 1540.04 -22.5943 1497.27 -8.28119 1449.99C3.37646 1411.28 4.71744 1370.49 6.11966 1330.74C7.03264 1303.41 7.88443 1275.04 12.118 1247.76C33.9877 1112.3 145.774 988.264 303.692 923.978C367.639 898.04 439.88 879.72 525.072 868.424C598.21 858.551 673.694 854.209 746.441 850.105L751.043 849.921C892.575 841.779 1052.75 832.726 1190.63 770.402C1307.8 717.849 1388.17 628.076 1405.14 530.619C1413.34 483.93 1407.16 440.416 1400.24 403.662C1396.57 385.256 1392.5 366.793 1388.32 349.146C1377.94 304.417 1368.26 262.075 1368.02 217.733C1367.63 98.6919 1444.91 -29.998 1580.17 -135.96C1592.32 -145.481 1604.82 -154.538 1617.32 -163.593L1619.07 -161.266L1618.6 -160.915Z" fill="url(#paint25_linear)"/>
<path d="M1598.96 -186.982C1586.46 -177.926 1573.9 -168.462 1561.93 -158.708C1427.26 -50.9989 1352.14 80.076 1356.26 200.683C1357.79 244.789 1369.5 288.875 1380.58 331.622C1385.46 350.2 1390.64 369.651 1394.83 388.755C1402.45 423.526 1410.15 469.543 1402.36 517.746C1385.87 616.31 1303.98 706.494 1183.14 758.529C1043.5 818.526 887.695 826.114 737.131 833.399C662.169 836.983 584.702 840.63 509.292 850.392C423.516 861.397 350.868 879.66 286.921 905.597C162.518 956.3 20.989 1068.45 -3.30717 1231.65C-7.13283 1258.98 -7.75216 1287.19 -8.25726 1314.57C-9.13321 1355.01 -10.005 1396.91 -22.0094 1436.61C-36.6121 1484.48 -67.4792 1528.18 -111.653 1562.94C-137.81 1583.38 -168.286 1600.52 -200.292 1612.23C-269.832 1638 -350.839 1646.15 -456.592 1637.9L-456.425 1635.22C-351.312 1643.58 -270.305 1635.44 -201.638 1609.96C-170.04 1598.19 -139.388 1581.29 -113.465 1561.02C-69.7556 1526.61 -38.9455 1483.32 -24.6324 1436.04C-12.6851 1396.74 -12.0458 1355.02 -11.1699 1314.58C-10.6648 1287.19 -10.2209 1258.76 -6.16277 1231.25C10.1312 1122.25 78.1598 1035.94 158.611 975.303C199.534 944.457 243.68 920.307 285.574 903.327C349.986 877.039 422.81 859.009 508.586 848.004C584.404 838.3 661.871 834.653 736.833 831.069C887.165 823.959 1042.56 816.314 1181.97 756.492C1301.94 704.75 1383.48 615.557 1399.86 517.809C1407.76 470.247 1400 424.639 1392.39 389.867C1388.2 370.764 1383.02 351.312 1378.13 332.734C1366.83 290.162 1355.17 245.668 1353.7 201.154C1349.51 79.4983 1424.93 -52.1598 1560.29 -160.394C1572.44 -169.916 1584.82 -179.612 1597.32 -188.668L1598.72 -186.807L1598.96 -186.982Z" fill="url(#paint26_linear)"/>
<path d="M1579.49 -212.815C1566.93 -203.351 1554.37 -193.887 1542.4 -184.133C1407.39 -73.9764 1334.6 59.7159 1342.29 183.113C1345.04 227.391 1358.27 271.067 1370.62 313.578C1376.39 333.32 1382.5 353.527 1387.57 373.794C1396.23 408.505 1405.16 454.694 1397.66 503.771C1381.93 602.857 1298.88 692.461 1174.83 743.629C1033.78 801.764 876.109 807.84 723.444 813.789C652.15 816.434 571.42 819.621 493.505 829.446C407.145 840.16 333.913 858.133 269.093 884.364C143.586 935.535 1.24454 1049.03 -21.2974 1214.55C-25.1231 1241.89 -25.159 1270.38 -25.4315 1297.59C-25.7812 1338.73 -26.1268 1381.33 -38.2454 1421.85C-52.9052 1470.12 -84.4128 1513.94 -129.635 1548.76C-155.967 1568.97 -187.492 1586.16 -220.081 1597.59C-308.537 1629.22 -404.895 1626.67 -479.008 1621.22L-478.841 1618.54C-404.96 1624.17 -309.185 1626.43 -220.962 1594.97C-188.781 1583.48 -157.721 1566.64 -131.214 1546.66C-86.2812 1512.43 -55.0061 1468.78 -40.6359 1421.09C-28.5744 1380.98 -28.2859 1338.79 -27.9362 1297.66C-27.8391 1270.21 -27.3952 1241.78 -23.745 1214.21C-13.928 1142.58 20.5935 1072.76 75.9975 1012.76C127.22 957.359 193.443 912.188 267.98 881.919C333.032 855.513 406.497 837.365 492.856 826.65C570.946 817.058 651.677 813.871 723.204 811.051C875.636 805.277 1033.14 798.968 1173.94 741.008C1296.89 690.309 1379.65 601.288 1395.04 503.193C1402.48 454.525 1393.73 408.568 1385.01 374.265C1379.94 353.998 1374.06 333.616 1368.06 314.049C1355.3 271.48 1342.3 227.63 1339.61 182.943C1335.29 117.225 1353.56 49.0743 1393.45 -18.9441C1428.17 -78.3287 1479.1 -136.055 1540.41 -186.285C1552.62 -196.215 1565 -205.911 1577.73 -215.143L1579.49 -212.815Z" fill="url(#paint27_linear)"/>
<path d="M1560.01 -238.648C1547.46 -229.184 1535.08 -219.487 1522.82 -209.15C1389.15 -98.1798 1316.49 41.9802 1328.32 165.544C1332.46 210.227 1346.92 254.075 1360.9 296.816C1367.43 317.081 1374.48 338.044 1380.3 358.834C1389.96 393.893 1400.11 440.254 1392.73 489.971C1377.98 589.405 1293.54 678.604 1166.69 728.962C1023.66 784.945 864.932 789.624 711.389 794.41L709.701 794.588C626.58 797.023 551.732 799.791 477.485 808.676C390.542 819.1 316.494 836.958 251.209 863.539C124.596 915.178 -18.3814 1030.25 -39.1692 1198.1C-42.5869 1225.49 -42.3904 1253.81 -42.3121 1281.49C-42.1355 1323.32 -41.9548 1366.61 -54.363 1407.72C-68.8474 1456.23 -100.763 1499.99 -146.569 1534.51C-146.801 1534.69 -147.266 1535.04 -147.499 1535.22C-174.471 1555.55 -206.347 1572.27 -239.519 1583.41C-326.001 1612.83 -420.376 1610.97 -501.306 1605.19L-501.139 1602.5C-420.617 1608.23 -326.474 1610.26 -240.401 1580.79C-207.636 1569.59 -175.993 1553.04 -149.078 1533.12C-103.272 1498.59 -71.4134 1455.24 -56.9861 1407.14C-44.8675 1366.62 -45.0482 1323.33 -45.0493 1281.72C-45.1276 1254.05 -45.3242 1225.73 -41.8494 1197.93C-32.7341 1125.37 1.26121 1054.85 57.0118 993.856C108.349 937.643 175.094 891.714 250.095 861.094C315.613 834.338 389.661 816.48 477.011 806.113C551.259 797.228 626.107 794.46 709.227 792.025L710.916 791.847C864.226 787.237 1022.78 782.324 1165.34 726.692C1291.32 676.627 1375.24 588.187 1389.64 489.744C1396.96 440.435 1386.75 394.481 1377.28 359.656C1371.45 338.865 1364.81 317.96 1357.88 297.638C1343.89 254.897 1329.26 210.816 1325.17 165.725C1318.75 98.6705 1335.33 29.2409 1374.63 -40.5244C1408.71 -101.248 1459.22 -160.488 1520.42 -211.359C1532.63 -221.289 1545.06 -231.393 1557.62 -240.857L1559.55 -238.297L1560.01 -238.648Z" fill="url(#paint28_linear)"/>
<path d="M1540.37 -264.713C1527.58 -255.074 1515.37 -245.145 1503.11 -234.807C1369.33 -121.565 1298.78 21.3877 1314.17 147.741C1319.72 192.83 1335.57 237.083 1351.01 279.822C1358.53 300.434 1366.1 322.095 1372.69 343.408C1388.68 395.585 1393.16 436.364 1387.86 475.764C1373.87 575.721 1288.2 664.746 1158.61 713.886C1014.58 768.065 855.851 771.288 702.304 774.617L696.246 774.803C616.153 776.416 538.042 778.724 462.162 787.38C374.636 797.514 299.948 815.49 234.022 842.188C73.4288 907.762 -40.838 1040.6 -56.5192 1180.88C-59.5289 1208.33 -59.1569 1236.89 -58.846 1264.39C-58.1432 1306.92 -57.6688 1351.09 -69.9587 1392.83C-84.7327 1441.92 -117.346 1486.21 -164.608 1520.74C-192.396 1540.95 -224.622 1557.22 -258.203 1568.29C-343 1596.08 -435.743 1594.45 -523.082 1588.39L-522.915 1585.71C-435.752 1591.54 -343.473 1593.52 -258.909 1565.91C-225.561 1555 -193.334 1538.74 -165.779 1518.7C-118.982 1484.52 -86.4257 1440.64 -71.9413 1392.14C-59.7085 1350.8 -60.2401 1307.04 -60.9429 1264.51C-61.2537 1237.01 -61.8011 1208.22 -58.5588 1180.6C-50.3777 1107.28 -16.2682 1035.95 39.4212 973.904C90.8723 916.876 157.907 870.364 233.549 839.625C299.707 812.751 374.395 794.776 462.329 784.699C538.441 775.868 616.728 773.793 696.646 771.947L702.704 771.761C856.018 768.607 1014.57 765.151 1158.13 711.323C1287.03 662.709 1372.18 574.442 1385.82 475.476C1391.24 436.717 1386.53 396.114 1370.71 344.169C1364.12 322.856 1356.72 301.428 1349.03 280.583C1333.42 237.611 1317.39 193.126 1312.07 147.862C1303.73 79.7045 1318.85 8.821 1357.15 -62.7486C1390.59 -124.811 1440.63 -185.158 1501.77 -237.077C1514.03 -247.415 1526.23 -257.344 1539.02 -266.983L1540.6 -264.889L1540.37 -264.713Z" fill="url(#paint29_linear)"/>
<path d="M1520.9 -290.546C1508.28 -280.674 1495.85 -270.57 1483.58 -260.232C1349.46 -144.542 1281.02 1.20353 1300.2 130.172C1306.91 175.841 1324.4 220.323 1341.24 263.467C1349.51 284.603 1358.08 306.611 1365.19 328.623C1382.58 381.205 1388.06 422.332 1382.93 461.964C1375.97 516.108 1348.67 565.515 1301.79 609.249C1261.81 646.677 1209.42 677.777 1150.06 699.161C1004.86 751.303 846.304 753.302 692.754 755.174L682.327 755.369C602.115 756.341 523.886 758.009 446.142 766.609C357.625 776.396 282.353 794.081 215.963 821.131C53.8558 887.115 -60.464 1021.82 -74.9743 1164.14C-77.8087 1191.82 -77.0288 1220.43 -76.31 1247.99C-75.3134 1291.4 -74.0803 1336.09 -86.6598 1378.41C-101.315 1428.15 -134.569 1472.55 -183.055 1506.91C-211.251 1527.07 -244.293 1543.21 -278.457 1554C-365.469 1581.26 -458.8 1577.89 -546.372 1572L-546.204 1569.32C-458.808 1574.98 -365.885 1578.29 -279.106 1551.2C-245.174 1540.59 -212.365 1524.62 -184.401 1504.64C-136.556 1470.4 -103.359 1426.4 -88.9932 1377.25C-76.7033 1335.51 -77.7041 1290.64 -78.7577 1247.64C-79.4764 1220.09 -80.0238 1191.3 -77.3649 1163.39C-69.8854 1089.14 -36.0696 1016.94 19.734 954.073C71.2993 896.229 139.031 849.191 214.906 818.278C281.529 791.053 357.033 773.192 445.55 763.406C523.527 754.63 601.932 753.195 682.144 752.223L692.57 752.028C845.713 750.098 1004.27 748.099 1149 696.308C1280.87 648.737 1367.01 560.818 1379.89 461.329C1384.97 422.104 1379.67 381.211 1362.22 329.037C1355.05 307.433 1346.48 285.424 1338.21 264.289C1321.19 220.913 1303.94 176.255 1297.05 130.353C1277.76 0.743841 1346.78 -146.168 1481.36 -262.209C1493.45 -272.779 1505.89 -282.884 1518.91 -292.698L1520.66 -290.371L1520.9 -290.546Z" fill="url(#paint30_linear)"/>
<path d="M1501.43 -316.38C1488.58 -306.332 1476.32 -295.995 1464.23 -285.425C1330 -167.462 1263.43 -18.7484 1286.23 112.602C1294.34 158.676 1312.99 203.739 1331.23 247.288C1358.38 311.855 1386.3 378.4 1377.99 448.164C1371.62 502.598 1343.86 552.355 1296.16 595.974C1255.37 633.287 1202.21 663.865 1141.92 684.493C995.73 734.83 836.991 735.14 683.379 735.964L668.408 735.934C496.097 736.62 341.449 741.874 198.311 800.13C34.6334 866.933 -79.6822 1003.1 -92.6138 1147.51C-95.0403 1175.25 -94.0849 1204.09 -92.9583 1231.71C-91.4355 1275.81 -89.676 1321.2 -102.313 1363.94C-125.681 1443.23 -200.229 1510.73 -297.431 1539.47C-382.525 1564.92 -470.496 1561.89 -568.437 1555.79L-568.27 1553.11C-470.737 1559.15 -382.766 1562.19 -298.312 1536.85C-202.159 1508.17 -128.133 1441.42 -104.879 1362.95C-92.299 1320.62 -94.0585 1275.24 -95.6384 1231.54C-96.5326 1203.75 -97.7204 1175.08 -95.0615 1147.16C-82.0157 1001.93 32.822 865.014 197.605 797.742C341.208 739.136 495.856 733.882 668.575 733.254L683.547 733.283C836.926 732.634 995.49 732.092 1141.21 682.105C1245.21 646.417 1361.26 566.247 1375.55 447.819C1383.97 378.696 1357.29 315.236 1329.02 248.225C1310.78 204.676 1291.72 159.555 1283.67 113.073C1260.57 -19.1508 1327.49 -168.855 1462.42 -287.344C1474.74 -298.09 1487 -308.427 1499.85 -318.474L1501.43 -316.38Z" fill="url(#paint31_linear)"/>
</g>
</g>
<defs>
<linearGradient id="paint0_linear" x1="-231.246" y1="1591.52" x2="1696.7" y2="603.722" gradientUnits="userSpaceOnUse">
<stop stop-color="#402F22"/>
<stop offset="1" stop-color="#402F22" stop-opacity="0"/>
</linearGradient>
<linearGradient id="paint1_linear" x1="-231.246" y1="1591.52" x2="1696.7" y2="603.722" gradientUnits="userSpaceOnUse">
<stop stop-color="#402F22"/>
<stop offset="1" stop-color="#402F22" stop-opacity="0"/>
</linearGradient>
<linearGradient id="paint2_linear" x1="-231.246" y1="1591.52" x2="1696.7" y2="603.722" gradientUnits="userSpaceOnUse">
<stop stop-color="#402F22"/>
<stop offset="1" stop-color="#402F22" stop-opacity="0"/>
</linearGradient>
<linearGradient id="paint3_linear" x1="-231.246" y1="1591.52" x2="1696.7" y2="603.722" gradientUnits="userSpaceOnUse">
<stop stop-color="#402F22"/>
<stop offset="1" stop-color="#402F22" stop-opacity="0"/>
</linearGradient>
<linearGradient id="paint4_linear" x1="-231.246" y1="1591.52" x2="1696.7" y2="603.722" gradientUnits="userSpaceOnUse">
<stop stop-color="#402F22"/>
<stop offset="1" stop-color="#402F22" stop-opacity="0"/>
</linearGradient>
<linearGradient id="paint5_linear" x1="-231.246" y1="1591.52" x2="1696.7" y2="603.722" gradientUnits="userSpaceOnUse">
<stop stop-color="#402F22"/>
<stop offset="1" stop-color="#402F22" stop-opacity="0"/>
</linearGradient>
<linearGradient id="paint6_linear" x1="-231.246" y1="1591.52" x2="1696.7" y2="603.722" gradientUnits="userSpaceOnUse">
<stop stop-color="#402F22"/>
<stop offset="1" stop-color="#402F22" stop-opacity="0"/>
</linearGradient>
<linearGradient id="paint7_linear" x1="-231.246" y1="1591.52" x2="1696.7" y2="603.722" gradientUnits="userSpaceOnUse">
<stop stop-color="#402F22"/>
<stop offset="1" stop-color="#402F22" stop-opacity="0"/>
</linearGradient>
<linearGradient id="paint8_linear" x1="-231.246" y1="1591.52" x2="1696.7" y2="603.722" gradientUnits="userSpaceOnUse">
<stop stop-color="#402F22"/>
<stop offset="1" stop-color="#402F22" stop-opacity="0"/>
</linearGradient>
<linearGradient id="paint9_linear" x1="-231.246" y1="1591.52" x2="1696.7" y2="603.722" gradientUnits="userSpaceOnUse">
<stop stop-color="#402F22"/>
<stop offset="1" stop-color="#402F22" stop-opacity="0"/>
</linearGradient>
<linearGradient id="paint10_linear" x1="-231.246" y1="1591.52" x2="1696.7" y2="603.722" gradientUnits="userSpaceOnUse">
<stop stop-color="#402F22"/>
<stop offset="1" stop-color="#402F22" stop-opacity="0"/>
</linearGradient>
<linearGradient id="paint11_linear" x1="-231.246" y1="1591.52" x2="1696.7" y2="603.722" gradientUnits="userSpaceOnUse">
<stop stop-color="#402F22"/>
<stop offset="1" stop-color="#402F22" stop-opacity="0"/>
</linearGradient>
<linearGradient id="paint12_linear" x1="-231.246" y1="1591.52" x2="1696.7" y2="603.722" gradientUnits="userSpaceOnUse">
<stop stop-color="#402F22"/>
<stop offset="1" stop-color="#402F22" stop-opacity="0"/>
</linearGradient>
<linearGradient id="paint13_linear" x1="-231.246" y1="1591.52" x2="1696.7" y2="603.722" gradientUnits="userSpaceOnUse">
<stop stop-color="#402F22"/>
<stop offset="1" stop-color="#402F22" stop-opacity="0"/>
</linearGradient>
<linearGradient id="paint14_linear" x1="-231.246" y1="1591.52" x2="1696.7" y2="603.722" gradientUnits="userSpaceOnUse">
<stop stop-color="#402F22"/>
<stop offset="1" stop-color="#402F22" stop-opacity="0"/>
</linearGradient>
<linearGradient id="paint15_linear" x1="-231.246" y1="1591.52" x2="1696.7" y2="603.722" gradientUnits="userSpaceOnUse">
<stop stop-color="#402F22"/>
<stop offset="1" stop-color="#402F22" stop-opacity="0"/>
</linearGradient>
<linearGradient id="paint16_linear" x1="-231.246" y1="1591.52" x2="1696.7" y2="603.722" gradientUnits="userSpaceOnUse">
<stop stop-color="#402F22"/>
<stop offset="1" stop-color="#402F22" stop-opacity="0"/>
</linearGradient>
<linearGradient id="paint17_linear" x1="-231.246" y1="1591.52" x2="1696.7" y2="603.722" gradientUnits="userSpaceOnUse">
<stop stop-color="#402F22"/>
<stop offset="1" stop-color="#402F22" stop-opacity="0"/>
</linearGradient>
<linearGradient id="paint18_linear" x1="-231.246" y1="1591.52" x2="1696.7" y2="603.722" gradientUnits="userSpaceOnUse">
<stop stop-color="#402F22"/>
<stop offset="1" stop-color="#402F22" stop-opacity="0"/>
</linearGradient>
<linearGradient id="paint19_linear" x1="-231.246" y1="1591.52" x2="1696.7" y2="603.722" gradientUnits="userSpaceOnUse">
<stop stop-color="#402F22"/>
<stop offset="1" stop-color="#402F22" stop-opacity="0"/>
</linearGradient>
<linearGradient id="paint20_linear" x1="-231.246" y1="1591.52" x2="1696.7" y2="603.722" gradientUnits="userSpaceOnUse">
<stop stop-color="#402F22"/>
<stop offset="1" stop-color="#402F22" stop-opacity="0"/>
</linearGradient>
<linearGradient id="paint21_linear" x1="-231.246" y1="1591.52" x2="1696.7" y2="603.722" gradientUnits="userSpaceOnUse">
<stop stop-color="#402F22"/>
<stop offset="1" stop-color="#402F22" stop-opacity="0"/>
</linearGradient>
<linearGradient id="paint22_linear" x1="-231.246" y1="1591.52" x2="1696.7" y2="603.722" gradientUnits="userSpaceOnUse">
<stop stop-color="#402F22"/>
<stop offset="1" stop-color="#402F22" stop-opacity="0"/>
</linearGradient>
<linearGradient id="paint23_linear" x1="-231.246" y1="1591.52" x2="1696.7" y2="603.722" gradientUnits="userSpaceOnUse">
<stop stop-color="#402F22"/>
<stop offset="1" stop-color="#402F22" stop-opacity="0"/>
</linearGradient>
<linearGradient id="paint24_linear" x1="-231.246" y1="1591.52" x2="1696.7" y2="603.722" gradientUnits="userSpaceOnUse">
<stop stop-color="#402F22"/>
<stop offset="1" stop-color="#402F22" stop-opacity="0"/>
</linearGradient>
<linearGradient id="paint25_linear" x1="-231.246" y1="1591.52" x2="1696.7" y2="603.722" gradientUnits="userSpaceOnUse">
<stop stop-color="#402F22"/>
<stop offset="1" stop-color="#402F22" stop-opacity="0"/>
</linearGradient>
<linearGradient id="paint26_linear" x1="-231.246" y1="1591.52" x2="1696.7" y2="603.722" gradientUnits="userSpaceOnUse">
<stop stop-color="#402F22"/>
<stop offset="1" stop-color="#402F22" stop-opacity="0"/>
</linearGradient>
<linearGradient id="paint27_linear" x1="-231.246" y1="1591.52" x2="1696.7" y2="603.722" gradientUnits="userSpaceOnUse">
<stop stop-color="#402F22"/>
<stop offset="1" stop-color="#402F22" stop-opacity="0"/>
</linearGradient>
<linearGradient id="paint28_linear" x1="-231.246" y1="1591.52" x2="1696.7" y2="603.722" gradientUnits="userSpaceOnUse">
<stop stop-color="#402F22"/>
<stop offset="1" stop-color="#402F22" stop-opacity="0"/>
</linearGradient>
<linearGradient id="paint29_linear" x1="-231.246" y1="1591.52" x2="1696.7" y2="603.722" gradientUnits="userSpaceOnUse">
<stop stop-color="#402F22"/>
<stop offset="1" stop-color="#402F22" stop-opacity="0"/>
</linearGradient>
<linearGradient id="paint30_linear" x1="-231.246" y1="1591.52" x2="1696.7" y2="603.722" gradientUnits="userSpaceOnUse">
<stop stop-color="#402F22"/>
<stop offset="1" stop-color="#402F22" stop-opacity="0"/>
</linearGradient>
<linearGradient id="paint31_linear" x1="-231.246" y1="1591.52" x2="1696.7" y2="603.722" gradientUnits="userSpaceOnUse">
<stop stop-color="#402F22"/>
<stop offset="1" stop-color="#402F22" stop-opacity="0"/>
</linearGradient>
<clipPath id="clip0">
<rect width="1920" height="2488" fill="white"/>
</clipPath>
</defs>
</svg>
