<svg width="1280" height="1188" viewBox="0 0 1280 1188" fill="none" xmlns="http://www.w3.org/2000/svg">
<g opacity="0.05">
<path d="M-127.696 696.606C-100.765 695.581 -73.9078 693.909 -47.2515 692.194C69.8345 684.607 190.757 676.78 291.663 730.604C333.771 753.22 370.194 785.788 405.335 817.453C441.599 849.777 478.899 883.163 522.46 905.876C637.217 965.797 772.501 944.805 903.417 924.571L904.265 924.541C1029.56 905.01 1172.36 890.244 1281.05 961.929C1310.96 981.538 1336.85 1007.24 1361.86 1032.12C1382.88 1053.01 1404.79 1074.7 1428.95 1092.67C1481.6 1132.05 1558.94 1154.14 1612.96 1114.65L1611.81 1113.14C1558.52 1152.16 1481.98 1130.24 1429.9 1091.19C1405.93 1073.26 1384.03 1051.56 1362.97 1030.89C1337.96 1006 1311.87 980.256 1281.95 960.647C1248.55 938.615 1211.79 924.502 1173.55 916.391C1086.79 897.99 991.012 909.255 904.003 922.801L903.155 922.831C772.641 943.151 637.803 964.026 523.406 904.393C480.046 881.722 442.904 848.58 406.842 816.299C371.499 784.592 334.876 751.981 292.566 729.322C263.289 713.639 232.298 703.065 200.294 696.277C121.592 679.584 36.292 685.071 -47.1108 690.54C-73.7669 692.255 -100.423 693.97 -127.152 695.037L-127.494 696.649L-127.696 696.606Z" fill="url(#paint0_linear)"/>
<path d="M-122.953 674.243C-113.87 674.064 -104.745 673.684 -95.8206 673.261C-82.0107 672.611 -67.7983 672.046 -53.9884 671.397C22.9363 667.712 102.606 663.978 174.489 677.119C218.668 685.016 257.21 698.665 291.884 718.651C312.329 730.356 332.535 745.168 357.552 766.054C370.421 776.784 383.32 788.362 395.743 799.208C435.044 834.071 475.784 870.081 523.169 893.606C609.236 936.072 704.887 932.359 778.671 924.64C819.119 920.376 860.08 913.695 899.504 907.32L907.793 905.92C943.539 900.028 990.435 893.132 1037.68 890.522C1143.05 884.658 1224.64 902.596 1287.05 945.518C1314.03 964.084 1337.6 987.821 1360.54 1010.58C1364.01 1014.05 1367.48 1017.53 1371.11 1021.24C1390.74 1040.78 1412.09 1061.09 1435.82 1078.13C1451.15 1089.17 1467.75 1098.16 1485.22 1105.03C1537.04 1125.49 1587.08 1122.63 1622.37 1097.06L1621.22 1095.56C1586.46 1120.61 1537.07 1123.39 1485.81 1103.26C1468.74 1096.48 1451.93 1087.44 1436.77 1076.64C1413.24 1059.65 1391.88 1039.33 1372.22 1020C1368.75 1016.53 1365.07 1013.02 1361.6 1009.54C1338.71 986.581 1315.14 962.844 1287.95 944.236C1225.18 901.027 1143.19 883.003 1037.42 888.782C990.173 891.392 943.033 898.447 907.33 904.138L899.04 905.537C859.617 911.913 818.656 918.594 778.207 922.857C668.904 934.411 590.359 924.91 523.713 892.037C476.486 868.756 435.947 832.789 396.646 797.926C384.266 786.878 371.324 775.502 358.455 764.772C333.279 743.642 312.829 728.988 292.427 717.082C257.552 697.053 219.01 683.404 174.471 675.221C102.185 661.994 22.7171 665.771 -54.4088 669.413C-68.2188 670.063 -82.2299 670.67 -96.2411 671.277C-105.165 671.7 -114.047 671.922 -122.928 672.143L-123.355 674.158L-122.953 674.243Z" fill="url(#paint1_linear)"/>
<path d="M-118.209 651.88C-109.127 651.701 -100.044 651.522 -90.9188 651.142C-81.1897 650.89 -71.6617 650.595 -61.9327 650.342C19.5788 647.841 103.878 645.089 178.182 661.691C220.812 670.944 258.048 685.789 292.063 706.899C316.222 721.918 338.245 740.063 356.541 755.944C365.812 763.805 374.996 772.07 384.023 780.09C427.282 818.108 471.938 857.475 524.154 882.024C610.934 922.115 707.488 917.12 781.73 908.235C820.122 903.746 858.783 896.998 896.31 890.642L911.597 887.989C947.385 881.895 994.366 874.597 1042.66 871.998C1148.87 866.104 1230.9 884.975 1293.33 929.797C1317.98 947.447 1339.75 969.75 1360.85 991.277C1366.24 996.63 1371.58 1002.18 1376.96 1007.54C1393.95 1024.62 1416.9 1046.33 1442.97 1064.27C1458.38 1074.91 1475.83 1083.88 1493.19 1090.3C1546.02 1109.92 1595.18 1106.25 1631.61 1080.29L1630.46 1078.78C1582.1 1113.37 1523.99 1099.78 1493.77 1088.52C1476.41 1082.11 1459.16 1073.18 1443.91 1062.79C1418.05 1044.88 1395.3 1023.22 1378.27 1006.34C1372.88 1000.99 1367.54 995.433 1362.16 990.08C1341.06 968.553 1319.29 946.25 1294.48 928.356C1231.65 883.449 1149.22 864.492 1042.6 870.301C994.306 872.899 947.08 880.357 911.292 886.451L896.005 889.103C858.479 895.46 819.817 902.208 781.425 906.697C707.183 915.582 611.075 920.461 524.697 880.455C472.639 856.15 428.185 816.826 384.926 778.807C375.899 770.787 366.672 762.725 357.444 754.662C339.148 738.781 317.124 720.636 292.765 705.574C258.549 684.421 221.111 669.533 178.323 660.037C103.817 643.392 19.3166 646.101 -62.2374 648.804C-71.9666 649.056 -81.4943 649.351 -91.2235 649.604C-100.105 649.825 -109.187 650.004 -118.069 650.226L-118.411 651.837L-118.209 651.88Z" fill="url(#paint2_linear)"/>
<path d="M-113.466 629.517C-104.383 629.338 -95.1417 629.404 -85.858 629.268L-72.9815 629.051C14.2086 627.544 104.546 626.073 181.876 646.264C222.913 657.073 259.088 672.957 292.242 695.147C313.064 709.038 332.526 725.376 355.372 745.591C360.325 750.01 365.277 754.429 370.229 758.848C417.879 800.956 466.883 844.614 524.778 870.157C611.742 908.392 709.241 901.913 784.544 891.99C820.68 887.233 857.444 880.504 893.074 874.166C900.516 872.797 907.958 871.428 915.601 870.101C968.744 860.53 1009.61 855.302 1047.93 853.115C1154.75 847.349 1237.25 866.953 1299.94 913.514C1322.82 930.579 1342.95 951.691 1362.61 972.071C1369.35 978.975 1376.2 986.323 1383.14 993.269C1407.39 1017.78 1428.81 1035.8 1450.24 1049.82C1465.94 1060.09 1483.63 1068.9 1501.28 1074.96C1554.37 1093.38 1604.1 1088.98 1640.98 1062.9L1640.02 1061.44C1603.44 1087.15 1554.35 1091.48 1501.86 1073.19C1484.22 1067.13 1466.68 1058.57 1451.18 1048.33C1429.76 1034.32 1408.54 1016.34 1384.29 991.828C1377.35 984.882 1370.45 977.735 1363.76 970.63C1344.1 950.25 1323.97 929.138 1300.93 911.829C1237.88 864.981 1155.01 845.09 1047.71 851.174C1009.19 853.318 968.366 858.345 915.223 867.916C907.781 869.285 900.34 870.654 892.696 871.98C857.268 878.361 820.546 884.888 784.368 889.847C709.266 899.813 612.169 906.377 525.608 868.227C467.872 842.928 418.868 799.27 371.419 757.205C366.467 752.786 361.514 748.368 356.562 743.949C333.716 723.734 314.053 707.353 293.231 693.462C259.875 671.229 223.541 655.101 182.26 644.451C175.862 642.883 169.665 641.358 163.224 639.992C90.1572 624.494 7.20638 625.848 -72.9994 627.153L-85.876 627.369C-94.9586 627.548 -104.041 627.727 -113.081 627.704L-113.466 629.517Z" fill="url(#paint3_linear)"/>
<path d="M-108.722 607.154C-99.2374 607.061 -89.9962 607.126 -80.9564 607.149C10.6192 606.782 105.342 606.452 185.611 630.635C225.343 642.641 260.413 659.764 292.708 683.035C314.439 698.592 334.925 717.043 354.691 734.92C406.964 782.008 460.951 830.934 526.134 857.813C613.123 893.948 707.402 886.786 787.975 874.822C822.055 869.84 856.88 863.331 890.411 856.969C900.281 855.062 909.907 853.314 919.777 851.408C972.315 841.709 1014.72 836.175 1053.24 834.031C1159.45 828.136 1244.76 849.388 1306.79 897.073C1328.31 913.637 1347.16 933.846 1365.29 953.482C1373.18 961.893 1381.23 970.548 1389.37 978.8C1412.9 1002.74 1435.28 1021.17 1457.71 1035.4C1474.06 1045.61 1491.44 1053.92 1509.77 1059.71C1563.12 1076.92 1613.23 1071.76 1650.99 1045.45L1650.04 1043.98C1612.76 1069.97 1563.15 1074.82 1510.56 1057.98C1492.63 1052.28 1474.85 1043.88 1458.86 1033.96C1436.59 1019.97 1414.2 1001.54 1390.88 977.646C1382.74 969.394 1374.49 960.696 1366.8 952.328C1348.47 932.649 1329.61 912.44 1308.1 895.876C1245.91 847.947 1160.2 826.61 1053.38 832.376C1014.86 834.521 972.255 840.012 919.716 849.711C910.09 851.459 900.22 853.365 890.351 855.272C856.819 861.634 822.196 868.185 787.915 873.125C707.384 884.887 613.507 892.135 526.921 856.085C462.14 829.292 408.111 780.568 356.039 733.522C336.273 715.645 315.787 697.194 294.099 681.436C261.603 658.122 226.374 640.754 186.642 628.748C106.215 604.321 11.2905 604.609 -80.5291 605.134C-89.8129 605.27 -98.8525 605.248 -107.892 605.225L-108.32 607.24L-108.722 607.154Z" fill="url(#paint4_linear)"/>
<path d="M-103.979 584.791C-94.5367 584.899 -85.2956 584.964 -76.0545 585.029C20.3092 585.889 113.098 588.727 189.304 615.207C227.285 628.526 261.05 646.846 292.887 671.283C311.123 685.467 328.37 701.336 346.654 718.267L353.522 724.566C402.184 769.836 459.91 819.975 526.716 846.146C614.174 880.065 709.198 871.376 790.589 858.533C822.815 853.368 855.541 846.836 887.133 840.694C899.186 838.408 911.282 835.921 923.135 833.593C975.759 823.491 1018.6 817.841 1057.78 815.623C1164.84 809.698 1250.58 831.884 1312.63 881.467C1332.73 897.732 1350.46 917.282 1367.72 936.1C1376.4 945.732 1385.44 955.65 1394.78 965.209C1418.15 988.903 1440.93 1007.42 1464.41 1021.66C1480.8 1031.67 1499.07 1039.75 1517.29 1045.09C1570.69 1061.05 1621.33 1055.37 1659.78 1028.79L1658.83 1027.32C1620.87 1053.59 1570.88 1059.19 1517.87 1043.32C1499.65 1037.98 1481.59 1029.94 1465.36 1020.18C1441.88 1005.94 1419.25 987.663 1396.08 964.012C1386.75 954.454 1377.71 944.535 1369.02 934.903C1351.81 915.884 1334.08 896.334 1313.77 880.026C1251.56 830.198 1165.42 807.927 1057.72 813.926C1018.34 816.101 975.698 821.793 922.873 831.853C910.819 834.138 898.967 836.467 886.871 838.954C855.279 845.096 822.553 851.628 790.327 856.794C709.137 869.679 614.516 878.453 527.302 844.375C460.654 818.449 403.331 768.395 354.626 723.326L347.759 717.028C329.474 700.097 312.27 684.026 294.034 669.842C262.24 645.203 228.072 626.798 189.89 613.436C113.483 586.914 20.5355 583.831 -76.0722 583.131C-85.3133 583.066 -94.3533 583.043 -103.594 582.978L-103.979 584.791Z" fill="url(#paint5_linear)"/>
<path d="M-99.2361 562.427C-91.4895 562.597 -83.7429 562.766 -75.9962 562.936L-71.1956 563.112C15.9146 564.956 115.303 569.404 192.753 599.937C229.428 614.453 261.369 633.439 292.821 659.69C308.209 672.427 322.693 686.447 338.257 701.328C342.807 705.661 347.515 710.239 352.266 714.615C396.928 756.931 457.416 808.92 527.297 834.479C615.341 866.627 711.109 856.413 793.403 842.288C823.732 837.141 854.36 830.584 884.256 824.504C898.335 821.595 912.859 818.57 926.895 815.863C979.604 805.358 1022.94 799.391 1062.71 797.301C1171.02 791.43 1257.2 814.55 1318.91 865.745C1338.05 881.596 1354.81 900.731 1371.15 918.932C1380.62 929.785 1390.5 940.723 1400.87 951.343C1423.56 974.262 1447.52 993.237 1471.69 1007.21C1488.36 1016.85 1506.92 1024.57 1525.38 1029.75C1579 1044.7 1630.25 1038.1 1669.35 1011.45L1668.4 1009.98C1629.79 1036.32 1579.18 1042.85 1525.96 1027.98C1507.46 1023 1489.15 1015.12 1472.63 1005.72C1448.46 991.754 1424.91 972.864 1402.26 949.743C1391.89 939.123 1382.26 928.026 1372.74 917.375C1356.45 898.972 1339.68 879.837 1320.34 863.944C1258.31 812.261 1171.69 789.257 1062.98 795.042C1023.21 797.132 979.873 803.099 926.962 813.561C912.682 816.428 898.402 819.294 884.324 822.202C854.629 828.326 823.842 834.638 793.471 839.986C711.579 854.197 616.055 864.252 528.371 832.391C458.649 807.076 398.563 755.172 353.859 713.058C349.15 708.48 344.399 704.104 339.85 699.771C324.487 684.933 309.801 670.87 294.414 658.132C262.76 631.839 230.618 612.811 193.741 598.252C115.932 567.432 16.299 563.143 -71.0124 561.256L-75.8129 561.08C-83.3583 560.953 -91.1049 560.784 -98.8515 560.614L-99.2361 562.427Z" fill="url(#paint6_linear)"/>
<path d="M-94.4929 540.065C-89.4911 540.284 -84.6477 540.259 -79.6459 540.477L-66.0498 540.835C26.2938 543.789 122.138 551.065 196.69 584.352C231.657 599.979 262.335 619.96 293.488 647.621C306.229 658.955 318.554 671.254 331.398 684.084C337.82 690.498 344.602 697.2 351.585 703.945C414.591 764.889 470.77 802.489 528.653 822.135C617.125 852.269 713.838 840.571 796.792 825.322C825.266 819.993 854.113 813.901 881.91 807.796C898.014 804.264 914.765 800.659 931.027 797.371C984.024 786.506 1027.6 780.38 1067.82 778.174C1142.94 774.105 1248.49 783.229 1325.36 849.219C1343.49 864.856 1359.54 883.417 1374.86 901.405C1384.98 913.234 1395.45 925.35 1406.65 936.99C1429.26 960.312 1453.45 979.129 1478.67 993.11C1495.59 1002.59 1514.43 1009.96 1533.38 1014.82C1587.26 1028.56 1638.84 1021.4 1678.63 994.467L1677.68 993.002C1638.18 1019.57 1587.2 1026.87 1533.93 1013.25C1515.18 1008.43 1496.54 1001.11 1479.58 991.827C1454.56 977.889 1430.36 959.073 1407.91 935.995C1396.67 924.557 1386.2 912.441 1376.08 900.611C1360.56 882.581 1344.51 864.019 1326.22 848.138C1249.03 781.66 1142.83 772.61 1067.32 776.593C1026.89 778.756 983.317 784.882 930.076 795.906C913.814 799.194 897.063 802.799 880.959 806.331C852.96 812.393 824.114 818.485 795.84 823.857C713.089 839.149 616.778 850.932 528.507 820.841C471.026 801.281 415.006 763.924 352.201 703.023C345.419 696.321 338.638 689.619 332.014 683.162C318.969 670.289 306.845 658.033 293.903 646.656C262.793 618.794 231.712 598.727 196.745 583.1C121.992 549.77 25.9465 542.452 -66.5984 539.455L-80.1949 539.098C-84.9953 538.922 -89.7957 538.746 -94.6389 538.771L-94.8953 539.98L-94.4929 540.065Z" fill="url(#paint7_linear)"/>
<path d="M-89.7065 517.5C-87.6082 517.524 -85.3085 517.591 -83.2529 517.816C-75.9515 518.102 -68.449 518.43 -61.1477 518.715C25.9806 522.458 125.234 531.51 200.426 568.722C233.526 585.216 263.1 606.437 293.71 635.667C304.206 645.683 314.373 656.26 325.057 667.369C333.352 675.865 341.762 684.807 350.459 693.389C409.378 751.782 469.613 791.085 529.32 810.065C618.018 838.142 711.67 826.004 799.533 808.429C826.111 803.118 853.061 797.045 879.12 791.203C897.45 787.091 916.226 782.862 934.715 778.994C987.998 767.769 1031.86 761.283 1072.69 759.205C1148.45 755.062 1254.76 764.558 1331.52 833.051C1348.85 848.517 1364.13 866.707 1378.9 884.365C1389.64 897.171 1400.51 910.422 1412.43 922.636C1435.04 945.958 1459.63 964.859 1485.7 978.81C1502.91 987.933 1522.19 995.182 1541.23 999.641C1595.12 1012.33 1647.32 1004.25 1687.99 977.084L1687.04 975.619C1646.85 1002.46 1595.3 1010.48 1541.82 997.87C1522.78 993.411 1503.85 986.449 1486.65 977.326C1460.78 963.419 1436.14 944.718 1413.89 921.683C1401.97 909.47 1390.91 896.176 1380.36 883.412C1365.6 865.754 1350.36 847.363 1332.82 831.854C1255.7 763.075 1148.79 753.451 1072.63 757.508C1031.56 759.744 987.535 765.986 934.209 777.413C915.72 781.281 896.944 785.51 878.614 789.622C852.555 795.464 825.404 801.495 799.027 806.848C711.408 824.264 617.957 836.444 529.662 808.453C470.357 789.559 410.282 750.5 351.563 692.149C342.708 683.324 334.255 674.583 326.162 666.13C315.477 655.021 305.31 644.443 294.814 634.427C264.046 604.953 234.271 583.69 201.17 567.195C125.82 529.739 26.3225 520.846 -61.007 517.061C-68.3084 516.775 -75.8111 516.447 -83.1125 516.162C-85.2108 516.138 -87.2663 515.912 -89.1634 515.931L-89.5053 517.543L-89.7065 517.5Z" fill="url(#paint8_linear)"/>
<path d="M-84.9635 495.137C-75.4053 495.691 -65.8043 496.043 -56.2461 496.596C25.2642 501.042 128.617 511.595 203.917 553.251C235.554 570.699 263.145 592.341 293.73 623.671C302.183 632.411 310.392 641.31 319.076 650.942C328.639 661.392 338.519 672.33 349.289 683.035C405.519 740.226 467.968 779.999 529.944 798.197C619.228 824.503 713.667 810.638 802.391 791.982C827.071 786.69 852.283 780.879 876.646 775.099C897.002 770.364 917.802 765.512 938.359 760.819C991.771 748.99 1036.04 742.589 1077.55 740.236C1153.92 736.222 1261.19 746.133 1337.73 816.683C1354.45 832.021 1368.93 850.04 1383.14 867.368C1394.31 881.108 1405.65 895.092 1418.41 908.325C1440.82 931.604 1465.86 950.39 1492.98 964.352C1510.43 973.317 1529.6 980.12 1548.92 984.218C1549.12 984.261 1549.32 984.304 1549.72 984.389C1603.67 995.831 1656.24 986.98 1697.56 959.744L1696.61 958.279C1655.73 985.399 1603.65 993.932 1550.11 982.576L1549.91 982.533C1530.58 978.435 1511.41 971.632 1493.92 962.869C1467.16 949.193 1442.32 930.45 1419.92 907.171C1407.32 894.182 1395.82 879.954 1384.84 866.257C1370.68 848.727 1356.16 830.91 1339.27 815.327C1262.22 744.246 1154.55 734.25 1077.74 738.38C1036.02 740.69 991.753 747.091 938.14 758.878C917.626 763.369 896.581 768.38 876.427 773.158C852.063 778.938 826.852 784.749 802.172 790.041C713.649 808.74 619.454 822.446 530.774 796.268C469.2 778.155 406.953 738.425 350.839 681.68C340.27 671.017 330.39 660.079 320.827 649.629C312.143 639.998 303.934 631.098 295.28 622.315C264.536 590.741 236.743 569.056 204.948 551.365C129.245 509.623 25.6915 499.028 -56.02 494.539C-65.5782 493.985 -74.978 493.676 -84.5362 493.122L-84.9635 495.137Z" fill="url(#paint9_linear)"/>
<path d="M-80.2204 472.774C-70.6623 473.328 -60.9029 473.924 -51.1433 474.52C67.8981 482.506 150.272 502.714 207.854 537.665C237.465 555.736 264.154 578.66 294.354 611.803C301.008 619.109 307.576 626.818 314.504 634.814C325.335 647.217 336.282 660.066 348.522 672.767C403.184 729.415 466.164 768.669 531.013 786.213C620.724 810.505 715.865 795.315 805.492 775.376C828.477 770.146 851.992 764.396 874.617 758.879C896.797 753.478 919.867 747.845 942.608 742.773C996.306 730.583 1040.86 723.822 1082.98 721.597C1191.93 715.653 1284.83 743.778 1344.49 800.644C1360.62 815.854 1374.49 833.745 1388.09 850.946C1399.5 865.577 1411.47 880.537 1424.71 894.502C1447.07 917.983 1472.56 936.653 1500.36 950.34C1518.26 959.189 1538.12 965.717 1557.73 969.455C1611.89 979.89 1664.83 970.276 1707.04 942.808L1706.09 941.343C1664.12 968.652 1611.67 977.948 1557.91 967.599C1538.3 963.861 1518.64 957.376 1501.11 948.814C1473.5 935.169 1448.22 916.542 1425.81 893.263C1412.53 879.499 1400.81 864.38 1389.35 849.95C1375.75 832.75 1361.68 814.816 1345.6 799.405C1285.57 742.251 1192.12 713.797 1082.72 719.857C1040.6 722.082 995.843 728.8 941.943 740.948C919.404 746.062 896.333 751.695 873.953 757.054C851.328 762.571 827.812 768.321 804.827 773.551C715.402 793.532 620.463 808.765 531.197 784.358C466.75 766.899 403.77 727.645 349.468 671.284C337.227 658.582 326.28 645.734 315.449 633.331C308.522 625.335 301.911 617.827 295.3 610.319C264.941 576.932 238.252 554.008 208.44 535.895C150.498 500.657 67.9229 480.406 -51.3198 472.378C-60.878 471.824 -70.4362 471.27 -79.9944 470.717L-80.4218 472.732L-80.2204 472.774Z" fill="url(#paint10_linear)"/>
<path d="M-75.4769 450.412C-65.7173 451.008 -56.0005 451.806 -46.2409 452.402C70.8483 461.657 155.21 484.393 211.547 522.238C239.536 541.017 264.284 564.161 294.533 600.052C299.747 606.21 304.76 612.326 310.133 618.729C321.83 633 333.844 647.759 347.597 662.255C399.972 717.787 465.568 757.595 532.083 774.23C622.179 796.708 718.265 780.034 808.594 758.771C829.84 753.803 851.66 748.115 872.546 742.861C896.794 736.635 921.889 730.379 946.454 724.641C1000.44 712.091 1045.44 705.214 1088 702.873C1198.01 696.941 1291.33 725.999 1351.02 784.765C1366.49 800.048 1380.01 817.652 1393 834.724C1404.69 850.045 1416.85 866.099 1430.8 880.637C1453.17 904.118 1479.06 922.873 1507.75 936.329C1525.94 944.817 1546.04 951.186 1565.94 954.564C1620.11 963.948 1673.62 953.614 1716.77 925.712L1715.82 924.247C1673.16 951.832 1620.09 962.05 1566.32 952.751C1546.63 949.416 1526.48 943.248 1508.5 934.802C1480 921.39 1454.27 902.879 1432.11 879.441C1418.36 864.944 1406.15 849.093 1394.47 833.772C1381.47 816.699 1367.96 799.095 1352.28 783.769C1292.44 724.76 1198.51 695.573 1087.9 701.377C1045.13 703.675 1000.13 710.552 946.149 723.103C921.584 728.84 896.489 735.097 872.241 741.322C851.355 746.577 829.535 752.265 808.289 757.233C718.161 778.538 622.32 795.053 532.584 772.862C466.471 756.313 401.235 716.791 349.061 661.303C335.51 646.849 323.294 632.047 311.597 617.777C306.267 611.172 301.254 605.056 296.04 598.898C265.791 563.007 240.884 539.618 212.694 520.797C156.156 482.909 71.6355 459.93 -45.8563 450.589C-55.3718 449.834 -65.1315 449.237 -74.8484 448.44L-75.2757 450.454L-75.4769 450.412Z" fill="url(#paint11_linear)"/>
<path d="M-70.7339 428.048C-61.0172 428.846 -51.0563 429.485 -41.3823 430.484C75.6519 440.991 159.501 466.144 215.197 507.011C247.766 530.972 272.684 560.258 294.712 588.299C298.53 593.109 302.304 598.12 306.122 602.93C318.483 619.026 331.363 635.653 346.384 652.103C397.509 707.579 463.636 746.869 532.664 762.563C618.113 782.16 705.768 768.541 811.25 742.281C830.8 737.374 850.839 732.151 870.231 727C896.302 720.109 923.466 713.028 950.055 706.667C1004.33 693.756 1049.61 686.519 1092.78 684.306C1203.83 678.386 1297.59 708.379 1357.14 768.799C1372.01 783.954 1385.12 801.472 1397.51 818.417C1409.43 834.629 1421.87 851.372 1436.34 866.442C1458.86 890.167 1485.2 908.806 1514.54 922.188C1532.97 930.517 1553.36 936.526 1573.74 939.587C1627.92 947.921 1682.01 936.866 1725.85 908.69L1724.9 907.225C1681.3 935.243 1627.7 945.98 1573.88 937.932C1553.9 934.957 1533.51 928.948 1515.24 920.863C1486.06 907.725 1459.92 889.129 1437.56 865.648C1423.29 850.621 1410.85 833.878 1398.94 817.666C1386.34 800.678 1373.43 783.203 1358.4 767.803C1298.5 707.097 1204.18 676.775 1092.68 682.811C1049.51 685.023 1004.02 692.218 949.708 705.33C923.118 711.691 895.955 718.772 869.883 725.663C850.491 730.814 830.453 736.037 810.902 740.944C705.665 767.045 618.253 780.506 533.165 761.195C464.539 745.587 398.571 706.541 347.806 651.352C332.742 635.103 320.063 618.519 307.702 602.423C303.927 597.412 300.109 592.602 296.335 587.591C274.148 559.305 249.23 530.019 216.503 505.814C160.648 464.703 76.5549 439.709 -40.8818 429.116C-50.5987 428.319 -60.3155 427.521 -70.0323 426.723L-70.3314 428.133L-70.7339 428.048Z" fill="url(#paint12_linear)"/>
<path d="M-65.9478 405.484C-56.0298 406.324 -46.1118 407.165 -36.4377 408.164C79.0468 420.026 164.841 447.908 218.774 491.138C247.159 514.001 269.083 540.546 294.976 576.145C297.599 579.648 300.178 583.353 302.801 586.857C315.827 604.778 329.127 623.389 345.3 641.346C394.181 695.505 461.04 734.318 533.374 750.292C534.179 750.463 534.984 750.634 535.79 750.804C627.777 770.315 723.595 748.953 813.991 725.388C832.005 720.787 850.347 715.625 868.001 710.738C896.14 703.021 924.969 695.03 953.584 688.047C1008.19 674.574 1053.87 667.422 1097.49 665.094C1162.38 661.595 1283.13 668.468 1363.18 752.186C1377.61 767.458 1390.12 784.848 1402.35 801.548C1414.54 818.45 1427.21 836.085 1441.96 851.844C1464.44 875.771 1491.22 894.294 1521.25 907.401C1539.96 915.37 1560.8 921.263 1581.27 923.92C1635.47 931.205 1689.93 919.387 1734.86 891.021L1733.9 889.556C1689.42 917.806 1635.2 929.465 1581.61 922.309C1561.34 919.694 1540.67 914.045 1522.15 906.118C1492.28 893.256 1465.74 874.574 1443.38 851.093C1428.59 835.535 1415.92 817.901 1403.93 801.041C1391.74 784.14 1379.24 766.749 1364.61 751.435C1284.08 666.985 1162.68 660.184 1097.59 663.641C1053.97 665.969 1008.04 673.28 953.438 686.753C924.823 693.736 895.793 701.685 867.855 709.443C850.201 714.331 831.7 719.249 813.845 724.094C723.65 747.701 628.076 768.905 536.491 749.479C535.686 749.309 534.881 749.138 534.076 748.967C461.943 733.036 395.444 694.51 346.923 640.638C330.75 622.681 317.449 604.07 304.38 586.35C301.801 582.645 299.178 579.141 296.599 575.436C270.504 539.795 248.824 513.091 220.037 490.143C165.946 446.669 79.7912 418.5 -36.1386 406.754C-45.8127 405.754 -55.7306 404.914 -65.4474 404.116L-65.7465 405.526L-65.9478 405.484Z" fill="url(#paint13_linear)"/>
<path d="M-61.2046 383.12C-51.2866 383.961 -41.2101 385.046 -31.3348 386.087C84.2961 399.244 169.822 429.385 222.668 475.753C251.589 501.045 272.628 530.772 295.356 564.435L299.997 571.315C313.285 590.976 327.049 611.369 344.491 631.28C392.639 685.914 461.956 725.038 534.602 738.552C630.322 756.328 730.85 732.596 817.453 709.069C833.77 704.53 850.533 699.874 866.649 695.293C896.613 686.911 927.509 678.095 957.948 670.445C1012.15 656.888 1059.46 649.027 1103.03 646.9C1214.48 641.065 1311.89 673.725 1370.02 736.795C1384.05 751.981 1396.16 769.285 1407.94 786.102C1420.37 803.895 1433.11 822.176 1448.37 838.467C1470.69 862.149 1498.6 881.331 1528.96 893.877C1548.12 901.73 1569.08 907.018 1589.79 909.517C1643.8 915.709 1698.79 903.372 1744.7 874.37L1743.75 872.906C1698.13 901.547 1643.54 913.969 1589.98 907.661C1569.42 905.407 1548.46 900.118 1529.5 892.308C1499.34 879.805 1471.59 860.867 1449.48 837.228C1434.21 820.937 1421.47 802.655 1409.21 785.106C1397.42 768.29 1385.36 750.784 1371.13 735.555C1312.43 672.156 1214.67 639.21 1102.77 645.16C1059.15 647.489 1011.64 655.307 957.442 668.864C927.003 676.514 896.107 685.329 866.143 693.711C850.027 698.293 833.221 703.15 816.947 707.488C730.546 731.058 630.219 754.832 534.944 736.94C462.701 723.512 393.987 684.516 345.998 630.125C328.714 610.459 314.95 590.066 301.662 570.405L297.022 563.525C274.294 529.862 253.053 500.093 223.974 474.556C170.767 427.901 85.0405 397.718 -30.9929 384.476C-40.8682 383.434 -50.7435 382.392 -60.6616 381.551L-61.0034 383.163L-61.2046 383.12Z" fill="url(#paint14_linear)"/>
<path d="M-56.4613 360.757C-46.3848 361.842 -36.5095 362.884 -26.4756 364.17C87.8923 378.322 175.278 411.594 226.361 460.325C254.696 487.388 274.704 519.001 295.578 552.482L297.639 555.656C311.146 577.258 325.172 599.392 343.566 620.767C390.823 675.634 460.714 714.038 535.47 726.525C631.575 742.488 728.999 718.519 820.353 692.42C835.133 688.187 850.359 683.837 864.981 679.359C896.609 670.067 929.373 660.384 961.837 652.112C1016.32 638.194 1064.08 630.217 1108.14 627.772C1220.64 621.95 1318.48 655.543 1376.47 720.267C1390.06 735.569 1401.96 752.831 1413.35 769.562C1425.84 788.003 1438.85 806.974 1454.59 823.997C1476.87 847.881 1505.22 866.947 1536.47 879.26C1555.88 886.954 1577.33 891.925 1598.33 894.064C1652.95 899.333 1706.98 886.582 1754.71 856.914L1753.76 855.449C1706.52 884.799 1652.89 897.636 1598.67 892.452C1577.83 890.558 1556.62 885.428 1537.38 877.978C1506.33 865.707 1478.38 846.727 1456.26 823.087C1440.68 806.308 1427.66 787.337 1415.17 768.897C1403.78 752.166 1391.92 734.702 1378.14 719.357C1340.38 677.241 1285.75 648.181 1221.34 634.519C1186.32 627.091 1148.21 624.272 1108.24 626.319C1064.22 628.563 1016.26 636.496 961.734 650.616C929.471 658.931 896.506 668.571 864.877 677.863C850.298 682.14 835.03 686.691 820.249 690.925C728.938 716.822 631.874 741.078 536.215 724.999C461.861 712.597 392.373 674.278 345.432 619.9C327.24 598.567 313.214 576.434 299.664 555.033L297.603 551.859C276.528 518.335 256.563 486.521 228.069 459.213C187.324 420.254 123.257 391.086 40.9312 373.625C19.7962 369.142 -2.35756 365.496 -25.7313 362.643C-35.5639 361.4 -45.6404 360.315 -55.5157 359.274L-55.8576 360.885L-56.4613 360.757Z" fill="url(#paint15_linear)"/>
<path d="M-51.7176 338.395C-41.6409 339.479 -31.6071 340.765 -21.5733 342.051C58.3682 352.902 167.141 379.552 229.853 444.855C255.529 471.564 273.725 502.793 292.989 535.932L295.757 540.73C309.167 563.786 323.052 587.573 342.354 610.615C388.764 665.513 459.344 703.642 536.052 714.859C632.542 729.009 730.709 703.513 823.009 675.931C836.252 672.003 849.538 667.873 863.026 663.786C896.521 653.627 931.151 643.077 965.238 634.096C1020.05 619.616 1068.25 611.524 1112.51 609.121C1226.11 603.109 1324.34 637.838 1382.15 704.418C1395.53 719.678 1406.79 737.013 1417.93 753.903C1430.5 772.99 1443.54 792.81 1459.84 810.163C1482.28 834.291 1511.07 853.241 1543.02 865.279C1562.71 872.613 1584.4 877.425 1605.73 879.002C1660.32 883.423 1714.77 869.707 1763.39 839.807L1762.43 838.342C1714.26 868.126 1660.06 881.683 1605.87 877.348C1584.74 875.813 1563.25 871.044 1543.76 863.753C1512.02 851.757 1483.63 832.893 1461.35 809.009C1445.25 791.699 1432.16 772.08 1419.8 753.036C1408.86 736.189 1397.4 718.81 1383.82 703.508C1325.64 636.641 1226.81 601.784 1112.61 607.668C1068.15 610.028 1019.75 618.078 964.933 632.558C930.645 641.496 896.015 652.046 862.477 662.407C849.191 666.536 835.704 670.623 822.46 674.551C730.203 701.932 632.237 727.47 536.15 713.406C459.844 702.274 389.624 664.432 343.574 609.821C324.431 587.024 310.545 563.236 297.136 540.181L294.367 535.383C275.104 502.243 256.95 470.813 231.073 444.061C167.8 378.428 58.8686 351.534 -21.5182 340.8C-31.5521 339.514 -41.5859 338.228 -51.4612 337.186L-51.7176 338.395Z" fill="url(#paint16_linear)"/>
<path d="M-46.932 315.83C-36.6968 317.159 -26.6201 318.243 -16.629 319.731C63.7455 331.515 172.335 360.021 233.631 429.024C257.05 455.465 273.118 485.822 290.296 517.887C292.07 521.421 294.046 524.998 296.021 528.575C309.924 554.262 322.687 577.39 341.27 599.859C386.99 655.031 458.144 692.439 537.006 702.429C633.88 714.766 732.993 687.786 826.196 658.922C837.902 655.299 849.852 651.518 861.802 647.737C896.963 636.668 933.46 625.25 969.413 615.402C1024.51 600.562 1073 592.109 1117.87 589.835C1232.51 583.835 1331.37 619.54 1389.05 687.775C1401.98 703.15 1413.04 720.443 1423.78 737.248C1436.42 756.982 1449.49 777.65 1466.11 795.492C1488.55 819.619 1517.7 838.856 1550.33 850.62C1570.27 857.795 1592.25 862.247 1613.87 863.463C1668.27 866.792 1723.24 852.556 1772.84 822.022L1771.89 820.557C1722.58 850.731 1667.8 865.009 1613.85 861.565C1592.43 860.391 1570.65 855.982 1550.72 848.806C1518.29 837.086 1489.45 818.337 1467.21 794.252C1450.8 776.454 1437.68 755.987 1425.04 736.252C1414.3 719.448 1403.24 702.155 1390.15 686.535C1332.12 618.014 1232.7 581.979 1117.61 588.095C1072.54 590.326 1023.85 598.737 968.706 613.778C932.594 623.382 896.256 635.044 860.894 646.07C848.944 649.852 837.237 653.474 825.287 657.256C732.328 685.961 633.416 712.983 536.945 700.732C458.687 690.87 387.735 653.505 342.532 598.863C324.152 576.438 311.145 553.468 297.443 527.824C295.467 524.247 293.692 520.713 291.717 517.136C274.582 484.869 258.313 454.47 234.693 427.986C173.079 358.495 64.0874 329.903 -16.6896 318.034C-26.6807 316.546 -36.9161 315.217 -46.9926 314.133L-47.3344 315.745L-46.932 315.83Z" fill="url(#paint17_linear)"/>
<path d="M-42.1885 293.467C-31.9534 294.796 -21.7184 296.124 -11.5686 297.856C102.634 315.763 191.055 357.044 237.483 413.84C259.047 440.099 273.346 469.87 288.755 501.349C291.237 506.507 293.719 511.665 296.402 516.866C308.146 540.831 321.286 566.146 340.503 589.59C385.534 645.038 457.42 681.97 538.032 690.647C635.291 701.17 731.3 673.953 829.255 642.518C839.625 639.243 850.038 635.767 860.408 632.493C897.234 620.514 935.439 607.985 973.375 597.715C1028.76 582.515 1077.7 573.946 1123.01 571.556C1237.01 565.629 1338.83 603.227 1395.53 672.096C1408.22 687.63 1419.07 704.881 1429.41 721.6C1442.08 742.183 1455.27 763.297 1472.21 781.626C1494.8 805.998 1524.4 825.119 1557.72 836.607C1577.9 843.624 1600.37 847.758 1622.27 848.615C1676.44 851.052 1731.79 836.053 1782.72 805.17L1781.77 803.705C1731.28 834.472 1676.18 849.312 1622.41 846.96C1600.71 846.147 1578.69 841.896 1558.47 835.081C1525.35 823.635 1496.11 804.801 1473.67 780.673C1456.73 762.344 1443.75 741.273 1431.03 720.891C1420.49 704.129 1409.88 686.721 1396.99 671.144C1366.91 634.447 1325.83 606.996 1274.62 589.608C1228.92 574.019 1176.33 567.076 1122.95 569.859C1077.43 572.206 1028.3 580.732 972.869 596.134C934.89 606.606 896.728 618.933 859.902 630.912C849.489 634.388 839.119 637.662 828.749 640.937C731.038 672.213 635.029 699.43 538.173 688.992C457.963 680.401 386.437 643.756 341.967 588.638C322.952 565.236 310.012 539.964 298.225 516.2C295.542 511 293.061 505.841 290.579 500.683C275.17 469.204 260.67 439.391 238.947 412.888C179.194 339.581 69.9832 309.048 -11.2268 296.244C-21.4193 294.714 -31.4102 293.227 -41.6454 291.898L-41.9873 293.51L-42.1885 293.467Z" fill="url(#paint18_linear)"/>
<path d="M-37.4452 271.104C-27.2101 272.432 -16.8164 274.005 -6.66662 275.737C108.085 295.023 196.036 338.521 241.018 398.168C260.886 424.489 273.819 453.759 287.617 484.897C290.648 491.434 293.434 498.131 296.623 504.913C307.086 527.975 319.928 554.699 339.333 579.237C383.633 635.16 456.293 671.415 538.657 678.779C636.099 687.446 733.053 658.746 831.911 626.028C840.744 623.059 849.778 620.133 858.855 617.005C897.347 604.116 937.217 590.678 976.818 579.498C1032.49 563.937 1081.91 555.051 1127.63 552.746C1242.68 546.831 1345.13 585.405 1401.45 656.088C1413.94 671.58 1424.34 688.946 1434.44 705.824C1447.18 727.054 1460.4 749.016 1477.66 767.834C1500.41 792.45 1530.45 811.455 1564.46 822.669C1585.13 829.367 1607.64 833.301 1629.83 833.797C1683.57 835.3 1739.49 819.58 1791.56 788.307L1790.61 786.842C1738.78 817.957 1683.31 833.56 1629.77 832.099C1607.78 831.646 1585.27 827.713 1565.01 821.099C1531.2 809.928 1501.51 791.211 1479.12 766.881C1461.82 748.265 1448.8 726.345 1436.02 705.317C1425.92 688.439 1415.31 671.03 1402.87 655.337C1364.65 607.44 1305.63 574.29 1235.79 559.476C1201.77 552.261 1165.36 549.381 1127.48 551.452C1081.52 553.915 1032.15 562.6 976.227 578.319C936.625 589.499 896.755 602.938 858.062 615.785C849.028 618.711 840.152 621.881 831.118 624.807C732.461 657.567 635.708 686.31 538.51 677.484C456.549 670.206 384.292 634.037 340.309 578.602C321.063 554.308 308.221 527.584 297.715 504.723C294.727 497.984 291.74 491.245 288.709 484.707C274.911 453.569 261.777 424.256 241.951 397.735C200.628 342.653 122.943 301.333 21.6965 279.858C12.2361 277.852 2.73289 276.047 -7.01422 274.4C-17.1639 272.669 -27.3564 271.138 -37.7928 269.767L-38.0492 270.976L-37.4452 271.104Z" fill="url(#paint19_linear)"/>
<path d="M-32.6595 248.539C-22.2659 250.112 -11.8722 251.685 -1.72242 253.416C65.1715 265.289 186.1 298.096 244.753 382.539C263.127 408.963 274.809 438.178 287.241 468.816C290.418 476.648 293.552 484.681 296.887 492.757C309.057 521.655 320.558 545.779 338.451 568.522C382.06 624.721 455.453 660.499 539.811 666.391C637.595 673.447 735.294 643.22 835.342 608.86C842.839 606.239 850.336 603.619 858.034 601.041C898.234 587.04 939.769 572.692 981.195 560.846C1037.2 544.724 1087.02 535.923 1133.18 533.502C1249.28 527.599 1352.17 567.107 1408.34 639.444C1420.39 655.052 1430.55 672.577 1440.44 689.412C1453.26 711.289 1466.35 733.856 1484.12 753.205C1507.04 778.066 1537.32 796.911 1572.02 807.85C1592.93 814.39 1615.93 818.006 1638.21 818.099C1691.72 818.711 1748.01 802.228 1801.45 770.405L1800.5 768.94C1747.5 800.647 1691.25 816.928 1638.39 816.243C1616.16 815.948 1593.32 812.577 1572.61 806.08C1538.31 795.226 1507.98 776.582 1485.47 751.807C1467.86 732.702 1454.77 710.135 1442.11 688.502C1432.22 671.667 1422.05 654.142 1409.85 638.29C1353.36 565.465 1249.91 525.627 1133.16 531.603C1086.8 533.981 1036.94 542.984 980.732 559.063C939.306 570.909 897.771 585.258 857.571 599.258C850.074 601.879 842.375 604.457 834.878 607.077C735.075 641.279 637.62 671.347 540.239 664.376C456.527 658.411 383.695 622.962 340.201 567.21C322.711 544.552 310.967 520.587 298.998 491.731C295.663 483.655 292.328 475.579 289.352 467.79C276.963 436.951 265.28 407.735 246.748 381.067C187.576 296.093 66.2454 263.201 -1.05116 251.243C-11.4021 249.468 -21.5518 247.737 -31.9883 246.365L-32.4583 248.581L-32.6595 248.539Z" fill="url(#paint20_linear)"/>
<path d="M-27.916 226.176C-17.5223 227.749 -6.9701 229.566 3.33816 231.542C70.6651 244.349 191.855 278.896 248.605 367.356C265.686 393.927 276.117 423.088 287.256 453.872C290.421 462.754 293.902 472.124 297.426 481.293C307.175 506.73 318.724 533.601 337.598 558.658C380.043 614.399 455.894 650.487 540.753 655.012C638.921 660.254 733.674 630.034 838.315 592.859C844.476 590.587 850.595 588.516 856.957 586.286C898.822 571.376 942.066 555.916 985.114 543.361C1041.41 526.879 1091.52 517.718 1138.32 515.223C1255.51 509.131 1358.99 549.817 1414.82 623.766C1426.62 639.533 1436.59 657.015 1446.23 674.009C1458.92 696.491 1472.29 719.747 1490.18 739.542C1513.05 764.604 1543.94 783.577 1579.37 794.04C1600.52 800.421 1623.81 803.677 1646.58 803.452C1700.25 803.258 1755.74 786.605 1811.09 753.713L1810.19 752.047C1755.12 784.578 1700.03 801.317 1646.56 801.554C1624.04 801.619 1600.95 798.407 1579.96 792.269C1544.97 781.691 1514.44 763.004 1491.53 738.144C1473.6 718.551 1460.43 695.337 1447.7 673.056C1438.05 656.062 1428.09 638.58 1416.13 622.57C1377.7 571.681 1317.22 536.536 1244.95 521.209C1211.34 514.079 1175.33 511.284 1137.9 513.239C1091.1 515.734 1040.78 524.852 984.291 541.292C941.243 553.846 897.999 569.307 856.134 584.217C849.973 586.489 843.854 588.56 837.693 590.832C733.095 627.806 638.745 658.112 540.778 652.912C456.565 648.314 381.074 612.512 338.947 557.259C320.231 532.447 308.64 505.777 299.092 480.383C295.568 471.214 292.288 461.887 289.123 453.005C277.984 422.22 267.552 393.06 250.313 366.244C193.246 277.296 71.4522 242.621 3.92395 229.772C-6.38431 227.796 -16.7352 226.022 -27.1289 224.449L-27.5135 226.262L-27.916 226.176Z" fill="url(#paint21_linear)"/>
<path d="M-23.1732 203.813C-12.6209 205.63 -2.27007 207.405 8.23951 209.423C76.042 222.962 197.653 259.494 252.34 351.727C268.286 378.689 277.669 407.837 287.558 438.567C290.709 448.499 294.178 458.919 297.69 469.138C306.549 494.807 317.566 522.198 336.514 547.901C378.428 604.161 455.054 639.572 541.462 642.741C639.972 646.372 735.469 614.625 841.057 575.966L855.648 570.64C898.977 554.777 943.728 538.163 988.6 524.942C1045.38 508.143 1095.78 498.621 1142.98 496.212C1261.42 490.175 1365.14 531.752 1420.78 607.557C1432.38 623.281 1442.1 640.922 1451.51 658.074C1464.27 681.203 1477.51 705.064 1495.71 725.347C1518.74 750.653 1550.08 769.511 1586.16 779.9C1607.8 785.964 1631.13 789.017 1654.18 788.433C1707.42 787.305 1763.28 769.888 1820.17 736.691L1819.27 735.024C1762.62 768.063 1707.16 785.565 1654.16 786.534C1631.35 786.96 1607.98 784.108 1586.74 778.129C1551.02 768.027 1520.09 749.255 1497.22 724.193C1478.97 704.112 1465.93 680.293 1453.13 657.366C1443.73 640.213 1434.01 622.572 1422.25 606.604C1393.53 567.46 1350.87 536.517 1299.2 517.346C1251.83 499.718 1197.76 491.83 1142.88 494.716C1095.67 497.125 1044.87 506.561 988.094 523.361C943.179 536.783 898.471 553.196 855.142 569.059L840.55 574.385C734.963 613.044 639.71 644.632 541.603 641.087C455.597 638.003 379.575 602.72 337.978 546.949C318.988 521.446 308.129 494.3 299.27 468.631C295.758 458.412 292.491 448.035 289.138 438.06C279.292 407.129 269.909 377.98 253.804 350.774C198.843 257.851 76.4266 221.149 8.62411 207.61C-1.68415 205.634 -12.1936 203.616 -22.7886 202L-23.1732 203.813Z" fill="url(#paint22_linear)"/>
<path d="M-18.3867 181.249C-7.83443 183.066 2.67515 185.084 13.1846 187.103L13.9897 187.274C129.527 211.78 217.714 266.064 255.875 336.055C270.686 363.407 278.977 392.746 287.774 423.665C290.913 434.647 293.968 446.032 297.51 457.099C305.289 481.908 315.965 510.91 335.186 537.303C376.57 594.082 453.97 628.815 541.928 630.629C640.823 632.446 733.13 600.865 843.554 559.232L854.297 555.195C899.133 538.177 945.549 520.653 992.086 506.523C1049.19 489.162 1100 479.725 1147.65 477.2C1265.04 471.151 1372.07 514.907 1426.79 591.146C1438.14 607.028 1447.46 624.584 1456.66 641.694C1469.5 665.47 1482.57 690.137 1501.33 710.749C1524.52 736.299 1556.26 755.242 1592.87 765.112C1614.75 771.017 1638.57 773.754 1661.71 772.766C1715.12 770.832 1769.78 753.16 1828.98 718.979L1828.07 717.312C1769.07 751.536 1714.66 769.05 1661.69 770.867C1638.6 771.654 1614.94 769.161 1593.25 763.299C1556.84 753.472 1525.46 734.815 1502.44 709.509C1483.87 688.94 1470.76 664.474 1457.93 640.698C1448.72 623.588 1439.41 606.033 1427.89 589.906C1399.35 549.956 1356.62 518.366 1304.43 498.664C1256.73 480.548 1202.31 472.373 1147.03 475.174C1099.37 477.699 1048.33 487.294 991.019 504.613C944.482 518.743 898.066 536.267 853.23 553.284L842.487 557.322C733.026 599.37 640.72 630.951 542.27 629.017C454.714 627.289 377.918 592.684 336.809 536.595C317.746 510.446 307.229 481.688 299.449 456.879C295.95 445.61 292.652 434.384 289.714 423.445C280.96 392.324 272.669 362.986 257.699 335.389C219.221 264.91 130.674 210.339 14.533 185.705C14.3317 185.662 13.929 185.577 13.7278 185.534C3.26096 183.314 -7.24863 181.295 -17.8437 179.68L-18.1855 181.291L-18.3867 181.249Z" fill="url(#paint23_linear)"/>
<path d="M-13.6435 158.886C-2.88995 160.745 7.57669 162.965 18.0436 165.185C134.978 191.04 223.097 247.626 259.769 320.67C273.647 348.456 281.047 378.026 288.71 409.337C291.678 421.125 294.763 433.358 298.091 445.433C305.138 470.718 315.082 500.196 334.377 527.237C375.272 584.333 453.362 618.791 543.156 618.889C650.14 619.264 754.702 578.493 847.016 542.913L853.909 540.165C900.209 522.195 948.132 503.516 996.292 488.678C1053.69 470.956 1104.98 461.202 1153.03 458.763C1271.67 452.768 1379.14 497.458 1433.71 575.351C1444.83 591.392 1454.1 609.149 1462.9 626.174C1475.61 650.554 1488.75 675.868 1507.83 696.969C1531.18 722.763 1563.16 741.547 1600.66 751.185C1622.79 756.932 1646.89 759.308 1670.52 758.003C1723.26 755.293 1778.44 737.102 1839.31 702.011L1838.4 700.345C1777.53 735.436 1722.55 753.67 1670.06 756.22C1646.68 757.366 1622.77 755.033 1600.8 749.531C1563.7 739.978 1531.88 721.438 1508.89 695.931C1489.97 675.074 1477.03 649.803 1464.32 625.423C1455.36 608.154 1446.09 590.397 1434.98 574.355C1380.13 495.773 1272.06 450.955 1152.77 457.023C1104.51 459.419 1053.18 469.375 995.584 487.054C947.424 501.892 899.502 520.571 852.958 538.7L846.064 541.448C753.909 577.272 649.633 617.683 542.851 617.351C453.703 617.179 376.175 583.051 335.597 526.443C316.461 499.646 306.675 470.412 299.585 445.329C296.257 433.254 293.173 421.02 290.204 409.233C282.341 377.88 275.185 348.15 261.105 320.321C224.116 246.79 135.679 189.715 18.3427 163.775C7.8758 161.555 -2.83476 159.494 -13.3443 157.475L-13.6435 158.886Z" fill="url(#paint24_linear)"/>
<path d="M-8.90056 136.523C1.81024 138.584 12.521 140.645 23.1465 143.11C140.83 170.387 228.437 229.39 263.462 305.242C276.608 333.505 282.916 363.265 289.645 395.009C292.443 407.603 295.112 420.801 298.27 433.681C304.829 459.284 314.04 489.238 333.207 516.883C373.572 574.499 452.436 608.279 543.78 607.021C650.947 605.541 756.614 563.53 849.714 526.222L852.716 524.964C900.523 505.84 949.952 486.008 999.735 470.461C1057.42 452.378 1109.19 442.307 1157.45 439.91C1251.22 435.166 1374.65 464.084 1439.43 559.3C1450.3 575.501 1459.37 593.215 1468.13 610.441C1480.91 635.468 1493.92 661.387 1513.12 682.933C1536.63 708.972 1569.05 727.64 1607.24 737.003C1629.62 742.591 1654.21 744.649 1677.92 742.941C1730.59 739.585 1784.6 720.936 1847.99 684.904L1847.08 683.238C1783.9 719.312 1730.17 737.601 1677.7 741C1654.03 742.506 1629.84 740.533 1607.63 735.19C1569.84 725.912 1537.77 707.531 1514.47 681.535C1495.43 660.233 1482.37 634.516 1469.59 609.488C1460.84 592.262 1451.81 574.346 1440.94 558.146C1386.43 477.952 1277.77 431.956 1157.43 438.012C1108.73 440.525 1057 450.394 999.07 468.635C949.288 484.182 899.657 503.972 851.85 523.096L848.848 524.354C755.791 561.46 650.526 603.557 543.603 604.879C452.863 606.265 374.56 572.814 334.555 515.485C315.346 488.042 306.293 458.331 299.734 432.729C296.576 419.848 293.663 406.809 291.066 394.258C284.338 362.514 277.871 332.51 264.767 304.045C229.426 227.705 141.459 168.415 23.1713 141.01C12.5459 138.545 1.8349 136.484 -8.8759 134.423L-9.30322 136.438L-8.90056 136.523Z" fill="url(#paint25_linear)"/>
<path d="M-4.11393 113.958C6.59688 116.019 17.4662 118.324 28.0489 120.99C146.483 149.689 233.778 211.154 267.198 289.612C279.411 318.309 285.09 350.041 290.782 380.723C293.208 394.08 295.706 408.084 298.736 421.569C304.258 446.109 313.085 477.877 332.484 506.413C372.519 564.59 451.914 597.852 544.85 595.037C652.2 591.7 754.231 549.971 852.816 509.616C901.886 489.497 952.578 468.669 1003.78 452.37C1062 433.769 1113.97 423.741 1162.67 421.228C1257.49 416.495 1381.64 445.987 1446 543.218C1456.62 559.577 1465.45 577.45 1473.96 594.835C1486.62 620.467 1499.7 647.033 1519.26 668.866C1542.92 695.148 1575.75 713.902 1614.43 722.948C1637.29 728.217 1661.93 730.074 1685.93 728.006C1738.16 723.716 1792.46 704.707 1857.71 667.808L1856.8 666.141C1792 702.924 1737.7 721.933 1686.11 726.15C1662.36 728.06 1637.68 726.404 1615.02 721.177C1576.74 712.217 1544.07 693.707 1520.77 667.712C1501.37 646.123 1488.48 619.6 1475.83 593.968C1467.32 576.583 1458.53 558.508 1447.71 542.107C1404.68 477.19 1335.32 442.266 1265.67 427.495C1230.25 419.981 1194.76 417.717 1162.86 419.372C1113.75 421.799 1061.73 432.029 1003.52 450.631C952.072 467.088 901.38 487.916 852.31 508.035C753.927 548.432 652.139 590.003 544.991 593.382C452.701 596.124 373.824 563.394 334.106 505.705C314.824 477.614 306.155 446.09 300.633 421.55C297.604 408.065 295.105 394.061 292.679 380.704C287.189 350.065 281.351 318.089 268.979 289.148C235.285 209.999 147.63 148.248 28.5919 119.421C17.9666 116.957 7.13993 114.45 -3.57087 112.389L-3.91272 114L-4.11393 113.958Z" fill="url(#paint26_linear)"/>
<path d="M0.628861 91.5946C11.4983 93.9 22.3675 96.2055 32.9501 98.8712C152.336 129.035 238.917 192.874 270.89 274.185C282.371 303.357 286.959 335.279 291.761 366.193C293.972 380.557 296.099 395.324 298.914 409.817C303.747 434.632 311.842 466.876 331.314 496.059C371.02 554.798 450.988 587.339 545.718 583.01C653.41 578.061 756.185 534.806 855.716 492.967C902.157 473.343 954.801 451.245 1007.63 434.238C1066.13 415.277 1118.39 404.888 1167.74 402.302C1263.4 397.539 1388.48 427.647 1452.41 526.893C1463.03 543.251 1471.57 561.485 1479.88 578.827C1492.41 605.063 1505.37 632.233 1525.24 654.555C1549.06 681.082 1582.34 699.719 1621.7 708.49C1644.61 713.558 1669.93 715.14 1694.22 712.712C1760.32 706.52 1821.25 676.075 1867.08 650.425L1866.17 648.759C1820.54 674.451 1759.9 704.536 1694 710.77C1669.96 713.04 1645.04 711.544 1622.09 706.677C1583.08 698.193 1550.01 679.598 1526.55 653.358C1506.83 631.281 1494.03 604.355 1481.51 578.119C1473.24 560.575 1464.45 542.5 1453.87 525.94C1426.17 483.01 1383.19 448.63 1329.77 426.773C1280.41 406.619 1224.5 397.498 1167.72 400.403C1118.17 402.947 1065.71 413.293 1007.21 432.254C954.338 449.462 901.694 471.56 855.052 491.142C755.722 533.023 652.989 576.077 545.499 581.069C451.617 585.367 372.008 553.113 332.821 494.905C313.508 465.966 305.37 433.923 300.695 409.352C297.88 394.86 295.552 380.05 293.542 365.728C288.984 334.656 284.195 302.692 272.556 273.275C255.673 229.903 223.595 191.73 177.718 160.104C137.726 132.463 87.858 110.728 33.5788 96.8992C22.7949 94.1908 11.9683 91.6839 1.05618 89.5799L0.628861 91.5946Z" fill="url(#paint27_linear)"/>
<path d="M5.37228 69.232C16.2417 71.5374 27.0681 74.0443 38.0106 76.9968C156.78 108.083 245.209 176.104 274.584 258.757C285.29 288.608 289.145 321.006 292.971 352.555C294.853 367.481 296.607 383.011 299.093 398.065C303.395 423.399 310.758 456.12 330.346 485.749C369.521 545.007 450.264 576.87 546.543 571.185C654.864 564.265 757.896 519.8 857.64 476.954L858.775 476.563C912.725 453.268 961.478 432.661 1011.68 416.149C1070.46 396.827 1123.21 386.121 1172.96 383.62C1269.48 378.826 1395.43 409.752 1458.93 511.013C1469.31 527.531 1477.65 545.721 1485.88 563.466C1498.27 590.307 1511.1 618.081 1531.34 640.69C1555.11 667.418 1588.64 685.897 1628.29 694.307C1628.49 694.35 1628.89 694.435 1629.09 694.478C1652.44 699.43 1677.85 700.61 1702.42 697.821C1766.6 690.799 1826.47 661.392 1876.56 633.489L1875.65 631.822C1825.8 659.567 1766.13 689.017 1702.21 695.879C1677.88 698.509 1652.67 697.373 1629.48 692.665C1589.83 684.254 1556.46 666.02 1532.84 639.536C1512.97 617.214 1500.14 589.44 1487.7 562.801C1479.47 545.055 1471.13 526.865 1460.6 510.103C1433.06 466.367 1390.21 431.383 1336.27 408.995C1286.6 388.353 1230.13 378.902 1172.95 381.721C1123 384.18 1070.24 394.886 1011.21 414.367C961.014 430.878 912.262 451.486 858.312 474.781L857.177 475.172C757.634 518.06 654.645 562.323 546.727 569.329C451.094 574.941 370.912 543.407 332.255 484.68C312.826 455.295 305.622 422.819 301.277 397.686C298.791 382.632 296.793 367.261 295.154 352.176C291.329 320.627 287.516 288.028 276.651 257.933C260.714 213.078 229.338 173.579 183.314 140.659C143.335 111.968 93.2786 89.1403 38.8834 74.8661C28.0994 72.1577 17.1143 69.4066 6.24487 67.1012L5.77482 69.3173L5.37228 69.232Z" fill="url(#paint28_linear)"/>
<path d="M10.1583 46.6675C21.2289 49.0156 32.0129 51.7241 42.9553 54.6766C162.474 87.185 250.39 157.623 278.319 243.128C288.25 273.657 291.331 306.732 294.223 338.715C295.575 354.16 297.201 370.295 299.358 385.91C304.719 424.101 314.041 451.553 329.219 475.194C368.065 535.014 449.54 566.4 547.21 559.116C655.629 550.742 758.228 505.344 857.539 461.564L861.474 459.872C913.24 436.956 963.945 415.078 1015.12 397.932C1074.19 378.25 1127.39 367.427 1177.58 364.81C1300.02 358.778 1412.91 409.669 1464.89 494.803C1475.03 511.48 1483.33 529.872 1491.35 547.574C1503.62 575.019 1516.52 603.441 1536.87 626.495C1561.01 653.51 1595.13 672.117 1635.72 680.094C1659.56 684.728 1685.05 685.505 1709.87 682.557C1772.47 674.993 1831.37 646.221 1885.48 616.223L1884.57 614.556C1830.5 644.353 1772.01 673.21 1709.61 680.817C1684.99 683.808 1659.5 683.031 1635.86 678.439C1595.68 670.548 1561.71 652.185 1537.93 625.457C1517.74 602.647 1505 574.47 1492.73 547.025C1484.7 529.322 1476.45 510.729 1466.11 494.009C1438.95 449.511 1395.78 414.038 1341.57 390.96C1291.58 369.829 1234.75 360.092 1177.12 363.028C1126.73 365.602 1073.53 376.424 1014.21 396.265C962.835 413.369 912.088 435.449 860.364 458.163L856.429 459.855C757.319 503.677 654.763 548.874 546.747 557.333C449.68 564.746 368.766 533.689 330.439 474.4C315.377 451.205 306.256 423.796 300.852 385.806C298.695 370.191 297.027 354.257 295.718 338.611C292.869 306.427 289.83 273.15 279.698 242.579C264.664 196.441 233.787 155.575 187.862 121.202C147.895 91.4613 97.8079 67.7847 43.1385 52.8206C32.1959 49.8681 21.4122 47.1597 10.3416 44.8116L9.95704 46.6249L10.1583 46.6675Z" fill="url(#paint29_linear)"/>
<path d="M14.9015 24.3047C25.9294 26.8542 36.9146 29.6053 47.8571 32.5578C168.328 66.5312 255.731 139.387 282.012 227.701C291.37 258.95 293.475 292.66 295.592 325.321C296.614 341.327 297.709 357.981 299.738 374.201C304.324 413.07 313.115 441.041 328.251 464.883C348.893 497.473 381.145 520.946 424.243 534.929C461.029 546.942 503.879 551.188 548.28 547.132C656.839 537.104 758.962 490.973 857.841 446.259L864.575 443.267C916.226 419.905 966.815 397.581 1019.17 379.842C1078.77 359.641 1132.25 348.459 1182.85 345.927C1306.38 339.705 1419.86 391.775 1471.7 478.563C1481.79 495.441 1489.85 513.992 1497.63 531.853C1509.97 559.945 1522.54 588.929 1543.25 612.269C1567.51 639.73 1602.08 658.221 1643.4 665.721C1667.48 670.197 1693.46 670.656 1718.56 667.348C1782.43 658.788 1841.18 628.722 1895.49 598.767L1894.58 597.101C1840.32 626.854 1781.81 656.762 1718.14 665.364C1693.24 668.715 1667.46 668.299 1643.58 663.865C1602.71 656.249 1568.3 638.002 1544.4 610.828C1524.05 587.774 1511.28 558.749 1499.09 530.901C1491.31 513.039 1483.06 494.446 1473.01 477.366C1446.02 432.062 1402.78 395.942 1348.25 372.376C1297.94 350.757 1240.5 340.891 1182.68 343.784C1131.88 346.273 1078.19 357.413 1018.59 377.614C966.034 395.311 915.403 417.836 863.752 441.197L857.018 444.19C758.383 488.745 656.259 534.876 548.103 544.989C449.444 553.959 367.999 523.421 330.002 463.57C315.025 439.972 306.191 412.203 301.763 373.578C299.893 357.602 298.798 340.948 297.776 324.942C295.701 292.08 293.395 258.326 284.08 226.876C257.683 138.117 169.56 64.6873 48.6869 30.6285C37.7872 27.4745 26.802 24.7234 15.53 22.3326L15.1027 24.3474L14.9015 24.3047Z" fill="url(#paint30_linear)"/>
<path d="M19.6445 1.94141C30.8737 4.53366 41.8161 7.48624 52.716 10.6402C173.936 46.0359 261.028 121.352 285.705 212.273C294.288 244.199 295.819 278.631 297.162 311.969C299.081 361.43 301.104 412.387 327.283 454.572C347.638 487.522 380.292 511.08 423.879 524.746C461.152 536.442 504.332 540.126 549.105 535.306C657.762 523.825 759.495 476.559 858.099 431.156L867.676 426.661C978.213 375.577 1078.8 332.7 1187.88 327.202C1312.65 321.035 1426.56 374.039 1478.02 462.64C1487.87 479.677 1495.88 498.429 1503.42 516.449C1515.63 545.146 1528.08 574.734 1548.95 598.318C1587.62 642.101 1655.54 663.033 1726.37 652.371C1788.46 643.226 1843.89 614.98 1904.77 581.787L1903.86 580.121C1843.22 613.154 1787.8 641.401 1726.15 650.43C1656.01 660.817 1588.65 640.214 1550.3 596.92C1529.58 573.579 1517.14 543.992 1505.09 515.539C1497.35 497.477 1489.54 478.767 1479.49 461.688C1427.71 372.598 1313.24 319.265 1187.61 325.462C1078.14 330.875 977.548 373.752 866.768 424.994L857.19 429.489C758.788 474.936 657.097 522 548.843 533.567C471.582 541.812 373.306 525.178 328.747 453.62C302.683 411.88 300.795 363.267 298.857 311.907C297.515 278.569 296.228 243.979 287.486 211.808C262.736 120.241 175.126 44.3934 53.3018 8.86968C42.2007 5.673 31.2583 2.72049 20.0291 0.128167L19.6445 1.94141Z" fill="url(#paint31_linear)"/>
</g>
<defs>
<linearGradient id="paint0_linear" x1="1699.55" y1="705.489" x2="169.73" y2="649.472" gradientUnits="userSpaceOnUse">
<stop stop-color="#402F22"/>
<stop offset="1" stop-color="#402F22" stop-opacity="0"/>
</linearGradient>
<linearGradient id="paint1_linear" x1="1699.55" y1="705.489" x2="169.73" y2="649.472" gradientUnits="userSpaceOnUse">
<stop stop-color="#402F22"/>
<stop offset="1" stop-color="#402F22" stop-opacity="0"/>
</linearGradient>
<linearGradient id="paint2_linear" x1="1699.55" y1="705.489" x2="169.73" y2="649.472" gradientUnits="userSpaceOnUse">
<stop stop-color="#402F22"/>
<stop offset="1" stop-color="#402F22" stop-opacity="0"/>
</linearGradient>
<linearGradient id="paint3_linear" x1="1699.55" y1="705.489" x2="169.73" y2="649.472" gradientUnits="userSpaceOnUse">
<stop stop-color="#402F22"/>
<stop offset="1" stop-color="#402F22" stop-opacity="0"/>
</linearGradient>
<linearGradient id="paint4_linear" x1="1699.55" y1="705.489" x2="169.73" y2="649.472" gradientUnits="userSpaceOnUse">
<stop stop-color="#402F22"/>
<stop offset="1" stop-color="#402F22" stop-opacity="0"/>
</linearGradient>
<linearGradient id="paint5_linear" x1="1699.55" y1="705.489" x2="169.73" y2="649.472" gradientUnits="userSpaceOnUse">
<stop stop-color="#402F22"/>
<stop offset="1" stop-color="#402F22" stop-opacity="0"/>
</linearGradient>
<linearGradient id="paint6_linear" x1="1699.55" y1="705.489" x2="169.73" y2="649.472" gradientUnits="userSpaceOnUse">
<stop stop-color="#402F22"/>
<stop offset="1" stop-color="#402F22" stop-opacity="0"/>
</linearGradient>
<linearGradient id="paint7_linear" x1="1699.55" y1="705.489" x2="169.73" y2="649.472" gradientUnits="userSpaceOnUse">
<stop stop-color="#402F22"/>
<stop offset="1" stop-color="#402F22" stop-opacity="0"/>
</linearGradient>
<linearGradient id="paint8_linear" x1="1699.55" y1="705.489" x2="169.73" y2="649.472" gradientUnits="userSpaceOnUse">
<stop stop-color="#402F22"/>
<stop offset="1" stop-color="#402F22" stop-opacity="0"/>
</linearGradient>
<linearGradient id="paint9_linear" x1="1699.55" y1="705.489" x2="169.73" y2="649.472" gradientUnits="userSpaceOnUse">
<stop stop-color="#402F22"/>
<stop offset="1" stop-color="#402F22" stop-opacity="0"/>
</linearGradient>
<linearGradient id="paint10_linear" x1="1699.55" y1="705.489" x2="169.73" y2="649.472" gradientUnits="userSpaceOnUse">
<stop stop-color="#402F22"/>
<stop offset="1" stop-color="#402F22" stop-opacity="0"/>
</linearGradient>
<linearGradient id="paint11_linear" x1="1699.55" y1="705.489" x2="169.73" y2="649.472" gradientUnits="userSpaceOnUse">
<stop stop-color="#402F22"/>
<stop offset="1" stop-color="#402F22" stop-opacity="0"/>
</linearGradient>
<linearGradient id="paint12_linear" x1="1699.55" y1="705.489" x2="169.73" y2="649.472" gradientUnits="userSpaceOnUse">
<stop stop-color="#402F22"/>
<stop offset="1" stop-color="#402F22" stop-opacity="0"/>
</linearGradient>
<linearGradient id="paint13_linear" x1="1699.55" y1="705.489" x2="169.73" y2="649.472" gradientUnits="userSpaceOnUse">
<stop stop-color="#402F22"/>
<stop offset="1" stop-color="#402F22" stop-opacity="0"/>
</linearGradient>
<linearGradient id="paint14_linear" x1="1699.55" y1="705.489" x2="169.73" y2="649.472" gradientUnits="userSpaceOnUse">
<stop stop-color="#402F22"/>
<stop offset="1" stop-color="#402F22" stop-opacity="0"/>
</linearGradient>
<linearGradient id="paint15_linear" x1="1699.55" y1="705.489" x2="169.73" y2="649.472" gradientUnits="userSpaceOnUse">
<stop stop-color="#402F22"/>
<stop offset="1" stop-color="#402F22" stop-opacity="0"/>
</linearGradient>
<linearGradient id="paint16_linear" x1="1699.55" y1="705.489" x2="169.73" y2="649.472" gradientUnits="userSpaceOnUse">
<stop stop-color="#402F22"/>
<stop offset="1" stop-color="#402F22" stop-opacity="0"/>
</linearGradient>
<linearGradient id="paint17_linear" x1="1699.55" y1="705.489" x2="169.73" y2="649.472" gradientUnits="userSpaceOnUse">
<stop stop-color="#402F22"/>
<stop offset="1" stop-color="#402F22" stop-opacity="0"/>
</linearGradient>
<linearGradient id="paint18_linear" x1="1699.55" y1="705.489" x2="169.73" y2="649.472" gradientUnits="userSpaceOnUse">
<stop stop-color="#402F22"/>
<stop offset="1" stop-color="#402F22" stop-opacity="0"/>
</linearGradient>
<linearGradient id="paint19_linear" x1="1699.55" y1="705.489" x2="169.73" y2="649.472" gradientUnits="userSpaceOnUse">
<stop stop-color="#402F22"/>
<stop offset="1" stop-color="#402F22" stop-opacity="0"/>
</linearGradient>
<linearGradient id="paint20_linear" x1="1699.55" y1="705.489" x2="169.73" y2="649.472" gradientUnits="userSpaceOnUse">
<stop stop-color="#402F22"/>
<stop offset="1" stop-color="#402F22" stop-opacity="0"/>
</linearGradient>
<linearGradient id="paint21_linear" x1="1699.55" y1="705.489" x2="169.73" y2="649.472" gradientUnits="userSpaceOnUse">
<stop stop-color="#402F22"/>
<stop offset="1" stop-color="#402F22" stop-opacity="0"/>
</linearGradient>
<linearGradient id="paint22_linear" x1="1699.55" y1="705.489" x2="169.73" y2="649.472" gradientUnits="userSpaceOnUse">
<stop stop-color="#402F22"/>
<stop offset="1" stop-color="#402F22" stop-opacity="0"/>
</linearGradient>
<linearGradient id="paint23_linear" x1="1699.55" y1="705.489" x2="169.73" y2="649.472" gradientUnits="userSpaceOnUse">
<stop stop-color="#402F22"/>
<stop offset="1" stop-color="#402F22" stop-opacity="0"/>
</linearGradient>
<linearGradient id="paint24_linear" x1="1699.55" y1="705.489" x2="169.73" y2="649.472" gradientUnits="userSpaceOnUse">
<stop stop-color="#402F22"/>
<stop offset="1" stop-color="#402F22" stop-opacity="0"/>
</linearGradient>
<linearGradient id="paint25_linear" x1="1699.55" y1="705.489" x2="169.73" y2="649.472" gradientUnits="userSpaceOnUse">
<stop stop-color="#402F22"/>
<stop offset="1" stop-color="#402F22" stop-opacity="0"/>
</linearGradient>
<linearGradient id="paint26_linear" x1="1699.55" y1="705.489" x2="169.73" y2="649.472" gradientUnits="userSpaceOnUse">
<stop stop-color="#402F22"/>
<stop offset="1" stop-color="#402F22" stop-opacity="0"/>
</linearGradient>
<linearGradient id="paint27_linear" x1="1699.55" y1="705.489" x2="169.73" y2="649.472" gradientUnits="userSpaceOnUse">
<stop stop-color="#402F22"/>
<stop offset="1" stop-color="#402F22" stop-opacity="0"/>
</linearGradient>
<linearGradient id="paint28_linear" x1="1699.55" y1="705.489" x2="169.73" y2="649.472" gradientUnits="userSpaceOnUse">
<stop stop-color="#402F22"/>
<stop offset="1" stop-color="#402F22" stop-opacity="0"/>
</linearGradient>
<linearGradient id="paint29_linear" x1="1699.55" y1="705.489" x2="169.73" y2="649.472" gradientUnits="userSpaceOnUse">
<stop stop-color="#402F22"/>
<stop offset="1" stop-color="#402F22" stop-opacity="0"/>
</linearGradient>
<linearGradient id="paint30_linear" x1="1699.55" y1="705.489" x2="169.73" y2="649.472" gradientUnits="userSpaceOnUse">
<stop stop-color="#402F22"/>
<stop offset="1" stop-color="#402F22" stop-opacity="0"/>
</linearGradient>
<linearGradient id="paint31_linear" x1="1699.55" y1="705.489" x2="169.73" y2="649.472" gradientUnits="userSpaceOnUse">
<stop stop-color="#402F22"/>
<stop offset="1" stop-color="#402F22" stop-opacity="0"/>
</linearGradient>
</defs>
</svg>
