<svg width="22" height="22" viewBox="0 0 22 22" fill="none" xmlns="http://www.w3.org/2000/svg">
<circle cx="11" cy="11" r="11" fill="#402F22"/>
<path d="M9.27539 5.56445C9.27539 5.80534 9.31445 5.97786 9.39258 6.08203C9.47721 6.1862 9.51953 6.3457 9.51953 6.56055C9.51953 6.77539 9.43815 6.94792 9.27539 7.07812C9.11914 7.20182 8.9401 7.26367 8.73828 7.26367C8.52344 7.26367 8.33138 7.19857 8.16211 7.06836C7.99935 6.93164 7.91797 6.71029 7.91797 6.4043C7.91797 5.75326 8.25977 5.15104 8.94336 4.59766C9.54232 4.07682 10.3691 3.81641 11.4238 3.81641C12.4395 3.81641 13.2533 4.0931 13.8652 4.64648C14.4772 5.19987 14.7832 5.93229 14.7832 6.84375C14.7832 7.21484 14.7214 7.5599 14.5977 7.87891C14.4805 8.19792 14.2884 8.49414 14.0215 8.76758C13.7546 9.04102 13.5332 9.2526 13.3574 9.40234C13.1882 9.54557 12.9342 9.73763 12.5957 9.97852C12.0358 10.3887 11.6908 10.724 11.5605 10.9844C11.3717 11.3424 11.2773 11.8275 11.2773 12.4395V13.3184C11.2773 13.4486 11.1634 13.5169 10.9355 13.5234C10.7207 13.5234 10.6165 13.4551 10.623 13.3184V12.4004C10.623 11.1048 11.0885 10.0306 12.0195 9.17773C12.4167 8.80664 12.6999 8.45508 12.8691 8.12305C13.0384 7.78451 13.123 7.38411 13.123 6.92188C13.123 6.25781 12.944 5.6849 12.5859 5.20312C12.2344 4.72135 11.7786 4.48047 11.2188 4.48047C10.6589 4.48047 10.1934 4.58464 9.82227 4.79297C9.45768 5.0013 9.27539 5.25846 9.27539 5.56445ZM10.1836 16.8926C9.98177 16.6842 9.88086 16.4336 9.88086 16.1406C9.88086 15.8477 9.98177 15.597 10.1836 15.3887C10.3919 15.1803 10.6426 15.0762 10.9355 15.0762C11.235 15.0762 11.4857 15.1803 11.6875 15.3887C11.8958 15.597 12 15.8477 12 16.1406C12 16.4336 11.8958 16.6842 11.6875 16.8926C11.4857 17.0944 11.235 17.1953 10.9355 17.1953C10.6426 17.1953 10.3919 17.0944 10.1836 16.8926Z" fill="white"/>
</svg>
