<svg width="100" height="100" viewBox="0 0 100 100" fill="none" xmlns="http://www.w3.org/2000/svg">
<g clip-path="url(#favclip0)">
<path fill-rule="evenodd" clip-rule="evenodd" d="M96.2164 53.4523L97.7327 55.5218C100.048 58.6979 99.0646 63.1648 95.6427 65.05L93.4092 66.2999C90.9708 67.6523 89.6594 70.4185 90.1716 73.1643L90.6429 75.6846C91.3601 79.5369 88.5324 83.1432 84.6187 83.3686L82.0573 83.5121C79.2706 83.6555 76.8937 85.5816 76.156 88.2864L75.4798 90.7658C74.4348 94.5361 70.3367 96.5646 66.7098 95.0688L64.3329 94.0853C61.7511 93.0198 58.7799 93.7164 56.9358 95.827L55.2555 97.7531C52.6942 100.724 48.1248 100.745 45.502 97.8351L43.8013 95.9294C41.9366 93.8394 38.945 93.1837 36.3836 94.2902L34.0272 95.2942C30.4208 96.8515 26.2817 94.9049 25.1957 91.1346L24.4786 88.6757C23.6999 85.9915 21.282 84.1063 18.4953 83.9834L15.9339 83.8809C12.0202 83.717 9.13104 80.1516 9.78674 76.2994L10.217 73.779C10.6883 71.0128 9.33595 68.267 6.87707 66.9556L4.62309 65.7467C1.16017 63.882 0.115147 59.4355 2.36912 56.239L3.84445 54.149C5.46321 51.854 5.42223 48.8009 3.78298 46.5469L2.26667 44.4774C-0.0487784 41.3218 0.934774 36.8548 4.35672 34.9492L6.5902 33.6993C9.02859 32.3469 10.34 29.5806 9.82772 26.8349L9.35644 24.3145C8.63927 20.4623 11.467 16.8559 15.3807 16.6305L17.942 16.4871C20.7288 16.3437 23.1057 14.4175 23.8433 11.7128L24.5195 9.23341C25.5646 5.46313 29.6627 3.43455 33.2895 4.93037L35.6665 5.91392C38.2483 6.97944 41.2194 6.28275 43.0636 4.17221L44.7438 2.24609C47.3257 -0.725056 51.8951 -0.745547 54.4974 2.16413L56.1981 4.06976C58.0628 6.15981 61.0544 6.81551 63.6157 5.70901L65.9722 4.70497C69.5785 3.14768 73.7176 5.09429 74.8036 8.86458L75.5208 11.3235C76.2995 14.0077 78.7174 15.8929 81.5041 16.0158L84.0654 16.1183C87.9791 16.2822 90.8683 19.8476 90.2126 23.6998L89.7823 26.2202C89.311 28.9864 90.6634 31.7322 93.1223 33.0436L95.3763 34.2525C98.8392 36.1172 99.8842 40.5636 97.6302 43.7602L96.1549 45.8502C94.5362 48.1452 94.5771 51.1983 96.2164 53.4523Z" fill="#148C5C"/>
</g>
<defs>
<clipPath id="favclip0">
<rect width="100" height="100" fill="white"/>
</clipPath>
</defs>
</svg>
