<svg width="100" height="100" viewBox="0 0 100 100" fill="none" xmlns="http://www.w3.org/2000/svg">
<g clip-path="url(#hitclip0)">
<path fill-rule="evenodd" clip-rule="evenodd" d="M96.2164 53.4523L97.7327 55.5219C100.048 58.6979 99.0646 63.1649 95.6427 65.05L93.4092 66.3C90.9708 67.6524 89.6594 70.4186 90.1716 73.1644L90.6429 75.6847C91.3601 79.5369 88.5324 83.1433 84.6187 83.3687L82.0573 83.5121C79.2706 83.6556 76.8937 85.5817 76.156 88.2865L75.4798 90.7658C74.4348 94.5361 70.3367 96.5647 66.7098 95.0689L64.3329 94.0853C61.7511 93.0198 58.7799 93.7165 56.9358 95.827L55.2555 97.7532C52.6942 100.724 48.1248 100.745 45.502 97.8351L43.8013 95.9295C41.9366 93.8394 38.945 93.1837 36.3836 94.2902L34.0272 95.2943C30.4208 96.8516 26.2817 94.905 25.1957 91.1347L24.4786 88.6758C23.6999 85.9915 21.282 84.1064 18.4953 83.9834L15.9339 83.881C12.0202 83.717 9.13104 80.1517 9.78674 76.2994L10.217 73.7791C10.6883 71.0128 9.33595 68.2671 6.87707 66.9557L4.62309 65.7467C1.16017 63.8821 0.115147 59.4356 2.36912 56.2391L3.84445 54.149C5.46321 51.8541 5.42223 48.8009 3.78298 46.547L2.26667 44.4774C-0.0487784 41.3219 0.934774 36.8549 4.35672 34.9493L6.5902 33.6993C9.02859 32.3469 10.34 29.5807 9.82772 26.835L9.35644 24.3146C8.63927 20.4624 11.467 16.856 15.3807 16.6306L17.942 16.4872C20.7288 16.3437 23.1057 14.4176 23.8433 11.7128L24.5195 9.23347C25.5646 5.46319 29.6627 3.43461 33.2895 4.93043L35.6665 5.91398C38.2483 6.9795 41.2194 6.28281 43.0636 4.17227L44.7438 2.24615C47.3257 -0.724995 51.8951 -0.745486 54.4974 2.16419L56.1981 4.06982C58.0628 6.15987 61.0544 6.81557 63.6157 5.70907L65.9722 4.70503C69.5785 3.14774 73.7176 5.09435 74.8036 8.86464L75.5208 11.3235C76.2995 14.0078 78.7174 15.8929 81.5041 16.0159L84.0654 16.1183C87.9791 16.2823 90.8683 19.8476 90.2126 23.6999L89.7823 26.2202C89.311 28.9865 90.6634 31.7322 93.1223 33.0436L95.3763 34.2526C98.8392 36.1172 99.8842 40.5637 97.6302 43.7602L96.1549 45.8503C94.5362 48.1453 94.5771 51.1984 96.2164 53.4523Z" fill="#D72B2B"/>
</g>
<defs>
<clipPath id="hitclip0">
<rect width="100" height="100" fill="white"/>
</clipPath>
</defs>
</svg>
