<svg width="184" height="56" viewBox="0 0 184 56" fill="none" xmlns="http://www.w3.org/2000/svg">
<path d="M32.2171 24.6202C32.0637 24.536 31.9012 24.529 31.7598 24.6003C31.376 24.7941 31.0513 25.407 30.9901 25.5279C30.9139 25.6784 30.9739 25.8622 31.1238 25.9387C31.2739 26.0151 31.4575 25.9552 31.5338 25.8049C31.631 25.6135 31.8223 25.3156 31.9704 25.1904C32.1506 25.357 32.4788 25.9988 32.5387 26.581C32.6053 27.2299 32.3112 28.5889 31.2379 29.4731C31.1078 29.5804 31.0889 29.773 31.1958 29.9035C31.2561 29.9771 31.3435 30.0152 31.4316 30.0152C31.4998 30.0152 31.5683 29.9925 31.625 29.9456C32.8917 28.9022 33.2282 27.3243 33.1454 26.5183C33.074 25.8237 32.6618 24.8644 32.2171 24.6202Z" fill="#402F22"/>
<path d="M31.2979 26.621C31.1932 26.4889 31.0012 26.4666 30.8695 26.5717C30.7376 26.6767 30.7155 26.8691 30.8202 27.0013C31.3594 27.6821 30.7325 28.2569 30.6583 28.321C30.5304 28.43 30.5143 28.6222 30.6226 28.7511C30.6828 28.8229 30.7691 28.8598 30.856 28.8598C30.9252 28.8598 30.995 28.8362 31.0522 28.7879C31.4588 28.4445 32.0332 27.5496 31.2979 26.621Z" fill="#402F22"/>
<path d="M17.5471 22.6088C17.5573 22.605 18.5751 22.2273 19.7256 22.1312C20.8068 22.0405 22.2772 22.8389 22.2916 22.8468C22.3537 22.8809 22.4207 22.8971 22.4868 22.8971C22.6304 22.8971 22.7697 22.8206 22.8436 22.6854C22.9516 22.4879 22.8795 22.2401 22.6826 22.1318C22.6139 22.0941 20.9842 21.2085 19.6581 21.3185C18.3968 21.424 17.308 21.8279 17.2623 21.845C17.052 21.9239 16.9453 22.1588 17.0239 22.3697C17.1025 22.5807 17.3368 22.6878 17.5471 22.6088Z" fill="#402F22"/>
<path d="M22.2515 24.062C19.7633 22.9473 18.383 23.2144 18.3254 23.2262C18.1605 23.2604 18.0543 23.4221 18.0884 23.5876C18.1224 23.7529 18.2834 23.8595 18.4487 23.8252C18.4518 23.8245 18.5393 23.8079 18.7071 23.8021C18.6923 24.0429 18.7137 24.3706 18.8572 24.721C18.8058 24.7198 18.7585 24.7179 18.7172 24.7155C18.6332 24.7105 18.551 24.7403 18.4899 24.7982C18.4287 24.8559 18.3939 24.9365 18.3939 25.0207C18.3939 25.671 19.1209 26.1987 19.2037 26.2567C19.2569 26.294 19.3178 26.3118 19.3781 26.3118C19.4743 26.3118 19.569 26.2662 19.6284 26.181C19.7248 26.0426 19.691 25.852 19.5529 25.7552C19.44 25.6762 19.2514 25.5102 19.1273 25.332C19.8082 25.3188 21.098 25.2013 21.8382 24.5484C21.8926 24.5719 21.9471 24.5954 22.0027 24.6204C22.0431 24.6384 22.0853 24.647 22.1269 24.647C22.2435 24.647 22.3548 24.5795 22.4055 24.4659C22.4742 24.3117 22.4052 24.1308 22.2515 24.062ZM19.5289 24.7001C19.3238 24.3662 19.3001 24.0395 19.3149 23.8285C19.7634 23.8767 20.3821 23.9987 21.1643 24.2808C20.7036 24.5415 20.0646 24.6568 19.5289 24.7001Z" fill="#402F22"/>
<path d="M26.0016 55.5266C32.9457 55.5266 39.475 52.815 44.3852 47.8912C49.2955 42.9674 52 36.4209 52 29.4577C52 24.4299 50.5697 19.5487 47.8628 15.3418C45.228 11.2468 41.5175 7.98006 37.1364 5.89478C36.8614 5.76393 36.6911 5.68103 36.2846 5.51856V3.78467C36.2846 3.18716 35.9743 2.6324 35.4539 2.33693C34.6799 1.89761 33.2429 1.27063 30.8576 0.86772C30.567 0.820531 29.1199 0.622846 28.2132 0.559289C28.1227 0.551683 28.0568 0.542688 27.9721 0.543382C27.2582 0.49864 26.491 0.473145 25.6623 0.473145C20.6865 0.473145 18.0983 1.36163 16.8138 2.10707C16.1665 2.48259 15.7518 3.18302 15.7518 3.93494V5.47071C15.4468 5.57663 15.367 5.65266 15.1704 5.74283C10.7034 7.79339 6.92719 11.0609 4.22898 15.1922C1.45871 19.4338 0 24.3667 0 29.4577C0 36.4209 2.70698 42.9674 7.61722 47.8912C12.5276 52.815 19.0575 55.5266 26.0016 55.5266ZM6.63682 42.8443C6.53755 42.697 6.30437 42.5354 6.07995 42.3437C5.83862 42.1457 5.56168 41.9161 5.44111 41.7234C5.29386 41.4668 5.24858 41.24 5.23308 41.1284C5.48467 41.0059 5.7818 41.0217 6.05723 41.1421C6.19261 41.2039 6.33207 41.2867 6.45897 41.3932C6.58554 41.4998 6.69994 41.63 6.79505 41.7822C6.97293 42.0808 7.07536 42.3928 7.07038 42.6907C7.06705 42.9867 6.96755 43.2613 6.77097 43.4462C6.78136 43.2742 6.76804 43.0333 6.63682 42.8443ZM5.03317 40.148C4.95393 39.9889 4.75593 39.7919 4.54415 39.5792C4.33213 39.3505 4.0936 39.0834 4.00166 38.8754C3.94332 38.7396 3.90385 38.6165 3.88759 38.5099C3.87097 38.4034 3.8678 38.3174 3.86846 38.2606C4.00113 38.2166 4.1402 38.2089 4.27775 38.2316C4.41527 38.2544 4.54978 38.3082 4.68453 38.3837C4.9502 38.5369 5.18329 38.7896 5.32704 39.1181C5.47719 39.4312 5.52791 39.7587 5.48193 40.054C5.46007 40.2009 5.41255 40.3404 5.34804 40.4603C5.28407 40.5799 5.19724 40.6832 5.08808 40.7613C5.11341 40.5963 5.13554 40.3541 5.03317 40.148ZM3.79822 37.2631C3.74315 37.094 3.57648 36.8713 3.3985 36.6308C3.20475 36.3801 3.01071 36.0815 2.95099 35.862C2.87316 35.5764 2.88239 35.3475 2.89529 35.2362C3.17059 35.1848 3.4565 35.2779 3.69582 35.4656C3.81553 35.5596 3.92367 35.6776 4.0135 35.8151C4.05841 35.884 4.09875 35.9576 4.13374 36.0357C4.17163 36.113 4.20652 36.194 4.23415 36.2794C4.34282 36.6092 4.33922 36.9438 4.25539 37.23C4.18 37.5125 4.01561 37.7496 3.77814 37.8757C3.83229 37.7129 3.87183 37.4811 3.79822 37.2631ZM2.96596 34.2365C2.94825 34.1493 2.89802 34.0466 2.84414 33.9308C2.79012 33.815 2.72225 33.6882 2.65227 33.5569C2.57854 33.4185 2.49965 33.2698 2.43452 33.1273C2.36913 32.9849 2.31636 32.8489 2.30597 32.7357C2.27168 32.4416 2.31484 32.2156 2.34413 32.1067C2.62355 32.0926 2.89189 32.2235 3.09998 32.4421C3.2065 32.5512 3.28762 32.6841 3.36664 32.8313C3.44285 32.9788 3.49885 33.1432 3.52856 33.3203C3.55732 33.4917 3.55893 33.6601 3.53737 33.8201C3.51959 33.9793 3.48493 34.1288 3.4261 34.2645C3.31018 34.5352 3.11324 34.7486 2.86063 34.8418C2.93588 34.6878 3.01539 34.4613 2.96596 34.2365ZM2.40745 27.2494C2.37335 27.0963 2.33704 26.9318 2.31231 26.777C2.29031 26.6225 2.28424 26.4783 2.29954 26.3657C2.34057 26.0725 2.4394 25.8662 2.5019 25.7704C2.77399 25.8333 2.99185 26.0318 3.13992 26.2994C3.28532 26.5673 3.34659 26.9022 3.31473 27.2583C3.29847 27.4307 3.24967 27.5923 3.19384 27.7406C3.13635 27.8888 3.05826 28.0228 2.96471 28.1375C2.87135 28.2521 2.76183 28.3474 2.64334 28.4172C2.52702 28.4871 2.39953 28.5313 2.26581 28.5426C2.37292 28.4138 2.51558 28.2173 2.53032 27.9879C2.54173 27.8107 2.46816 27.5399 2.40745 27.2494ZM2.94456 24.1335C2.92094 23.8213 2.89328 23.4605 2.96131 23.2433C3.04543 22.9594 3.16854 22.7678 3.2435 22.6815C3.5029 22.781 3.69642 23.0094 3.8034 23.2947C3.85639 23.4374 3.88696 23.5944 3.89174 23.7585C3.89979 23.9235 3.88653 24.0967 3.84195 24.2702C3.75116 24.6052 3.59194 24.8923 3.37056 25.0925C3.14869 25.292 2.89318 25.4104 2.62296 25.3943C2.68697 25.3387 2.75902 25.2666 2.82 25.1804C2.88371 25.0947 2.93813 24.9951 2.96233 24.8825C3.00246 24.7095 2.9623 24.4294 2.94456 24.1335ZM3.4162 22.3259C3.55916 22.2334 3.73935 22.08 3.8216 21.8649C3.88525 21.6989 3.88515 21.4164 3.9052 21.1199C3.92604 20.8081 3.94401 20.4456 4.04087 20.2397C4.16164 19.9694 4.31211 19.7973 4.39452 19.7201C4.63863 19.853 4.80289 20.1063 4.86914 20.4028C4.90278 20.5515 4.91073 20.7109 4.89483 20.8751C4.8824 21.0406 4.84388 21.21 4.77628 21.3764C4.74373 21.4571 4.70504 21.5332 4.66313 21.6054C4.62313 21.6783 4.57844 21.7466 4.5298 21.81C4.43251 21.9369 4.31953 22.0443 4.19715 22.1287C3.95289 22.2974 3.68148 22.379 3.4162 22.3259ZM2.59054 29.0654C2.70843 29.1399 2.81297 29.2416 2.90756 29.3641C3.09292 29.609 3.20973 29.9332 3.21481 30.2924C3.22619 30.6399 3.15116 30.961 2.9934 31.215C2.83899 31.4682 2.60976 31.6541 2.35132 31.7123C2.443 31.5701 2.55957 31.3555 2.54318 31.1258C2.53227 30.9483 2.42328 30.6895 2.31339 30.4107C2.20938 30.1169 2.09119 29.7779 2.08776 29.5504C2.08641 29.4025 2.09867 29.2737 2.12374 29.1691C2.14926 29.0646 2.17927 28.9842 2.20163 28.9321C2.34096 28.9436 2.47225 28.9908 2.59054 29.0654ZM7.78557 43.692C7.93149 43.7326 8.07505 43.8006 8.21075 43.8926C8.3517 43.9804 8.48384 44.0931 8.59979 44.23C8.71204 44.3626 8.79937 44.5064 8.86242 44.6548C8.92469 44.8039 8.9733 44.9481 8.99087 45.0956C9.02863 45.3876 8.96749 45.6717 8.79726 45.8807C8.7838 45.7098 8.73724 45.4745 8.58033 45.3062C8.45538 45.1797 8.22081 45.0346 7.96582 44.8807C7.69943 44.7174 7.38535 44.5341 7.25218 44.3496C7.07206 44.115 6.99347 43.8991 6.96297 43.7908C7.19632 43.6359 7.49437 43.611 7.78557 43.692ZM10.0348 48.5347C9.74419 48.4921 9.43713 48.3523 9.17416 48.1195C8.91186 47.8959 8.75086 47.603 8.67003 47.3298C8.59118 47.0538 8.60309 46.7863 8.71092 46.5714C8.78087 46.6986 8.89576 46.8695 9.07414 47.0434C9.16958 47.1365 9.29954 47.2234 9.44452 47.3058C9.59113 47.3865 9.75925 47.4556 9.92022 47.5263C10.1819 47.6393 10.4262 47.7434 10.5356 47.8404C10.7374 48.0083 10.8058 48.3009 10.8118 48.3732C10.6093 48.5132 10.3322 48.5702 10.0348 48.5347ZM10.8309 47.4901C10.6981 47.3723 10.4419 47.2647 10.1672 47.1478C10.0238 47.0849 9.86442 47.0231 9.72987 46.9467C9.59433 46.8714 9.47321 46.7927 9.39198 46.7135C9.1803 46.5071 9.07236 46.3052 9.02705 46.2027C9.23811 46.0181 9.53148 45.9527 9.83276 45.9926C9.9835 46.0127 10.1365 46.0593 10.2836 46.1322C10.3572 46.1684 10.4289 46.2119 10.4992 46.2608C10.5719 46.3072 10.6422 46.3601 10.7093 46.4195C10.9703 46.6483 11.1344 46.9415 11.2096 47.2276C11.2871 47.51 11.2651 47.7983 11.124 48.0277C11.088 47.8605 11.0074 47.6375 10.8309 47.4901ZM11.7895 50.2016C11.5098 50.0007 11.3033 49.7433 11.1873 49.4828C11.1294 49.3524 11.0939 49.221 11.0833 49.0934C11.0748 48.9629 11.0901 48.8376 11.1302 48.7228C11.211 48.8465 11.349 48.9986 11.5507 49.1447C11.6584 49.2232 11.7997 49.2908 11.9553 49.3518C12.1113 49.4124 12.2792 49.4699 12.4518 49.5132C12.7278 49.5881 12.9851 49.6566 13.1073 49.7368C13.2177 49.8084 13.2957 49.9193 13.3521 50.0157C13.4089 50.1114 13.4398 50.1993 13.4478 50.234C13.08 50.5769 12.3797 50.5886 11.7895 50.2016ZM13.7118 49.8498C13.6824 49.7704 13.6402 49.6779 13.5808 49.5908C13.5234 49.5004 13.4501 49.4135 13.3538 49.3504C13.2054 49.2529 12.9357 49.1828 12.6462 49.106C12.3441 49.0219 12.0072 48.9075 11.8223 48.7756C11.703 48.6887 11.6094 48.5992 11.5384 48.5196C11.4698 48.4368 11.4242 48.3636 11.3959 48.3144C11.5819 48.1021 11.8551 48.0101 12.1631 48.0043C12.4693 48.0018 12.7967 48.1033 13.0871 48.3131C13.3773 48.5032 13.5834 48.7643 13.6931 49.042C13.8001 49.323 13.8226 49.6015 13.7118 49.8498ZM15.6046 52.0781C15.4578 52.0975 15.3005 52.0957 15.1399 52.0704C15.0597 52.0573 14.9781 52.04 14.898 52.0137C14.8188 51.9855 14.7399 51.9512 14.6622 51.9103C14.3574 51.7502 14.1163 51.5268 13.9657 51.2862C13.8191 51.0376 13.7637 50.7707 13.8123 50.5337C13.9125 50.639 14.0616 50.7852 14.2816 50.9018C14.5177 51.0261 14.8802 51.0881 15.2249 51.145C15.505 51.189 15.774 51.2128 15.9054 51.2766C16.1433 51.3874 16.2823 51.6598 16.307 51.7282C16.149 51.9152 15.8984 52.0393 15.6046 52.0781ZM16.5172 51.3131C16.4395 51.1592 16.3066 50.9577 16.0984 50.8607C16.0179 50.8233 15.9082 50.797 15.7813 50.7757C15.654 50.7551 15.5098 50.7389 15.3648 50.7132C15.0572 50.6641 14.703 50.6056 14.5021 50.4998C14.2421 50.3595 14.0918 50.1811 14.0214 50.094C14.1766 49.8607 14.4406 49.724 14.7384 49.6889C15.0393 49.6496 15.3821 49.6974 15.6981 49.8657C15.7749 49.9061 15.8468 49.9517 15.9142 50.0011C15.9832 50.047 16.0474 50.0971 16.1063 50.1508C16.2241 50.2581 16.3211 50.3795 16.3944 50.5084C16.5407 50.766 16.5934 51.0538 16.5172 51.3131ZM18.6909 53.2658C18.5483 53.3041 18.3892 53.3326 18.2293 53.3208C18.0684 53.3122 17.9013 53.2803 17.7358 53.2222C17.4109 53.108 17.1393 52.9268 16.9632 52.6948C16.7846 52.4683 16.6927 52.2149 16.7091 51.974C16.8223 52.0656 16.9934 52.1807 17.2241 52.2745C17.2859 52.2991 17.3544 52.3209 17.4294 52.3357C17.5048 52.3491 17.5856 52.3587 17.6693 52.3657C17.8369 52.3797 18.0166 52.3833 18.1921 52.3864C18.334 52.3889 18.4712 52.3911 18.59 52.3986C18.709 52.4055 18.8122 52.4103 18.8819 52.4321C19.1335 52.5064 19.3085 52.7547 19.3424 52.8186C19.2105 53.0259 18.9779 53.1848 18.6909 53.2658ZM19.4954 52.3786C19.3973 52.2382 19.238 52.0591 19.0177 51.9941C18.8461 51.9487 18.5701 51.9448 18.2729 51.9406C18.1164 51.9386 17.9484 51.9362 17.7924 51.9248C17.7145 51.9191 17.6395 51.9111 17.5707 51.8999C17.5031 51.8855 17.4415 51.868 17.389 51.8467C17.1154 51.7353 16.9387 51.5887 16.8578 51.5106C16.9807 51.2585 17.2248 51.0859 17.5165 51.0082C17.663 50.9683 17.8197 50.9575 17.9846 50.9637C18.1504 50.9679 18.321 50.9979 18.49 51.0571C18.6536 51.1145 18.8015 51.1942 18.9308 51.2902C19.0604 51.3851 19.1748 51.4859 19.2646 51.6035C19.4449 51.8359 19.5362 52.1118 19.4954 52.3786ZM15.9276 22.1941C15.4263 21.6915 15.5567 21.3539 15.5738 21.3159C17.2367 20.8063 20.5401 19.883 24.028 19.4104C24.2222 20.0942 24.8857 22.233 25.8834 23.3951C25.8839 23.3958 25.8845 23.3965 25.885 23.3971C25.8867 23.399 25.8883 23.4012 25.89 23.4031C26.1282 23.679 26.3423 23.9081 26.5312 24.1101C27.0685 24.6844 27.3513 24.9876 27.3977 25.4922C27.4127 25.6556 27.4033 25.8397 27.3693 26.0614C27.1909 27.2238 24.6365 31.1672 23.0016 32.5504C22.3416 33.1088 21.9999 33.1993 21.8303 33.1766C21.653 33.1531 21.5227 32.982 21.3294 32.7027C21.2565 32.5975 21.1811 32.4887 21.0946 32.3846C21.0646 32.3485 21.0315 32.3078 20.9951 32.2631C20.4823 31.6339 19.3619 30.2601 17.3525 29.5441C17.3692 29.5349 17.3851 29.5233 17.3992 29.5092L17.4158 29.4927C17.455 29.4537 17.4949 29.4151 17.5326 29.3743L17.6407 29.2419C17.6741 29.1931 17.7073 29.1461 17.7361 29.0926C17.7647 29.0392 17.7938 28.9864 17.8154 28.9267C17.8395 28.8698 17.8546 28.8059 17.8705 28.7441C17.8827 28.6795 17.892 28.6146 17.8913 28.5474C17.8917 28.481 17.8875 28.4134 17.8731 28.3479C17.8602 28.2824 17.8391 28.2185 17.813 28.1584C17.7878 28.0975 17.7524 28.0422 17.716 27.9894C17.6958 27.9639 17.6779 27.9378 17.655 27.9144L17.6189 27.8765L17.5912 27.8525C17.5669 27.831 17.5318 27.8008 17.498 27.7747C17.2111 27.4737 16.8572 27.2842 16.8404 27.2753C16.7411 27.2227 16.6184 27.2608 16.5659 27.3602C16.5134 27.4596 16.5513 27.583 16.6503 27.6357C16.6539 27.6376 16.9627 27.804 17.202 28.0542C17.218 28.0803 17.2315 28.1031 17.2527 28.1378L17.2717 28.1692C17.2705 28.1706 17.277 28.1831 17.2793 28.1892C17.2865 28.2038 17.2917 28.2204 17.2981 28.2352C17.3085 28.267 17.3163 28.2988 17.3214 28.33C17.327 28.361 17.3299 28.3918 17.3282 28.4222C17.3285 28.4524 17.3259 28.4824 17.3203 28.5123C17.3157 28.5421 17.3053 28.5721 17.2983 28.6025C17.2856 28.633 17.2774 28.6635 17.2597 28.6942C17.2472 28.7253 17.2285 28.7567 17.2106 28.7881C17.1933 28.8199 17.1673 28.8499 17.1488 28.8826L17.0761 28.977C17.0631 28.9909 17.0513 29.0059 17.039 29.0204C17.0307 29.0219 17.0226 29.0228 17.0139 29.0255C16.9976 29.0257 16.981 29.0244 16.9632 29.0262C16.9444 29.0208 16.9248 29.0204 16.9036 29.0163C16.8816 29.0081 16.8593 29.003 16.8354 28.9936C16.8108 28.9822 16.7857 28.9735 16.7597 28.9607C16.7079 28.9337 16.6518 28.9036 16.5948 28.8696C16.5783 28.8596 16.5599 28.8491 16.5429 28.839C16.528 28.8261 16.5136 28.8139 16.4981 28.8003C16.2986 28.6255 16.0724 28.4274 15.7847 28.3957C15.6738 28.3833 15.5726 28.464 15.5604 28.5759C15.5481 28.6878 15.6286 28.7886 15.7402 28.8008C15.901 28.8186 16.0612 28.9589 16.2306 29.1074C16.2466 29.1213 16.2632 29.1357 16.2796 29.1499C16.2926 29.1657 16.304 29.1813 16.3175 29.1971L16.377 29.2628C16.3562 29.2571 16.3332 29.2506 16.3106 29.2443C16.2912 29.2355 16.2708 29.2283 16.2492 29.2236C16.2288 29.2192 16.2069 29.2142 16.1843 29.209C16.0645 29.1757 15.9736 29.1516 15.9089 29.1378C15.3774 28.9851 14.6434 28.6803 14.57 28.1502C14.5353 27.9006 14.9574 26.6904 15.1603 26.1089C15.2728 25.7863 15.37 25.5077 15.4246 25.3226C15.4785 25.1397 15.5502 24.9283 15.6195 24.7238C15.7346 24.384 15.8537 24.0325 15.9074 23.7667C15.9498 23.5567 15.9902 23.3884 16.0259 23.24C16.1362 22.7802 16.2092 22.4765 15.9276 22.1941ZM15.5672 21.3179C15.5693 21.3173 15.5718 21.3165 15.5738 21.3159L15.571 21.3202L15.5672 21.3179ZM28.4539 25.0321C28.5131 25.1174 28.6081 25.1632 28.7044 25.1632C28.7646 25.1632 28.8253 25.1454 28.8784 25.1083C31.6179 23.1949 33.0924 20.6724 33.513 19.8736C33.7593 19.9546 33.9959 20.0405 34.2238 20.1311C34.0005 20.5714 33.4787 21.5228 32.7895 22.2839C32.6762 22.4089 32.6856 22.6023 32.8102 22.7158C32.8686 22.769 32.942 22.7952 33.0151 22.7952C33.0981 22.7952 33.1808 22.7615 33.2409 22.6951C34.0053 21.8512 34.561 20.8231 34.7872 20.3706C34.9578 20.4481 35.1239 20.5282 35.2864 20.6103C35.1339 21.0496 34.6806 22.2251 33.8943 23.2158C33.7895 23.348 33.8113 23.5404 33.943 23.6455C33.9992 23.6903 34.0662 23.712 34.1327 23.712C34.2225 23.712 34.3113 23.6725 34.3716 23.5967C35.1728 22.5871 35.6419 21.4328 35.8314 20.9015C36.0195 21.0066 36.2036 21.1143 36.3847 21.2241C36.1797 21.7922 35.4267 23.7842 34.5044 25.0734C34.4062 25.2107 34.4376 25.4017 34.5744 25.5001C34.6283 25.5388 34.6903 25.5574 34.7519 25.5574C34.8469 25.5574 34.9404 25.5132 34.9999 25.4299C35.9184 24.1461 36.6518 22.2706 36.9143 21.5541C37.0594 21.6468 37.2036 21.7404 37.3476 21.8347C37.18 22.493 36.1774 26.2152 34.4109 28.467C34.3068 28.5997 34.3296 28.792 34.462 28.8964C34.5179 28.9405 34.5843 28.9619 34.6503 28.9619C34.7406 28.9619 34.83 28.9219 34.8901 28.8452C36.6158 26.6454 37.609 23.2395 37.8866 22.1888C37.9819 22.2516 38.0776 22.3142 38.1732 22.3768C37.4639 27.4562 35.7796 29.3598 35.055 30.1776C35.0008 30.2387 34.9524 30.2935 34.9103 30.3428C34.5148 30.8054 34.189 31.0622 34.0305 31.174C33.4738 30.9834 32.9762 30.6715 32.6812 30.4639C33.4017 29.7393 33.871 28.7552 34.102 27.8669C34.4084 26.6877 34.4468 26.0557 33.5769 24.5292C32.6288 22.8657 31.3034 23.5367 31.2902 23.5436C31.269 23.5547 31.2493 23.5683 31.2313 23.5839C31.163 23.6436 29.5568 25.07 29.4499 27.2138C29.4495 27.2215 29.4495 27.2289 29.4492 27.2365C28.7686 26.2619 28.1751 25.5439 27.9896 25.3242C27.9314 24.926 27.7646 24.617 27.5196 24.3051C30.2335 23.0502 31.7072 20.3254 32.1044 19.4962C32.3864 19.556 32.6561 19.6218 32.915 19.6932C32.4482 20.543 31.0204 22.8668 28.5298 24.6064C28.3916 24.7029 28.3577 24.8936 28.4539 25.0321ZM33.314 37.6597L33.6753 40.8922C33.5501 40.9747 33.4144 41.0605 33.2697 41.1485L32.972 38.5211C32.953 38.3533 32.8015 38.2333 32.6346 38.2518C32.4673 38.2709 32.347 38.4224 32.3661 38.5902L32.6936 41.4802C32.5523 41.5573 32.4043 41.6352 32.2491 41.7134L31.9545 39.6339C31.9308 39.4666 31.7752 39.3499 31.6097 39.3742C31.4429 39.3979 31.327 39.5527 31.3508 39.7199L31.6723 41.9896C31.4854 42.0748 31.2902 42.1595 31.0864 42.2434L30.8933 40.8733C30.8698 40.7061 30.7156 40.5905 30.5487 40.6133C30.3819 40.637 30.2658 40.7917 30.2894 40.9589L30.5026 42.4717C30.3232 42.5383 30.1386 42.6039 29.9477 42.6681L29.8057 41.7817C29.7789 41.615 29.6222 41.5008 29.4562 41.5283C29.29 41.5551 29.1768 41.7119 29.2035 41.8787L29.36 42.8555C28.8791 43.0005 28.3655 43.1355 27.8179 43.2558C27.6534 43.2919 27.5492 43.455 27.5852 43.6199C27.6165 43.7629 27.7426 43.8604 27.8828 43.8604C27.9044 43.8604 27.9264 43.858 27.9483 43.8532C30.884 43.2087 32.8713 42.1695 34.0444 41.3889C33.7231 41.8986 33.3087 42.5278 32.8004 43.2449C31.5076 43.8678 28.9323 44.4086 27.3252 44.6322L27.4704 44.2976C27.5148 44.1951 27.4999 44.0765 27.4317 43.9882C27.3634 43.9 27.2528 43.8563 27.1426 43.8737L24.3516 44.3214L23.0372 43.8517L22.9729 42.6417L24.4277 39.2792C25.3913 39.1247 30.0972 38.3399 32.0173 37.4477C33.011 36.9859 33.6799 36.59 34.1136 36.2967C34.2143 36.2836 34.2989 36.222 34.3439 36.1352C34.345 36.1344 34.3463 36.1335 34.3473 36.1327L34.8205 40.0202C34.714 40.1178 34.523 40.2835 34.2444 40.4927L33.9201 37.5917C33.9013 37.4238 33.7503 37.3031 33.5831 37.3218C33.4158 37.3406 33.2953 37.492 33.314 37.6597ZM20.2883 34.0597C20.4483 33.579 20.5218 33.0859 20.5542 32.6886C20.5797 32.7198 20.604 32.7495 20.626 32.7761C20.6954 32.8596 20.7601 32.9528 20.8285 33.0516C20.9197 33.1833 21.0163 33.3222 21.1311 33.4439C21.2193 33.9789 21.6029 36.8068 20.2562 38.7678C20.2235 38.7508 20.2055 38.7404 20.2042 38.7396C20.1851 38.7281 20.1647 38.7187 20.1436 38.7116C20.0187 38.6699 19.7365 38.4734 19.6497 38.2082C19.5875 38.0183 19.6327 37.8188 19.788 37.5982C20.4074 36.7184 20.6062 36.143 20.6062 35.2304C20.6062 34.806 20.4876 34.4157 20.2883 34.0597ZM21.7954 33.787C21.9504 33.8006 22.1135 33.779 22.2901 33.7188C22.4581 34.4364 22.7366 36.3605 21.909 39.2934C21.4641 39.2115 21.1016 39.1062 20.8272 39.0094C22.0118 37.1929 21.9168 34.8435 21.7954 33.787ZM22.8487 33.4321C22.992 33.3379 23.1439 33.2246 23.3062 33.0913C23.551 34.067 24.016 36.5202 23.456 39.4357C23.1189 39.4331 22.806 39.4134 22.5183 39.382C23.4157 36.1512 23.0337 34.1095 22.8487 33.4321ZM23.4308 40.0469L22.5857 42C22.5634 41.8344 22.5418 41.6668 22.5207 41.5007C22.4484 40.9304 22.3791 40.3838 22.2765 39.9706C22.6253 40.0149 23.0103 40.0434 23.4308 40.0469ZM20.5811 39.5727C20.8487 39.6696 21.1903 39.7733 21.6053 39.8593C21.7415 40.2059 21.8301 40.9026 21.9157 41.5779C21.9685 41.9944 22.0231 42.425 22.0917 42.8032C22.0946 42.8191 22.0992 42.8342 22.1043 42.849L21.6161 43.3867L20.6861 43.233L20.071 42.183L20.5811 39.5727ZM20.7936 45.5372C20.862 45.4864 20.9078 45.4086 20.9159 45.3205L21.1204 44.9583C21.1719 44.8682 21.1814 44.7606 21.1462 44.6721L20.8633 43.9536C20.8824 43.9319 20.8993 43.9087 20.9114 43.8831L21.6171 43.9999L21.6407 44.002C21.7175 44.0062 21.7973 43.9718 21.8568 43.9065L22.4717 43.2295L22.5201 44.1355C22.5258 44.2467 22.5878 44.3375 22.6779 44.3704L23.5705 44.6894L22.601 45.1614C22.5018 45.2101 22.4306 45.318 22.4194 45.4373L22.3225 46.5032L21.7323 45.6831C21.6902 45.6258 21.6298 45.5928 21.5628 45.5891C21.5375 45.5878 21.5117 45.59 21.4859 45.5976L20.6265 45.8331L20.7936 45.5372ZM21.4001 46.2195L22.3042 47.4732C22.3462 47.5314 22.4073 47.5645 22.4736 47.5681C22.5103 47.5701 22.5483 47.5631 22.5854 47.5462C22.6914 47.5005 22.7674 47.3893 22.7782 47.2664L22.8259 46.7408L23.4432 47.5465C23.4186 47.5669 23.3959 47.5903 23.378 47.6189L21.299 50.9374C20.3978 50.739 19.5171 50.485 18.6608 50.1789L20.3943 46.4945L21.4001 46.2195ZM23.8285 48.0494L24.2619 48.6151L22.5845 51.1809C22.3677 51.1467 22.1521 51.1087 21.9374 51.0681L23.8285 48.0494ZM22.9564 45.9073C22.9415 45.8878 22.9243 45.8714 22.9061 45.8566L22.9101 45.8127L24.4174 46.3705C24.4523 46.3833 24.4879 46.3895 24.523 46.3895C24.647 46.3895 24.7636 46.3129 24.8091 46.1895C24.8674 46.031 24.7866 45.8551 24.6286 45.7967L23.4616 45.3649L24.3229 44.9452L26.689 44.5657L24.9684 48.5333L22.9564 45.9073ZM30.2548 31.9134C30.2703 32.0245 30.2827 32.134 30.2886 32.2405C30.3215 32.8356 30.3628 33.5825 29.9094 34.5643C29.3998 30.9279 27.6712 28.7318 27.1306 28.1223C27.2384 27.9308 27.3379 27.7453 27.4288 27.5669C27.8943 28.1358 29.0759 29.6698 30.2548 31.9134ZM27.7153 26.9577C27.8306 26.6859 27.9121 26.4462 27.9536 26.2481C28.3358 26.732 28.8956 27.4743 29.4522 28.3337C29.4619 28.3487 29.4741 28.3608 29.4858 28.3734C29.5398 28.876 29.6373 29.3479 29.7466 29.7932C28.7388 28.1654 27.9048 27.1759 27.7153 26.9577ZM30.8975 32.2066C30.8915 32.099 30.88 31.9904 30.8659 31.8811C30.872 31.8309 30.8645 31.7791 30.8445 31.7297C30.8255 31.609 30.8033 31.4873 30.7772 31.3642C30.8499 31.4259 30.9505 31.4525 31.0498 31.4271C31.4792 31.317 31.8507 31.1242 32.192 30.8746C32.4827 31.0902 33.0318 31.4836 33.7434 31.7308V35.7914C33.3368 36.0642 32.7127 36.4443 31.7477 36.8928C30.8652 37.3029 29.3225 37.698 27.8526 38.0138C30.7903 35.4373 30.9821 33.7333 30.8975 32.2066ZM32.0356 30.2349C32.0195 30.2457 32.0046 30.2581 31.9905 30.2722C31.6839 30.5235 31.323 30.7258 30.8987 30.8346C30.8042 30.8589 30.7314 30.9249 30.695 31.008C30.6433 30.7985 30.5858 30.5853 30.5272 30.368C30.2805 29.4525 30.0006 28.4147 30.059 27.2444C30.1453 25.5152 31.3931 24.2695 31.6024 24.0724C31.7726 24.0015 32.4588 23.8001 33.0474 24.8326C33.8121 26.1747 33.7848 26.6621 33.5117 27.7126C33.4254 28.0449 33.0239 29.3949 32.0356 30.2349ZM29.3941 35.4563C29.2164 35.7138 29.0047 35.9849 28.7538 36.2707C28.3498 32.3315 26.8703 29.9512 26.415 29.301C26.5498 29.0929 26.6792 28.8863 26.8026 28.6827C27.4503 29.4723 29.097 31.8109 29.3941 35.4563ZM28.1941 36.865C27.9713 37.087 27.7252 37.3172 27.4539 37.5558C27.2107 33.3679 25.9975 31.1314 25.5939 30.4949C25.7476 30.2838 25.8993 30.0694 26.047 29.8535C26.5974 30.7129 27.9177 33.1297 28.1941 36.865ZM26.8672 38.0521C26.7785 38.1245 26.6863 38.198 26.593 38.2718C26.3314 38.3225 26.0811 38.3695 25.8471 38.4125C26.1609 35.2566 25.0731 32.3048 24.7719 31.562C24.9136 31.3891 25.0561 31.209 25.1982 31.0242C25.663 31.8411 26.7132 34.1025 26.8672 38.0521ZM25.2213 38.5247C24.6739 38.6206 24.2937 38.6813 24.1942 38.697C24.6016 35.6714 24.0106 33.2984 23.8148 32.6286C23.9781 32.4662 24.1472 32.2861 24.3202 32.0915C24.7027 33.1323 25.538 35.8008 25.2213 38.5247ZM27.0987 23.8231C27.0587 23.7801 27.018 23.7365 26.9761 23.6917C26.8689 23.5771 26.7525 23.4522 26.6295 23.3167C29.1863 22.1453 30.3953 19.9745 30.7326 19.2686C30.991 19.3004 31.2401 19.3367 31.4806 19.3772C31.0097 20.3016 29.5655 22.7621 27.0987 23.8231ZM26.2138 22.8325C26.1055 22.6911 26.0014 22.5368 25.9018 22.3734C28.0175 21.4182 29.0709 19.7352 29.385 19.1513C29.6241 19.1645 29.8563 19.181 30.0815 19.2009C29.6565 20.0039 28.4714 21.8608 26.2138 22.8325ZM25.6047 21.8372C25.5281 21.6859 25.455 21.5318 25.3858 21.3774C27.0356 20.7146 27.8395 19.5423 28.0882 19.1141C28.1178 19.1142 28.1476 19.1142 28.177 19.1144C28.3532 19.1155 28.525 19.1187 28.6944 19.1231C28.2822 19.7901 27.31 21.0815 25.6047 21.8372ZM25.1489 20.8136C25.0932 20.6726 25.0408 20.5342 24.9924 20.401C25.8541 20.0197 26.4347 19.3944 26.6352 19.1551C26.8739 19.1416 27.1118 19.1315 27.3485 19.1246C27.0011 19.5985 26.3048 20.3502 25.1489 20.8136ZM24.7925 19.8204C24.7298 19.6277 24.6791 19.4614 24.6412 19.3323C24.9964 19.2901 25.3526 19.2527 25.7083 19.2217C25.4719 19.4261 25.1617 19.6498 24.7925 19.8204ZM19.8284 33.434C19.6264 33.215 19.3949 33.0139 19.1463 32.8303C19.2187 32.5438 19.3432 32.0051 19.4066 31.4624C19.619 31.6493 19.8055 31.8338 19.9669 32.006C19.971 32.2381 19.9646 32.8197 19.8284 33.434ZM18.8329 31.0057C18.8115 31.5071 18.6936 32.0923 18.605 32.4723C18.3494 32.3205 18.0863 32.1852 17.8255 32.0671L18.3454 30.6863C18.5179 30.7894 18.6804 30.8965 18.8329 31.0057ZM17.8033 30.3946L17.261 31.8351C16.9952 31.7367 16.7423 31.6582 16.5135 31.5992L17.2138 30.1444C17.4205 30.2207 17.6167 30.3048 17.8033 30.3946ZM15.513 30.7037C15.527 30.6865 15.5392 30.6678 15.5492 30.6479L15.9817 29.7886C15.9928 29.7913 16.004 29.7939 16.0151 29.7966C16.0488 29.8059 16.0822 29.8153 16.1127 29.8238C16.2188 29.8536 16.3162 29.8807 16.366 29.8921C16.4545 29.9124 16.541 29.9346 16.6265 29.9576L15.9054 31.4556C15.7211 31.3933 15.5817 31.3027 15.4908 31.184C15.3871 31.0486 15.3964 30.8466 15.513 30.7037ZM16.2819 32.1731C16.7415 32.2891 17.4051 32.5247 18.0456 32.8682C17.9029 32.9106 17.7184 32.9542 17.4806 32.9921C16.6198 33.1298 16.2026 32.941 16.1796 32.8144C16.1539 32.6724 16.211 32.4048 16.2819 32.1731ZM17.0129 34.8388C17.1582 34.1908 17.2347 33.8484 17.2747 33.6679C17.2773 33.6565 17.2792 33.6446 17.2817 33.633C17.3772 33.6241 17.4753 33.6123 17.5765 33.5962C18.1568 33.5035 18.4975 33.3731 18.6947 33.2646C19.4229 33.7736 19.9963 34.4363 19.9963 35.2304C19.9963 35.8916 19.9045 36.3366 19.3837 37.1089C19.2864 37.1054 19.1809 37.1027 19.0704 37.1C18.5296 37.0866 17.7124 37.0665 17.4267 36.9141C16.8089 36.5844 16.6878 36.289 17.0129 34.8388ZM19.412 42.2656L20.1198 43.4739L20.1172 43.4924C20.1128 43.5418 20.119 43.591 20.1364 43.6354L20.4147 44.3417L19.6679 44.0942C19.508 44.0412 19.3356 44.1282 19.2827 44.2886C19.2298 44.449 19.3166 44.6219 19.4765 44.6749L20.456 44.9995L17.8254 45.2383L19.412 42.2656ZM20.1412 45.6421L19.8579 46.1429C19.8307 46.1907 19.817 46.2432 19.8138 46.2949L18.087 49.9651C17.8807 49.8847 17.6755 49.8023 17.4723 49.7159C17.5176 49.682 17.5544 49.6355 17.5756 49.5784L18.9963 45.746L20.1412 45.6421ZM21.9078 54.0312C21.636 54.142 21.3003 54.1804 20.9555 54.1149C20.871 54.0987 20.7892 54.0782 20.711 54.0522C20.6335 54.023 20.5593 53.9896 20.4891 53.9525C20.3488 53.8784 20.2245 53.7897 20.1206 53.6912C19.9126 53.4941 19.7871 53.2578 19.771 53.0179C19.8957 53.0916 20.0814 53.1799 20.3234 53.2384C20.4528 53.2697 20.6089 53.2782 20.7756 53.275C20.9418 53.2743 21.1225 53.2437 21.2968 53.2231C21.5796 53.186 21.8429 53.1501 21.9864 53.1773C22.1152 53.2044 22.2317 53.2659 22.3213 53.3324C22.4108 53.3988 22.4735 53.468 22.4943 53.4969C22.3912 53.7194 22.1806 53.9167 21.9078 54.0312ZM22.3662 52.8514C22.2775 52.7944 22.1753 52.7487 22.0627 52.7251C21.8884 52.692 21.6132 52.731 21.3172 52.7714C21.0045 52.8211 20.6506 52.8446 20.4298 52.7923C20.1427 52.7229 19.9473 52.6044 19.8563 52.5394C19.9445 52.2728 20.1641 52.0667 20.4437 51.9471C20.5836 51.8873 20.739 51.8493 20.9025 51.8367C20.9843 51.8305 21.0681 51.8306 21.1533 51.8376C21.2385 51.8442 21.3265 51.8507 21.4143 51.8682C21.7548 51.9324 22.0458 52.0945 22.2546 52.3092C22.4646 52.5131 22.5924 52.7703 22.5875 53.04C22.5296 52.9781 22.4547 52.9089 22.3662 52.8514ZM25.1968 54.3517C25.0693 54.4268 24.9238 54.4865 24.7663 54.5258C24.6086 54.5659 24.439 54.5854 24.2645 54.5672C23.9218 54.5379 23.6131 54.4255 23.3808 54.2622C23.2644 54.1825 23.1677 54.0829 23.0942 53.9747C23.0206 53.8672 22.9701 53.7518 22.9462 53.6328C23.0792 53.6925 23.2735 53.7679 23.5219 53.7848C23.7874 53.8078 24.1451 53.7242 24.4845 53.6428C24.7599 53.5685 25.0165 53.4897 25.1624 53.496C25.4245 53.5053 25.6583 53.7021 25.7076 53.7555C25.6347 53.9893 25.4521 54.2014 25.1968 54.3517ZM25.1785 53.0376C25.0013 53.0287 24.7329 53.1175 24.4453 53.1903C24.143 53.2644 23.7942 53.348 23.5682 53.3285C23.2733 53.3087 23.0661 53.1982 22.9674 53.1457C23.0194 52.8693 23.2086 52.6444 23.4695 52.4922C23.7319 52.332 24.0656 52.2482 24.4223 52.2793C24.5949 52.298 24.7591 52.3274 24.9096 52.3804C25.0599 52.4333 25.1966 52.5074 25.3143 52.5976C25.5493 52.7779 25.7096 53.0224 25.7401 53.2911C25.6087 53.1796 25.4081 53.0457 25.1785 53.0376ZM25.3828 51.44C24.6633 51.4197 23.9522 51.3647 23.2514 51.2762L24.6554 49.1286L24.8 49.3173C24.8581 49.3931 24.9477 49.4367 25.0418 49.4367C25.0541 49.4367 25.0666 49.4359 25.079 49.4345C25.1862 49.4212 25.2783 49.3521 25.3214 49.2529L27.0418 45.2857C27.5476 45.2252 28.1734 45.128 28.8414 45.0014C28.1403 46.0551 26.6235 48.287 25.0936 50.228C24.9892 50.3605 25.0116 50.5527 25.1437 50.6575C25.1997 50.7019 25.2664 50.7234 25.3326 50.7234C25.4227 50.7234 25.5119 50.6836 25.5721 50.6072C27.4505 48.224 29.3084 45.4076 29.6859 44.8299C30.5358 44.6455 31.3984 44.4216 32.1249 44.1725C30.5518 46.2779 28.3028 48.9141 25.3828 51.44ZM35.2307 40.6029L35.6668 40.9596C35.25 41.8087 33.211 45.7127 29.1607 49.6633C29.0399 49.781 29.0373 49.9746 29.1547 50.0957C29.2144 50.1573 29.2939 50.1882 29.3733 50.1882C29.4499 50.1882 29.5267 50.1595 29.5859 50.1017C31.6342 48.1038 33.1792 46.1127 34.2681 44.5078L34.9543 45.0441C35.01 45.0876 35.0761 45.1087 35.1416 45.1087C35.2323 45.1087 35.3221 45.0683 35.3823 44.9909C35.4858 44.8577 35.4621 44.6655 35.3292 44.5617L34.6076 43.9979C34.7332 43.8056 34.8517 43.6199 34.9628 43.4422L36.6308 44.7398C36.6863 44.7831 36.7522 44.804 36.8175 44.804C36.9085 44.804 36.9985 44.7633 37.0586 44.6857C37.1618 44.5523 37.1377 44.3602 37.0046 44.2566L35.2837 42.9179C35.3881 42.7436 35.4841 42.5792 35.572 42.4257L38.0948 44.5276C38.1518 44.5751 38.2208 44.5982 38.2894 44.5982C38.377 44.5982 38.4639 44.5605 38.5242 44.4878C38.6319 44.3579 38.6141 44.1651 38.4845 44.0572L35.8747 41.8827C35.9906 41.6688 36.0825 41.4913 36.1509 41.3555L39.4197 44.0288L38.2846 47.226L35.1316 47.3309C34.9767 47.336 34.8502 47.4569 34.8378 47.6119L34.6734 49.6591C32.0988 50.7734 29.2709 51.4063 26.3028 51.4458C31.5094 46.794 34.4938 41.8912 35.2307 40.6029ZM38.0248 47.8465C37.1597 48.4166 36.2523 48.9269 35.3083 49.3718L35.4239 47.933L38.0248 47.8465ZM26.7206 52.6393C26.8393 52.5433 26.9787 52.464 27.1328 52.4069C27.2099 52.3783 27.2908 52.3554 27.3747 52.3386C27.4587 52.3228 27.5457 52.3115 27.6347 52.3015C27.9799 52.2692 28.3038 52.3449 28.5626 52.4938C28.6921 52.5703 28.8041 52.6576 28.8927 52.7599C28.9813 52.8629 29.0465 52.9813 29.0803 53.1115C29.0078 53.068 28.9173 53.0221 28.8166 52.9911C28.716 52.9604 28.6041 52.9351 28.4897 52.9468C28.3131 52.9631 28.0587 53.0765 27.7847 53.197C27.7126 53.2284 27.6379 53.2626 27.5626 53.2924C27.4871 53.3202 27.4112 53.3468 27.3373 53.3703C27.1893 53.4173 27.049 53.4514 26.9357 53.4561C26.6407 53.4673 26.4207 53.4101 26.3154 53.3685C26.3281 53.0918 26.4837 52.8306 26.7206 52.6393ZM28.6922 54.2462C28.4606 54.4275 28.148 54.557 27.7986 54.5889C27.6277 54.6086 27.4608 54.5858 27.3061 54.5556C27.1512 54.5229 27.0077 54.4718 26.8812 54.4056C26.6279 54.2732 26.4433 54.0806 26.3628 53.8542C26.5028 53.8909 26.7054 53.9246 26.9539 53.9144C27.0869 53.9089 27.2393 53.8741 27.3989 53.8251C27.4786 53.7999 27.5603 53.7743 27.642 53.7415C27.7224 53.7072 27.8049 53.672 27.8868 53.6371C28.1489 53.5234 28.3926 53.4164 28.538 53.403C28.7998 53.3838 29.0573 53.5323 29.1135 53.5769C29.0742 53.8193 28.9248 54.069 28.6922 54.2462ZM29.7818 52.3433C29.9925 52.1251 30.2897 51.9464 30.6413 51.8798C30.8117 51.8475 30.9799 51.8418 31.1379 51.8482C31.2967 51.8578 31.448 51.8915 31.5854 51.9459C31.86 52.0548 32.0803 52.2461 32.1824 52.4962C32.0258 52.425 31.7967 52.3515 31.5738 52.4068C31.4877 52.4282 31.3858 52.4766 31.2735 52.5398C31.2173 52.571 31.1588 52.6074 31.0978 52.6433C31.037 52.6777 30.9734 52.7138 30.9089 52.7503C30.6382 52.905 30.3252 53.0815 30.1025 53.1251C29.8119 53.1776 29.5835 53.1327 29.4742 53.1085C29.4501 52.8292 29.5711 52.5572 29.7818 52.3433ZM31.9466 53.6665C31.7414 53.8789 31.452 54.0647 31.1061 54.1253C30.7683 54.1916 30.4409 54.1685 30.1735 54.0753C29.904 53.9718 29.6946 53.7986 29.5849 53.583C29.7287 53.6026 29.9362 53.623 30.1808 53.577C30.4424 53.5259 30.7641 53.3469 31.0687 53.175C31.1925 53.108 31.3099 53.0332 31.4145 52.9737C31.5193 52.9145 31.6112 52.87 31.6822 52.8524C31.9368 52.7892 32.2149 52.9143 32.2769 52.9521C32.27 53.1972 32.1517 53.4515 31.9466 53.6665ZM32.5719 52.4394C32.5108 52.1655 32.5938 51.8772 32.7729 51.6331C32.8627 51.511 32.9768 51.3998 33.1111 51.3065C33.2437 51.2078 33.3949 51.122 33.5638 51.0622C33.8896 50.9445 34.226 50.9434 34.5094 51.0045C34.7946 51.0722 35.0376 51.23 35.1719 51.4637C35.008 51.416 34.7723 51.3766 34.5601 51.4645C34.5191 51.4815 34.4751 51.5058 34.4286 51.5357C34.3811 51.5632 34.331 51.596 34.2788 51.6329C34.1744 51.7064 34.0615 51.7957 33.9445 51.8878C33.6983 52.0814 33.4148 52.3077 33.1955 52.3671C32.9127 52.4524 32.6837 52.4493 32.5719 52.4394ZM35.0971 52.662C35.0538 52.7229 35.005 52.7822 34.9508 52.8389C34.8963 52.8944 34.8352 52.9438 34.7699 52.9915C34.6391 53.086 34.4889 53.1663 34.3237 53.2253C34.1616 53.2832 33.9989 53.3185 33.8424 53.3327C33.6847 53.3435 33.5312 53.3276 33.3915 53.2963C33.1111 53.2321 32.8817 53.0924 32.7445 52.8942C32.8898 52.8944 33.0949 52.8765 33.3332 52.8044C33.5907 52.7341 33.8813 52.5007 34.1591 52.2863C34.383 52.1098 34.5937 51.9523 34.7269 51.8916C34.9693 51.7912 35.2603 51.8747 35.3265 51.9032C35.3527 52.1479 35.2704 52.4182 35.0971 52.662ZM35.644 50.5339C35.716 50.3992 35.8134 50.2719 35.9332 50.1593C36.0525 50.0457 36.1968 49.9524 36.353 49.8644C36.6587 49.7008 36.9868 49.6448 37.2834 49.6814C37.5749 49.7101 37.8347 49.8304 37.9989 50.0442C37.9151 50.0322 37.8136 50.025 37.7085 50.0354C37.604 50.0468 37.4951 50.0741 37.3927 50.1266C37.236 50.2101 37.0456 50.4132 36.8398 50.6305C36.6269 50.8658 36.3633 51.1023 36.1595 51.2022C35.892 51.3274 35.6672 51.361 35.5538 51.363C35.4581 51.1029 35.5004 50.8027 35.644 50.5339ZM38.0853 51.2435C37.9422 51.5004 37.7042 51.7411 37.3942 51.9063C37.2438 51.99 37.0839 52.04 36.9283 52.0702C36.7727 52.1006 36.6205 52.1095 36.4781 52.0979C36.1931 52.0747 35.9484 51.9699 35.786 51.7919C35.9297 51.7719 36.1292 51.7234 36.3543 51.6172C36.5949 51.5019 36.8644 51.2574 37.1051 50.9959C37.3028 50.7895 37.4858 50.5963 37.6148 50.5275C37.732 50.4677 37.862 50.4437 37.9731 50.4392C38.0844 50.4351 38.1765 50.4499 38.2108 50.4595C38.2688 50.6975 38.2274 50.9839 38.0853 51.2435ZM38.3456 49.0629C38.4511 48.7741 38.66 48.5005 38.9584 48.3024C39.2427 48.1038 39.5544 47.9958 39.8527 47.9919C40.0012 47.9891 40.1448 48.0108 40.2753 48.0567C40.4037 48.0997 40.5197 48.1681 40.6149 48.2628C40.4487 48.2659 40.2051 48.2826 40.0207 48.4198C39.8777 48.525 39.7181 48.7548 39.5442 48.9994C39.3539 49.2459 39.1331 49.5288 38.9441 49.6546C38.7006 49.8226 38.4724 49.8699 38.3616 49.8891C38.2296 49.64 38.2387 49.3482 38.3456 49.0629ZM40.8546 49.4341C40.7473 49.7084 40.5493 49.9871 40.261 50.1874C39.9745 50.3785 39.6629 50.4834 39.3793 50.5007C39.0978 50.522 38.8325 50.4367 38.6485 50.2827C38.7194 50.2649 38.8037 50.239 38.897 50.2016C38.9905 50.1646 39.088 50.1079 39.1922 50.0399C39.4137 49.8911 39.6437 49.6059 39.8555 49.326C40.0221 49.0926 40.1763 48.8744 40.2939 48.7877C40.5057 48.6324 40.8117 48.6404 40.8799 48.6465C40.9724 48.8793 40.9615 49.1583 40.8546 49.4341ZM40.8258 47.24C40.8435 47.1664 40.8694 47.0945 40.8992 47.021C40.9283 46.9464 40.9638 46.8728 41.0056 46.8012C41.0892 46.6581 41.1979 46.523 41.3315 46.4033C41.5947 46.1768 41.8856 46.0245 42.1786 45.9787C42.4701 45.9322 42.7567 45.9844 42.9713 46.1477C42.8005 46.1664 42.5661 46.2201 42.4025 46.3816C42.2749 46.5052 42.1539 46.7614 42.0034 47.0158C41.8495 47.2878 41.6705 47.6004 41.5013 47.7521C41.2725 47.9393 41.0585 48.0237 40.9511 48.0575C40.7884 47.8293 40.7539 47.5328 40.8258 47.24ZM43.3622 47.2761C43.2951 47.5654 43.1368 47.869 42.8712 48.0991C42.6138 48.3279 42.3246 48.48 42.0426 48.5308C41.7579 48.5791 41.4911 48.5386 41.2871 48.4091C41.4218 48.3536 41.6055 48.2589 41.7982 48.1011C41.9969 47.923 42.1821 47.604 42.3563 47.2998C42.3918 47.2383 42.4267 47.1777 42.46 47.12C42.4931 47.06 42.5244 47.0032 42.5531 46.9512C42.6131 46.8467 42.6697 46.7615 42.7217 46.7101C42.9087 46.5256 43.2114 46.4913 43.2838 46.4922C43.4022 46.7069 43.4295 46.9863 43.3622 47.2761ZM46.1148 17.5395C46.211 17.6893 46.4147 17.8763 46.6387 18.0747C46.8775 18.2816 47.1282 18.5338 47.2371 18.7334C47.3778 18.9938 47.4046 19.2256 47.4156 19.337C47.1574 19.445 46.8615 19.4122 46.593 19.276C46.315 19.1439 46.0701 18.905 45.8932 18.5919C45.7203 18.2897 45.6559 17.9599 45.672 17.6665C45.692 17.3714 45.8074 17.1039 46.015 16.9318C45.9946 17.1025 45.9942 17.3432 46.1148 17.5395ZM47.1054 20.397C47.1632 20.1071 47.3117 19.8564 47.5393 19.712C47.4974 19.8788 47.4661 20.1175 47.5605 20.3275C47.6367 20.4884 47.8164 20.6991 48.0118 20.9251C48.2217 21.1611 48.4392 21.4431 48.5201 21.6557C48.6268 21.9319 48.6227 22.1653 48.6187 22.2773C48.3481 22.3506 48.0611 22.2787 47.8109 22.1095C47.6828 22.0257 47.5643 21.9172 47.4622 21.7877C47.3599 21.6584 47.2767 21.5072 47.206 21.3419C47.14 21.181 47.1012 21.0173 47.0869 20.8569C47.0736 20.6962 47.0754 20.5427 47.1054 20.397ZM48.093 23.7386C48.0983 23.5786 48.1229 23.4264 48.1716 23.2863C48.2673 23.007 48.4492 22.7778 48.6923 22.6652C48.6301 22.8245 48.5659 23.0574 48.6316 23.278C48.6558 23.3635 48.7119 23.4625 48.7755 23.5735C48.8393 23.6843 48.918 23.805 48.9992 23.9301C49.1748 24.1922 49.355 24.5005 49.4043 24.7226C49.4716 25.011 49.4391 25.241 49.4178 25.3517C49.1388 25.3873 48.868 25.276 48.6396 25.0754C48.5244 24.975 48.422 24.8516 48.3389 24.7097C48.2973 24.6388 48.2606 24.5632 48.2294 24.4835C48.1966 24.4042 48.1668 24.3213 48.1447 24.2345C48.1012 24.0664 48.0852 23.8993 48.093 23.7386ZM49.3831 33.3504C49.4084 33.5056 49.4354 33.6722 49.4513 33.8284C49.47 33.9851 49.4607 34.1281 49.4392 34.2396C49.3774 34.5292 49.2641 34.7288 49.2016 34.8221C48.9329 34.7434 48.7212 34.5312 48.5944 34.2558C48.5311 34.118 48.4891 33.964 48.4723 33.8009C48.4527 33.6372 48.4487 33.4626 48.4785 33.2856C48.5062 33.114 48.5586 32.9542 48.6303 32.81C48.6656 32.7378 48.7079 32.6699 48.7503 32.6059C48.7914 32.5417 48.8369 32.4821 48.886 32.4275C49.0823 32.2098 49.337 32.0728 49.6059 32.068C49.4854 32.1888 49.3376 32.3767 49.3123 32.6056C49.2939 32.7825 49.3327 33.0554 49.3831 33.3504ZM49.3244 31.5243C49.2101 31.4415 49.1073 31.332 49.0243 31.2037C48.8569 30.9465 48.7678 30.6155 48.7856 30.2569C48.7908 29.5655 49.2198 28.9846 49.7414 28.9C49.6896 28.9677 49.6373 29.053 49.5917 29.1502C49.5459 29.2475 49.5132 29.3563 49.5122 29.4716C49.5104 29.6495 49.5973 29.9151 49.6892 30.201C49.7415 30.3517 49.778 30.5127 49.8116 30.6653C49.8433 30.8178 49.8629 30.9614 49.8561 31.0747C49.838 31.3703 49.7591 31.5838 49.7016 31.6839C49.5636 31.663 49.4364 31.6069 49.3244 31.5243ZM49.8432 28.2654C49.8248 28.3714 49.7997 28.4536 49.7807 28.507C49.4992 28.5024 49.2499 28.3536 49.048 28.1231C48.8468 27.8918 48.7218 27.577 48.677 27.2221C48.6575 27.05 48.6673 26.8823 48.6957 26.7248C48.7206 26.5677 48.7687 26.4203 48.836 26.2885C48.9713 26.0253 49.1817 25.8238 49.4365 25.7461C49.3574 25.8946 49.2574 26.1168 49.2923 26.3441C49.3053 26.432 49.3434 26.5384 49.3953 26.6564C49.4433 26.775 49.5033 26.9056 49.5658 27.0409C49.631 27.1834 49.7031 27.3365 49.7575 27.4829C49.8089 27.6296 49.8472 27.7691 49.8554 27.8824C49.8661 28.03 49.8581 28.1595 49.8432 28.2654ZM48.2938 35.4495C48.5213 35.2611 48.7946 35.1601 49.0623 35.1914C48.9246 35.2944 48.7498 35.46 48.6906 35.6825C48.6423 35.8535 48.6704 36.1366 48.6687 36.432C48.6732 36.7446 48.6766 37.1049 48.6073 37.3215C48.5085 37.6005 48.3629 37.7807 48.2882 37.8647C48.0327 37.7507 47.8534 37.5128 47.7679 37.2242C47.7282 37.0808 47.6991 36.9198 47.6994 36.7543C47.6992 36.5886 47.7247 36.4171 47.7795 36.2462C47.8927 35.9176 48.0635 35.6378 48.2938 35.4495ZM48.1014 38.2122C48.0277 38.2544 47.9466 38.3129 47.8677 38.3849C47.7878 38.4566 47.7156 38.5441 47.6699 38.6499C47.5993 38.813 47.5764 39.0916 47.5502 39.3909C47.5155 39.7023 47.4626 40.0559 47.3637 40.2606C47.2982 40.3932 47.2273 40.5015 47.1595 40.5842C47.0888 40.6656 47.0252 40.7233 46.9815 40.7594C46.8624 40.6861 46.767 40.5844 46.6957 40.4644C46.6601 40.4043 46.6306 40.3397 46.6072 40.2715C46.5816 40.2022 46.5619 40.1293 46.5484 40.0538C46.4944 39.7516 46.5373 39.4102 46.6958 39.0885C46.8348 38.7703 47.0548 38.5217 47.3092 38.3665C47.5665 38.213 47.8406 38.1455 48.1014 38.2122ZM46.7458 41.0766C46.5871 41.1402 46.3831 41.2583 46.2662 41.4564C46.1727 41.6075 46.1102 41.8789 46.0416 42.1703C46.0036 42.3224 45.9709 42.4912 45.9169 42.636C45.8657 42.7827 45.8088 42.9157 45.7446 43.0093C45.5773 43.2533 45.3971 43.394 45.304 43.456C45.0871 43.2783 44.9735 42.9991 44.962 42.6946C44.9564 42.5421 44.9765 42.383 45.0233 42.2254C45.0467 42.1465 45.0768 42.068 45.1137 41.9907C45.148 41.9117 45.1875 41.8328 45.2348 41.7566C45.4159 41.4604 45.6749 41.2481 45.9453 41.1267C46.2096 41.0025 46.4965 40.9758 46.7458 41.0766ZM45.0255 43.7368C44.8598 43.7788 44.6363 43.8643 44.4973 44.0477C44.3941 44.1926 44.2897 44.4479 44.1817 44.7264C44.0664 45.0177 43.9379 45.3579 43.779 45.5207C43.5786 45.7382 43.3797 45.8522 43.2784 45.9006C43.087 45.6958 43.0124 45.4053 43.0432 45.1037C43.0587 44.9527 43.1009 44.7988 43.1694 44.6499C43.2323 44.496 43.3206 44.3463 43.4358 44.2087C43.5472 44.0754 43.6739 43.9649 43.8092 43.8777C43.9464 43.792 44.0791 43.719 44.2213 43.6771C44.502 43.5908 44.7915 43.6035 45.0255 43.7368ZM45.1851 45.686C45.0747 45.818 44.9523 45.931 44.8244 46.0227C44.6956 46.1136 44.5544 46.177 44.4184 46.2214C44.1445 46.3088 43.8761 46.3052 43.6575 46.2044C43.7827 46.1306 43.9504 46.0107 44.1191 45.8274C44.3053 45.6357 44.4364 45.2858 44.5683 44.9607C44.6739 44.6963 44.7722 44.4504 44.857 44.331C45.0158 44.1217 45.3093 44.0461 45.3808 44.0371C45.6722 44.4269 45.6477 45.1518 45.1851 45.686ZM47.1636 42.9889C47.1183 43.0622 47.0694 43.1311 47.0177 43.1953C46.9647 43.2587 46.9058 43.3153 46.8466 43.368C46.7274 43.4729 46.6004 43.5576 46.4715 43.6197C46.2136 43.744 45.9486 43.7772 45.7193 43.7067C45.8326 43.6162 45.9812 43.4738 46.1221 43.2682C46.1976 43.1582 46.2612 43.0151 46.3178 42.8578C46.374 42.7003 46.4124 42.5217 46.4551 42.3508C46.5221 42.073 46.5832 41.8139 46.6601 41.6895C46.793 41.4628 47.0674 41.3451 47.1379 41.3272C47.3095 41.5038 47.4127 41.7685 47.4275 42.0683C47.4331 42.362 47.3484 42.6898 47.1636 42.9889ZM48.7709 40.0527C48.4641 40.6737 47.9134 41.0421 47.4276 40.9534C47.4794 40.9018 47.5412 40.8379 47.6005 40.757C47.6581 40.6754 47.7173 40.5789 47.7722 40.467C47.8311 40.3472 47.8736 40.1961 47.9072 40.0319C47.9387 39.8667 47.9704 39.6926 47.9832 39.5144C48.0098 39.2288 48.0332 38.9626 48.0913 38.8283C48.1435 38.7073 48.2366 38.6104 48.3253 38.5397C48.4104 38.4676 48.4908 38.4219 48.5236 38.4083C48.6209 38.4846 48.7043 38.5849 48.7706 38.7034C48.8337 38.8205 48.8778 38.955 48.9014 39.101C48.9482 39.3924 48.9124 39.7307 48.7709 40.0527ZM49.9645 36.9238C49.8588 37.2522 49.6831 37.5295 49.4696 37.7181C49.248 37.9044 48.9972 38.0051 48.7557 37.997C48.8431 37.8805 48.9573 37.7068 49.0397 37.4714C49.1212 37.2168 49.1199 36.8477 49.1165 36.4971C49.1159 36.4261 49.1152 36.356 49.1146 36.2894C49.1116 36.2216 49.1094 36.1567 49.1088 36.0964C49.1077 35.9758 49.1132 35.8736 49.1321 35.8028C49.1997 35.5487 49.4431 35.3649 49.5061 35.3288C49.7167 35.4533 49.8818 35.6801 49.9705 35.9642C50.0581 36.2474 50.0779 36.5904 49.9645 36.9238ZM50.7341 33.6644C50.7065 33.8346 50.659 33.9945 50.5959 34.1388C50.5267 34.2819 50.4407 34.4093 50.3453 34.5168C50.154 34.7318 49.9213 34.8658 49.682 34.8904C49.7523 34.763 49.8356 34.5741 49.8876 34.3301C49.9502 34.07 49.8891 33.7025 49.8346 33.3547C49.7879 33.0728 49.7525 32.8116 49.7658 32.6657C49.7947 32.4043 50.0077 32.1892 50.0644 32.1449C50.2909 32.2403 50.4875 32.4433 50.6172 32.7134C50.6846 32.8486 50.7265 32.9991 50.745 33.1596C50.7645 33.3201 50.7622 33.4907 50.7341 33.6644ZM50.7925 31.2288C50.635 31.4676 50.4281 31.6318 50.1882 31.6876C50.2486 31.5527 50.2954 31.3536 50.3126 31.1047C50.3206 30.9715 50.3014 30.8158 50.269 30.6515C50.2369 30.4872 50.1929 30.3144 50.136 30.1454C50.0498 29.872 49.9682 29.6177 49.9696 29.4713C49.9708 29.3395 50.019 29.2139 50.0733 29.1142C50.1249 29.0146 50.1811 28.9409 50.2063 28.9155C50.3253 28.9479 50.4409 29.0078 50.5473 29.0912C50.6503 29.1744 50.7435 29.2809 50.8217 29.4061C50.9783 29.656 51.0751 29.9812 51.0714 30.3328C51.0554 30.6773 50.9484 30.9904 50.7925 31.2288ZM50.5786 26.093C50.6753 26.2059 50.7605 26.3392 50.827 26.4884C50.8887 26.6382 50.932 26.8037 50.9511 26.9791C50.9937 27.3228 50.9269 27.6493 50.8036 27.9077C50.7414 28.0371 50.6644 28.1497 50.5737 28.2407C50.4806 28.332 50.3759 28.4016 50.2629 28.4454C50.3029 28.3034 50.3305 28.0991 50.3117 27.8499C50.302 27.7165 50.2626 27.5646 50.2088 27.4061C50.1491 27.2481 50.0749 27.0836 50.002 26.9232C49.9423 26.7936 49.8877 26.6681 49.8396 26.5577C49.7911 26.4474 49.7557 26.3513 49.7451 26.2788C49.7059 26.0188 49.8602 25.7524 49.899 25.6948C50.1462 25.7242 50.3839 25.8673 50.5786 26.093ZM50.1696 23.207C50.252 23.3464 50.3185 23.5037 50.3625 23.6742C50.3841 23.7578 50.4 23.841 50.4106 23.9231C50.4194 24.0056 50.4214 24.0873 50.4192 24.1667C50.4144 24.3257 50.3895 24.4765 50.3468 24.613C50.2644 24.8857 50.0954 25.1037 49.8862 25.222C49.903 25.0764 49.908 24.8689 49.8513 24.6257C49.8225 24.4952 49.7614 24.3507 49.6853 24.2016C49.6094 24.0523 49.5081 23.9011 49.4143 23.7524C49.3375 23.6325 49.2629 23.5166 49.2031 23.4132C49.1411 23.3104 49.0913 23.2206 49.0709 23.1503C48.9963 22.8981 49.1084 22.6142 49.1433 22.5505C49.3879 22.5467 49.6468 22.6542 49.8705 22.8504C49.981 22.9488 50.0878 23.0675 50.1696 23.207ZM49.3286 20.4878C49.585 21.1309 49.4538 21.7936 49.0648 22.0845C49.0595 21.9388 49.0397 21.7315 48.9499 21.4988C48.8563 21.2485 48.6325 20.9592 48.3993 20.6932C48.2148 20.4761 48.0418 20.2748 47.979 20.1424C47.8713 19.9026 47.9445 19.6066 47.9706 19.539C48.4507 19.4649 49.0684 19.8306 49.3286 20.4878ZM47.8885 17.4711C48.0588 17.77 48.126 18.0945 48.1177 18.3782C48.1062 18.6641 48.003 18.9177 47.8326 19.0874C47.8071 18.9442 47.7624 18.7405 47.6429 18.5218C47.5166 18.2867 47.2589 18.0283 46.9932 17.7949C46.7813 17.6041 46.5856 17.4256 46.5064 17.3025C46.3688 17.0785 46.4038 16.7759 46.421 16.7055C46.8891 16.5705 47.5458 16.8549 47.8885 17.4711ZM44.5324 14.0882C44.9811 13.896 45.6663 14.0976 46.0828 14.6651C46.2874 14.941 46.3956 15.2531 46.4223 15.5356C46.4452 15.8213 46.3759 16.0848 46.2279 16.2748C46.1845 16.1362 46.1142 15.9401 45.9693 15.7377C45.814 15.5209 45.5271 15.2963 45.2344 15.098C44.9999 14.9356 44.7846 14.782 44.6907 14.6698C44.5265 14.4646 44.5238 14.1601 44.5324 14.0882ZM44.9173 15.4197C44.9821 15.4651 45.0491 15.512 45.1152 15.5582C45.1795 15.6069 45.2431 15.6566 45.3031 15.7063C45.4228 15.8058 45.5277 15.9057 45.593 15.9985C45.7637 16.2402 45.8209 16.4657 45.8456 16.5751C45.603 16.7148 45.3051 16.7197 45.0211 16.6183C44.7304 16.5207 44.4549 16.3156 44.2417 16.0257C43.8319 15.4665 43.7876 14.7603 44.1571 14.3629C44.1579 14.5346 44.1872 14.7735 44.3312 14.9534C44.4454 15.0901 44.6699 15.2512 44.9173 15.4197ZM43.9484 12.1048C44.1845 12.354 44.3304 12.6499 44.3912 12.9269C44.448 13.2081 44.4121 13.4776 44.2883 13.6844C44.2284 13.5521 44.134 13.3668 43.9662 13.1831C43.7853 12.9873 43.4737 12.7993 43.159 12.6382C42.9063 12.5059 42.6741 12.3795 42.5672 12.2797C42.3794 12.0961 42.3397 11.7942 42.3395 11.7219C42.7616 11.4761 43.4659 11.5929 43.9484 12.1048ZM42.8834 12.9963C43.024 13.068 43.1707 13.149 43.301 13.2337C43.4321 13.3178 43.5484 13.404 43.6246 13.4881C43.8228 13.7077 43.9079 13.9238 43.9456 14.0294C43.7219 14.1979 43.4268 14.2394 43.1322 14.1737C42.8326 14.1117 42.5329 13.9427 42.2865 13.6804C41.8113 13.1756 41.6821 12.4798 42.0003 12.0403C42.022 12.2106 42.0801 12.4442 42.2449 12.6051C42.3746 12.727 42.6172 12.8593 42.8834 12.9963ZM41.5179 9.82446C41.7832 10.0426 41.9637 10.3189 42.058 10.5864C42.1487 10.8585 42.1458 11.1304 42.0481 11.3508C41.9726 11.2268 41.8564 11.0544 41.6673 10.8926C41.4641 10.7202 41.1316 10.572 40.7996 10.4508C40.5329 10.3501 40.2866 10.2539 40.1683 10.1679C39.9594 10.0088 39.883 9.71392 39.8738 9.64209C40.262 9.34626 40.9764 9.37496 41.5179 9.82446ZM39.8884 10.5306C40.0321 10.6353 40.2891 10.7366 40.5698 10.8401C40.7181 10.8939 40.8738 10.9559 41.0134 11.0243C41.1537 11.0917 41.2796 11.1631 41.3654 11.2372C41.5889 11.4307 41.6996 11.6349 41.7499 11.7352C41.5484 11.9297 41.2605 12.007 40.9602 11.9778C40.6551 11.9532 40.3376 11.8219 40.061 11.5923C39.7903 11.3735 39.6117 11.0886 39.5212 10.8092C39.4336 10.5269 39.445 10.2357 39.5765 10.0002C39.619 10.1666 39.7053 10.3912 39.8884 10.5306ZM38.8206 7.86191C39.1128 8.04345 39.3256 8.29709 39.453 8.55056C39.578 8.8081 39.608 9.07963 39.5385 9.31028C39.448 9.19682 39.3123 9.03875 39.1034 8.90327C38.8808 8.75655 38.5313 8.65268 38.1869 8.57384C37.9104 8.50631 37.6527 8.44434 37.5247 8.37381C37.2974 8.24243 37.1841 7.95933 37.1658 7.88916C37.5118 7.54709 38.2264 7.48251 38.8206 7.86191ZM36.9171 8.28251C36.9803 8.44239 37.0942 8.6544 37.2932 8.76941C37.4487 8.85522 37.7174 8.92086 38.008 8.98925C38.3159 9.05734 38.6565 9.15916 38.8468 9.28296C39.0936 9.44566 39.2277 9.63591 39.2902 9.7288C39.1143 9.94692 38.8384 10.0594 38.5373 10.0678C38.2306 10.0836 37.9016 9.99047 37.5978 9.79996C37.3032 9.616 37.0895 9.35853 36.9648 9.09272C36.8425 8.82371 36.8168 8.5332 36.9171 8.28251ZM36.2846 10.0299C43.3999 13.8248 47.9326 21.3423 47.9326 29.4577C47.9326 36.7409 44.3871 43.2073 38.9305 47.2118L39.9181 44.439L40.2819 44.7352C40.4126 44.8419 40.6052 44.8222 40.7118 44.6915C40.7215 44.6797 40.7293 44.6668 40.7369 44.654C40.7383 44.655 40.7401 44.6562 40.7415 44.6573C44.6902 40.803 47.1343 35.4193 47.1343 29.4702C47.1343 21.7963 42.8917 14.6774 36.2846 10.9548V10.0299ZM35.8721 17.3438C35.5528 17.6668 35.0127 18.2113 34.7187 18.4947C34.5973 18.6118 34.5935 18.8054 34.7103 18.9271C34.7701 18.9895 34.85 19.021 34.93 19.021C35.0061 19.021 35.0823 18.9926 35.1414 18.9356C35.5133 18.5769 36.246 17.8348 36.4844 17.5928C36.6373 17.659 36.7896 17.7279 36.9412 17.8001C36.6324 18.1128 36.0464 18.7043 35.7351 19.0044C35.6138 19.1215 35.61 19.315 35.7267 19.4368C35.7866 19.4992 35.8665 19.5306 35.9465 19.5306C36.0226 19.5306 36.0988 19.5022 36.1578 19.4452C36.5433 19.0736 37.3176 18.2886 37.5262 18.0767C37.6565 18.1438 37.8249 18.2375 38.0242 18.3627C37.8015 18.6149 37.2996 19.1578 36.8045 19.5181C36.6682 19.6173 36.6379 19.8085 36.7369 19.9452C36.7965 20.0276 36.8895 20.0713 36.9839 20.0713C37.046 20.0713 37.1087 20.0524 37.1628 20.013C37.7541 19.5826 38.3281 18.9454 38.5331 18.7087C38.7118 18.8392 38.9037 18.9886 39.1067 19.16C38.8443 19.3859 38.338 19.804 37.8382 20.118C37.6954 20.2076 37.6523 20.3964 37.7417 20.5395C37.7996 20.6321 37.8989 20.683 38.0004 20.683C38.0557 20.683 38.1117 20.6679 38.162 20.6362C38.7434 20.271 39.3139 19.7908 39.5663 19.5705C39.6906 19.6873 39.8175 19.8113 39.9468 19.9437C39.702 20.1268 39.2319 20.4646 38.7678 20.7208C38.6203 20.8023 38.5666 20.9883 38.6478 21.1362C38.7034 21.2373 38.8076 21.2945 38.9152 21.2945C38.965 21.2945 39.0154 21.2823 39.0621 21.2565C39.5995 20.9597 40.1277 20.5738 40.3664 20.3929C40.4941 20.5362 40.6233 20.6873 40.7535 20.8462C40.4314 21.0376 39.9832 21.2846 39.74 21.3466C39.5768 21.3883 39.4782 21.5546 39.5196 21.7184C39.5547 21.8568 39.6788 21.9488 39.815 21.9488C39.8398 21.9488 39.8651 21.9458 39.8903 21.9394C40.2448 21.849 40.8112 21.526 41.1343 21.3307C41.1947 21.4108 41.2551 21.4922 41.3157 21.5759C41.3164 21.5769 41.3174 21.5783 41.3182 21.5794C41.2975 21.5897 41.2755 21.6004 41.2551 21.6106C40.9329 21.7712 40.6286 21.9229 40.4679 21.9545C40.3026 21.9871 40.1951 22.1478 40.2275 22.3135C40.256 22.4593 40.3836 22.5604 40.5264 22.5604C40.5459 22.5604 40.5656 22.5585 40.5855 22.5546C40.8266 22.5071 41.1355 22.3532 41.5266 22.1582C41.5477 22.1478 41.5704 22.1367 41.5918 22.126C41.5927 22.1796 41.5847 22.2336 41.5636 22.2852C41.5152 22.4041 41.4164 22.4911 41.2926 22.5242C39.7666 22.9313 38.7491 22.0383 38.7075 22.0009C38.707 22.0005 38.7065 22.0001 38.706 21.9997C38.7025 21.9966 38.6984 21.9941 38.6947 21.9911C38.6859 21.9838 38.6773 21.9764 38.6678 21.9702C38.4662 21.8396 38.2666 21.7081 38.0671 21.5765C36.7654 20.7183 35.437 19.8438 33.5444 19.2479C33.5285 19.2361 33.5111 19.2255 33.4924 19.2167C33.4481 19.1959 33.4015 19.188 33.3557 19.1891C32.9583 19.0703 32.535 18.9643 32.0834 18.8725C32.073 18.8666 32.0631 18.86 32.0518 18.8553C31.9995 18.8331 31.9448 18.8279 31.8924 18.8351C31.5073 18.7618 31.1006 18.6994 30.6706 18.6489C30.6684 18.648 30.6666 18.6466 30.6644 18.6457C30.6099 18.6237 30.5529 18.6195 30.4989 18.6289C30.1223 18.5882 29.7266 18.5572 29.3121 18.5358C29.2541 18.5149 29.1938 18.5126 29.1373 18.5264C28.8295 18.5129 28.5109 18.5049 28.1808 18.5028C28.1337 18.5026 28.0866 18.5024 28.0394 18.5024C23.8522 18.5024 19.1258 19.6541 16.4372 20.4229C16.83 20.2284 17.2522 20.0052 17.7062 19.7491C18.8881 19.0826 20.0179 18.5042 21.0873 18.017C20.7766 18.3036 20.4924 18.5616 20.3622 18.6684C20.2319 18.7753 20.2127 18.968 20.3194 19.0987C20.3797 19.1725 20.4672 19.2108 20.5556 19.2108C20.6235 19.2108 20.6918 19.1882 20.7485 19.1417C21.1251 18.8327 22.6331 17.4098 22.6971 17.3494C22.7042 17.3427 22.7095 17.335 22.7157 17.3279C22.9079 17.2531 23.0976 17.1818 23.2849 17.1138C22.8614 17.5314 22.4525 17.9264 22.2936 18.0568C22.1632 18.1638 22.144 18.3564 22.2507 18.4871C22.311 18.561 22.3985 18.5993 22.4869 18.5993C22.5548 18.5993 22.6231 18.5766 22.6798 18.5301C23.023 18.2485 24.286 16.9809 24.5773 16.6876C24.7441 16.6385 24.9089 16.5921 25.071 16.5492C24.565 17.0519 24.0101 17.5937 23.8183 17.751C23.6879 17.858 23.6687 18.0507 23.7754 18.1813C23.8357 18.2552 23.9232 18.2934 24.0116 18.2934C24.0795 18.2934 24.1478 18.2708 24.2045 18.2243C24.5849 17.9122 26.0963 16.3877 26.1604 16.3229C26.168 16.3153 26.1736 16.3067 26.1802 16.2985C26.2854 16.2791 26.3891 16.2616 26.4918 16.2454C26.0282 16.7458 25.5097 17.2963 25.3335 17.4534C25.2076 17.5655 25.1963 17.7588 25.3082 17.885C25.3684 17.953 25.4521 17.9877 25.5362 17.9877C25.6083 17.9877 25.6806 17.9622 25.7387 17.9104C26.038 17.6437 27.1107 16.4765 27.4196 16.1391C27.5725 16.1287 27.7219 16.1227 27.8681 16.1207C27.3982 16.6206 26.7762 17.2701 26.5628 17.4453C26.4324 17.5521 26.4132 17.7448 26.5198 17.8755C26.5801 17.9494 26.6677 17.9877 26.756 17.9877C26.8239 17.9877 26.8922 17.965 26.9489 17.9186C27.2982 17.632 28.4476 16.3967 28.6991 16.1253C28.9065 16.129 29.1207 16.1349 29.3401 16.143C28.8207 16.6605 28.1962 17.2727 27.9858 17.4453C27.8555 17.5521 27.8362 17.7448 27.9429 17.8755C28.0032 17.9494 28.0908 17.9877 28.1791 17.9877C28.247 17.9877 28.3153 17.965 28.372 17.9186C28.699 17.6503 29.8147 16.5335 30.1613 16.185C30.3335 16.1963 30.5081 16.2095 30.6852 16.2246C30.3032 16.6084 29.7834 17.1285 29.5261 17.3765C29.4047 17.4935 29.401 17.6871 29.5176 17.8089C29.5776 17.8713 29.6574 17.9027 29.7375 17.9027C29.8135 17.9027 29.8896 17.8744 29.9488 17.8174C30.3118 17.4674 31.1597 16.614 31.4673 16.3039C31.6613 16.3268 31.8573 16.3524 32.0551 16.3811C31.7078 16.7312 31.228 17.2125 30.9699 17.4615C30.8485 17.5786 30.8447 17.7722 30.9614 17.8939C31.0213 17.9563 31.1012 17.9877 31.1812 17.9877C31.2572 17.9877 31.3334 17.9593 31.3925 17.9023C31.7534 17.5543 32.5136 16.7866 32.7953 16.5016C33.0071 16.54 33.2203 16.5821 33.4345 16.6284C33.0846 16.9813 32.5641 17.5041 32.2913 17.7673C32.1699 17.8844 32.1661 18.0779 32.2828 18.1996C32.3427 18.2621 32.4226 18.2934 32.5026 18.2934C32.5786 18.2934 32.6549 18.2651 32.7139 18.2081C33.0812 17.854 33.8621 17.0651 34.1312 16.7927C34.3311 16.8441 34.5314 16.8991 34.7318 16.9585C34.4103 17.2838 33.8881 17.8098 33.6006 18.087C33.4792 18.2041 33.4754 18.3977 33.5921 18.5194C33.652 18.5818 33.7319 18.6133 33.8119 18.6133C33.8879 18.6133 33.9642 18.5849 34.0232 18.5279C34.4043 18.1605 35.1652 17.3892 35.3841 17.167C35.5471 17.2228 35.7097 17.282 35.8721 17.3438ZM34.9631 2.77231C35.0471 2.80802 35.0853 2.83792 35.1403 2.86917C35.47 3.05624 35.6747 3.40709 35.6747 3.78467V14.6859C35.573 14.6559 35.2681 14.6165 34.9631 14.5705V2.77231ZM33.6417 2.19959C33.9467 2.29536 34.1395 2.3864 34.3534 2.47982C34.3534 2.52066 34.3533 14.4773 34.3533 14.4773C34.15 14.4445 33.9467 14.41 33.6417 14.3744V2.19959ZM32.3203 1.79989C32.6252 1.86788 32.8017 1.92724 33.0343 1.99873C33.0343 2.06732 33.0318 14.291 33.0318 14.291C32.8286 14.2606 32.6252 14.2299 32.3203 14.1992V1.79989ZM30.9989 1.51497C31.3038 1.55985 31.5071 1.60694 31.7104 1.65614V14.1253C31.5071 14.0963 31.2512 14.0721 30.9922 14.0442C30.9922 13.9835 30.9989 1.51497 30.9989 1.51497ZM30.389 1.41299C30.389 1.41299 30.389 13.9142 30.3872 13.9796C30.1494 13.9555 29.9252 13.9323 29.6788 13.91C29.6788 13.8686 29.6775 1.31468 29.6775 1.31468C29.9824 1.34507 30.1857 1.37804 30.389 1.41299ZM28.3561 1.18405C28.661 1.20277 28.8643 1.22387 29.0676 1.24708C29.0676 1.24708 29.0705 13.8288 29.0705 13.8604C28.8307 13.8407 28.661 13.823 28.3561 13.8057V1.18405ZM27.0346 1.11005C27.3396 1.11894 27.5429 1.13028 27.7462 1.14351V13.7655C27.5429 13.7512 27.3396 13.7381 27.0346 13.7268V1.11005ZM16.3617 3.93494C16.3617 3.41381 16.6666 2.92833 17.0732 2.65733V12.1438C17.0732 12.3127 17.2097 12.4496 17.3782 12.4496C17.5465 12.4496 17.6831 12.3127 17.6831 12.1438V2.34192C18.8012 1.86438 20.6309 1.29543 23.7819 1.13134V7.14938C23.7819 7.31826 23.9185 7.45516 24.0869 7.45516C24.2553 7.45516 24.3918 7.31826 24.3918 7.14938V1.10558C24.6968 1.09781 24.9001 1.09202 25.1034 1.08865V10.4111C25.1034 10.58 25.2399 10.7168 25.4083 10.7168C25.5767 10.7168 25.7132 10.58 25.7132 10.4111V1.08518C26.0182 1.08564 26.2214 1.08859 26.4248 1.09325V13.7012C25.9165 13.683 25.4056 13.6727 24.904 13.6727C20.6871 13.6727 17.4798 14.2517 16.3617 14.4674V3.93494ZM16.3617 17.4948C16.7683 17.4385 17.7156 17.3302 18.8302 17.2716C18.9984 17.2627 19.1342 17.1189 19.1254 16.9503C19.1165 16.7815 18.9626 16.652 18.7951 16.6608C17.7161 16.7175 16.8699 16.8179 16.3617 16.8778V16.3271C16.9715 16.219 18.6762 15.9435 19.9514 15.8636C20.1195 15.853 20.2539 15.7079 20.2433 15.5393C20.2328 15.3708 20.078 15.2425 19.9102 15.2532C18.656 15.3318 17.0732 15.5863 16.3617 15.7063V15.0915C17.2765 14.9073 20.5521 14.2843 24.904 14.2843C29.3991 14.2843 34.5566 15.1061 35.6747 15.3061V16.6305C34.2516 16.1255 32.8012 15.8426 31.4544 15.6878C31.409 15.6713 31.3673 15.6665 31.3199 15.6724C30.9045 15.6271 30.5027 15.5935 30.1113 15.5691C30.0807 15.5622 30.0513 15.5606 30.0201 15.5632C29.2796 15.5195 28.5904 15.5074 27.9748 15.5074C27.746 15.5074 27.5093 15.5179 27.2648 15.5374C27.263 15.5375 27.2613 15.5377 27.2594 15.5378C26.3915 15.6078 25.4264 15.8005 24.3759 16.1116C24.3473 16.1157 24.3194 16.1238 24.2926 16.1361C22.8019 16.5845 21.1411 17.2697 19.3442 18.179C19.3099 18.1656 19.2599 18.1575 19.2209 18.1575C17.9737 18.1575 16.8699 17.8621 16.3617 17.7286V17.4948ZM15.8074 18.0836C15.8417 18.1567 15.9039 18.2152 15.9835 18.2428C16.0339 18.2602 17.0197 18.5966 18.3037 18.7223C18.0081 18.8813 17.7094 19.0457 17.4073 19.2161C13.5639 21.3839 12.1066 21.0754 12.0981 21.0735C12.0837 21.0695 12.068 21.0665 12.0532 21.0646C11.9138 21.0475 11.4901 20.9472 11.3752 20.7191C11.3136 20.5969 11.3454 20.4229 11.4695 20.2016C11.8631 19.5007 14.201 18.5801 15.8074 18.0836ZM15.7518 9.98703V10.9084C9.14471 14.6186 4.8454 21.7373 4.8454 29.4702C4.8454 36.5798 8.35997 42.8829 13.7312 46.7316C13.7417 46.7392 13.7552 46.7471 13.7657 46.7547C13.7691 46.752 13.774 46.7493 13.7773 46.7467C13.8176 46.7652 13.8616 46.7753 13.9051 46.7753C13.9807 46.7753 14.0569 46.7472 14.1159 46.6908C14.6352 46.1942 14.9345 45.9315 15.124 45.7777C14.8972 46.3779 14.6324 47.0521 14.4689 47.3793C14.3935 47.5303 14.4544 47.7139 14.605 47.7896C14.6488 47.8117 14.6955 47.8221 14.7414 47.8221C14.8531 47.8221 14.9608 47.7602 15.0143 47.6532C15.331 47.0193 15.9705 45.2558 16.1017 44.8909C16.2993 44.6683 16.5676 44.359 16.9463 43.9187C17.629 43.125 18.2345 42.5963 18.7317 42.244L17.0209 45.4496C16.968 45.5487 16.9736 45.669 17.0355 45.7628C17.0923 45.8488 17.1881 45.8997 17.2897 45.8997C17.2988 45.8997 17.308 45.8993 17.3172 45.8984L18.3231 45.8071L17.0039 49.3654C16.987 49.411 16.9828 49.4577 16.9875 49.503C9.37671 46.0478 4.05192 38.3623 4.05192 29.4577C4.05192 21.2836 8.63646 13.7699 15.7518 9.98703ZM8.06773 14.0884C8.23627 14.057 8.45967 13.9802 8.61417 13.8093C8.73381 13.6776 8.8428 13.4192 8.96555 13.1465C9.0997 12.8645 9.25047 12.5356 9.41292 12.3767C9.62382 12.1694 9.82815 12.0656 9.93173 12.0223C10.1126 12.2365 10.1723 12.5307 10.1258 12.8312C10.076 13.1292 9.9316 13.4452 9.68268 13.7052C9.4433 13.9586 9.15787 14.1282 8.86559 14.1934C8.58076 14.2646 8.29319 14.2354 8.06773 14.0884ZM15.0041 9.07533C14.9451 9.21627 14.8574 9.34762 14.7508 9.47463C14.6439 9.60145 14.5137 9.71603 14.3615 9.81117C14.0676 9.99616 13.7509 10.0915 13.4517 10.0826C13.1582 10.0814 12.8867 9.98316 12.7036 9.78551C12.8748 9.79629 13.1096 9.77592 13.3013 9.64864C13.4494 9.55062 13.6172 9.32572 13.8035 9.09272C14.0027 8.85301 14.2284 8.56925 14.4263 8.45777C14.6817 8.30906 14.9051 8.25913 15.0159 8.24292C15.1378 8.49563 15.1228 8.7958 15.0041 9.07533ZM12.5083 8.60149C12.6269 8.333 12.8355 8.06326 13.1327 7.87699C13.7137 7.50354 14.3913 7.51743 14.7446 7.83965C14.6033 7.87298 14.408 7.93796 14.1929 8.0633C13.9614 8.19573 13.7287 8.48472 13.5041 8.75258C13.3274 8.97741 13.1643 9.18885 13.0429 9.27013C12.8248 9.41633 12.5265 9.40608 12.4548 9.39176C12.375 9.15972 12.3924 8.87473 12.5083 8.60149ZM12.4492 10.7986C12.3634 11.0881 12.1817 11.3837 11.9032 11.6111C11.6352 11.8333 11.3311 11.9663 11.0335 11.9957C10.7421 12.0315 10.4601 11.9674 10.2542 11.7941C10.4252 11.7834 10.6565 11.7347 10.8303 11.5836C10.965 11.4675 11.1046 11.2245 11.2595 10.9687C11.427 10.7054 11.6166 10.3972 11.7974 10.2597C12.032 10.08 12.2475 10.002 12.3555 9.97185C12.5087 10.2068 12.5319 10.5062 12.4492 10.7986ZM9.91349 10.6435C9.99749 10.3623 10.1715 10.0702 10.4415 9.84731C10.9707 9.40525 11.6422 9.33171 12.0347 9.60684C11.8988 9.65777 11.7133 9.74689 11.5159 9.89824C11.3046 10.0607 11.1085 10.3743 10.9201 10.6693C10.7732 10.9148 10.6373 11.1444 10.5269 11.2403C10.3293 11.4133 10.0314 11.4394 9.95864 11.4342C9.85057 11.2137 9.83326 10.9296 9.91349 10.6435ZM7.59021 12.988C7.63931 12.6986 7.77637 12.3875 8.01717 12.1335C8.48826 11.6304 9.14498 11.4751 9.56848 11.6997C9.43987 11.767 9.2667 11.8781 9.08931 12.0525C8.89969 12.2398 8.74331 12.5749 8.59217 12.8907C8.47629 13.1524 8.36924 13.3969 8.27143 13.5055C8.09599 13.7011 7.8037 13.7635 7.73082 13.7672C7.5969 13.5616 7.54496 13.2814 7.59021 12.988ZM7.77515 14.3541C7.98066 14.5447 8.07561 14.8295 8.06598 15.1335C8.05275 15.4356 7.94703 15.7662 7.73218 16.055C7.52435 16.3349 7.26307 16.5387 6.98078 16.639C6.70571 16.7436 6.41788 16.7506 6.17595 16.6322C6.33962 16.5805 6.55061 16.4762 6.6844 16.2885C6.7873 16.1434 6.86291 15.8727 6.95265 15.5878C7.05168 15.2916 7.16054 14.946 7.3034 14.7693C7.48751 14.5377 7.67763 14.4097 7.77515 14.3541ZM5.88852 14.6979C6.29471 14.1406 6.92851 13.907 7.37555 14.0781C7.25607 14.1605 7.09778 14.2921 6.94292 14.4869C6.77645 14.6951 6.66317 15.0479 6.55081 15.3793C6.46715 15.6529 6.39123 15.9091 6.3073 16.0289C6.1557 16.2436 5.8746 16.3423 5.80238 16.3547C5.64468 16.1672 5.55778 15.8946 5.56827 15.5986C5.58202 15.3054 5.67924 14.9787 5.88852 14.6979ZM5.91754 16.9314C6.14476 17.0954 6.27409 17.3665 6.30213 17.6694C6.31693 17.8215 6.30249 17.9797 6.26803 18.142C6.23413 18.3047 6.17374 18.4679 6.08497 18.6244C5.99692 18.7748 5.89805 18.9103 5.78477 19.0236C5.67152 19.1369 5.54515 19.2288 5.41262 19.2966C5.15104 19.4337 4.86842 19.4777 4.61307 19.3906C4.76849 19.3184 4.96464 19.1885 5.07472 18.986C5.15898 18.8294 5.19833 18.5505 5.25383 18.2576C5.31563 17.9516 5.37908 17.594 5.5009 17.402C5.6549 17.1493 5.82767 16.9987 5.91754 16.9314ZM3.91104 17.9786C3.94345 17.8195 3.99968 17.6583 4.08783 17.5068C4.42143 16.9018 5.02374 16.5925 5.48728 16.7067C5.37895 16.8034 5.23813 16.9536 5.10856 17.1662C4.96715 17.3926 4.90007 17.758 4.82937 18.1008C4.77852 18.3818 4.7369 18.6465 4.66824 18.7757C4.54263 19.0067 4.27818 19.1411 4.20764 19.1623C4.02817 18.9964 3.90576 18.7356 3.88146 18.4414C3.86896 18.2942 3.87816 18.1375 3.91104 17.9786ZM2.65247 20.5254C2.78128 20.2057 2.97892 19.944 3.21352 19.7762C3.4448 19.6064 3.69971 19.5246 3.93851 19.5511C3.84346 19.661 3.72306 19.8281 3.62179 20.0559C3.50848 20.2979 3.49011 20.6699 3.46419 21.0191C3.4473 21.3035 3.44315 21.5725 3.39131 21.7093C3.29732 21.955 3.05008 22.122 2.98439 22.1529C2.57768 21.8721 2.39109 21.182 2.65247 20.5254ZM1.62327 23.7135C1.66571 23.5461 1.72718 23.3906 1.80277 23.2519C1.88132 23.114 1.97702 22.9938 2.07971 22.894C2.28678 22.6946 2.5259 22.5786 2.76911 22.5743C2.6865 22.6949 2.59206 22.8776 2.52155 23.117C2.44201 23.3724 2.4706 23.7431 2.49418 24.0933C2.51189 24.3766 2.54839 24.6446 2.51492 24.7872C2.48765 24.9162 2.41312 25.0287 2.34258 25.1156C2.2727 25.2026 2.20114 25.2626 2.17146 25.2823C1.95222 25.1696 1.76784 24.951 1.66822 24.673C1.56737 24.3953 1.53185 24.0539 1.62327 23.7135ZM1.04009 27.0198C1.05895 26.8478 1.09447 26.6844 1.15343 26.5366C1.21365 26.389 1.28986 26.2561 1.37781 26.1427C1.55325 25.9156 1.77579 25.7678 2.01735 25.7299C1.948 25.8602 1.88307 26.055 1.84659 26.3021C1.82902 26.4346 1.83172 26.5908 1.85612 26.7577C1.88105 26.9247 1.91885 27.1011 1.95618 27.2731C2.01241 27.5512 2.08489 27.8112 2.07394 27.9572C2.05567 28.2195 1.85286 28.4481 1.80283 28.4963C1.56714 28.416 1.36103 28.2263 1.21998 27.9648C1.14908 27.8341 1.09424 27.6858 1.0601 27.5258C1.0268 27.366 1.02284 27.1954 1.04009 27.0198ZM0.929216 30.3745C0.919191 29.6823 1.24554 29.1041 1.71653 28.9617C1.69351 29.0313 1.6698 29.1165 1.65153 29.2157C1.63725 29.3146 1.62844 29.4275 1.63032 29.5521C1.63514 29.8193 1.75162 30.1673 1.87027 30.4971C1.97682 30.7638 2.07727 31.0117 2.08687 31.1578C2.10481 31.4202 1.93102 31.6743 1.88607 31.7288C1.64381 31.6809 1.41722 31.5209 1.24165 31.2819C1.06944 31.0433 0.939835 30.7259 0.929216 30.3745ZM1.42566 34.1859C1.35565 34.0405 1.30305 33.8784 1.2739 33.705C1.14713 33.0232 1.43305 32.4015 1.8677 32.2004C1.84204 32.3441 1.82377 32.55 1.85276 32.7979C1.86509 32.9309 1.92211 33.0786 1.99005 33.2325C2.05857 33.3864 2.14207 33.5459 2.22393 33.7015C2.29011 33.8273 2.35432 33.9488 2.40497 34.0568C2.45902 34.1641 2.50272 34.2573 2.51789 34.329C2.57435 34.5858 2.44197 34.8595 2.40257 34.9201C2.15787 34.9045 1.90691 34.7772 1.6977 34.5644C1.59491 34.4578 1.49508 34.3314 1.42566 34.1859ZM2.05096 36.9627C2.02428 36.8807 2.00317 36.7988 1.98754 36.7178C1.97369 36.6361 1.96848 36.5544 1.96657 36.475C1.9636 36.316 1.98101 36.1639 2.01696 36.0251C2.08868 35.7472 2.23444 35.5227 2.4362 35.3926C2.43205 35.5378 2.44451 35.7435 2.51014 35.9843C2.54523 36.1131 2.6132 36.2542 2.69637 36.399C2.7798 36.5438 2.89163 36.6883 2.99429 36.8313C3.163 37.0617 3.32113 37.2756 3.36657 37.4148C3.45172 37.6635 3.36651 37.949 3.33429 38.0148C3.08939 38.0323 2.81927 37.9414 2.58305 37.7588C2.35541 37.5737 2.15992 37.2973 2.05096 36.9627ZM4.28329 40.9573C4.15369 40.93 4.02224 40.8774 3.8956 40.8015C3.64365 40.6494 3.40578 40.4054 3.25451 40.0879C2.97631 39.4535 3.05276 38.7928 3.43306 38.4777C3.43846 38.5508 3.44945 38.6386 3.47029 38.7372C3.49509 38.8341 3.53103 38.9415 3.58103 39.0557C3.69025 39.2995 3.92878 39.5765 4.17107 39.8316C4.37213 40.0358 4.5603 40.2251 4.62557 40.3561C4.68437 40.4741 4.69845 40.6078 4.69531 40.7213C4.69251 40.8345 4.6778 40.9244 4.66639 40.9587C4.54599 40.9838 4.41392 40.9841 4.28329 40.9573ZM6.37992 43.6973C6.14911 43.7784 5.86992 43.7584 5.59643 43.6431C5.3241 43.5276 5.05062 43.3213 4.86947 43.0197C4.68756 42.7268 4.58814 42.4144 4.58375 42.1281C4.58435 41.8384 4.66913 41.5813 4.83085 41.4015C4.86307 41.5438 4.92355 41.7423 5.04818 41.9581C5.18972 42.1847 5.47201 42.4215 5.74157 42.6449C5.79611 42.6902 5.8499 42.7349 5.90108 42.7775C5.95467 42.8189 6.00549 42.8591 6.05176 42.8975C6.14429 42.9746 6.21863 43.0448 6.26034 43.1049C6.41019 43.3208 6.39301 43.6259 6.37992 43.6973ZM6.85434 45.7119C6.74307 45.5805 6.65255 45.4405 6.58389 45.2986C6.51503 45.157 6.47727 45.006 6.4562 44.8643C6.41636 44.5788 6.46487 44.3139 6.60071 44.1147C6.65215 44.2509 6.74188 44.4369 6.89368 44.6345C7.05069 44.8508 7.37377 45.0383 7.67067 45.2237C7.7918 45.2979 7.90904 45.3695 8.00774 45.4363C8.10532 45.5041 8.19281 45.5598 8.24152 45.6144C8.42062 45.8065 8.44568 46.1095 8.44248 46.1817C8.22381 46.2931 7.94304 46.3116 7.65481 46.2354C7.36246 46.1635 7.08172 45.9798 6.85434 45.7119Z" fill="#402F22"/>
<path d="M95.5104 43.6564C95.3825 43.5697 95.2711 43.5262 95.176 43.5262C94.0171 44.8004 92.665 45.4373 91.1198 45.4373C90.0738 45.4373 89.1794 44.905 88.4365 43.8404C87.6935 42.7758 87.3221 41.5194 87.3221 40.0719C87.3221 38.6124 87.661 37.3832 88.3384 36.3844C89.016 35.3853 89.8896 34.8859 90.9594 34.8859C92.1005 34.8859 92.9518 35.1491 93.5135 35.6755C94.075 36.2018 94.4955 36.9375 94.7749 37.8827C95.0303 37.9723 95.292 37.9424 95.5594 37.793C95.5 37.1827 95.3662 36.2347 95.1582 34.9487C95.0335 34.9366 94.5534 34.801 93.7185 34.5418C92.8834 34.2823 92.0291 34.1526 91.1555 34.1526C89.2834 34.1526 87.7501 34.713 86.5555 35.8337C85.361 36.9544 84.7637 38.4838 84.7637 40.4217C84.7637 41.3364 84.9417 42.2407 85.2977 43.1346C85.6537 44.0283 86.1602 44.7261 86.8171 45.2282C87.861 45.9995 89.3013 46.3851 91.1376 46.3851C92.9742 46.3851 94.5192 45.5607 95.7734 43.912C95.7257 43.8283 95.6381 43.7431 95.5104 43.6564Z" fill="#402F22"/>
<path d="M103.4 34.1526C102.531 34.1526 101.725 34.3346 100.98 34.6982C100.235 35.062 99.601 35.5657 99.0777 36.2099C98.1229 37.3846 97.6455 38.8307 97.6455 40.5478C97.6455 42.2942 98.2165 43.7035 99.3585 44.7762C100.5 45.849 101.854 46.3851 103.419 46.3851C105.214 46.391 106.652 45.7891 107.734 44.5788C108.746 43.44 109.252 41.9734 109.252 40.1789C109.252 38.3966 108.69 36.9468 107.565 35.829C106.44 34.7116 105.052 34.1526 103.4 34.1526ZM105.926 44.2702C105.414 45.1914 104.7 45.652 103.784 45.652C102.748 45.652 101.893 45.1614 101.217 44.18C100.542 43.1991 100.204 41.8653 100.204 40.1789C100.204 38.3966 100.482 37.0689 101.039 36.1957C101.595 35.3224 102.311 34.8859 103.186 34.8859C104.209 34.8859 105.05 35.3809 105.707 36.3712C106.365 37.3614 106.694 38.7596 106.694 40.5659C106.694 42.1141 106.438 43.349 105.926 44.2702Z" fill="#402F22"/>
<path d="M119.789 34.9477C119.766 34.6023 119.748 34.4118 119.736 34.3762C119.736 34.3405 119.712 34.3052 119.665 34.3052C119.379 34.353 119.079 34.3593 118.764 34.3593H113.291L110.474 34.341C110.426 34.4005 110.402 34.5136 110.402 34.6625C110.402 34.8116 110.426 34.9204 110.474 34.9798C111.157 35.0038 111.611 35.106 111.802 35.2816C111.992 35.4576 112.104 35.9142 112.104 36.6475V43.9709C112.104 44.3406 112.059 44.6371 112.002 44.8606C111.946 45.0843 111.833 45.2482 111.681 45.3524C111.53 45.4568 111.377 45.5239 111.231 45.5537C111.086 45.5836 110.859 45.6043 110.556 45.6163C110.455 45.6699 110.405 45.7757 110.408 45.9336C110.411 46.0916 110.459 46.1946 110.554 46.2422C111.523 46.2182 112.46 46.2064 113.367 46.2064C114.365 46.2064 115.351 46.2182 116.326 46.2422C116.418 46.1826 116.464 46.0782 116.464 45.9291C116.464 45.7802 116.417 45.6758 116.323 45.6163C116.009 45.6043 115.772 45.5836 115.613 45.5537C115.453 45.5239 115.286 45.4568 115.111 45.3524C114.937 45.2482 114.851 45.0828 114.777 44.8561C114.703 44.6296 114.704 44.3345 114.704 43.9709V40.6924H116.104C116.714 40.6924 117.138 40.8011 117.375 40.9769C117.612 41.1527 117.742 41.4658 117.766 41.8948C117.825 41.9546 117.959 41.9896 118.167 41.9896C118.375 41.9896 118.503 41.9624 118.55 41.9027C118.527 41.0444 118.515 40.5062 118.515 40.2855C118.515 39.9678 118.527 39.4409 118.55 38.7034C118.503 38.6498 118.375 38.6233 118.167 38.6233C117.959 38.6233 117.825 38.6533 117.766 38.7128C117.742 39.2017 117.616 39.5508 117.388 39.6966C117.16 39.8429 116.732 39.9474 116.104 39.9474H114.704V36.0282C114.704 35.7942 114.739 35.574 114.884 35.3907C115.029 35.2076 115.168 35.1044 115.375 35.1044H117.021C117.65 35.1044 118.107 35.2781 118.391 35.6023C118.676 35.9267 118.934 36.4579 119.165 37.1848C119.469 37.2329 119.73 37.2057 119.95 37.0976C119.926 36.8874 119.899 36.5638 119.87 36.1238C119.84 35.684 119.813 35.293 119.789 34.9477Z" fill="#402F22"/>
<path d="M130.167 34.9477C130.143 34.6023 130.125 34.4118 130.113 34.3762C130.113 34.3405 130.089 34.3052 130.042 34.3052C129.756 34.353 129.456 34.3593 129.141 34.3593H123.668L120.851 34.341C120.803 34.4005 120.779 34.5136 120.779 34.6625C120.779 34.8116 120.803 34.9204 120.851 34.9798C121.534 35.0038 122 35.106 122.19 35.2816C122.38 35.4576 122.504 35.9142 122.504 36.6475V43.9709C122.504 44.3406 122.447 44.6371 122.39 44.8606C122.334 45.0843 122.216 45.2482 122.064 45.3524C121.912 45.4568 121.757 45.5239 121.611 45.5537C121.465 45.5836 121.238 45.6043 120.934 45.6163C120.833 45.6699 120.782 45.7757 120.786 45.9336C120.789 46.0916 120.837 46.1946 120.932 46.2422C121.9 46.2182 122.838 46.2064 123.744 46.2064C124.742 46.2064 125.728 46.2182 126.703 46.2422C126.795 46.1826 126.841 46.0782 126.841 45.9291C126.841 45.7802 126.794 45.6758 126.7 45.6163C126.386 45.6043 126.149 45.5836 125.99 45.5537C125.83 45.5239 125.663 45.4568 125.488 45.3524C125.314 45.2482 125.146 45.0828 125.072 44.8561C124.998 44.6296 124.918 44.3345 124.918 43.9709V40.6924H126.481C127.091 40.6924 127.515 40.8011 127.752 40.9769C127.989 41.1527 128.119 41.4658 128.143 41.8948C128.202 41.9546 128.336 41.9896 128.544 41.9896C128.752 41.9896 128.88 41.9624 128.927 41.9027C128.904 41.0444 128.892 40.5062 128.892 40.2855C128.892 39.9678 128.904 39.4409 128.927 38.7034C128.88 38.6498 128.752 38.6233 128.544 38.6233C128.336 38.6233 128.202 38.6533 128.143 38.7128C128.119 39.2017 127.993 39.5508 127.765 39.6966C127.537 39.8429 127.109 39.9474 126.481 39.9474H124.918V36.0282C124.918 35.7942 125.034 35.574 125.179 35.3907C125.325 35.2076 125.545 35.1044 125.752 35.1044H127.398C128.027 35.1044 128.484 35.2781 128.768 35.6023C129.053 35.9267 129.311 36.4579 129.542 37.1848C129.846 37.2329 130.107 37.2057 130.327 37.0976C130.303 36.8874 130.276 36.5638 130.247 36.1238C130.217 35.684 130.19 35.293 130.167 34.9477Z" fill="#402F22"/>
<path d="M140.542 43.1451C140.102 44.7181 139.245 45.5357 137.97 45.5357H136.127C135.926 45.5357 135.719 45.419 135.57 45.2479C135.422 45.0769 135.316 44.8371 135.316 44.5908V40.3201H136.856C137.466 40.3201 137.89 40.4317 138.127 40.6077C138.364 40.7836 138.494 41.0979 138.518 41.5271C138.577 41.5866 138.711 41.6224 138.919 41.6224C139.127 41.6224 139.255 41.5983 139.302 41.5441C139.279 40.6875 139.267 40.1497 139.267 39.9278C139.267 39.6059 139.279 39.0791 139.302 38.346C139.255 38.2865 139.127 38.2568 138.919 38.2568C138.711 38.2568 138.577 38.287 138.518 38.3465C138.494 38.8352 138.368 39.1814 138.14 39.3274C137.912 39.4735 137.484 39.575 136.856 39.575H135.316V36.0291C135.316 35.7947 135.42 35.5742 135.566 35.391C135.711 35.2078 135.92 35.1046 136.127 35.1046H137.675C138.31 35.1046 138.773 35.2669 139.063 35.5683C139.354 35.8698 139.609 36.3852 139.828 37.1026C140.131 37.151 140.393 37.1238 140.613 37.0151C140.589 36.8043 140.562 36.4886 140.533 36.0654C140.503 35.6426 140.476 35.2647 140.452 34.9305C140.429 34.5963 140.411 34.4117 140.399 34.3761C140.393 34.3403 140.366 34.3052 140.319 34.3052C140.039 34.3529 139.742 34.3594 139.427 34.3594H134.043L131.226 34.3411C131.178 34.4007 131.154 34.5137 131.154 34.6626C131.154 34.8118 131.178 34.9206 131.226 34.98C131.909 35.004 132.386 35.1061 132.576 35.2818C132.766 35.4578 132.901 35.9144 132.901 36.6477V43.9711C132.901 44.6925 132.767 45.1411 132.578 45.3168C132.389 45.4928 131.934 45.5927 131.254 45.6165C131.207 45.6701 131.173 45.7759 131.173 45.9338C131.173 46.0918 131.192 46.2319 131.239 46.2794C131.839 46.2674 132.777 46.2807 134.065 46.2807H138.35C138.938 46.2807 139.779 46.2554 140.871 46.2794C140.943 46.0169 141.01 45.6966 141.072 45.3553C141.134 45.0142 141.192 44.6107 141.246 44.1634C141.299 43.7161 141.338 43.4104 141.362 43.2243C141.118 43.0922 140.845 43.0732 140.542 43.1451Z" fill="#402F22"/>
<path d="M151.562 43.1451C151.123 44.7181 150.266 45.5357 148.99 45.5357H147.148C146.946 45.5357 146.801 45.419 146.653 45.2479C146.504 45.0769 146.46 44.8371 146.46 44.5908V40.3201H147.876C148.487 40.3201 148.91 40.4317 149.147 40.6077C149.384 40.7836 149.515 41.0979 149.538 41.5271C149.598 41.5866 149.731 41.6224 149.94 41.6224C150.148 41.6224 150.275 41.5983 150.323 41.5441C150.299 40.6875 150.287 40.1497 150.287 39.9278C150.287 39.6059 150.299 39.0791 150.323 38.346C150.275 38.2865 150.148 38.2568 149.94 38.2568C149.731 38.2568 149.598 38.287 149.538 38.3465C149.515 38.8352 149.389 39.1814 149.161 39.3274C148.932 39.4735 148.504 39.575 147.876 39.575H146.46V36.0291C146.46 35.7947 146.503 35.5742 146.648 35.391C146.793 35.2078 146.94 35.1046 147.148 35.1046H148.696C149.33 35.1046 149.793 35.2669 150.084 35.5683C150.374 35.8698 150.629 36.3852 150.849 37.1026C151.152 37.151 151.413 37.1238 151.633 37.0151C151.61 36.8043 151.583 36.4886 151.553 36.0654C151.523 35.6426 151.497 35.2647 151.473 34.9305C151.449 34.5963 151.431 34.4117 151.419 34.3761C151.413 34.3403 151.387 34.3052 151.339 34.3052C151.06 34.3529 150.763 34.3594 150.448 34.3594H145.063L142.246 34.3411C142.198 34.4007 142.175 34.5137 142.175 34.6626C142.175 34.8118 142.198 34.9206 142.246 34.98C142.93 35.004 143.375 35.1061 143.566 35.2818C143.756 35.4578 143.86 35.9144 143.86 36.6477V43.9711C143.86 44.6925 143.756 45.1411 143.567 45.3168C143.378 45.4928 142.939 45.5927 142.259 45.6165C142.212 45.6701 142.186 45.7759 142.186 45.9338C142.186 46.0918 142.209 46.2319 142.256 46.2794C142.855 46.2674 143.798 46.2807 145.085 46.2807H149.371C149.959 46.2807 150.799 46.2554 151.892 46.2794C151.963 46.0169 152.03 45.6966 152.093 45.3553C152.155 45.0142 152.213 44.6107 152.266 44.1634C152.32 43.7161 152.358 43.4104 152.382 43.2243C152.139 43.0922 151.865 43.0732 151.562 43.1451Z" fill="#402F22"/>
<path d="M76.1955 27.4718C75.7477 27.4718 75.3812 27.3637 75.0963 27.1471C74.8113 26.9306 74.5092 26.5748 74.1904 26.0798L71.3608 21.6461C71.9991 21.3678 72.5446 20.9296 72.9971 20.332C73.4498 19.7345 73.6762 18.9503 73.6762 17.9791C73.6828 16.7094 73.1631 15.7554 72.1167 15.1168C71.3551 14.6619 70.2225 14.4343 68.7194 14.4343C68.4411 14.4343 67.3453 14.4583 65.4318 14.5058C63.5183 14.5535 62.4223 14.5773 62.1442 14.5773C62.049 14.6302 62.0016 14.7427 62.0016 14.9145C62.0016 15.0865 62.049 15.2056 62.1442 15.2716C62.4969 15.2853 62.7565 15.3091 62.9228 15.3431C63.089 15.3774 63.2587 15.4539 63.4317 15.5732C63.6048 15.6926 63.6953 15.8817 63.7564 16.1408C63.8175 16.3998 63.8215 16.7375 63.8215 17.1532V25.5492C63.8215 25.972 63.8175 26.3112 63.7564 26.5668C63.6953 26.8226 63.5915 27.0099 63.4184 27.1292C63.2454 27.2486 63.0806 27.3253 62.9111 27.3596C62.7414 27.3938 62.4869 27.4174 62.1409 27.431C62.0457 27.4921 62 27.6097 62 27.7832C62 27.9567 62.0482 28.0777 62.1433 28.1457C63.2561 28.1199 64.3286 28.1072 65.3602 28.1072C66.3576 28.1072 67.4128 28.1199 68.5258 28.1457C68.6275 28.0815 68.6768 27.9693 68.6734 27.8087C68.67 27.6482 68.6209 27.536 68.526 27.4718C68.1798 27.4581 67.9237 27.4339 67.7576 27.3992C67.5911 27.3649 67.4217 27.287 67.2486 27.166C67.0755 27.045 66.9553 26.8531 66.8909 26.5905C66.8263 26.328 66.7927 25.9858 66.7927 25.5642V22.1425C67.5355 22.1425 68.0851 22.1858 68.3261 22.2723C68.5668 22.3586 68.766 22.5296 68.9223 22.7854L71.3409 26.4764C72.1886 27.6982 73.1045 28.3091 74.0884 28.3091C75.2826 28.3091 75.9918 28.2546 76.2158 28.1457C76.2565 28.0815 76.2734 27.9726 76.2667 27.8185C76.2598 27.6644 76.2362 27.5489 76.1955 27.4718ZM69.9713 20.7187C69.4487 21.1147 68.6888 21.3201 67.6913 21.3201H66.7927V17.1361C66.7927 16.3918 66.8705 15.8949 67.0232 15.6454C67.1759 15.3962 67.5176 15.2716 68.0469 15.2716C69.8518 15.2716 70.7547 16.2964 70.7547 18.3382C70.7547 19.5266 70.4938 20.3225 69.9713 20.7187Z" fill="#402F22"/>
<path d="M86.5911 27.8141C86.5911 27.6475 86.5639 27.5301 86.5097 27.4619C85.6344 27.4279 85.049 27.3105 84.8149 27.1097C84.5808 26.9091 84.4332 26.3899 84.4332 25.5528V22.5103C84.4332 21.7414 84.5722 21.1593 84.8098 20.7645L87.5021 16.2928C87.726 15.9117 87.966 15.6616 88.2069 15.5424C88.4476 15.4235 88.8231 15.34 89.3253 15.2924C89.393 15.2175 89.4289 15.0968 89.4289 14.9298C89.4289 14.7632 89.3959 14.6459 89.3281 14.5776C88.4935 14.605 87.846 14.6185 87.3846 14.6185C86.9571 14.6185 86.1871 14.605 85.0743 14.5776C85.0064 14.6459 84.9726 14.765 84.9726 14.9351C84.9726 15.1052 85.0066 15.2243 85.0745 15.2924C85.5631 15.3196 85.9041 15.4199 86.0975 15.5936C86.2909 15.7671 86.3027 16.007 86.1331 16.3132L83.9855 20.3664C83.8496 20.6318 83.6937 20.6114 83.5173 20.3051L81.3391 16.4562C81.088 16.0681 81.0083 15.7842 81.0999 15.6038C81.1915 15.4235 81.5155 15.3196 82.072 15.2924C82.1397 15.2175 82.1737 15.0968 82.1737 14.9298C82.1737 14.7632 82.1397 14.6459 82.072 14.5776C80.959 14.605 80.0974 14.6185 79.4867 14.6185C78.3467 14.6185 77.3594 14.605 76.5248 14.5776C76.4704 14.6459 76.4434 14.765 76.4434 14.9351C76.4434 15.1052 76.4772 15.2243 76.5451 15.2924C77.0134 15.3266 77.3746 15.4251 77.6292 15.5885C77.8836 15.7518 78.1736 16.1125 78.4994 16.6706L81.1559 21.1627C81.3391 21.4827 81.4916 21.7243 81.5392 21.8876C81.5866 22.051 81.6476 22.3198 81.6476 22.6942V25.5528C81.6476 26.3899 81.4916 26.9105 81.2542 27.1148C81.0166 27.3189 80.4416 27.4348 79.5663 27.4619C79.5119 27.5301 79.4756 27.6475 79.4756 27.8141C79.4756 27.9811 79.4979 28.0915 79.5524 28.146C80.9162 28.1188 82.1319 28.1051 83.2041 28.1051C84.0184 28.1051 85.1198 28.1188 86.5108 28.146C86.5651 28.0915 86.5911 27.9811 86.5911 27.8141Z" fill="#402F22"/>
<path d="M103.366 28.1456C103.421 28.091 103.448 27.9719 103.448 27.7882C103.448 27.6044 103.421 27.4855 103.366 27.4309C103.075 27.4038 102.912 27.3899 102.878 27.3899C102.844 27.3899 102.715 27.3663 102.491 27.3185C102.267 27.271 102.121 27.2131 102.053 27.1449C101.985 27.0771 101.892 26.9732 101.773 26.8335C101.655 26.6942 101.561 26.5373 101.493 26.3264L97.1983 14.6143C97.1983 14.6143 95.7482 14.6143 95.2326 14.6143L90.3788 25.9894C90.216 26.4114 90.019 26.7169 89.7884 26.9244C89.5576 27.1322 89.3406 27.2585 89.137 27.3129C88.9334 27.3675 88.6518 27.4061 88.2923 27.4332C88.2244 27.4943 88.1904 27.6141 88.1904 27.7944C88.1904 27.9748 88.2244 28.0916 88.2923 28.1462C89.3236 28.1189 89.9783 28.1049 90.2566 28.1049C91.071 28.1049 91.9936 28.1184 93.0252 28.1457C93.0794 28.0912 93.1066 27.9719 93.1066 27.7882C93.1066 27.6045 93.0794 27.4855 93.0252 27.4309C92.8486 27.4173 92.7146 27.4071 92.6231 27.4002C92.5315 27.3936 92.4024 27.3765 92.2363 27.3492C92.07 27.3221 91.9547 27.2879 91.8903 27.247C91.8257 27.2063 91.7426 27.15 91.6409 27.0785C91.5391 27.0072 91.5017 26.9188 91.5289 26.8131C91.5559 26.7076 91.5763 26.587 91.59 26.4507L92.6893 23.5513C92.7503 23.4083 92.825 23.3075 92.9132 23.2599C93.0013 23.2122 93.171 23.1827 93.4221 23.1827H97.3815L98.552 26.5983C98.579 26.6936 98.5961 26.7781 98.6028 26.8461C98.6095 26.9142 98.6028 26.9785 98.5825 27.0364C98.5622 27.0942 98.5349 27.1443 98.5011 27.1852C98.467 27.2259 98.4145 27.257 98.3433 27.2773C98.2721 27.2978 98.2092 27.3183 98.155 27.3388C98.1006 27.3592 98.0209 27.3729 97.9158 27.3797C97.8105 27.3866 97.7207 27.3935 97.6461 27.4001C97.5713 27.407 97.4662 27.414 97.3306 27.4207C97.1948 27.4274 97.0863 27.4308 97.0049 27.4308C96.937 27.492 96.903 27.613 96.903 27.7932C96.903 27.9737 96.937 28.091 97.0049 28.1456C98.0362 28.1183 99.2271 28.1046 100.578 28.1046C101.405 28.1046 102.335 28.1183 103.366 28.1456ZM93.8394 22.2514C93.7443 22.2514 93.6646 22.2158 93.6002 22.2121C93.5356 22.2089 93.4797 22.1833 93.4323 22.1696C93.3848 22.156 93.3508 22.1305 93.3304 22.11C93.3101 22.0896 93.2965 22.0582 93.2897 22.024C93.2829 21.9902 93.2897 21.9458 93.3101 21.9049L95.1625 17.222H95.3051L97.0049 22.2514H93.8394Z" fill="#402F22"/>
<path d="M116.768 16.0376C116.886 15.7586 117.064 15.5781 117.271 15.4965C117.478 15.4148 117.866 15.3469 118.423 15.2924C118.491 15.2175 118.528 15.0968 118.528 14.9298C118.528 14.7632 118.496 14.6459 118.428 14.5776C117.064 14.605 116.315 14.6185 116.18 14.6185C115.956 14.6185 115.149 14.605 113.758 14.5776C113.69 14.6459 113.656 14.765 113.656 14.9351C113.656 15.1052 113.69 15.2243 113.758 15.2924C114.314 15.3469 114.698 15.4115 114.908 15.4863C115.119 15.5612 115.309 15.7382 115.428 16.0173C115.547 16.2963 115.632 16.7558 115.632 17.3955V23.2761C115.632 23.5212 115.526 23.6403 115.428 23.6333C115.33 23.6267 115.189 23.5313 115.033 23.3476L109.5 16.8136L107.634 14.6185L104.243 14.5776C104.182 14.6459 104.152 14.765 104.156 14.9351C104.159 15.1052 104.188 15.2243 104.242 15.2924C104.656 15.3196 104.97 15.4693 105.276 15.7414C105.581 16.0137 105.79 16.303 105.79 16.6094V25.3281C105.79 25.9545 105.777 26.407 105.662 26.6861C105.547 26.9651 105.406 27.1454 105.196 27.2271C104.986 27.3087 104.613 27.377 104.057 27.4314C104.003 27.4925 103.981 27.6134 103.981 27.7937C103.981 27.9742 104.011 28.0915 104.066 28.146C105.43 28.1188 106.211 28.1051 106.408 28.1051C106.571 28.1051 107.349 28.1188 108.74 28.146C108.794 28.0915 108.821 27.9724 108.821 27.7886C108.821 27.6049 108.794 27.4859 108.74 27.4314C108.184 27.377 107.802 27.3124 107.595 27.2373C107.388 27.1625 107.213 26.9857 107.095 26.7065C106.976 26.4274 106.904 25.9679 106.904 25.3281V19.1107C106.904 18.8316 106.971 18.6922 107.079 18.6922C107.181 18.6922 107.353 18.8316 107.584 19.1107L114.57 27.4314C114.841 27.7854 115.121 28.0949 115.406 28.3604C115.935 28.3604 116.345 28.2752 116.691 28.1051L116.561 25.9714V17.3955C116.561 16.7694 116.649 16.3168 116.768 16.0376Z" fill="#402F22"/>
<path d="M131.058 22.2723C131.299 22.3586 131.481 22.5296 131.637 22.7854L134.047 26.4764C134.895 27.6982 135.806 28.3091 136.79 28.3091C137.984 28.3091 138.692 28.2546 138.916 28.1457C138.956 28.0815 138.972 27.9726 138.965 27.8185C138.959 27.6644 138.934 27.5489 138.894 27.4718C138.446 27.4718 138.079 27.3637 137.794 27.1471C137.509 26.9306 137.207 26.5748 136.888 26.0798L134.058 21.6461C134.697 21.3678 135.242 20.9296 135.695 20.332C136.147 19.7345 136.374 18.9503 136.374 17.9791C136.38 16.7094 135.861 15.7554 134.814 15.1168C134.053 14.6619 132.92 14.4343 131.417 14.4343C131.139 14.4343 130.043 14.4583 128.129 14.5058C126.216 14.5535 125.12 14.5773 124.842 14.5773C124.747 14.6302 124.699 14.7427 124.699 14.9145C124.699 15.0865 124.747 15.2056 124.842 15.2716C125.195 15.2853 125.454 15.3091 125.62 15.3431C125.787 15.3774 125.956 15.4539 126.129 15.5732C126.302 15.6926 126.428 15.8817 126.488 16.1408C126.55 16.3998 126.588 16.7375 126.588 17.1532V25.5492C126.588 25.972 126.55 26.3112 126.488 26.5668C126.428 26.8226 126.306 27.0099 126.133 27.1292C125.96 27.2486 125.787 27.3253 125.617 27.3596C125.448 27.3938 125.189 27.4174 124.843 27.431C124.748 27.4921 124.7 27.6097 124.7 27.7832C124.7 27.9567 124.747 28.0777 124.842 28.1457C125.955 28.1199 127.027 28.1072 128.058 28.1072C129.056 28.1072 130.111 28.1199 131.224 28.1457C131.325 28.0815 131.375 27.9693 131.371 27.8087C131.368 27.6482 131.319 27.536 131.224 27.4718C130.877 27.4581 130.621 27.4339 130.455 27.3992C130.289 27.3649 130.119 27.287 129.946 27.166C129.773 27.045 129.687 26.8531 129.623 26.5905C129.558 26.328 129.559 25.9858 129.559 25.5642V22.1425C130.302 22.1425 130.817 22.1858 131.058 22.2723ZM129.559 17.1361C129.559 16.3918 129.603 15.8949 129.755 15.6454C129.908 15.3962 130.232 15.2716 130.762 15.2716C132.567 15.2716 133.461 16.2927 133.461 18.3346C133.461 19.523 133.195 20.3225 132.673 20.7187C132.15 21.1147 131.386 21.3201 130.389 21.3201H129.559V17.1361Z" fill="#402F22"/>
<path d="M146.467 14.3428C145.475 14.3428 144.554 14.5505 143.704 14.9658C142.853 15.3811 142.129 15.9564 141.532 16.6917C140.441 18.0329 139.896 19.6839 139.896 21.6446C139.896 23.6383 140.548 25.2474 141.852 26.4722C143.156 27.6971 144.701 28.3094 146.488 28.3094C148.537 28.316 150.18 27.6287 151.414 26.2468C152.571 24.9467 153.148 23.2723 153.148 21.2233C153.148 19.1885 152.506 17.5332 151.222 16.257C149.937 14.9809 148.352 14.3428 146.467 14.3428ZM149.351 25.8946C148.767 26.9464 147.951 27.4721 146.905 27.4721C145.722 27.4721 144.746 26.912 143.975 25.7917C143.203 24.6715 142.818 23.1488 142.818 21.2233C142.818 19.1885 143.135 17.6725 143.771 16.6756C144.406 15.6785 145.223 15.1801 146.222 15.1801C147.391 15.1801 148.35 15.7452 149.101 16.8759C149.852 18.0064 150.227 19.6029 150.227 21.6652C150.227 23.4331 149.935 24.8429 149.351 25.8946Z" fill="#402F22"/>
<path d="M175.063 14.5776C174.031 14.605 173.376 14.6185 173.098 14.6185C172.284 14.6185 171.361 14.605 170.33 14.5776C170.262 14.6459 170.228 14.765 170.228 14.9351C170.228 15.1052 170.262 15.2243 170.33 15.2924C170.764 15.34 171.125 15.495 171.414 15.7569C171.702 16.0189 171.785 16.3337 171.663 16.7012L169.312 23.715L169.047 24.4705L168.742 23.5927L165.821 15.2924C165.42 15.381 165.003 15.381 164.569 15.2924L161.596 23.715L161.434 24.2562L161.24 23.5927L158.971 16.1193C158.916 15.956 158.916 15.8217 158.971 15.716C159.025 15.6105 159.135 15.5307 159.301 15.4761C159.468 15.4216 159.634 15.381 159.8 15.3536C159.966 15.3266 160.202 15.306 160.508 15.2924C160.569 15.2175 160.597 15.0968 160.594 14.9298C160.591 14.7632 160.562 14.6459 160.508 14.5776C159.483 14.605 158.261 14.6185 156.843 14.6185C156.009 14.6185 155.076 14.605 154.044 14.5776C153.99 14.6459 153.963 14.765 153.963 14.9351C153.963 15.1052 153.99 15.2243 154.044 15.2924C154.546 15.3469 154.952 15.4471 155.26 15.5936C155.569 15.74 155.791 16.0137 155.927 16.4154L159.846 27.8703C159.954 28.197 160.183 28.3585 160.533 28.3552C160.882 28.3518 161.118 28.1901 161.24 27.8703L164.365 19.5394L167.561 27.8703C167.602 27.9861 167.698 28.0968 167.851 28.2021C168.004 28.3076 168.134 28.3604 168.243 28.3604C168.61 28.3534 168.847 28.1901 168.956 27.8703L172.874 17.1811C172.983 16.8747 173.115 16.6042 173.271 16.3694C173.427 16.1346 173.6 15.9423 173.79 15.7926C173.98 15.6429 174.182 15.5256 174.396 15.4404C174.61 15.3553 174.832 15.306 175.063 15.2924C175.117 15.2175 175.144 15.0968 175.144 14.9298C175.144 14.7632 175.117 14.6459 175.063 14.5776Z" fill="#402F22"/>
<path d="M180.385 12.656V13.1173H179.481V15.674H178.922V13.1173H178.014V12.656H180.385Z" fill="#402F22"/>
<path d="M182.316 14.5605C182.336 14.6086 182.356 14.6569 182.375 14.7056C182.394 14.6553 182.415 14.606 182.435 14.5574C182.456 14.5087 182.478 14.4622 182.502 14.4176L183.391 12.7458C183.402 12.7248 183.414 12.7081 183.426 12.6956C183.437 12.683 183.451 12.6742 183.465 12.6686C183.48 12.6629 183.496 12.6595 183.514 12.6582C183.532 12.6569 183.554 12.656 183.578 12.656H184V15.674H183.508V13.7246C183.508 13.6885 183.509 13.6489 183.511 13.6056C183.513 13.5626 183.516 13.5186 183.52 13.4743L182.612 15.1857C182.591 15.2246 182.564 15.2548 182.531 15.2765C182.497 15.2981 182.459 15.3088 182.415 15.3088H182.338C182.293 15.3088 182.254 15.2981 182.221 15.2765C182.188 15.2548 182.161 15.2246 182.14 15.1857L181.219 13.468C181.225 13.5139 181.229 13.5588 181.231 13.6024C181.233 13.6464 181.234 13.6872 181.234 13.7246V15.674H180.741V12.656H181.163C181.188 12.656 181.209 12.6569 181.228 12.6582C181.246 12.6595 181.262 12.6629 181.277 12.6686C181.291 12.6742 181.305 12.683 181.317 12.6956C181.329 12.7081 181.341 12.7248 181.352 12.7458L182.25 14.4217C182.274 14.4663 182.296 14.5125 182.316 14.5605Z" fill="#402F22"/>
</svg>
