<svg width="303" height="372" viewBox="0 0 303 372" fill="none" xmlns="http://www.w3.org/2000/svg">
<path d="M90.09 364.502C89.7485 364.27 89.451 364.154 89.1969 364.154C86.1013 367.561 82.4897 369.265 78.3621 369.265C75.5679 369.265 73.179 367.841 71.1944 364.994C69.21 362.147 68.2178 358.787 68.2178 354.916C68.2178 351.012 69.1231 347.725 70.9326 345.054C72.7424 342.382 75.0761 341.046 77.9337 341.046C80.9817 341.046 83.2557 341.75 84.7559 343.158C86.256 344.566 87.3791 346.533 88.1255 349.061C88.8077 349.301 89.5067 349.221 90.2209 348.821C90.0622 347.189 89.7049 344.654 89.1494 341.214C88.8161 341.182 87.5338 340.819 85.3036 340.126C83.073 339.432 80.791 339.085 78.4575 339.085C73.4568 339.085 69.3611 340.584 66.1701 343.581C62.9793 346.578 61.3838 350.668 61.3838 355.851C61.3838 358.297 61.8593 360.716 62.8103 363.106C63.7612 365.496 65.1142 367.363 66.8689 368.705C69.6572 370.768 73.5045 371.799 78.4097 371.799C83.3154 371.799 87.4425 369.595 90.7925 365.185C90.6652 364.961 90.4312 364.734 90.09 364.502V364.502Z" fill="#402F22"/>
<path d="M111.164 339.085C108.844 339.085 106.689 339.572 104.7 340.545C102.71 341.517 101.016 342.865 99.6187 344.587C97.068 347.729 95.793 351.596 95.793 356.188C95.793 360.859 97.3181 364.628 100.369 367.497C103.419 370.366 107.035 371.799 111.214 371.799C116.009 371.815 119.851 370.205 122.74 366.969C125.444 363.923 126.797 360.001 126.797 355.202C126.797 350.435 125.294 346.558 122.289 343.569C119.284 340.58 115.576 339.085 111.164 339.085V339.085ZM117.912 366.143C116.545 368.607 114.637 369.839 112.189 369.839C109.423 369.839 107.138 368.527 105.334 365.902C103.529 363.279 102.627 359.712 102.627 355.202C102.627 350.435 103.37 346.885 104.857 344.549C106.343 342.214 108.254 341.046 110.592 341.046C113.326 341.046 115.571 342.37 117.328 345.019C119.084 347.667 119.963 351.406 119.963 356.237C119.963 360.377 119.279 363.68 117.912 366.143V366.143Z" fill="#402F22"/>
<path d="M154.944 341.212C154.88 340.288 154.833 339.779 154.801 339.683C154.801 339.588 154.737 339.493 154.611 339.493C153.848 339.621 153.047 339.638 152.206 339.638H137.585L130.06 339.589C129.933 339.748 129.869 340.051 129.869 340.449C129.869 340.848 129.933 341.139 130.06 341.298C131.885 341.362 133.099 341.635 133.607 342.105C134.114 342.575 134.415 343.796 134.415 345.758V365.343C134.415 366.331 134.293 367.124 134.143 367.722C133.991 368.32 133.691 368.759 133.286 369.037C132.881 369.317 132.473 369.496 132.083 369.576C131.694 369.656 131.089 369.711 130.28 369.743C130.01 369.886 129.876 370.17 129.884 370.592C129.892 371.014 130.022 371.29 130.275 371.417C132.863 371.353 135.367 371.321 137.788 371.321C140.454 371.321 143.088 371.353 145.692 371.417C145.939 371.258 146.062 370.978 146.062 370.58C146.062 370.181 145.936 369.902 145.683 369.743C144.845 369.711 144.213 369.656 143.787 369.576C143.36 369.496 142.914 369.317 142.448 369.037C141.982 368.759 141.751 368.316 141.554 367.71C141.357 367.104 141.36 366.315 141.36 365.343V356.575H145.098C146.729 356.575 147.86 356.866 148.494 357.336C149.127 357.806 149.475 358.643 149.539 359.791C149.697 359.95 150.054 360.044 150.61 360.044C151.166 360.044 151.507 359.971 151.634 359.812C151.57 357.516 151.539 356.077 151.539 355.487C151.539 354.637 151.57 353.228 151.634 351.256C151.507 351.112 151.166 351.041 150.61 351.041C150.054 351.041 149.697 351.122 149.539 351.281C149.475 352.588 149.139 353.522 148.53 353.912C147.92 354.303 146.776 354.582 145.098 354.582H141.36V344.101C141.36 343.475 141.452 342.887 141.84 342.396C142.228 341.907 142.598 341.631 143.153 341.631H147.549C149.229 341.631 150.449 342.095 151.209 342.962C151.97 343.83 152.659 345.25 153.277 347.194C154.087 347.323 154.785 347.25 155.372 346.961C155.309 346.399 155.238 345.534 155.158 344.357C155.078 343.181 155.007 342.135 154.944 341.212V341.212Z" fill="#402F22"/>
<path d="M182.662 341.212C182.598 340.288 182.551 339.779 182.519 339.683C182.519 339.588 182.455 339.493 182.328 339.493C181.566 339.621 180.765 339.638 179.923 339.638H165.302L157.778 339.589C157.65 339.748 157.587 340.051 157.587 340.449C157.587 340.848 157.65 341.139 157.778 341.298C159.603 341.362 160.846 341.635 161.355 342.105C161.862 342.575 162.193 343.796 162.193 345.758V365.343C162.193 366.331 162.041 367.124 161.891 367.722C161.739 368.32 161.424 368.759 161.019 369.037C160.614 369.317 160.198 369.496 159.809 369.576C159.42 369.656 158.811 369.711 158.001 369.743C157.731 369.886 157.595 370.17 157.604 370.592C157.612 371.014 157.74 371.29 157.994 371.417C160.582 371.353 163.085 371.321 165.506 371.321C168.172 371.321 170.807 371.353 173.41 371.417C173.657 371.258 173.78 370.978 173.78 370.58C173.78 370.181 173.653 369.902 173.401 369.743C172.563 369.711 171.931 369.656 171.505 369.576C171.078 369.496 170.632 369.317 170.166 369.037C169.699 368.759 169.251 368.316 169.054 367.71C168.857 367.104 168.642 366.315 168.642 365.343V356.575H172.816C174.447 356.575 175.578 356.866 176.211 357.336C176.845 357.806 177.193 358.643 177.256 359.791C177.415 359.95 177.772 360.044 178.328 360.044C178.884 360.044 179.225 359.971 179.352 359.812C179.288 357.516 179.257 356.077 179.257 355.487C179.257 354.637 179.288 353.228 179.352 351.256C179.225 351.112 178.884 351.041 178.328 351.041C177.772 351.041 177.415 351.122 177.256 351.281C177.193 352.588 176.857 353.522 176.247 353.912C175.638 354.303 174.494 354.582 172.816 354.582H168.642V344.101C168.642 343.475 168.952 342.887 169.34 342.396C169.729 341.907 170.316 341.631 170.87 341.631H175.267C176.947 341.631 178.167 342.095 178.927 342.962C179.688 343.83 180.377 345.25 180.995 347.194C181.805 347.323 182.503 347.25 183.09 346.961C183.027 346.399 182.955 345.534 182.876 344.357C182.796 343.181 182.725 342.135 182.662 341.212V341.212Z" fill="#402F22"/>
<path d="M210.38 363.134C209.207 367.341 206.917 369.527 203.51 369.527H198.589C198.05 369.527 197.496 369.215 197.1 368.757C196.704 368.3 196.42 367.659 196.42 367V355.579H200.534C202.164 355.579 203.296 355.877 203.929 356.348C204.563 356.818 204.911 357.659 204.974 358.807C205.133 358.966 205.49 359.062 206.046 359.062C206.601 359.062 206.942 358.997 207.07 358.852C207.006 356.562 206.975 355.123 206.975 354.53C206.975 353.669 207.006 352.26 207.07 350.299C206.942 350.14 206.601 350.061 206.046 350.061C205.49 350.061 205.133 350.142 204.974 350.301C204.911 351.608 204.575 352.534 203.965 352.924C203.356 353.315 202.212 353.586 200.534 353.586H196.42V344.103C196.42 343.476 196.7 342.887 197.089 342.397C197.477 341.907 198.034 341.631 198.588 341.631H202.723C204.418 341.631 205.654 342.065 206.431 342.871C207.207 343.677 207.888 345.056 208.474 346.974C209.284 347.104 209.982 347.031 210.57 346.74C210.506 346.176 210.435 345.332 210.356 344.2C210.276 343.07 210.205 342.059 210.141 341.165C210.078 340.272 210.03 339.778 209.999 339.683C209.982 339.587 209.911 339.493 209.784 339.493C209.038 339.621 208.244 339.638 207.403 339.638H193.02L185.495 339.589C185.368 339.748 185.305 340.051 185.305 340.449C185.305 340.848 185.368 341.139 185.495 341.298C187.321 341.362 188.595 341.635 189.103 342.105C189.611 342.575 189.972 343.796 189.972 345.758V365.343C189.972 367.272 189.612 368.472 189.107 368.942C188.602 369.412 187.387 369.68 185.572 369.743C185.445 369.886 185.356 370.17 185.356 370.592C185.356 371.014 185.405 371.389 185.532 371.516C187.133 371.484 189.64 371.52 193.079 371.52H204.526C206.096 371.52 208.342 371.452 211.261 371.516C211.451 370.814 211.63 369.957 211.797 369.045C211.963 368.133 212.118 367.053 212.261 365.857C212.404 364.661 212.507 363.843 212.57 363.346C211.919 362.992 211.189 362.941 210.38 363.134V363.134Z" fill="#402F22"/>
<path d="M239.812 363.134C238.639 367.341 236.349 369.527 232.942 369.527H228.022C227.482 369.527 227.094 369.215 226.698 368.757C226.302 368.3 226.183 367.659 226.183 367V355.579H229.967C231.597 355.579 232.729 355.877 233.362 356.348C233.995 356.818 234.343 357.659 234.407 358.807C234.565 358.966 234.922 359.062 235.478 359.062C236.034 359.062 236.375 358.997 236.502 358.852C236.439 356.562 236.407 355.123 236.407 354.53C236.407 353.669 236.439 352.26 236.502 350.299C236.375 350.14 236.034 350.061 235.478 350.061C234.922 350.061 234.565 350.142 234.407 350.301C234.343 351.608 234.007 352.534 233.398 352.924C232.788 353.315 231.645 353.586 229.967 353.586H226.183V344.103C226.183 343.476 226.298 342.887 226.686 342.397C227.074 341.907 227.467 341.631 228.021 341.631H232.156C233.851 341.631 235.087 342.065 235.863 342.871C236.639 343.677 237.321 345.056 237.907 346.974C238.717 347.104 239.415 347.031 240.003 346.74C239.939 346.176 239.868 345.332 239.788 344.2C239.709 343.07 239.637 342.059 239.574 341.165C239.511 340.272 239.463 339.778 239.431 339.683C239.415 339.587 239.344 339.493 239.217 339.493C238.471 339.621 237.677 339.638 236.836 339.638H222.453L214.928 339.589C214.801 339.748 214.737 340.051 214.737 340.449C214.737 340.848 214.801 341.139 214.928 341.298C216.753 341.362 217.944 341.635 218.452 342.105C218.96 342.575 219.238 343.796 219.238 345.758V365.343C219.238 367.272 218.962 368.472 218.456 368.942C217.951 369.412 216.778 369.68 214.963 369.743C214.836 369.886 214.767 370.17 214.767 370.592C214.767 371.014 214.827 371.389 214.954 371.516C216.555 371.484 219.073 371.52 222.512 371.52H233.959C235.529 371.52 237.774 371.452 240.693 371.516C240.884 370.814 241.062 369.957 241.229 369.045C241.396 368.133 241.551 367.053 241.693 365.857C241.837 364.661 241.939 363.843 242.003 363.346C241.352 362.992 240.622 362.941 239.812 363.134V363.134Z" fill="#402F22"/>
<path d="M38.4967 321.219C37.3004 321.219 36.3216 320.93 35.5604 320.351C34.7992 319.772 33.9923 318.82 33.1406 317.497L25.5824 305.639C27.2874 304.895 28.7444 303.723 29.9532 302.125C31.1625 300.527 31.7671 298.43 31.7671 295.832C31.7849 292.437 30.3967 289.885 27.6017 288.178C25.5671 286.961 22.5419 286.353 18.5268 286.353C17.7833 286.353 14.8563 286.417 9.74502 286.544C4.6338 286.671 1.7061 286.735 0.963236 286.735C0.709123 286.877 0.582471 287.177 0.582471 287.637C0.582471 288.097 0.709123 288.415 0.963236 288.592C1.9055 288.628 2.5988 288.692 3.04313 288.783C3.48715 288.875 3.94034 289.079 4.40237 289.398C4.86473 289.718 5.10661 290.223 5.2698 290.916C5.43299 291.609 5.44361 292.512 5.44361 293.624V316.078C5.44361 317.208 5.43299 318.115 5.2698 318.799C5.10661 319.483 4.82933 319.984 4.36697 320.303C3.90493 320.622 3.46462 320.828 3.01175 320.919C2.55856 321.01 1.87862 321.074 0.954386 321.11C0.700273 321.274 0.578125 321.588 0.578125 322.052C0.578125 322.516 0.70687 322.84 0.960983 323.021C3.93341 322.952 6.79818 322.918 9.55367 322.918C12.2179 322.918 15.0367 322.952 18.0097 323.021C18.2814 322.85 18.4129 322.55 18.4039 322.12C18.3948 321.691 18.2635 321.391 18.0101 321.219C17.0855 321.183 16.4014 321.118 15.9575 321.025C15.513 320.933 15.0603 320.725 14.598 320.401C14.1358 320.078 13.8145 319.565 13.6425 318.862C13.47 318.16 13.3803 317.245 13.3803 316.118V306.967C15.3645 306.967 16.8325 307.083 17.4761 307.314C18.1192 307.545 18.6512 308.002 19.0687 308.686L25.5292 318.557C27.7935 321.825 30.24 323.458 32.8683 323.458C36.0582 323.458 37.9527 323.313 38.5509 323.021C38.6597 322.85 38.7049 322.558 38.6869 322.146C38.6685 321.734 38.6054 321.425 38.4967 321.219V321.219ZM21.8707 303.159C20.4749 304.218 18.4451 304.768 15.7807 304.768H13.3803V293.578C13.3803 291.587 13.5881 290.258 13.9961 289.591C14.4039 288.925 15.3165 288.592 16.7303 288.592C21.5515 288.592 23.9634 291.332 23.9634 296.793C23.9634 299.971 23.2664 302.099 21.8707 303.159V303.159Z" fill="#402F22"/>
<path d="M66.2685 322.134C66.2685 321.688 66.1958 321.374 66.0509 321.192C63.7129 321.101 62.1491 320.787 61.5239 320.25C60.8985 319.713 60.5042 318.325 60.5042 316.086V307.949C60.5042 305.893 60.8757 304.336 61.5102 303.281L68.7018 291.322C69.2999 290.303 69.941 289.634 70.5846 289.315C71.2275 288.997 72.2304 288.774 73.5718 288.646C73.7529 288.446 73.8488 288.123 73.8488 287.677C73.8488 287.231 73.7606 286.917 73.5794 286.735C71.3501 286.808 69.6204 286.844 68.388 286.844C67.246 286.844 65.1893 286.808 62.2169 286.735C62.0355 286.917 61.9452 287.236 61.9452 287.691C61.9452 288.146 62.036 288.464 62.2174 288.646C63.5224 288.719 64.4332 288.987 64.9498 289.452C65.4664 289.916 65.498 290.558 65.0451 291.376L59.3083 302.216C58.9454 302.926 58.5289 302.871 58.0577 302.052L52.2395 291.759C51.5686 290.721 51.3558 289.962 51.6006 289.479C51.8452 288.997 52.7107 288.719 54.1971 288.646C54.378 288.446 54.4689 288.123 54.4689 287.677C54.4689 287.231 54.378 286.917 54.1971 286.735C51.2242 286.808 48.9225 286.844 47.2913 286.844C44.2461 286.844 41.6091 286.808 39.3797 286.735C39.2344 286.917 39.1621 287.236 39.1621 287.691C39.1621 288.146 39.2526 288.464 39.4339 288.646C40.6847 288.738 41.6497 289.001 42.3296 289.438C43.0092 289.875 43.7839 290.84 44.6541 292.332L51.75 304.346C52.2395 305.201 52.6468 305.847 52.7738 306.284C52.9005 306.721 53.0635 307.44 53.0635 308.441V316.086C53.0635 318.325 52.6468 319.717 52.0126 320.264C51.3779 320.809 49.8421 321.119 47.5041 321.192C47.3587 321.374 47.2617 321.688 47.2617 322.134C47.2617 322.58 47.3214 322.876 47.4669 323.021C51.1099 322.948 54.3571 322.912 57.2212 322.912C59.3962 322.912 62.3382 322.948 66.054 323.021C66.1988 322.876 66.2685 322.58 66.2685 322.134V322.134Z" fill="#402F22"/>
<path d="M111.075 323.021C111.219 322.876 111.292 322.557 111.292 322.065C111.292 321.574 111.219 321.256 111.075 321.11C110.295 321.037 109.86 321 109.77 321C109.679 321 109.334 320.937 108.736 320.809C108.138 320.682 107.748 320.528 107.567 320.345C107.386 320.164 107.136 319.886 106.82 319.512C106.502 319.14 106.253 318.72 106.072 318.156L94.5987 286.834C94.5987 286.834 90.7252 286.834 89.3479 286.834L76.3825 317.255C75.9477 318.384 75.4214 319.201 74.8055 319.755C74.1892 320.311 73.6093 320.649 73.0655 320.794C72.5217 320.94 71.7695 321.044 70.8091 321.116C70.6277 321.28 70.5371 321.6 70.5371 322.082C70.5371 322.565 70.6277 322.877 70.8091 323.023C73.5639 322.95 75.3128 322.913 76.0563 322.913C78.2315 322.913 80.696 322.949 83.4515 323.022C83.5963 322.876 83.6689 322.557 83.6689 322.066C83.6689 321.574 83.5963 321.256 83.4515 321.11C82.9798 321.074 82.6221 321.046 82.3774 321.028C82.1328 321.01 81.7881 320.965 81.3444 320.892C80.9001 320.819 80.592 320.728 80.42 320.618C80.2475 320.509 80.0256 320.359 79.7539 320.168C79.4819 319.977 79.382 319.741 79.4547 319.458C79.5268 319.176 79.5814 318.853 79.6179 318.489L82.5543 310.735C82.7173 310.352 82.9167 310.083 83.1523 309.955C83.3878 309.828 83.841 309.749 84.5117 309.749H95.0879L98.2145 318.883C98.2868 319.138 98.3323 319.364 98.3503 319.546C98.3682 319.728 98.3504 319.9 98.2961 320.055C98.2417 320.21 98.169 320.343 98.0787 320.453C97.9876 320.562 97.8473 320.645 97.6572 320.699C97.4668 320.754 97.299 320.809 97.1541 320.864C97.0088 320.918 96.7961 320.955 96.5152 320.973C96.2339 320.992 95.994 321.01 95.7949 321.028C95.595 321.046 95.3144 321.065 94.9519 321.083C94.5892 321.101 94.2995 321.11 94.0821 321.11C93.9006 321.273 93.8099 321.597 93.8099 322.079C93.8099 322.562 93.9006 322.876 94.0821 323.021C96.8369 322.948 100.018 322.912 103.625 322.912C105.836 322.912 108.319 322.948 111.075 323.021V323.021ZM85.6264 307.258C85.3724 307.258 85.1595 307.163 84.9874 307.153C84.8151 307.145 84.6656 307.076 84.5389 307.04C84.4121 307.003 84.3213 306.935 84.2669 306.88C84.2127 306.826 84.1762 306.742 84.1582 306.65C84.14 306.56 84.1582 306.441 84.2127 306.332L89.1608 293.808H89.5415L94.0821 307.258H85.6264V307.258Z" fill="#402F22"/>
<path d="M146.872 290.639C147.189 289.893 147.662 289.41 148.215 289.192C148.768 288.974 149.807 288.792 151.293 288.646C151.474 288.446 151.575 288.123 151.575 287.677C151.575 287.231 151.489 286.917 151.308 286.735C147.665 286.808 145.664 286.844 145.302 286.844C144.704 286.844 142.548 286.808 138.832 286.735C138.651 286.917 138.561 287.236 138.561 287.691C138.561 288.146 138.652 288.464 138.833 288.646C140.319 288.792 141.343 288.965 141.905 289.165C142.467 289.365 142.976 289.839 143.294 290.585C143.611 291.331 143.839 292.56 143.839 294.271V309.998C143.839 310.653 143.556 310.971 143.294 310.953C143.031 310.935 142.656 310.68 142.239 310.189L127.459 292.714L122.475 286.844L113.417 286.735C113.254 286.917 113.174 287.236 113.183 287.691C113.192 288.146 113.268 288.464 113.414 288.646C114.519 288.719 115.359 289.12 116.174 289.847C116.99 290.576 117.549 291.349 117.549 292.168V315.485C117.549 317.16 117.515 318.371 117.207 319.117C116.899 319.863 116.524 320.345 115.963 320.564C115.4 320.782 114.406 320.965 112.92 321.11C112.775 321.273 112.718 321.597 112.718 322.079C112.718 322.562 112.797 322.876 112.943 323.021C116.586 322.948 118.674 322.912 119.2 322.912C119.635 322.912 121.712 322.948 125.428 323.021C125.572 322.876 125.646 322.557 125.646 322.066C125.646 321.574 125.574 321.256 125.429 321.11C123.943 320.965 122.923 320.792 122.371 320.591C121.817 320.391 121.35 319.918 121.033 319.172C120.716 318.425 120.525 317.196 120.525 315.485V298.858C120.525 298.111 120.703 297.738 120.993 297.738C121.264 297.738 121.725 298.111 122.341 298.858L141 321.11C141.725 322.057 142.472 322.885 143.234 323.595C144.648 323.595 145.742 323.367 146.666 322.912L146.319 317.206V294.271C146.319 292.596 146.555 291.386 146.872 290.639V290.639Z" fill="#402F22"/>
<path d="M185.046 307.314C185.689 307.545 186.175 308.002 186.593 308.686L193.03 318.557C195.295 321.825 197.73 323.458 200.358 323.458C203.548 323.458 205.437 323.313 206.035 323.021C206.144 322.85 206.186 322.558 206.168 322.146C206.15 321.734 206.085 321.425 205.976 321.219C204.78 321.219 203.8 320.93 203.039 320.351C202.278 319.772 201.471 318.82 200.619 317.497L193.061 305.639C194.765 304.895 196.223 303.723 197.431 302.125C198.641 300.527 199.245 298.43 199.245 295.832C199.263 292.437 197.875 289.885 195.08 288.178C193.045 286.961 190.02 286.353 186.005 286.353C185.261 286.353 182.334 286.417 177.223 286.544C172.112 286.671 169.184 286.735 168.441 286.735C168.187 286.877 168.061 287.177 168.061 287.637C168.061 288.097 168.187 288.415 168.441 288.592C169.384 288.628 170.077 288.692 170.521 288.783C170.965 288.875 171.418 289.079 171.88 289.398C172.343 289.718 172.677 290.223 172.84 290.916C173.003 291.609 173.106 292.512 173.106 293.624V316.078C173.106 317.208 173.003 318.115 172.84 318.799C172.677 319.483 172.354 319.984 171.891 320.303C171.429 320.622 170.966 320.828 170.513 320.919C170.059 321.01 169.368 321.074 168.444 321.11C168.19 321.274 168.062 321.588 168.062 322.052C168.062 322.516 168.188 322.84 168.442 323.021C171.414 322.952 174.278 322.918 177.033 322.918C179.697 322.918 182.516 322.952 185.488 323.021C185.76 322.85 185.891 322.55 185.882 322.12C185.873 321.691 185.742 321.391 185.488 321.219C184.564 321.183 183.879 321.118 183.436 321.025C182.991 320.933 182.538 320.725 182.076 320.401C181.614 320.078 181.385 319.565 181.213 318.862C181.04 318.16 181.043 317.245 181.043 316.118V306.967C183.027 306.967 184.403 307.083 185.046 307.314V307.314ZM181.043 293.578C181.043 291.587 181.158 290.258 181.566 289.591C181.974 288.925 182.841 288.592 184.255 288.592C189.076 288.592 191.465 291.322 191.465 296.783C191.465 299.961 190.755 302.099 189.36 303.159C187.964 304.218 185.923 304.768 183.259 304.768H181.043V293.578Z" fill="#402F22"/>
<path d="M226.202 286.107C223.554 286.107 221.093 286.663 218.822 287.773C216.55 288.884 214.616 290.422 213.02 292.389C210.108 295.976 208.652 300.391 208.652 305.635C208.652 310.966 210.394 315.27 213.877 318.545C217.359 321.821 221.487 323.458 226.26 323.458C231.734 323.476 236.12 321.638 239.419 317.942C242.507 314.465 244.051 309.988 244.051 304.508C244.051 299.066 242.335 294.639 238.904 291.226C235.473 287.813 231.239 286.107 226.202 286.107V286.107ZM233.906 317.001C232.346 319.813 230.168 321.219 227.373 321.219C224.215 321.219 221.605 319.721 219.545 316.725C217.485 313.73 216.455 309.657 216.455 304.508C216.455 299.066 217.304 295.012 219.001 292.346C220.698 289.679 222.88 288.346 225.548 288.346C228.67 288.346 231.234 289.858 233.24 292.881C235.245 295.905 236.248 300.174 236.248 305.69C236.248 310.417 235.467 314.188 233.906 317.001V317.001Z" fill="#402F22"/>
<path d="M302.587 286.735C299.832 286.808 298.083 286.844 297.34 286.844C295.165 286.844 292.7 286.808 289.945 286.735C289.763 286.917 289.673 287.236 289.673 287.691C289.673 288.146 289.763 288.464 289.945 288.646C291.105 288.774 292.07 289.188 292.84 289.889C293.611 290.589 293.833 291.431 293.506 292.414L287.226 311.171L286.519 313.192L285.703 310.844L277.9 288.646C276.831 288.883 275.716 288.883 274.556 288.646L266.617 311.171L266.182 312.619L265.666 310.844L259.603 290.858C259.458 290.421 259.458 290.062 259.603 289.779C259.748 289.497 260.042 289.284 260.486 289.138C260.931 288.992 261.374 288.883 261.819 288.81C262.263 288.738 262.892 288.683 263.708 288.646C263.872 288.446 263.948 288.123 263.939 287.677C263.93 287.231 263.853 286.917 263.708 286.735C260.971 286.808 257.709 286.844 253.921 286.844C251.691 286.844 249.199 286.808 246.444 286.735C246.299 286.917 246.227 287.236 246.227 287.691C246.227 288.146 246.299 288.464 246.444 288.646C247.785 288.792 248.868 289.06 249.693 289.452C250.518 289.843 251.111 290.575 251.474 291.65L261.941 322.284C262.231 323.158 262.843 323.59 263.776 323.581C264.71 323.572 265.34 323.139 265.666 322.284L274.012 300.004L282.55 322.284C282.658 322.594 282.917 322.89 283.324 323.171C283.732 323.454 284.081 323.595 284.371 323.595C285.35 323.576 285.984 323.139 286.274 322.284L296.742 293.697C297.031 292.878 297.385 292.155 297.802 291.527C298.219 290.899 298.681 290.384 299.188 289.984C299.696 289.584 300.235 289.27 300.806 289.042C301.377 288.815 301.971 288.683 302.587 288.646C302.732 288.446 302.805 288.123 302.805 287.677C302.805 287.231 302.732 286.917 302.587 286.735V286.735Z" fill="#402F22"/>
<path d="M182.028 118.661C181.279 118.25 180.486 118.215 179.797 118.563C177.923 119.511 176.339 122.506 176.04 123.097C175.668 123.832 175.961 124.731 176.693 125.105C177.425 125.478 178.321 125.185 178.694 124.451C179.168 123.516 180.101 122.059 180.824 121.448C181.704 122.262 183.305 125.398 183.597 128.244C183.923 131.415 182.487 138.057 177.25 142.379C176.614 142.903 176.522 143.844 177.044 144.482C177.339 144.842 177.765 145.028 178.195 145.028C178.527 145.028 178.862 144.917 179.139 144.688C185.32 139.588 186.962 131.877 186.558 127.937C186.21 124.543 184.198 119.854 182.028 118.661Z" fill="#402F22"/>
<path d="M177.54 128.44C177.029 127.794 176.092 127.685 175.45 128.199C174.806 128.713 174.698 129.653 175.209 130.299C177.841 133.626 174.782 136.435 174.419 136.749C173.795 137.281 173.716 138.221 174.245 138.851C174.539 139.201 174.96 139.382 175.384 139.382C175.722 139.382 176.062 139.267 176.341 139.031C178.326 137.352 181.129 132.978 177.54 128.44V128.44Z" fill="#402F22"/>
<path d="M110.435 108.832C110.485 108.813 115.452 106.967 121.066 106.497C126.343 106.054 133.518 109.956 133.589 109.995C133.891 110.161 134.218 110.241 134.541 110.241C135.242 110.241 135.922 109.867 136.282 109.206C136.809 108.241 136.458 107.03 135.497 106.501C135.161 106.316 127.209 101.988 120.737 102.526C114.582 103.041 109.269 105.015 109.046 105.099C108.019 105.484 107.498 106.632 107.882 107.663C108.266 108.694 109.409 109.218 110.435 108.832V108.832Z" fill="#402F22"/>
<path d="M133.392 115.933C121.25 110.485 114.513 111.79 114.232 111.848C113.428 112.015 112.91 112.806 113.076 113.614C113.242 114.422 114.028 114.943 114.834 114.776C114.85 114.772 115.277 114.691 116.095 114.663C116.023 115.839 116.127 117.441 116.828 119.154C116.577 119.148 116.346 119.138 116.145 119.127C115.735 119.102 115.334 119.248 115.035 119.531C114.737 119.813 114.567 120.207 114.567 120.618C114.567 123.797 118.115 126.375 118.519 126.659C118.778 126.841 119.075 126.928 119.37 126.928C119.839 126.928 120.302 126.705 120.591 126.289C121.061 125.612 120.897 124.681 120.223 124.208C119.672 123.822 118.751 123.011 118.146 122.14C121.468 122.075 127.763 121.501 131.375 118.31C131.641 118.425 131.906 118.54 132.178 118.662C132.375 118.75 132.581 118.792 132.784 118.792C133.353 118.792 133.896 118.462 134.144 117.907C134.479 117.153 134.142 116.269 133.392 115.933ZM120.106 119.052C119.105 117.42 118.989 115.823 119.061 114.791C121.25 115.027 124.27 115.624 128.086 117.002C125.838 118.276 122.72 118.84 120.106 119.052V119.052Z" fill="#402F22"/>
<path d="M151.696 269.71C185.583 269.71 217.446 256.457 241.408 232.393C265.37 208.329 278.569 176.335 278.569 142.303C278.569 117.731 271.589 93.8753 258.379 73.3148C245.521 53.3014 227.414 37.3359 206.034 27.1446C204.692 26.5051 203.861 26.0999 201.877 25.3059V16.8319C201.877 13.9116 200.363 11.2004 197.823 9.75631C194.046 7.60924 187.033 4.545 175.393 2.57587C173.975 2.34524 166.913 1.3791 162.488 1.06847C162.047 1.0313 161.725 0.98734 161.312 0.990733C157.828 0.772067 154.084 0.647461 150.04 0.647461C125.757 0.647461 113.127 4.98976 106.859 8.63291C103.7 10.4682 101.676 13.8914 101.676 17.5662V25.072C100.188 25.5897 99.7982 25.9612 98.8389 26.402C77.0395 36.4236 58.6116 52.3931 45.4442 72.5839C31.9252 93.3138 24.8066 117.422 24.8066 142.303C24.8066 176.335 38.0168 208.329 61.9789 232.393C85.9417 256.457 117.808 269.71 151.696 269.71ZM57.1946 207.728C56.7102 207.008 55.5722 206.218 54.477 205.281C53.2993 204.314 51.9478 203.191 51.3595 202.249C50.6409 200.995 50.4199 199.887 50.3443 199.341C51.572 198.743 53.0221 198.82 54.3662 199.409C55.0268 199.711 55.7074 200.115 56.3267 200.636C56.9443 201.157 57.5026 201.793 57.9667 202.537C58.8348 203.996 59.3346 205.521 59.3103 206.977C59.2941 208.424 58.8086 209.766 57.8492 210.669C57.8999 209.829 57.8349 208.651 57.1946 207.728ZM49.3687 194.55C48.982 193.772 48.0158 192.81 46.9822 191.77C45.9476 190.652 44.7836 189.347 44.3349 188.331C44.0502 187.667 43.8576 187.065 43.7782 186.544C43.6971 186.023 43.6817 185.603 43.6849 185.326C44.3323 185.111 45.011 185.073 45.6822 185.184C46.3533 185.295 47.0098 185.558 47.6673 185.927C48.9638 186.676 50.1013 187.911 50.8028 189.517C51.5355 191.047 51.783 192.647 51.5587 194.091C51.452 194.809 51.2201 195.49 50.9053 196.076C50.5931 196.661 50.1694 197.166 49.6367 197.547C49.7603 196.741 49.8682 195.558 49.3687 194.55ZM43.3421 180.451C43.0733 179.624 42.26 178.536 41.3914 177.361C40.4459 176.135 39.499 174.676 39.2076 173.603C38.8278 172.207 38.8728 171.089 38.9358 170.545C40.2792 170.293 41.6745 170.749 42.8424 171.666C43.4266 172.125 43.9543 172.702 44.3927 173.374C44.6119 173.71 44.8087 174.07 44.9794 174.452C45.1643 174.83 45.3346 175.226 45.4695 175.643C45.9997 177.255 45.9822 178.89 45.5731 180.289C45.2052 181.67 44.403 182.828 43.2441 183.445C43.5083 182.649 43.7013 181.516 43.3421 180.451ZM39.2806 165.659C39.1942 165.233 38.9491 164.731 38.6861 164.165C38.4225 163.599 38.0913 162.979 37.7498 162.337C37.39 161.661 37.005 160.934 36.6872 160.238C36.3681 159.542 36.1106 158.877 36.0599 158.324C35.8925 156.887 36.1032 155.782 36.2461 155.25C37.6097 155.181 38.9192 155.82 39.9347 156.889C40.4545 157.422 40.8504 158.072 41.236 158.791C41.6079 159.512 41.8811 160.316 42.0261 161.181C42.1665 162.019 42.1744 162.842 42.0691 163.624C41.9824 164.402 41.8132 165.132 41.5261 165.796C40.9604 167.118 39.9994 168.162 38.7666 168.617C39.1339 167.864 39.5219 166.758 39.2806 165.659ZM36.5551 131.511C36.3887 130.763 36.2115 129.959 36.0908 129.202C35.9834 128.447 35.9538 127.742 36.0285 127.192C36.2287 125.759 36.711 124.751 37.016 124.282C38.3438 124.59 39.407 125.56 40.1296 126.868C40.8391 128.177 41.1381 129.814 40.9827 131.554C40.9033 132.397 40.6651 133.187 40.3927 133.912C40.1122 134.636 39.7311 135.291 39.2745 135.851C38.8189 136.411 38.2845 136.877 37.7062 137.218C37.1386 137.56 36.5164 137.776 35.8639 137.831C36.3866 137.202 37.0828 136.241 37.1547 135.12C37.2104 134.254 36.8513 132.93 36.5551 131.511ZM39.1762 116.283C39.061 114.757 38.9259 112.993 39.2579 111.932C39.6685 110.544 40.2692 109.608 40.635 109.186C41.9009 109.672 42.8453 110.789 43.3674 112.183C43.626 112.88 43.7752 113.648 43.7985 114.45C43.8378 115.256 43.7731 116.102 43.5555 116.951C43.1124 118.588 42.3355 119.991 41.2551 120.969C40.1724 121.944 38.9255 122.523 37.6068 122.444C37.9191 122.173 38.2708 121.82 38.5683 121.399C38.8793 120.98 39.1448 120.494 39.2629 119.943C39.4588 119.097 39.2628 117.729 39.1762 116.283ZM41.4778 107.448C42.1755 106.996 43.0548 106.246 43.4562 105.195C43.7668 104.384 43.7663 103.003 43.8642 101.554C43.9659 100.03 44.0536 98.2586 44.5262 97.2522C45.1156 95.9315 45.8499 95.0904 46.2521 94.7127C47.4433 95.3624 48.2449 96.6003 48.5682 98.0495C48.7324 98.7763 48.7712 99.5553 48.6936 100.358C48.6329 101.167 48.445 101.995 48.115 102.808C47.9562 103.202 47.7674 103.574 47.5629 103.927C47.3677 104.283 47.1496 104.617 46.9122 104.927C46.4375 105.547 45.8861 106.072 45.2889 106.485C44.0969 107.309 42.7724 107.708 41.4778 107.448ZM37.4486 140.386C38.0239 140.75 38.5341 141.247 38.9956 141.846C39.9002 143.043 40.4702 144.627 40.495 146.383C40.5506 148.081 40.1844 149.651 39.4145 150.892C38.661 152.129 37.5424 153.038 36.2812 153.322C36.7286 152.627 37.2975 151.578 37.2175 150.456C37.1642 149.588 36.6323 148.324 36.0961 146.961C35.5885 145.525 35.0117 143.868 34.995 142.757C34.9884 142.033 35.0483 141.404 35.1706 140.893C35.2951 140.382 35.4416 139.989 35.5507 139.735C36.2306 139.791 36.8713 140.022 37.4486 140.386ZM62.8005 211.871C63.5126 212.069 64.2132 212.401 64.8754 212.851C65.5632 213.28 66.2081 213.831 66.7739 214.5C67.3218 215.148 67.7479 215.851 68.0556 216.576C68.3594 217.305 68.5967 218.01 68.6824 218.73C68.8667 220.158 68.5683 221.546 67.7376 222.567C67.6719 221.732 67.4447 220.582 66.679 219.76C66.0692 219.142 64.9245 218.432 63.6802 217.68C62.3801 216.882 60.8474 215.986 60.1976 215.084C59.3186 213.938 58.9351 212.883 58.7862 212.353C59.925 211.596 61.3795 211.475 62.8005 211.871ZM73.7768 235.538C72.3586 235.33 70.8602 234.647 69.5769 233.509C68.2968 232.416 67.5112 230.985 67.1167 229.649C66.7319 228.301 66.79 226.993 67.3163 225.943C67.6576 226.565 68.2183 227.4 69.0888 228.25C69.5545 228.705 70.1888 229.13 70.8962 229.532C71.6117 229.927 72.4322 230.264 73.2177 230.61C74.4949 231.162 75.6871 231.671 76.2209 232.145C77.2058 232.966 77.5392 234.395 77.5688 234.749C76.5802 235.433 75.2281 235.712 73.7768 235.538ZM77.662 230.433C77.0136 229.857 75.7637 229.332 74.4228 228.76C73.7232 228.453 72.9454 228.151 72.2888 227.777C71.6274 227.409 71.0362 227.025 70.6399 226.638C69.6068 225.629 69.0801 224.642 68.859 224.141C69.889 223.239 71.3206 222.919 72.7909 223.114C73.5265 223.212 74.2731 223.44 74.9909 223.796C75.3504 223.974 75.7002 224.186 76.0434 224.425C76.3977 224.652 76.741 224.91 77.0687 225.201C78.3423 226.319 79.1428 227.752 79.5098 229.15C79.8884 230.53 79.7807 231.939 79.0924 233.06C78.9165 232.243 78.5232 231.153 77.662 230.433ZM82.3397 243.685C80.975 242.703 79.9672 241.445 79.4011 240.172C79.1185 239.534 78.9455 238.892 78.8936 238.269C78.8521 237.631 78.9269 237.019 79.1225 236.458C79.5169 237.062 80.1901 237.806 81.1745 238.519C81.7001 238.903 82.3896 239.233 83.149 239.532C83.9101 239.828 84.7295 240.109 85.5719 240.321C86.9186 240.687 88.1746 241.021 88.7707 241.413C89.3097 241.763 89.6901 242.305 89.9653 242.776C90.2426 243.244 90.3936 243.674 90.4324 243.843C88.6376 245.519 85.2202 245.576 82.3397 243.685ZM91.7206 241.966C91.5771 241.578 91.3711 241.125 91.0816 240.7C90.8012 240.258 90.4435 239.833 89.9736 239.525C89.2497 239.048 87.9336 238.706 86.5206 238.33C85.0463 237.919 83.4023 237.36 82.5001 236.716C81.9176 236.291 81.4608 235.853 81.1144 235.464C80.7798 235.06 80.557 234.702 80.4193 234.461C81.3268 233.424 82.6601 232.975 84.1629 232.946C85.6575 232.934 87.2549 233.43 88.6721 234.455C90.0881 235.384 91.0941 236.66 91.6297 238.017C92.1518 239.391 92.2614 240.752 91.7206 241.966ZM100.958 252.856C100.241 252.951 99.4736 252.942 98.6898 252.818C98.2988 252.754 97.9003 252.67 97.5094 252.541C97.1232 252.404 96.738 252.235 96.3589 252.036C94.8712 251.253 93.6948 250.161 92.9598 248.986C92.2443 247.771 91.9741 246.466 92.211 245.308C92.7002 245.822 93.428 246.537 94.5016 247.107C95.6535 247.714 97.4225 248.017 99.1047 248.295C100.472 248.511 101.784 248.627 102.425 248.939C103.586 249.48 104.265 250.812 104.386 251.146C103.615 252.06 102.392 252.666 100.958 252.856ZM105.411 249.117C105.032 248.365 104.384 247.38 103.367 246.906C102.975 246.723 102.439 246.595 101.82 246.491C101.199 246.39 100.495 246.311 99.7872 246.185C98.2862 245.945 96.5576 245.659 95.5772 245.142C94.3084 244.457 93.5754 243.585 93.2316 243.159C93.989 242.019 95.2771 241.351 96.7305 241.179C98.1992 240.987 99.8721 241.221 101.414 242.043C101.789 242.241 102.14 242.464 102.468 242.705C102.805 242.929 103.118 243.174 103.406 243.436C103.981 243.961 104.454 244.555 104.812 245.184C105.526 246.443 105.783 247.85 105.411 249.117ZM116.019 258.661C115.323 258.848 114.547 258.987 113.766 258.929C112.981 258.887 112.166 258.731 111.358 258.447C109.773 257.889 108.447 257.004 107.588 255.87C106.716 254.763 106.268 253.525 106.348 252.347C106.9 252.795 107.735 253.357 108.861 253.816C109.163 253.936 109.497 254.043 109.863 254.115C110.231 254.18 110.625 254.227 111.034 254.262C111.852 254.33 112.729 254.348 113.585 254.363C114.277 254.375 114.947 254.385 115.526 254.422C116.107 254.456 116.611 254.479 116.951 254.586C118.179 254.949 119.033 256.163 119.198 256.475C118.554 257.488 117.42 258.265 116.019 258.661ZM119.945 254.324C119.466 253.638 118.689 252.763 117.614 252.445C116.776 252.223 115.429 252.204 113.979 252.184C113.215 252.174 112.396 252.162 111.634 252.107C111.254 252.079 110.888 252.04 110.552 251.985C110.222 251.915 109.922 251.829 109.666 251.725C108.33 251.181 107.468 250.464 107.073 250.082C107.673 248.85 108.865 248.007 110.288 247.627C111.003 247.432 111.767 247.379 112.572 247.409C113.381 247.43 114.214 247.577 115.039 247.866C115.837 248.146 116.559 248.536 117.19 249.005C117.822 249.469 118.38 249.962 118.819 250.537C119.699 251.672 120.144 253.021 119.945 254.324ZM102.534 106.804C100.088 104.347 100.724 102.698 100.808 102.512C108.922 100.021 125.043 95.5092 142.064 93.1992C143.012 96.5411 146.25 106.994 151.119 112.674C151.121 112.677 151.124 112.68 151.126 112.684C151.135 112.693 151.142 112.703 151.151 112.713C152.313 114.061 153.358 115.181 154.28 116.168C156.902 118.975 158.282 120.457 158.508 122.923C158.582 123.721 158.536 124.621 158.37 125.705C157.499 131.386 145.034 150.658 137.055 157.419C133.835 160.147 132.167 160.59 131.339 160.479C130.474 160.364 129.838 159.527 128.895 158.163C128.539 157.648 128.171 157.117 127.749 156.608C127.603 156.432 127.441 156.233 127.263 156.014C124.761 152.939 119.293 146.225 109.487 142.726C109.569 142.681 109.646 142.624 109.715 142.555L109.796 142.475C109.988 142.284 110.183 142.095 110.366 141.896L110.894 141.249C111.057 141.01 111.219 140.78 111.359 140.519C111.499 140.258 111.641 140 111.747 139.708C111.864 139.43 111.938 139.118 112.016 138.816C112.075 138.5 112.12 138.183 112.117 137.854C112.119 137.53 112.098 137.2 112.028 136.88C111.965 136.559 111.862 136.247 111.735 135.953C111.612 135.656 111.439 135.385 111.262 135.127C111.163 135.003 111.075 134.875 110.964 134.761L110.787 134.576L110.652 134.458C110.534 134.353 110.362 134.206 110.197 134.078C108.797 132.607 107.071 131.681 106.989 131.637C106.504 131.38 105.905 131.567 105.649 132.052C105.393 132.538 105.577 133.141 106.061 133.399C106.078 133.408 107.585 134.221 108.753 135.444C108.831 135.572 108.897 135.683 109.001 135.852L109.093 136.006C109.087 136.013 109.119 136.074 109.13 136.104C109.165 136.175 109.191 136.256 109.222 136.329C109.273 136.484 109.311 136.639 109.336 136.792C109.363 136.943 109.377 137.094 109.369 137.243C109.37 137.39 109.358 137.537 109.33 137.683C109.308 137.829 109.257 137.975 109.223 138.124C109.161 138.273 109.121 138.422 109.035 138.572C108.974 138.724 108.882 138.877 108.795 139.031C108.711 139.186 108.584 139.333 108.493 139.493L108.139 139.954C108.075 140.022 108.018 140.095 107.958 140.166C107.917 140.173 107.877 140.178 107.835 140.191C107.755 140.192 107.674 140.186 107.588 140.195C107.496 140.168 107.4 140.166 107.297 140.146C107.189 140.106 107.081 140.081 106.964 140.035C106.844 139.979 106.722 139.937 106.594 139.875C106.342 139.742 106.068 139.595 105.79 139.429C105.709 139.38 105.619 139.329 105.537 139.28C105.464 139.217 105.394 139.157 105.318 139.09C104.344 138.236 103.241 137.268 101.837 137.113C101.295 137.052 100.802 137.447 100.742 137.994C100.682 138.541 101.075 139.033 101.62 139.093C102.404 139.18 103.186 139.866 104.013 140.591C104.091 140.659 104.172 140.73 104.252 140.799C104.315 140.876 104.371 140.953 104.436 141.03L104.727 141.351C104.626 141.323 104.513 141.291 104.403 141.26C104.308 141.217 104.209 141.182 104.103 141.159C104.004 141.138 103.897 141.114 103.787 141.088C103.202 140.925 102.758 140.807 102.443 140.74C99.849 139.994 96.2672 138.504 95.9086 135.913C95.7396 134.693 97.7996 128.779 98.7895 125.937C99.3386 124.36 99.8128 122.999 100.079 122.094C100.342 121.2 100.692 120.167 101.03 119.167C101.592 117.507 102.173 115.789 102.436 114.49C102.642 113.463 102.839 112.641 103.013 111.915C103.552 109.669 103.908 108.184 102.534 106.804ZM100.775 102.522C100.785 102.519 100.797 102.515 100.808 102.512L100.794 102.533L100.775 102.522ZM163.663 120.674C163.952 121.091 164.415 121.315 164.885 121.315C165.179 121.315 165.475 121.228 165.735 121.046C179.103 111.695 186.299 99.3673 188.351 95.463C189.553 95.8588 190.708 96.2786 191.82 96.7215C190.73 98.8736 188.184 103.523 184.821 107.243C184.268 107.854 184.313 108.799 184.922 109.354C185.207 109.614 185.565 109.742 185.922 109.742C186.327 109.742 186.73 109.577 187.024 109.253C190.754 105.128 193.466 100.104 194.57 97.8919C195.402 98.271 196.213 98.6622 197.005 99.0636C196.261 101.211 194.049 106.956 190.212 111.798C189.701 112.443 189.807 113.384 190.45 113.898C190.724 114.116 191.051 114.223 191.376 114.223C191.814 114.223 192.247 114.03 192.541 113.659C196.451 108.725 198.74 103.083 199.665 100.487C200.583 101.001 201.482 101.527 202.366 102.063C201.365 104.84 197.69 114.576 193.189 120.876C192.71 121.547 192.863 122.481 193.531 122.961C193.794 123.151 194.097 123.242 194.397 123.242C194.861 123.242 195.317 123.025 195.608 122.618C200.09 116.344 203.669 107.178 204.95 103.676C205.658 104.129 206.362 104.587 207.064 105.048C206.246 108.265 201.354 126.457 192.733 137.462C192.225 138.11 192.336 139.05 192.982 139.56C193.255 139.776 193.579 139.88 193.901 139.88C194.342 139.88 194.778 139.685 195.072 139.31C203.493 128.559 208.34 111.913 209.695 106.778C210.16 107.085 210.627 107.391 211.093 107.697C207.632 132.521 199.412 141.825 195.876 145.822C195.612 146.12 195.375 146.388 195.17 146.629C193.24 148.89 191.65 150.145 190.877 150.691C188.16 149.76 185.732 148.236 184.292 147.221C187.808 143.68 190.098 138.87 191.225 134.529C192.721 128.766 192.908 125.677 188.663 118.217C184.036 110.086 177.568 113.366 177.504 113.4C177.401 113.454 177.304 113.52 177.217 113.597C176.883 113.888 169.045 120.859 168.523 131.337C168.521 131.374 168.521 131.411 168.52 131.448C165.199 126.684 162.302 123.176 161.397 122.102C161.113 120.156 160.299 118.645 159.103 117.121C172.347 110.988 179.539 97.6711 181.477 93.6188C182.853 93.9108 184.17 94.2324 185.433 94.5814C183.155 98.7349 176.187 110.092 164.033 118.594C163.359 119.066 163.193 119.997 163.663 120.674ZM187.38 182.389L189.143 198.187C188.533 198.59 187.87 199.01 187.164 199.44L185.711 186.599C185.618 185.779 184.879 185.192 184.065 185.283C183.248 185.376 182.661 186.116 182.755 186.937L184.353 201.061C183.663 201.438 182.941 201.818 182.183 202.201L180.746 192.037C180.63 191.22 179.871 190.65 179.063 190.768C178.249 190.884 177.684 191.641 177.799 192.458L179.368 203.551C178.457 203.967 177.504 204.381 176.509 204.791L175.567 198.095C175.452 197.278 174.7 196.713 173.885 196.824C173.071 196.94 172.505 197.696 172.62 198.513L173.66 205.907C172.785 206.232 171.884 206.553 170.952 206.866L170.259 202.534C170.129 201.72 169.364 201.162 168.554 201.296C167.743 201.427 167.191 202.193 167.321 203.008L168.085 207.782C165.738 208.491 163.232 209.151 160.559 209.739C159.756 209.915 159.248 210.712 159.424 211.518C159.576 212.217 160.192 212.694 160.876 212.694C160.981 212.694 161.088 212.682 161.196 212.659C175.522 209.508 185.22 204.43 190.945 200.614C189.377 203.106 187.355 206.181 184.874 209.685C178.565 212.73 165.997 215.373 158.155 216.466L158.863 214.83C159.08 214.33 159.007 213.75 158.675 213.318C158.341 212.887 157.801 212.673 157.263 212.759L143.643 214.946L137.229 212.651L136.915 206.737L144.015 190.304C148.717 189.549 171.682 185.713 181.052 181.353C185.901 179.096 189.166 177.161 191.282 175.728C191.774 175.664 192.186 175.362 192.406 174.938C192.412 174.934 192.418 174.93 192.423 174.926L194.732 193.926C194.212 194.402 193.28 195.212 191.921 196.235L190.338 182.056C190.246 181.236 189.509 180.646 188.694 180.738C187.877 180.83 187.289 181.569 187.38 182.389ZM123.814 164.795C124.595 162.446 124.954 160.035 125.112 158.094C125.236 158.246 125.355 158.392 125.462 158.521C125.801 158.929 126.117 159.385 126.45 159.868C126.896 160.512 127.367 161.19 127.927 161.785C128.358 164.4 130.23 178.22 123.657 187.805C123.498 187.722 123.41 187.671 123.404 187.667C123.31 187.61 123.211 187.564 123.108 187.53C122.499 187.326 121.121 186.366 120.698 185.07C120.394 184.141 120.615 183.166 121.373 182.088C124.396 177.788 125.366 174.976 125.366 170.516C125.366 168.442 124.787 166.535 123.814 164.795ZM131.169 163.462C131.925 163.528 132.721 163.423 133.583 163.129C134.403 166.636 135.762 176.04 131.724 190.373C129.552 189.973 127.783 189.459 126.444 188.985C132.225 180.108 131.761 168.625 131.169 163.462ZM136.309 161.727C137.008 161.267 137.75 160.713 138.542 160.062C139.736 164.831 142.006 176.82 139.273 191.069C137.628 191.056 136.101 190.96 134.697 190.806C139.076 175.017 137.212 165.038 136.309 161.727ZM139.15 194.056L135.026 203.601C134.917 202.792 134.811 201.973 134.709 201.161C134.356 198.374 134.017 195.703 133.517 193.683C135.219 193.9 137.098 194.039 139.15 194.056ZM125.243 191.738C126.549 192.212 128.216 192.719 130.242 193.139C130.906 194.833 131.338 198.238 131.756 201.538C132.014 203.574 132.28 205.679 132.615 207.527C132.629 207.604 132.652 207.678 132.677 207.751L130.294 210.379L125.756 209.627L122.754 204.496L125.243 191.738ZM126.28 220.889C126.614 220.64 126.838 220.26 126.877 219.83L127.875 218.06C128.126 217.619 128.173 217.093 128.001 216.661L126.62 213.149C126.714 213.043 126.796 212.93 126.855 212.805L130.299 213.375L130.414 213.386C130.789 213.406 131.179 213.238 131.469 212.919L134.469 209.61L134.706 214.038C134.733 214.582 135.036 215.025 135.475 215.186L139.832 216.745L135.1 219.052C134.617 219.29 134.269 219.818 134.214 220.401L133.741 225.61L130.861 221.602C130.656 221.322 130.361 221.16 130.034 221.142C129.911 221.136 129.784 221.147 129.659 221.184L125.465 222.335L126.28 220.889ZM129.24 224.223L133.652 230.35C133.857 230.635 134.155 230.796 134.478 230.814C134.658 230.824 134.843 230.79 135.024 230.707C135.542 230.484 135.912 229.94 135.965 229.339L136.198 226.771L139.211 230.709C139.09 230.808 138.979 230.923 138.892 231.062L128.746 247.281C124.349 246.311 120.051 245.07 115.872 243.574L124.332 225.567L129.24 224.223ZM141.091 233.166L143.206 235.931L135.02 248.471C133.962 248.304 132.91 248.118 131.862 247.92L141.091 233.166ZM136.835 222.697C136.762 222.602 136.678 222.522 136.589 222.45L136.609 222.235L143.965 224.961C144.135 225.024 144.309 225.054 144.48 225.054C145.085 225.054 145.654 224.68 145.876 224.077C146.161 223.302 145.766 222.442 144.995 222.157L139.3 220.047L143.503 217.995L155.05 216.141L146.653 235.531L136.835 222.697ZM172.451 154.305C172.527 154.848 172.587 155.383 172.616 155.904C172.777 158.812 172.978 162.463 170.765 167.261C168.279 149.489 159.843 138.756 157.205 135.777C157.731 134.841 158.217 133.934 158.66 133.062C160.932 135.843 166.698 143.34 172.451 154.305ZM160.058 130.085C160.621 128.757 161.019 127.585 161.221 126.617C163.086 128.982 165.818 132.61 168.534 136.81C168.582 136.883 168.641 136.942 168.699 137.004C168.962 139.46 169.438 141.767 169.971 143.943C165.053 135.988 160.983 131.151 160.058 130.085ZM175.587 155.738C175.558 155.212 175.502 154.681 175.433 154.147C175.463 153.902 175.427 153.649 175.329 153.408C175.236 152.817 175.128 152.223 175 151.621C175.355 151.923 175.846 152.053 176.331 151.928C178.426 151.39 180.239 150.448 181.905 149.228C183.323 150.282 186.003 152.205 189.476 153.413V173.258C187.492 174.591 184.446 176.449 179.737 178.641C175.43 180.645 167.901 182.576 160.728 184.12C175.064 171.527 176 163.199 175.587 155.738ZM181.141 146.102C181.063 146.155 180.99 146.215 180.922 146.284C179.425 147.512 177.664 148.501 175.593 149.033C175.132 149.151 174.777 149.474 174.599 149.88C174.347 148.856 174.066 147.814 173.781 146.753C172.576 142.278 171.211 137.206 171.496 131.486C171.917 123.035 178.006 116.947 179.027 115.984C179.858 115.637 183.207 114.653 186.079 119.699C189.811 126.259 189.678 128.64 188.345 133.774C187.924 135.399 185.965 141.997 181.141 146.102ZM168.251 171.62C167.384 172.879 166.351 174.204 165.126 175.6C163.155 156.348 155.935 144.715 153.713 141.538C154.371 140.521 155.002 139.511 155.604 138.516C158.765 142.375 166.801 153.804 168.251 171.62ZM162.395 178.505C161.308 179.59 160.107 180.715 158.783 181.881C157.596 161.414 151.675 150.483 149.706 147.372C150.456 146.341 151.196 145.293 151.917 144.238C154.603 148.438 161.046 160.25 162.395 178.505ZM155.92 184.307C155.487 184.661 155.037 185.02 154.582 185.38C153.305 185.628 152.083 185.858 150.942 186.068C152.473 170.644 147.164 156.218 145.695 152.588C146.386 151.743 147.081 150.863 147.775 149.959C150.043 153.952 155.168 165.004 155.92 184.307ZM147.888 186.617C145.216 187.085 143.361 187.382 142.875 187.459C144.863 172.672 141.979 161.074 141.024 157.8C141.821 157.007 142.646 156.127 143.49 155.176C145.357 160.262 149.433 173.304 147.888 186.617ZM157.049 114.765C156.854 114.555 156.656 114.342 156.451 114.123C155.928 113.563 155.36 112.953 154.76 112.29C167.237 106.565 173.137 95.9562 174.783 92.5064C176.044 92.6618 177.26 92.839 178.433 93.0373C176.135 97.5551 169.088 109.58 157.049 114.765ZM152.731 109.924C152.202 109.233 151.694 108.479 151.209 107.68C161.533 103.012 166.674 94.7869 168.207 91.9333C169.374 91.9976 170.506 92.0781 171.606 92.1752C169.531 96.0999 163.748 105.175 152.731 109.924ZM149.759 105.06C149.385 104.321 149.028 103.567 148.69 102.812C156.741 99.5735 160.665 93.8439 161.878 91.7515C162.023 91.7516 162.168 91.7518 162.312 91.7528C163.171 91.7582 164.01 91.7736 164.836 91.7951C162.825 95.0549 158.081 101.367 149.759 105.06ZM147.534 100.057C147.263 99.3679 147.007 98.6916 146.77 98.0409C150.976 96.177 153.809 93.1213 154.787 91.9514C155.953 91.8858 157.113 91.8363 158.268 91.8027C156.573 94.1185 153.175 97.7925 147.534 100.057ZM145.795 95.2029C145.489 94.2615 145.242 93.4484 145.057 92.8178C146.79 92.6113 148.528 92.4288 150.264 92.2769C149.111 93.276 147.597 94.3692 145.795 95.2029ZM121.57 161.737C120.584 160.666 119.455 159.683 118.241 158.786C118.595 157.386 119.202 154.753 119.512 152.101C120.548 153.014 121.458 153.916 122.246 154.758C122.266 155.892 122.235 158.734 121.57 161.737ZM116.712 149.869C116.608 152.32 116.032 155.18 115.6 157.036C114.353 156.295 113.068 155.633 111.796 155.057L114.333 148.308C115.175 148.812 115.968 149.335 116.712 149.869ZM111.687 146.882L109.041 153.922C107.744 153.441 106.51 153.058 105.393 152.769L108.811 145.659C109.819 146.032 110.777 146.443 111.687 146.882ZM100.511 148.393C100.579 148.309 100.638 148.217 100.687 148.12L102.798 143.921C102.852 143.934 102.907 143.947 102.961 143.96C103.125 144.005 103.288 144.051 103.437 144.093C103.955 144.238 104.43 144.371 104.673 144.427C105.105 144.526 105.527 144.634 105.945 144.747L102.426 152.068C101.526 151.763 100.846 151.32 100.402 150.741C99.8962 150.079 99.9417 149.091 100.511 148.393ZM104.263 155.574C106.506 156.141 109.744 157.293 112.87 158.972C112.173 159.179 111.273 159.392 110.113 159.577C105.912 160.25 103.876 159.327 103.764 158.709C103.638 158.014 103.917 156.707 104.263 155.574ZM107.83 168.603C108.539 165.436 108.912 163.762 109.108 162.88C109.12 162.824 109.13 162.766 109.142 162.71C109.608 162.666 110.087 162.608 110.581 162.529C113.412 162.076 115.075 161.439 116.038 160.909C119.591 163.396 122.389 166.635 122.389 170.516C122.389 173.748 121.941 175.923 119.4 179.697C118.925 179.68 118.41 179.667 117.871 179.653C115.232 179.588 111.244 179.49 109.85 178.745C106.834 177.134 106.244 175.69 107.83 168.603ZM119.538 204.899L122.992 210.805L122.979 210.895C122.958 211.136 122.988 211.377 123.073 211.594L124.431 215.046L120.787 213.836C120.007 213.577 119.165 214.003 118.907 214.786C118.649 215.57 119.072 216.415 119.853 216.674L124.633 218.261L111.795 219.428L119.538 204.899ZM123.096 221.401L121.714 223.849C121.581 224.083 121.514 224.339 121.499 224.592L113.072 242.529C112.065 242.136 111.064 241.733 110.072 241.311C110.293 241.145 110.473 240.918 110.576 240.639L117.509 221.909L123.096 221.401ZM131.717 262.401C130.391 262.943 128.753 263.131 127.07 262.81C126.658 262.731 126.259 262.631 125.877 262.504C125.499 262.361 125.137 262.198 124.794 262.017C124.11 261.654 123.503 261.221 122.996 260.74C121.981 259.776 121.368 258.622 121.29 257.449C121.899 257.809 122.805 258.241 123.985 258.527C124.617 258.68 125.379 258.721 126.192 258.705C127.003 258.702 127.885 258.553 128.736 258.452C130.116 258.27 131.401 258.095 132.101 258.228C132.729 258.36 133.298 258.661 133.735 258.986C134.172 259.31 134.478 259.649 134.58 259.79C134.077 260.877 133.049 261.841 131.717 262.401ZM133.955 256.635C133.522 256.357 133.023 256.133 132.473 256.018C131.623 255.856 130.28 256.047 128.835 256.244C127.309 256.487 125.582 256.602 124.505 256.347C123.104 256.007 122.15 255.428 121.706 255.11C122.137 253.808 123.208 252.8 124.573 252.215C125.256 251.923 126.014 251.738 126.812 251.676C127.211 251.646 127.62 251.646 128.035 251.68C128.451 251.713 128.881 251.744 129.309 251.83C130.971 252.144 132.391 252.936 133.41 253.985C134.435 254.982 135.058 256.239 135.035 257.557C134.752 257.254 134.387 256.916 133.955 256.635ZM147.768 263.968C147.146 264.335 146.436 264.627 145.667 264.819C144.898 265.015 144.07 265.11 143.218 265.021C141.546 264.878 140.039 264.328 138.906 263.53C138.338 263.141 137.866 262.654 137.507 262.125C137.148 261.6 136.901 261.036 136.785 260.454C137.434 260.746 138.382 261.115 139.594 261.197C140.89 261.31 142.636 260.901 144.292 260.503C145.636 260.14 146.888 259.755 147.6 259.786C148.879 259.831 150.02 260.793 150.261 261.054C149.905 262.197 149.014 263.233 147.768 263.968ZM147.679 257.545C146.814 257.502 145.504 257.936 144.1 258.292C142.625 258.654 140.923 259.062 139.82 258.967C138.381 258.87 137.37 258.33 136.888 258.074C137.142 256.723 138.065 255.624 139.338 254.88C140.619 254.097 142.248 253.687 143.988 253.839C144.831 253.931 145.632 254.075 146.366 254.333C147.1 254.592 147.767 254.954 148.341 255.395C149.488 256.276 150.27 257.471 150.419 258.784C149.778 258.239 148.799 257.585 147.679 257.545ZM148.676 249.737C145.165 249.638 141.695 249.369 138.274 248.937L145.126 238.441L145.831 239.363C146.115 239.734 146.552 239.947 147.011 239.947C147.071 239.947 147.132 239.943 147.193 239.936C147.716 239.871 148.166 239.533 148.376 239.048L156.772 219.659C159.24 219.364 162.294 218.889 165.554 218.27C162.132 223.42 154.73 234.328 147.264 243.814C146.755 244.461 146.864 245.401 147.509 245.913C147.782 246.13 148.108 246.235 148.431 246.235C148.87 246.235 149.306 246.04 149.599 245.667C158.766 234.02 167.833 220.255 169.675 217.432C173.823 216.531 178.032 215.436 181.577 214.219C173.9 224.509 162.926 237.392 148.676 249.737ZM196.734 196.773L198.862 198.516C196.828 202.667 186.878 221.746 167.112 241.054C166.523 241.629 166.51 242.576 167.083 243.167C167.374 243.468 167.762 243.62 168.149 243.62C168.523 243.62 168.898 243.479 169.187 243.196C179.183 233.432 186.723 223.701 192.036 215.858L195.385 218.479C195.657 218.691 195.979 218.795 196.299 218.795C196.741 218.795 197.18 218.597 197.474 218.219C197.979 217.568 197.863 216.629 197.214 216.121L193.693 213.366C194.306 212.426 194.884 211.518 195.427 210.65L203.566 216.992C203.837 217.203 204.159 217.305 204.477 217.305C204.921 217.305 205.361 217.106 205.654 216.727C206.158 216.075 206.04 215.136 205.39 214.63L196.992 208.087C197.502 207.235 197.971 206.432 198.399 205.682L210.711 215.954C210.989 216.187 211.325 216.299 211.661 216.299C212.088 216.299 212.512 216.115 212.806 215.76C213.332 215.125 213.245 214.183 212.613 213.655L199.877 203.028C200.442 201.983 200.89 201.115 201.225 200.451L217.176 213.516L211.637 229.142L196.25 229.655C195.494 229.68 194.877 230.271 194.817 231.028L194.014 241.033C181.45 246.48 167.65 249.573 153.165 249.766C178.574 227.031 193.138 203.07 196.734 196.773ZM210.369 232.175C206.147 234.961 201.719 237.455 197.113 239.63L197.676 232.598L210.369 232.175ZM155.204 255.599C155.783 255.13 156.463 254.742 157.216 254.463C157.592 254.323 157.987 254.211 158.396 254.129C158.806 254.052 159.231 253.997 159.665 253.947C161.35 253.79 162.93 254.16 164.193 254.887C164.825 255.261 165.372 255.688 165.804 256.188C166.237 256.691 166.555 257.27 166.72 257.907C166.366 257.694 165.924 257.469 165.433 257.318C164.942 257.168 164.396 257.045 163.838 257.102C162.975 257.181 161.734 257.735 160.397 258.325C160.045 258.478 159.681 258.645 159.313 258.791C158.945 258.926 158.574 259.057 158.213 259.171C157.492 259.401 156.807 259.568 156.254 259.59C154.814 259.645 153.74 259.366 153.227 259.162C153.289 257.81 154.048 256.533 155.204 255.599ZM164.826 263.452C163.695 264.338 162.17 264.971 160.465 265.127C159.631 265.223 158.816 265.112 158.061 264.964C157.305 264.804 156.605 264.555 155.988 264.231C154.752 263.584 153.851 262.643 153.458 261.536C154.142 261.716 155.13 261.88 156.343 261.83C156.992 261.803 157.736 261.633 158.514 261.394C158.903 261.271 159.302 261.146 159.701 260.985C160.093 260.818 160.496 260.646 160.895 260.475C162.174 259.92 163.364 259.397 164.073 259.331C165.351 259.237 166.607 259.963 166.881 260.181C166.69 261.366 165.961 262.586 164.826 263.452ZM170.143 254.152C171.171 253.086 172.622 252.212 174.337 251.887C175.169 251.729 175.99 251.701 176.761 251.732C177.536 251.779 178.274 251.944 178.945 252.21C180.285 252.742 181.36 253.677 181.858 254.899C181.094 254.551 179.976 254.192 178.888 254.462C178.468 254.567 177.97 254.803 177.422 255.112C177.148 255.265 176.863 255.443 176.565 255.618C176.268 255.787 175.958 255.963 175.643 256.141C174.322 256.897 172.795 257.76 171.708 257.973C170.29 258.229 169.175 258.01 168.642 257.892C168.524 256.527 169.115 255.197 170.143 254.152ZM180.707 260.619C179.706 261.657 178.294 262.565 176.606 262.861C174.957 263.185 173.36 263.072 172.055 262.617C170.74 262.111 169.717 261.265 169.182 260.211C169.884 260.306 170.897 260.406 172.09 260.182C173.367 259.932 174.936 259.057 176.423 258.217C177.027 257.889 177.6 257.524 178.111 257.233C178.622 256.944 179.071 256.726 179.417 256.64C180.659 256.331 182.017 256.943 182.319 257.128C182.285 258.325 181.708 259.568 180.707 260.619ZM183.759 254.622C183.461 253.283 183.866 251.874 184.74 250.681C185.178 250.084 185.735 249.541 186.39 249.085C187.037 248.602 187.775 248.183 188.599 247.891C190.189 247.316 191.831 247.31 193.214 247.609C194.606 247.94 195.791 248.711 196.447 249.853C195.647 249.62 194.497 249.427 193.461 249.857C193.261 249.94 193.046 250.059 192.819 250.205C192.588 250.339 192.343 250.5 192.088 250.68C191.579 251.04 191.028 251.476 190.457 251.926C189.256 252.872 187.872 253.978 186.802 254.268C185.422 254.685 184.304 254.67 183.759 254.622ZM196.082 255.71C195.871 256.007 195.632 256.297 195.368 256.574C195.102 256.845 194.804 257.087 194.485 257.32C193.847 257.782 193.114 258.174 192.307 258.463C191.516 258.745 190.723 258.918 189.959 258.988C189.189 259.041 188.44 258.963 187.758 258.81C186.39 258.496 185.27 257.813 184.601 256.844C185.31 256.846 186.311 256.758 187.474 256.406C188.731 256.062 190.149 254.921 191.505 253.873C192.597 253.011 193.625 252.241 194.275 251.944C195.458 251.454 196.878 251.862 197.201 252.001C197.329 253.197 196.927 254.518 196.082 255.71ZM198.751 245.309C199.102 244.651 199.578 244.028 200.162 243.478C200.744 242.923 201.448 242.467 202.211 242.037C203.702 241.237 205.303 240.964 206.751 241.142C208.174 241.283 209.441 241.871 210.243 242.916C209.834 242.857 209.338 242.822 208.826 242.873C208.316 242.928 207.784 243.062 207.284 243.318C206.52 243.726 205.591 244.719 204.586 245.781C203.547 246.931 202.261 248.087 201.267 248.575C199.961 249.187 198.864 249.351 198.311 249.361C197.844 248.09 198.05 246.623 198.751 245.309ZM210.664 248.777C209.966 250.033 208.804 251.209 207.292 252.016C206.558 252.426 205.778 252.67 205.018 252.817C204.259 252.966 203.516 253.009 202.821 252.953C201.43 252.839 200.236 252.327 199.444 251.457C200.145 251.359 201.118 251.122 202.217 250.603C203.391 250.04 204.706 248.845 205.881 247.567C206.845 246.558 207.739 245.614 208.368 245.278C208.94 244.985 209.574 244.868 210.117 244.846C210.66 244.826 211.109 244.898 211.277 244.945C211.56 246.109 211.358 247.508 210.664 248.777ZM211.935 238.12C212.45 236.708 213.469 235.371 214.925 234.403C216.313 233.432 217.833 232.905 219.289 232.885C220.014 232.872 220.715 232.978 221.352 233.202C221.978 233.412 222.544 233.747 223.009 234.21C222.198 234.224 221.009 234.306 220.109 234.977C219.411 235.491 218.632 236.614 217.784 237.809C216.855 239.014 215.778 240.397 214.855 241.012C213.667 241.832 212.554 242.064 212.013 242.158C211.368 240.94 211.413 239.514 211.935 238.12ZM224.179 239.934C223.655 241.275 222.689 242.636 221.282 243.616C219.884 244.549 218.363 245.062 216.979 245.147C215.605 245.251 214.311 244.834 213.413 244.081C213.759 243.994 214.17 243.868 214.625 243.685C215.082 243.504 215.557 243.227 216.066 242.895C217.147 242.168 218.27 240.773 219.303 239.406C220.116 238.265 220.869 237.198 221.443 236.775C222.476 236.016 223.969 236.055 224.302 236.085C224.754 237.222 224.7 238.586 224.179 239.934ZM224.038 229.211C224.125 228.851 224.251 228.5 224.397 228.14C224.538 227.776 224.712 227.416 224.916 227.066C225.323 226.367 225.854 225.706 226.506 225.121C227.791 224.014 229.21 223.27 230.64 223.046C232.062 222.819 233.461 223.074 234.508 223.873C233.675 223.964 232.531 224.226 231.732 225.015C231.11 225.619 230.519 226.872 229.785 228.115C229.034 229.445 228.16 230.972 227.335 231.713C226.218 232.628 225.173 233.041 224.649 233.206C223.855 232.091 223.687 230.642 224.038 229.211ZM236.416 229.387C236.088 230.801 235.316 232.285 234.019 233.409C232.763 234.527 231.352 235.271 229.976 235.519C228.587 235.755 227.285 235.558 226.289 234.924C226.947 234.653 227.843 234.191 228.783 233.419C229.753 232.549 230.657 230.989 231.507 229.503C231.68 229.202 231.851 228.906 232.013 228.624C232.174 228.331 232.327 228.053 232.467 227.799C232.76 227.289 233.036 226.872 233.29 226.621C234.203 225.719 235.68 225.552 236.033 225.556C236.611 226.605 236.744 227.971 236.416 229.387ZM249.848 84.0558C250.318 84.7877 251.312 85.7018 252.405 86.6714C253.571 87.6825 254.794 88.9152 255.325 89.8906C256.012 91.1633 256.143 92.2963 256.197 92.8407C254.937 93.3683 253.493 93.2083 252.182 92.5426C250.826 91.8968 249.63 90.7291 248.767 89.1992C247.923 87.722 247.609 86.1104 247.688 84.6762C247.786 83.234 248.349 81.9268 249.362 81.0859C249.262 81.9199 249.26 83.0964 249.848 84.0558ZM254.683 98.0212C254.965 96.6041 255.69 95.3791 256.8 94.6733C256.596 95.4884 256.443 96.6551 256.904 97.6816C257.275 98.4677 258.152 99.4977 259.106 100.602C260.13 101.755 261.192 103.134 261.587 104.173C262.107 105.523 262.087 106.663 262.068 107.211C260.747 107.569 259.347 107.217 258.125 106.391C257.501 105.981 256.922 105.451 256.424 104.818C255.925 104.186 255.519 103.447 255.174 102.639C254.851 101.853 254.662 101.053 254.593 100.269C254.527 99.4833 254.536 98.7331 254.683 98.0212ZM259.502 114.353C259.528 113.571 259.648 112.827 259.886 112.142C260.353 110.777 261.241 109.657 262.427 109.106C262.123 109.885 261.81 111.023 262.13 112.101C262.249 112.519 262.523 113.003 262.833 113.545C263.145 114.087 263.528 114.677 263.925 115.288C264.781 116.57 265.661 118.076 265.901 119.162C266.23 120.571 266.071 121.695 265.967 122.236C264.606 122.41 263.284 121.866 262.17 120.886C261.608 120.395 261.108 119.792 260.702 119.099C260.499 118.752 260.32 118.383 260.168 117.993C260.008 117.606 259.863 117.201 259.755 116.776C259.543 115.955 259.464 115.138 259.502 114.353ZM265.798 161.328C265.922 162.086 266.053 162.901 266.131 163.664C266.222 164.43 266.177 165.129 266.072 165.674C265.77 167.089 265.217 168.065 264.912 168.521C263.601 168.136 262.568 167.099 261.949 165.753C261.64 165.079 261.435 164.327 261.353 163.53C261.258 162.73 261.238 161.876 261.383 161.011C261.519 160.173 261.775 159.392 262.124 158.687C262.297 158.334 262.503 158.002 262.71 157.69C262.911 157.376 263.132 157.084 263.372 156.818C264.33 155.754 265.573 155.084 266.886 155.061C266.297 155.651 265.576 156.569 265.453 157.688C265.363 158.553 265.552 159.886 265.798 161.328ZM265.512 152.404C264.954 151.999 264.452 151.464 264.047 150.837C263.23 149.58 262.795 147.962 262.882 146.209C262.907 142.83 265.001 139.991 267.547 139.578C267.294 139.909 267.038 140.326 266.816 140.801C266.592 141.276 266.433 141.808 266.428 142.371C266.419 143.241 266.843 144.539 267.292 145.936C267.547 146.673 267.725 147.46 267.889 148.205C268.044 148.95 268.14 149.652 268.106 150.206C268.018 151.651 267.633 152.694 267.353 153.184C266.679 153.081 266.058 152.807 265.512 152.404ZM268.043 136.476C267.953 136.994 267.831 137.396 267.738 137.657C266.365 137.634 265.148 136.907 264.163 135.781C263.181 134.651 262.571 133.112 262.352 131.377C262.257 130.536 262.305 129.717 262.444 128.947C262.565 128.179 262.8 127.459 263.128 126.815C263.788 125.528 264.815 124.544 266.059 124.164C265.673 124.889 265.185 125.976 265.355 127.086C265.418 127.516 265.604 128.036 265.858 128.613C266.092 129.192 266.385 129.83 266.69 130.492C267.008 131.188 267.36 131.936 267.625 132.652C267.876 133.369 268.063 134.051 268.103 134.605C268.155 135.326 268.116 135.959 268.043 136.476ZM260.482 171.587C261.592 170.666 262.926 170.173 264.233 170.326C263.561 170.829 262.708 171.638 262.419 172.726C262.183 173.562 262.32 174.945 262.312 176.389C262.334 177.917 262.35 179.677 262.012 180.736C261.53 182.1 260.82 182.98 260.455 183.391C259.208 182.834 258.333 181.671 257.916 180.261C257.722 179.56 257.58 178.773 257.582 177.964C257.581 177.154 257.705 176.316 257.972 175.481C258.525 173.875 259.359 172.507 260.482 171.587ZM259.543 185.089C259.184 185.296 258.788 185.581 258.403 185.933C258.013 186.284 257.661 186.711 257.437 187.228C257.093 188.026 256.981 189.387 256.853 190.85C256.684 192.372 256.426 194.1 255.943 195.1C255.623 195.748 255.278 196.278 254.947 196.682C254.602 197.079 254.292 197.362 254.078 197.538C253.497 197.18 253.031 196.683 252.684 196.096C252.51 195.803 252.366 195.487 252.251 195.154C252.127 194.815 252.031 194.459 251.965 194.09C251.701 192.613 251.911 190.944 252.684 189.372C253.362 187.817 254.436 186.602 255.677 185.843C256.933 185.093 258.271 184.763 259.543 185.089ZM252.928 199.088C252.153 199.399 251.158 199.976 250.587 200.944C250.131 201.683 249.826 203.009 249.492 204.434C249.306 205.177 249.147 206.002 248.883 206.71C248.633 207.427 248.355 208.076 248.042 208.534C247.226 209.727 246.346 210.414 245.892 210.717C244.833 209.849 244.279 208.484 244.223 206.996C244.195 206.251 244.294 205.473 244.522 204.703C244.636 204.317 244.783 203.934 244.963 203.556C245.131 203.17 245.323 202.784 245.554 202.412C246.438 200.964 247.702 199.926 249.021 199.333C250.311 198.726 251.711 198.596 252.928 199.088ZM244.533 212.09C243.724 212.295 242.633 212.713 241.955 213.609C241.452 214.317 240.942 215.565 240.415 216.926C239.853 218.349 239.225 220.012 238.45 220.808C237.472 221.871 236.501 222.428 236.007 222.665C235.073 221.664 234.709 220.244 234.859 218.77C234.935 218.032 235.141 217.28 235.475 216.552C235.782 215.8 236.213 215.068 236.775 214.396C237.319 213.744 237.937 213.204 238.597 212.778C239.267 212.359 239.914 212.003 240.608 211.798C241.978 211.376 243.391 211.438 244.533 212.09ZM245.312 221.616C244.773 222.261 244.175 222.813 243.551 223.262C242.923 223.706 242.234 224.016 241.57 224.232C240.233 224.659 238.924 224.642 237.857 224.149C238.468 223.789 239.286 223.203 240.11 222.307C241.018 221.37 241.658 219.66 242.302 218.071C242.817 216.779 243.296 215.577 243.711 214.994C244.485 213.971 245.918 213.601 246.267 213.557C247.689 215.462 247.569 219.005 245.312 221.616ZM254.967 208.434C254.746 208.792 254.507 209.13 254.255 209.443C253.996 209.753 253.709 210.03 253.42 210.287C252.838 210.8 252.219 211.214 251.59 211.517C250.331 212.125 249.038 212.287 247.919 211.942C248.472 211.5 249.197 210.804 249.884 209.799C250.252 209.262 250.563 208.562 250.839 207.794C251.113 207.024 251.301 206.151 251.509 205.316C251.836 203.958 252.135 202.692 252.51 202.084C253.158 200.976 254.497 200.401 254.841 200.313C255.679 201.176 256.183 202.47 256.254 203.935C256.282 205.371 255.869 206.973 254.967 208.434ZM262.81 194.084C261.313 197.119 258.626 198.92 256.255 198.486C256.508 198.234 256.81 197.922 257.099 197.526C257.38 197.128 257.669 196.656 257.937 196.109C258.224 195.524 258.431 194.785 258.595 193.983C258.749 193.175 258.904 192.325 258.967 191.454C259.096 190.058 259.211 188.757 259.494 188.1C259.749 187.509 260.203 187.035 260.636 186.69C261.051 186.338 261.444 186.114 261.604 186.047C262.078 186.421 262.485 186.911 262.809 187.49C263.117 188.062 263.332 188.719 263.448 189.433C263.676 190.857 263.501 192.511 262.81 194.084ZM268.635 178.792C268.119 180.398 267.262 181.753 266.22 182.675C265.139 183.585 263.915 184.077 262.736 184.038C263.163 183.468 263.72 182.619 264.122 181.469C264.52 180.224 264.513 178.421 264.497 176.707C264.494 176.36 264.491 176.018 264.488 175.692C264.473 175.361 264.462 175.043 264.46 174.749C264.454 174.159 264.481 173.66 264.573 173.314C264.903 172.072 266.091 171.174 266.398 170.997C267.426 171.606 268.232 172.714 268.664 174.102C269.092 175.487 269.189 177.163 268.635 178.792ZM272.391 162.863C272.256 163.694 272.025 164.476 271.717 165.181C271.379 165.881 270.959 166.503 270.494 167.029C269.56 168.08 268.424 168.734 267.257 168.855C267.6 168.232 268.006 167.309 268.26 166.116C268.566 164.845 268.267 163.049 268.001 161.349C267.773 159.971 267.601 158.695 267.666 157.982C267.807 156.704 268.846 155.653 269.123 155.437C270.228 155.903 271.188 156.895 271.821 158.215C272.149 158.876 272.354 159.611 272.444 160.395C272.539 161.18 272.528 162.014 272.391 162.863ZM272.676 150.96C271.907 152.126 270.897 152.929 269.727 153.202C270.022 152.542 270.25 151.569 270.334 150.353C270.373 149.702 270.279 148.941 270.121 148.138C269.965 147.335 269.75 146.49 269.472 145.664C269.052 144.328 268.653 143.086 268.66 142.37C268.666 141.726 268.901 141.112 269.166 140.625C269.418 140.138 269.692 139.778 269.815 139.654C270.396 139.812 270.96 140.104 271.48 140.512C271.982 140.919 272.437 141.44 272.819 142.051C273.583 143.273 274.055 144.862 274.037 146.58C273.959 148.264 273.437 149.794 272.676 150.96ZM271.632 125.859C272.104 126.411 272.52 127.062 272.845 127.792C273.145 128.524 273.357 129.333 273.45 130.19C273.658 131.869 273.332 133.465 272.73 134.728C272.427 135.36 272.051 135.911 271.608 136.356C271.154 136.802 270.643 137.142 270.092 137.356C270.287 136.662 270.421 135.663 270.33 134.446C270.283 133.794 270.09 133.051 269.827 132.277C269.536 131.504 269.174 130.7 268.818 129.916C268.527 129.283 268.261 128.67 268.026 128.13C267.789 127.591 267.616 127.121 267.565 126.767C267.373 125.497 268.126 124.194 268.316 123.913C269.522 124.057 270.682 124.756 271.632 125.859ZM269.636 111.755C270.038 112.436 270.363 113.205 270.577 114.038C270.683 114.446 270.76 114.853 270.812 115.254C270.855 115.657 270.865 116.057 270.854 116.445C270.831 117.222 270.709 117.959 270.501 118.626C270.099 119.959 269.274 121.024 268.253 121.602C268.335 120.891 268.359 119.877 268.083 118.688C267.942 118.05 267.644 117.344 267.273 116.615C266.903 115.886 266.408 115.147 265.951 114.42C265.575 113.834 265.212 113.268 264.919 112.762C264.617 112.26 264.374 111.821 264.275 111.477C263.911 110.245 264.458 108.857 264.628 108.546C265.822 108.528 267.085 109.053 268.176 110.012C268.716 110.492 269.237 111.073 269.636 111.755ZM265.532 98.4648C266.783 101.608 266.143 104.847 264.245 106.269C264.219 105.556 264.122 104.543 263.684 103.406C263.227 102.182 262.135 100.769 260.997 99.469C260.097 98.4078 259.252 97.4237 258.946 96.7771C258.42 95.605 258.778 94.1584 258.905 93.8281C261.248 93.4657 264.262 95.2529 265.532 98.4648ZM258.504 83.7214C259.336 85.1821 259.664 86.7684 259.623 88.1547C259.567 89.5517 259.063 90.7913 258.232 91.6205C258.107 90.9209 257.889 89.9252 257.306 88.8564C256.689 87.7073 255.432 86.4448 254.135 85.3038C253.101 84.3713 252.146 83.499 251.759 82.8975C251.088 81.8027 251.259 80.3236 251.343 79.9798C253.627 79.3199 256.832 80.7098 258.504 83.7214ZM242.126 67.1884C244.316 66.2489 247.66 67.2341 249.692 70.0078C250.691 71.356 251.219 72.8816 251.349 74.262C251.461 75.6582 251.123 76.9463 250.401 77.8748C250.189 77.1973 249.846 76.2391 249.138 75.2498C248.38 74.1904 246.981 73.0927 245.552 72.1232C244.408 71.3295 243.357 70.5789 242.899 70.0306C242.098 69.0277 242.085 67.5394 242.126 67.1884ZM244.005 73.6957C244.321 73.9176 244.648 74.1468 244.97 74.3725C245.284 74.6108 245.595 74.8534 245.887 75.0964C246.472 75.5827 246.983 76.071 247.302 76.5246C248.135 77.7057 248.415 78.808 248.535 79.3426C247.351 80.0252 245.897 80.0492 244.511 79.5536C243.093 79.0767 241.748 78.0744 240.708 76.6575C238.708 73.9246 238.492 70.4731 240.295 68.5306C240.299 69.37 240.442 70.5375 241.145 71.4167C241.702 72.0845 242.797 72.8719 244.005 73.6957ZM239.276 57.495C240.429 58.7124 241.14 60.1586 241.438 61.5126C241.715 62.887 241.539 64.2038 240.935 65.2146C240.643 64.5679 240.182 63.6626 239.363 62.7648C238.481 61.8079 236.96 60.8888 235.424 60.1017C234.191 59.4551 233.058 58.8375 232.536 58.3494C231.62 57.4523 231.426 55.9769 231.425 55.6233C233.485 54.422 236.922 54.9928 239.276 57.495ZM234.079 61.852C234.766 62.202 235.481 62.598 236.117 63.0122C236.757 63.4229 237.324 63.8446 237.696 64.2555C238.664 65.3284 239.079 66.3845 239.263 66.9009C238.171 67.7243 236.731 67.9273 235.294 67.6058C233.831 67.3031 232.369 66.4773 231.166 65.1953C228.847 62.7279 228.217 59.3274 229.77 57.1795C229.876 58.012 230.159 59.1535 230.964 59.9399C231.596 60.5356 232.78 61.1824 234.079 61.852ZM227.416 46.3501C228.71 47.4159 229.591 48.7664 230.051 50.0737C230.494 51.4037 230.48 52.7325 230.003 53.8098C229.634 53.2036 229.068 52.3609 228.145 51.5706C227.153 50.7279 225.53 50.0037 223.91 49.4109C222.609 48.919 221.407 48.4488 220.83 48.0283C219.81 47.2509 219.437 45.8098 219.392 45.4588C221.287 44.013 224.773 44.1532 227.416 46.3501ZM219.464 49.8012C220.165 50.3131 221.419 50.8081 222.789 51.3136C223.513 51.5767 224.272 51.8799 224.953 52.214C225.638 52.5432 226.253 52.8921 226.671 53.2547C227.762 54.2003 228.302 55.1984 228.548 55.6883C227.564 56.6389 226.159 57.0167 224.694 56.8739C223.205 56.754 221.656 56.1122 220.306 54.9901C218.985 53.9205 218.113 52.5283 217.671 51.163C217.244 49.783 217.3 48.3599 217.942 47.2088C218.149 48.0222 218.57 49.12 219.464 49.8012ZM214.253 36.7585C215.679 37.6458 216.717 38.8854 217.339 40.1241C217.949 41.3828 218.095 42.7098 217.756 43.8371C217.314 43.2826 216.652 42.5101 215.633 41.8479C214.547 41.1309 212.841 40.6232 211.16 40.2379C209.811 39.9079 208.553 39.605 207.929 39.2603C206.82 38.6182 206.266 37.2346 206.177 36.8917C207.865 35.2199 211.353 34.9043 214.253 36.7585ZM204.963 38.8141C205.272 39.5955 205.828 40.6316 206.799 41.1937C207.558 41.6131 208.869 41.9339 210.287 42.2681C211.79 42.6009 213.452 43.0985 214.381 43.7036C215.585 44.4988 216.239 45.4286 216.544 45.8825C215.686 46.9486 214.339 47.4984 212.87 47.5393C211.373 47.6163 209.768 47.1614 208.285 46.2303C206.848 45.3313 205.805 44.0729 205.196 42.7738C204.6 41.4591 204.474 40.0393 204.963 38.8141ZM201.877 47.3542C236.6 65.9008 258.719 102.641 258.719 142.303C258.719 177.899 241.417 209.502 214.789 229.073L219.608 215.522L221.384 216.969C222.022 217.491 222.961 217.394 223.482 216.756C223.529 216.698 223.567 216.635 223.604 216.572C223.611 216.577 223.62 216.583 223.627 216.588C242.896 197.751 254.824 171.44 254.824 142.365C254.824 104.86 234.12 70.0677 201.877 51.8741V47.3542ZM199.864 83.0992C198.306 84.678 195.67 87.3388 194.235 88.7242C193.643 89.2963 193.624 90.2426 194.194 90.8375C194.486 91.1425 194.876 91.296 195.267 91.296C195.638 91.296 196.01 91.1574 196.298 90.8789C198.113 89.126 201.688 85.499 202.852 84.3161C203.598 84.6397 204.341 84.9763 205.081 85.3293C203.574 86.8577 200.714 89.7486 199.196 91.2149C198.603 91.7872 198.585 92.7333 199.154 93.3282C199.447 93.6333 199.837 93.7867 200.227 93.7867C200.598 93.7867 200.97 93.648 201.258 93.3696C203.139 91.5532 206.918 87.7165 207.936 86.6812C208.572 87.009 209.393 87.467 210.366 88.0791C209.279 89.3115 206.83 91.9646 204.414 93.7256C203.749 94.2104 203.601 95.1451 204.084 95.813C204.375 96.2156 204.829 96.4294 205.29 96.4294C205.592 96.4294 205.899 96.3368 206.163 96.1443C209.048 94.0407 211.849 90.9266 212.85 89.77C213.722 90.4079 214.658 91.1376 215.649 91.9758C214.368 93.0795 211.897 95.1228 209.459 96.6576C208.762 97.0956 208.551 98.0181 208.988 98.7174C209.27 99.1703 209.755 99.4187 210.25 99.4187C210.52 99.4187 210.793 99.345 211.039 99.1902C213.876 97.4053 216.66 95.0585 217.892 93.9816C218.498 94.5524 219.118 95.1588 219.749 95.8056C218.554 96.7008 216.26 98.3514 213.995 99.6037C213.275 100.002 213.013 100.911 213.409 101.634C213.681 102.128 214.189 102.407 214.714 102.407C214.957 102.407 215.203 102.348 215.431 102.222C218.053 100.771 220.631 98.8852 221.796 98.0013C222.419 98.7014 223.05 99.4397 223.685 100.216C222.114 101.152 219.926 102.359 218.74 102.662C217.943 102.866 217.462 103.679 217.664 104.479C217.835 105.155 218.441 105.605 219.105 105.605C219.226 105.605 219.35 105.591 219.473 105.559C221.203 105.117 223.967 103.539 225.544 102.585C225.838 102.976 226.133 103.374 226.429 103.783C226.432 103.787 226.437 103.795 226.441 103.8C226.34 103.85 226.233 103.903 226.133 103.952C224.561 104.737 223.076 105.479 222.292 105.633C221.485 105.792 220.96 106.578 221.118 107.388C221.258 108.1 221.88 108.594 222.577 108.594C222.672 108.594 222.768 108.585 222.865 108.566C224.042 108.334 225.549 107.582 227.458 106.629C227.561 106.578 227.672 106.523 227.776 106.471C227.781 106.733 227.742 106.997 227.639 107.249C227.402 107.83 226.92 108.256 226.316 108.417C218.869 110.407 213.904 106.043 213.701 105.86C213.698 105.858 213.696 105.856 213.693 105.854C213.676 105.839 213.656 105.826 213.638 105.812C213.595 105.777 213.553 105.74 213.507 105.71C212.523 105.072 211.549 104.429 210.576 103.786C204.223 99.5913 197.741 95.3175 188.505 92.4054C188.427 92.3473 188.342 92.2958 188.251 92.2526C188.035 92.1511 187.807 92.1123 187.584 92.118C185.644 91.5373 183.579 91.019 181.375 90.5707C181.324 90.5416 181.276 90.5096 181.221 90.4863C180.966 90.378 180.698 90.3527 180.443 90.3877C178.563 90.0294 176.579 89.7245 174.48 89.4777C174.469 89.4732 174.461 89.4662 174.45 89.462C174.184 89.3544 173.906 89.334 173.643 89.3801C171.805 89.1809 169.874 89.0297 167.851 88.9251C167.568 88.823 167.274 88.8113 166.998 88.8792C165.496 88.8131 163.941 88.774 162.33 88.7638C162.1 88.7625 161.87 88.7617 161.64 88.7617C141.206 88.7617 118.141 94.3902 105.021 98.1479C106.937 97.1969 108.998 96.1065 111.214 94.8548C116.981 91.5971 122.495 88.7706 127.713 86.3895C126.197 87.7902 124.81 89.051 124.175 89.5729C123.539 90.0955 123.446 91.0371 123.966 91.676C124.26 92.0369 124.687 92.2239 125.119 92.2239C125.45 92.2239 125.784 92.1133 126.06 91.8861C127.898 90.3761 135.257 83.4218 135.57 83.1265C135.604 83.094 135.63 83.0564 135.66 83.0216C136.598 82.656 137.524 82.3074 138.438 81.9751C136.371 84.016 134.376 85.9465 133.6 86.5841C132.964 87.1066 132.87 88.0482 133.391 88.6871C133.685 89.0479 134.112 89.2351 134.543 89.2351C134.875 89.2351 135.208 89.1244 135.485 88.8972C137.16 87.521 143.323 81.3254 144.745 79.8924C145.559 79.6524 146.363 79.4253 147.154 79.216C144.685 81.6724 141.977 84.3207 141.041 85.0895C140.405 85.6123 140.311 86.5539 140.831 87.1926C141.126 87.5536 141.553 87.7405 141.984 87.7405C142.315 87.7405 142.649 87.6299 142.925 87.4027C144.782 85.8772 152.158 78.4264 152.471 78.1099C152.507 78.0728 152.535 78.0306 152.567 77.9908C153.08 77.8959 153.586 77.8104 154.088 77.7309C151.825 80.1767 149.295 82.8673 148.435 83.6348C147.821 84.183 147.766 85.1275 148.311 85.7445C148.606 86.0768 149.014 86.2462 149.424 86.2462C149.776 86.2462 150.129 86.1216 150.412 85.8686C151.873 84.5647 157.108 78.8605 158.615 77.2113C159.362 77.1609 160.091 77.1315 160.804 77.1215C158.511 79.5648 155.476 82.7391 154.434 83.5952C153.798 84.1175 153.704 85.0591 154.224 85.6978C154.519 86.059 154.946 86.2462 155.377 86.2462C155.709 86.2462 156.042 86.1355 156.318 85.9082C158.023 84.508 163.632 78.4707 164.859 77.144C165.871 77.1622 166.917 77.191 167.987 77.2307C165.453 79.7597 162.405 82.7515 161.379 83.5952C160.743 84.1175 160.649 85.0591 161.169 85.6978C161.463 86.059 161.891 86.2462 162.322 86.2462C162.653 86.2462 162.986 86.1355 163.263 85.9082C164.859 84.5972 170.304 79.1393 171.995 77.4358C172.835 77.4911 173.687 77.5554 174.551 77.6293C172.687 79.5052 170.151 82.0472 168.895 83.2592C168.303 83.831 168.285 84.7772 168.854 85.3721C169.146 85.6774 169.536 85.831 169.927 85.831C170.298 85.831 170.669 85.6926 170.958 85.4138C172.73 83.7035 176.867 79.5326 178.368 78.017C179.315 78.129 180.272 78.2542 181.237 78.3942C179.542 80.1051 177.201 82.4577 175.941 83.6745C175.348 84.2468 175.33 85.1928 175.9 85.7877C176.192 86.0926 176.582 86.2462 176.972 86.2462C177.343 86.2462 177.715 86.1075 178.003 85.8287C179.765 84.1282 183.474 80.3761 184.849 78.9833C185.883 79.1711 186.923 79.3767 187.968 79.6028C186.261 81.3279 183.721 83.8827 182.389 85.1692C181.797 85.7411 181.778 86.6871 182.348 87.282C182.64 87.5873 183.03 87.7405 183.421 87.7405C183.792 87.7405 184.164 87.602 184.452 87.3233C186.244 85.5927 190.055 81.7374 191.368 80.4059C192.344 80.657 193.321 80.9261 194.299 81.2162C192.73 82.806 190.182 85.3768 188.779 86.7317C188.186 87.3038 188.168 88.2499 188.737 88.845C189.03 89.1499 189.42 89.3034 189.81 89.3034C190.181 89.3034 190.553 89.1648 190.841 88.8863C192.701 87.0906 196.414 83.3211 197.483 82.235C198.278 82.5078 199.071 82.7971 199.864 83.0992ZM195.428 11.8842C195.838 12.0587 196.024 12.2048 196.293 12.3575C197.902 13.2718 198.901 14.9865 198.901 16.8319V70.1093C198.404 69.9629 196.916 69.77 195.428 69.5456V11.8842ZM188.98 9.08511C190.468 9.55315 191.409 9.99809 192.453 10.4547C192.453 10.6542 192.452 69.09 192.452 69.09C191.46 68.9296 190.468 68.7609 188.98 68.5869V9.08511ZM182.531 7.13166C184.019 7.46394 184.88 7.75405 186.015 8.10346C186.015 8.43865 186.003 68.1793 186.003 68.1793C185.011 68.0307 184.019 67.8806 182.531 67.7306V7.13166ZM176.082 5.73918C177.57 5.95849 178.563 6.18863 179.555 6.42912V67.3696C178.563 67.228 177.314 67.1097 176.05 66.9729C176.05 66.6767 176.082 5.73918 176.082 5.73918ZM173.106 5.24075C173.106 5.24075 173.106 66.338 173.097 66.6573C171.937 66.5398 170.843 66.4262 169.641 66.3173C169.641 66.1151 169.634 4.76027 169.634 4.76027C171.122 4.90879 172.114 5.06992 173.106 5.24075ZM163.185 4.12188C164.673 4.21336 165.666 4.31647 166.658 4.42993C166.658 4.42993 166.672 65.9205 166.672 66.0749C165.501 65.9785 164.673 65.8921 163.185 65.8074V4.12188ZM156.737 3.76019C158.225 3.80366 159.217 3.8591 160.209 3.92374V65.6112C159.217 65.541 158.225 65.4774 156.737 65.4218V3.76019ZM104.652 17.5662C104.652 15.0193 106.14 12.6467 108.125 11.3222V57.6855C108.125 58.5107 108.791 59.18 109.613 59.18C110.434 59.18 111.101 58.5107 111.101 57.6855V9.78071C116.557 7.44681 125.486 4.66621 140.863 3.86427V33.2761C140.863 34.1015 141.53 34.7706 142.352 34.7706C143.173 34.7706 143.84 34.1015 143.84 33.2761V3.73837C145.328 3.70039 146.32 3.67211 147.312 3.65562V49.217C147.312 50.0424 147.978 50.7113 148.8 50.7113C149.622 50.7113 150.288 50.0424 150.288 49.217V3.63865C151.776 3.64092 152.768 3.6553 153.76 3.67809V65.2968C151.28 65.2078 148.787 65.1577 146.339 65.1577C125.761 65.1577 110.109 67.9871 104.652 69.0415V17.5662ZM104.652 83.8371C106.636 83.562 111.26 83.0326 116.699 82.7464C117.52 82.7031 118.182 82 118.139 81.1759C118.096 80.3512 117.345 79.7183 116.527 79.7615C111.262 80.0385 107.133 80.5292 104.652 80.8217V78.1303C107.628 77.602 115.947 76.2555 122.17 75.8649C122.991 75.8134 123.646 75.104 123.595 74.2803C123.543 73.4565 122.788 72.8298 121.969 72.882C115.849 73.266 108.125 74.5096 104.652 75.0963V72.0918C109.117 71.1916 125.102 68.1466 146.339 68.1466C168.275 68.1466 193.444 72.1628 198.901 73.1405V79.6131C191.956 77.1451 184.878 75.7625 178.305 75.0059C178.084 74.9254 177.88 74.902 177.649 74.9305C175.622 74.7092 173.661 74.5452 171.751 74.4257C171.602 74.3919 171.458 74.3842 171.306 74.397C167.692 74.1831 164.329 74.1245 161.325 74.1245C160.208 74.1245 159.053 74.1754 157.86 74.2711C157.851 74.2712 157.843 74.2723 157.833 74.273C153.598 74.615 148.889 75.5569 143.762 77.0772C143.622 77.0974 143.486 77.1367 143.355 77.1968C136.081 79.3883 127.976 82.7373 119.207 87.181C119.04 87.1155 118.796 87.0762 118.605 87.0762C112.519 87.0762 107.133 85.6322 104.652 84.9799V83.8371ZM101.947 86.715C102.115 87.0722 102.418 87.3583 102.807 87.4927C103.053 87.5782 107.863 89.222 114.129 89.8362C112.687 90.6137 111.229 91.4169 109.755 92.2497C90.9992 102.844 83.8874 101.337 83.8459 101.327C83.7755 101.308 83.6989 101.293 83.6265 101.284C82.9464 101.2 80.8786 100.71 80.3181 99.5955C80.0174 98.9983 80.1724 98.1476 80.7783 97.0664C82.6989 93.6407 94.1082 89.1412 101.947 86.715ZM101.676 47.1446V51.6477C69.4332 69.7804 48.4524 104.572 48.4524 142.365C48.4524 177.111 65.6036 207.916 91.8153 226.726C91.8666 226.763 91.9324 226.802 91.9839 226.839C92.0002 226.826 92.0242 226.812 92.0406 226.8C92.2369 226.89 92.4516 226.939 92.6642 226.939C93.0331 226.939 93.405 226.802 93.6929 226.526C96.2271 224.1 97.6877 222.816 98.6121 222.064C97.5054 224.997 96.2134 228.292 95.4155 229.891C95.0474 230.629 95.3448 231.527 96.0797 231.897C96.2935 232.005 96.5211 232.056 96.7451 232.056C97.2905 232.056 97.8158 231.753 98.0768 231.23C99.6226 228.132 102.743 219.513 103.384 217.73C104.348 216.642 105.657 215.131 107.505 212.979C110.837 209.099 113.791 206.515 116.218 204.794L107.869 220.461C107.611 220.945 107.638 221.533 107.94 221.991C108.218 222.411 108.685 222.66 109.181 222.66C109.226 222.66 109.27 222.658 109.315 222.654L114.224 222.208L107.786 239.598C107.704 239.821 107.684 240.049 107.706 240.271C70.5654 223.384 44.5802 185.823 44.5802 142.303C44.5802 102.354 66.9529 65.6327 101.676 47.1446ZM64.1774 67.1894C65 67.0357 66.0901 66.6605 66.8441 65.8251C67.428 65.1816 67.9599 63.9184 68.5588 62.5857C69.2135 61.2076 69.9493 59.6 70.7421 58.8236C71.7712 57.8106 72.7684 57.3031 73.2739 57.0916C74.1566 58.1384 74.4479 59.5763 74.2211 61.0447C73.9779 62.5014 73.2732 64.0458 72.0585 65.3166C70.8903 66.5549 69.4974 67.3836 68.0711 67.7025C66.6811 68.0501 65.2777 67.9074 64.1774 67.1894ZM98.0271 42.6888C97.7395 43.3776 97.3114 44.0196 96.791 44.6404C96.2696 45.2602 95.6339 45.8201 94.8913 46.2851C93.4569 47.1892 91.9117 47.6553 90.4514 47.6115C89.0194 47.6057 87.6943 47.1257 86.8009 46.1597C87.6363 46.2124 88.7822 46.1128 89.7173 45.4908C90.4402 45.0117 91.2591 43.9126 92.1684 42.7738C93.1406 41.6023 94.242 40.2155 95.2076 39.6707C96.4538 38.9439 97.544 38.6998 98.0849 38.6206C98.6795 39.8557 98.6063 41.3227 98.0271 42.6888ZM85.8475 40.373C86.4266 39.0609 87.4442 37.7426 88.8947 36.8322C91.7301 35.0071 95.0368 35.0749 96.7607 36.6497C96.0715 36.8126 95.1184 37.1302 94.0687 37.7427C92.9387 38.39 91.8032 39.8024 90.7071 41.1115C89.8446 42.2103 89.0492 43.2437 88.4564 43.6409C87.3922 44.3554 85.9365 44.3053 85.5865 44.2353C85.1969 43.1013 85.2819 41.7085 85.8475 40.373ZM85.5592 51.1108C85.1406 52.5258 84.2537 53.9704 82.8949 55.082C81.5867 56.1679 80.1027 56.8178 78.6503 56.9613C77.2285 57.1363 75.8525 56.8233 74.8473 55.9761C75.6821 55.9237 76.811 55.6862 77.6588 54.9474C78.3162 54.3802 78.9976 53.1923 79.7533 51.9423C80.5709 50.6555 81.4959 49.1493 82.3783 48.4774C83.5234 47.5987 84.5747 47.218 85.1021 47.0704C85.8496 48.2185 85.9629 49.6818 85.5592 51.1108ZM73.1849 50.353C73.5948 48.9784 74.4438 47.5509 75.7617 46.4618C78.344 44.3013 81.6211 43.9418 83.5365 45.2865C82.8733 45.5354 81.9681 45.9709 81.0044 46.7106C79.9733 47.5047 79.0166 49.0374 78.097 50.4789C77.3802 51.6791 76.7169 52.801 76.1782 53.2697C75.2142 54.1154 73.76 54.2426 73.4052 54.2176C72.8778 53.1399 72.7933 51.7513 73.1849 50.353ZM61.8471 61.8111C62.0868 60.397 62.7556 58.8761 63.9307 57.6349C66.2297 55.1763 69.4345 54.417 71.5012 55.5149C70.8735 55.8436 70.0285 56.3869 69.1628 57.2393C68.2375 58.1547 67.4743 59.7925 66.7368 61.3356C66.1712 62.6146 65.6489 63.8095 65.1715 64.3405C64.3154 65.2963 62.889 65.6015 62.5333 65.6194C61.8798 64.6145 61.6263 63.2453 61.8471 61.8111ZM62.7496 68.4878C63.7526 69.4192 64.2159 70.8112 64.1689 72.2969C64.1044 73.7733 63.5884 75.389 62.54 76.8007C61.5258 78.1684 60.2507 79.1646 58.8731 79.6548C57.5308 80.166 56.1261 80.2001 54.9455 79.6217C55.7442 79.3689 56.7739 78.8589 57.4268 77.9417C57.9289 77.2323 58.2979 75.9097 58.7358 74.5172C59.2191 73.0698 59.7503 71.3807 60.4475 70.5167C61.346 69.3851 62.2738 68.7595 62.7496 68.4878ZM53.5428 70.1681C55.525 67.4441 58.618 66.3027 60.7996 67.1388C60.2166 67.5417 59.4441 68.1846 58.6883 69.1367C57.876 70.1545 57.3231 71.8787 56.7749 73.4982C56.3666 74.8354 55.9961 76.0875 55.5865 76.6731C54.8467 77.7224 53.4749 78.2048 53.1225 78.2654C52.3529 77.3489 51.9288 76.0167 51.98 74.5697C52.0471 73.1368 52.5216 71.5405 53.5428 70.1681ZM53.6844 81.084C54.7933 81.8851 55.4245 83.21 55.5613 84.6904C55.6335 85.4337 55.563 86.2069 55.3949 87.0003C55.2294 87.7954 54.9347 88.5928 54.5015 89.3578C54.0718 90.0931 53.5893 90.7553 53.0365 91.3091C52.4839 91.8628 51.8672 92.3119 51.2204 92.6434C49.9439 93.3131 48.5647 93.5284 47.3186 93.1024C48.0771 92.7499 49.0343 92.1148 49.5715 91.1254C49.9827 90.3598 50.1747 88.9969 50.4455 87.5654C50.7471 86.0699 51.0567 84.3221 51.6512 83.3836C52.4028 82.1487 53.2459 81.4127 53.6844 81.084ZM43.8926 86.2017C44.0508 85.424 44.3252 84.6361 44.7554 83.8958C46.3834 80.9392 49.3227 79.4276 51.5848 79.9855C51.0561 80.458 50.3689 81.1921 49.7366 82.2315C49.0465 83.3376 48.7192 85.1237 48.3741 86.7987C48.126 88.1723 47.9229 89.4661 47.5878 90.0975C46.9748 91.2265 45.6843 91.8832 45.3401 91.9869C44.4643 91.1759 43.8669 89.9014 43.7483 88.4634C43.6873 87.7443 43.7322 86.9784 43.8926 86.2017ZM37.7508 98.6489C38.3794 97.0861 39.3439 95.8072 40.4888 94.987C41.6174 94.1573 42.8614 93.7576 44.0267 93.8872C43.5629 94.4239 42.9753 95.2409 42.4811 96.3541C41.9281 97.5368 41.8385 99.355 41.712 101.062C41.6296 102.451 41.6093 103.766 41.3563 104.435C40.8977 105.635 39.6912 106.452 39.3706 106.603C37.3858 105.23 36.4752 101.857 37.7508 98.6489ZM32.7282 114.23C32.9354 113.412 33.2353 112.652 33.6042 111.974C33.9875 111.3 34.4546 110.712 34.9557 110.225C35.9662 109.25 37.1331 108.683 38.32 108.662C37.9169 109.252 37.456 110.145 37.1119 111.315C36.7237 112.563 36.8633 114.374 36.9783 116.086C37.0647 117.471 37.2429 118.781 37.0796 119.477C36.9465 120.108 36.5828 120.657 36.2385 121.082C35.8975 121.507 35.5483 121.801 35.4034 121.897C34.3335 121.346 33.4338 120.278 32.9476 118.919C32.4555 117.562 32.2821 115.893 32.7282 114.23ZM29.8823 130.389C29.9744 129.548 30.1477 128.749 30.4354 128.027C30.7293 127.306 31.1012 126.656 31.5304 126.102C32.3866 124.992 33.4726 124.27 34.6514 124.085C34.313 124.721 33.9961 125.673 33.8181 126.881C33.7323 127.529 33.7455 128.292 33.8646 129.108C33.9863 129.924 34.1707 130.786 34.3529 131.627C34.6273 132.986 34.981 134.256 34.9276 134.97C34.8384 136.252 33.8487 137.369 33.6045 137.605C32.4543 137.212 31.4485 136.285 30.7602 135.007C30.4142 134.369 30.1466 133.643 29.98 132.862C29.8174 132.081 29.7981 131.247 29.8823 130.389ZM29.3412 146.784C29.2923 143.401 30.8849 140.575 33.1834 139.879C33.071 140.219 32.9553 140.636 32.8662 141.121C32.7965 141.604 32.7535 142.156 32.7627 142.765C32.7862 144.07 33.3546 145.771 33.9336 147.383C34.4536 148.687 34.9438 149.898 34.9906 150.612C35.0782 151.895 34.2301 153.136 34.0107 153.403C32.8285 153.169 31.7227 152.387 30.8659 151.219C30.0255 150.053 29.3931 148.501 29.3412 146.784ZM31.7639 165.412C31.4223 164.701 31.1656 163.909 31.0233 163.061C30.4047 159.729 31.8 156.691 33.9211 155.708C33.7959 156.41 33.7067 157.417 33.8482 158.628C33.9084 159.278 34.1866 160 34.5181 160.752C34.8526 161.504 35.26 162.284 35.6595 163.044C35.9825 163.659 36.2958 164.253 36.543 164.78C36.8068 165.305 37.02 165.761 37.094 166.111C37.3696 167.366 36.7236 168.704 36.5313 169C35.3371 168.924 34.1124 168.301 33.0915 167.261C32.5898 166.74 32.1027 166.123 31.7639 165.412ZM34.8154 178.983C34.6852 178.582 34.5822 178.181 34.5059 177.785C34.4383 177.386 34.4129 176.987 34.4036 176.599C34.3891 175.822 34.474 175.079 34.6495 174.4C34.9995 173.042 35.7108 171.945 36.6954 171.309C36.6751 172.019 36.736 173.024 37.0562 174.201C37.2274 174.83 37.5591 175.52 37.965 176.228C38.3722 176.935 38.9179 177.642 39.4189 178.34C40.2422 179.467 41.0139 180.512 41.2356 181.192C41.6512 182.407 41.2353 183.803 41.0781 184.125C39.883 184.21 38.5648 183.766 37.412 182.873C36.3011 181.969 35.3471 180.618 34.8154 178.983ZM45.7093 198.505C45.0768 198.372 44.4353 198.115 43.8173 197.744C42.5878 197.001 41.427 195.808 40.6888 194.256C39.3312 191.156 39.7042 187.927 41.5601 186.387C41.5865 186.744 41.6401 187.173 41.7418 187.655C41.8628 188.129 42.0382 188.653 42.2822 189.211C42.8152 190.403 43.9792 191.757 45.1616 193.003C46.1428 194.002 47.0611 194.927 47.3796 195.567C47.6665 196.144 47.7352 196.797 47.72 197.352C47.7063 197.905 47.6345 198.345 47.5788 198.512C46.9913 198.635 46.3467 198.636 45.7093 198.505ZM55.9409 211.897C54.8145 212.293 53.4521 212.195 52.1175 211.632C50.7885 211.067 49.4538 210.059 48.5698 208.585C47.6821 207.153 47.1969 205.627 47.1755 204.227C47.1784 202.811 47.5922 201.555 48.3814 200.676C48.5386 201.372 48.8338 202.342 49.4419 203.397C50.1327 204.504 51.5102 205.661 52.8257 206.753C53.0919 206.975 53.3544 207.193 53.6041 207.401C53.8657 207.603 54.1137 207.8 54.3395 207.988C54.791 208.364 55.1538 208.707 55.3574 209.001C56.0886 210.056 56.0048 211.547 55.9409 211.897ZM58.2561 221.742C57.7131 221.1 57.2713 220.416 56.9363 219.723C56.6002 219.03 56.416 218.292 56.3131 217.6C56.1187 216.204 56.3555 214.91 57.0183 213.936C57.2694 214.602 57.7073 215.511 58.4481 216.477C59.2143 217.534 60.7909 218.45 62.2398 219.356C62.8309 219.719 63.403 220.069 63.8847 220.396C64.3609 220.727 64.7879 220.999 65.0256 221.266C65.8996 222.205 66.0219 223.686 66.0063 224.038C64.9391 224.583 63.569 224.673 62.1624 224.301C60.7357 223.95 59.3657 223.052 58.2561 221.742Z" fill="#402F22"/>
<path d="M245.467 247.492V248.942H242.625V256.978H240.868V248.942H238.014V247.492H245.467Z" fill="#402F22"/>
<path d="M251.532 253.478C251.595 253.629 251.657 253.781 251.718 253.934C251.779 253.776 251.843 253.621 251.908 253.468C251.973 253.315 252.042 253.169 252.117 253.029L254.913 247.774C254.948 247.709 254.983 247.656 255.02 247.617C255.057 247.577 255.099 247.549 255.144 247.531C255.19 247.514 255.241 247.503 255.298 247.499C255.355 247.495 255.422 247.492 255.5 247.492H256.827V256.978H255.278V250.851C255.278 250.737 255.282 250.612 255.288 250.477C255.295 250.341 255.305 250.204 255.318 250.064L252.463 255.443C252.398 255.565 252.313 255.66 252.208 255.728C252.104 255.796 251.982 255.83 251.842 255.83H251.601C251.461 255.83 251.34 255.796 251.235 255.728C251.13 255.66 251.046 255.565 250.98 255.443L248.086 250.044C248.104 250.188 248.116 250.329 248.122 250.467C248.129 250.605 248.132 250.733 248.132 250.851V256.978H246.584V247.492H247.91C247.988 247.492 248.056 247.495 248.112 247.499C248.169 247.503 248.221 247.514 248.266 247.531C248.311 247.549 248.354 247.577 248.393 247.617C248.433 247.656 248.469 247.709 248.504 247.774L251.327 253.042C251.4 253.182 251.469 253.327 251.532 253.478V253.478Z" fill="#402F22"/>
</svg>
