<svg width="63" height="63" viewBox="0 0 63 63" fill="none" xmlns="http://www.w3.org/2000/svg">
<ellipse rx="31.5" ry="31.5" transform="matrix(-6.55671e-08 -1 -1 6.55671e-08 31.5 31.5)" fill="white"/>
<path d="M34.2293 9.23533C33.5232 9.13146 32.8062 9.06114 32.0799 9.02604L32.0558 9.52546C31.706 9.50855 31.354 9.5 31 9.5C30.646 9.5 30.294 9.50855 29.9442 9.52546L29.9201 9.02604C29.1938 9.06114 28.4768 9.13146 27.7707 9.23533L27.8435 9.73001C27.1419 9.8332 26.4514 9.97029 25.7737 10.1395L25.6525 9.65442C24.9497 9.82992 24.2603 10.0392 23.5861 10.2805L23.7546 10.7512C23.0892 10.9894 22.439 11.2593 21.8057 11.5594L21.5916 11.1075C20.9389 11.4168 20.3038 11.7573 19.6883 12.127L19.9457 12.5556C19.3413 12.9186 18.7562 13.3106 18.1922 13.7295L17.894 13.3281C17.3154 13.758 16.7587 14.2155 16.2257 14.6989L16.5616 15.0692C16.0402 15.5421 15.5421 16.0402 15.0692 16.5616L14.6989 16.2257C14.2155 16.7587 13.758 17.3154 13.3281 17.894L13.7295 18.1922C13.3106 18.7562 12.9186 19.3413 12.5556 19.9457L12.127 19.6883C11.7573 20.3038 11.4168 20.9389 11.1075 21.5916L11.5594 21.8057C11.2594 22.439 10.9894 23.0892 10.7513 23.7546L10.2805 23.5861C10.0392 24.2603 9.82992 24.9497 9.65442 25.6525L10.1395 25.7737C9.97029 26.4514 9.83321 27.1419 9.73001 27.8435L9.23533 27.7707C9.13147 28.4768 9.06115 29.1938 9.02605 29.9201L9.52546 29.9442C9.50855 30.294 9.5 30.646 9.5 31C9.5 31.354 9.50855 31.706 9.52546 32.0558L9.02605 32.0799C9.06115 32.8062 9.13147 33.5232 9.23533 34.2293L9.73001 34.1565C9.83321 34.8581 9.97029 35.5486 10.1395 36.2263L9.65443 36.3475C9.82992 37.0503 10.0392 37.7397 10.2805 38.4139L10.7513 38.2454C10.9894 38.9108 11.2594 39.561 11.5594 40.1943L11.1075 40.4084C11.4168 41.0611 11.7573 41.6962 12.127 42.3117L12.5556 42.0543C12.9186 42.6587 13.3106 43.2438 13.7295 43.8078L13.3281 44.106C13.758 44.6846 14.2155 45.2413 14.6989 45.7743L15.0692 45.4384C15.5421 45.9598 16.0402 46.4579 16.5616 46.9308L16.2257 47.3011C16.7587 47.7845 17.3154 48.242 17.8941 48.6719L18.1922 48.2705C18.7562 48.6894 19.3413 49.0814 19.9457 49.4444L19.6883 49.873C20.3038 50.2427 20.9389 50.5832 21.5916 50.8925L21.8057 50.4406C22.439 50.7407 23.0892 51.0106 23.7546 51.2487L23.5861 51.7195C24.2603 51.9608 24.9497 52.1701 25.6525 52.3456L25.7737 51.8605C26.4514 52.0297 27.1419 52.1668 27.8435 52.27L27.7707 52.7647C28.4768 52.8685 29.1938 52.9389 29.9201 52.974L29.9442 52.4745C30.294 52.4914 30.646 52.5 31 52.5C31.354 52.5 31.706 52.4914 32.0558 52.4745L32.0799 52.974C32.8062 52.9389 33.5232 52.8685 34.2293 52.7647L34.1565 52.27C34.8581 52.1668 35.5486 52.0297 36.2263 51.8605L36.3475 52.3456C37.0503 52.1701 37.7397 51.9608 38.4139 51.7195L38.2454 51.2487C38.9108 51.0106 39.561 50.7407 40.1943 50.4406L40.4084 50.8925C41.0611 50.5832 41.6962 50.2427 42.3117 49.873L42.0543 49.4444C42.6587 49.0814 43.2438 48.6894 43.8078 48.2705L44.106 48.6719C44.6846 48.242 45.2413 47.7845 45.7743 47.3011L45.4384 46.9308C45.9598 46.4579 46.4579 45.9598 46.9308 45.4384L47.3011 45.7743C47.7845 45.2413 48.242 44.6846 48.6719 44.106L48.2705 43.8078C48.6894 43.2438 49.0814 42.6587 49.4444 42.0543L49.873 42.3117C50.2427 41.6962 50.5832 41.0611 50.8925 40.4084L50.4406 40.1943C50.7406 39.561 51.0106 38.9108 51.2487 38.2454L51.7195 38.4139C51.9608 37.7397 52.1701 37.0503 52.3456 36.3475L51.8605 36.2263C52.0297 35.5486 52.1668 34.8581 52.27 34.1565L52.7647 34.2293C52.8685 33.5232 52.9389 32.8062 52.974 32.0799L52.4745 32.0558C52.4914 31.706 52.5 31.354 52.5 31C52.5 30.646 52.4914 30.294 52.4745 29.9442L52.974 29.9201C52.9389 29.1938 52.8685 28.4768 52.7647 27.7707L52.27 27.8435C52.1668 27.1419 52.0297 26.4514 51.8605 25.7737L52.3456 25.6525C52.1701 24.9497 51.9608 24.2603 51.7195 23.5861L51.2487 23.7546C51.0106 23.0892 50.7406 22.439 50.4406 21.8057L50.8925 21.5916C50.5832 20.9389 50.2427 20.3038 49.873 19.6883L49.4444 19.9457C49.0814 19.3413 48.6894 18.7562 48.2705 18.1922L48.6719 17.894C48.242 17.3154 47.7845 16.7587 47.3011 16.2257L46.9308 16.5616C46.4579 16.0402 45.9598 15.5421 45.4384 15.0692L45.7743 14.6989C45.2413 14.2155 44.6846 13.758 44.106 13.3281L43.8078 13.7295C43.2438 13.3106 42.6587 12.9186 42.0543 12.5556L42.3117 12.127C41.6962 11.7573 41.0611 11.4168 40.4084 11.1075L40.1943 11.5594C39.561 11.2593 38.9108 10.9894 38.2454 10.7512L38.4139 10.2805C37.7397 10.0392 37.0503 9.82992 36.3475 9.65442L36.2263 10.1395C35.5486 9.97028 34.8581 9.8332 34.1565 9.73L34.2293 9.23533Z" fill="#F5F5F4" stroke="#402F22" stroke-dasharray="2.2 2.2"/>
<path d="M28.7967 29.3343C29.7676 27.7566 31.1431 26.5429 32.6804 25.8956C31.3454 23.3469 28.9181 21.8501 26.6121 22.0119C27.664 23.1851 28.554 25.2079 28.7158 28.5657C28.7563 28.8489 28.7967 29.0916 28.7967 29.3343Z" fill="#402F22"/>
<path d="M26.7336 28.6871C26.5717 24.9652 25.3985 23.4279 24.4681 22.7806C22.2026 24.2775 21.353 27.7162 22.5262 30.9526C23.4567 33.4609 25.3581 35.2004 27.3808 35.7669C27.2595 34.7959 27.2595 33.7845 27.4618 32.7731C27.0977 31.5999 26.8145 30.2649 26.7336 28.6871Z" fill="#402F22"/>
<path d="M37.8183 27.3518C36.8878 27.9991 35.7146 29.5364 35.5528 33.2178C35.391 36.5756 34.3796 38.8816 33.085 40.4593C33.2469 40.4593 33.4087 40.4998 33.5705 40.4998C36.0788 40.4998 38.6274 38.5175 39.7602 35.5238C40.9334 32.2469 40.0838 28.8487 37.8183 27.3518Z" fill="#402F22"/>
<path d="M35.6331 26.6239C35.5118 26.6239 35.3904 26.6239 35.2286 26.6239C32.7204 26.6239 30.1717 28.5658 29.0389 31.5999C27.8253 34.8768 28.7153 38.275 30.9808 39.7719C32.2349 38.4773 33.3677 36.4545 33.489 33.1776C33.6913 29.7794 34.5813 27.7971 35.6331 26.6239Z" fill="#402F22"/>
</svg>
