<svg width="459" height="466" viewBox="0 0 459 466" fill="none" xmlns="http://www.w3.org/2000/svg">
<circle cx="228" cy="236" r="184" stroke="#E2E0DE" stroke-width="2"/>
<g filter="url(#filter0_d)">
<path d="M326.118 236.486C326.177 262.538 315.888 287.547 297.514 306.016C279.139 324.484 254.183 334.9 228.131 334.974H228.007C201.955 334.897 176.998 324.48 158.621 306.013C140.244 287.546 129.95 262.539 130 236.486C129.97 217.645 135.342 199.19 145.48 183.309C155.618 167.428 170.097 154.787 187.2 146.884C187.454 146.767 187.655 146.656 187.85 146.546C188.337 146.265 188.851 146.034 189.384 145.857V140.059C189.399 138.66 189.779 137.289 190.485 136.082C191.192 134.875 192.202 133.873 193.414 133.175C198.257 130.361 208.026 127 226.792 127C229.918 127 232.804 127.098 235.495 127.267C235.736 127.267 235.937 127.267 236.178 127.306H236.412C239.831 127.546 245.284 128.294 246.376 128.476C255.372 129.997 260.793 132.376 263.718 134.027C264.677 134.58 265.472 135.377 266.022 136.337C266.572 137.298 266.858 138.386 266.851 139.493V146.039C268.294 146.617 268.957 146.929 269.893 147.384L270.056 147.462C286.864 155.486 301.053 168.111 310.976 183.873C320.899 199.635 326.149 217.887 326.118 236.512V236.486Z" fill="white"/>
</g>
<path fill-rule="evenodd" clip-rule="evenodd" d="M226.784 127C208.018 127 198.256 130.357 193.412 133.173C190.971 134.592 189.407 137.238 189.407 140.079V145.882C188.657 146.143 188.268 146.356 187.882 146.567L187.882 146.567C187.677 146.679 187.472 146.791 187.214 146.91C170.367 154.657 156.125 167.002 145.949 182.611C135.501 198.636 130 217.274 130 236.508C130 262.816 140.209 287.55 158.728 306.153C177.247 324.755 201.874 335 228.063 335C254.253 335 278.877 324.755 297.396 306.153C315.914 287.55 326.114 262.816 326.114 236.508C326.114 217.512 320.72 199.07 310.511 183.176C300.574 167.704 286.581 155.362 270.057 147.484L269.891 147.404C268.948 146.954 268.295 146.643 266.845 146.062V139.511C266.845 137.254 265.675 135.158 263.712 134.042C260.793 132.382 255.373 130.013 246.377 128.491C245.281 128.312 239.824 127.566 236.404 127.325C236.321 127.318 236.243 127.311 236.168 127.304C235.937 127.282 235.736 127.263 235.495 127.265C232.802 127.096 229.909 127 226.784 127ZM251.505 218.231C250.926 217.913 250.314 217.886 249.781 218.155C248.333 218.887 247.108 221.203 246.878 221.66C246.59 222.228 246.816 222.923 247.382 223.212C247.948 223.501 248.64 223.274 248.928 222.706C249.295 221.984 250.016 220.858 250.575 220.385C251.254 221.014 252.492 223.439 252.718 225.639C252.969 228.09 251.86 233.225 247.812 236.566C247.321 236.971 247.25 237.699 247.653 238.192C247.881 238.47 248.21 238.614 248.543 238.614C248.8 238.614 249.058 238.528 249.272 238.351C254.049 234.409 255.318 228.447 255.006 225.402C254.737 222.778 253.182 219.153 251.505 218.231ZM246.421 225.605C246.918 225.208 247.642 225.292 248.037 225.791C250.81 229.299 248.644 232.68 247.11 233.978C246.895 234.16 246.631 234.25 246.37 234.25C246.043 234.25 245.717 234.11 245.49 233.839C245.082 233.352 245.142 232.626 245.625 232.214C245.905 231.972 248.269 229.8 246.235 227.228C245.84 226.728 245.924 226.002 246.421 225.605ZM196.176 210.633C196.214 210.618 200.053 209.191 204.392 208.828C208.469 208.485 214.015 211.502 214.069 211.532C214.303 211.661 214.556 211.722 214.805 211.722C215.347 211.722 215.872 211.433 216.151 210.922C216.558 210.176 216.286 209.24 215.544 208.831C215.284 208.688 209.138 205.342 204.137 205.758C199.38 206.156 195.274 207.682 195.102 207.747C194.308 208.045 193.906 208.932 194.202 209.729C194.499 210.526 195.383 210.931 196.176 210.633ZM199.11 212.965C199.327 212.92 204.533 211.911 213.917 216.122C214.496 216.383 214.757 217.066 214.497 217.648C214.306 218.078 213.887 218.333 213.447 218.333C213.29 218.333 213.131 218.3 212.978 218.232C212.769 218.138 212.563 218.049 212.358 217.96C209.566 220.427 204.702 220.871 202.134 220.921C202.602 221.594 203.313 222.221 203.739 222.52C204.26 222.885 204.387 223.605 204.024 224.129C203.8 224.45 203.443 224.623 203.08 224.623C202.852 224.623 202.623 224.555 202.422 224.415C202.11 224.195 199.368 222.202 199.368 219.745C199.368 219.426 199.499 219.122 199.73 218.904C199.961 218.685 200.27 218.573 200.587 218.591C200.743 218.601 200.921 218.608 201.115 218.612C200.574 217.289 200.493 216.05 200.549 215.14C199.916 215.162 199.587 215.225 199.575 215.228C198.951 215.358 198.344 214.955 198.216 214.33C198.087 213.705 198.488 213.094 199.11 212.965ZM202.842 215.24C202.786 216.038 202.875 217.272 203.648 218.534C205.669 218.37 208.079 217.934 209.816 216.949C206.867 215.883 204.533 215.422 202.842 215.24ZM155.03 287.085C154.762 286.686 154.234 286.259 153.645 285.783L153.644 285.782C153.412 285.594 153.17 285.398 152.93 285.193C152.02 284.445 150.975 283.578 150.521 282.849C149.965 281.88 149.795 281.023 149.736 280.602C150.685 280.139 151.806 280.199 152.844 280.654C153.355 280.887 153.881 281.2 154.36 281.602C154.837 282.005 155.268 282.497 155.627 283.072C156.298 284.2 156.684 285.379 156.665 286.504C156.653 287.623 156.278 288.66 155.536 289.358C155.575 288.709 155.525 287.799 155.03 287.085ZM148.982 276.898C148.691 276.311 147.972 275.588 147.195 274.806L147.138 274.748C146.338 273.884 145.439 272.875 145.092 272.09C144.872 271.576 144.723 271.111 144.662 270.708C144.599 270.306 144.587 269.981 144.59 269.767C145.09 269.6 145.614 269.571 146.133 269.657C146.652 269.743 147.159 269.946 147.667 270.232C148.669 270.811 149.548 271.765 150.091 273.007C150.657 274.189 150.848 275.427 150.675 276.542C150.592 277.098 150.413 277.624 150.17 278.078C149.929 278.529 149.601 278.92 149.189 279.215C149.285 278.591 149.368 277.676 148.982 276.898ZM144.325 265.998C144.122 265.374 143.518 264.557 142.865 263.673L142.817 263.609C142.086 262.662 141.355 261.534 141.129 260.705C140.836 259.625 140.871 258.761 140.919 258.34C141.958 258.146 143.036 258.498 143.939 259.207C144.39 259.562 144.798 260.008 145.137 260.527C145.306 260.787 145.458 261.066 145.59 261.361C145.733 261.653 145.865 261.959 145.969 262.281C146.379 263.527 146.365 264.792 146.049 265.873C145.765 266.94 145.145 267.836 144.249 268.312C144.453 267.697 144.602 266.822 144.325 265.998ZM141.186 254.563C141.125 254.262 140.962 253.913 140.779 253.521L140.726 253.408C140.53 252.987 140.286 252.527 140.032 252.05L140.003 251.995C139.725 251.473 139.427 250.911 139.182 250.372C138.935 249.834 138.736 249.321 138.697 248.893C138.567 247.782 138.73 246.928 138.841 246.516C139.895 246.463 140.907 246.957 141.691 247.783C142.093 248.196 142.399 248.698 142.697 249.254C142.984 249.811 143.196 250.432 143.308 251.101C143.416 251.749 143.422 252.385 143.341 252.99C143.274 253.591 143.143 254.156 142.921 254.669C142.484 255.691 141.741 256.498 140.789 256.85C141.072 256.268 141.372 255.412 141.186 254.563ZM139.08 228.165C138.951 227.586 138.814 226.965 138.721 226.38C138.638 225.796 138.615 225.251 138.673 224.826C138.827 223.718 139.2 222.939 139.436 222.577C140.462 222.814 141.284 223.564 141.842 224.575C142.39 225.587 142.621 226.853 142.501 228.198C142.44 228.849 142.256 229.46 142.045 230.021C141.829 230.581 141.534 231.087 141.181 231.52C140.829 231.953 140.416 232.313 139.969 232.577C139.53 232.841 139.05 233.008 138.545 233.05C138.949 232.564 139.487 231.822 139.543 230.955C139.577 230.427 139.411 229.679 139.228 228.848C139.178 228.625 139.128 228.397 139.08 228.165ZM141.105 216.392L141.104 216.377C141.015 215.201 140.913 213.846 141.168 213.029C141.486 211.957 141.95 211.233 142.233 210.906C143.211 211.282 143.941 212.145 144.344 213.223C144.544 213.762 144.659 214.356 144.677 214.976C144.708 215.599 144.658 216.253 144.49 216.909C144.147 218.174 143.547 219.259 142.712 220.015C141.875 220.769 140.911 221.217 139.892 221.156C140.134 220.946 140.405 220.674 140.635 220.348C140.876 220.024 141.081 219.648 141.172 219.222C141.286 218.731 141.229 218.011 141.165 217.208C141.144 216.943 141.122 216.67 141.105 216.392ZM142.884 209.563C143.423 209.214 144.103 208.634 144.413 207.821C144.601 207.33 144.641 206.569 144.686 205.725L144.686 205.725C144.699 205.49 144.712 205.25 144.728 205.006L144.743 204.775C144.817 203.653 144.898 202.408 145.24 201.681C145.695 200.66 146.263 200.01 146.574 199.718C147.494 200.22 148.114 201.177 148.364 202.297C148.49 202.859 148.52 203.461 148.461 204.081C148.414 204.707 148.268 205.347 148.013 205.976C147.891 206.28 147.745 206.568 147.587 206.841C147.436 207.116 147.267 207.374 147.084 207.614C146.717 208.093 146.291 208.499 145.829 208.818C144.908 209.455 143.884 209.764 142.884 209.563ZM139.77 235.026C140.215 235.307 140.609 235.692 140.966 236.154C141.665 237.08 142.105 238.305 142.124 239.662C142.167 240.974 141.884 242.188 141.289 243.147C140.707 244.104 139.843 244.806 138.868 245.026C139.214 244.489 139.653 243.678 139.591 242.81C139.554 242.205 139.216 241.349 138.845 240.413C138.805 240.312 138.765 240.211 138.725 240.109C138.333 238.999 137.887 237.718 137.874 236.858C137.869 236.299 137.915 235.813 138.01 235.418C138.106 235.023 138.219 234.719 138.303 234.522C138.829 234.566 139.324 234.744 139.77 235.026ZM159.363 290.287C159.913 290.441 160.454 290.698 160.966 291.045C161.498 291.377 161.996 291.803 162.434 292.32C162.857 292.821 163.186 293.364 163.424 293.925C163.659 294.488 163.842 295.033 163.908 295.59C164.051 296.694 163.82 297.767 163.178 298.557C163.128 297.911 162.952 297.022 162.36 296.386C161.889 295.908 161.004 295.36 160.043 294.779C159.997 294.75 159.95 294.722 159.904 294.693L159.812 294.637C158.862 294.057 157.815 293.416 157.351 292.772C156.672 291.885 156.375 291.07 156.26 290.661C157.14 290.075 158.265 289.981 159.363 290.287ZM167.846 308.584C166.75 308.423 165.591 307.895 164.6 307.015C163.61 306.17 163.003 305.064 162.698 304.031C162.401 302.989 162.446 301.978 162.853 301.166C163.116 301.647 163.55 302.292 164.223 302.949C164.582 303.301 165.073 303.629 165.619 303.941C166.07 304.189 166.576 304.409 167.076 304.627L167.076 304.627C167.189 304.676 167.302 304.725 167.413 304.774L167.491 304.807C168.448 305.221 169.333 305.604 169.734 305.961C170.496 306.595 170.753 307.7 170.776 307.974C170.012 308.502 168.967 308.718 167.846 308.584ZM170.848 304.637C170.358 304.202 169.425 303.804 168.416 303.374L168.345 303.344C168.215 303.287 168.081 303.23 167.946 303.172C167.52 302.991 167.081 302.803 166.696 302.584C166.184 302.299 165.728 302.002 165.421 301.703C164.623 300.923 164.216 300.16 164.045 299.773C164.841 299.076 165.947 298.829 167.084 298.979C167.652 299.055 168.229 299.231 168.784 299.507C169.062 299.644 169.332 299.808 169.597 299.992C169.871 300.168 170.136 300.368 170.39 300.592C171.374 301.457 171.992 302.564 172.276 303.645C172.569 304.712 172.486 305.801 171.954 306.668C171.818 306.037 171.514 305.194 170.848 304.637ZM174.463 314.882C173.408 314.122 172.63 313.15 172.192 312.166C171.974 311.673 171.84 311.177 171.8 310.694C171.768 310.202 171.826 309.728 171.977 309.295C172.282 309.762 172.802 310.337 173.563 310.888C173.969 311.185 174.502 311.44 175.089 311.671C175.677 311.9 176.31 312.117 176.961 312.281L177.045 312.304L177.046 312.304C178.054 312.578 178.985 312.831 179.433 313.126C179.85 313.396 180.144 313.815 180.356 314.179C180.571 314.541 180.687 314.873 180.717 315.004C179.33 316.299 176.689 316.344 174.463 314.882ZM181.713 313.552C181.602 313.253 181.443 312.903 181.219 312.574C181.002 312.232 180.726 311.904 180.363 311.666C179.817 311.306 178.835 311.045 177.772 310.763L177.772 310.763L177.694 310.742C176.555 310.424 175.284 309.992 174.587 309.494C174.137 309.166 173.784 308.827 173.516 308.527C173.258 308.214 173.085 307.937 172.979 307.751C173.68 306.949 174.711 306.602 175.872 306.58C177.027 306.57 178.262 306.954 179.357 307.746C180.451 308.465 181.229 309.451 181.643 310.5C182.046 311.562 182.131 312.614 181.713 313.552ZM188.852 321.971C188.298 322.045 187.705 322.038 187.099 321.942C186.797 321.893 186.489 321.827 186.187 321.728C185.888 321.622 185.591 321.492 185.298 321.337C184.148 320.732 183.239 319.888 182.671 318.979C182.118 318.04 181.909 317.032 182.092 316.136C182.47 316.534 183.033 317.086 183.862 317.527C184.752 317.997 186.12 318.231 187.42 318.446C187.672 318.485 187.921 318.521 188.162 318.555C188.931 318.664 189.609 318.76 189.986 318.943C190.883 319.362 191.407 320.391 191.501 320.649C190.905 321.356 189.96 321.824 188.852 321.971ZM192.294 319.081C192 318.499 191.499 317.738 190.714 317.372C190.41 317.23 189.997 317.131 189.518 317.051C189.318 317.018 189.108 316.989 188.89 316.958C188.585 316.916 188.266 316.871 187.947 316.814C186.787 316.629 185.451 316.408 184.694 316.008C183.713 315.478 183.146 314.804 182.881 314.475C183.466 313.594 184.462 313.077 185.585 312.944C186.72 312.796 188.013 312.976 189.204 313.613C189.494 313.765 189.765 313.937 190.019 314.124C190.28 314.297 190.522 314.487 190.744 314.689C191.188 315.095 191.554 315.554 191.83 316.041C192.382 317.014 192.581 318.101 192.294 319.081ZM200.492 326.459C199.954 326.603 199.354 326.711 198.751 326.666C198.144 326.634 197.514 326.513 196.889 326.294C195.664 325.862 194.64 325.178 193.976 324.301C193.302 323.445 192.955 322.488 193.017 321.578C193.444 321.924 194.09 322.359 194.959 322.713C195.193 322.806 195.451 322.889 195.734 322.945C196.018 322.995 196.323 323.031 196.639 323.058C197.271 323.111 197.949 323.124 198.61 323.136L198.678 323.137H198.679C199.19 323.146 199.682 323.155 200.111 323.182L200.191 323.187H200.191C200.606 323.211 200.965 323.231 201.212 323.309C202.161 323.59 202.821 324.528 202.948 324.769C202.451 325.552 201.574 326.152 200.492 326.459ZM203.526 323.106C203.156 322.576 202.555 321.9 201.724 321.654C201.078 321.482 200.039 321.468 198.92 321.452L198.915 321.452C198.325 321.444 197.691 321.435 197.103 321.392C196.809 321.37 196.526 321.34 196.267 321.298C196.012 321.243 195.779 321.178 195.581 321.097C194.55 320.676 193.883 320.122 193.578 319.827C194.041 318.875 194.962 318.223 196.062 317.929C196.615 317.778 197.206 317.737 197.828 317.761C198.453 317.777 199.096 317.89 199.734 318.114C200.351 318.33 200.909 318.632 201.396 318.994C201.885 319.353 202.316 319.734 202.655 320.178C203.335 321.056 203.679 322.099 203.526 323.106ZM190.07 209.065C188.179 207.166 188.671 205.891 188.736 205.747C195.007 203.822 207.466 200.333 220.62 198.548C221.353 201.131 223.855 209.212 227.617 213.603L227.624 213.61L227.633 213.622L227.642 213.633C228.541 214.675 229.348 215.541 230.061 216.304C232.087 218.474 233.153 219.619 233.328 221.526C233.385 222.143 233.35 222.839 233.221 223.676C232.549 228.068 222.915 242.967 216.749 248.193C214.26 250.302 212.971 250.644 212.331 250.559C211.663 250.47 211.172 249.823 210.442 248.768C210.167 248.37 209.883 247.96 209.557 247.566C209.457 247.446 209.347 247.311 209.228 247.165L209.228 247.164L209.181 247.107C207.248 244.73 203.022 239.539 195.444 236.835C195.507 236.8 195.567 236.756 195.62 236.703L195.682 236.64L195.773 236.55L195.773 236.55C195.891 236.433 196.01 236.316 196.123 236.193L196.531 235.693L196.568 235.637C196.682 235.473 196.793 235.31 196.89 235.129L196.912 235.088C197.013 234.9 197.113 234.712 197.19 234.502C197.27 234.311 197.324 234.099 197.377 233.891L197.377 233.891L197.398 233.812C197.443 233.568 197.478 233.323 197.476 233.069C197.477 232.818 197.461 232.562 197.407 232.315C197.359 232.067 197.279 231.826 197.181 231.599C197.085 231.369 196.952 231.16 196.815 230.96C196.792 230.932 196.771 230.904 196.749 230.875C196.697 230.807 196.646 230.74 196.585 230.677L196.448 230.534L196.344 230.443C196.252 230.362 196.12 230.248 195.992 230.149C194.91 229.012 193.576 228.296 193.512 228.263C193.138 228.064 192.675 228.208 192.477 228.583C192.279 228.959 192.422 229.425 192.796 229.624C192.809 229.631 193.974 230.26 194.876 231.205C194.894 231.235 194.911 231.263 194.928 231.291C194.939 231.308 194.949 231.325 194.959 231.343C194.991 231.395 195.025 231.452 195.068 231.521L195.139 231.64C195.134 231.645 195.159 231.692 195.168 231.716C195.184 231.748 195.197 231.784 195.211 231.819L195.211 231.819C195.22 231.843 195.229 231.867 195.239 231.889C195.278 232.009 195.307 232.129 195.326 232.247C195.348 232.364 195.359 232.481 195.352 232.596C195.353 232.71 195.344 232.823 195.322 232.936C195.311 233.006 195.292 233.077 195.273 233.148C195.261 233.191 195.249 233.234 195.239 233.277C195.224 233.314 195.21 233.352 195.196 233.39C195.167 233.467 195.139 233.545 195.094 233.623C195.053 233.726 194.993 233.83 194.934 233.934C194.925 233.949 194.917 233.963 194.908 233.978C194.875 234.04 194.833 234.1 194.79 234.16C194.75 234.217 194.709 234.275 194.675 234.335L194.402 234.692C194.387 234.707 194.373 234.723 194.36 234.738C194.34 234.761 194.32 234.785 194.301 234.809C194.288 234.824 194.275 234.84 194.261 234.856C194.254 234.857 194.246 234.858 194.238 234.86L194.238 234.86C194.214 234.864 194.191 234.867 194.167 234.875C194.148 234.875 194.129 234.875 194.109 234.875C194.066 234.874 194.022 234.873 193.976 234.878C193.934 234.866 193.89 234.86 193.846 234.854C193.815 234.851 193.783 234.847 193.751 234.84C193.713 234.826 193.676 234.815 193.638 234.803C193.591 234.789 193.543 234.774 193.494 234.755C193.452 234.735 193.41 234.718 193.368 234.701L193.368 234.701C193.316 234.679 193.262 234.657 193.208 234.63C193.013 234.528 192.801 234.414 192.586 234.286C192.548 234.263 192.508 234.239 192.467 234.216C192.441 234.201 192.416 234.186 192.39 234.171L192.33 234.118C192.294 234.087 192.259 234.057 192.221 234.024C191.469 233.364 190.616 232.615 189.531 232.495C189.113 232.449 188.731 232.754 188.685 233.177C188.639 233.599 188.942 233.98 189.363 234.026C189.97 234.094 190.574 234.623 191.213 235.184C191.273 235.237 191.336 235.291 191.398 235.345C191.418 235.37 191.437 235.394 191.456 235.419C191.483 235.454 191.51 235.488 191.54 235.523L191.765 235.772L191.697 235.753C191.637 235.736 191.575 235.719 191.514 235.702C191.441 235.668 191.364 235.641 191.283 235.624C191.206 235.607 191.123 235.588 191.038 235.569C190.586 235.443 190.243 235.352 189.999 235.3C187.995 234.722 185.227 233.571 184.95 231.568C184.819 230.625 186.41 226.056 187.175 223.858L187.175 223.857L187.176 223.856L187.177 223.853C187.601 222.635 187.967 221.584 188.173 220.885C188.375 220.197 188.644 219.402 188.905 218.632L188.905 218.632L188.908 218.623L188.91 218.616C189.343 217.334 189.792 216.009 189.994 215.006C190.154 214.213 190.306 213.577 190.44 213.016C190.857 211.28 191.132 210.132 190.07 209.065ZM188.736 205.747L188.711 205.755L188.725 205.763L188.736 205.747ZM237.312 219.788C237.535 220.11 237.893 220.283 238.257 220.283C238.484 220.283 238.713 220.215 238.913 220.075C249.245 212.846 254.806 203.316 256.392 200.298C257.321 200.604 258.213 200.928 259.073 201.271C258.231 202.934 256.263 206.529 253.663 209.404C253.236 209.877 253.271 210.607 253.741 211.036C253.962 211.237 254.238 211.336 254.514 211.336C254.827 211.336 255.139 211.209 255.366 210.958C258.249 207.769 260.344 203.885 261.198 202.175C261.841 202.468 262.468 202.771 263.08 203.081C262.505 204.741 260.795 209.182 257.83 212.925C257.435 213.425 257.517 214.151 258.014 214.549C258.226 214.718 258.479 214.8 258.729 214.8C259.068 214.8 259.403 214.651 259.63 214.364C262.652 210.55 264.421 206.189 265.136 204.181C265.845 204.579 266.539 204.985 267.223 205.4C266.449 207.547 263.609 215.073 260.131 219.944C259.761 220.462 259.879 221.184 260.395 221.556C260.598 221.702 260.832 221.772 261.064 221.772C261.423 221.772 261.775 221.605 262 221.29C265.464 216.44 268.23 209.354 269.22 206.647C269.767 206.997 270.311 207.351 270.854 207.707C270.222 210.194 266.441 224.257 259.778 232.765C259.386 233.266 259.472 233.993 259.971 234.387C260.182 234.554 260.432 234.635 260.681 234.635C261.022 234.635 261.359 234.484 261.586 234.194C268.094 225.883 271.84 213.015 272.887 209.045C273.188 209.244 273.49 209.442 273.792 209.64L273.794 209.641L273.967 209.755C271.293 228.946 264.94 236.138 262.207 239.228C262.003 239.459 261.82 239.666 261.662 239.852C260.17 241.6 258.941 242.57 258.344 242.992C256.244 242.272 254.368 241.094 253.255 240.31C255.972 237.572 257.742 233.854 258.613 230.498C259.769 226.043 259.914 223.655 256.633 217.888C253.057 211.602 248.058 214.138 248.009 214.164C247.929 214.206 247.855 214.257 247.787 214.316C247.529 214.542 241.472 219.931 241.068 228.03C241.068 228.041 241.067 228.052 241.067 228.063L241.067 228.075C241.066 228.089 241.066 228.102 241.065 228.116C238.499 224.434 236.261 221.721 235.561 220.891C235.341 219.387 234.712 218.219 233.788 217.041C244.023 212.3 249.581 202.005 251.08 198.872C252.143 199.098 253.16 199.346 254.137 199.616C252.376 202.827 246.991 211.607 237.598 218.179C237.077 218.544 236.949 219.264 237.312 219.788ZM255.641 267.497L257.004 279.709C256.532 280.021 256.02 280.345 255.475 280.677L254.352 270.751C254.28 270.117 253.709 269.664 253.079 269.734C252.448 269.806 251.995 270.378 252.067 271.012L253.302 281.931C252.769 282.222 252.211 282.516 251.625 282.812L250.514 274.955C250.425 274.323 249.838 273.882 249.214 273.974C248.585 274.063 248.148 274.648 248.237 275.28L249.45 283.855C248.745 284.177 248.009 284.497 247.24 284.814L246.512 279.638C246.423 279.006 245.842 278.569 245.212 278.656C244.583 278.745 244.146 279.33 244.234 279.961L245.038 285.677C244.362 285.929 243.666 286.176 242.946 286.419L242.41 283.07C242.309 282.44 241.718 282.009 241.092 282.113C240.465 282.214 240.038 282.806 240.139 283.436L240.729 287.127C238.915 287.675 236.979 288.185 234.913 288.639C234.293 288.776 233.9 289.392 234.036 290.015C234.154 290.555 234.629 290.923 235.158 290.923C235.24 290.923 235.322 290.914 235.405 290.896C246.477 288.461 253.972 284.535 258.396 281.586C257.184 283.511 255.622 285.889 253.705 288.598C248.829 290.952 239.116 292.995 233.055 293.84L233.603 292.575C233.77 292.188 233.714 291.74 233.457 291.406C233.199 291.073 232.782 290.908 232.366 290.974L221.84 292.665L216.883 290.89L216.641 286.319L222.127 273.615C225.761 273.032 243.51 270.066 250.751 266.695C254.499 264.951 257.021 263.455 258.657 262.347C259.037 262.297 259.356 262.064 259.526 261.737L259.539 261.727L261.323 276.415C260.922 276.783 260.201 277.41 259.15 278.2L257.927 267.239C257.857 266.605 257.287 266.149 256.656 266.22C256.025 266.291 255.571 266.863 255.641 267.497ZM206.516 253.895C207.119 252.079 207.397 250.216 207.519 248.715C207.615 248.833 207.707 248.945 207.79 249.045C208.051 249.361 208.295 249.713 208.553 250.086C208.897 250.584 209.262 251.109 209.695 251.568C210.027 253.59 211.474 264.274 206.395 271.683C206.35 271.66 206.311 271.639 206.281 271.622C206.228 271.594 206.199 271.577 206.199 271.577C206.127 271.533 206.05 271.497 205.97 271.471C205.499 271.313 204.435 270.571 204.107 269.569C203.873 268.851 204.044 268.097 204.629 267.264C206.965 263.94 207.715 261.766 207.715 258.318C207.715 256.714 207.268 255.24 206.516 253.895ZM212.2 252.865C212.784 252.916 213.399 252.834 214.066 252.607C214.699 255.318 215.749 262.588 212.628 273.669C210.95 273.359 209.583 272.962 208.548 272.596C213.016 265.733 212.658 256.856 212.2 252.865ZM216.172 251.524C216.713 251.168 217.286 250.74 217.898 250.236C218.821 253.923 220.575 263.191 218.463 274.206C217.191 274.196 216.011 274.122 214.926 274.003C218.311 261.797 216.87 254.083 216.172 251.524ZM218.368 276.516L215.18 283.895C215.096 283.269 215.015 282.636 214.935 282.008C214.663 279.854 214.401 277.789 214.014 276.227C215.33 276.395 216.782 276.502 218.368 276.516ZM207.62 274.724C208.629 275.09 209.918 275.482 211.483 275.807C211.997 277.116 212.331 279.748 212.654 282.3L212.655 282.312L212.655 282.312C212.854 283.882 213.059 285.504 213.317 286.929C213.328 286.989 213.346 287.046 213.365 287.102L211.524 289.134L208.016 288.553L205.696 284.586L207.62 274.724ZM208.422 297.259C208.679 297.067 208.852 296.773 208.883 296.44L209.654 295.072C209.848 294.731 209.884 294.325 209.752 293.99L208.684 291.276C208.757 291.194 208.82 291.106 208.866 291.009L211.527 291.45L211.616 291.459C211.906 291.474 212.207 291.344 212.432 291.098L214.751 288.54L214.933 291.963C214.954 292.383 215.188 292.726 215.528 292.85L218.895 294.055L215.238 295.839C214.864 296.023 214.595 296.431 214.553 296.881L214.188 300.908L211.962 297.81C211.803 297.594 211.576 297.469 211.323 297.455C211.227 297.45 211.13 297.458 211.033 297.487L207.792 298.377L208.422 297.259ZM210.709 299.837L214.119 304.573C214.277 304.793 214.508 304.918 214.757 304.932C214.896 304.939 215.04 304.913 215.179 304.849C215.579 304.677 215.866 304.256 215.906 303.792L216.086 301.806L218.415 304.85C218.322 304.927 218.236 305.016 218.169 305.124L210.328 317.662C206.929 316.912 203.608 315.952 200.378 314.796L206.916 300.876L210.709 299.837ZM219.868 306.75L221.502 308.887L215.176 318.582C214.358 318.452 213.545 318.309 212.735 318.155L219.868 306.75ZM216.579 298.657C216.522 298.583 216.458 298.521 216.389 298.465L216.404 298.3L222.089 300.407C222.22 300.455 222.354 300.479 222.487 300.479C222.955 300.479 223.394 300.19 223.566 299.723C223.786 299.125 223.481 298.46 222.885 298.239L218.484 296.608L221.732 295.022L230.656 293.588L224.167 308.579L216.579 298.657ZM244.104 245.786C244.162 246.206 244.209 246.619 244.231 247.022C244.356 249.27 244.511 252.092 242.801 255.802C240.879 242.063 234.36 233.765 232.321 231.463C232.728 230.739 233.103 230.038 233.446 229.364C235.201 231.514 239.658 237.309 244.104 245.786ZM234.526 227.062C234.961 226.036 235.269 225.13 235.425 224.382C236.866 226.21 238.978 229.015 241.077 232.261C241.107 232.308 241.144 232.348 241.181 232.387L241.204 232.411C241.408 234.31 241.775 236.093 242.187 237.775C238.386 231.626 235.241 227.887 234.526 227.062ZM246.528 246.894C246.505 246.487 246.462 246.077 246.409 245.664C246.432 245.474 246.403 245.279 246.328 245.092C246.256 244.636 246.172 244.176 246.074 243.711C246.348 243.944 246.728 244.045 247.102 243.949C248.722 243.533 250.123 242.804 251.41 241.861C252.506 242.676 254.577 244.162 257.261 245.096V260.438C255.727 261.468 253.374 262.905 249.734 264.599C246.406 266.148 240.588 267.641 235.044 268.834C246.123 259.1 246.847 252.662 246.528 246.894ZM250.82 239.444C250.76 239.485 250.703 239.532 250.65 239.585C249.494 240.535 248.132 241.299 246.532 241.71C246.176 241.802 245.901 242.051 245.764 242.365C245.569 241.574 245.352 240.768 245.131 239.947L245.131 239.944L245.13 239.944C244.2 236.486 243.145 232.566 243.366 228.146C243.691 221.613 248.397 216.906 249.186 216.161C249.828 215.894 252.416 215.133 254.636 219.034C257.52 224.104 257.417 225.946 256.387 229.915C256.062 231.17 254.548 236.271 250.82 239.444ZM240.858 259.172C240.188 260.144 239.389 261.169 238.443 262.248C236.919 247.365 231.339 238.373 229.622 235.916C230.131 235.13 230.619 234.349 231.084 233.58C233.527 236.563 239.737 245.399 240.858 259.172ZM236.332 264.494C235.492 265.333 234.564 266.202 233.54 267.104C232.623 251.281 228.048 242.831 226.526 240.427C227.105 239.629 227.678 238.819 228.235 238.003C230.31 241.25 235.29 250.381 236.332 264.494ZM231.328 268.979C230.993 269.253 230.646 269.53 230.294 269.809C229.307 270.001 228.363 270.178 227.481 270.34C228.664 258.417 224.561 247.265 223.426 244.458C223.96 243.805 224.497 243.125 225.033 242.427C226.786 245.513 230.747 254.057 231.328 268.979ZM225.12 270.765C223.056 271.127 221.622 271.356 221.247 271.415C222.783 259.984 220.554 251.019 219.816 248.488C220.432 247.874 221.07 247.194 221.722 246.459C223.165 250.391 226.315 260.473 225.12 270.765ZM232.201 215.219C232.05 215.057 231.897 214.892 231.739 214.723C231.334 214.29 230.895 213.818 230.432 213.306C240.074 208.88 244.634 200.679 245.906 198.012C246.88 198.132 247.82 198.269 248.727 198.423C246.951 201.915 241.504 211.211 232.201 215.219ZM228.864 211.477C228.455 210.943 228.062 210.36 227.687 209.742C235.666 206.134 239.639 199.775 240.824 197.569C241.725 197.619 242.601 197.681 243.45 197.756C241.847 200.79 237.378 207.806 228.864 211.477ZM226.566 207.717C226.278 207.145 226.002 206.563 225.741 205.979C231.963 203.475 234.995 199.046 235.933 197.428H235.937H235.937C236.047 197.429 236.158 197.429 236.268 197.429C236.932 197.434 237.58 197.446 238.219 197.462C236.665 199.982 232.998 204.862 226.566 207.717ZM224.848 203.849C224.637 203.316 224.44 202.794 224.257 202.291C227.507 200.85 229.697 198.487 230.453 197.583C231.353 197.532 232.25 197.494 233.143 197.468C231.833 199.258 229.207 202.099 224.848 203.849ZM223.503 200.097C223.267 199.369 223.076 198.74 222.933 198.253C224.272 198.093 225.616 197.952 226.957 197.835C226.066 198.607 224.896 199.452 223.503 200.097ZM204.782 251.531C204.02 250.704 203.147 249.944 202.209 249.25C202.482 248.168 202.952 246.133 203.191 244.082C203.992 244.788 204.695 245.485 205.304 246.136C205.319 247.013 205.295 249.21 204.782 251.531ZM201.027 242.357C200.946 244.251 200.502 246.462 200.168 247.897C199.204 247.324 198.211 246.813 197.228 246.367L199.188 241.15C199.839 241.539 200.452 241.944 201.027 242.357ZM197.144 240.048L195.099 245.49C194.096 245.118 193.143 244.822 192.28 244.599L194.921 239.102C195.7 239.391 196.44 239.708 197.144 240.048ZM188.506 241.215C188.559 241.15 188.605 241.08 188.643 241.005L190.274 237.758C190.316 237.768 190.358 237.778 190.4 237.788C190.527 237.824 190.653 237.859 190.768 237.891C191.168 238.004 191.535 238.106 191.723 238.149C192.057 238.226 192.383 238.31 192.706 238.397L189.986 244.056C189.291 243.821 188.765 243.479 188.422 243.03C188.031 242.519 188.067 241.755 188.506 241.215ZM191.406 246.767C193.139 247.206 195.642 248.096 198.058 249.393C197.52 249.554 196.824 249.718 195.927 249.862C192.681 250.382 191.107 249.668 191.02 249.19C190.923 248.653 191.139 247.643 191.406 246.767ZM194.163 256.839C194.711 254.39 194.999 253.097 195.15 252.415C195.16 252.371 195.167 252.327 195.177 252.283C195.537 252.249 195.907 252.205 196.289 252.144C198.477 251.794 199.762 251.301 200.506 250.891C203.252 252.814 205.415 255.318 205.415 258.318C205.415 260.816 205.069 262.498 203.104 265.415C202.737 265.402 202.339 265.392 201.923 265.382L201.919 265.381C199.88 265.331 196.8 265.255 195.724 264.679C193.393 263.434 192.937 262.318 194.163 256.839ZM203.211 284.898L205.88 289.463L205.87 289.533C205.854 289.72 205.877 289.906 205.943 290.074L206.993 292.742L204.176 291.807C203.573 291.607 202.923 291.935 202.723 292.541C202.524 293.147 202.851 293.8 203.454 294.001L207.148 295.227L197.227 296.129L203.211 284.898ZM205.961 297.655L204.893 299.547C204.79 299.728 204.738 299.926 204.726 300.122L198.214 313.988C197.436 313.684 196.662 313.373 195.896 313.047C196.066 312.918 196.205 312.743 196.285 312.527L201.643 298.048L205.961 297.655ZM212.624 329.351C211.599 329.769 210.333 329.914 209.032 329.667C208.714 329.605 208.405 329.528 208.11 329.43C207.818 329.319 207.538 329.193 207.273 329.053C206.744 328.773 206.275 328.438 205.883 328.066C205.099 327.321 204.626 326.428 204.565 325.522C205.035 325.8 205.736 326.134 206.648 326.355C207.136 326.473 207.725 326.505 208.354 326.493C208.827 326.491 209.331 326.425 209.832 326.359C209.995 326.338 210.158 326.316 210.319 326.297L210.406 326.286C211.439 326.15 212.393 326.024 212.92 326.124C213.406 326.227 213.845 326.459 214.183 326.71C214.521 326.961 214.757 327.222 214.836 327.332C214.447 328.172 213.653 328.918 212.624 329.351ZM214.353 324.893C214.018 324.677 213.633 324.505 213.208 324.416C212.566 324.294 211.561 324.431 210.475 324.58L210.396 324.591C209.217 324.778 207.882 324.867 207.049 324.67C205.967 324.407 205.23 323.96 204.887 323.714C205.219 322.707 206.047 321.928 207.102 321.476C207.63 321.25 208.216 321.107 208.832 321.059C209.141 321.036 209.457 321.036 209.778 321.063L209.808 321.065L209.809 321.065C210.12 321.089 210.442 321.114 210.763 321.178C212.047 321.421 213.144 322.033 213.932 322.844C214.724 323.615 215.206 324.586 215.187 325.605C214.969 325.371 214.686 325.11 214.353 324.893ZM225.028 330.561C224.547 330.845 223.999 331.071 223.404 331.219C222.81 331.371 222.17 331.444 221.512 331.375C220.219 331.265 219.055 330.84 218.179 330.223C217.74 329.922 217.375 329.546 217.098 329.137C216.82 328.731 216.63 328.295 216.54 327.845C217.042 328.071 217.775 328.356 218.711 328.419C219.713 328.506 221.062 328.191 222.342 327.883C222.496 327.841 222.648 327.799 222.798 327.758L222.802 327.757C223.66 327.52 224.43 327.308 224.898 327.328C225.887 327.363 226.769 328.107 226.955 328.309C226.68 329.192 225.991 329.993 225.028 330.561ZM222.909 325.984L222.909 325.984C222.676 326.047 222.437 326.112 222.194 326.173C221.054 326.453 219.738 326.769 218.886 326.696C217.778 326.621 216.998 326.206 216.624 326.007L216.62 326.005C216.816 324.961 217.53 324.111 218.513 323.536C219.503 322.931 220.762 322.614 222.107 322.731C222.758 322.802 223.377 322.913 223.945 323.113C224.512 323.313 225.027 323.593 225.471 323.934C226.357 324.615 226.962 325.539 227.077 326.554C226.581 326.133 225.825 325.627 224.959 325.596C224.441 325.57 223.715 325.766 222.909 325.984ZM225.73 319.56C223.016 319.484 220.334 319.276 217.691 318.942L222.986 310.828L223.531 311.541C223.751 311.827 224.089 311.992 224.443 311.992C224.49 311.992 224.537 311.989 224.584 311.983C224.988 311.933 225.335 311.672 225.498 311.297L231.986 296.308C233.894 296.08 236.254 295.713 238.773 295.234C236.129 299.215 230.409 307.648 224.639 314.981C224.245 315.482 224.33 316.208 224.828 316.604C225.039 316.772 225.291 316.853 225.54 316.853C225.88 316.853 226.216 316.702 226.443 316.414C233.528 307.41 240.535 296.769 241.958 294.586C245.164 293.89 248.417 293.044 251.157 292.103C245.224 300.057 236.742 310.017 225.73 319.56ZM262.87 278.616L264.515 279.964C262.943 283.172 255.253 297.922 239.977 312.848C239.522 313.293 239.512 314.024 239.955 314.481C240.18 314.714 240.48 314.831 240.779 314.831C241.068 314.831 241.358 314.722 241.581 314.504C249.306 306.956 255.133 299.433 259.24 293.37L261.828 295.396C262.038 295.56 262.287 295.64 262.534 295.64C262.876 295.64 263.215 295.487 263.442 295.195C263.832 294.691 263.743 293.965 263.242 293.573L260.52 291.443C260.994 290.716 261.441 290.015 261.86 289.344L268.15 294.246C268.36 294.41 268.608 294.489 268.855 294.489C269.198 294.489 269.537 294.335 269.764 294.042C270.153 293.538 270.062 292.812 269.56 292.421L263.07 287.362C263.464 286.704 263.826 286.083 264.157 285.503L273.672 293.444C273.887 293.624 274.147 293.711 274.406 293.711C274.736 293.711 275.064 293.569 275.291 293.294C275.697 292.803 275.63 292.075 275.142 291.667L265.299 283.452C265.736 282.643 266.083 281.973 266.341 281.46L278.669 291.56L274.388 303.639L262.497 304.035C261.912 304.055 261.435 304.512 261.388 305.097L260.768 312.832C251.058 317.042 240.393 319.433 229.199 319.582C248.836 302.007 260.091 283.484 262.87 278.616ZM273.408 305.984C270.145 308.137 266.723 310.066 263.163 311.747L263.599 306.311L273.408 305.984ZM230.775 324.092C231.222 323.729 231.748 323.429 232.33 323.214C232.62 323.106 232.925 323.019 233.242 322.956C233.559 322.896 233.887 322.853 234.222 322.815C235.524 322.693 236.746 322.979 237.722 323.542C238.21 323.831 238.633 324.161 238.967 324.547C239.301 324.936 239.547 325.384 239.674 325.876C239.401 325.711 239.059 325.538 238.68 325.421C238.3 325.305 237.879 325.209 237.447 325.254C236.796 325.314 235.866 325.724 234.86 326.167L234.86 326.167L234.788 326.199C234.715 326.231 234.641 326.263 234.566 326.296C234.364 326.386 234.158 326.477 233.95 326.559C233.666 326.664 233.38 326.765 233.101 326.853C232.543 327.031 232.013 327.16 231.586 327.177C230.474 327.22 229.644 327.004 229.247 326.846C229.295 325.801 229.881 324.814 230.775 324.092ZM238.211 330.162C237.337 330.848 236.158 331.337 234.841 331.458C234.196 331.532 233.567 331.446 232.983 331.332C232.399 331.208 231.858 331.015 231.38 330.765C230.425 330.265 229.729 329.537 229.426 328.682C229.954 328.82 230.717 328.948 231.655 328.909C232.156 328.888 232.731 328.757 233.333 328.572L233.351 328.566L233.351 328.566C233.646 328.473 233.948 328.377 234.25 328.256L235.173 327.861L235.249 327.828C236.209 327.411 237.095 327.026 237.629 326.977C238.616 326.904 239.588 327.465 239.799 327.634C239.651 328.55 239.088 329.493 238.211 330.162ZM242.32 322.973C243.115 322.149 244.236 321.474 245.562 321.222C246.204 321.1 246.839 321.079 247.434 321.103C248.033 321.139 248.604 321.266 249.122 321.472C250.158 321.883 250.989 322.606 251.374 323.551C250.783 323.282 249.919 323.004 249.079 323.213C248.754 323.294 248.369 323.477 247.946 323.716C247.808 323.792 247.667 323.877 247.522 323.964C247.493 323.982 247.463 323.999 247.434 324.017C247.384 324.047 247.334 324.077 247.283 324.107C247.054 324.237 246.814 324.373 246.571 324.511C245.55 325.095 244.369 325.762 243.529 325.927C242.434 326.125 241.572 325.956 241.16 325.864C241.069 324.809 241.525 323.781 242.32 322.973ZM250.484 327.972C249.71 328.775 248.619 329.477 247.314 329.706C246.041 329.956 244.806 329.869 243.797 329.517C242.781 329.126 241.991 328.472 241.577 327.657C242.12 327.731 242.902 327.808 243.825 327.634C244.812 327.441 246.025 326.765 247.173 326.115C247.455 325.963 247.728 325.799 247.987 325.644L247.987 325.644C248.157 325.542 248.321 325.444 248.478 325.355C248.873 325.131 249.22 324.963 249.487 324.897C250.447 324.658 251.496 325.131 251.73 325.274C251.704 326.199 251.258 327.16 250.484 327.972ZM252.843 323.336C252.612 322.302 252.925 321.212 253.601 320.29C253.939 319.829 254.37 319.409 254.876 319.056C255.377 318.683 255.947 318.359 256.583 318.133C257.812 317.689 259.081 317.684 260.15 317.915C261.226 318.171 262.142 318.767 262.648 319.65C262.03 319.47 261.141 319.321 260.341 319.653C260.186 319.717 260.02 319.809 259.845 319.922C259.666 320.026 259.477 320.15 259.28 320.289C258.901 320.557 258.492 320.879 258.068 321.214L258.019 321.252L257.94 321.314C257.03 322.031 255.998 322.845 255.195 323.063C254.128 323.386 253.264 323.374 252.843 323.336ZM262.366 324.177C262.203 324.408 262.019 324.631 261.815 324.846C261.609 325.055 261.378 325.242 261.132 325.422C260.639 325.779 260.072 326.083 259.449 326.306C258.838 326.524 258.225 326.658 257.634 326.711C257.039 326.752 256.461 326.692 255.934 326.574C254.876 326.331 254.011 325.803 253.493 325.055C254.041 325.055 254.815 324.988 255.714 324.715C256.624 324.466 257.644 323.676 258.631 322.911L258.829 322.758C259.673 322.091 260.468 321.496 260.97 321.267C261.884 320.887 262.982 321.203 263.231 321.31C263.33 322.235 263.02 323.256 262.366 324.177ZM264.429 316.137C264.7 315.628 265.068 315.147 265.519 314.722C265.969 314.293 266.514 313.94 267.103 313.607C268.256 312.989 269.493 312.778 270.612 312.916C271.711 313.025 272.691 313.479 273.31 314.287C272.994 314.241 272.611 314.214 272.215 314.254C271.821 314.297 271.41 314.4 271.024 314.598C270.447 314.906 269.748 315.645 268.993 316.444L268.939 316.502C268.136 317.391 267.142 318.285 266.373 318.662C265.364 319.135 264.517 319.262 264.089 319.27C263.728 318.287 263.887 317.153 264.429 316.137ZM273.636 318.818C273.097 319.789 272.199 320.698 271.03 321.322C270.463 321.639 269.859 321.827 269.273 321.942C268.686 322.056 268.112 322.09 267.575 322.046C266.5 321.958 265.577 321.562 264.965 320.89C265.506 320.814 266.259 320.631 267.108 320.23C268.015 319.794 269.032 318.871 269.94 317.882L269.999 317.82C270.722 317.064 271.388 316.366 271.861 316.113C272.304 315.887 272.794 315.796 273.213 315.779C273.633 315.764 273.98 315.82 274.109 315.856C274.328 316.755 274.172 317.837 273.636 318.818ZM274.618 310.579C275.016 309.488 275.803 308.455 276.929 307.706C278.001 306.956 279.177 306.548 280.302 306.533C280.862 306.523 281.403 306.604 281.896 306.778C282.38 306.94 282.817 307.199 283.176 307.557C282.55 307.568 281.631 307.631 280.936 308.15C280.423 308.527 279.853 309.331 279.235 310.203L279.138 310.34C278.421 311.271 277.588 312.34 276.875 312.815C275.957 313.449 275.096 313.628 274.678 313.701C274.18 312.76 274.215 311.657 274.618 310.579ZM284.08 311.982C283.676 313.018 282.929 314.071 281.842 314.828C280.761 315.55 279.586 315.946 278.516 316.012C277.455 316.092 276.454 315.77 275.76 315.188C276.028 315.121 276.345 315.023 276.697 314.882C277.05 314.742 277.418 314.527 277.811 314.271C278.646 313.709 279.514 312.631 280.312 311.574L280.364 311.5C280.973 310.646 281.535 309.858 281.966 309.54C282.764 308.953 283.918 308.983 284.176 309.006C284.525 309.886 284.483 310.94 284.08 311.982ZM283.972 303.692C284.039 303.414 284.136 303.143 284.249 302.865C284.358 302.583 284.492 302.305 284.65 302.034C284.965 301.494 285.375 300.983 285.879 300.531C286.872 299.675 287.969 299.1 289.074 298.927C290.173 298.751 291.254 298.948 292.063 299.565C291.419 299.636 290.535 299.839 289.918 300.449C289.569 300.788 289.232 301.391 288.857 302.064L288.857 302.064C288.716 302.318 288.568 302.582 288.413 302.845C287.833 303.873 287.157 305.054 286.519 305.627C285.657 306.334 284.849 306.653 284.444 306.781C283.831 305.919 283.7 304.798 283.972 303.692ZM293.538 303.829C293.284 304.922 292.688 306.069 291.686 306.938C290.715 307.802 289.624 308.377 288.561 308.569C287.487 308.751 286.481 308.599 285.712 308.109C286.22 307.9 286.912 307.542 287.639 306.945C288.388 306.273 289.087 305.067 289.744 303.918L290.135 303.239L290.486 302.601C290.713 302.206 290.926 301.884 291.122 301.69C291.827 300.993 292.969 300.863 293.242 300.867C293.689 301.678 293.791 302.734 293.538 303.829ZM303.919 191.479C304.282 192.045 305.05 192.752 305.895 193.501C306.795 194.283 307.741 195.236 308.151 195.99C308.682 196.974 308.783 197.85 308.825 198.271C307.851 198.678 306.735 198.555 305.722 198.04C304.674 197.541 303.75 196.638 303.083 195.455C302.431 194.314 302.188 193.068 302.249 191.959C302.324 190.844 302.76 189.833 303.542 189.183C303.466 189.828 303.464 190.738 303.919 191.479ZM307.655 202.275C307.873 201.18 308.433 200.233 309.291 199.687C309.133 200.317 309.015 201.219 309.371 202.013C309.658 202.621 310.336 203.417 311.073 204.271C311.865 205.162 312.685 206.228 312.99 207.031C313.393 208.074 313.377 208.956 313.362 209.379C312.342 209.656 311.259 209.384 310.315 208.745C309.833 208.429 309.385 208.019 309 207.53C308.614 207.041 308.301 206.47 308.034 205.845C307.785 205.237 307.639 204.619 307.585 204.013C307.535 203.406 307.542 202.826 307.655 202.275ZM311.379 214.9C311.399 214.296 311.492 213.721 311.676 213.191C312.037 212.136 312.723 211.27 313.64 210.845C313.405 211.447 313.163 212.327 313.411 213.16C313.502 213.483 313.714 213.857 313.953 214.276C314.185 214.678 314.467 215.114 314.76 215.566L314.76 215.567L314.797 215.624C315.459 216.614 316.139 217.779 316.325 218.618C316.579 219.708 316.456 220.577 316.376 220.995C315.324 221.129 314.302 220.709 313.441 219.951C313.007 219.572 312.62 219.105 312.307 218.569C312.15 218.301 312.011 218.016 311.894 217.715C311.77 217.415 311.658 217.102 311.575 216.774C311.411 216.139 311.35 215.508 311.379 214.9ZM316.245 251.215C316.341 251.801 316.442 252.431 316.502 253.021C316.573 253.613 316.538 254.153 316.457 254.575C316.223 255.669 315.796 256.423 315.56 256.775C314.547 256.478 313.749 255.676 313.271 254.636C313.032 254.115 312.873 253.533 312.81 252.917C312.736 252.299 312.721 251.639 312.833 250.97C312.938 250.322 313.136 249.718 313.406 249.173C313.539 248.901 313.699 248.644 313.858 248.402C314.014 248.16 314.185 247.934 314.37 247.728C315.111 246.906 316.071 246.388 317.085 246.37C316.631 246.826 316.073 247.536 315.978 248.401C315.909 249.07 316.055 250.101 316.245 251.215ZM316.024 244.316C315.592 244.003 315.205 243.589 314.892 243.105C314.26 242.133 313.924 240.882 313.992 239.528C314.011 236.915 315.629 234.72 317.596 234.401C317.401 234.657 317.204 234.979 317.032 235.346C316.859 235.714 316.736 236.125 316.732 236.561C316.725 237.216 317.037 238.188 317.375 239.239L317.399 239.316C317.596 239.886 317.734 240.494 317.861 241.071C317.98 241.647 318.055 242.189 318.029 242.617C317.961 243.734 317.663 244.541 317.446 244.919C316.926 244.84 316.446 244.628 316.024 244.316ZM317.98 232.003C317.911 232.404 317.816 232.714 317.745 232.916C316.683 232.899 315.743 232.337 314.981 231.466C314.222 230.592 313.751 229.402 313.582 228.062C313.509 227.411 313.546 226.778 313.653 226.183C313.747 225.589 313.928 225.032 314.182 224.534C314.692 223.54 315.485 222.779 316.446 222.485C316.148 223.046 315.771 223.886 315.903 224.744C315.951 225.077 316.095 225.478 316.291 225.924C316.472 226.372 316.698 226.866 316.934 227.377L317.029 227.584L317.029 227.584C317.248 228.062 317.478 228.564 317.657 229.047C317.851 229.601 317.995 230.128 318.026 230.556C318.066 231.114 318.037 231.603 317.98 232.003ZM312.137 259.146C312.995 258.434 314.026 258.052 315.035 258.171C314.516 258.56 313.857 259.186 313.633 260.026C313.504 260.485 313.52 261.158 313.538 261.909C313.545 262.216 313.552 262.535 313.551 262.858C313.568 264.039 313.581 265.4 313.319 266.219C312.946 267.273 312.397 267.954 312.116 268.271C311.152 267.84 310.476 266.941 310.153 265.851C310.004 265.309 309.894 264.701 309.895 264.076C309.894 263.45 309.99 262.801 310.197 262.156C310.624 260.914 311.268 259.857 312.137 259.146ZM311.411 269.584C311.133 269.743 310.827 269.964 310.53 270.236C310.228 270.507 309.956 270.838 309.784 271.237C309.524 271.839 309.435 272.856 309.339 273.956V273.956L309.332 274.037C309.202 275.214 309.002 276.55 308.629 277.323C308.382 277.824 308.115 278.233 307.859 278.546C307.592 278.853 307.352 279.071 307.187 279.208C306.738 278.93 306.378 278.546 306.11 278.093C305.975 277.866 305.864 277.622 305.776 277.364C305.679 277.102 305.605 276.827 305.554 276.542C305.35 275.4 305.512 274.11 306.11 272.894C306.634 271.692 307.464 270.753 308.423 270.167C309.394 269.587 310.428 269.332 311.411 269.584ZM306.298 280.406C305.7 280.646 304.931 281.092 304.49 281.841C304.145 282.399 303.912 283.391 303.661 284.463L303.661 284.463L303.643 284.538C303.606 284.685 303.571 284.837 303.535 284.99C303.431 285.434 303.324 285.891 303.172 286.298C302.979 286.852 302.765 287.354 302.523 287.708C301.892 288.63 301.212 289.161 300.861 289.396C300.043 288.724 299.614 287.67 299.571 286.519C299.55 285.943 299.626 285.342 299.802 284.746C299.891 284.448 300.004 284.152 300.143 283.86C300.273 283.561 300.422 283.263 300.6 282.975C301.283 281.856 302.26 281.054 303.28 280.595C304.276 280.126 305.359 280.025 306.298 280.406ZM299.81 290.457C299.186 290.615 298.343 290.938 297.819 291.631C297.429 292.179 297.036 293.143 296.628 294.195L296.554 294.384L296.554 294.385C296.138 295.44 295.675 296.616 295.11 297.196C294.354 298.018 293.603 298.449 293.221 298.632C292.5 297.858 292.218 296.76 292.334 295.621C292.393 295.051 292.552 294.469 292.81 293.906C293.048 293.325 293.381 292.759 293.815 292.239C294.235 291.736 294.713 291.318 295.223 290.989C295.741 290.665 296.241 290.389 296.778 290.231C297.836 289.905 298.928 289.953 299.81 290.457ZM300.413 297.821C299.996 298.32 299.534 298.747 299.052 299.093C298.566 299.437 298.034 299.676 297.521 299.844C296.488 300.174 295.476 300.161 294.651 299.779C295.124 299.501 295.756 299.048 296.392 298.355C297.036 297.691 297.505 296.524 297.963 295.388L297.963 295.388L297.966 295.378C298.006 295.279 298.046 295.179 298.086 295.081C298.485 294.082 298.855 293.153 299.175 292.702C299.774 291.911 300.881 291.625 301.151 291.591C302.25 293.064 302.157 295.803 300.413 297.821ZM307.874 287.631C307.703 287.908 307.519 288.168 307.324 288.411C307.124 288.65 306.902 288.864 306.679 289.063C306.229 289.459 305.75 289.78 305.264 290.014C304.292 290.484 303.292 290.609 302.427 290.343C302.855 290.001 303.415 289.463 303.947 288.686C304.231 288.27 304.471 287.73 304.684 287.136C304.851 286.668 304.976 286.15 305.101 285.636L305.101 285.636C305.134 285.497 305.168 285.358 305.202 285.22L305.222 285.137C305.467 284.119 305.693 283.179 305.975 282.721C306.477 281.865 307.512 281.42 307.777 281.353C308.425 282.02 308.814 283.02 308.869 284.153C308.891 285.262 308.571 286.501 307.874 287.631ZM313.936 276.538C312.779 278.884 310.702 280.276 308.87 279.94C309.065 279.745 309.299 279.504 309.522 279.199C309.739 278.89 309.962 278.525 310.17 278.103C310.392 277.65 310.552 277.079 310.679 276.459C310.798 275.835 310.917 275.177 310.965 274.504L310.973 274.42C311.07 273.373 311.16 272.406 311.373 271.911C311.57 271.454 311.921 271.088 312.256 270.821C312.576 270.549 312.88 270.376 313.004 270.325C313.37 270.613 313.685 270.992 313.935 271.44C314.173 271.882 314.339 272.39 314.428 272.942C314.605 274.043 314.47 275.321 313.936 276.538ZM318.438 264.716C318.039 265.957 317.376 267.004 316.571 267.717C315.736 268.421 314.79 268.801 313.879 268.771C314.209 268.33 314.639 267.674 314.95 266.785C315.257 265.823 315.252 264.429 315.24 263.104L315.236 262.681L315.232 262.319C315.221 262.063 315.213 261.818 315.211 261.59C315.206 261.134 315.227 260.748 315.298 260.481C315.553 259.521 316.471 258.826 316.709 258.69C317.503 259.16 318.126 260.017 318.46 261.09C318.791 262.16 318.865 263.457 318.438 264.716ZM321.34 252.401C321.236 253.044 321.057 253.649 320.819 254.194C320.558 254.735 320.234 255.216 319.874 255.622C319.152 256.434 318.275 256.941 317.372 257.034C317.637 256.552 317.951 255.839 318.148 254.917C318.377 253.964 318.167 252.632 317.967 251.354L317.948 251.232C317.772 250.166 317.638 249.18 317.688 248.628C317.797 247.641 318.601 246.828 318.815 246.661C319.669 247.021 320.41 247.788 320.899 248.808C321.154 249.319 321.312 249.888 321.381 250.494C321.455 251.101 321.446 251.745 321.34 252.401ZM321.56 243.2C320.966 244.102 320.186 244.722 319.281 244.933C319.509 244.423 319.686 243.671 319.75 242.731C319.781 242.227 319.708 241.639 319.586 241.018C319.465 240.398 319.299 239.745 319.085 239.106L319.058 239.022L319.058 239.021C318.743 238.021 318.452 237.097 318.457 236.559C318.462 236.061 318.643 235.587 318.848 235.21C319.043 234.834 319.255 234.556 319.35 234.459C319.798 234.582 320.234 234.808 320.636 235.123C321.024 235.437 321.376 235.84 321.671 236.313C322.261 237.257 322.626 238.486 322.612 239.814C322.552 241.116 322.148 242.299 321.56 243.2ZM320.754 223.796C321.118 224.222 321.44 224.726 321.691 225.289C321.923 225.855 322.086 226.481 322.159 227.143C322.319 228.442 322.067 229.676 321.602 230.652C321.368 231.141 321.077 231.566 320.735 231.91C320.384 232.255 319.989 232.518 319.563 232.683C319.714 232.147 319.818 231.375 319.747 230.433C319.711 229.93 319.562 229.356 319.359 228.757C319.134 228.16 318.854 227.538 318.579 226.932C318.361 226.457 318.16 225.996 317.983 225.588L317.967 225.551C317.784 225.135 317.65 224.771 317.61 224.498C317.462 223.515 318.044 222.509 318.191 222.291C319.123 222.402 320.019 222.943 320.754 223.796ZM319.211 212.892C319.522 213.418 319.773 214.013 319.939 214.657C320.02 214.973 320.08 215.287 320.12 215.597C320.153 215.909 320.161 216.218 320.152 216.518C320.134 217.118 320.041 217.688 319.879 218.204C319.569 219.234 318.932 220.058 318.142 220.505C318.206 219.955 318.224 219.171 318.011 218.252C317.902 217.759 317.672 217.213 317.385 216.649C317.155 216.197 316.863 215.739 316.574 215.285L316.574 215.285C316.503 215.174 316.432 215.063 316.363 214.953L316.324 214.891C316.048 214.46 315.782 214.044 315.566 213.671C315.332 213.283 315.144 212.943 315.068 212.678C314.786 211.725 315.209 210.652 315.341 210.412C316.263 210.397 317.24 210.803 318.083 211.545C318.5 211.916 318.903 212.365 319.211 212.892ZM316.039 202.618C317.007 205.048 316.511 207.552 315.045 208.651C315.025 208.1 314.95 207.317 314.611 206.438C314.258 205.492 313.414 204.4 312.535 203.395L312.458 203.304C311.791 202.519 311.178 201.795 310.95 201.314C310.543 200.408 310.82 199.289 310.918 199.034C312.729 198.754 315.058 200.135 316.039 202.618ZM310.608 191.221C311.251 192.35 311.504 193.576 311.472 194.648C311.429 195.728 311.04 196.686 310.398 197.327C310.301 196.786 310.133 196.017 309.682 195.19C309.206 194.302 308.234 193.326 307.232 192.444C306.433 191.723 305.695 191.049 305.396 190.584C304.877 189.738 305.009 188.594 305.074 188.328C306.839 187.818 309.316 188.893 310.608 191.221ZM297.951 178.44C299.643 177.714 302.227 178.475 303.798 180.619C304.57 181.662 304.978 182.841 305.079 183.908C305.165 184.988 304.904 185.983 304.345 186.701C304.182 186.177 303.917 185.437 303.37 184.672C302.784 183.853 301.702 183.004 300.598 182.255C299.714 181.641 298.902 181.061 298.548 180.637C297.929 179.862 297.919 178.711 297.951 178.44ZM299.699 183.678C299.848 183.783 299.999 183.889 300.149 183.994C300.392 184.178 300.631 184.365 300.857 184.553C301.309 184.929 301.705 185.307 301.951 185.657C302.595 186.57 302.811 187.422 302.903 187.836C301.989 188.363 300.865 188.382 299.794 187.999C298.698 187.63 297.659 186.855 296.855 185.76C295.309 183.647 295.142 180.979 296.536 179.477C296.539 180.126 296.649 181.029 297.192 181.709C297.623 182.225 298.469 182.834 299.403 183.47L299.699 183.678ZM295.748 170.946C296.639 171.887 297.189 173.005 297.419 174.052C297.633 175.115 297.497 176.133 297.03 176.914C296.804 176.414 296.448 175.714 295.815 175.02C295.133 174.28 293.958 173.57 292.771 172.961C291.818 172.462 290.943 171.984 290.539 171.607C289.831 170.913 289.681 169.773 289.68 169.499C291.272 168.571 293.929 169.012 295.748 170.946ZM291.732 174.315C292.262 174.585 292.815 174.891 293.307 175.211C293.801 175.529 294.24 175.855 294.527 176.173C295.275 177.002 295.596 177.818 295.738 178.218C294.894 178.854 293.781 179.011 292.67 178.763C291.54 178.529 290.41 177.89 289.481 176.899C287.688 174.992 287.201 172.363 288.401 170.702C288.483 171.346 288.702 172.228 289.324 172.836C289.813 173.297 290.728 173.797 291.732 174.315ZM286.582 162.331C287.582 163.155 288.263 164.199 288.619 165.209C288.961 166.237 288.95 167.265 288.582 168.097C288.297 167.629 287.859 166.977 287.145 166.366C286.379 165.715 285.125 165.155 283.873 164.697C282.867 164.317 281.938 163.953 281.492 163.628C280.704 163.027 280.416 161.913 280.381 161.642C281.845 160.524 284.54 160.632 286.582 162.331ZM280.436 164.999C280.978 165.394 281.948 165.777 283.006 166.168C283.566 166.371 284.153 166.606 284.679 166.864C285.208 167.118 285.683 167.388 286.007 167.668C286.85 168.399 287.267 169.171 287.457 169.55C286.697 170.285 285.611 170.577 284.479 170.466C283.328 170.373 282.131 169.877 281.087 169.01C280.066 168.183 279.393 167.107 279.051 166.051C278.721 164.985 278.764 163.884 279.26 162.994C279.42 163.623 279.746 164.472 280.436 164.999ZM276.409 154.916C277.511 155.602 278.314 156.56 278.794 157.518C279.266 158.491 279.379 159.517 279.117 160.388C278.775 159.959 278.264 159.362 277.476 158.85C276.636 158.296 275.318 157.903 274.019 157.606L273.946 157.588C272.931 157.34 271.993 157.11 271.522 156.85C270.665 156.354 270.237 155.284 270.168 155.019C271.473 153.726 274.168 153.482 276.409 154.916ZM269.23 156.505C269.469 157.109 269.898 157.91 270.649 158.345C271.235 158.669 272.249 158.917 273.345 159.175C274.506 159.432 275.79 159.817 276.508 160.285C277.439 160.9 277.945 161.618 278.18 161.969C277.517 162.793 276.476 163.218 275.341 163.25C274.184 163.31 272.943 162.958 271.797 162.238C270.686 161.543 269.88 160.57 269.41 159.566C268.949 158.55 268.852 157.452 269.23 156.505ZM266.845 163.107C293.68 177.444 310.774 205.847 310.774 236.508C310.774 264.025 297.403 288.456 276.824 303.585L280.548 293.11L281.92 294.229C282.413 294.632 283.14 294.558 283.542 294.064C283.578 294.019 283.608 293.97 283.637 293.922C283.642 293.926 283.648 293.93 283.654 293.934C298.546 279.372 307.764 259.032 307.764 236.555C307.764 207.562 291.763 180.666 266.845 166.601V163.107ZM265.289 190.74C264.085 191.96 262.048 194.017 260.939 195.088C260.481 195.531 260.467 196.262 260.907 196.722C261.133 196.958 261.435 197.076 261.736 197.076C262.023 197.076 262.311 196.969 262.533 196.754C263.936 195.399 266.699 192.595 267.599 191.681C268.175 191.931 268.749 192.191 269.321 192.464C268.157 193.645 265.947 195.88 264.773 197.014C264.315 197.456 264.301 198.187 264.741 198.647C264.967 198.883 265.268 199.002 265.57 199.002C265.857 199.002 266.144 198.895 266.367 198.679C267.82 197.275 270.741 194.309 271.528 193.509C272.019 193.762 272.654 194.116 273.406 194.59C272.566 195.542 270.673 197.593 268.805 198.955C268.292 199.329 268.177 200.052 268.551 200.568C268.776 200.88 269.126 201.045 269.482 201.045C269.716 201.045 269.953 200.973 270.157 200.824C272.387 199.198 274.552 196.791 275.325 195.897C275.999 196.39 276.723 196.954 277.488 197.602C276.499 198.455 274.589 200.035 272.704 201.221C272.166 201.56 272.003 202.273 272.34 202.814C272.559 203.164 272.933 203.356 273.316 203.356C273.524 203.356 273.736 203.299 273.925 203.179C276.118 201.799 278.27 199.985 279.222 199.153C279.69 199.594 280.169 200.063 280.657 200.563C279.733 201.255 277.961 202.531 276.21 203.499C275.654 203.807 275.451 204.509 275.758 205.068C275.967 205.45 276.36 205.666 276.766 205.666C276.954 205.666 277.144 205.62 277.32 205.523C279.347 204.401 281.339 202.943 282.239 202.26C282.721 202.801 283.208 203.372 283.699 203.972C282.484 204.696 280.794 205.629 279.877 205.863C279.261 206.02 278.889 206.649 279.046 207.268C279.178 207.79 279.646 208.138 280.159 208.138C280.253 208.138 280.348 208.127 280.443 208.103C281.781 207.761 283.917 206.541 285.135 205.803C285.363 206.106 285.591 206.413 285.819 206.729L285.829 206.743L285.719 206.797L285.719 206.797C285.675 206.818 285.632 206.84 285.591 206.86L285.588 206.862C284.374 207.468 283.228 208.04 282.622 208.16C281.999 208.283 281.593 208.89 281.715 209.516C281.823 210.067 282.304 210.449 282.843 210.449C282.916 210.449 282.99 210.442 283.065 210.427C283.975 210.248 285.14 209.666 286.615 208.93C286.694 208.89 286.78 208.848 286.861 208.808C286.864 209.01 286.834 209.214 286.754 209.409C286.572 209.858 286.199 210.187 285.732 210.312C279.977 211.85 276.139 208.476 275.983 208.335L275.977 208.331C275.971 208.325 275.964 208.32 275.957 208.315C275.95 208.309 275.942 208.304 275.934 208.298L275.919 208.285C275.891 208.262 275.863 208.239 275.833 208.219C275.073 207.726 274.32 207.229 273.568 206.732C268.658 203.489 263.648 200.185 256.511 197.934C256.45 197.889 256.385 197.849 256.314 197.816C256.147 197.737 255.972 197.707 255.799 197.712C254.3 197.263 252.703 196.862 251 196.516C250.99 196.51 250.98 196.504 250.97 196.498L250.97 196.498C250.941 196.481 250.913 196.464 250.881 196.45C250.684 196.367 250.478 196.347 250.28 196.374C248.827 196.097 247.294 195.862 245.672 195.671C245.668 195.669 245.664 195.667 245.661 195.665C245.657 195.663 245.653 195.66 245.649 195.659C245.443 195.575 245.228 195.56 245.025 195.595C243.604 195.441 242.112 195.324 240.549 195.244C240.33 195.165 240.103 195.156 239.89 195.208C238.728 195.157 237.527 195.127 236.282 195.119C236.104 195.118 235.927 195.117 235.748 195.117C219.957 195.117 202.132 199.468 191.992 202.373C193.473 201.638 195.066 200.795 196.778 199.828C201.235 197.309 205.496 195.124 209.529 193.283C208.358 194.366 207.286 195.341 206.795 195.744C206.303 196.148 206.231 196.876 206.633 197.37C206.86 197.649 207.191 197.794 207.524 197.794C207.78 197.794 208.038 197.708 208.252 197.533C209.672 196.365 215.359 190.989 215.601 190.761C215.618 190.745 215.632 190.727 215.646 190.709C215.654 190.699 215.662 190.689 215.671 190.68C216.396 190.397 217.111 190.128 217.818 189.871C216.22 191.449 214.678 192.941 214.079 193.434C213.587 193.838 213.515 194.566 213.917 195.06C214.144 195.339 214.475 195.483 214.808 195.483C215.064 195.483 215.322 195.398 215.535 195.222C216.83 194.158 221.593 189.369 222.692 188.261C223.321 188.075 223.942 187.9 224.554 187.738C222.645 189.637 220.552 191.684 219.829 192.278C219.337 192.683 219.265 193.41 219.667 193.904C219.895 194.183 220.225 194.328 220.558 194.328C220.814 194.328 221.072 194.242 221.286 194.067C222.72 192.887 228.421 187.127 228.662 186.883C228.681 186.863 228.697 186.842 228.713 186.821C228.721 186.811 228.729 186.801 228.737 186.791C229.134 186.717 229.525 186.651 229.912 186.59C228.164 188.481 226.208 190.561 225.544 191.154C225.069 191.578 225.026 192.308 225.448 192.785C225.675 193.042 225.991 193.173 226.308 193.173C226.58 193.173 226.853 193.076 227.072 192.881C228.201 191.873 232.246 187.463 233.411 186.188C233.988 186.149 234.551 186.126 235.102 186.119C233.33 188.008 230.985 190.461 230.18 191.123C229.688 191.527 229.616 192.255 230.018 192.749C230.245 193.028 230.575 193.173 230.909 193.173C231.165 193.173 231.422 193.087 231.636 192.911C232.953 191.829 237.288 187.162 238.237 186.136C239.019 186.15 239.827 186.172 240.654 186.203C238.695 188.158 236.34 190.471 235.547 191.123C235.055 191.527 234.982 192.255 235.385 192.749C235.612 193.028 235.942 193.173 236.276 193.173C236.532 193.173 236.789 193.087 237.003 192.911C238.236 191.898 242.444 187.679 243.751 186.362C244.401 186.404 245.059 186.454 245.727 186.511C244.286 187.961 242.326 189.927 241.356 190.863C240.898 191.306 240.884 192.037 241.324 192.497C241.55 192.733 241.851 192.852 242.153 192.852C242.44 192.852 242.727 192.745 242.95 192.529C244.319 191.207 247.517 187.983 248.677 186.811C249.408 186.898 250.148 186.994 250.894 187.103C249.584 188.425 247.774 190.244 246.801 191.185C246.343 191.627 246.329 192.358 246.769 192.818C246.995 193.054 247.296 193.173 247.598 193.173C247.884 193.173 248.172 193.065 248.395 192.85C249.756 191.535 252.623 188.635 253.685 187.558C254.484 187.703 255.288 187.862 256.096 188.037C254.776 189.37 252.813 191.345 251.784 192.34C251.327 192.782 251.312 193.513 251.753 193.973C251.978 194.209 252.28 194.328 252.581 194.328C252.868 194.328 253.156 194.221 253.378 194.005C254.763 192.667 257.709 189.687 258.724 188.658C259.477 188.852 260.233 189.06 260.989 189.284C259.776 190.513 257.807 192.501 256.722 193.548C256.264 193.99 256.25 194.722 256.69 195.182C256.916 195.417 257.218 195.536 257.519 195.536C257.806 195.536 258.094 195.429 258.316 195.214C259.753 193.825 262.623 190.911 263.449 190.072C264.063 190.283 264.677 190.506 265.289 190.74ZM261.861 135.687C262.087 135.783 262.225 135.868 262.36 135.951C262.415 135.985 262.47 136.019 262.529 136.053C263.773 136.759 264.545 138.085 264.545 139.511V180.698C264.255 180.612 263.527 180.506 262.692 180.385C262.422 180.345 262.142 180.304 261.861 180.262V135.687ZM256.877 133.523C257.874 133.836 258.552 134.136 259.241 134.44L259.242 134.441C259.348 134.488 259.454 134.534 259.562 134.582L259.561 179.91L259.329 179.872C258.636 179.76 257.912 179.642 256.877 179.521V133.523ZM251.894 132.013C252.877 132.232 253.507 132.428 254.217 132.649L254.218 132.649C254.338 132.687 254.46 132.725 254.587 132.764L254.577 179.206L254.529 179.199C253.778 179.086 253.02 178.973 251.894 178.859V132.013ZM246.91 130.936C248.06 131.106 248.827 131.284 249.594 131.47V178.58C249.019 178.498 248.334 178.426 247.615 178.351L247.615 178.351L247.613 178.35C247.373 178.325 247.129 178.3 246.885 178.273C246.885 178.044 246.91 130.936 246.91 130.936ZM244.61 130.551C244.61 130.551 244.61 177.782 244.603 178.029L244.196 177.988C243.447 177.912 242.719 177.838 241.932 177.766L241.927 130.179C243.077 130.294 243.843 130.419 244.61 130.551ZM236.943 129.686C238.093 129.757 238.86 129.836 239.626 129.924L239.638 177.579C239.41 177.56 239.199 177.542 238.993 177.524L238.993 177.524C238.379 177.471 237.804 177.421 236.943 177.372V129.686ZM231.959 129.406C233.109 129.44 233.876 129.483 234.643 129.533V177.221C233.876 177.166 233.109 177.117 231.959 177.074V129.406ZM191.707 140.079C191.707 138.11 192.857 136.276 194.39 135.252V171.094C194.39 171.732 194.905 172.249 195.541 172.249C196.176 172.249 196.691 171.732 196.691 171.094V134.061C200.907 132.256 207.808 130.107 219.692 129.487V152.224C219.692 152.862 220.207 153.379 220.842 153.379C221.477 153.379 221.992 152.862 221.992 152.224V129.389L222.678 129.372C223.469 129.351 224.072 129.336 224.676 129.325V164.547C224.676 165.185 225.19 165.702 225.826 165.702C226.461 165.702 226.976 165.185 226.976 164.547V129.312C228.126 129.314 228.892 129.325 229.659 129.343V176.978C227.742 176.909 225.816 176.87 223.924 176.87C208.02 176.87 195.924 179.057 191.707 179.872V140.079ZM191.707 191.31C193.24 191.098 196.813 190.688 201.017 190.467C201.651 190.434 202.163 189.89 202.13 189.253C202.097 188.615 201.516 188.126 200.884 188.16C196.857 188.371 193.69 188.745 191.767 188.972L191.707 188.979V186.899C194.007 186.49 200.436 185.449 205.245 185.147C205.879 185.107 206.386 184.559 206.346 183.922C206.307 183.285 205.723 182.801 205.09 182.841C200.36 183.138 194.39 184.1 191.707 184.553V182.23C195.157 181.535 207.511 179.181 223.924 179.181C240.877 179.181 260.328 182.285 264.545 183.041V188.045C259.178 186.137 253.707 185.068 248.628 184.483C248.457 184.421 248.3 184.403 248.121 184.425C246.554 184.254 245.039 184.127 243.563 184.035C243.447 184.009 243.336 184.003 243.219 184.012C240.426 183.847 237.827 183.802 235.505 183.802C234.642 183.802 233.749 183.841 232.827 183.915C232.823 183.915 232.819 183.916 232.814 183.916L232.807 183.917C229.534 184.181 225.894 184.909 221.932 186.084C221.824 186.1 221.719 186.13 221.618 186.177C215.996 187.871 209.732 190.46 202.955 193.895C202.826 193.845 202.637 193.814 202.49 193.814C197.863 193.814 193.759 192.734 191.802 192.219L191.707 192.194V191.31ZM189.616 193.535C189.746 193.811 189.98 194.032 190.281 194.136C190.471 194.202 194.189 195.473 199.031 195.948C197.916 196.549 196.79 197.17 195.65 197.814C181.155 206.004 175.659 204.839 175.627 204.831C175.573 204.816 175.514 204.805 175.458 204.798C174.932 204.733 173.334 204.354 172.901 203.492C172.668 203.031 172.788 202.373 173.257 201.537C174.741 198.889 183.558 195.411 189.616 193.535ZM189.407 162.945V166.426C164.489 180.444 148.274 207.339 148.274 236.555C148.274 263.417 161.529 287.23 181.786 301.771C181.826 301.8 181.877 301.83 181.917 301.858C181.923 301.853 181.931 301.848 181.939 301.843C181.947 301.838 181.954 301.833 181.96 301.828C182.112 301.898 182.278 301.936 182.442 301.936C182.727 301.936 183.015 301.83 183.237 301.617C185.196 299.741 186.325 298.748 187.039 298.168C186.184 300.435 185.185 302.982 184.569 304.218C184.284 304.789 184.514 305.483 185.082 305.769C185.247 305.852 185.423 305.891 185.596 305.891C186.018 305.891 186.424 305.658 186.625 305.253C187.82 302.858 190.232 296.196 190.727 294.817C191.472 293.976 192.484 292.807 193.912 291.144C196.487 288.145 198.77 286.147 200.645 284.817L194.193 296.928C193.994 297.302 194.015 297.757 194.248 298.111C194.462 298.436 194.824 298.628 195.207 298.628C195.225 298.628 195.243 298.628 195.26 298.627C195.277 298.626 195.294 298.625 195.311 298.624L199.104 298.278L194.129 311.722C194.065 311.894 194.05 312.071 194.067 312.242C165.364 299.188 145.282 270.151 145.282 236.508C145.282 205.625 162.572 177.237 189.407 162.945ZM160.427 178.441C161.063 178.322 161.905 178.032 162.488 177.386C162.894 176.938 163.268 176.1 163.677 175.185C163.701 175.131 163.725 175.077 163.75 175.023C163.771 174.976 163.792 174.929 163.813 174.882L163.901 174.696C164.385 173.675 164.923 172.539 165.5 171.973C166.296 171.19 167.066 170.798 167.457 170.634C168.139 171.444 168.364 172.555 168.189 173.69C168.001 174.817 167.456 176.01 166.518 176.993C165.615 177.95 164.538 178.591 163.436 178.837C162.362 179.106 161.277 178.996 160.427 178.441ZM186.587 159.5C186.365 160.033 186.034 160.529 185.632 161.009C185.229 161.488 184.737 161.921 184.163 162.28C183.055 162.979 181.861 163.34 180.732 163.306C179.625 163.301 178.601 162.93 177.911 162.184C178.557 162.224 179.442 162.147 180.165 161.666C180.651 161.344 181.193 160.659 181.788 159.907L181.789 159.906C181.878 159.794 181.968 159.68 182.059 159.566C182.104 159.512 182.149 159.457 182.195 159.402L182.241 159.346C182.946 158.493 183.721 157.555 184.408 157.167C185.371 156.605 186.213 156.417 186.632 156.355C187.091 157.31 187.034 158.444 186.587 159.5ZM177.174 157.71C177.622 156.696 178.408 155.677 179.529 154.973C181.72 153.562 184.276 153.614 185.608 154.832C185.075 154.958 184.339 155.203 183.528 155.677C182.715 156.143 181.898 157.121 181.105 158.071L180.93 158.281L180.83 158.408C180.202 159.209 179.625 159.945 179.19 160.236C178.368 160.789 177.243 160.75 176.972 160.696C176.671 159.819 176.737 158.742 177.174 157.71ZM176.951 166.011C176.628 167.105 175.942 168.222 174.892 169.081C173.881 169.92 172.734 170.423 171.612 170.534C170.513 170.669 169.45 170.427 168.673 169.772C169.318 169.732 170.19 169.548 170.846 168.977C171.305 168.58 171.78 167.792 172.298 166.93L172.298 166.93C172.353 166.838 172.408 166.746 172.464 166.654L172.581 166.47C173.183 165.519 173.853 164.463 174.493 163.975C175.378 163.296 176.19 163.002 176.598 162.888C177.176 163.775 177.263 164.906 176.951 166.011ZM167.388 165.425C167.705 164.363 168.361 163.259 169.38 162.417C171.375 160.747 173.908 160.469 175.388 161.508C174.876 161.701 174.176 162.038 173.431 162.609C172.664 163.2 171.95 164.321 171.264 165.398L171.264 165.398L171.184 165.522L171.143 165.591L171.143 165.591C170.605 166.493 170.107 167.327 169.701 167.68C168.956 168.334 167.833 168.432 167.558 168.413C167.151 167.58 167.085 166.506 167.388 165.425ZM158.626 174.283C158.811 173.19 159.328 172.014 160.236 171.055C162.013 169.154 164.49 168.567 166.087 169.416C165.602 169.67 164.949 170.09 164.28 170.749C163.591 171.43 163.019 172.629 162.469 173.782L162.405 173.915L162.374 173.984C161.949 174.947 161.555 175.837 161.195 176.238C160.533 176.977 159.431 177.213 159.156 177.227C158.651 176.45 158.455 175.392 158.626 174.283ZM159.323 179.444C160.099 180.164 160.457 181.24 160.42 182.389C160.37 183.53 159.972 184.779 159.161 185.871C158.378 186.928 157.392 187.698 156.328 188.077C155.29 188.472 154.205 188.499 153.292 188.051C153.909 187.856 154.705 187.462 155.21 186.753C155.548 186.274 155.809 185.435 156.094 184.513C156.136 184.379 156.178 184.243 156.221 184.105L156.299 183.873C156.652 182.811 157.042 181.635 157.544 181.013C158.239 180.138 158.956 179.654 159.323 179.444ZM152.208 180.743C153.74 178.638 156.13 177.755 157.816 178.402C157.366 178.713 156.769 179.21 156.185 179.946C155.593 180.687 155.18 181.912 154.78 183.098L154.706 183.318L154.662 183.462C154.364 184.441 154.089 185.34 153.788 185.772C153.216 186.583 152.156 186.956 151.883 187.003C151.289 186.294 150.961 185.265 151 184.146C151.052 183.038 151.419 181.804 152.208 180.743ZM152.318 189.182C153.175 189.801 153.662 190.825 153.768 191.97C153.824 192.545 153.769 193.142 153.639 193.756C153.512 194.37 153.284 194.987 152.949 195.578C152.617 196.146 152.244 196.658 151.817 197.087C151.39 197.515 150.913 197.862 150.413 198.118C149.427 198.636 148.361 198.802 147.398 198.473C147.984 198.2 148.724 197.709 149.139 196.944C149.403 196.452 149.55 195.641 149.713 194.746C149.746 194.564 149.779 194.379 149.814 194.192C149.834 194.093 149.855 193.992 149.875 193.89L149.875 193.889C150.091 192.808 150.327 191.623 150.746 190.96C151.327 190.005 151.979 189.436 152.318 189.182ZM144.75 193.138C144.872 192.537 145.085 191.928 145.417 191.356C146.675 189.07 148.947 187.901 150.695 188.333C150.286 188.698 149.755 189.266 149.267 190.069C148.773 190.86 148.52 192.102 148.273 193.309L148.273 193.31C148.253 193.407 148.233 193.504 148.214 193.6C148.193 193.716 148.172 193.832 148.152 193.947C147.986 194.875 147.836 195.715 147.606 196.15C147.132 197.023 146.135 197.53 145.869 197.611C145.192 196.984 144.73 195.998 144.639 194.887C144.592 194.331 144.626 193.739 144.75 193.138ZM140.004 202.761C140.489 201.552 141.235 200.564 142.12 199.93C142.992 199.288 143.953 198.979 144.854 199.08C144.495 199.494 144.041 200.126 143.659 200.987C143.267 201.827 143.176 203.082 143.088 204.304C143.081 204.411 143.073 204.519 143.065 204.626C143.054 204.819 143.044 205.01 143.034 205.196C142.99 206.049 142.95 206.809 142.79 207.234C142.436 208.162 141.503 208.793 141.255 208.909C139.722 207.848 139.018 205.241 140.004 202.761ZM136.122 214.806C136.282 214.173 136.514 213.586 136.799 213.061C137.095 212.541 137.456 212.086 137.843 211.709C138.624 210.956 139.526 210.518 140.444 210.501C140.132 210.957 139.776 211.647 139.51 212.552C139.22 213.483 139.311 214.82 139.397 216.102L139.407 216.24C139.423 216.509 139.445 216.773 139.465 217.027C139.526 217.788 139.579 218.458 139.485 218.862C139.382 219.349 139.101 219.774 138.835 220.103C138.571 220.432 138.301 220.658 138.19 220.733C137.363 220.307 136.667 219.481 136.292 218.431C135.911 217.382 135.777 216.092 136.122 214.806ZM133.923 227.297C133.994 226.647 134.128 226.03 134.35 225.472C134.577 224.914 134.865 224.412 135.196 223.983C135.858 223.125 136.697 222.567 137.608 222.424C137.347 222.916 137.102 223.652 136.964 224.586C136.898 225.086 136.908 225.677 137 226.307C137.094 226.938 137.237 227.604 137.378 228.254C137.432 228.525 137.491 228.792 137.547 229.047L137.547 229.048C137.71 229.783 137.852 230.429 137.822 230.839C137.753 231.83 136.988 232.693 136.799 232.876C135.91 232.572 135.133 231.856 134.601 230.867C134.334 230.374 134.127 229.813 133.998 229.209C133.872 228.605 133.858 227.961 133.923 227.297ZM133.504 239.972C133.467 237.357 134.697 235.172 136.474 234.634C136.387 234.897 136.298 235.219 136.229 235.594C136.175 235.967 136.142 236.394 136.149 236.865C136.167 237.874 136.606 239.189 137.054 240.435L137.086 240.517C137.476 241.493 137.835 242.394 137.87 242.931C137.938 243.923 137.283 244.882 137.113 245.089C136.2 244.908 135.345 244.303 134.683 243.4C134.033 242.499 133.545 241.299 133.504 239.972ZM135.377 254.372C135.113 253.823 134.914 253.21 134.804 252.555C134.326 249.979 135.405 247.63 137.044 246.87C136.947 247.413 136.878 248.191 136.988 249.128C137.034 249.63 137.249 250.188 137.505 250.77C137.764 251.351 138.079 251.954 138.387 252.542L138.419 252.602C138.657 253.056 138.887 253.493 139.07 253.884C139.274 254.289 139.439 254.642 139.496 254.912C139.709 255.883 139.21 256.917 139.061 257.146C138.138 257.087 137.192 256.606 136.403 255.802C136.015 255.399 135.639 254.922 135.377 254.372ZM137.735 264.863C137.634 264.553 137.555 264.244 137.496 263.938C137.444 263.629 137.424 263.32 137.417 263.02C137.406 262.42 137.471 261.845 137.607 261.321C137.877 260.27 138.427 259.422 139.188 258.931C139.172 259.479 139.219 260.257 139.467 261.166C139.599 261.653 139.855 262.186 140.169 262.733C140.415 263.16 140.726 263.587 141.035 264.01C141.121 264.129 141.208 264.248 141.293 264.366L141.342 264.434C141.96 265.279 142.53 266.059 142.697 266.571C143.018 267.511 142.697 268.589 142.575 268.838C141.651 268.904 140.633 268.561 139.742 267.871C138.883 267.171 138.146 266.127 137.735 264.863ZM146.154 279.955C145.665 279.852 145.17 279.653 144.692 279.367C143.742 278.792 142.845 277.87 142.274 276.671C141.225 274.273 141.513 271.777 142.948 270.587C142.968 270.863 143.009 271.195 143.088 271.567C143.181 271.934 143.317 272.339 143.506 272.771C143.918 273.692 144.817 274.738 145.731 275.702L145.794 275.766C146.528 276.513 147.206 277.203 147.445 277.684C147.667 278.13 147.72 278.635 147.708 279.063C147.697 279.491 147.642 279.831 147.599 279.961C147.145 280.055 146.647 280.056 146.154 279.955ZM154.061 290.307C153.191 290.614 152.138 290.538 151.107 290.103C150.079 289.666 149.048 288.887 148.365 287.747C147.679 286.641 147.304 285.46 147.287 284.379C147.29 283.284 147.609 282.313 148.219 281.633C148.341 282.171 148.569 282.921 149.039 283.737C149.573 284.592 150.637 285.487 151.654 286.331L152.256 286.832C152.458 286.989 152.649 287.14 152.824 287.286C153.173 287.577 153.453 287.842 153.61 288.069C154.176 288.885 154.111 290.037 154.061 290.307ZM155.851 297.919C155.431 297.422 155.09 296.893 154.831 296.357C154.571 295.822 154.429 295.252 154.349 294.716C154.199 293.638 154.382 292.637 154.894 291.884C155.088 292.399 155.427 293.102 155.999 293.848C156.533 294.586 157.578 295.234 158.599 295.869L158.601 295.87C158.711 295.938 158.821 296.006 158.929 296.074L158.994 296.114C159.428 296.38 159.846 296.637 160.201 296.878C160.262 296.92 160.322 296.962 160.381 297.002L160.384 297.004C160.676 297.205 160.93 297.379 161.082 297.55C161.758 298.276 161.852 299.421 161.84 299.694C161.016 300.115 159.957 300.185 158.87 299.897C157.767 299.625 156.708 298.931 155.851 297.919Z" fill="#402F22"/>
<g clip-path="url(#clip0)">
<circle cx="403" cy="155.835" r="26" fill="white"/>
<line x1="452.833" y1="156.335" x2="429" y2="156.335" stroke="#402F22" stroke-dasharray="2.2 2.2"/>
<circle cx="453.5" cy="156.335" r="1.5" transform="rotate(-90 453.5 156.335)" fill="#402F22"/>
<ellipse cx="403" cy="155.917" rx="15.8889" ry="15.8889" transform="rotate(45 403 155.917)" stroke="#402F22" stroke-dasharray="2.2 2.2"/>
<ellipse cx="403" cy="155.835" rx="3.61111" ry="3.61111" fill="#402F22"/>
<ellipse cx="403" cy="155.917" rx="15.8889" ry="15.8889" transform="rotate(45 403 155.917)" stroke="#402F22" stroke-dasharray="2.2 2.2"/>
<ellipse cx="403" cy="155.835" rx="3.61111" ry="3.61111" fill="#402F22"/>
</g>
<g clip-path="url(#clip1)">
<circle r="26" transform="matrix(-1 2.18557e-08 2.18557e-08 1 56 155.835)" fill="white"/>
<line y1="-0.5" x2="23.8333" y2="-0.5" transform="matrix(1 0 0 -1 6.16699 155.835)" stroke="#402F22" stroke-dasharray="2.2 2.2"/>
<circle r="1.5" transform="matrix(0 -1 -1 0 5.5 156.335)" fill="#402F22"/>
<circle r="15.3889" transform="matrix(-0.707107 0.707107 0.707107 0.707107 56 155.917)" stroke="#402F22" stroke-dasharray="2.2 2.2"/>
<ellipse rx="3.61111" ry="3.61111" transform="matrix(-1 2.18557e-08 2.18557e-08 1 56.0002 155.835)" fill="#402F22"/>
<circle r="15.3889" transform="matrix(-0.707107 0.707107 0.707107 0.707107 56 155.917)" stroke="#402F22" stroke-dasharray="2.2 2.2"/>
<ellipse rx="3.61111" ry="3.61111" transform="matrix(-1 2.18557e-08 2.18557e-08 1 56.0002 155.835)" fill="#402F22"/>
</g>
<g clip-path="url(#clip2)">
<circle cx="407" cy="257.835" r="26" fill="white"/>
<line x1="456.833" y1="258.335" x2="433" y2="258.335" stroke="#402F22" stroke-dasharray="2.2 2.2"/>
<circle cx="457.5" cy="258.335" r="1.5" transform="rotate(-90 457.5 258.335)" fill="#402F22"/>
<ellipse cx="407" cy="257.917" rx="15.8889" ry="15.8889" transform="rotate(45 407 257.917)" stroke="#402F22" stroke-dasharray="2.2 2.2"/>
<ellipse cx="407" cy="257.835" rx="3.61111" ry="3.61111" fill="#402F22"/>
<ellipse cx="407" cy="257.917" rx="15.8889" ry="15.8889" transform="rotate(45 407 257.917)" stroke="#402F22" stroke-dasharray="2.2 2.2"/>
<ellipse cx="407" cy="257.835" rx="3.61111" ry="3.61111" fill="#402F22"/>
</g>
<g clip-path="url(#clip3)">
<circle r="26" transform="matrix(-1 2.18557e-08 2.18557e-08 1 52 257.835)" fill="white"/>
<line y1="-0.5" x2="23.8333" y2="-0.5" transform="matrix(1 0 0 -1 2.16699 257.835)" stroke="#402F22" stroke-dasharray="2.2 2.2"/>
<circle r="1.5" transform="matrix(0 -1 -1 0 1.5 258.335)" fill="#402F22"/>
<circle r="15.3889" transform="matrix(-0.707107 0.707107 0.707107 0.707107 52 257.917)" stroke="#402F22" stroke-dasharray="2.2 2.2"/>
<ellipse rx="3.61111" ry="3.61111" transform="matrix(-1 2.18557e-08 2.18557e-08 1 52.0002 257.835)" fill="#402F22"/>
<circle r="15.3889" transform="matrix(-0.707107 0.707107 0.707107 0.707107 52 257.917)" stroke="#402F22" stroke-dasharray="2.2 2.2"/>
<ellipse rx="3.61111" ry="3.61111" transform="matrix(-1 2.18557e-08 2.18557e-08 1 52.0002 257.835)" fill="#402F22"/>
</g>
<g clip-path="url(#clip4)">
<circle cx="288" cy="410" r="26" transform="rotate(90 288 410)" fill="white"/>
<line x1="287.5" y1="459.833" x2="287.5" y2="436" stroke="#402F22" stroke-dasharray="2.2 2.2"/>
<circle cx="287.5" cy="460.5" r="1.5" fill="#402F22"/>
<ellipse cx="287.918" cy="410" rx="15.8889" ry="15.8889" transform="rotate(135 287.918 410)" stroke="#402F22" stroke-dasharray="2.2 2.2"/>
<ellipse cx="288" cy="410" rx="3.61111" ry="3.61111" transform="rotate(90 288 410)" fill="#402F22"/>
<ellipse cx="287.918" cy="410" rx="15.8889" ry="15.8889" transform="rotate(135 287.918 410)" stroke="#402F22" stroke-dasharray="2.2 2.2"/>
<ellipse cx="288" cy="410" rx="3.61111" ry="3.61111" transform="rotate(90 288 410)" fill="#402F22"/>
</g>
<g clip-path="url(#clip5)">
<circle cx="184" cy="414" r="26" transform="rotate(90 184 414)" fill="white"/>
<line x1="183.5" y1="463.833" x2="183.5" y2="440" stroke="#402F22" stroke-dasharray="2.2 2.2"/>
<circle cx="183.5" cy="464.5" r="1.5" fill="#402F22"/>
<ellipse cx="183.918" cy="414" rx="15.8889" ry="15.8889" transform="rotate(135 183.918 414)" stroke="#402F22" stroke-dasharray="2.2 2.2"/>
<ellipse cx="184" cy="414" rx="3.61111" ry="3.61111" transform="rotate(90 184 414)" fill="#402F22"/>
<ellipse cx="183.918" cy="414" rx="15.8889" ry="15.8889" transform="rotate(135 183.918 414)" stroke="#402F22" stroke-dasharray="2.2 2.2"/>
<ellipse cx="184" cy="414" rx="3.61111" ry="3.61111" transform="rotate(90 184 414)" fill="#402F22"/>
</g>
<g clip-path="url(#clip6)">
<circle r="26" transform="matrix(2.18557e-08 -1 -1 -2.18557e-08 228 52)" fill="white"/>
<line y1="-0.5" x2="23.8333" y2="-0.5" transform="matrix(-4.37114e-08 1 1 4.37114e-08 228 2.16663)" stroke="#402F22" stroke-dasharray="2.2 2.2"/>
<circle r="1.5" transform="matrix(1 4.37114e-08 4.37114e-08 -1 227.5 1.5)" fill="#402F22"/>
<circle r="15.3889" transform="matrix(-0.707107 -0.707107 -0.707107 0.707107 227.918 52)" stroke="#402F22" stroke-dasharray="2.2 2.2"/>
<ellipse rx="3.61111" ry="3.61111" transform="matrix(2.18557e-08 -1 -1 -2.18557e-08 228 52)" fill="#402F22"/>
<circle r="15.3889" transform="matrix(-0.707107 -0.707107 -0.707107 0.707107 227.918 52)" stroke="#402F22" stroke-dasharray="2.2 2.2"/>
<ellipse rx="3.61111" ry="3.61111" transform="matrix(2.18557e-08 -1 -1 -2.18557e-08 228 52)" fill="#402F22"/>
</g>
<g clip-path="url(#clip7)">
<ellipse cx="368.021" cy="356.021" rx="26.0614" ry="26.0613" transform="rotate(45 368.021 356.021)" fill="white"/>
<line x1="402.988" y1="391.695" x2="386.096" y2="374.803" stroke="#402F22" stroke-dasharray="2.2 2.2"/>
<ellipse cx="403.46" cy="392.168" rx="1.50354" ry="1.50354" transform="rotate(-45 403.46 392.168)" fill="#402F22"/>
<circle cx="367.964" cy="356.078" r="15.4264" transform="rotate(90 367.964 356.078)" stroke="#402F22" stroke-dasharray="2.2 2.2"/>
<ellipse cx="368.021" cy="356.021" rx="3.61963" ry="3.61963" transform="rotate(45 368.021 356.021)" fill="#402F22"/>
<circle cx="367.964" cy="356.078" r="15.4264" transform="rotate(90 367.964 356.078)" stroke="#402F22" stroke-dasharray="2.2 2.2"/>
<ellipse cx="368.021" cy="356.021" rx="3.61963" ry="3.61963" transform="rotate(45 368.021 356.021)" fill="#402F22"/>
</g>
<g clip-path="url(#clip8)">
<ellipse rx="26.0614" ry="26.0613" transform="matrix(-0.707107 0.707107 0.707107 0.707107 90.9785 356.021)" fill="white"/>
<line y1="-0.5" x2="23.8896" y2="-0.5" transform="matrix(0.707107 -0.707107 -0.707107 -0.707107 55.6582 391.342)" stroke="#402F22" stroke-dasharray="2.2 2.2"/>
<ellipse rx="1.50354" ry="1.50354" transform="matrix(-0.707107 -0.707107 -0.707107 0.707107 55.5397 392.168)" fill="#402F22"/>
<circle r="15.4264" transform="matrix(8.42937e-08 1 1 8.42937e-08 91.0358 356.078)" stroke="#402F22" stroke-dasharray="2.2 2.2"/>
<ellipse rx="3.61963" ry="3.61963" transform="matrix(-0.707107 0.707107 0.707107 0.707107 90.9785 356.021)" fill="#402F22"/>
<circle r="15.4264" transform="matrix(8.42937e-08 1 1 8.42937e-08 91.0358 356.078)" stroke="#402F22" stroke-dasharray="2.2 2.2"/>
<ellipse rx="3.61963" ry="3.61963" transform="matrix(-0.707107 0.707107 0.707107 0.707107 90.9785 356.021)" fill="#402F22"/>
</g>
<g clip-path="url(#clip9)">
<ellipse rx="26.0614" ry="26.0613" transform="matrix(0.707107 -0.707107 -0.707107 -0.707107 328.021 75.9791)" fill="white"/>
<line y1="-0.5" x2="23.8896" y2="-0.5" transform="matrix(-0.707107 0.707107 0.707107 0.707107 363.342 40.6584)" stroke="#402F22" stroke-dasharray="2.2 2.2"/>
<ellipse rx="1.50354" ry="1.50354" transform="matrix(0.707107 0.707107 0.707107 -0.707107 363.46 39.8315)" fill="#402F22"/>
<circle r="15.4264" transform="matrix(0 -1 -1 -1.68587e-07 327.964 75.9215)" stroke="#402F22" stroke-dasharray="2.2 2.2"/>
<ellipse rx="3.61963" ry="3.61963" transform="matrix(0.707107 -0.707107 -0.707107 -0.707107 328.021 75.9792)" fill="#402F22"/>
<circle r="15.4264" transform="matrix(0 -1 -1 -1.68587e-07 327.964 75.9215)" stroke="#402F22" stroke-dasharray="2.2 2.2"/>
<ellipse rx="3.61963" ry="3.61963" transform="matrix(0.707107 -0.707107 -0.707107 -0.707107 328.021 75.9792)" fill="#402F22"/>
</g>
<g clip-path="url(#clip10)">
<ellipse cx="130.979" cy="75.9791" rx="26.0614" ry="26.0613" transform="rotate(-135 130.979 75.9791)" fill="white"/>
<line x1="96.0118" y1="40.3049" x2="112.904" y2="57.1974" stroke="#402F22" stroke-dasharray="2.2 2.2"/>
<ellipse cx="95.5397" cy="39.8315" rx="1.50354" ry="1.50354" transform="rotate(135 95.5397 39.8315)" fill="#402F22"/>
<circle cx="131.036" cy="75.9215" r="15.4264" transform="rotate(-90 131.036 75.9215)" stroke="#402F22" stroke-dasharray="2.2 2.2"/>
<ellipse cx="130.979" cy="75.9792" rx="3.61963" ry="3.61963" transform="rotate(-135 130.979 75.9792)" fill="#402F22"/>
<circle cx="131.036" cy="75.9215" r="15.4264" transform="rotate(-90 131.036 75.9215)" stroke="#402F22" stroke-dasharray="2.2 2.2"/>
<ellipse cx="130.979" cy="75.9792" rx="3.61963" ry="3.61963" transform="rotate(-135 130.979 75.9792)" fill="#402F22"/>
</g>
<defs>
<filter id="filter0_d" x="90" y="87" width="276.119" height="287.974" filterUnits="userSpaceOnUse" color-interpolation-filters="sRGB">
<feFlood flood-opacity="0" result="BackgroundImageFix"/>
<feColorMatrix in="SourceAlpha" type="matrix" values="0 0 0 0 0 0 0 0 0 0 0 0 0 0 0 0 0 0 127 0"/>
<feOffset/>
<feGaussianBlur stdDeviation="20"/>
<feColorMatrix type="matrix" values="0 0 0 0 0.129412 0 0 0 0 0.356863 0 0 0 0 0.2 0 0 0 0.15 0"/>
<feBlend mode="normal" in2="BackgroundImageFix" result="effect1_dropShadow"/>
<feBlend mode="normal" in="SourceGraphic" in2="effect1_dropShadow" result="shape"/>
</filter>
<clipPath id="clip0">
<rect width="78" height="52" fill="white" transform="translate(377 129.835)"/>
</clipPath>
<clipPath id="clip1">
<rect width="78" height="52" fill="white" transform="matrix(-1 0 0 1 82 129.835)"/>
</clipPath>
<clipPath id="clip2">
<rect width="78" height="52" fill="white" transform="translate(381 231.835)"/>
</clipPath>
<clipPath id="clip3">
<rect width="78" height="52" fill="white" transform="matrix(-1 0 0 1 78 231.835)"/>
</clipPath>
<clipPath id="clip4">
<rect width="78" height="52" fill="white" transform="translate(314 384) rotate(90)"/>
</clipPath>
<clipPath id="clip5">
<rect width="78" height="52" fill="white" transform="translate(210 388) rotate(90)"/>
</clipPath>
<clipPath id="clip6">
<rect width="78" height="52" fill="white" transform="matrix(4.37114e-08 -1 -1 -4.37114e-08 254 78)"/>
</clipPath>
<clipPath id="clip7">
<rect width="78.1841" height="52.1227" fill="white" transform="translate(368.021 319.165) rotate(45)"/>
</clipPath>
<clipPath id="clip8">
<rect width="78.1841" height="52.1227" fill="white" transform="matrix(-0.707107 0.707107 0.707107 0.707107 90.9785 319.165)"/>
</clipPath>
<clipPath id="clip9">
<rect width="78.1841" height="52.1227" fill="white" transform="matrix(0.707107 -0.707107 -0.707107 -0.707107 328.021 112.835)"/>
</clipPath>
<clipPath id="clip10">
<rect width="78.1841" height="52.1227" fill="white" transform="translate(130.979 112.835) rotate(-135)"/>
</clipPath>
</defs>
</svg>
