<svg width="10" height="10" viewBox="0 0 10 10" fill="none" xmlns="http://www.w3.org/2000/svg">
<g clip-path="url(#clip0)">
<path d="M4.14145 5.85915C3.18696 4.90467 2.97145 3.95019 2.92283 3.56777C2.90924 3.46203 2.94563 3.35599 3.02128 3.28087L3.79369 2.50881C3.90731 2.39525 3.92748 2.21828 3.84231 2.08208L2.61248 0.172426C2.51826 0.0216067 2.3248 -0.0328254 2.16576 0.0467363L0.191447 0.976564C0.0628369 1.03989 -0.0128101 1.17654 0.00179224 1.31915C0.105241 2.30191 0.533689 4.71777 2.90783 7.09208C5.28196 9.46639 7.69748 9.89467 8.68076 9.99812C8.82337 10.0127 8.96002 9.93707 9.02334 9.80846L9.95317 7.83415C10.0324 7.67545 9.97836 7.48251 9.82817 7.38812L7.91852 6.15863C7.78239 6.07338 7.60543 6.0934 7.49179 6.20691L6.71972 6.97932C6.64461 7.05497 6.53857 7.09136 6.43283 7.07777C6.05041 7.02915 5.09593 6.81363 4.14145 5.85915Z" fill="#402F22"/>
<path d="M7.93114 5.34481C7.74069 5.34481 7.58631 5.19043 7.58631 4.99998C7.58469 3.57233 6.42775 2.41539 5.0001 2.41378C4.80966 2.41378 4.65527 2.25939 4.65527 2.06895C4.65527 1.87851 4.80966 1.72412 5.0001 1.72412C6.80848 1.72612 8.27397 3.1916 8.27596 4.99998C8.27596 5.19043 8.12158 5.34481 7.93114 5.34481Z" fill="#402F22"/>
<path d="M9.65527 5.34483C9.46483 5.34483 9.31045 5.19044 9.31045 5C9.30779 2.62057 7.37954 0.692316 5.0001 0.689655C4.80966 0.689655 4.65527 0.535271 4.65527 0.344828C4.65527 0.154385 4.80966 0 5.0001 0C7.76026 0.00304067 9.99706 2.23984 10.0001 5C10.0001 5.09145 9.96377 5.17916 9.8991 5.24383C9.83444 5.3085 9.74673 5.34483 9.65527 5.34483Z" fill="#402F22"/>
</g>
<defs>
<clipPath id="clip0">
<rect width="10" height="10" fill="white"/>
</clipPath>
</defs>
</svg>
