<svg width="12" height="12" viewBox="0 0 12 12" fill="none" xmlns="http://www.w3.org/2000/svg">
<path d="M5.72349 7.07019C5.80359 7.15029 5.89587 7.19026 6.00006 7.19026C6.10426 7.19026 6.19637 7.15034 6.27643 7.07019L11.8801 1.46677C11.9602 1.38663 12 1.29439 12 1.1902C12 1.086 11.9599 0.993728 11.8801 0.913624L11.2789 0.312295C11.1988 0.232149 11.1066 0.192139 11.0022 0.192139C10.8982 0.192139 10.8059 0.232149 10.7258 0.312295L6.00006 5.03789L1.27451 0.312295C1.19436 0.232149 1.10213 0.192139 0.997933 0.192139C0.893696 0.192139 0.801463 0.232149 0.721359 0.312295L0.120283 0.913624C0.04001 0.993728 0 1.08583 0 1.1902C0 1.29456 0.0401363 1.38667 0.120283 1.46677L5.72349 7.07019Z" fill="white"/>
<path d="M11.2789 4.92961C11.1988 4.84946 11.1066 4.80945 11.0022 4.80945C10.8982 4.80945 10.8059 4.84946 10.7258 4.92961L6.00006 9.65517L1.27451 4.92948C1.19436 4.84934 1.10213 4.80933 0.997933 4.80933C0.893696 4.80933 0.801463 4.84934 0.721359 4.92948L0.120283 5.53077C0.04001 5.61092 0 5.70315 0 5.8073C0 5.9115 0.0401363 6.00377 0.120283 6.084L5.72349 11.6873C5.80359 11.7675 5.89587 11.8075 6.00006 11.8075C6.10426 11.8075 6.19637 11.7675 6.27643 11.6873L11.8801 6.084C11.9602 6.00386 12 5.91162 12 5.80751C12 5.70332 11.9599 5.61121 11.8801 5.53094L11.2789 4.92961Z" fill="white"/>
</svg>
