<?xml version="1.0" encoding="utf-8"?><svg xmlns="http://www.w3.org/2000/svg" xmlns:xlink="http://www.w3.org/1999/xlink"><symbol viewBox="0 0 103 15" fill="none" id="lemon" xmlns="http://www.w3.org/2000/svg"><path d="M32.134 3.77v8.19h-2.547v-.769a3.194 3.194 0 0 1-1.15.774c-.437.173-.91.249-1.382.224-2.225 0-4.055-1.886-4.055-4.324 0-2.439 1.835-4.324 4.055-4.324.473-.025.945.05 1.383.223.438.173.83.437 1.15.774V3.77h2.546zm-2.547 4.095a1.89 1.89 0 0 0-.124-.776 1.943 1.943 0 0 0-.43-.666 2.026 2.026 0 0 0-.669-.449 2.086 2.086 0 0 0-1.594 0c-.252.104-.48.257-.668.449a1.942 1.942 0 0 0-.431.666 1.89 1.89 0 0 0-.124.776 1.89 1.89 0 0 0 .124.776c.095.248.242.474.43.666.19.192.417.344.669.448a2.086 2.086 0 0 0 1.594 0c.252-.104.48-.256.668-.448.19-.192.336-.418.431-.666a1.89 1.89 0 0 0 .124-.776zM39.621 3.603V6.39c-1.053-.162-2.547.244-2.547 1.866v3.704h-2.547V3.77h2.547v1.48c.183-.504.53-.937.989-1.234a2.621 2.621 0 0 1 1.558-.413zM44.828 6.128v2.901c0 .707.628.769 1.75.707v2.229c-3.328.329-4.297-.64-4.297-2.936V6.128h-1.375V3.77h1.36V2.21l2.562-.735V3.77h1.75v2.358h-1.75zM53.473 0h2.547v11.96h-2.547V0zM62.724 9.994c.301.009.602-.041.882-.148.28-.107.536-.268.75-.473l2.032 1.126c-.423.556-.982 1.001-1.628 1.296a4.442 4.442 0 0 1-2.07.394c-2.904 0-4.704-1.885-4.704-4.324a4.068 4.068 0 0 1 .308-1.683c.221-.535.553-1.02.977-1.425a4.37 4.37 0 0 1 1.484-.932 4.493 4.493 0 0 1 1.746-.284c2.473 0 4.313 1.852 4.313 4.324 0 .33-.034.66-.104.983h-6.023c.321.85 1.102 1.146 2.037 1.146zm1.563-2.983a1.85 1.85 0 0 0-.694-.933 1.96 1.96 0 0 0-1.131-.358 1.96 1.96 0 0 0-1.131.358 1.85 1.85 0 0 0-.694.933h3.65zM81.52 6.93v5.03h-2.567V7.159c0-.821-.405-1.346-1.221-1.346-.816 0-1.326.573-1.326 1.541v4.62H73.86V7.16c0-.821-.405-1.346-1.221-1.346-.816 0-1.326.573-1.326 1.541v4.62h-2.546V3.77h2.546v.754c.264-.334.61-.599 1.008-.77a2.69 2.69 0 0 1 1.267-.213c.437-.02.871.069 1.261.259.39.19.722.474.965.824a2.777 2.777 0 0 1 1.09-.85c.433-.19.909-.27 1.382-.233 1.959 0 3.235 1.341 3.235 3.389zM83.367 7.865a4.235 4.235 0 0 1 .75-2.418 4.468 4.468 0 0 1 2.015-1.608 4.651 4.651 0 0 1 2.601-.255 4.554 4.554 0 0 1 2.31 1.184 4.299 4.299 0 0 1 1.237 2.224 4.202 4.202 0 0 1-.253 2.511 4.379 4.379 0 0 1-1.657 1.953 4.616 4.616 0 0 1-2.502.733 4.591 4.591 0 0 1-1.726-.316 4.468 4.468 0 0 1-1.464-.935 4.29 4.29 0 0 1-.976-1.41 4.164 4.164 0 0 1-.335-1.663zm6.43 0c0-.5-.207-.98-.573-1.333a1.99 1.99 0 0 0-1.381-.552 1.99 1.99 0 0 0-1.382.552 1.852 1.852 0 0 0-.572 1.333c0 .5.206.98.573 1.333a1.99 1.99 0 0 0 1.38.552 1.99 1.99 0 0 0 1.382-.552c.366-.354.572-.833.572-1.333zM102.482 6.93v5.03h-2.547V7.292a1.306 1.306 0 0 0-.068-.58 1.342 1.342 0 0 0-.315-.497 1.404 1.404 0 0 0-.503-.324 1.446 1.446 0 0 0-.598-.088c-.934 0-1.577.525-1.577 1.69v4.471h-2.542V3.77h2.547v.768c.294-.34.668-.607 1.09-.78.422-.173.88-.248 1.338-.217 1.716 0 3.175 1.179 3.175 3.388z" fill="#333"/><path d="M12.457.954H7.284a7.42 7.42 0 0 0-5.143 2.052A6.909 6.909 0 0 0 0 7.965v4.992c.001.541.225 1.06.621 1.443.397.383.935.598 1.496.6h5.167c.958 0 1.906-.181 2.79-.535a7.308 7.308 0 0 0 2.366-1.524 7.018 7.018 0 0 0 1.58-2.283 6.816 6.816 0 0 0 .554-2.693V2.978a2.013 2.013 0 0 0-.628-1.431 2.161 2.161 0 0 0-1.489-.593z" fill="#F8E015"/></symbol></svg>