<svg width="965" height="575" viewBox="0 0 965 575" fill="none" xmlns="http://www.w3.org/2000/svg">
<line y1="-0.5" x2="43.0833" y2="-0.5" transform="matrix(4.37114e-08 1 1 -4.37114e-08 269.615 4.91699)" stroke="#402F22" stroke-dasharray="2.2 2.2"/>
<ellipse rx="3" ry="3" transform="matrix(1 -4.37114e-08 -4.37114e-08 -1 269 3)" fill="#402F22"/>
<line x1="269.115" y1="486.85" x2="269.115" y2="443.766" stroke="#402F22" stroke-dasharray="2.2 2.2"/>
<line x1="56" y1="328.965" x2="99.0833" y2="328.965" stroke="#402F22" stroke-dasharray="2.2 2.2"/>
<ellipse cx="269" cy="488.767" rx="3" ry="3" fill="#402F22"/>
<line y1="-0.5" x2="43.0833" y2="-0.5" transform="matrix(-1 0 0 1 810.083 158.615)" stroke="#402F22" stroke-dasharray="2.2 2.2"/>
<ellipse rx="3" ry="3" transform="matrix(0 1 1 0 812 158)" fill="#402F22"/>
<ellipse rx="3" ry="3" transform="matrix(0 1 1 0 104 329)" fill="#402F22"/>
<line y1="-0.5" x2="43.0833" y2="-0.5" transform="matrix(4.37114e-08 1 1 -4.37114e-08 557.615 12.917)" stroke="#402F22" stroke-dasharray="2.2 2.2"/>
<ellipse rx="3" ry="3" transform="matrix(1 -4.37114e-08 -4.37114e-08 -1 557 11)" fill="#402F22"/>
<line x1="557.115" y1="478.85" x2="557.115" y2="435.766" stroke="#402F22" stroke-dasharray="2.2 2.2"/>
<ellipse cx="557" cy="480.767" rx="3" ry="3" fill="#402F22"/>
<path d="M306.56 82.5385H116.093C112.305 82.5385 109.329 79.56 109.329 75.7692C109.329 71.9785 112.305 69 116.093 69H306.425C306.47 69 306.515 69.0004 306.56 69.0013C306.605 69.0004 306.65 69 306.695 69H483.5C483.545 69 483.59 69.0004 483.635 69.0013C483.68 69.0004 483.725 69 483.771 69H660.575C661.048 69 661.509 69.0465 661.953 69.1353H667.88C719.149 69.1353 760.949 110.292 760.949 160.926C760.949 211.289 719.149 252.446 667.88 252.446H660.62L660.575 252.446H483.771L483.736 252.446L483.702 252.446C483.68 252.446 483.657 252.446 483.635 252.446H306.695C306.673 252.446 306.65 252.446 306.628 252.446L306.599 252.446L306.56 252.446H129.62C128.946 252.446 128.298 252.352 127.687 252.175H119.069C75.2401 252.175 39.5275 287.375 39.5275 330.563C39.5275 373.751 75.2401 408.951 119.069 408.951H129.578L129.62 408.951H306.425C306.47 408.951 306.515 408.951 306.56 408.952C306.605 408.951 306.65 408.951 306.695 408.951H483.5C483.55 408.951 483.599 408.951 483.648 408.952C483.689 408.952 483.73 408.951 483.771 408.951H674.103C677.89 408.951 680.866 411.93 680.866 415.72C680.866 419.511 677.89 422.49 674.103 422.49H483.771C483.739 422.49 483.708 422.489 483.677 422.489C483.663 422.489 483.649 422.489 483.635 422.489H306.695C306.673 422.489 306.65 422.489 306.628 422.489L306.609 422.489L306.56 422.489H129.62C128.946 422.489 128.298 422.395 127.688 422.218H119.069C67.8 422.218 26 381.062 26 330.428C26 280.065 67.8 238.908 119.069 238.908H306.425C306.47 238.908 306.515 238.908 306.56 238.909C306.585 238.909 306.61 238.908 306.636 238.908L306.695 238.908H483.5C483.545 238.908 483.59 238.908 483.635 238.909C483.68 238.908 483.725 238.908 483.771 238.908H660.575C661.249 238.908 661.897 239.002 662.508 239.178H667.88C711.709 239.178 747.422 203.978 747.422 160.791C747.422 117.603 711.709 82.403 667.88 82.403H661.927C661.491 82.4917 661.039 82.5385 660.575 82.5385H483.771C483.747 82.5385 483.724 82.5384 483.701 82.5381L483.672 82.5384L483.635 82.5385H306.695C306.673 82.5385 306.65 82.5384 306.627 82.5381L306.595 82.5384L306.56 82.5385Z" fill="#F5F5F4"/>
<circle r="36.2332" transform="matrix(1 -2.18557e-08 -2.18557e-08 -1 269.088 73.0878)" fill="white"/>
<circle r="28.1698" transform="matrix(0.707107 -0.707107 -0.707107 -0.707107 269.383 73.3833)" fill="#F5F5F4" stroke="#402F22" stroke-width="0.770919" stroke-dasharray="1.7 1.7"/>
<path d="M264.711 68.7969C264.508 68.7969 264.315 68.862 264.133 68.9922C263.956 69.1225 263.779 69.3412 263.602 69.6485C263.424 69.9558 263.281 70.4376 263.172 71.0938C263.068 71.7501 263.016 72.5417 263.016 73.4688C263.016 76.2188 263.565 77.5964 264.664 77.6016C264.758 77.6016 264.857 77.586 264.961 77.5547C265.07 77.5235 265.198 77.4636 265.344 77.3751C265.49 77.2813 265.628 77.1303 265.758 76.9219C265.893 76.7136 266.003 76.4532 266.086 76.1407C266.268 75.4792 266.359 74.3829 266.359 72.8516C266.359 70.8568 266.049 69.5964 265.43 69.0704C265.227 68.8881 264.987 68.7969 264.711 68.7969ZM264.648 78.1563C264.013 78.1563 263.471 77.9324 263.023 77.4844C262.586 77.0521 262.242 76.461 261.992 75.711C261.747 74.961 261.625 74.1563 261.625 73.2969C261.625 71.7813 261.93 70.56 262.539 69.6329C263.154 68.7058 263.878 68.2422 264.711 68.2422C265.492 68.2422 266.143 68.5886 266.664 69.2813C267.388 70.2396 267.75 71.5287 267.75 73.1485C267.75 74.0339 267.648 74.8204 267.445 75.5079C267.242 76.1902 266.979 76.7162 266.656 77.086C266.333 77.4506 266 77.7214 265.656 77.8985C265.312 78.0704 264.977 78.1563 264.648 78.1563ZM273.047 76.0469C273.047 76.6876 273.128 77.086 273.289 77.2422C273.456 77.3933 273.839 77.4818 274.438 77.5079C274.49 77.56 274.516 77.6511 274.516 77.7813C274.516 77.9063 274.49 77.9896 274.438 78.0313C273.37 78.0105 272.719 78.0001 272.484 78.0001C272.047 78.0001 271.305 78.0105 270.258 78.0313C270.216 77.9896 270.195 77.9063 270.195 77.7813C270.195 77.6511 270.216 77.56 270.258 77.5079C270.878 77.487 271.292 77.3933 271.5 77.2266C271.708 77.06 271.812 76.6667 271.812 76.0469V70.8282C271.812 70.2084 271.706 69.9011 271.492 69.9063C271.206 69.9063 270.742 70.0391 270.102 70.3047C269.971 70.2214 269.891 70.0782 269.859 69.8751C271.354 69.1824 272.401 68.6485 273 68.2735C273.062 68.2735 273.094 68.2995 273.094 68.3516C273.062 68.5964 273.047 69.31 273.047 70.4922V76.0469Z" fill="#404040"/>
<circle cx="269.088" cy="418.679" r="36.2332" fill="white"/>
<ellipse cx="269.383" cy="418.383" rx="28.5553" ry="28.5553" transform="rotate(45 269.383 418.383)" fill="#F5F5F4" stroke="#402F22" stroke-width="0.770919" stroke-dasharray="1.7 1.7"/>
<path d="M264.711 413.29C264.508 413.29 264.315 413.356 264.133 413.486C263.956 413.616 263.779 413.835 263.602 414.142C263.424 414.449 263.281 414.931 263.172 415.587C263.068 416.244 263.016 417.035 263.016 417.962C263.016 420.712 263.565 422.09 264.664 422.095C264.758 422.095 264.857 422.08 264.961 422.048C265.07 422.017 265.198 421.957 265.344 421.869C265.49 421.775 265.628 421.624 265.758 421.415C265.893 421.207 266.003 420.947 266.086 420.634C266.268 419.973 266.359 418.876 266.359 417.345C266.359 415.35 266.049 414.09 265.43 413.564C265.227 413.382 264.987 413.29 264.711 413.29ZM264.648 422.65C264.013 422.65 263.471 422.426 263.023 421.978C262.586 421.546 262.242 420.955 261.992 420.205C261.747 419.455 261.625 418.65 261.625 417.79C261.625 416.275 261.93 415.054 262.539 414.126C263.154 413.199 263.878 412.736 264.711 412.736C265.492 412.736 266.143 413.082 266.664 413.775C267.388 414.733 267.75 416.022 267.75 417.642C267.75 418.527 267.648 419.314 267.445 420.001C267.242 420.684 266.979 421.21 266.656 421.58C266.333 421.944 266 422.215 265.656 422.392C265.312 422.564 264.977 422.65 264.648 422.65ZM270.602 417.58C270.513 418.007 270.469 418.423 270.469 418.83C270.469 420.09 270.641 420.952 270.984 421.415C271.333 421.879 271.802 422.111 272.391 422.111C272.807 422.111 273.154 421.892 273.43 421.455C273.706 421.017 273.844 420.382 273.844 419.548C273.844 419.314 273.815 419.077 273.758 418.837C273.701 418.598 273.607 418.35 273.477 418.095C273.352 417.84 273.154 417.629 272.883 417.462C272.617 417.296 272.297 417.212 271.922 417.212C271.417 417.212 270.977 417.335 270.602 417.58ZM270.75 417.001C271.255 416.772 271.758 416.655 272.258 416.65C273.273 416.65 274.013 416.895 274.477 417.384C274.94 417.869 275.172 418.494 275.172 419.259C275.172 420.082 274.917 420.858 274.406 421.587C273.896 422.311 273.164 422.673 272.211 422.673C271.857 422.673 271.521 422.619 271.203 422.509C270.885 422.405 270.56 422.223 270.227 421.962C269.898 421.697 269.635 421.293 269.438 420.751C269.24 420.205 269.141 419.548 269.141 418.783C269.141 417.356 269.638 416.064 270.633 414.908C271.518 413.871 272.685 413.142 274.133 412.72C274.263 412.804 274.328 412.942 274.328 413.134C273.344 413.504 272.562 414.033 271.984 414.72C271.411 415.408 271 416.168 270.75 417.001Z" fill="#404040"/>
<circle r="36.2332" transform="matrix(1 -2.18557e-08 -2.18557e-08 -1 558.088 73.0878)" fill="white"/>
<circle r="28.1698" transform="matrix(0.707107 -0.707107 -0.707107 -0.707107 558.383 73.3833)" fill="#F5F5F4" stroke="#402F22" stroke-width="0.770919" stroke-dasharray="1.7 1.7"/>
<path d="M553.711 68.7969C553.508 68.7969 553.315 68.862 553.133 68.9922C552.956 69.1225 552.779 69.3412 552.602 69.6485C552.424 69.9558 552.281 70.4376 552.172 71.0938C552.068 71.7501 552.016 72.5417 552.016 73.4688C552.016 76.2188 552.565 77.5964 553.664 77.6016C553.758 77.6016 553.857 77.586 553.961 77.5547C554.07 77.5235 554.198 77.4636 554.344 77.3751C554.49 77.2813 554.628 77.1303 554.758 76.9219C554.893 76.7136 555.003 76.4532 555.086 76.1407C555.268 75.4792 555.359 74.3829 555.359 72.8516C555.359 70.8568 555.049 69.5964 554.43 69.0704C554.227 68.8881 553.987 68.7969 553.711 68.7969ZM553.648 78.1563C553.013 78.1563 552.471 77.9324 552.023 77.4844C551.586 77.0521 551.242 76.461 550.992 75.711C550.747 74.961 550.625 74.1563 550.625 73.2969C550.625 71.7813 550.93 70.56 551.539 69.6329C552.154 68.7058 552.878 68.2422 553.711 68.2422C554.492 68.2422 555.143 68.5886 555.664 69.2813C556.388 70.2396 556.75 71.5287 556.75 73.1485C556.75 74.0339 556.648 74.8204 556.445 75.5079C556.242 76.1902 555.979 76.7162 555.656 77.086C555.333 77.4506 555 77.7214 554.656 77.8985C554.312 78.0704 553.977 78.1563 553.648 78.1563ZM558.414 70.5157C558.414 69.9844 558.685 69.474 559.227 68.9844C559.773 68.4896 560.464 68.2422 561.297 68.2422C562.021 68.2422 562.651 68.448 563.188 68.8594C563.729 69.2657 564 69.8699 564 70.6719C564 71.0574 563.919 71.4219 563.758 71.7657C563.596 72.1042 563.422 72.3829 563.234 72.6016C563.052 72.8204 562.773 73.1094 562.398 73.4688L560.781 75.0235C559.99 75.8152 559.594 76.461 559.594 76.961H562.445C562.732 76.961 562.956 76.849 563.117 76.6251C563.279 76.4011 563.427 76.0001 563.562 75.4219C563.766 75.3803 563.922 75.4089 564.031 75.5079C564.01 76.2527 563.883 77.0938 563.648 78.0313C563.159 78.0105 562.742 78.0001 562.398 78.0001H559.594L558.266 78.0313C558.266 77.5209 558.385 77.0287 558.625 76.5547C558.87 76.0808 559.359 75.4688 560.094 74.7188L561.281 73.5547C562.156 72.6693 562.591 71.7292 562.586 70.7344C562.586 70.0417 562.445 69.5469 562.164 69.2501C561.883 68.948 561.56 68.7969 561.195 68.7969C560.664 68.7969 560.268 68.8985 560.008 69.1016C559.747 69.3047 559.617 69.5287 559.617 69.7735C559.617 69.8256 559.638 69.9011 559.68 70.0001C559.721 70.0938 559.742 70.1459 559.742 70.1563C559.784 70.3074 559.805 70.4193 559.805 70.4922C559.805 70.6537 559.716 70.8021 559.539 70.9376C559.367 71.0678 559.206 71.1329 559.055 71.1329C558.883 71.1329 558.732 71.073 558.602 70.9532C558.477 70.8334 558.414 70.6876 558.414 70.5157Z" fill="#404040"/>
<circle cx="558.088" cy="418.679" r="36.2332" fill="white"/>
<ellipse cx="558.383" cy="418.383" rx="28.5553" ry="28.5553" transform="rotate(45 558.383 418.383)" fill="#F5F5F4" stroke="#402F22" stroke-width="0.770919" stroke-dasharray="1.7 1.7"/>
<path d="M553.711 413.29C553.508 413.29 553.315 413.356 553.133 413.486C552.956 413.616 552.779 413.835 552.602 414.142C552.424 414.449 552.281 414.931 552.172 415.587C552.068 416.244 552.016 417.035 552.016 417.962C552.016 420.712 552.565 422.09 553.664 422.095C553.758 422.095 553.857 422.08 553.961 422.048C554.07 422.017 554.198 421.957 554.344 421.869C554.49 421.775 554.628 421.624 554.758 421.415C554.893 421.207 555.003 420.947 555.086 420.634C555.268 419.973 555.359 418.876 555.359 417.345C555.359 415.35 555.049 414.09 554.43 413.564C554.227 413.382 553.987 413.29 553.711 413.29ZM553.648 422.65C553.013 422.65 552.471 422.426 552.023 421.978C551.586 421.546 551.242 420.955 550.992 420.205C550.747 419.455 550.625 418.65 550.625 417.79C550.625 416.275 550.93 415.054 551.539 414.126C552.154 413.199 552.878 412.736 553.711 412.736C554.492 412.736 555.143 413.082 555.664 413.775C556.388 414.733 556.75 416.022 556.75 417.642C556.75 418.527 556.648 419.314 556.445 420.001C556.242 420.684 555.979 421.21 555.656 421.58C555.333 421.944 555 422.215 554.656 422.392C554.312 422.564 553.977 422.65 553.648 422.65ZM560.156 413.931C559.953 413.931 559.779 413.957 559.633 414.009C559.492 414.056 559.339 414.186 559.172 414.4C559.005 414.613 558.87 414.921 558.766 415.322C558.604 415.343 558.432 415.327 558.25 415.275C558.453 413.942 558.56 413.09 558.57 412.72C558.57 412.689 558.594 412.673 558.641 412.673C558.682 412.684 558.771 412.723 558.906 412.79C559.047 412.858 559.224 412.892 559.438 412.892H562.734C563.161 412.892 563.573 412.835 563.969 412.72L564.219 412.908C563.068 415.725 561.875 418.973 560.641 422.65L559.547 422.705L559.422 422.587C560.214 420.827 561.414 417.942 563.023 413.931H560.156Z" fill="#404040"/>
<circle r="36.2332" transform="matrix(1 -2.18557e-08 -2.18557e-08 -1 748.088 157.088)" fill="white"/>
<circle r="28.1698" transform="matrix(0.707107 -0.707107 -0.707107 -0.707107 748.383 157.383)" fill="#F5F5F4" stroke="#402F22" stroke-width="0.770919" stroke-dasharray="1.7 1.7"/>
<path d="M743.711 152.797C743.508 152.797 743.315 152.862 743.133 152.992C742.956 153.122 742.779 153.341 742.602 153.648C742.424 153.956 742.281 154.438 742.172 155.094C742.068 155.75 742.016 156.542 742.016 157.469C742.016 160.219 742.565 161.596 743.664 161.602C743.758 161.602 743.857 161.586 743.961 161.555C744.07 161.523 744.198 161.464 744.344 161.375C744.49 161.281 744.628 161.13 744.758 160.922C744.893 160.714 745.003 160.453 745.086 160.141C745.268 159.479 745.359 158.383 745.359 156.852C745.359 154.857 745.049 153.596 744.43 153.07C744.227 152.888 743.987 152.797 743.711 152.797ZM743.648 162.156C743.013 162.156 742.471 161.932 742.023 161.484C741.586 161.052 741.242 160.461 740.992 159.711C740.747 158.961 740.625 158.156 740.625 157.297C740.625 155.781 740.93 154.56 741.539 153.633C742.154 152.706 742.878 152.242 743.711 152.242C744.492 152.242 745.143 152.589 745.664 153.281C746.388 154.24 746.75 155.529 746.75 157.148C746.75 158.034 746.648 158.82 746.445 159.508C746.242 160.19 745.979 160.716 745.656 161.086C745.333 161.451 745 161.721 744.656 161.898C744.312 162.07 743.977 162.156 743.648 162.156ZM750.875 152.797C750.682 152.797 750.484 152.826 750.281 152.883C750.083 152.935 749.88 153.06 749.672 153.258C749.464 153.456 749.359 153.708 749.359 154.016C749.359 154.568 749.151 154.846 748.734 154.852C748.562 154.852 748.427 154.792 748.328 154.672C748.234 154.552 748.188 154.43 748.188 154.305C748.188 154.143 748.237 153.958 748.336 153.75C748.44 153.542 748.599 153.318 748.812 153.078C749.026 152.839 749.344 152.641 749.766 152.484C750.188 152.323 750.669 152.242 751.211 152.242C751.966 152.242 752.549 152.451 752.961 152.867C753.294 153.206 753.461 153.628 753.461 154.133C753.461 154.581 753.336 154.974 753.086 155.313C752.841 155.646 752.404 155.961 751.773 156.258L751.789 156.289C752.388 156.383 752.914 156.633 753.367 157.039C753.82 157.445 754.047 158.037 754.047 158.813C754.047 159.828 753.693 160.641 752.984 161.25C752.281 161.854 751.435 162.156 750.445 162.156C749.914 162.156 749.396 162.055 748.891 161.852C748.391 161.643 748.141 161.388 748.141 161.086C748.141 160.956 748.211 160.831 748.352 160.711C748.497 160.591 748.651 160.531 748.812 160.531C749.068 160.531 749.297 160.669 749.5 160.945C749.51 160.956 749.534 160.99 749.57 161.047C749.612 161.104 749.641 161.146 749.656 161.172C749.672 161.193 749.698 161.227 749.734 161.273C749.771 161.32 749.805 161.354 749.836 161.375C749.867 161.396 749.911 161.427 749.969 161.469C750.031 161.505 750.094 161.531 750.156 161.547C750.219 161.563 750.292 161.576 750.375 161.586C750.464 161.596 750.557 161.602 750.656 161.602C750.828 161.602 751.01 161.565 751.203 161.492C751.401 161.414 751.615 161.294 751.844 161.133C752.073 160.966 752.263 160.701 752.414 160.336C752.565 159.971 752.641 159.539 752.641 159.039C752.641 157.664 751.94 156.977 750.539 156.977C750.211 156.977 749.956 156.987 749.773 157.008L749.695 156.492C750.435 156.388 751.039 156.102 751.508 155.633C751.977 155.159 752.211 154.695 752.211 154.242C752.211 153.914 752.146 153.641 752.016 153.422C751.885 153.198 751.724 153.039 751.531 152.945C751.339 152.846 751.12 152.797 750.875 152.797Z" fill="#404040"/>
<circle r="36.2332" transform="matrix(1 -2.18557e-08 -2.18557e-08 -1 40.0877 328.088)" fill="white"/>
<circle r="28.1698" transform="matrix(0.707107 -0.707107 -0.707107 -0.707107 40.3833 328.383)" fill="#F5F5F4" stroke="#402F22" stroke-width="0.770919" stroke-dasharray="1.7 1.7"/>
<path d="M35.7109 323.797C35.5078 323.797 35.3151 323.862 35.1328 323.992C34.9557 324.122 34.7786 324.341 34.6016 324.648C34.4245 324.956 34.2812 325.438 34.1719 326.094C34.0677 326.75 34.0156 327.542 34.0156 328.469C34.0156 331.219 34.5651 332.596 35.6641 332.602C35.7578 332.602 35.8568 332.586 35.9609 332.555C36.0703 332.523 36.1979 332.464 36.3438 332.375C36.4896 332.281 36.6276 332.13 36.7578 331.922C36.8932 331.714 37.0026 331.453 37.0859 331.141C37.2682 330.479 37.3594 329.383 37.3594 327.852C37.3594 325.857 37.0495 324.596 36.4297 324.07C36.2266 323.888 35.987 323.797 35.7109 323.797ZM35.6484 333.156C35.013 333.156 34.4714 332.932 34.0234 332.484C33.5859 332.052 33.2422 331.461 32.9922 330.711C32.7474 329.961 32.625 329.156 32.625 328.297C32.625 326.781 32.9297 325.56 33.5391 324.633C34.1536 323.706 34.8776 323.242 35.7109 323.242C36.4922 323.242 37.1432 323.589 37.6641 324.281C38.388 325.24 38.75 326.529 38.75 328.148C38.75 329.034 38.6484 329.82 38.4453 330.508C38.2422 331.19 37.9792 331.716 37.6562 332.086C37.3333 332.451 37 332.721 36.6562 332.898C36.3125 333.07 35.9766 333.156 35.6484 333.156ZM44.5391 329.977C44.5391 329.143 44.3672 328.531 44.0234 328.141C43.6849 327.745 43.2396 327.547 42.6875 327.547C42.0156 327.547 41.3385 327.675 40.6562 327.93L41.1953 323.32C41.8151 323.372 42.3906 323.398 42.9219 323.398C43.5625 323.398 44.4375 323.341 45.5469 323.227L45.6641 323.289L45.4062 324.375C44.7448 324.438 44.1849 324.469 43.7266 324.469C43.362 324.469 42.737 324.422 41.8516 324.328L41.5312 327C41.9688 326.828 42.4922 326.742 43.1016 326.742C43.9661 326.742 44.6589 327.031 45.1797 327.609C45.7057 328.182 45.9688 328.875 45.9688 329.688C45.9688 330.703 45.651 331.539 45.0156 332.195C44.3802 332.852 43.5651 333.18 42.5703 333.18C42.0807 333.18 41.5807 333.057 41.0703 332.813C40.5599 332.563 40.3047 332.284 40.3047 331.977C40.3047 331.815 40.3646 331.677 40.4844 331.563C40.6094 331.443 40.75 331.383 40.9062 331.383C41.1927 331.383 41.4661 331.555 41.7266 331.898C41.737 331.919 41.7682 331.964 41.8203 332.031C41.8724 332.099 41.9089 332.151 41.9297 332.188C41.9557 332.219 41.9948 332.26 42.0469 332.313C42.099 332.365 42.1458 332.404 42.1875 332.43C42.2292 332.456 42.2812 332.49 42.3438 332.531C42.4115 332.568 42.4792 332.591 42.5469 332.602C42.6198 332.612 42.6979 332.617 42.7812 332.617C43.2708 332.617 43.6849 332.365 44.0234 331.859C44.3672 331.349 44.5391 330.721 44.5391 329.977Z" fill="#404040"/>
<line y1="-0.5" x2="43.0833" y2="-0.5" transform="matrix(4.37114e-08 1 1 -4.37114e-08 389.615 193.917)" stroke="#402F22" stroke-dasharray="2.2 2.2"/>
<ellipse rx="3" ry="3" transform="matrix(1 -4.37114e-08 -4.37114e-08 -1 389 192)" fill="#402F22"/>
<circle cx="797.5" cy="415.5" r="122.5" fill="white"/>
<g filter="url(#filter0_d)">
<path d="M925 417.517C925.069 448.336 912.898 477.92 891.162 499.768C869.425 521.615 839.903 533.937 809.085 534.025H808.938C778.119 533.933 748.597 521.611 726.858 499.765C705.119 477.919 692.941 448.337 693 417.517C692.965 395.229 699.32 373.398 711.313 354.612C723.306 335.825 740.433 320.871 760.665 311.521C760.965 311.383 761.204 311.252 761.434 311.122C762.01 310.789 762.618 310.516 763.249 310.306V303.448C763.267 301.793 763.716 300.171 764.552 298.743C765.388 297.315 766.582 296.13 768.016 295.305C773.745 291.975 785.302 288 807.501 288C811.199 288 814.613 288.115 817.796 288.315C818.081 288.315 818.319 288.315 818.604 288.361H818.881C822.925 288.646 829.376 289.53 830.668 289.745C841.31 291.545 847.723 294.359 851.183 296.312C852.317 296.967 853.257 297.91 853.908 299.046C854.559 300.182 854.898 301.47 854.889 302.779V310.522C856.596 311.206 857.381 311.575 858.488 312.113L858.68 312.206C878.564 321.698 895.348 336.633 907.087 355.278C918.825 373.924 925.036 395.515 925 417.548V417.517Z" fill="white"/>
</g>
<path fill-rule="evenodd" clip-rule="evenodd" d="M807.491 288C785.291 288 773.744 291.971 768.014 295.303C765.126 296.981 763.276 300.111 763.276 303.472V310.336C762.388 310.645 761.928 310.897 761.472 311.147C761.229 311.28 760.987 311.412 760.682 311.552C740.753 320.717 723.905 335.321 711.867 353.785C699.508 372.743 693 394.79 693 417.543C693 448.665 705.077 477.924 726.984 499.93C748.891 521.936 778.024 534.055 809.005 534.055C839.986 534.055 869.115 521.936 891.022 499.93C912.929 477.924 924.995 448.665 924.995 417.543C924.995 395.072 918.614 373.256 906.537 354.454C894.782 336.152 878.228 321.551 858.682 312.231L858.485 312.138C857.369 311.605 856.597 311.236 854.882 310.55V302.801C854.882 300.13 853.497 297.651 851.176 296.33C847.722 294.366 841.311 291.564 830.67 289.764C829.373 289.553 822.917 288.669 818.872 288.385C818.773 288.377 818.681 288.368 818.593 288.36C818.319 288.334 818.082 288.312 817.796 288.314C814.611 288.114 811.188 288 807.491 288ZM836.736 395.923C836.051 395.546 835.326 395.515 834.695 395.833C832.983 396.7 831.534 399.439 831.262 399.979C830.921 400.652 831.189 401.473 831.858 401.815C832.528 402.157 833.346 401.889 833.687 401.217C834.121 400.362 834.974 399.03 835.635 398.471C836.439 399.216 837.903 402.084 838.17 404.686C838.468 407.586 837.155 413.66 832.367 417.612C831.786 418.091 831.702 418.952 832.179 419.536C832.448 419.865 832.838 420.035 833.231 420.035C833.535 420.035 833.841 419.933 834.094 419.724C839.745 415.06 841.246 408.008 840.877 404.406C840.559 401.301 838.72 397.014 836.736 395.923ZM830.721 404.645C831.309 404.175 832.166 404.275 832.633 404.866C835.913 409.016 833.351 413.015 831.537 414.55C831.281 414.766 830.97 414.872 830.661 414.872C830.273 414.872 829.889 414.706 829.62 414.386C829.137 413.81 829.209 412.951 829.779 412.464C830.11 412.177 832.907 409.608 830.501 406.565C830.034 405.974 830.133 405.115 830.721 404.645ZM771.283 386.934C771.328 386.918 775.869 385.229 781.002 384.8C785.826 384.394 792.386 387.963 792.45 387.998C792.727 388.15 793.026 388.223 793.321 388.223C793.962 388.223 794.583 387.881 794.913 387.277C795.395 386.394 795.073 385.287 794.195 384.803C793.888 384.634 786.617 380.676 780.701 381.168C775.074 381.639 770.216 383.444 770.012 383.521C769.074 383.873 768.598 384.923 768.949 385.866C769.299 386.809 770.345 387.287 771.283 386.934ZM774.754 389.693C775.01 389.64 781.169 388.446 792.27 393.428C792.956 393.736 793.263 394.544 792.957 395.233C792.731 395.741 792.234 396.043 791.714 396.043C791.528 396.043 791.34 396.004 791.16 395.923C790.912 395.812 790.669 395.707 790.426 395.602C787.123 398.52 781.369 399.045 778.331 399.104C778.885 399.901 779.727 400.642 780.23 400.996C780.846 401.428 780.997 402.28 780.567 402.899C780.302 403.279 779.88 403.483 779.45 403.483C779.181 403.483 778.91 403.403 778.672 403.237C778.303 402.978 775.059 400.619 775.059 397.713C775.059 397.336 775.215 396.976 775.488 396.718C775.76 396.459 776.127 396.326 776.502 396.348C776.686 396.359 776.897 396.368 777.126 396.373C776.486 394.807 776.391 393.342 776.456 392.266C775.708 392.292 775.318 392.367 775.304 392.369C774.566 392.523 773.848 392.046 773.696 391.307C773.544 390.568 774.018 389.845 774.754 389.693ZM779.168 392.384C779.102 393.327 779.208 394.788 780.123 396.28C782.513 396.086 785.364 395.571 787.419 394.406C783.93 393.145 781.169 392.6 779.168 392.384ZM722.61 477.373C722.292 476.901 721.668 476.397 720.971 475.833L720.971 475.833C720.695 475.61 720.409 475.378 720.125 475.136C719.049 474.251 717.813 473.225 717.275 472.363C716.618 471.217 716.416 470.203 716.347 469.704C717.47 469.157 718.795 469.227 720.024 469.766C720.628 470.042 721.25 470.412 721.816 470.888C722.381 471.364 722.891 471.946 723.316 472.627C724.109 473.961 724.566 475.355 724.544 476.687C724.529 478.01 724.085 479.237 723.208 480.063C723.255 479.295 723.195 478.218 722.61 477.373ZM713.341 462.848L713.341 462.848L713.273 462.78C712.328 461.758 711.263 460.564 710.853 459.635C710.593 459.028 710.417 458.477 710.344 458.001C710.27 457.525 710.256 457.141 710.259 456.887C710.851 456.69 711.471 456.656 712.085 456.757C712.698 456.859 713.299 457.099 713.9 457.437C715.085 458.122 716.125 459.251 716.766 460.72C717.436 462.119 717.662 463.582 717.457 464.902C717.36 465.559 717.148 466.182 716.86 466.718C716.575 467.253 716.187 467.714 715.7 468.064C715.813 467.326 715.912 466.244 715.455 465.322C715.11 464.628 714.26 463.773 713.341 462.848ZM709.946 452.429C709.706 451.691 708.991 450.724 708.218 449.679L708.162 449.603C707.298 448.482 706.432 447.148 706.166 446.167C705.818 444.89 705.86 443.867 705.917 443.37C707.145 443.14 708.421 443.556 709.489 444.395C710.023 444.815 710.505 445.342 710.906 445.957C711.106 446.265 711.286 446.594 711.442 446.943C711.611 447.289 711.767 447.65 711.89 448.032C712.375 449.506 712.359 451.002 711.985 452.281C711.649 453.543 710.915 454.603 709.856 455.167C710.098 454.439 710.274 453.403 709.946 452.429ZM706.232 438.902C706.16 438.546 705.967 438.132 705.751 437.669L705.689 437.535C705.457 437.037 705.168 436.493 704.868 435.929L704.833 435.864C704.504 435.246 704.152 434.581 703.861 433.944C703.57 433.308 703.334 432.7 703.288 432.194C703.135 430.88 703.328 429.869 703.458 429.383C704.705 429.32 705.902 429.905 706.83 430.882C707.306 431.369 707.668 431.963 708.02 432.621C708.36 433.281 708.61 434.015 708.742 434.807C708.871 435.573 708.878 436.326 708.782 437.041C708.702 437.752 708.548 438.42 708.285 439.027C707.768 440.236 706.89 441.191 705.763 441.607C706.098 440.919 706.453 439.907 706.232 438.902ZM703.741 407.673C703.589 406.989 703.427 406.254 703.316 405.562C703.218 404.872 703.191 404.227 703.259 403.724C703.442 402.413 703.883 401.492 704.162 401.063C705.376 401.344 706.348 402.232 707.009 403.427C707.657 404.625 707.931 406.122 707.788 407.713C707.716 408.484 707.498 409.206 707.249 409.869C706.993 410.532 706.644 411.13 706.227 411.643C705.81 412.155 705.322 412.581 704.793 412.893C704.274 413.205 703.705 413.403 703.109 413.453C703.587 412.878 704.223 412 704.289 410.974C704.329 410.35 704.133 409.465 703.916 408.482C703.858 408.218 703.798 407.948 703.741 407.673ZM706.137 393.747L706.136 393.729C706.031 392.338 705.91 390.735 706.212 389.769C706.587 388.5 707.136 387.644 707.471 387.258C708.628 387.703 709.491 388.723 709.969 389.998C710.205 390.636 710.341 391.338 710.363 392.071C710.399 392.809 710.34 393.583 710.141 394.359C709.736 395.856 709.025 397.139 708.038 398.033C707.048 398.925 705.908 399.454 704.702 399.382C704.988 399.134 705.309 398.812 705.581 398.426C705.866 398.043 706.108 397.598 706.216 397.095C706.351 396.514 706.283 395.662 706.207 394.713C706.182 394.399 706.157 394.076 706.137 393.747ZM708.241 385.669C708.879 385.255 709.683 384.57 710.05 383.608C710.272 383.027 710.32 382.127 710.373 381.128L710.373 381.128C710.388 380.851 710.403 380.566 710.423 380.278L710.441 380.004C710.528 378.677 710.624 377.205 711.028 376.344C711.567 375.137 712.238 374.367 712.606 374.022C713.695 374.616 714.428 375.748 714.723 377.073C714.873 377.738 714.909 378.45 714.838 379.184C714.783 379.924 714.611 380.681 714.309 381.425C714.164 381.785 713.991 382.126 713.804 382.448C713.626 382.774 713.426 383.079 713.209 383.363C712.775 383.93 712.271 384.41 711.725 384.787C710.636 385.541 709.425 385.906 708.241 385.669ZM704.558 415.79C705.084 416.123 705.55 416.578 705.972 417.125C706.799 418.22 707.32 419.669 707.343 421.274C707.393 422.827 707.059 424.262 706.355 425.397C705.666 426.529 704.643 427.36 703.49 427.62C703.899 426.984 704.419 426.025 704.346 424.999C704.302 424.282 703.902 423.27 703.463 422.163C703.416 422.044 703.369 421.924 703.321 421.803C702.857 420.49 702.33 418.974 702.314 417.958C702.308 417.296 702.363 416.721 702.475 416.254C702.589 415.786 702.723 415.427 702.822 415.194C703.444 415.245 704.03 415.457 704.558 415.79ZM727.735 481.162C728.386 481.343 729.026 481.647 729.632 482.058C730.261 482.451 730.85 482.954 731.367 483.566C731.868 484.159 732.258 484.802 732.539 485.465C732.817 486.132 733.034 486.776 733.112 487.435C733.281 488.74 733.008 490.01 732.248 490.944C732.188 490.18 731.981 489.128 731.281 488.377C730.723 487.811 729.677 487.163 728.539 486.475C728.449 486.42 728.358 486.364 728.266 486.308C727.143 485.621 725.904 484.863 725.355 484.101C724.552 483.052 724.201 482.088 724.065 481.604C725.106 480.911 726.436 480.8 727.735 481.162ZM737.77 502.806C736.473 502.615 735.103 501.991 733.93 500.95C732.76 499.951 732.041 498.642 731.681 497.421C731.329 496.187 731.382 494.992 731.863 494.031C732.175 494.599 732.688 495.363 733.484 496.141C733.91 496.557 734.489 496.945 735.136 497.313C735.67 497.608 736.267 497.867 736.859 498.125L736.86 498.125C736.993 498.183 737.126 498.241 737.259 498.299L737.35 498.339C738.483 498.828 739.529 499.281 740.004 499.703C740.905 500.453 741.209 501.761 741.236 502.084C740.333 502.71 739.096 502.964 737.77 502.806ZM741.322 498.137C740.742 497.623 739.638 497.152 738.444 496.643L738.36 496.607C738.206 496.54 738.048 496.472 737.888 496.404C737.384 496.189 736.865 495.968 736.409 495.709C735.805 495.372 735.264 495.02 734.902 494.666C733.957 493.744 733.476 492.841 733.274 492.383C734.215 491.558 735.524 491.266 736.868 491.444C737.541 491.534 738.223 491.743 738.88 492.068C739.208 492.23 739.528 492.424 739.842 492.643C740.166 492.85 740.48 493.087 740.779 493.352C741.944 494.375 742.675 495.685 743.011 496.964C743.357 498.226 743.259 499.515 742.629 500.54C742.468 499.793 742.109 498.796 741.322 498.137ZM745.598 510.256C744.35 509.358 743.429 508.207 742.911 507.044C742.653 506.46 742.495 505.873 742.448 505.303C742.41 504.72 742.478 504.16 742.657 503.647C743.017 504.2 743.633 504.879 744.533 505.532C745.013 505.883 745.644 506.185 746.338 506.458C747.034 506.729 747.783 506.986 748.553 507.179L748.653 507.206C749.846 507.531 750.947 507.83 751.477 508.179C751.97 508.498 752.318 508.994 752.57 509.425C752.823 509.853 752.961 510.246 752.997 510.401C751.356 511.933 748.232 511.985 745.598 510.256ZM754.174 508.684C754.043 508.329 753.855 507.915 753.59 507.526C753.334 507.122 753.007 506.733 752.577 506.452C751.931 506.026 750.769 505.718 749.512 505.384L749.42 505.359C748.072 504.983 746.57 504.472 745.745 503.883C745.212 503.494 744.795 503.094 744.478 502.738C744.172 502.368 743.968 502.041 743.842 501.821C744.672 500.872 745.891 500.461 747.265 500.435C748.631 500.424 750.092 500.878 751.387 501.815C752.682 502.665 753.602 503.832 754.091 505.073C754.568 506.329 754.669 507.574 754.174 508.684ZM762.619 518.643C761.964 518.73 761.262 518.721 760.546 518.608C760.188 518.55 759.824 518.472 759.467 518.355C759.113 518.229 758.761 518.075 758.415 517.893C757.055 517.177 755.979 516.179 755.307 515.103C754.653 513.992 754.406 512.799 754.623 511.74C755.07 512.211 755.735 512.864 756.717 513.385C757.77 513.941 759.387 514.218 760.925 514.472C761.223 514.519 761.518 514.561 761.802 514.601L761.803 514.601C762.712 514.73 763.515 514.843 763.961 515.061C765.022 515.556 765.642 516.773 765.753 517.079C765.048 517.915 763.93 518.469 762.619 518.643ZM766.691 515.224C766.344 514.536 765.751 513.635 764.822 513.202C764.463 513.035 763.974 512.917 763.408 512.822C763.171 512.784 762.922 512.749 762.665 512.713L762.664 512.713C762.303 512.662 761.927 512.609 761.549 512.542C760.177 512.323 758.596 512.061 757.7 511.589C756.54 510.962 755.87 510.164 755.556 509.775C756.248 508.732 757.426 508.121 758.754 507.964C760.097 507.789 761.627 508.002 763.036 508.755C763.379 508.935 763.7 509.139 764 509.36C764.308 509.565 764.594 509.789 764.857 510.029C765.383 510.508 765.816 511.051 766.143 511.627C766.795 512.778 767.031 514.065 766.691 515.224ZM776.389 523.951C775.752 524.122 775.042 524.249 774.329 524.197C773.611 524.158 772.866 524.016 772.127 523.756C770.678 523.246 769.466 522.436 768.68 521.399C767.884 520.386 767.473 519.254 767.547 518.177C768.052 518.587 768.815 519.101 769.844 519.52C770.12 519.631 770.426 519.728 770.76 519.794C771.097 519.854 771.457 519.897 771.831 519.928C772.579 519.991 773.38 520.007 774.163 520.021L774.244 520.022C774.848 520.033 775.431 520.043 775.938 520.075L776.033 520.081H776.033C776.524 520.109 776.948 520.133 777.241 520.225C778.363 520.557 779.144 521.667 779.295 521.952C778.706 522.879 777.669 523.589 776.389 523.951ZM779.978 519.986C779.54 519.358 778.829 518.558 777.847 518.267C777.082 518.065 775.853 518.047 774.529 518.028L774.524 518.028C773.825 518.019 773.076 518.009 772.38 517.957C772.032 517.932 771.698 517.896 771.391 517.846C771.089 517.782 770.814 517.704 770.58 517.608C769.359 517.111 768.571 516.455 768.21 516.106C768.758 514.98 769.848 514.208 771.149 513.861C771.802 513.683 772.502 513.634 773.237 513.662C773.977 513.681 774.738 513.815 775.492 514.08C776.222 514.336 776.882 514.692 777.459 515.121C778.037 515.545 778.547 515.996 778.948 516.522C779.753 517.56 780.16 518.793 779.978 519.986ZM764.06 385.08C761.824 382.833 762.405 381.324 762.482 381.154C769.9 378.877 784.638 374.75 800.2 372.638C801.066 375.694 804.026 385.253 808.477 390.447L808.485 390.456C808.492 390.465 808.499 390.474 808.507 390.483C809.569 391.716 810.525 392.74 811.368 393.643C813.764 396.21 815.026 397.565 815.233 399.82C815.3 400.55 815.258 401.373 815.107 402.364C814.311 407.559 802.914 425.184 795.62 431.366C792.676 433.861 791.151 434.266 790.395 434.165C789.604 434.06 789.022 433.295 788.16 432.047C787.835 431.576 787.498 431.09 787.112 430.625C786.994 430.482 786.865 430.324 786.725 430.151L786.725 430.151L786.668 430.082C784.381 427.269 779.382 421.129 770.417 417.93C770.492 417.888 770.563 417.836 770.625 417.774L770.7 417.7C770.735 417.664 770.771 417.629 770.807 417.593C770.947 417.454 771.087 417.316 771.221 417.171L771.703 416.579L771.748 416.514C771.882 416.318 772.013 416.127 772.129 415.912L772.154 415.864L772.154 415.864C772.273 415.641 772.392 415.419 772.483 415.17C772.578 414.944 772.642 414.694 772.705 414.447L772.728 414.354C772.783 414.065 772.824 413.775 772.821 413.475C772.823 413.178 772.804 412.876 772.74 412.583C772.682 412.29 772.588 412.005 772.472 411.736C772.359 411.464 772.202 411.217 772.039 410.981C772.013 410.947 771.987 410.914 771.961 410.88C771.9 410.8 771.839 410.72 771.767 410.646L771.606 410.476L771.482 410.369C771.374 410.273 771.217 410.138 771.066 410.021C769.786 408.676 768.208 407.829 768.133 407.789C767.689 407.554 767.142 407.725 766.908 408.169C766.674 408.613 766.843 409.164 767.285 409.4C767.3 409.409 768.678 410.152 769.746 411.271C769.817 411.387 769.877 411.489 769.972 411.644L770.057 411.785C770.051 411.791 770.08 411.847 770.09 411.874C770.096 411.885 770.101 411.895 770.105 411.906C770.118 411.935 770.13 411.966 770.141 411.996C770.146 412.008 770.151 412.021 770.156 412.033C770.162 412.049 770.168 412.064 770.175 412.08C770.221 412.222 770.256 412.364 770.278 412.503C770.303 412.642 770.317 412.779 770.309 412.915C770.31 413.05 770.299 413.184 770.273 413.318C770.261 413.401 770.238 413.485 770.215 413.569L770.215 413.569C770.201 413.619 770.187 413.67 770.175 413.721C770.166 413.744 770.156 413.768 770.148 413.791C770.14 413.812 770.132 413.834 770.124 413.855L770.124 413.855C770.09 413.947 770.056 414.039 770.003 414.131C769.954 414.253 769.884 414.375 769.814 414.498L769.784 414.551C769.744 414.624 769.694 414.695 769.644 414.766C769.596 414.834 769.548 414.902 769.508 414.973L769.184 415.395C769.143 415.439 769.104 415.486 769.065 415.533C769.049 415.552 769.034 415.57 769.019 415.589C769.009 415.59 769 415.592 768.99 415.593C768.963 415.598 768.935 415.603 768.906 415.612C768.884 415.612 768.862 415.611 768.839 415.611H768.838C768.787 415.61 768.735 415.609 768.68 415.615C768.631 415.601 768.58 415.594 768.527 415.587L768.527 415.587C768.49 415.583 768.453 415.578 768.415 415.57C768.37 415.554 768.326 415.54 768.281 415.527L768.281 415.527C768.225 415.51 768.169 415.492 768.11 415.469C768.061 415.446 768.012 415.426 767.962 415.405C767.9 415.38 767.837 415.354 767.772 415.322C767.542 415.201 767.291 415.067 767.037 414.915C766.992 414.888 766.944 414.86 766.896 414.832L766.896 414.832C766.865 414.814 766.835 414.796 766.805 414.778C766.739 414.72 766.675 414.666 766.605 414.605C765.715 413.824 764.706 412.939 763.423 412.797C762.928 412.741 762.477 413.102 762.422 413.602C762.367 414.102 762.726 414.553 763.224 414.608C763.942 414.687 764.656 415.314 765.412 415.978C765.453 416.013 765.495 416.049 765.536 416.086L765.539 416.088L765.631 416.168C765.643 416.183 765.655 416.198 765.667 416.214C765.678 416.227 765.689 416.241 765.7 416.255C765.732 416.296 765.764 416.337 765.799 416.379L766.065 416.672C765.972 416.647 765.87 416.618 765.769 416.589C765.682 416.55 765.591 416.518 765.495 416.497C765.404 416.477 765.306 416.455 765.205 416.432C764.671 416.283 764.265 416.175 763.977 416.114C761.605 415.431 758.331 414.069 758.003 411.7C757.849 410.584 759.731 405.178 760.636 402.578L760.637 402.576L760.638 402.572C761.14 401.132 761.573 399.889 761.816 399.062C762.056 398.248 762.374 397.308 762.681 396.398L762.682 396.396L762.685 396.386L762.688 396.379C763.201 394.862 763.731 393.294 763.97 392.108C764.159 391.169 764.339 390.417 764.498 389.754C764.991 387.699 765.316 386.342 764.06 385.08ZM762.482 381.154L762.452 381.164L762.469 381.174L762.482 381.154ZM819.945 397.764C820.21 398.145 820.633 398.349 821.063 398.349C821.332 398.349 821.603 398.27 821.84 398.104C834.062 389.552 840.64 378.279 842.516 374.708C843.615 375.07 844.671 375.454 845.688 375.859C844.691 377.827 842.363 382.079 839.288 385.481C838.783 386.039 838.825 386.904 839.381 387.411C839.641 387.649 839.969 387.766 840.295 387.766C840.665 387.766 841.034 387.615 841.303 387.319C844.713 383.547 847.192 378.952 848.201 376.929C848.962 377.276 849.703 377.634 850.428 378.001C849.748 379.964 847.725 385.218 844.217 389.646C843.75 390.237 843.847 391.097 844.435 391.566C844.686 391.766 844.985 391.864 845.281 391.864C845.682 391.864 846.078 391.687 846.347 391.348C849.921 386.836 852.014 381.677 852.86 379.302C853.699 379.772 854.52 380.253 855.329 380.744C854.414 383.283 851.054 392.186 846.939 397.948C846.501 398.562 846.641 399.415 847.252 399.855C847.492 400.028 847.769 400.112 848.043 400.112C848.467 400.112 848.884 399.914 849.15 399.541C853.248 393.804 856.52 385.421 857.691 382.219C858.338 382.634 858.982 383.052 859.624 383.473C858.876 386.416 854.403 403.051 846.522 413.116C846.058 413.709 846.16 414.568 846.75 415.035C847 415.232 847.296 415.327 847.59 415.327C847.993 415.327 848.392 415.149 848.66 414.806C856.359 404.974 860.79 389.752 862.029 385.056C862.379 385.287 862.731 385.518 863.083 385.749L863.103 385.762L863.307 385.896C860.143 408.598 852.629 417.106 849.396 420.761C849.154 421.034 848.938 421.279 848.75 421.499C846.986 423.567 845.532 424.714 844.825 425.214C842.341 424.362 840.122 422.968 838.805 422.041C842.02 418.802 844.113 414.404 845.144 410.433C846.511 405.163 846.682 402.338 842.801 395.516C838.571 388.081 832.658 391.08 832.599 391.111C832.505 391.161 832.417 391.221 832.337 391.291C832.032 391.558 824.866 397.933 824.389 407.515C824.387 407.549 824.387 407.582 824.386 407.616C821.35 403.26 818.702 400.051 817.874 399.069C817.614 397.289 816.87 395.908 815.777 394.514C827.885 388.906 834.46 376.727 836.232 373.022C837.49 373.289 838.693 373.583 839.848 373.902C837.766 377.7 831.396 388.086 820.284 395.861C819.668 396.292 819.516 397.144 819.945 397.764ZM841.628 454.201L843.241 468.649C842.682 469.017 842.077 469.401 841.431 469.794L840.103 458.051C840.018 457.301 839.342 456.765 838.598 456.848C837.851 456.933 837.315 457.61 837.4 458.36L838.861 471.277C838.23 471.621 837.57 471.969 836.877 472.319L835.563 463.025C835.458 462.277 834.763 461.755 834.025 461.864C833.281 461.97 832.764 462.662 832.87 463.409L834.304 473.553C833.471 473.934 832.599 474.313 831.69 474.688L830.829 468.564C830.724 467.817 830.036 467.3 829.291 467.402C828.547 467.508 828.029 468.199 828.134 468.947L829.085 475.708C828.285 476.006 827.462 476.299 826.61 476.586L825.976 472.624C825.857 471.879 825.158 471.369 824.417 471.492C823.676 471.611 823.171 472.312 823.29 473.057L823.988 477.423C821.842 478.071 819.551 478.675 817.108 479.212C816.374 479.374 815.909 480.103 816.07 480.84C816.209 481.479 816.772 481.915 817.398 481.915C817.494 481.915 817.592 481.904 817.69 481.883C830.787 479.002 839.653 474.357 844.887 470.868C843.454 473.146 841.605 475.959 839.337 479.164C833.569 481.948 822.08 484.365 814.91 485.364L815.558 483.869C815.756 483.411 815.689 482.88 815.385 482.486C815.08 482.092 814.587 481.896 814.095 481.974L801.643 483.975L795.779 481.876L795.492 476.468L801.983 461.439C806.282 460.749 827.277 457.241 835.843 453.254C840.277 451.19 843.261 449.421 845.196 448.11C845.645 448.051 846.022 447.775 846.223 447.388L846.239 447.377L848.35 464.751C847.875 465.187 847.022 465.928 845.779 466.863L844.333 453.897C844.249 453.147 843.575 452.607 842.829 452.691C842.083 452.775 841.545 453.452 841.628 454.201ZM783.515 438.112C784.229 435.963 784.557 433.759 784.701 431.983C784.749 432.041 784.795 432.098 784.84 432.153C784.903 432.231 784.964 432.305 785.022 432.374C785.331 432.748 785.62 433.164 785.925 433.606C786.332 434.195 786.763 434.815 787.275 435.359C787.669 437.75 789.38 450.389 783.372 459.154C783.226 459.078 783.14 459.028 783.14 459.028C783.054 458.976 782.964 458.934 782.869 458.903C782.313 458.716 781.053 457.838 780.666 456.653C780.389 455.804 780.59 454.912 781.283 453.926C784.046 449.994 784.933 447.422 784.933 443.344C784.933 441.447 784.404 439.703 783.515 438.112ZM790.239 436.893C790.93 436.953 791.658 436.857 792.446 436.588C793.196 439.795 794.438 448.395 790.746 461.503C788.761 461.137 787.144 460.666 785.919 460.234C791.204 452.115 790.781 441.614 790.239 436.893ZM794.938 435.306C795.577 434.885 796.255 434.379 796.979 433.783C798.071 438.144 800.146 449.108 797.648 462.139C796.144 462.127 794.748 462.039 793.464 461.899C797.468 447.459 795.763 438.334 794.938 435.306ZM797.535 464.871L793.765 473.6C793.665 472.86 793.569 472.11 793.475 471.368C793.152 468.819 792.843 466.376 792.385 464.529C793.942 464.728 795.659 464.855 797.535 464.871ZM784.821 462.751C786.015 463.184 787.539 463.648 789.391 464.032C789.999 465.581 790.394 468.695 790.776 471.713L790.777 471.727L790.778 471.728C791.013 473.585 791.256 475.504 791.561 477.189C791.574 477.261 791.594 477.328 791.617 477.394L789.439 479.798L785.29 479.111L782.546 474.418L784.821 462.751ZM785.769 489.409C786.074 489.182 786.279 488.834 786.315 488.44L787.228 486.822C787.457 486.419 787.5 485.938 787.343 485.542L786.08 482.331C786.166 482.234 786.241 482.13 786.295 482.016L789.444 482.538L789.549 482.548C789.891 482.566 790.248 482.412 790.513 482.121L793.256 479.095L793.472 483.144C793.498 483.641 793.774 484.047 794.176 484.194L798.158 485.619L793.833 487.729C793.391 487.947 793.073 488.429 793.023 488.962L792.591 493.726L789.957 490.061C789.77 489.805 789.5 489.657 789.201 489.641C789.088 489.635 788.973 489.645 788.858 489.679L785.024 490.731L785.769 489.409ZM788.475 492.458L792.509 498.062C792.696 498.322 792.969 498.47 793.264 498.486C793.428 498.494 793.598 498.463 793.763 498.388C794.237 498.184 794.575 497.686 794.624 497.137L794.836 494.788L797.591 498.389C797.481 498.48 797.379 498.585 797.3 498.713L788.024 513.545C784.003 512.658 780.075 511.522 776.254 510.154L783.988 493.688L788.475 492.458ZM799.31 500.637L801.243 503.165L793.759 514.633C792.792 514.48 791.83 514.31 790.872 514.129L799.31 500.637ZM795.419 491.063C795.352 490.976 795.276 490.902 795.194 490.836L795.212 490.64L801.937 493.133C802.093 493.19 802.251 493.218 802.408 493.218C802.961 493.218 803.482 492.876 803.684 492.324C803.945 491.616 803.584 490.83 802.879 490.569L797.673 488.639L801.515 486.763L812.072 485.067L804.395 502.8L795.419 491.063ZM827.98 428.519C828.049 429.015 828.104 429.505 828.131 429.981C828.278 432.641 828.462 435.979 826.439 440.367C824.166 424.114 816.453 414.299 814.042 411.575C814.523 410.719 814.967 409.89 815.372 409.092C817.449 411.635 822.721 418.491 827.98 428.519ZM816.65 406.37C817.165 405.155 817.528 404.084 817.714 403.199C819.418 405.361 821.916 408.679 824.399 412.52C824.443 412.587 824.497 412.641 824.549 412.697C824.79 414.943 825.225 417.053 825.713 419.043C821.217 411.768 817.496 407.345 816.65 406.37ZM830.847 429.829C830.821 429.348 830.77 428.863 830.707 428.374C830.734 428.15 830.7 427.919 830.611 427.698C830.526 427.158 830.427 426.614 830.311 426.064C830.635 426.34 831.084 426.459 831.527 426.345C833.443 425.853 835.1 424.991 836.623 423.876C837.92 424.839 840.37 426.598 843.544 427.703V445.851C841.73 447.07 838.946 448.769 834.641 450.774C830.703 452.606 823.821 454.373 817.263 455.784C830.369 444.268 831.225 436.652 830.847 429.829ZM835.925 421.017C835.853 421.065 835.787 421.121 835.724 421.184C834.356 422.307 832.746 423.211 830.853 423.697C830.431 423.806 830.107 424.101 829.944 424.472C829.713 423.536 829.457 422.583 829.196 421.612L829.195 421.608L829.194 421.608C828.094 417.517 826.846 412.88 827.107 407.651C827.491 399.923 833.059 394.355 833.992 393.474C834.752 393.157 837.813 392.257 840.439 396.872C843.851 402.87 843.729 405.049 842.511 409.744C842.125 411.229 840.334 417.263 835.925 421.017ZM824.14 444.353C823.347 445.504 822.403 446.716 821.284 447.993C819.481 430.387 812.88 419.749 810.849 416.843C811.45 415.913 812.028 414.989 812.578 414.08C815.468 417.609 822.815 428.061 824.14 444.353ZM818.787 450.649C817.792 451.642 816.694 452.671 815.484 453.737C814.399 435.019 808.986 425.024 807.186 422.179C807.871 421.235 808.548 420.277 809.207 419.312C811.663 423.153 817.553 433.955 818.787 450.649ZM812.867 455.955C812.471 456.279 812.06 456.607 811.643 456.937C810.476 457.164 809.359 457.374 808.315 457.566C809.716 443.461 804.862 430.268 803.519 426.948C804.151 426.175 804.786 425.371 805.42 424.545C807.494 428.196 812.179 438.303 812.867 455.955ZM805.523 458.067C803.081 458.496 801.385 458.767 800.941 458.837C802.759 445.315 800.122 434.709 799.248 431.715C799.977 430.989 800.732 430.184 801.503 429.315C803.21 433.967 806.936 445.893 805.523 458.067ZM813.899 392.36C813.721 392.168 813.539 391.973 813.352 391.773C812.874 391.261 812.355 390.702 811.806 390.097C823.213 384.861 828.607 375.159 830.112 372.004C831.264 372.146 832.376 372.308 833.449 372.49C831.348 376.621 824.905 387.618 813.899 392.36ZM809.951 387.933C809.468 387.301 809.004 386.611 808.56 385.881C817.998 381.612 822.698 374.09 824.1 371.48C825.166 371.539 826.202 371.613 827.207 371.701C825.311 375.291 820.023 383.59 809.951 387.933ZM807.234 383.484C806.892 382.808 806.566 382.119 806.257 381.429C813.618 378.467 817.205 373.227 818.314 371.314C818.446 371.314 818.579 371.314 818.71 371.315C819.496 371.32 820.263 371.334 821.018 371.354C819.18 374.335 814.842 380.107 807.234 383.484ZM805.201 378.909C804.952 378.279 804.718 377.661 804.502 377.066C808.347 375.361 810.937 372.567 811.831 371.497C812.897 371.437 813.958 371.392 815.014 371.361C813.464 373.479 810.357 376.838 805.201 378.909ZM803.61 374.47C803.33 373.609 803.104 372.866 802.935 372.289C804.52 372.1 806.109 371.933 807.696 371.794C806.642 372.708 805.258 373.708 803.61 374.47ZM781.463 435.315C780.562 434.336 779.529 433.437 778.42 432.617C778.743 431.336 779.299 428.929 779.582 426.503C780.529 427.338 781.361 428.163 782.081 428.932C782.1 429.97 782.071 432.569 781.463 435.315ZM777.022 424.462C776.927 426.703 776.401 429.319 776.005 431.017C774.865 430.338 773.691 429.733 772.528 429.206L774.847 423.035C775.616 423.495 776.342 423.974 777.022 424.462ZM772.428 421.731L770.009 428.169C768.823 427.729 767.695 427.378 766.674 427.114L769.798 420.612C770.721 420.953 771.596 421.329 772.428 421.731ZM762.21 423.112C762.273 423.035 762.327 422.952 762.372 422.863L764.301 419.022C764.336 419.031 764.371 419.039 764.406 419.047L764.451 419.058C764.601 419.1 764.75 419.141 764.886 419.18C765.359 419.313 765.794 419.434 766.016 419.485C766.411 419.575 766.797 419.675 767.178 419.778L763.961 426.473C763.139 426.194 762.517 425.789 762.111 425.259C761.649 424.654 761.69 423.751 762.21 423.112ZM765.641 429.679C767.691 430.198 770.652 431.251 773.509 432.786C772.873 432.976 772.05 433.17 770.989 433.34C767.148 433.955 765.287 433.111 765.184 432.546C765.07 431.911 765.325 430.715 765.641 429.679ZM768.902 441.594C769.55 438.697 769.891 437.167 770.07 436.36C770.082 436.309 770.09 436.256 770.101 436.205C770.528 436.165 770.965 436.112 771.417 436.04C774.005 435.626 775.525 435.043 776.405 434.558C779.654 436.833 782.212 439.795 782.212 443.344C782.212 446.299 781.803 448.288 779.479 451.739C779.045 451.724 778.574 451.712 778.082 451.7L778.077 451.699C775.665 451.64 772.022 451.55 770.748 450.869C767.992 449.396 767.452 448.075 768.902 441.594ZM779.606 474.787L782.763 480.187L782.752 480.27C782.732 480.49 782.76 480.711 782.837 480.909L784.079 484.066L780.747 482.96C780.034 482.723 779.264 483.112 779.028 483.828C778.793 484.545 779.18 485.318 779.893 485.555L784.263 487.006L772.527 488.073L779.606 474.787ZM782.859 489.878L781.595 492.116C781.474 492.33 781.412 492.564 781.398 492.795L773.694 509.199C772.774 508.84 771.858 508.471 770.952 508.085C771.154 507.934 771.318 507.726 771.413 507.47L777.751 490.342L782.859 489.878ZM790.74 527.372C789.528 527.867 788.03 528.039 786.492 527.746C786.115 527.674 785.75 527.582 785.401 527.466C785.055 527.335 784.724 527.186 784.411 527.02C783.785 526.689 783.23 526.293 782.767 525.852C781.839 524.971 781.279 523.915 781.207 522.843C781.764 523.172 782.592 523.567 783.672 523.829C784.249 523.969 784.945 524.006 785.689 523.992C786.249 523.99 786.845 523.911 787.438 523.833L787.44 523.833C787.633 523.808 787.824 523.783 788.015 523.76L788.116 523.747H788.116C789.339 523.586 790.468 523.437 791.091 523.556C791.666 523.677 792.186 523.951 792.585 524.249C792.985 524.545 793.264 524.855 793.357 524.984C792.897 525.978 791.958 526.86 790.74 527.372ZM792.786 522.099C792.39 521.844 791.934 521.64 791.431 521.534C790.672 521.39 789.483 521.553 788.198 521.729L788.198 521.729L788.106 521.741C786.71 521.963 785.131 522.069 784.146 521.835C782.866 521.524 781.994 520.995 781.588 520.704C781.981 519.513 782.961 518.592 784.208 518.057C784.833 517.79 785.526 517.62 786.255 517.564C786.62 517.536 786.994 517.537 787.374 517.568L787.41 517.571C787.779 517.599 788.159 517.629 788.539 517.704C790.058 517.991 791.356 518.716 792.288 519.675C793.225 520.587 793.795 521.736 793.773 522.942C793.514 522.665 793.18 522.356 792.786 522.099ZM805.414 528.804C804.845 529.14 804.196 529.407 803.493 529.583C802.79 529.762 802.033 529.849 801.255 529.768C799.726 529.637 798.348 529.134 797.312 528.404C796.793 528.048 796.361 527.603 796.033 527.119C795.705 526.639 795.48 526.123 795.373 525.591C795.967 525.858 796.834 526.195 797.941 526.271C799.126 526.374 800.722 526 802.236 525.636C802.42 525.586 802.602 525.536 802.781 525.487C803.796 525.207 804.707 524.956 805.26 524.98C806.43 525.021 807.473 525.901 807.693 526.14C807.368 527.185 806.553 528.132 805.414 528.804ZM805.332 522.931C804.719 522.9 803.86 523.132 802.907 523.39C802.632 523.464 802.349 523.541 802.061 523.614C800.713 523.945 799.157 524.318 798.148 524.231C796.837 524.143 795.915 523.652 795.472 523.417L795.468 523.414C795.7 522.179 796.544 521.174 797.708 520.493C798.879 519.778 800.367 519.403 801.959 519.542C802.729 519.626 803.462 519.757 804.133 519.994C804.803 520.23 805.413 520.561 805.938 520.964C806.987 521.77 807.702 522.863 807.838 524.064C807.252 523.566 806.357 522.967 805.332 522.931ZM806.244 515.791C803.034 515.7 799.862 515.454 796.735 515.059L802.999 505.46L803.644 506.304C803.903 506.643 804.303 506.837 804.722 506.837C804.777 506.837 804.833 506.834 804.889 506.827C805.367 506.768 805.778 506.459 805.97 506.016L813.646 488.285C815.902 488.014 818.694 487.58 821.674 487.014C818.546 491.723 811.779 501.699 804.954 510.374C804.488 510.966 804.588 511.825 805.177 512.293C805.427 512.492 805.725 512.588 806.02 512.588C806.422 512.588 806.82 512.41 807.088 512.069C815.469 501.417 823.758 488.829 825.442 486.248C829.234 485.424 833.082 484.423 836.323 483.31C829.305 492.719 819.272 504.502 806.244 515.791ZM850.18 467.355L852.126 468.95C850.266 472.745 841.169 490.193 823.099 507.85C822.56 508.376 822.548 509.242 823.072 509.782C823.339 510.058 823.693 510.196 824.047 510.196C824.389 510.196 824.732 510.068 824.996 509.809C834.134 500.88 841.027 491.981 845.885 484.808L848.947 487.205C849.195 487.399 849.49 487.494 849.782 487.494C850.187 487.494 850.588 487.313 850.856 486.967C851.318 486.372 851.212 485.513 850.619 485.049L847.4 482.529C847.96 481.67 848.489 480.84 848.985 480.046L856.426 485.845C856.674 486.039 856.968 486.132 857.259 486.132C857.665 486.132 858.067 485.95 858.335 485.603C858.795 485.007 858.688 484.148 858.094 483.686L850.416 477.702C850.882 476.923 851.31 476.188 851.703 475.502L862.958 484.896C863.212 485.109 863.52 485.212 863.826 485.212C864.217 485.212 864.604 485.044 864.874 484.719C865.354 484.138 865.275 483.276 864.697 482.794L853.053 473.076C853.57 472.119 853.98 471.326 854.285 470.719L868.869 482.667L863.805 496.957L849.738 497.425C849.047 497.448 848.482 497.989 848.427 498.681L847.694 507.831C836.207 512.812 823.591 515.64 810.348 515.817C833.578 495.026 846.892 473.114 850.18 467.355ZM862.645 499.73C858.786 502.278 854.738 504.559 850.526 506.547L851.042 500.117L862.645 499.73ZM812.212 521.151C812.742 520.722 813.364 520.367 814.052 520.112C814.396 519.985 814.756 519.882 815.131 519.807C815.505 519.736 815.893 519.686 816.291 519.641C817.831 519.497 819.276 519.835 820.43 520.501C821.008 520.843 821.508 521.233 821.903 521.69C822.299 522.15 822.589 522.68 822.74 523.262C822.417 523.067 822.013 522.862 821.564 522.723C821.115 522.586 820.616 522.473 820.105 522.525C819.335 522.597 818.235 523.082 817.045 523.606L816.96 523.644C816.873 523.682 816.785 523.72 816.697 523.759C816.458 523.865 816.214 523.973 815.969 524.07C815.632 524.194 815.294 524.313 814.964 524.418C814.304 524.628 813.677 524.781 813.172 524.801C811.856 524.852 810.874 524.596 810.405 524.41C810.461 523.173 811.155 522.006 812.212 521.151ZM821.009 528.333C819.975 529.143 818.581 529.722 817.022 529.865C816.259 529.952 815.515 529.85 814.825 529.716C814.133 529.569 813.493 529.341 812.929 529.045C811.799 528.454 810.975 527.593 810.616 526.581C811.241 526.745 812.144 526.895 813.253 526.85C813.847 526.825 814.527 526.67 815.238 526.451L815.26 526.444C815.609 526.334 815.966 526.221 816.323 526.077L817.415 525.61L817.505 525.571C818.64 525.078 819.689 524.623 820.321 524.564C821.489 524.478 822.637 525.142 822.888 525.341C822.713 526.425 822.046 527.541 821.009 528.333ZM825.87 519.828C826.81 518.853 828.136 518.054 829.704 517.756C830.465 517.612 831.215 517.587 831.92 517.615C832.628 517.658 833.303 517.809 833.917 518.052C835.142 518.539 836.124 519.393 836.58 520.511C835.881 520.193 834.859 519.864 833.865 520.112C833.481 520.207 833.026 520.424 832.525 520.706C832.362 520.797 832.195 520.897 832.024 521C831.931 521.056 831.837 521.112 831.741 521.169L831.472 521.321L830.898 521.647C829.69 522.338 828.294 523.127 827.3 523.322C826.004 523.557 824.985 523.356 824.498 523.248C824.39 521.999 824.93 520.784 825.87 519.828ZM835.528 525.742C834.612 526.691 833.321 527.521 831.778 527.792C830.271 528.089 828.811 527.985 827.618 527.569C826.415 527.107 825.481 526.332 824.991 525.369C825.633 525.456 826.559 525.548 827.65 525.342C828.817 525.114 830.252 524.313 831.611 523.545C831.945 523.364 832.268 523.171 832.574 522.987L832.575 522.987C832.776 522.867 832.969 522.751 833.154 522.645C833.622 522.381 834.032 522.182 834.348 522.103C835.484 521.821 836.725 522.38 837.001 522.549C836.971 523.645 836.443 524.781 835.528 525.742ZM838.318 520.258C838.045 519.034 838.415 517.745 839.215 516.654C839.615 516.108 840.124 515.611 840.723 515.194C841.315 514.753 841.99 514.369 842.743 514.102C844.197 513.576 845.697 513.571 846.962 513.844C848.234 514.147 849.318 514.852 849.917 515.897C849.186 515.683 848.135 515.507 847.188 515.9C847.005 515.976 846.809 516.085 846.601 516.219C846.389 516.341 846.166 516.488 845.933 516.653C845.484 516.97 845.001 517.351 844.499 517.747L844.442 517.792L844.348 517.866L844.348 517.866C843.272 518.714 842.051 519.676 841.1 519.934C839.838 520.316 838.816 520.302 838.318 520.258ZM849.584 521.253C849.391 521.525 849.173 521.79 848.931 522.043C848.688 522.291 848.415 522.512 848.124 522.725C847.54 523.148 846.87 523.506 846.133 523.77C845.41 524.029 844.684 524.187 843.986 524.25C843.282 524.298 842.598 524.227 841.974 524.087C840.724 523.8 839.7 523.176 839.088 522.29C839.736 522.291 840.651 522.211 841.714 521.889C842.791 521.594 843.998 520.659 845.165 519.754L845.399 519.573C846.398 518.784 847.338 518.08 847.932 517.809C849.014 517.361 850.312 517.734 850.607 517.861C850.724 518.955 850.357 520.163 849.584 521.253ZM852.024 511.741C852.345 511.139 852.78 510.57 853.314 510.067C853.846 509.559 854.49 509.142 855.187 508.749C856.551 508.018 858.014 507.768 859.338 507.931C860.639 508.059 861.797 508.597 862.53 509.552C862.156 509.499 861.703 509.467 861.235 509.513C860.768 509.564 860.282 509.686 859.825 509.921C859.143 510.285 858.316 511.159 857.423 512.105L857.359 512.173C856.409 513.224 855.233 514.282 854.324 514.728C853.13 515.288 852.127 515.438 851.621 515.447C851.194 514.284 851.383 512.942 852.024 511.741ZM862.916 514.913C862.277 516.061 861.215 517.137 859.832 517.875C859.161 518.249 858.448 518.472 857.753 518.608C857.059 518.743 856.38 518.783 855.745 518.731C854.474 518.627 853.382 518.159 852.657 517.364C853.298 517.274 854.188 517.057 855.193 516.583C856.266 516.068 857.469 514.975 858.543 513.806L858.614 513.732C859.468 512.837 860.256 512.012 860.816 511.713C861.339 511.445 861.919 511.338 862.415 511.318C862.912 511.299 863.322 511.366 863.475 511.408C863.734 512.472 863.549 513.752 862.916 514.913ZM864.077 505.167C864.548 503.876 865.479 502.653 866.811 501.767C868.079 500.88 869.47 500.398 870.801 500.38C871.463 500.368 872.104 500.464 872.686 500.669C873.259 500.861 873.777 501.167 874.201 501.591C873.46 501.604 872.373 501.679 871.55 502.292C870.944 502.739 870.27 503.689 869.539 504.721L869.539 504.721L869.424 504.883C868.575 505.984 867.59 507.249 866.747 507.811C865.661 508.562 864.643 508.773 864.148 508.859C863.559 507.746 863.6 506.442 864.077 505.167ZM875.271 506.826C874.792 508.052 873.909 509.297 872.622 510.192C871.344 511.046 869.954 511.516 868.689 511.593C867.433 511.688 866.249 511.307 865.428 510.618C865.744 510.539 866.12 510.423 866.537 510.256C866.954 510.09 867.389 509.837 867.854 509.533C868.842 508.868 869.868 507.593 870.813 506.343L870.875 506.256L870.875 506.256C871.595 505.245 872.259 504.313 872.769 503.937C873.714 503.242 875.079 503.278 875.383 503.306C875.796 504.346 875.747 505.593 875.271 506.826ZM875.142 497.019C875.221 496.69 875.336 496.369 875.47 496.04C875.599 495.707 875.758 495.378 875.944 495.058C876.317 494.419 876.802 493.815 877.398 493.28C878.573 492.267 879.87 491.587 881.178 491.382C882.478 491.174 883.756 491.408 884.714 492.138C883.952 492.221 882.906 492.461 882.176 493.183C881.763 493.584 881.365 494.297 880.921 495.093C880.754 495.394 880.58 495.706 880.396 496.017C879.709 497.233 878.91 498.63 878.156 499.308C877.135 500.145 876.18 500.522 875.701 500.673C874.975 499.653 874.821 498.328 875.142 497.019ZM886.458 497.181C886.158 498.474 885.453 499.831 884.267 500.859C883.119 501.881 881.829 502.561 880.571 502.788C879.3 503.004 878.11 502.823 877.2 502.245C877.801 501.997 878.621 501.573 879.48 500.868C880.367 500.072 881.193 498.646 881.97 497.286L882.433 496.483L882.848 495.729C883.116 495.262 883.368 494.881 883.601 494.651C884.435 493.826 885.785 493.673 886.108 493.677C886.637 494.637 886.758 495.885 886.458 497.181ZM898.738 364.276C899.168 364.946 900.077 365.782 901.076 366.668C902.141 367.593 903.26 368.72 903.746 369.612C904.373 370.776 904.493 371.812 904.542 372.31C903.39 372.792 902.07 372.646 900.872 372.037C899.632 371.447 898.539 370.379 897.75 368.98C896.979 367.629 896.691 366.155 896.763 364.844C896.852 363.525 897.367 362.329 898.293 361.56C898.203 362.323 898.2 363.399 898.738 364.276ZM903.158 377.048C903.416 375.752 904.079 374.631 905.094 373.986C904.907 374.731 904.767 375.798 905.189 376.737C905.528 377.456 906.33 378.398 907.202 379.408C908.138 380.463 909.109 381.723 909.47 382.673C909.946 383.908 909.927 384.951 909.91 385.451C908.703 385.779 907.422 385.457 906.306 384.701C905.734 384.327 905.205 383.842 904.75 383.263C904.293 382.685 903.922 382.009 903.607 381.271C903.312 380.552 903.139 379.82 903.076 379.103C903.016 378.385 903.024 377.699 903.158 377.048ZM907.564 391.983C907.588 391.267 907.698 390.587 907.915 389.961C908.342 388.712 909.153 387.688 910.238 387.185C909.96 387.897 909.674 388.938 909.967 389.924C910.075 390.306 910.326 390.749 910.609 391.244C910.882 391.719 911.216 392.235 911.562 392.769L911.563 392.77L911.607 392.838C912.39 394.01 913.195 395.388 913.414 396.38C913.715 397.669 913.57 398.697 913.475 399.192C912.23 399.351 911.022 398.854 910.003 397.957C909.489 397.509 909.032 396.957 908.661 396.323C908.476 396.006 908.312 395.668 908.173 395.312C908.026 394.957 907.894 394.587 907.795 394.199C907.601 393.448 907.529 392.701 907.564 391.983ZM913.32 434.941C913.433 435.635 913.553 436.379 913.624 437.078C913.708 437.778 913.666 438.417 913.57 438.915C913.294 440.21 912.789 441.102 912.51 441.519C911.311 441.167 910.367 440.219 909.801 438.988C909.519 438.372 909.331 437.684 909.257 436.955C909.169 436.223 909.151 435.443 909.284 434.652C909.408 433.885 909.642 433.17 909.961 432.526C910.119 432.204 910.308 431.9 910.497 431.614C910.68 431.327 910.883 431.06 911.102 430.817C911.978 429.843 913.114 429.231 914.314 429.21C913.776 429.75 913.117 430.589 913.004 431.612C912.922 432.403 913.095 433.623 913.32 434.941ZM913.058 426.78C912.548 426.41 912.089 425.92 911.719 425.347C910.972 424.198 910.575 422.718 910.654 421.115C910.677 418.025 912.591 415.429 914.919 415.051C914.687 415.353 914.454 415.735 914.25 416.169C914.046 416.604 913.901 417.09 913.896 417.605C913.888 418.381 914.257 419.531 914.656 420.774L914.686 420.866C914.919 421.539 915.082 422.259 915.232 422.941C915.373 423.622 915.461 424.264 915.43 424.771C915.349 426.092 914.997 427.046 914.741 427.493C914.125 427.4 913.558 427.149 913.058 426.78ZM915.373 412.214C915.29 412.688 915.178 413.055 915.094 413.294C913.838 413.274 912.726 412.609 911.825 411.578C910.927 410.545 910.37 409.138 910.17 407.552C910.083 406.782 910.127 406.033 910.253 405.329C910.364 404.627 910.579 403.968 910.879 403.379C911.483 402.203 912.421 401.302 913.558 400.955C913.205 401.618 912.759 402.612 912.915 403.627C912.973 404.02 913.143 404.496 913.374 405.023C913.589 405.553 913.856 406.137 914.135 406.742L914.247 406.986C914.506 407.552 914.779 408.146 914.99 408.717C915.219 409.373 915.391 409.996 915.427 410.503C915.475 411.162 915.439 411.741 915.373 412.214ZM908.46 444.323C909.475 443.481 910.694 443.029 911.889 443.169C911.274 443.63 910.495 444.37 910.231 445.364C910.077 445.907 910.096 446.703 910.117 447.592C910.126 447.954 910.135 448.332 910.132 448.714C910.153 450.111 910.168 451.722 909.859 452.69C909.418 453.937 908.768 454.742 908.435 455.117C907.295 454.608 906.495 453.545 906.114 452.255C905.937 451.614 905.807 450.894 905.808 450.155C905.807 449.414 905.921 448.647 906.165 447.884C906.671 446.415 907.433 445.165 908.46 444.323ZM907.602 456.671C907.273 456.859 906.911 457.12 906.559 457.442C906.203 457.763 905.88 458.154 905.677 458.627C905.369 459.339 905.264 460.542 905.151 461.843L905.143 461.939C904.988 463.331 904.752 464.911 904.311 465.826C904.018 466.418 903.702 466.903 903.399 467.272C903.084 467.636 902.8 467.894 902.605 468.055C902.074 467.727 901.648 467.273 901.33 466.737C901.171 466.468 901.04 466.179 900.935 465.875C900.821 465.565 900.733 465.239 900.673 464.901C900.432 463.551 900.624 462.025 901.331 460.587C901.951 459.165 902.932 458.054 904.067 457.36C905.215 456.674 906.438 456.372 907.602 456.671ZM901.554 469.473C900.846 469.757 899.936 470.285 899.414 471.17C899.007 471.83 898.731 473.003 898.433 474.271L898.433 474.272L898.412 474.361C898.369 474.535 898.327 474.714 898.284 474.895C898.161 475.42 898.035 475.961 897.855 476.442C897.627 477.098 897.373 477.692 897.087 478.111C896.34 479.201 895.536 479.83 895.121 480.107C894.154 479.313 893.647 478.065 893.595 476.704C893.57 476.023 893.66 475.312 893.869 474.607C893.973 474.255 894.108 473.904 894.272 473.558C894.425 473.205 894.601 472.853 894.812 472.512C895.621 471.188 896.776 470.239 897.982 469.697C899.162 469.142 900.442 469.022 901.554 469.473ZM893.879 481.362C893.139 481.55 892.142 481.932 891.522 482.752C891.062 483.399 890.596 484.541 890.114 485.785L890.026 486.009C889.534 487.257 888.986 488.649 888.318 489.335C887.424 490.307 886.536 490.817 886.084 491.033C885.23 490.118 884.897 488.819 885.035 487.471C885.104 486.797 885.292 486.109 885.598 485.443C885.878 484.755 886.272 484.086 886.786 483.471C887.284 482.876 887.849 482.382 888.452 481.992C889.065 481.609 889.657 481.283 890.291 481.096C891.543 480.71 892.835 480.767 893.879 481.362ZM894.591 490.074C894.098 490.664 893.552 491.169 892.982 491.579C892.407 491.985 891.777 492.268 891.17 492.467C889.948 492.857 888.751 492.842 887.775 492.391C888.334 492.061 889.082 491.525 889.835 490.706C890.597 489.92 891.152 488.54 891.693 487.195C891.727 487.109 891.762 487.024 891.796 486.938L891.839 486.832C892.31 485.65 892.748 484.552 893.127 484.018C893.835 483.082 895.145 482.744 895.464 482.704C896.764 484.447 896.655 487.686 894.591 490.074ZM903.418 478.019C903.216 478.347 902.997 478.655 902.767 478.942C902.53 479.225 902.267 479.478 902.003 479.714C901.472 480.183 900.905 480.561 900.33 480.839C899.179 481.395 897.997 481.543 896.974 481.228C897.48 480.823 898.143 480.187 898.771 479.268C899.108 478.776 899.392 478.137 899.644 477.434C899.841 476.88 899.989 476.268 900.137 475.66C900.176 475.495 900.216 475.331 900.257 475.168L900.281 475.069C900.57 473.865 900.838 472.753 901.171 472.212C901.764 471.199 902.989 470.673 903.303 470.593C904.069 471.382 904.529 472.565 904.595 473.905C904.62 475.218 904.242 476.683 903.418 478.019ZM910.589 464.897C909.22 467.672 906.763 469.319 904.596 468.922C904.827 468.691 905.103 468.406 905.367 468.044C905.624 467.68 905.888 467.248 906.133 466.748C906.396 466.213 906.585 465.537 906.735 464.803C906.876 464.065 907.017 463.287 907.074 462.491L907.084 462.391C907.198 461.152 907.304 460.009 907.557 459.424C907.79 458.883 908.205 458.45 908.601 458.134C908.98 457.812 909.339 457.608 909.486 457.547C909.919 457.888 910.291 458.336 910.587 458.866C910.869 459.389 911.065 459.99 911.171 460.643C911.38 461.945 911.22 463.458 910.589 464.897ZM915.914 450.912C915.442 452.38 914.658 453.619 913.706 454.462C912.717 455.295 911.598 455.745 910.521 455.709C910.911 455.188 911.42 454.412 911.788 453.36C912.151 452.222 912.145 450.572 912.131 449.005L912.128 448.667L912.122 448.077C912.109 447.774 912.099 447.484 912.096 447.214C912.091 446.675 912.116 446.218 912.2 445.902C912.502 444.766 913.588 443.945 913.868 443.784C914.808 444.34 915.545 445.354 915.941 446.623C916.332 447.889 916.42 449.422 915.914 450.912ZM919.347 436.344C919.224 437.105 919.012 437.82 918.731 438.465C918.422 439.105 918.038 439.674 917.613 440.154C916.759 441.116 915.721 441.714 914.653 441.824C914.967 441.255 915.339 440.411 915.571 439.32C915.841 438.194 915.594 436.617 915.357 435.106L915.334 434.961C915.126 433.7 914.968 432.533 915.027 431.881C915.156 430.713 916.106 429.752 916.36 429.554C917.37 429.98 918.247 430.887 918.826 432.094C919.127 432.699 919.314 433.371 919.396 434.088C919.483 434.806 919.473 435.569 919.347 436.344ZM919.608 425.459C918.905 426.526 917.982 427.26 916.912 427.51C917.181 426.907 917.39 426.017 917.467 424.905C917.502 424.309 917.417 423.613 917.272 422.879C917.129 422.144 916.933 421.372 916.679 420.617L916.648 420.516C916.275 419.333 915.931 418.241 915.936 417.604C915.942 417.015 916.157 416.454 916.399 416.008C916.629 415.563 916.88 415.234 916.993 415.12C917.523 415.265 918.039 415.532 918.514 415.905C918.974 416.277 919.389 416.753 919.738 417.313C920.437 418.43 920.869 419.883 920.852 421.455C920.781 422.994 920.303 424.394 919.608 425.459ZM918.653 402.505C919.085 403.01 919.465 403.606 919.762 404.272C920.037 404.942 920.23 405.682 920.316 406.465C920.505 408.002 920.208 409.461 919.657 410.616C919.38 411.194 919.036 411.697 918.632 412.104C918.216 412.512 917.749 412.823 917.245 413.019C917.423 412.384 917.547 411.471 917.463 410.357C917.42 409.761 917.244 409.082 917.004 408.374C916.737 407.668 916.406 406.932 916.081 406.216C915.823 405.653 915.586 405.108 915.376 404.625L915.375 404.625L915.357 404.582C915.14 404.089 914.982 403.66 914.935 403.336C914.76 402.174 915.449 400.983 915.622 400.726C916.725 400.857 917.785 401.496 918.653 402.505ZM916.829 389.607C917.197 390.229 917.493 390.933 917.689 391.695C917.786 392.068 917.857 392.44 917.904 392.807C917.943 393.176 917.952 393.541 917.942 393.896C917.921 394.606 917.81 395.28 917.619 395.89C917.252 397.109 916.498 398.084 915.564 398.612C915.64 397.961 915.662 397.034 915.409 395.947C915.28 395.364 915.008 394.718 914.668 394.052C914.396 393.516 914.051 392.974 913.709 392.438C913.625 392.306 913.542 392.175 913.459 392.044L913.412 391.97C913.086 391.46 912.772 390.969 912.517 390.528C912.24 390.069 912.018 389.667 911.927 389.353C911.594 388.226 912.094 386.957 912.25 386.672C913.341 386.656 914.497 387.136 915.494 388.013C915.987 388.452 916.464 388.983 916.829 389.607ZM913.077 377.453C914.221 380.327 913.635 383.289 911.9 384.59C911.876 383.938 911.788 383.012 911.387 381.972C910.97 380.853 909.971 379.56 908.931 378.372L908.84 378.265C908.052 377.335 907.325 376.479 907.056 375.91C906.575 374.838 906.902 373.515 907.018 373.213C909.16 372.882 911.916 374.516 913.077 377.453ZM906.652 363.97C907.412 365.306 907.712 366.757 907.674 368.025C907.623 369.302 907.163 370.436 906.403 371.194C906.289 370.554 906.089 369.644 905.556 368.666C904.993 367.616 903.843 366.461 902.658 365.418C901.712 364.565 900.839 363.767 900.486 363.217C899.872 362.216 900.028 360.863 900.105 360.549C902.193 359.945 905.123 361.216 906.652 363.97ZM891.679 348.851C893.681 347.992 896.738 348.893 898.596 351.429C899.509 352.662 899.991 354.058 900.111 355.32C900.212 356.597 899.904 357.775 899.243 358.624C899.05 358.004 898.736 357.128 898.089 356.223C897.396 355.254 896.117 354.251 894.811 353.364C893.765 352.638 892.804 351.952 892.385 351.45C891.653 350.533 891.641 349.172 891.679 348.851ZM893.396 354.802C893.685 355.005 893.984 355.215 894.279 355.421C894.566 355.639 894.85 355.861 895.117 356.083C895.651 356.528 896.119 356.974 896.411 357.389C897.172 358.469 897.428 359.477 897.537 359.966C896.455 360.59 895.126 360.612 893.859 360.159C892.562 359.723 891.333 358.806 890.382 357.511C888.553 355.011 888.356 351.855 890.005 350.079C890.008 350.846 890.139 351.914 890.781 352.718C891.29 353.329 892.292 354.049 893.396 354.802ZM889.073 339.987C890.127 341.1 890.777 342.422 891.049 343.661C891.302 344.918 891.142 346.122 890.59 347.046C890.323 346.455 889.901 345.627 889.153 344.806C888.346 343.931 886.956 343.09 885.551 342.37C884.424 341.779 883.388 341.214 882.911 340.768C882.073 339.948 881.896 338.598 881.895 338.275C883.779 337.176 886.921 337.698 889.073 339.987ZM884.322 343.971C884.949 344.291 885.603 344.653 886.185 345.032C886.77 345.408 887.289 345.793 887.629 346.169C888.513 347.15 888.893 348.116 889.061 348.588C888.063 349.341 886.746 349.527 885.432 349.233C884.095 348.956 882.758 348.201 881.659 347.029C879.539 344.772 878.962 341.662 880.382 339.698C880.479 340.459 880.738 341.503 881.473 342.222C882.052 342.767 883.134 343.359 884.322 343.971ZM878.23 329.795C879.413 330.769 880.219 332.004 880.639 333.2C881.044 334.416 881.031 335.631 880.595 336.617C880.258 336.062 879.74 335.292 878.896 334.569C877.99 333.798 876.506 333.136 875.025 332.594C873.835 332.144 872.736 331.714 872.209 331.329C871.277 330.619 870.936 329.301 870.895 328.98C872.627 327.657 875.814 327.786 878.23 329.795ZM870.96 332.951C871.601 333.419 872.748 333.872 874 334.334C874.662 334.574 875.356 334.852 875.979 335.157C876.605 335.458 877.167 335.777 877.549 336.109C878.547 336.974 879.041 337.886 879.265 338.334C878.366 339.204 877.081 339.549 875.742 339.419C874.381 339.309 872.964 338.722 871.73 337.696C870.522 336.718 869.725 335.445 869.321 334.196C868.931 332.934 868.982 331.633 869.569 330.58C869.758 331.324 870.143 332.328 870.96 332.951ZM866.196 321.023C867.5 321.835 868.449 322.968 869.017 324.101C869.575 325.252 869.709 326.466 869.399 327.497C868.995 326.99 868.39 326.283 867.458 325.678C866.465 325.022 864.905 324.558 863.369 324.205L863.282 324.184C862.082 323.89 860.972 323.619 860.414 323.311C859.4 322.724 858.895 321.459 858.813 321.145C860.357 319.616 863.545 319.328 866.196 321.023ZM857.703 322.903C857.986 323.618 858.494 324.565 859.382 325.079C860.075 325.463 861.274 325.756 862.57 326.062C863.944 326.366 865.464 326.821 866.313 327.375C867.414 328.102 868.012 328.952 868.291 329.367C867.506 330.342 866.275 330.845 864.932 330.882C863.564 330.953 862.096 330.537 860.74 329.685C859.426 328.863 858.473 327.712 857.916 326.524C857.371 325.322 857.256 324.024 857.703 322.903ZM854.882 330.713C886.626 347.674 906.849 381.272 906.849 417.543C906.849 450.095 891.031 478.996 866.686 496.893L871.092 484.501L872.715 485.825C873.299 486.301 874.158 486.213 874.633 485.629C874.677 485.576 874.712 485.519 874.746 485.461L874.754 485.467L874.766 485.476C892.383 468.25 903.287 444.188 903.287 417.599C903.287 383.301 884.359 351.484 854.882 334.846V330.713ZM853.041 363.401C851.617 364.845 849.207 367.279 847.895 368.546C847.354 369.069 847.337 369.934 847.858 370.478C848.125 370.757 848.481 370.897 848.838 370.897C849.178 370.897 849.518 370.771 849.781 370.516C851.441 368.913 854.709 365.596 855.773 364.514C856.455 364.81 857.135 365.118 857.811 365.441C856.434 366.839 853.819 369.482 852.43 370.823C851.889 371.347 851.872 372.212 852.393 372.756C852.66 373.035 853.016 373.175 853.373 373.175C853.713 373.175 854.053 373.048 854.316 372.794C856.036 371.133 859.49 367.624 860.421 366.677C861.002 366.977 861.753 367.396 862.643 367.956C861.649 369.083 859.41 371.509 857.201 373.119C856.593 373.563 856.458 374.417 856.899 375.028C857.166 375.396 857.58 375.592 858.002 375.592C858.279 375.592 858.558 375.507 858.8 375.331C861.438 373.407 863.999 370.56 864.913 369.502C865.711 370.085 866.567 370.753 867.473 371.519C866.302 372.528 864.043 374.397 861.813 375.801C861.176 376.201 860.984 377.045 861.383 377.684C861.641 378.098 862.084 378.326 862.537 378.326C862.783 378.326 863.033 378.258 863.258 378.117C865.851 376.484 868.397 374.338 869.523 373.353C870.077 373.875 870.644 374.43 871.221 375.021C870.128 375.84 868.031 377.349 865.96 378.495C865.302 378.859 865.063 379.69 865.425 380.351C865.673 380.803 866.138 381.059 866.618 381.059C866.84 381.059 867.065 381.004 867.273 380.889C869.671 379.563 872.027 377.838 873.092 377.029C873.662 377.67 874.239 378.345 874.82 379.055C873.383 379.911 871.383 381.015 870.298 381.292C869.57 381.478 869.13 382.221 869.315 382.953C869.471 383.572 870.025 383.983 870.632 383.983C870.743 383.983 870.856 383.97 870.968 383.941C872.55 383.537 875.077 382.093 876.518 381.221C876.788 381.579 877.057 381.943 877.328 382.316L877.339 382.332C877.272 382.365 877.202 382.4 877.135 382.433C877.109 382.446 877.083 382.459 877.057 382.472L877.055 382.473C875.618 383.19 874.262 383.867 873.545 384.009C872.808 384.154 872.328 384.872 872.473 385.613C872.6 386.265 873.169 386.717 873.806 386.717C873.893 386.717 873.981 386.708 874.07 386.691C875.146 386.478 876.524 385.79 878.269 384.919C878.315 384.896 878.364 384.872 878.413 384.848C878.462 384.823 878.512 384.799 878.56 384.775C878.564 385.015 878.528 385.256 878.434 385.487C878.218 386.018 877.777 386.407 877.225 386.555C870.417 388.374 865.877 384.383 865.691 384.216L865.685 384.211C865.678 384.205 865.67 384.199 865.663 384.194L865.656 384.188C865.649 384.183 865.641 384.178 865.634 384.172L865.616 384.157C865.6 384.144 865.584 384.13 865.568 384.118C865.55 384.104 865.533 384.091 865.514 384.079C864.615 383.495 863.724 382.907 862.834 382.319C857.027 378.483 851.1 374.575 842.657 371.912C842.585 371.859 842.508 371.812 842.424 371.772C842.227 371.679 842.019 371.644 841.815 371.649C840.041 371.118 838.153 370.644 836.138 370.234C836.13 370.229 836.121 370.224 836.112 370.219L836.102 370.213C836.068 370.193 836.035 370.173 835.997 370.157C835.764 370.058 835.52 370.035 835.286 370.067C833.568 369.739 831.754 369.46 829.835 369.235C829.825 369.23 829.817 369.224 829.807 369.22C829.564 369.122 829.31 369.103 829.069 369.145C827.389 368.963 825.624 368.825 823.774 368.729C823.515 368.636 823.247 368.625 822.995 368.687C821.621 368.627 820.2 368.591 818.727 368.582C818.517 368.581 818.307 368.58 818.096 368.58C799.415 368.58 778.329 373.727 766.333 377.163C768.086 376.294 769.97 375.297 771.995 374.152C777.268 371.173 782.309 368.588 787.08 366.41C785.694 367.691 784.426 368.844 783.845 369.322C783.264 369.8 783.178 370.661 783.654 371.245C783.923 371.575 784.313 371.746 784.708 371.746C785.011 371.746 785.315 371.645 785.568 371.437C787.248 370.056 793.976 363.696 794.262 363.426C794.282 363.407 794.299 363.386 794.316 363.365C794.326 363.354 794.335 363.342 794.345 363.331C795.202 362.996 796.049 362.677 796.884 362.374C794.995 364.24 793.171 366.005 792.461 366.588C791.88 367.066 791.794 367.927 792.27 368.512C792.539 368.842 792.93 369.013 793.324 369.013C793.627 369.013 793.932 368.911 794.185 368.704C795.716 367.445 801.351 361.779 802.65 360.469C803.394 360.249 804.13 360.042 804.853 359.85C802.595 362.097 800.12 364.519 799.264 365.222C798.682 365.7 798.597 366.561 799.073 367.145C799.342 367.475 799.732 367.646 800.126 367.646C800.429 367.646 800.734 367.545 800.987 367.337C802.684 365.942 809.427 359.128 809.713 358.839C809.736 358.816 809.755 358.791 809.774 358.766C809.783 358.754 809.792 358.742 809.801 358.73C810.271 358.643 810.733 358.565 811.192 358.492C809.123 360.729 806.81 363.189 806.024 363.891C805.463 364.393 805.412 365.256 805.911 365.821C806.18 366.124 806.553 366.279 806.928 366.279C807.25 366.279 807.572 366.165 807.832 365.934C809.167 364.742 813.953 359.525 815.331 358.017C816.013 357.971 816.68 357.944 817.332 357.935C815.235 360.169 812.461 363.072 811.508 363.855C810.927 364.333 810.841 365.194 811.317 365.778C811.586 366.108 811.976 366.279 812.371 366.279C812.674 366.279 812.978 366.178 813.231 365.97C814.789 364.69 819.917 359.169 821.039 357.955C821.965 357.972 822.92 357.998 823.899 358.035C821.582 360.348 818.796 363.084 817.857 363.855C817.276 364.333 817.19 365.194 817.666 365.778C817.935 366.108 818.325 366.279 818.72 366.279C819.022 366.279 819.327 366.178 819.58 365.97C821.039 364.771 826.017 359.78 827.563 358.222C828.331 358.273 829.11 358.332 829.9 358.399C828.196 360.115 825.877 362.439 824.729 363.548C824.188 364.071 824.171 364.936 824.691 365.48C824.959 365.759 825.315 365.9 825.672 365.9C826.011 365.9 826.351 365.773 826.615 365.518C828.235 363.954 832.017 360.14 833.39 358.754C834.255 358.856 835.13 358.971 836.012 359.099C834.463 360.663 832.322 362.815 831.17 363.928C830.629 364.451 830.612 365.316 831.133 365.86C831.4 366.139 831.756 366.279 832.113 366.279C832.452 366.279 832.792 366.153 833.056 365.898C834.666 364.342 838.058 360.911 839.314 359.638C840.259 359.809 841.211 359.997 842.166 360.204C840.605 361.782 838.283 364.118 837.066 365.294C836.524 365.818 836.507 366.683 837.028 367.227C837.295 367.506 837.652 367.646 838.009 367.646C838.348 367.646 838.688 367.519 838.951 367.264C840.59 365.682 844.074 362.156 845.275 360.938C846.166 361.168 847.06 361.414 847.954 361.679C846.519 363.133 844.19 365.484 842.907 366.723C842.365 367.247 842.349 368.112 842.869 368.656C843.136 368.935 843.493 369.075 843.85 369.075C844.189 369.075 844.529 368.948 844.793 368.694C846.493 367.052 849.888 363.604 850.864 362.611C851.591 362.861 852.317 363.125 853.041 363.401ZM848.986 298.276C849.253 298.39 849.416 298.49 849.577 298.589C849.642 298.629 849.706 298.669 849.777 298.709C851.247 299.545 852.161 301.113 852.161 302.801V351.522C851.818 351.421 850.957 351.296 849.969 351.152L849.968 351.152C849.649 351.105 849.318 351.057 848.986 351.007V298.276ZM843.091 295.716C844.269 296.087 845.072 296.442 845.886 296.801L845.891 296.804C846.015 296.858 846.14 296.913 846.266 296.969L846.265 350.59L845.992 350.546L845.991 350.546C845.171 350.412 844.314 350.273 843.091 350.13V295.716ZM837.195 293.93C838.359 294.19 839.103 294.421 839.944 294.683C840.086 294.727 840.231 294.772 840.381 294.818L840.37 349.757L840.313 349.749L840.312 349.749C839.424 349.616 838.527 349.481 837.195 349.347V293.93ZM831.3 292.656C832.66 292.857 833.567 293.067 834.474 293.287V349.017C833.795 348.92 832.983 348.835 832.133 348.746C831.849 348.716 831.56 348.686 831.27 348.654C831.27 348.383 831.3 292.656 831.3 292.656ZM828.579 292.201C828.579 292.201 828.579 348.073 828.571 348.366L828.089 348.317C827.203 348.226 826.342 348.139 825.41 348.055L825.404 291.761C826.765 291.897 827.672 292.044 828.579 292.201ZM819.509 291.177C820.87 291.261 821.777 291.355 822.683 291.459L822.697 347.833C822.428 347.811 822.178 347.789 821.934 347.768C821.208 347.705 820.528 347.646 819.509 347.588V291.177ZM813.614 290.847C814.974 290.886 815.881 290.937 816.788 290.996V347.409C815.881 347.345 814.974 347.286 813.614 347.236V290.847ZM765.997 303.472C765.997 301.143 767.357 298.973 769.171 297.762V340.161C769.171 340.916 769.78 341.528 770.532 341.528C771.283 341.528 771.892 340.916 771.892 340.161V296.352C776.881 294.218 785.043 291.675 799.102 290.942V317.839C799.102 318.593 799.711 319.205 800.462 319.205C801.214 319.205 801.823 318.593 801.823 317.839V290.827L802.635 290.806C803.57 290.781 804.283 290.763 804.997 290.751V332.416C804.997 333.171 805.606 333.783 806.358 333.783C807.109 333.783 807.718 333.171 807.718 332.416V290.735C809.079 290.737 809.986 290.751 810.893 290.771V347.121C808.625 347.04 806.346 346.994 804.108 346.994C785.294 346.994 770.985 349.582 765.997 350.546V303.472ZM765.997 364.076C767.811 363.825 772.037 363.341 777.01 363.079C777.76 363.039 778.366 362.396 778.327 361.643C778.287 360.888 777.601 360.31 776.853 360.349C772.089 360.6 768.343 361.042 766.068 361.31L765.997 361.319V358.857C768.718 358.374 776.323 357.143 782.012 356.786C782.762 356.739 783.361 356.09 783.314 355.337C783.267 354.583 782.577 354.01 781.828 354.058C776.233 354.409 769.171 355.546 765.997 356.083V353.335C770.078 352.512 784.692 349.727 804.108 349.727C824.162 349.727 847.172 353.4 852.161 354.294V360.213C845.812 357.956 839.341 356.692 833.332 356C833.129 355.927 832.943 355.905 832.732 355.931C830.879 355.729 829.086 355.579 827.34 355.47C827.204 355.439 827.072 355.432 826.933 355.443C823.629 355.248 820.554 355.194 817.808 355.194C816.787 355.194 815.731 355.241 814.641 355.328C814.636 355.328 814.633 355.329 814.629 355.329L814.616 355.33C810.744 355.643 806.439 356.504 801.752 357.894C801.624 357.913 801.5 357.949 801.38 358.004C794.729 360.008 787.32 363.071 779.303 367.134C779.15 367.074 778.927 367.038 778.753 367.038C773.279 367.038 768.425 365.761 766.11 365.151L766.109 365.151L765.997 365.121V364.076ZM763.524 366.708C763.677 367.035 763.954 367.296 764.309 367.419C764.535 367.498 768.932 369.001 774.661 369.562C773.342 370.273 772.01 371.008 770.662 371.77C753.515 381.458 747.013 380.08 746.975 380.071C746.911 380.053 746.841 380.04 746.774 380.031C746.153 379.955 744.262 379.506 743.75 378.487C743.475 377.941 743.617 377.163 744.171 376.174C745.926 373.042 756.357 368.927 763.524 366.708ZM763.276 330.521V334.639C733.799 351.222 714.617 383.038 714.617 417.599C714.617 449.375 730.298 477.546 754.261 494.747C754.275 494.758 754.291 494.768 754.307 494.779C754.317 494.785 754.328 494.792 754.338 494.799C754.354 494.809 754.37 494.819 754.385 494.829C754.395 494.836 754.405 494.843 754.415 494.85C754.43 494.838 754.452 494.826 754.467 494.814C754.646 494.897 754.843 494.942 755.037 494.942C755.374 494.942 755.714 494.817 755.977 494.565C758.294 492.345 759.63 491.171 760.475 490.484C759.463 493.166 758.282 496.18 757.552 497.642C757.216 498.317 757.488 499.137 758.159 499.476C758.355 499.574 758.563 499.621 758.768 499.621C759.266 499.621 759.747 499.344 759.985 498.866C761.398 496.033 764.251 488.151 764.837 486.52C765.719 485.525 766.915 484.143 768.605 482.175C771.651 478.628 774.352 476.265 776.57 474.691L768.938 489.017C768.702 489.46 768.727 489.998 769.003 490.417C769.256 490.801 769.684 491.029 770.137 491.029C770.178 491.029 770.219 491.027 770.26 491.023L774.747 490.615L768.862 506.519C768.787 506.722 768.768 506.931 768.789 507.134C734.834 491.691 711.077 457.342 711.077 417.543C711.077 381.01 731.531 347.428 763.276 330.521ZM728.994 348.852C729.746 348.712 730.742 348.368 731.432 347.605C731.913 347.074 732.355 346.084 732.839 345.001L732.839 345.001C732.869 344.933 732.9 344.864 732.93 344.796C732.953 344.745 732.976 344.693 732.999 344.642L733.104 344.422C733.676 343.215 734.312 341.871 734.995 341.202C735.936 340.275 736.848 339.811 737.31 339.618C738.117 340.575 738.383 341.89 738.176 343.233C737.954 344.565 737.309 345.977 736.199 347.139C735.131 348.272 733.857 349.03 732.553 349.321C731.283 349.639 730 349.509 728.994 348.852ZM759.94 326.447C759.677 327.076 759.286 327.663 758.81 328.231C758.333 328.798 757.752 329.31 757.073 329.735C755.762 330.562 754.349 330.988 753.014 330.948C751.705 330.943 750.493 330.504 749.677 329.621C750.44 329.669 751.488 329.578 752.343 329.009C752.918 328.628 753.559 327.818 754.263 326.928L754.263 326.928C754.369 326.795 754.476 326.66 754.584 326.524C754.655 326.439 754.727 326.352 754.799 326.264C755.633 325.255 756.55 324.145 757.362 323.686C758.502 323.022 759.498 322.799 759.993 322.726C760.536 323.856 760.469 325.197 759.94 326.447ZM748.805 324.329C749.334 323.129 750.265 321.923 751.591 321.091C754.183 319.422 757.206 319.484 758.782 320.924C758.152 321.073 757.281 321.363 756.321 321.923C755.359 322.475 754.393 323.632 753.455 324.756C753.413 324.806 753.371 324.857 753.329 324.907C753.302 324.94 753.275 324.972 753.248 325.004L753.13 325.155C752.387 326.102 751.705 326.972 751.19 327.317C750.217 327.971 748.886 327.925 748.566 327.861C748.21 326.824 748.288 325.55 748.805 324.329ZM748.541 334.148C748.159 335.442 747.348 336.763 746.106 337.78C744.91 338.773 743.553 339.367 742.225 339.499C740.925 339.659 739.667 339.372 738.748 338.598C739.511 338.55 740.544 338.332 741.319 337.657C741.862 337.188 742.424 336.255 743.037 335.235C743.102 335.127 743.167 335.018 743.234 334.909L743.371 334.691C744.084 333.567 744.876 332.317 745.633 331.74C746.68 330.937 747.641 330.588 748.124 330.453C748.807 331.503 748.911 332.842 748.541 334.148ZM737.228 333.455C737.603 332.198 738.379 330.893 739.584 329.897C741.945 327.921 744.941 327.592 746.692 328.822C746.086 329.05 745.258 329.448 744.377 330.124C743.47 330.824 742.625 332.149 741.813 333.423L741.813 333.423L741.719 333.57L741.671 333.652L741.671 333.652C741.034 334.718 740.445 335.705 739.965 336.123C739.084 336.896 737.754 337.012 737.43 336.989C736.948 336.004 736.871 334.734 737.228 333.455ZM726.863 343.934C727.082 342.64 727.694 341.25 728.768 340.115C730.87 337.866 733.8 337.172 735.689 338.176C735.115 338.476 734.343 338.973 733.551 339.753C732.737 340.559 732.06 341.977 731.409 343.341L731.409 343.341L731.333 343.499L731.297 343.58C730.794 344.719 730.329 345.772 729.903 346.247C729.12 347.121 727.816 347.4 727.491 347.416C726.893 346.497 726.661 345.245 726.863 343.934ZM727.688 350.039C728.605 350.891 729.029 352.164 728.986 353.523C728.927 354.873 728.455 356.351 727.497 357.642C726.569 358.892 725.404 359.803 724.144 360.252C722.917 360.719 721.633 360.75 720.554 360.221C721.284 359.99 722.225 359.524 722.822 358.685C723.223 358.119 723.531 357.126 723.868 356.036L723.869 356.036C723.918 355.877 723.968 355.716 724.019 355.553L724.11 355.279C724.528 354.022 724.99 352.631 725.584 351.895C726.405 350.86 727.253 350.288 727.688 350.039ZM719.271 351.576C721.083 349.085 723.911 348.041 725.906 348.806C725.373 349.174 724.666 349.762 723.975 350.633C723.276 351.509 722.787 352.959 722.314 354.362L722.226 354.621L722.174 354.792C721.821 355.95 721.497 357.014 721.14 357.525C720.463 358.484 719.209 358.926 718.887 358.981C718.183 358.143 717.796 356.925 717.843 355.601C717.904 354.291 718.338 352.831 719.271 351.576ZM719.401 361.559C720.414 362.291 720.992 363.503 721.117 364.857C721.183 365.536 721.118 366.243 720.964 366.969C720.813 367.696 720.544 368.425 720.148 369.125C719.755 369.797 719.314 370.403 718.808 370.909C718.303 371.416 717.739 371.826 717.148 372.13C715.981 372.742 714.72 372.939 713.581 372.549C714.274 372.227 715.149 371.646 715.641 370.741C715.953 370.159 716.127 369.2 716.319 368.14L716.319 368.14C716.358 367.925 716.398 367.706 716.44 367.486C716.463 367.368 716.487 367.248 716.511 367.127C716.766 365.847 717.045 364.446 717.542 363.662C718.229 362.532 719 361.859 719.401 361.559ZM710.449 366.239C710.593 365.528 710.844 364.807 711.238 364.13C712.726 361.426 715.413 360.044 717.481 360.554C716.998 360.986 716.37 361.657 715.792 362.608C715.208 363.544 714.908 365.013 714.616 366.441C714.593 366.556 714.569 366.67 714.546 366.785C714.521 366.922 714.497 367.059 714.473 367.195L714.473 367.195C714.277 368.293 714.1 369.287 713.827 369.801C713.267 370.834 712.087 371.434 711.772 371.529C710.971 370.788 710.425 369.622 710.317 368.307C710.261 367.649 710.302 366.949 710.449 366.239ZM704.834 377.622C705.409 376.192 706.29 375.023 707.337 374.273C708.369 373.514 709.506 373.149 710.571 373.267C710.147 373.758 709.61 374.505 709.158 375.523C708.694 376.517 708.587 378.002 708.483 379.447C708.477 379.534 708.47 379.621 708.464 379.708C708.461 379.748 708.458 379.788 708.455 379.828C708.442 380.056 708.43 380.282 708.419 380.503C708.366 381.512 708.32 382.411 708.13 382.913C707.711 384.011 706.608 384.757 706.315 384.895C704.5 383.64 703.668 380.556 704.834 377.622ZM700.242 391.87C700.431 391.122 700.706 390.427 701.043 389.807C701.393 389.191 701.82 388.654 702.279 388.208C703.202 387.316 704.269 386.798 705.354 386.778C704.986 387.318 704.564 388.134 704.25 389.204C703.907 390.306 704.014 391.887 704.117 393.403L704.128 393.568C704.147 393.885 704.172 394.198 704.197 394.498L704.197 394.499C704.269 395.399 704.332 396.191 704.22 396.669C704.099 397.245 703.766 397.748 703.451 398.137C703.14 398.526 702.82 398.794 702.688 398.882C701.71 398.378 700.887 397.401 700.443 396.159C699.993 394.918 699.834 393.392 700.242 391.87ZM697.64 406.647C697.724 405.879 697.883 405.148 698.146 404.488C698.415 403.828 698.755 403.234 699.147 402.727C699.93 401.712 700.923 401.052 702 400.882C701.691 401.465 701.401 402.335 701.238 403.44C701.16 404.032 701.172 404.73 701.281 405.476C701.392 406.222 701.561 407.011 701.727 407.78C701.792 408.1 701.862 408.415 701.928 408.718C702.12 409.588 702.289 410.353 702.253 410.837C702.171 412.009 701.266 413.031 701.043 413.247C699.992 412.888 699.072 412.04 698.443 410.871C698.127 410.287 697.882 409.624 697.73 408.909C697.581 408.195 697.563 407.432 697.64 406.647ZM697.146 421.641C697.101 418.547 698.557 415.963 700.658 415.326C700.555 415.638 700.45 416.018 700.368 416.462C700.304 416.904 700.265 417.408 700.274 417.965C700.295 419.159 700.815 420.715 701.344 422.189L701.383 422.286C701.844 423.441 702.269 424.506 702.31 425.142C702.39 426.314 701.615 427.45 701.415 427.694C700.334 427.48 699.323 426.764 698.54 425.696C697.771 424.63 697.193 423.211 697.146 421.641ZM699.361 438.676C699.048 438.026 698.813 437.301 698.683 436.526C698.118 433.479 699.393 430.7 701.333 429.802C701.218 430.444 701.137 431.364 701.266 432.472C701.321 433.066 701.575 433.726 701.878 434.414C702.184 435.102 702.557 435.815 702.922 436.511L702.96 436.582C703.242 437.119 703.513 437.636 703.73 438.098C703.971 438.578 704.166 438.995 704.233 439.315C704.485 440.463 703.895 441.686 703.719 441.957C702.627 441.887 701.508 441.318 700.574 440.367C700.116 439.891 699.67 439.326 699.361 438.676ZM702.15 451.086C702.031 450.72 701.937 450.353 701.867 449.991C701.806 449.626 701.782 449.261 701.774 448.906C701.76 448.196 701.838 447.516 701.999 446.896C702.319 445.653 702.969 444.65 703.869 444.069C703.85 444.718 703.906 445.637 704.199 446.713C704.355 447.289 704.659 447.919 705.03 448.567C705.32 449.072 705.688 449.577 706.054 450.078C706.156 450.218 706.258 450.359 706.359 450.499L706.417 450.579C707.148 451.578 707.822 452.501 708.02 453.107C708.4 454.218 708.019 455.494 707.876 455.788C706.783 455.867 705.578 455.46 704.524 454.644C703.509 453.817 702.636 452.582 702.15 451.086ZM712.11 468.94C711.531 468.818 710.945 468.583 710.38 468.243C709.256 467.563 708.195 466.473 707.52 465.054C706.279 462.218 706.62 459.265 708.316 457.857C708.341 458.184 708.39 458.576 708.482 459.017C708.593 459.45 708.754 459.93 708.977 460.44C709.464 461.53 710.528 462.768 711.609 463.908L711.683 463.984C712.552 464.868 713.354 465.683 713.637 466.253C713.899 466.78 713.962 467.377 713.948 467.885C713.935 468.391 713.87 468.793 713.819 468.946C713.282 469.058 712.692 469.059 712.11 468.94ZM721.464 481.186C720.434 481.548 719.188 481.459 717.968 480.943C716.753 480.427 715.533 479.505 714.725 478.157C713.913 476.848 713.47 475.452 713.45 474.172C713.453 472.877 713.831 471.729 714.553 470.925C714.696 471.561 714.966 472.448 715.522 473.413C716.154 474.425 717.413 475.484 718.616 476.482L719.327 477.074C719.566 477.26 719.793 477.439 720 477.611C720.412 477.955 720.744 478.269 720.93 478.538C721.599 479.503 721.522 480.866 721.464 481.186ZM723.58 490.19C723.084 489.602 722.68 488.977 722.374 488.343C722.066 487.709 721.898 487.035 721.804 486.401C721.626 485.125 721.843 483.942 722.449 483.051C722.678 483.66 723.079 484.491 723.756 485.374C724.388 486.247 725.623 487.014 726.831 487.764L726.832 487.765L726.834 487.766C726.964 487.847 727.094 487.927 727.222 488.008L727.298 488.054L727.299 488.055C727.812 488.37 728.307 488.673 728.726 488.958C728.8 489.009 728.872 489.059 728.942 489.107C729.288 489.345 729.588 489.551 729.769 489.754C730.568 490.613 730.68 491.967 730.666 492.289C729.69 492.787 728.437 492.87 727.152 492.529C725.847 492.208 724.595 491.387 723.58 490.19Z" fill="#402F22"/>
<circle r="36.2332" transform="matrix(1 -2.18557e-08 -2.18557e-08 -1 390.088 246.088)" fill="white"/>
<circle r="28.1698" transform="matrix(0.707107 -0.707107 -0.707107 -0.707107 390.383 246.383)" fill="#F5F5F4" stroke="#402F22" stroke-width="0.770919" stroke-dasharray="1.7 1.7"/>
<path d="M385.711 241.797C385.508 241.797 385.315 241.862 385.133 241.992C384.956 242.122 384.779 242.341 384.602 242.648C384.424 242.956 384.281 243.438 384.172 244.094C384.068 244.75 384.016 245.542 384.016 246.469C384.016 249.219 384.565 250.596 385.664 250.602C385.758 250.602 385.857 250.586 385.961 250.555C386.07 250.523 386.198 250.464 386.344 250.375C386.49 250.281 386.628 250.13 386.758 249.922C386.893 249.714 387.003 249.453 387.086 249.141C387.268 248.479 387.359 247.383 387.359 245.852C387.359 243.857 387.049 242.596 386.43 242.07C386.227 241.888 385.987 241.797 385.711 241.797ZM385.648 251.156C385.013 251.156 384.471 250.932 384.023 250.484C383.586 250.052 383.242 249.461 382.992 248.711C382.747 247.961 382.625 247.156 382.625 246.297C382.625 244.781 382.93 243.56 383.539 242.633C384.154 241.706 384.878 241.242 385.711 241.242C386.492 241.242 387.143 241.589 387.664 242.281C388.388 243.24 388.75 244.529 388.75 246.148C388.75 247.034 388.648 247.82 388.445 248.508C388.242 249.19 387.979 249.716 387.656 250.086C387.333 250.451 387 250.721 386.656 250.898C386.312 251.07 385.977 251.156 385.648 251.156ZM393.773 242.891C392.961 244 391.943 245.534 390.719 247.492H393.773V242.891ZM396.32 247.492C396.482 247.492 396.56 247.578 396.555 247.75C396.555 247.844 396.503 247.951 396.398 248.07C396.299 248.19 396.198 248.25 396.094 248.25H394.992V249.719C394.992 249.891 395.005 250.029 395.031 250.133C395.057 250.232 395.125 250.305 395.234 250.352C395.349 250.398 395.438 250.427 395.5 250.438C395.562 250.448 395.711 250.466 395.945 250.492C396.018 250.503 396.073 250.508 396.109 250.508C396.161 250.56 396.188 250.651 396.188 250.781C396.188 250.906 396.161 250.99 396.109 251.031C395.427 251.01 394.846 251 394.367 251C393.789 251 393.159 251.01 392.477 251.031C392.435 250.99 392.414 250.906 392.414 250.781C392.414 250.651 392.435 250.56 392.477 250.508C393.049 250.466 393.406 250.388 393.547 250.273C393.698 250.154 393.773 249.969 393.773 249.719V248.25H390.508C390.18 248.25 389.971 248.026 389.883 247.578C391.534 244.984 392.979 242.93 394.219 241.414C394.312 241.294 394.398 241.237 394.477 241.242H394.992L395.023 241.273C395.003 241.367 394.992 241.883 394.992 242.82V247.492H396.32Z" fill="#404040"/>
<defs>
<filter id="filter0_d" x="653" y="248" width="312" height="326.025" filterUnits="userSpaceOnUse" color-interpolation-filters="sRGB">
<feFlood flood-opacity="0" result="BackgroundImageFix"/>
<feColorMatrix in="SourceAlpha" type="matrix" values="0 0 0 0 0 0 0 0 0 0 0 0 0 0 0 0 0 0 127 0"/>
<feOffset/>
<feGaussianBlur stdDeviation="20"/>
<feColorMatrix type="matrix" values="0 0 0 0 0.129412 0 0 0 0 0.356863 0 0 0 0 0.2 0 0 0 0.15 0"/>
<feBlend mode="normal" in2="BackgroundImageFix" result="effect1_dropShadow"/>
<feBlend mode="normal" in="SourceGraphic" in2="effect1_dropShadow" result="shape"/>
</filter>
</defs>
</svg>
