<svg width="32" height="32" viewBox="0 0 32 32" fill="none" xmlns="http://www.w3.org/2000/svg">
<path d="M8.59986 20.9795H4.78867C4.35698 20.9795 4.00586 21.3307 4.00586 21.7623V24.7642C4.00586 25.1959 4.35705 25.5471 4.78867 25.5471H8.59986C9.03155 25.5471 9.38267 25.1959 9.38267 24.7642V21.7624C9.38267 21.3307 9.03148 20.9795 8.59986 20.9795ZM8.4433 24.6077H4.94523V21.9189H8.4433V24.6077Z" fill="#402F22"/>
<path d="M27.0891 20.9795H23.2779C22.8462 20.9795 22.4951 21.3307 22.4951 21.7623V24.7642C22.4951 25.1959 22.8463 25.5471 23.2779 25.5471H27.0891C27.5208 25.5471 27.8719 25.1959 27.8719 24.7642V21.7624C27.872 21.3307 27.5208 20.9795 27.0891 20.9795ZM26.9326 24.6077H23.4345V21.9189H26.9326V24.6077Z" fill="#402F22"/>
<path d="M31.052 16.1688C31.0519 16.1671 31.0515 16.1655 31.0513 16.1638C31.0495 16.1484 31.047 16.1333 31.0439 16.1183C31.0437 16.1175 31.0437 16.1167 31.0435 16.1159L28.876 6.35744C28.7959 5.99644 28.4816 5.74438 28.1119 5.74438H24.8056V4.41019H26.4571C26.8888 4.41019 27.2399 4.059 27.2399 3.62737V0.782812C27.2399 0.351187 26.8887 0 26.457 0H5.54429C5.1126 0 4.76148 0.351187 4.76148 0.782812V3.62731C4.76148 4.059 5.11266 4.41012 5.54429 4.41012H7.19579V5.74438H3.8891C3.51935 5.74438 3.2051 5.9965 3.12491 6.35744L0.957414 16.1159C0.957227 16.1167 0.957164 16.1175 0.957039 16.1183C0.953852 16.1333 0.951352 16.1484 0.949602 16.1638C0.949414 16.1654 0.949039 16.1671 0.948852 16.1688C0.947164 16.1849 0.946289 16.2012 0.946289 16.2178C0.946289 16.2184 0.946352 16.2191 0.946352 16.2197C0.946352 16.2208 0.946414 16.2218 0.946414 16.2229C0.947789 17.1567 1.32835 18.0032 1.94204 18.6165V31.2125C1.94204 31.6467 2.29485 32 2.72848 32H29.273C29.7067 32 30.0594 31.6467 30.0594 31.2125V18.616C30.6728 18.0027 31.0532 17.1564 31.0545 16.2229C31.0545 16.2218 31.0546 16.2208 31.0546 16.2197C31.0546 16.2191 31.0547 16.2184 31.0547 16.2178C31.0546 16.2012 31.0537 16.1848 31.052 16.1688ZM27.9861 6.68375L29.9994 15.748H25.172L24.4403 6.68375H27.9861ZM5.70091 3.47081V0.939438H26.3005V3.47081H22.451C22.1915 3.47081 21.9813 3.68112 21.9813 3.9405C21.9813 4.19987 22.1916 4.41019 22.451 4.41019H23.8661V5.74438H18.6047C18.5802 5.74138 18.5554 5.73969 18.5301 5.74062C18.5156 5.74113 18.5013 5.74256 18.4872 5.74438H13.4634C13.4505 5.74331 13.4375 5.74244 13.4242 5.74244C13.411 5.74244 13.398 5.74331 13.3851 5.74438H8.13529V4.41019H19.0483C19.3077 4.41019 19.518 4.19987 19.518 3.9405C19.518 3.68112 19.3077 3.47081 19.0483 3.47081H5.70091ZM24.2399 16.6874C24.0201 17.8164 23.0237 18.6712 21.8315 18.6712C20.6392 18.6712 19.6429 17.8164 19.4231 16.6874H24.2399ZM19.362 15.748L19.0342 6.68375H23.4979L24.2296 15.748H19.362ZM13.5431 15.748L13.877 6.68375H18.0942L18.422 15.748H13.5431ZM18.3942 16.6874C18.1745 17.8164 17.1781 18.6712 15.9859 18.6712C14.7936 18.6712 13.7972 17.8164 13.5774 16.6874H18.3942ZM7.63179 15.748L8.4681 6.68375H12.9369L12.603 15.748H7.63179ZM12.5407 16.6874C12.3209 17.8164 11.3245 18.6712 10.1323 18.6712C8.94004 18.6712 7.94366 17.8164 7.72391 16.6874H12.5407ZM4.01473 6.68375H7.52473L6.68823 15.748H2.00141L4.01473 6.68375ZM1.93073 16.6874H6.74748C6.52773 17.8164 5.53135 18.6712 4.3391 18.6712C3.14685 18.6712 2.15054 17.8164 1.93073 16.6874ZM21.2199 31.0593V25.8246C21.2199 22.9466 18.8785 20.6053 16.0007 20.6053C15.41 20.6053 14.8304 20.7033 14.2775 20.8966C14.0327 20.9821 13.9035 21.2501 13.9892 21.4949C14.0748 21.7398 14.3427 21.8691 14.5875 21.7833C15.0404 21.625 15.5159 21.5447 16.0006 21.5447C18.3605 21.5447 20.2805 23.4646 20.2805 25.8246V31.0593H11.7208V25.8246C11.7208 25.0964 11.9067 24.3776 12.2585 23.7458C12.3847 23.5192 12.3033 23.2331 12.0767 23.1069C11.8502 22.9808 11.564 23.0622 11.4378 23.2888C11.0084 24.06 10.7814 24.9368 10.7814 25.8246V31.0594H2.88135V19.2809C3.32323 19.4921 3.81754 19.6106 4.3391 19.6106C5.56391 19.6106 6.6391 18.9581 7.23566 17.9826C7.83229 18.9581 8.90741 19.6106 10.1322 19.6106C11.3784 19.6106 12.469 18.9349 13.059 17.931C13.6489 18.9349 14.7396 19.6106 15.9857 19.6106C17.2291 19.6106 18.3177 18.9379 18.9085 17.9379C19.4994 18.938 20.588 19.6106 21.8314 19.6106C23.0692 19.6106 24.1539 18.944 24.7465 17.9513C25.3391 18.9441 26.4237 19.6106 27.6616 19.6106C28.1834 19.6106 28.6779 19.492 29.1199 19.2808V31.0593H21.2199ZM27.6617 18.6712C26.4694 18.6712 25.473 17.8164 25.2533 16.6874H30.07C29.8503 17.8164 28.854 18.6712 27.6617 18.6712Z" fill="#402F22"/>
</svg>
