<svg width="32" height="32" viewBox="0 0 32 32" fill="none" xmlns="http://www.w3.org/2000/svg">
<g clip-path="url(#q3clip0)">
<path d="M16 19.2331C20.1236 19.2331 23.4666 15.8902 23.4666 11.7665C23.4666 7.64296 20.1236 4.30005 16 4.30005C11.8761 4.30005 8.5332 7.64296 8.5332 11.7665C8.53775 15.8885 11.878 19.2288 16 19.2331ZM16 5.36663C19.5344 5.36663 22.4 8.232 22.4 11.7665C22.4 15.3012 19.5344 18.1665 16 18.1665C12.4654 18.1665 9.60005 15.3012 9.60005 11.7665C9.60392 8.2336 12.4668 5.37037 16 5.36663Z" fill="#402F22"/>
<path d="M30.8315 22.3702C30.1045 21.9076 29.1908 21.852 28.413 22.2226L22.2466 25.1437C22.5236 24.4063 22.4212 23.5805 21.9728 22.9332C21.5245 22.2857 20.7873 21.9 20 21.9H13.5491C11.157 19.6611 7.59547 19.2162 4.72568 20.7976L4.66191 20.8333H0V21.9H4.26672V30.9666H0V32.0332H18.7546C20.5375 32.0327 22.2885 31.5625 23.8317 30.6696L30.7464 26.6665C31.5069 26.2262 31.982 25.4205 31.9995 24.5423C32.0168 23.6638 31.5736 22.84 30.8315 22.3702ZM30.2122 25.7431L23.2974 29.7462C21.9167 30.5452 20.3499 30.9661 18.7546 30.9666H5.33343V21.6813C7.84747 20.3472 10.9369 20.8047 12.956 22.8104C13.0563 22.9103 13.1919 22.9666 13.3332 22.9666H20C20.7364 22.9666 21.3331 23.5635 21.3331 24.3C21.3331 25.036 20.7364 25.6332 20 25.6332H13.3332C13.0388 25.6332 12.7999 25.872 12.7999 26.1665C12.7999 26.4613 13.0388 26.7 13.3332 26.7H21.3331C21.4123 26.6991 21.4901 26.6808 21.5614 26.6466L28.8681 23.1846C29.5685 22.8518 30.4069 23.1312 30.7676 23.8179C31.1279 24.5044 30.882 25.3532 30.2105 25.7409L30.2122 25.7431Z" fill="#402F22"/>
<path d="M11.7336 11.7665C11.7361 9.4113 13.6449 7.5026 16.0004 7.50006V6.43335C13.056 6.43642 10.6702 8.82239 10.667 11.7665H11.7336Z" fill="#402F22"/>
<path d="M16 17.1C18.9442 17.0967 21.3301 14.7107 21.3331 11.7666H20.2665C20.264 14.1218 18.3551 16.0307 16 16.0333V17.1Z" fill="#402F22"/>
<path d="M5.24503 3.22603C6.11415 3.37108 6.79517 4.05197 6.94009 4.92135C6.9834 5.1779 7.20587 5.36561 7.46589 5.36561C7.72619 5.36561 7.94851 5.1779 7.99156 4.92135C8.13688 4.05197 8.8179 3.37108 9.68675 3.22603C9.94317 3.18245 10.131 2.96025 10.131 2.70009C10.131 2.43966 9.94317 2.21747 9.68675 2.17402C8.8179 2.02897 8.13688 1.34768 7.99156 0.478565C7.94851 0.222282 7.72619 0.0341797 7.46589 0.0341797C7.20587 0.0341797 6.9834 0.222282 6.94009 0.478565C6.79517 1.34768 6.11415 2.02897 5.24503 2.17402C4.98848 2.21747 4.80078 2.43966 4.80078 2.70009C4.80078 2.96025 4.98848 3.18245 5.24503 3.22603ZM7.46589 1.93833C7.67405 2.23432 7.93167 2.49194 8.22752 2.70009C7.93167 2.90771 7.67405 3.16574 7.46589 3.46159C7.25787 3.16574 7.00025 2.90771 6.70413 2.70009C7.00025 2.49194 7.25787 2.23432 7.46589 1.93833Z" fill="#402F22"/>
<path d="M24.4452 16.5593C25.3143 16.7043 25.9952 17.3854 26.1402 18.2546C26.1836 18.5112 26.4059 18.6989 26.6661 18.6989C26.9264 18.6989 27.1487 18.5112 27.1919 18.2546C27.3371 17.3854 28.018 16.7043 28.8869 16.5593C29.1434 16.5156 29.3312 16.2935 29.3312 16.0334C29.3312 15.7729 29.1434 15.5507 28.8869 15.5074C28.018 15.3622 27.3371 14.6809 27.1919 13.8122C27.1487 13.5557 26.9264 13.3674 26.6661 13.3674C26.4059 13.3674 26.1836 13.5557 26.1402 13.8122C25.9952 14.6809 25.3143 15.3622 24.4452 15.5074C24.1889 15.5507 24.001 15.7729 24.001 16.0334C24.001 16.2935 24.1889 16.5156 24.4452 16.5593ZM26.6661 15.2716C26.8742 15.5676 27.1319 15.8252 27.4277 16.0334C27.1319 16.2411 26.8742 16.499 26.6661 16.7949C26.4581 16.499 26.2004 16.2411 25.9043 16.0334C26.2004 15.8252 26.4581 15.5676 26.6661 15.2716Z" fill="#402F22"/>
<path d="M15.4661 9.10032C14.5827 9.10032 13.8662 9.81663 13.8662 10.7002C13.8662 11.5837 14.5827 12.3002 15.4661 12.3002H16.5328C16.8274 12.3002 17.0662 12.5388 17.0662 12.8335C17.0662 13.1283 16.8274 13.3668 16.5328 13.3668H14.3995V14.4335H15.4661V14.9669H16.5328V14.4335C17.4165 14.4335 18.1328 13.7172 18.1328 12.8335C18.1328 11.9499 17.4165 11.2335 16.5328 11.2335H15.4661C15.1716 11.2335 14.9328 10.9947 14.9328 10.7002C14.9328 10.4057 15.1716 10.1669 15.4661 10.1669H17.5996V9.10032H16.5328V8.56689H15.4661V9.10032Z" fill="#402F22"/>
</g>
<defs>
<clipPath id="q3clip0">
<rect width="32" height="32" fill="white"/>
</clipPath>
</defs>
</svg>
