<svg width="36" height="36" viewBox="0 0 36 36" fill="none" xmlns="http://www.w3.org/2000/svg">
<path d="M18 36C27.9411 36 36 27.9411 36 18C36 8.05887 27.9411 0 18 0C8.05887 0 0 8.05887 0 18C0 27.9411 8.05887 36 18 36Z" fill="#039BE5"/>
<path d="M8.23686 17.6099L25.5919 10.9184C26.3974 10.6274 27.1009 11.1149 26.8399 12.3329L26.8414 12.3314L23.8864 26.2529C23.6674 27.2399 23.0809 27.4799 22.2604 27.0149L17.7604 23.6984L15.5899 25.7894C15.3499 26.0294 15.1474 26.2319 14.6824 26.2319L15.0019 21.6524L23.3419 14.1179C23.7049 13.7984 23.2609 13.6184 22.7824 13.9364L12.4759 20.4254L8.03286 19.0394C7.06836 18.7334 7.04736 18.0749 8.23686 17.6099Z" fill="white"/>
</svg>
