<svg width="36" height="36" viewBox="0 0 36 36" fill="none" xmlns="http://www.w3.org/2000/svg">
<path d="M18 36C27.9411 36 36 27.9411 36 18C36 8.05887 27.9411 0 18 0C8.05887 0 0 8.05887 0 18C0 27.9411 8.05887 36 18 36Z" fill="#7D3DAF"/>
<path d="M26.7454 13.0719L26.7399 13.05C26.2968 11.2587 24.2992 9.33651 22.4646 8.93662L22.4439 8.93236C19.4767 8.3663 16.468 8.3663 13.5014 8.93236L13.4801 8.93662C11.6462 9.33651 9.6485 11.2587 9.20478 13.05L9.19991 13.0719C8.65211 15.5735 8.65211 18.1105 9.19991 20.6121L9.20478 20.634C9.62957 22.3489 11.4785 24.1827 13.2445 24.6871V26.6867C13.2445 27.4104 14.1265 27.7658 14.628 27.2436L16.654 25.1377C17.0934 25.1623 17.533 25.176 17.9727 25.176C19.4663 25.176 20.9606 25.0347 22.4439 24.7517L22.4646 24.7475C24.2992 24.3476 26.2968 22.4254 26.7399 20.6341L26.7454 20.6122C27.2932 18.1105 27.2932 15.5735 26.7454 13.0719ZM25.1422 20.2493C24.8463 21.418 23.3295 22.8709 22.1244 23.1393C20.5467 23.4393 18.9564 23.5676 17.3678 23.5235C17.3362 23.5227 17.3059 23.5349 17.2838 23.5576C17.0584 23.789 15.8046 25.0761 15.8046 25.0761L14.2312 26.6909C14.1161 26.8108 13.9141 26.7292 13.9141 26.5637V23.2512C13.9141 23.1964 13.875 23.1499 13.8212 23.1394C13.8209 23.1394 13.8206 23.1393 13.8203 23.1392C12.6152 22.8708 11.099 21.4179 10.8025 20.2493C10.3095 17.9881 10.3095 15.6958 10.8025 13.4346C11.099 12.266 12.6152 10.8131 13.8203 10.5447C16.5758 10.0206 19.3695 10.0206 22.1244 10.5447C23.3302 10.8131 24.8463 12.266 25.1422 13.4346C25.6357 15.6959 25.6357 17.9881 25.1422 20.2493Z" fill="white"/>
<path d="M20.5939 21.7783C20.4087 21.722 20.2321 21.6842 20.0681 21.6162C18.369 20.9112 16.8052 20.0017 15.5665 18.6076C14.8621 17.8148 14.3107 16.9197 13.8447 15.9725C13.6237 15.5233 13.4374 15.0566 13.2476 14.5928C13.0745 14.1699 13.3294 13.733 13.5979 13.4144C13.8498 13.1153 14.174 12.8865 14.5251 12.7178C14.7991 12.5862 15.0694 12.6621 15.2696 12.8943C15.7022 13.3965 16.0996 13.9243 16.4214 14.5064C16.6193 14.8644 16.565 15.302 16.2064 15.5457C16.1192 15.6049 16.0398 15.6744 15.9586 15.7413C15.8874 15.7999 15.8203 15.8591 15.7715 15.9385C15.6823 16.0837 15.678 16.255 15.7355 16.4129C16.1777 17.6283 16.9232 18.5734 18.1465 19.0824C18.3422 19.1638 18.5388 19.2587 18.7643 19.2324C19.142 19.1883 19.2643 18.774 19.529 18.5576C19.7876 18.346 20.1182 18.3432 20.3969 18.5196C20.6756 18.696 20.9458 18.8853 21.2143 19.0767C21.4779 19.2645 21.7404 19.4483 21.9835 19.6624C22.2173 19.8683 22.2979 20.1384 22.1662 20.4179C21.9252 20.9297 21.5744 21.3554 21.0685 21.6272C20.9257 21.7038 20.7551 21.7286 20.5939 21.7783C20.4087 21.722 20.7551 21.7286 20.5939 21.7783Z" fill="white"/>
<path d="M17.9772 12.1328C20.1998 12.1951 22.0252 13.6701 22.4164 15.8674C22.4831 16.2418 22.5068 16.6246 22.5364 17.0046C22.5489 17.1644 22.4584 17.3163 22.2859 17.3183C22.1078 17.3205 22.0276 17.1714 22.016 17.0116C21.9932 16.6954 21.9773 16.3777 21.9337 16.064C21.7036 14.4084 20.3834 13.0386 18.7354 12.7447C18.4875 12.7005 18.2336 12.6888 17.9824 12.6625C17.8236 12.6458 17.6157 12.6362 17.5805 12.4388C17.551 12.2733 17.6907 12.1415 17.8482 12.1331C17.8911 12.1307 17.9342 12.1326 17.9772 12.1328C20.1998 12.1951 17.9342 12.1326 17.9772 12.1328Z" fill="white"/>
<path d="M21.3552 16.5113C21.3516 16.539 21.3496 16.6043 21.3334 16.6658C21.2744 16.8889 20.9361 16.9168 20.8582 16.6916C20.8351 16.6248 20.8316 16.5488 20.8315 16.4768C20.8307 16.0061 20.7284 15.5358 20.491 15.1263C20.247 14.7053 19.8742 14.3514 19.4369 14.1373C19.1725 14.0078 18.8866 13.9274 18.5968 13.8794C18.4701 13.8585 18.3421 13.8457 18.2149 13.828C18.0606 13.8066 17.9783 13.7083 17.9856 13.5563C17.9924 13.4139 18.0965 13.3115 18.2517 13.3202C18.7617 13.3492 19.2544 13.4594 19.7079 13.6995C20.63 14.1879 21.1567 14.9587 21.3105 15.988C21.3174 16.0346 21.3286 16.0808 21.3322 16.1276C21.3409 16.2432 21.3463 16.3589 21.3552 16.5113C21.3516 16.539 21.3463 16.3589 21.3552 16.5113Z" fill="white"/>
<path d="M19.9725 16.4574C19.7866 16.4607 19.6871 16.3578 19.6679 16.1873C19.6546 16.0684 19.644 15.948 19.6157 15.8323C19.5598 15.6046 19.4387 15.3935 19.2471 15.2539C19.1567 15.188 19.0542 15.14 18.9468 15.109C18.8104 15.0696 18.6688 15.0804 18.5327 15.0471C18.3849 15.0109 18.3031 14.8912 18.3264 14.7525C18.3475 14.6264 18.4703 14.5279 18.6081 14.5379C19.4698 14.6001 20.0857 15.0456 20.1736 16.06C20.1798 16.1315 20.1871 16.2072 20.1712 16.2757C20.144 16.3929 20.0572 16.4516 19.9725 16.4574C19.7866 16.4607 20.0572 16.4516 19.9725 16.4574Z" fill="white"/>
</svg>
