<svg width="36" height="36" viewBox="0 0 36 36" fill="none" xmlns="http://www.w3.org/2000/svg">
<path d="M18 36C27.9411 36 36 27.9411 36 18C36 8.05887 27.9411 0 18 0C8.05887 0 0 8.05887 0 18C0 27.9411 8.05887 36 18 36Z" fill="#1BD741"/>
<path d="M9 27L10.3642 22.1548C9.48694 20.6645 9.02506 18.9689 9.02506 17.2269C9.02506 11.8635 13.3885 7.5 18.752 7.5C24.1154 7.5 28.4789 11.8635 28.4789 17.2269C28.4789 22.5904 24.1154 26.9539 18.752 26.9539C17.0808 26.9539 15.4443 26.5261 13.9967 25.7138L9 27ZM14.2521 23.9442L14.5498 24.126C15.812 24.8965 17.2651 25.3039 18.752 25.3039C23.2056 25.3039 26.8288 21.6806 26.8288 17.2269C26.8288 12.7733 23.2056 9.15001 18.752 9.15001C14.2984 9.15001 10.6751 12.7733 10.6751 17.2269C10.6751 18.7787 11.1161 20.2857 11.9504 21.5849L12.1509 21.8971L11.3653 24.6873L14.2521 23.9442Z" fill="white"/>
<path d="M16.0194 12.6999L15.3882 12.6654C15.19 12.6546 14.9955 12.7209 14.8457 12.851C14.5397 13.1168 14.0504 13.6305 13.9002 14.2999C13.6761 15.298 14.0224 16.5202 14.9187 17.7425C15.815 18.9647 17.4854 20.9203 20.4391 21.7555C21.3909 22.0246 22.1396 21.8432 22.7173 21.4736C23.1749 21.181 23.4903 20.7112 23.6039 20.1801L23.7047 19.7095C23.7367 19.5599 23.6608 19.4081 23.5218 19.344L21.3887 18.3608C21.2502 18.297 21.086 18.3373 20.9929 18.458L20.1555 19.5436C20.0922 19.6256 19.9839 19.6581 19.8862 19.6238C19.3127 19.4222 17.3917 18.6177 16.3377 16.5873C16.292 16.4993 16.3033 16.3924 16.3682 16.3173L17.1685 15.3915C17.2502 15.2969 17.2709 15.164 17.2218 15.0491L16.3023 12.8979C16.2533 12.7834 16.1436 12.7066 16.0194 12.6999Z" fill="white"/>
</svg>
