<svg width="7" height="12" viewBox="0 0 7 12" fill="none" xmlns="http://www.w3.org/2000/svg">
<path d="M6.87972 0.721063C6.95986 0.801167 6.99987 0.893442 6.99987 0.997763C6.99987 1.10183 6.95986 1.19407 6.87972 1.27417L2.15416 5.99994L6.87984 10.7255C6.95999 10.8056 7 10.8979 7 11.0021C7 11.1063 6.95999 11.1985 6.87984 11.2786L6.27856 11.8797C6.19841 11.96 6.10618 12 6.00202 12C5.89783 12 5.80556 11.9599 5.72532 11.8797L0.121991 6.27651C0.0418448 6.19641 0.00179291 6.10413 0.00179291 5.99994C0.00179291 5.89574 0.0418448 5.80363 0.121991 5.72357L5.72532 0.119903C5.80547 0.0397987 5.8977 -9.53674e-07 6.00181 -9.53674e-07C6.10601 -9.53674e-07 6.19812 0.0400515 6.27839 0.119903L6.87972 0.721063Z" fill="white"/>
</svg>
