<svg width="7" height="12" viewBox="0 0 7 12" fill="none" xmlns="http://www.w3.org/2000/svg">
<path d="M0.120283 0.721063C0.0401364 0.801167 0.000126278 0.893442 0.000126278 0.997763C0.000126278 1.10183 0.0401364 1.19407 0.120283 1.27417L4.84584 5.99994L0.120156 10.7255C0.0400102 10.8056 0 10.8979 0 11.0021C0 11.1063 0.0400102 11.1985 0.120156 11.2786L0.721443 11.8797C0.801589 11.96 0.893823 12 0.997975 12C1.10217 12 1.19444 11.9599 1.27468 11.8797L6.87801 6.27651C6.95816 6.19641 6.99821 6.10413 6.99821 5.99994C6.99821 5.89574 6.95816 5.80363 6.87801 5.72357L1.27468 0.119903C1.19453 0.0397987 1.1023 -9.53674e-07 0.998185 -9.53674e-07C0.893991 -9.53674e-07 0.801884 0.0400515 0.721611 0.119903L0.120283 0.721063Z" fill="white"/>
</svg>
