<svg width="560" height="260" viewBox="0 0 560 260" fill="none" xmlns="http://www.w3.org/2000/svg">
<g opacity="0.4" clip-path="url(#clip0)">
<path d="M-260.329 -54.3045C-234.77 -38.5822 -149.44 6.75611 -45.6849 -15.2787C129.689 -52.5228 132.56 55.3312 216.008 112.745C279.355 156.331 405.162 73.9526 584.423 121.986C688.758 149.942 712.956 246.512 822.102 235.111" stroke="url(#paint0_linear)" stroke-width="4.89017" stroke-miterlimit="10" stroke-linejoin="round" stroke-dasharray="4.87 4.87"/>
<g opacity="0.9829">
<g opacity="0.9829">
<path opacity="0.9829" d="M-262.121 -50.5415C-237.386 -34.2175 -154.115 13.2457 -49.5264 -8.06908C124.678 -43.5712 126.727 65.686 212.936 122.985C278.211 166.437 400.787 80.8414 580.417 129.321C688.035 158.585 716.28 248.904 822.877 237.683" stroke="url(#paint1_linear)" stroke-width="4.81062" stroke-miterlimit="10" stroke-linejoin="round" stroke-dasharray="4.82 4.82"/>
</g>
</g>
<g opacity="0.9659">
<g opacity="0.9659">
<path opacity="0.9659" d="M-263.966 -46.8223C-240.125 -29.9429 -158.885 19.7444 -53.3665 -0.858241C119.65 -34.6415 120.898 76.0416 209.867 133.225C277.068 176.545 396.504 87.4084 576.415 136.658C687.372 167.032 719.61 251.306 823.676 240.254" stroke="url(#paint2_linear)" stroke-width="4.73116" stroke-miterlimit="10" stroke-linejoin="round" stroke-dasharray="4.72 4.72"/>
</g>
</g>
<g opacity="0.9488">
<g opacity="0.9488">
<path opacity="0.9488" d="M-265.809 -43.114C-242.864 -25.6936 -163.676 26.2378 -57.2063 6.35397C114.603 -25.7337 115.068 86.3977 206.797 143.466C275.927 186.654 392.172 94.1646 572.412 143.995C686.68 175.586 722.935 253.714 824.477 242.824" stroke="url(#paint3_linear)" stroke-width="4.65161" stroke-miterlimit="10" stroke-linejoin="round" stroke-dasharray="4.63 4.63"/>
</g>
</g>
<g opacity="0.9317">
<g opacity="0.9317">
<path opacity="0.9317" d="M-267.647 -39.4208C-245.601 -21.4743 -168.488 32.7176 -61.0462 13.561C109.538 -16.8542 109.237 96.7499 203.728 153.703C274.785 196.757 387.835 100.932 568.409 151.328C685.986 184.142 726.258 256.121 825.277 245.392" stroke="url(#paint4_linear)" stroke-width="4.57214" stroke-miterlimit="10" stroke-linejoin="round" stroke-dasharray="4.55 4.55"/>
</g>
</g>
<g opacity="0.9146">
<g opacity="0.9146">
<path opacity="0.9146" d="M-269.482 -35.735C-248.337 -17.279 -173.32 39.1919 -64.8864 20.7719C104.454 -7.99456 103.406 107.105 200.658 163.943C273.643 206.866 383.493 107.719 564.405 158.666C685.287 192.708 729.575 258.534 826.074 247.965" stroke="url(#paint5_linear)" stroke-width="4.4926" stroke-miterlimit="10" stroke-linejoin="round" stroke-dasharray="4.47 4.47"/>
</g>
</g>
<g opacity="0.8976">
<g opacity="0.8976">
<path opacity="0.8976" d="M-271.312 -32.0603C-251.066 -13.111 -178.174 45.6564 -68.7272 27.9838C99.354 0.84382 97.5752 117.462 197.588 174.184C272.499 216.974 379.151 114.519 560.403 166.003C684.583 201.276 732.888 260.947 826.865 250.537" stroke="url(#paint6_linear)" stroke-width="4.41305" stroke-miterlimit="10" stroke-linejoin="round" stroke-dasharray="4.4 4.4"/>
</g>
</g>
<g opacity="0.8805">
<g opacity="0.8805">
<path opacity="0.8805" d="M-273.135 -28.3984C-253.788 -8.97305 -183.047 52.1081 -72.5665 35.1928C94.2376 9.65541 91.8648 127.659 194.52 184.423C271.448 226.962 374.805 121.329 556.4 173.338C683.876 209.848 736.197 263.362 827.657 253.109" stroke="url(#paint7_linear)" stroke-width="4.33359" stroke-miterlimit="10" stroke-linejoin="round" stroke-dasharray="4.33 4.33"/>
</g>
</g>
<g opacity="0.8634">
<g opacity="0.8634">
<path opacity="0.8634" d="M-274.951 -24.7486C-256.503 -4.86566 -187.939 58.5459 -76.4072 42.4024C89.1061 18.444 86.0421 137.996 191.449 194.662C270.311 237.057 370.455 128.15 552.396 180.673C683.161 218.424 739.498 265.78 828.446 255.679" stroke="url(#paint8_linear)" stroke-width="4.25404" stroke-miterlimit="10" stroke-linejoin="round" stroke-dasharray="4.27 4.27"/>
</g>
</g>
<g opacity="0.8463">
<g opacity="0.8463">
<path opacity="0.8463" d="M-276.789 -21.141C-259.279 -0.857183 -192.913 64.9828 -80.2479 49.6127C83.9584 27.2109 80.2165 148.337 188.378 204.902C269.172 247.153 366.102 134.982 548.392 188.009C682.452 227.008 742.804 268.21 829.252 258.25" stroke="url(#paint9_linear)" stroke-width="4.17449" stroke-miterlimit="10" stroke-linejoin="round" stroke-dasharray="4.18 4.18"/>
</g>
</g>
<g opacity="0.8293">
<g opacity="0.8293">
<path opacity="0.8293" d="M-278.613 -17.5439C-262.031 3.12167 -197.899 71.4034 -84.0875 56.8226C78.797 35.9535 74.3905 158.679 185.309 215.142C268.032 257.251 361.75 141.824 544.391 195.346C681.738 235.596 746.105 270.644 830.059 260.821" stroke="url(#paint10_linear)" stroke-width="4.09503" stroke-miterlimit="10" stroke-linejoin="round" stroke-dasharray="4.09 4.09"/>
</g>
</g>
<g opacity="0.8122">
<g opacity="0.8122">
<path opacity="0.8122" d="M-280.424 -13.952C-264.761 7.07667 -202.899 77.8117 -87.9277 64.0342C73.6233 44.6749 68.5623 169.024 182.24 225.383C266.892 267.351 357.392 148.675 540.388 202.683C681.016 244.186 749.396 273.079 830.853 263.394" stroke="url(#paint11_linear)" stroke-width="4.01548" stroke-miterlimit="10" stroke-linejoin="round" stroke-dasharray="4 4"/>
</g>
</g>
<g opacity="0.7951">
<g opacity="0.7951">
<path opacity="0.7951" d="M-282.222 -10.3714C-267.466 11.0008 -207.911 84.2012 -91.7684 71.2439C68.4352 53.3715 62.7325 179.367 179.17 235.621C265.749 277.45 353.032 155.534 536.384 210.019C680.287 252.781 752.682 275.519 831.651 265.966" stroke="url(#paint12_linear)" stroke-width="3.93602" stroke-miterlimit="10" stroke-linejoin="round" stroke-dasharray="3.93 3.93"/>
</g>
</g>
<g opacity="0.778">
<g opacity="0.778">
<path opacity="0.778" d="M-284.004 -6.79498C-270.141 14.902 -212.933 90.5752 -95.6081 78.4556C63.2363 62.0472 56.9025 189.716 176.101 245.864C264.608 287.554 348.671 162.401 532.381 217.356C679.553 261.381 755.959 277.968 832.445 268.541" stroke="url(#paint13_linear)" stroke-width="3.85647" stroke-miterlimit="10" stroke-linejoin="round" stroke-dasharray="3.85 3.85"/>
</g>
</g>
<g opacity="0.761">
<g opacity="0.761">
<path opacity="0.761" d="M-285.776 -3.22796C-272.795 18.7753 -217.97 96.9299 -99.45 85.6652C58.0237 70.6978 51.0683 200.063 173.029 256.102C263.464 297.656 344.306 169.276 528.376 224.692C678.805 269.981 759.222 280.418 833.231 271.114" stroke="url(#paint14_linear)" stroke-width="3.77692" stroke-miterlimit="10" stroke-linejoin="round" stroke-dasharray="3.79 3.79"/>
</g>
</g>
<g opacity="0.7439">
<g opacity="0.7439">
<path opacity="0.7439" d="M-287.546 0.3071C-275.462 22.5591 -223.063 103.272 -103.289 92.8759C52.8033 79.3276 45.2378 210.413 169.96 266.342C262.321 307.758 339.94 176.156 524.375 232.029C678.069 278.589 762.496 282.88 834.04 273.686" stroke="url(#paint15_linear)" stroke-width="3.69746" stroke-miterlimit="10" stroke-linejoin="round" stroke-dasharray="3.7 3.7"/>
</g>
</g>
<g opacity="0.7268">
<g opacity="0.7268">
<path opacity="0.7268" d="M-289.301 3.83946C-278.093 26.3232 -228.159 109.594 -107.13 100.087C47.5731 87.9351 39.4028 220.766 166.89 276.583C261.176 317.864 335.571 183.043 520.369 239.365C677.314 287.198 765.748 285.348 834.836 276.26" stroke="url(#paint16_linear)" stroke-width="3.61791" stroke-miterlimit="10" stroke-linejoin="round" stroke-dasharray="3.61 3.61"/>
</g>
</g>
<g opacity="0.7098">
<g opacity="0.7098">
<path opacity="0.7098" d="M-291.04 7.367C-280.689 30.0662 -233.262 115.891 -110.971 107.294C42.3325 96.516 33.5691 231.116 163.82 286.819C260.03 327.966 331.202 189.933 516.366 246.698C676.557 295.808 768.999 287.821 835.638 278.831" stroke="url(#paint17_linear)" stroke-width="3.53844" stroke-miterlimit="10" stroke-linejoin="round" stroke-dasharray="3.54 3.54"/>
</g>
</g>
<g opacity="0.6927">
<g opacity="0.6927">
<path opacity="0.6927" d="M-292.76 10.8953C-283.247 33.7924 -238.365 122.175 -114.81 114.508C37.086 105.082 27.7371 241.472 160.751 297.062C258.886 338.076 326.83 196.833 512.365 254.038C675.785 304.425 772.229 290.31 836.429 281.409" stroke="url(#paint18_linear)" stroke-width="3.4589" stroke-miterlimit="10" stroke-linejoin="round" stroke-dasharray="3.46 3.46"/>
</g>
</g>
<g opacity="0.6756">
<g opacity="0.6756">
<path opacity="0.6756" d="M-294.479 14.3945C-285.804 37.4351 -243.517 128.434 -118.651 121.716C31.8296 113.62 21.9009 251.825 157.679 307.3C257.74 348.181 322.456 203.734 508.36 261.372C675.015 313.043 775.458 292.802 837.234 283.981" stroke="url(#paint19_linear)" stroke-width="3.37935" stroke-miterlimit="10" stroke-linejoin="round" stroke-dasharray="3.37 3.37"/>
</g>
</g>
<g opacity="0.6585">
<g opacity="0.6585">
<path opacity="0.6585" d="M-296.178 17.8963C-288.32 41.0647 -248.666 134.673 -122.49 128.927C26.5687 122.14 16.0664 262.182 154.611 317.541C256.593 358.29 318.083 210.642 504.358 268.709C674.238 321.665 778.686 295.308 838.044 286.556" stroke="url(#paint20_linear)" stroke-width="3.29989" stroke-miterlimit="10" stroke-linejoin="round" stroke-dasharray="3.29 3.29"/>
</g>
</g>
<g opacity="0.6415">
<g opacity="0.6415">
<path opacity="0.6415" d="M-297.866 21.3996C-290.798 44.6835 -253.816 140.887 -126.332 136.139C21.3004 130.64 10.2299 272.54 151.54 327.782C255.447 368.401 313.703 217.555 500.354 276.046C673.442 330.288 781.88 297.827 838.839 289.133" stroke="url(#paint21_linear)" stroke-width="3.22034" stroke-miterlimit="10" stroke-linejoin="round" stroke-dasharray="3.21 3.21"/>
</g>
</g>
<g opacity="0.6244">
<g opacity="0.6244">
<path opacity="0.6244" d="M-299.534 24.9046C-293.234 48.2919 -258.959 147.077 -130.17 143.35C16.0305 139.119 4.39486 282.9 148.472 338.023C254.303 378.512 309.328 224.473 496.353 283.383C672.636 338.912 785.064 300.363 839.641 291.712" stroke="url(#paint22_linear)" stroke-width="3.14087" stroke-miterlimit="10" stroke-linejoin="round" stroke-dasharray="3.14 3.14"/>
</g>
</g>
<g opacity="0.6073">
<g opacity="0.6073">
<path opacity="0.6073" d="M-301.198 28.3891C-295.656 51.829 -264.139 153.242 -134.011 150.559C10.7529 147.573 -1.44188 293.258 145.401 348.26C253.155 388.621 304.947 231.392 492.348 290.719C671.821 347.536 788.234 302.909 840.444 294.289" stroke="url(#paint23_linear)" stroke-width="3.06133" stroke-miterlimit="10" stroke-linejoin="round" stroke-dasharray="3.06 3.06"/>
</g>
</g>
<g opacity="0.5902">
<g opacity="0.5902">
<path opacity="0.5902" d="M-302.846 31.8779C-298.039 55.3604 -269.314 159.382 -137.852 157.769C5.47324 156.01 -7.27854 303.62 142.332 358.5C252.007 398.732 300.565 238.314 488.344 298.054C670.987 356.16 791.378 305.475 841.243 296.867" stroke="url(#paint24_linear)" stroke-width="2.98178" stroke-miterlimit="10" stroke-linejoin="round" stroke-dasharray="2.98 2.98"/>
</g>
</g>
<g opacity="0.5732">
<g opacity="0.5732">
<path opacity="0.5732" d="M-304.48 35.3693C-300.383 58.8835 -274.48 165.496 -141.692 164.979C0.192554 164.426 -13.2086 314.206 139.262 368.74C250.791 409.009 296.183 245.242 484.342 305.39C670.136 364.783 794.496 308.065 842.042 299.448" stroke="url(#paint25_linear)" stroke-width="2.90232" stroke-miterlimit="10" stroke-linejoin="round" stroke-dasharray="2.91 2.91"/>
</g>
</g>
<g opacity="0.5561">
<g opacity="0.5561">
<path opacity="0.5561" d="M-306.106 38.8498C-302.702 62.3544 -279.67 171.584 -145.533 172.189C-5.09141 172.822 -19.0416 324.56 136.191 378.979C249.648 419.116 291.798 252.171 480.338 312.726C669.27 373.406 797.592 310.676 842.843 302.029" stroke="url(#paint26_linear)" stroke-width="2.82277" stroke-miterlimit="10" stroke-linejoin="round" stroke-dasharray="2.82 2.82"/>
</g>
</g>
<g opacity="0.539">
<g opacity="0.539">
<path opacity="0.539" d="M-307.72 42.3369C-304.983 65.826 -284.849 177.645 -149.374 179.4C-10.3763 181.202 -24.872 334.917 133.122 389.22C248.505 429.224 287.413 259.106 476.335 320.063C668.383 382.028 800.659 313.316 843.645 304.614" stroke="url(#paint27_linear)" stroke-width="2.7433" stroke-miterlimit="10" stroke-linejoin="round" stroke-dasharray="2.75 2.75"/>
</g>
</g>
<g opacity="0.522">
<g opacity="0.522">
<path opacity="0.522" d="M-309.321 45.8107C-307.236 69.2413 -290.047 183.675 -153.213 186.609C-15.6582 189.559 -30.7019 345.27 130.053 399.458C247.363 439.33 283.026 266.041 472.333 327.397C667.472 390.644 803.688 315.984 844.448 307.198" stroke="url(#paint28_linear)" stroke-width="2.66376" stroke-miterlimit="10" stroke-linejoin="round" stroke-dasharray="2.67 2.67"/>
</g>
</g>
<g opacity="0.5049">
<g opacity="0.5049">
<path opacity="0.5049" d="M-310.914 49.2806C-309.456 72.6197 -295.256 189.676 -157.052 193.821C-20.9396 197.902 -36.5307 355.626 126.985 409.7C246.223 449.438 278.64 272.982 468.332 334.736C666.549 399.264 806.693 318.686 845.257 309.788" stroke="url(#paint29_linear)" stroke-width="2.58421" stroke-miterlimit="10" stroke-linejoin="round" stroke-dasharray="2.58 2.58"/>
</g>
</g>
<g opacity="0.4878">
<g opacity="0.4878">
<path opacity="0.4878" d="M-312.496 52.7657C-311.637 76.0352 -300.433 195.646 -160.894 201.029C-26.2205 206.223 -42.3635 365.978 123.913 419.937C245.079 459.544 274.249 279.921 464.326 342.069C665.572 407.868 809.618 321.44 846.053 312.38" stroke="url(#paint30_linear)" stroke-width="2.50474" stroke-miterlimit="10" stroke-linejoin="round" stroke-dasharray="2.51 2.51"/>
</g>
</g>
<g opacity="0.4707">
<g opacity="0.4707">
<path opacity="0.4707" d="M-314.07 56.2377C-313.792 79.3774 -305.64 201.59 -164.733 208.242C-31.4969 214.531 -48.1938 376.337 120.844 430.18C243.937 469.654 269.858 286.869 460.324 349.409C664.584 416.478 812.524 324.231 846.864 314.978" stroke="url(#paint31_linear)" stroke-width="2.4252" stroke-miterlimit="10" stroke-linejoin="round" stroke-dasharray="2.42 2.42"/>
</g>
</g>
<g opacity="0.4537">
<g opacity="0.4537">
<path opacity="0.4537" d="M-315.632 59.718C-315.908 82.7308 -310.825 207.5 -168.572 215.453C-36.7695 222.822 -54.0232 386.693 117.776 440.421C242.796 479.762 265.468 293.817 456.322 356.746C663.551 425.073 815.362 327.079 847.676 317.579" stroke="url(#paint32_linear)" stroke-width="2.34565" stroke-miterlimit="10" stroke-linejoin="round" stroke-dasharray="2.35 2.35"/>
</g>
</g>
<g opacity="0.4366">
<g opacity="0.4366">
<path opacity="0.4366" d="M-317.186 63.1936C-317.995 86.0455 -316.02 213.379 -172.412 222.665C-42.0376 231.095 -59.8539 397.049 114.706 450.662C241.653 489.87 261.074 300.768 452.318 364.083C662.488 433.664 818.145 329.981 848.491 320.185" stroke="url(#paint33_linear)" stroke-width="2.26619" stroke-miterlimit="10" stroke-linejoin="round" stroke-dasharray="2.27 2.27"/>
</g>
</g>
<g opacity="0.4195">
<g opacity="0.4195">
<path opacity="0.4195" d="M-318.734 66.6648C-320.05 89.3334 -321.215 219.22 -176.253 229.873C-47.3013 239.35 -65.6852 407.401 111.636 460.899C240.511 499.974 256.68 307.717 448.314 371.417C661.38 442.241 820.858 332.945 849.312 322.794" stroke="url(#paint34_linear)" stroke-width="2.18664" stroke-miterlimit="10" stroke-linejoin="round" stroke-dasharray="2.19 2.19"/>
</g>
</g>
<g opacity="0.4024">
<g opacity="0.4024">
<path opacity="0.4024" d="M-320.273 70.1397C-322.071 92.6004 -326.407 225.031 -180.093 237.085C-52.5555 247.592 -71.516 417.758 108.566 471.141C239.368 510.084 252.286 314.672 444.312 378.755C660.227 450.811 823.492 335.987 850.14 325.414" stroke="url(#paint35_linear)" stroke-width="2.10717" stroke-miterlimit="10" stroke-linejoin="round" stroke-dasharray="2.1 2.1"/>
</g>
</g>
<g opacity="0.3854">
<g opacity="0.3854">
<path opacity="0.3854" d="M-321.806 73.6227C-324.063 95.8826 -331.574 230.806 -183.934 244.295C-57.806 255.818 -77.3469 428.112 105.495 481.38C238.225 520.19 247.887 321.626 440.307 386.09C659.019 459.363 826.038 339.111 850.973 328.04" stroke="url(#paint36_linear)" stroke-width="2.02763" stroke-miterlimit="10" stroke-linejoin="round" stroke-dasharray="2.03 2.03"/>
</g>
</g>
<g opacity="0.3683">
<g opacity="0.3683">
<path opacity="0.3683" d="M-323.329 77.0959C-326.021 99.109 -336.755 236.544 -187.774 251.503C-63.0443 264.027 -83.1774 438.465 102.426 491.618C237.082 530.295 243.382 328.867 436.305 393.425C657.649 468.235 828.504 342.336 851.821 330.677" stroke="url(#paint37_linear)" stroke-width="1.94808" stroke-miterlimit="10" stroke-linejoin="round" stroke-dasharray="1.95 1.95"/>
</g>
</g>
<g opacity="0.3512">
<g opacity="0.3512">
<path opacity="0.3512" d="M-324.847 80.5682C-327.945 102.301 -341.938 242.245 -191.614 258.713C-68.2759 272.225 -89.0091 448.82 99.3566 501.858C235.94 540.402 239.01 335.757 432.302 400.761C656.389 476.69 830.908 345.607 852.683 333.32" stroke="url(#paint38_linear)" stroke-width="1.86862" stroke-miterlimit="10" stroke-linejoin="round" stroke-dasharray="1.87 1.87"/>
</g>
</g>
<g opacity="0.3341">
<g opacity="0.3341">
<path opacity="0.3341" d="M-326.359 84.053C-329.841 105.516 -347.09 247.913 -195.455 265.925C-73.4947 280.412 -94.8395 459.177 96.2861 512.099C234.797 550.512 234.638 342.649 428.299 408.099C655.082 485.131 833.222 348.973 853.559 335.976" stroke="url(#paint39_linear)" stroke-width="1.78907" stroke-miterlimit="10" stroke-linejoin="round" stroke-dasharray="1.79 1.79"/>
</g>
</g>
<g opacity="0.3171">
<g opacity="0.3171">
<path opacity="0.3171" d="M-327.862 87.5284C-331.699 108.669 -352.255 253.539 -199.294 273.136C-78.7025 288.584 -100.669 469.532 93.2172 522.34C233.655 560.619 230.266 349.539 424.296 415.435C653.758 493.565 835.497 352.391 854.461 338.64" stroke="url(#paint40_linear)" stroke-width="1.7096" stroke-miterlimit="10" stroke-linejoin="round" stroke-dasharray="1.71 1.71"/>
</g>
</g>
<g opacity="0.3">
<g opacity="0.3">
<path opacity="0.3" d="M-329.362 91.0105C-333.531 111.828 -357.398 259.13 -203.135 280.346C-83.8975 296.745 -106.5 479.887 90.1476 532.579C232.513 570.726 225.893 356.428 420.293 422.772C652.44 501.998 837.767 355.833 855.387 341.305" stroke="url(#paint41_linear)" stroke-width="1.63006" stroke-miterlimit="10" stroke-linejoin="round" stroke-dasharray="1.63 1.63"/>
</g>
</g>
</g>
<defs>
<linearGradient id="paint0_linear" x1="293.324" y1="43.9858" x2="269.964" y2="131.167" gradientUnits="userSpaceOnUse">
<stop stop-color="#AFD0E3"/>
<stop offset="1" stop-color="white"/>
</linearGradient>
<linearGradient id="paint1_linear" x1="291.539" y1="51.9152" x2="267.576" y2="141.346" gradientUnits="userSpaceOnUse">
<stop stop-color="#AFD0E3"/>
<stop offset="1" stop-color="white"/>
</linearGradient>
<linearGradient id="paint2_linear" x1="289.737" y1="59.8362" x2="265.169" y2="151.523" gradientUnits="userSpaceOnUse">
<stop stop-color="#AFD0E3"/>
<stop offset="1" stop-color="white"/>
</linearGradient>
<linearGradient id="paint3_linear" x1="287.935" y1="67.7555" x2="262.758" y2="161.716" gradientUnits="userSpaceOnUse">
<stop stop-color="#AFD0E3"/>
<stop offset="1" stop-color="white"/>
</linearGradient>
<linearGradient id="paint4_linear" x1="286.135" y1="75.6687" x2="260.346" y2="171.915" gradientUnits="userSpaceOnUse">
<stop stop-color="#AFD0E3"/>
<stop offset="1" stop-color="white"/>
</linearGradient>
<linearGradient id="paint5_linear" x1="284.333" y1="83.5854" x2="257.928" y2="182.129" gradientUnits="userSpaceOnUse">
<stop stop-color="#AFD0E3"/>
<stop offset="1" stop-color="white"/>
</linearGradient>
<linearGradient id="paint6_linear" x1="282.53" y1="91.499" x2="255.507" y2="192.351" gradientUnits="userSpaceOnUse">
<stop stop-color="#AFD0E3"/>
<stop offset="1" stop-color="white"/>
</linearGradient>
<linearGradient id="paint7_linear" x1="280.73" y1="99.4106" x2="253.092" y2="202.555" gradientUnits="userSpaceOnUse">
<stop stop-color="#AFD0E3"/>
<stop offset="1" stop-color="white"/>
</linearGradient>
<linearGradient id="paint8_linear" x1="278.93" y1="107.321" x2="250.669" y2="212.792" gradientUnits="userSpaceOnUse">
<stop stop-color="#AFD0E3"/>
<stop offset="1" stop-color="white"/>
</linearGradient>
<linearGradient id="paint9_linear" x1="278.353" y1="110.637" x2="248.235" y2="223.037" gradientUnits="userSpaceOnUse">
<stop stop-color="#AFD0E3"/>
<stop offset="1" stop-color="white"/>
</linearGradient>
<linearGradient id="paint10_linear" x1="278.061" y1="112.913" x2="245.806" y2="233.291" gradientUnits="userSpaceOnUse">
<stop stop-color="#AFD0E3"/>
<stop offset="1" stop-color="white"/>
</linearGradient>
<linearGradient id="paint11_linear" x1="277.767" y1="115.195" x2="243.373" y2="243.554" gradientUnits="userSpaceOnUse">
<stop stop-color="#AFD0E3"/>
<stop offset="1" stop-color="white"/>
</linearGradient>
<linearGradient id="paint12_linear" x1="277.48" y1="117.476" x2="240.946" y2="253.825" gradientUnits="userSpaceOnUse">
<stop stop-color="#AFD0E3"/>
<stop offset="1" stop-color="white"/>
</linearGradient>
<linearGradient id="paint13_linear" x1="277.198" y1="119.763" x2="238.521" y2="264.107" gradientUnits="userSpaceOnUse">
<stop stop-color="#AFD0E3"/>
<stop offset="1" stop-color="white"/>
</linearGradient>
<linearGradient id="paint14_linear" x1="276.914" y1="122.049" x2="236.094" y2="274.394" gradientUnits="userSpaceOnUse">
<stop stop-color="#AFD0E3"/>
<stop offset="1" stop-color="white"/>
</linearGradient>
<linearGradient id="paint15_linear" x1="276.641" y1="124.331" x2="233.673" y2="284.689" gradientUnits="userSpaceOnUse">
<stop stop-color="#AFD0E3"/>
<stop offset="1" stop-color="white"/>
</linearGradient>
<linearGradient id="paint16_linear" x1="276.366" y1="126.618" x2="231.251" y2="294.992" gradientUnits="userSpaceOnUse">
<stop stop-color="#AFD0E3"/>
<stop offset="1" stop-color="white"/>
</linearGradient>
<linearGradient id="paint17_linear" x1="276.102" y1="128.904" x2="228.837" y2="305.3" gradientUnits="userSpaceOnUse">
<stop stop-color="#AFD0E3"/>
<stop offset="1" stop-color="white"/>
</linearGradient>
<linearGradient id="paint18_linear" x1="275.841" y1="131.199" x2="226.425" y2="315.62" gradientUnits="userSpaceOnUse">
<stop stop-color="#AFD0E3"/>
<stop offset="1" stop-color="white"/>
</linearGradient>
<linearGradient id="paint19_linear" x1="275.584" y1="133.488" x2="224.016" y2="325.943" gradientUnits="userSpaceOnUse">
<stop stop-color="#AFD0E3"/>
<stop offset="1" stop-color="white"/>
</linearGradient>
<linearGradient id="paint20_linear" x1="275.339" y1="135.78" x2="221.617" y2="336.276" gradientUnits="userSpaceOnUse">
<stop stop-color="#AFD0E3"/>
<stop offset="1" stop-color="white"/>
</linearGradient>
<linearGradient id="paint21_linear" x1="275.092" y1="138.077" x2="219.215" y2="346.616" gradientUnits="userSpaceOnUse">
<stop stop-color="#AFD0E3"/>
<stop offset="1" stop-color="white"/>
</linearGradient>
<linearGradient id="paint22_linear" x1="274.858" y1="140.378" x2="216.824" y2="356.962" gradientUnits="userSpaceOnUse">
<stop stop-color="#AFD0E3"/>
<stop offset="1" stop-color="white"/>
</linearGradient>
<linearGradient id="paint23_linear" x1="274.623" y1="142.678" x2="214.433" y2="367.311" gradientUnits="userSpaceOnUse">
<stop stop-color="#AFD0E3"/>
<stop offset="1" stop-color="white"/>
</linearGradient>
<linearGradient id="paint24_linear" x1="274.394" y1="144.98" x2="212.046" y2="377.669" gradientUnits="userSpaceOnUse">
<stop stop-color="#AFD0E3"/>
<stop offset="1" stop-color="white"/>
</linearGradient>
<linearGradient id="paint25_linear" x1="274.172" y1="147.287" x2="209.661" y2="388.046" gradientUnits="userSpaceOnUse">
<stop stop-color="#AFD0E3"/>
<stop offset="1" stop-color="white"/>
</linearGradient>
<linearGradient id="paint26_linear" x1="273.954" y1="149.596" x2="207.283" y2="398.413" gradientUnits="userSpaceOnUse">
<stop stop-color="#AFD0E3"/>
<stop offset="1" stop-color="white"/>
</linearGradient>
<linearGradient id="paint27_linear" x1="273.742" y1="151.908" x2="204.911" y2="408.788" gradientUnits="userSpaceOnUse">
<stop stop-color="#AFD0E3"/>
<stop offset="1" stop-color="white"/>
</linearGradient>
<linearGradient id="paint28_linear" x1="273.534" y1="154.222" x2="202.543" y2="419.165" gradientUnits="userSpaceOnUse">
<stop stop-color="#AFD0E3"/>
<stop offset="1" stop-color="white"/>
</linearGradient>
<linearGradient id="paint29_linear" x1="273.333" y1="156.542" x2="200.18" y2="429.552" gradientUnits="userSpaceOnUse">
<stop stop-color="#AFD0E3"/>
<stop offset="1" stop-color="white"/>
</linearGradient>
<linearGradient id="paint30_linear" x1="273.131" y1="158.866" x2="197.817" y2="439.939" gradientUnits="userSpaceOnUse">
<stop stop-color="#AFD0E3"/>
<stop offset="1" stop-color="white"/>
</linearGradient>
<linearGradient id="paint31_linear" x1="272.939" y1="161.195" x2="195.463" y2="450.337" gradientUnits="userSpaceOnUse">
<stop stop-color="#AFD0E3"/>
<stop offset="1" stop-color="white"/>
</linearGradient>
<linearGradient id="paint32_linear" x1="272.753" y1="163.529" x2="193.116" y2="460.739" gradientUnits="userSpaceOnUse">
<stop stop-color="#AFD0E3"/>
<stop offset="1" stop-color="white"/>
</linearGradient>
<linearGradient id="paint33_linear" x1="272.571" y1="165.868" x2="190.772" y2="471.146" gradientUnits="userSpaceOnUse">
<stop stop-color="#AFD0E3"/>
<stop offset="1" stop-color="white"/>
</linearGradient>
<linearGradient id="paint34_linear" x1="272.395" y1="168.21" x2="188.434" y2="481.554" gradientUnits="userSpaceOnUse">
<stop stop-color="#AFD0E3"/>
<stop offset="1" stop-color="white"/>
</linearGradient>
<linearGradient id="paint35_linear" x1="272.226" y1="170.563" x2="186.104" y2="491.974" gradientUnits="userSpaceOnUse">
<stop stop-color="#AFD0E3"/>
<stop offset="1" stop-color="white"/>
</linearGradient>
<linearGradient id="paint36_linear" x1="272.062" y1="172.921" x2="183.78" y2="502.395" gradientUnits="userSpaceOnUse">
<stop stop-color="#AFD0E3"/>
<stop offset="1" stop-color="white"/>
</linearGradient>
<linearGradient id="paint37_linear" x1="271.909" y1="175.29" x2="181.467" y2="512.822" gradientUnits="userSpaceOnUse">
<stop stop-color="#AFD0E3"/>
<stop offset="1" stop-color="white"/>
</linearGradient>
<linearGradient id="paint38_linear" x1="271.764" y1="177.663" x2="179.162" y2="523.255" gradientUnits="userSpaceOnUse">
<stop stop-color="#AFD0E3"/>
<stop offset="1" stop-color="white"/>
</linearGradient>
<linearGradient id="paint39_linear" x1="271.63" y1="180.049" x2="176.87" y2="533.698" gradientUnits="userSpaceOnUse">
<stop stop-color="#AFD0E3"/>
<stop offset="1" stop-color="white"/>
</linearGradient>
<linearGradient id="paint40_linear" x1="271.511" y1="182.439" x2="174.592" y2="544.146" gradientUnits="userSpaceOnUse">
<stop stop-color="#AFD0E3"/>
<stop offset="1" stop-color="white"/>
</linearGradient>
<linearGradient id="paint41_linear" x1="271.407" y1="184.829" x2="172.327" y2="554.599" gradientUnits="userSpaceOnUse">
<stop stop-color="#AFD0E3"/>
<stop offset="1" stop-color="white"/>
</linearGradient>
<clipPath id="clip0">
<rect width="667.53" height="326.301" fill="white" transform="translate(589.79 357.15) rotate(-165)"/>
</clipPath>
</defs>
</svg>
