<svg width="13" height="13" viewBox="0 0 13 13" fill="none" xmlns="http://www.w3.org/2000/svg">
<g clip-path="url(#clip0)">
<path d="M253 -60H103C97.478 -60 93 -55.523 93 -50V-40H-18.716C-22.39 -40 -25.96 -39.337 -29.298 -38.08C-33.449 -94.976 -81.063 -140 -139 -140C-199.654 -140 -249 -90.654 -249 -30C-249 19.65 -215.932 61.716 -170.665 75.347C-186.701 88.186 -197 107.908 -197 130C-197 135.523 -192.523 140 -187 140H-3.56799C9.78702 140 22.343 134.799 31.788 125.355L77.143 80H93V90C93 95.523 97.478 100 103 100H253C258.522 100 263 95.523 263 90V-50C263 -55.523 258.522 -60 253 -60ZM-139 60C-188.626 60 -229 19.626 -229 -30C-229 -79.626 -188.626 -120 -139 -120C-89.374 -120 -49 -79.626 -49 -30C-49 -27.248 -49.141 -24.482 -49.388 -21.755L-94.071 22.928C-104.097 32.954 -107.378 47.2 -103.936 59.999H-127C-129.954 59.999 -132.859 60.204 -135.718 60.561C-136.748 60.204 -137.849 60 -139 60ZM73 60C70.348 60 67.805 61.054 65.929 62.929L17.645 111.213C11.979 116.88 4.44501 120 -3.56799 120H-175.996C-171.35 97.206 -151.146 80 -127 80H-90.773C-83.835 85.505 -75.42 88.266 -67 88.266C-57.196 88.266 -47.393 84.535 -39.929 77.071L0.0709991 37.071C3.976 33.166 3.976 26.834 0.0709991 22.928C-3.834 19.024 -10.166 19.024 -14.072 22.928L-54.072 62.928C-57.525 66.382 -62.117 68.283 -67.001 68.283C-71.885 68.283 -76.477 66.381 -79.93 62.928C-87.059 55.799 -87.059 44.199 -79.93 37.071L-25.788 -17.071C-23.899 -18.96 -21.388 -20 -18.717 -20H93V60H73ZM113 -40H143V80H113V-40ZM243 80H163V-40H243V80Z" fill="black"/>
<path d="M11.2422 8.15368C11.0495 8.06943 10.825 8.15744 10.7408 8.35018C10.004 10.0362 8.33949 11.1257 6.50016 11.1257C4.22773 11.1257 2.30182 9.43997 1.93699 7.25434L2.94718 7.92933C3.12207 8.0462 3.35858 7.99915 3.47545 7.82424C3.59233 7.64934 3.54525 7.41283 3.37036 7.29596L1.70517 6.18332C1.62118 6.1272 1.51834 6.10681 1.41927 6.12644C1.3202 6.14614 1.23303 6.20442 1.17689 6.28841L0.0644524 7.9536C-0.0523953 8.12852 -0.00532106 8.36503 0.16957 8.48188C0.23457 8.52532 0.308075 8.54609 0.380794 8.54609C0.50371 8.54609 0.624417 8.48665 0.697822 8.37679L1.2232 7.59039C1.43699 8.63447 1.95654 9.59221 2.7342 10.3525C3.74663 11.3423 5.08405 11.8875 6.50019 11.8875C8.64224 11.8875 10.5808 10.6187 11.4387 8.65519C11.523 8.46243 11.435 8.2379 11.2422 8.15368Z" fill="#402F22"/>
<path d="M8.5 6.49989C8.5 5.39709 7.6028 4.49989 6.5 4.49989C5.3972 4.49989 4.5 5.39709 4.5 6.49989C4.5 7.60269 5.3972 8.49989 6.5 8.49989C7.6028 8.49989 8.5 7.60269 8.5 6.49989ZM6.5 7.83323C5.7648 7.83323 5.16667 7.23509 5.16667 6.49989C5.16667 5.76469 5.7648 5.16656 6.5 5.16656C7.2352 5.16656 7.83333 5.76469 7.83333 6.49989C7.83333 7.23509 7.2352 7.83323 6.5 7.83323Z" fill="#402F22"/>
<path d="M12.8308 4.51827C12.6559 4.40142 12.4194 4.44847 12.3025 4.62336L11.7771 5.40973C11.5633 4.36562 11.0438 3.40789 10.2661 2.64756C9.25366 1.65776 7.9162 1.11263 6.50006 1.11263C4.35803 1.11263 2.4195 2.38139 1.5615 4.3449C1.47728 4.53764 1.56526 4.76217 1.758 4.84639C1.95074 4.93061 2.17527 4.84264 2.25951 4.64989C2.99628 2.96386 4.66079 1.87434 6.50009 1.87434C8.77251 1.87434 10.6984 3.5601 11.0633 5.7457L10.0531 5.07077C9.87819 4.95387 9.64171 5.00097 9.52483 5.17586C9.40798 5.35078 9.45503 5.58729 9.62995 5.70414L11.2951 6.81671C11.3601 6.86015 11.4336 6.88092 11.5063 6.88092C11.6293 6.88092 11.7499 6.8215 11.8233 6.71161L12.9359 5.04657C13.0527 4.87163 13.0057 4.63512 12.8308 4.51827Z" fill="#402F22"/>
</g>
<defs>
<clipPath id="clip0">
<rect width="13" height="13" fill="white"/>
</clipPath>
</defs>
</svg>
