<svg width="12" height="12" viewBox="0 0 12 12" fill="none" xmlns="http://www.w3.org/2000/svg">
<g clip-path="url(#for6clip0)">
<path d="M7.10784 1.323C6.83072 0.915484 6.58621 0.540567 6.358 0.198251C6.3254 0.149349 6.2765 0.100446 6.2276 0.0678449C6.03199 -0.0625611 5.77118 0.0026419 5.64077 0.198251C5.42886 0.540567 5.18435 0.899183 4.89093 1.323C3.60318 3.21389 1.67969 6.06652 1.67969 7.6966C1.67969 8.88655 2.16871 9.9624 2.95115 10.7448C3.73358 11.511 4.80943 12 5.99939 12C7.18934 12 8.26519 11.511 9.04763 10.7285C9.83006 9.9461 10.3191 8.87025 10.3191 7.68029C10.3191 6.05022 8.3956 3.21389 7.10784 1.323ZM8.4608 10.1417C7.82507 10.7774 6.96113 11.1524 5.99939 11.1524C5.03764 11.1524 4.1737 10.7611 3.53797 10.1417C2.90224 9.50598 2.52733 8.64204 2.52733 7.68029C2.52733 6.31103 4.36931 3.58881 5.59187 1.77942C5.73857 1.56751 5.86898 1.3556 5.99939 1.1763C6.12979 1.3556 6.2602 1.56751 6.4069 1.77942C7.62946 3.60511 9.47145 6.31103 9.47145 7.68029C9.47145 8.64204 9.08023 9.50598 8.4608 10.1417Z" fill="#402F22"/>
<path d="M8.52636 7.38686C8.29814 7.37056 8.10254 7.54987 8.08624 7.77808C8.06993 8.1367 7.95583 8.47901 7.77652 8.77243C7.59721 9.06584 7.3364 9.32665 7.02669 9.48966C6.83108 9.60377 6.74957 9.86458 6.86368 10.0602C6.99408 10.2884 7.2549 10.3536 7.4505 10.2395C7.89063 9.99498 8.24924 9.63637 8.49375 9.22885C8.75457 8.82133 8.90127 8.33231 8.91757 7.82698C8.93388 7.59877 8.75457 7.40316 8.52636 7.38686Z" fill="#402F22"/>
</g>
<defs>
<clipPath id="for6clip0">
<rect width="12" height="12" fill="white"/>
</clipPath>
</defs>
</svg>
