<svg width="13" height="13" viewBox="0 0 13 13" fill="none" xmlns="http://www.w3.org/2000/svg">
<g clip-path="url(#clip0)">
<path d="M8.97725 6.19745L7.68152 7.49316L8.22097 8.03261L8.59578 7.65777V10.1581H9.35869V7.65777L9.75154 8.05059L10.291 7.51114L8.97725 6.19745Z" fill="#402F22"/>
<path d="M12.9983 8.08095H12.9999V0.793167H0V8.01938H4.97658C4.97414 8.07711 4.97267 8.135 4.97267 8.19315C4.97267 9.26519 5.39017 10.2731 6.14825 11.0312C6.90636 11.7893 7.91427 12.2068 8.98633 12.2068C10.0584 12.2068 11.0664 11.7893 11.8244 11.0312C12.5825 10.2731 13 9.26524 13 8.19315C13 8.15565 12.9993 8.11827 12.9983 8.08095ZM12.237 1.55608V2.52453C12.0086 2.46034 11.7991 2.33874 11.6267 2.16637C11.4543 1.99399 11.3328 1.78452 11.2686 1.55608H12.237ZM0.762911 1.55608H1.77287C1.70868 1.78452 1.58711 1.99399 1.41471 2.16637C1.23132 2.34976 1.00719 2.47565 0.762911 2.53608V1.55608ZM0.762911 7.25649V6.27652C1.00722 6.33692 1.23127 6.46273 1.41471 6.64618C1.58711 6.81855 1.70868 7.02805 1.77287 7.25649H0.762911ZM5.08218 7.25649H2.55444C2.47787 6.82328 2.27169 6.42426 1.95413 6.1067C1.62523 5.77779 1.21174 5.56941 0.762885 5.49936V3.31366C1.21177 3.24366 1.62523 3.03475 1.95413 2.70586C2.27169 2.3883 2.47787 1.98932 2.55444 1.55613H10.487C10.5636 1.98932 10.7697 2.3883 11.0873 2.70586C11.4049 3.02342 11.8039 3.22962 12.2371 3.3062V5.83797C12.1134 5.66808 11.9758 5.50655 11.8244 5.35512C11.0663 4.59703 10.0584 4.17951 8.98631 4.17951C8.89353 4.17951 8.80131 4.18283 8.7096 4.18906C8.64181 3.55386 8.2964 2.97584 7.74768 2.61428C7.26475 2.29604 6.68666 2.18493 6.12014 2.30137C5.55358 2.41783 5.06631 2.74799 4.74801 3.23099C4.42977 3.71395 4.31863 4.29199 4.4351 4.85853C4.55157 5.42509 4.88172 5.91236 5.36475 6.23069C5.39375 6.24978 5.42327 6.26788 5.45303 6.28553C5.28741 6.59126 5.16289 6.91722 5.08218 7.25649ZM5.18237 4.70486C5.10691 4.33792 5.17889 3.96354 5.38504 3.6507C5.81053 3.00497 6.68211 2.82576 7.32792 3.25131C7.69517 3.49333 7.92181 3.88513 7.95477 4.31286C7.27757 4.49169 6.65665 4.84665 6.1482 5.35509C6.05339 5.44995 5.96387 5.54872 5.87982 5.65102C5.8474 5.63312 5.81556 5.6141 5.78446 5.59359C5.47164 5.38747 5.25783 5.07181 5.18237 4.70486ZM11.2849 10.4918C10.6709 11.1058 9.85464 11.4439 8.98631 11.4439C8.118 11.4439 7.30164 11.1057 6.68765 10.4918C6.07368 9.87779 5.73555 9.06146 5.73555 8.19315C5.73555 7.32482 6.07371 6.50848 6.68767 5.89449C7.30167 5.28052 8.11798 4.94239 8.98631 4.94239C9.85464 4.94239 10.671 5.28055 11.2849 5.89452C11.8989 6.50848 12.2371 7.32482 12.2371 8.19315C12.2371 9.06146 11.8989 9.87779 11.2849 10.4918Z" fill="#402F22"/>
</g>
<defs>
<clipPath id="clip0">
<rect width="13" height="13" fill="white"/>
</clipPath>
</defs>
</svg>
