<svg width="12" height="12" viewBox="0 0 12 12" fill="none" xmlns="http://www.w3.org/2000/svg">
<path d="M10.2422 6.28481H9.06755C8.90768 6.28481 8.7529 6.30665 8.60559 6.34682C8.31502 5.7756 7.72177 5.38312 7.03816 5.38312H4.96184C4.27823 5.38312 3.68498 5.7756 3.39441 6.34682C3.2471 6.30665 3.09232 6.28481 2.93245 6.28481H1.75781C0.788555 6.28481 0 7.07336 0 8.04262V9.92038C0 10.5019 0.473133 10.9751 1.05469 10.9751H10.9453C11.5269 10.9751 12 10.5019 12 9.92038V8.04262C12 7.07336 11.2114 6.28481 10.2422 6.28481ZM3.20402 7.14098V10.272H1.05469C0.860836 10.272 0.703125 10.1143 0.703125 9.92041V8.04264C0.703125 7.46109 1.17626 6.98795 1.75781 6.98795H2.93245C3.02789 6.98795 3.1203 7.00091 3.20829 7.0248C3.20576 7.06326 3.20402 7.10193 3.20402 7.14098ZM8.09285 10.272H3.90715V7.14095C3.90715 6.5594 4.38028 6.08627 4.96184 6.08627H7.03816C7.61972 6.08627 8.09285 6.5594 8.09285 7.14095V10.272ZM11.2969 9.92041C11.2969 10.1143 11.1392 10.272 10.9453 10.272H8.79598V7.14095C8.79598 7.10188 8.79424 7.06321 8.79171 7.02477C8.8797 7.00091 8.97211 6.98793 9.06755 6.98793H10.2422C10.8237 6.98793 11.2969 7.46106 11.2969 8.04262V9.92041Z" fill="#402F22"/>
<path d="M2.34522 2.9649C1.48391 2.9649 0.783203 3.66562 0.783203 4.52692C0.78318 5.38823 1.48391 6.08894 2.34522 6.08894C3.2065 6.08894 3.90723 5.38823 3.90723 4.52692C3.90723 3.66562 3.20652 2.9649 2.34522 2.9649ZM2.3452 5.38581C1.87159 5.38581 1.4863 5.00052 1.4863 4.52692C1.4863 4.05332 1.87159 3.66803 2.3452 3.66803C2.8188 3.66803 3.20409 4.05332 3.20409 4.52692C3.20409 5.00052 2.8188 5.38581 2.3452 5.38581Z" fill="#402F22"/>
<path d="M5.99991 1.0249C4.84923 1.0249 3.91309 1.96104 3.91309 3.11173C3.91309 4.26242 4.84923 5.19856 5.99991 5.19856C7.1506 5.19856 8.08674 4.26242 8.08674 3.11173C8.08674 1.96107 7.1506 1.0249 5.99991 1.0249ZM5.99991 4.49543C5.23693 4.49543 4.61621 3.87471 4.61621 3.11173C4.61621 2.34877 5.23693 1.72803 5.99991 1.72803C6.7629 1.72803 7.38362 2.34875 7.38362 3.11173C7.38362 3.87471 6.7629 4.49543 5.99991 4.49543Z" fill="#402F22"/>
<path d="M9.65479 2.9649C8.79351 2.9649 8.09277 3.66562 8.09277 4.52692C8.0928 5.38823 8.79351 6.08894 9.65479 6.08894C10.5161 6.08894 11.2168 5.38823 11.2168 4.52692C11.2168 3.66562 10.5161 2.9649 9.65479 2.9649ZM9.65479 5.38581C9.18121 5.38581 8.7959 5.00052 8.7959 4.52692C8.79592 4.05332 9.18121 3.66803 9.65479 3.66803C10.1284 3.66803 10.5137 4.05332 10.5137 4.52692C10.5137 5.00052 10.1284 5.38581 9.65479 5.38581Z" fill="#402F22"/>
</svg>
