<svg width="12" height="12" viewBox="0 0 12 12" fill="none" xmlns="http://www.w3.org/2000/svg">
<g clip-path="url(#for4clip0)">
<path d="M5.30449 0.000305176H1.55467C1.34756 0.000305176 1.17969 0.16818 1.17969 0.375287V11.6247C1.17969 11.8318 1.34756 11.9997 1.55467 11.9997H5.30449C5.51159 11.9997 5.67947 11.8318 5.67947 11.6247V0.375287C5.67947 0.16818 5.51157 0.000305176 5.30449 0.000305176ZM4.9295 11.2498H1.92965V10.1248H3.80456V9.37485H1.92965V8.2499H3.0546V7.49994H1.92965V6.37499H3.80456V5.62503H1.92965V4.50008H3.0546V3.75012H1.92965V2.62518H3.80456V1.87521H1.92965V0.750268H4.9295V11.2498Z" fill="#402F22"/>
<path d="M10.2917 9.48734L9.05421 10.721V1.27899L10.2879 2.51268L10.8166 1.98396L8.94172 0.109049C8.79545 -0.0363498 8.55926 -0.0363498 8.41299 0.109049L6.53809 1.98396L7.06681 2.51268L8.30425 1.27899V10.721L7.07056 9.48734L6.54184 10.0161L8.41674 11.891C8.56301 12.0364 8.7992 12.0364 8.94547 11.891L10.8204 10.0161L10.2917 9.48734Z" fill="#402F22"/>
</g>
<defs>
<clipPath id="for4clip0">
<rect width="12" height="12" fill="white"/>
</clipPath>
</defs>
</svg>
