<svg width="13" height="13" viewBox="0 0 13 13" fill="none" xmlns="http://www.w3.org/2000/svg">
<path d="M6.5 0C2.91606 0 0 2.91606 0 6.5C0 10.0839 2.91606 13 6.5 13C10.0839 13 13 10.0839 13 6.5C13 2.91606 10.0839 0 6.5 0ZM6.5 12.1875C3.36375 12.1875 0.8125 9.63625 0.8125 6.5C0.8125 3.36375 3.36375 0.8125 6.5 0.8125C9.63625 0.8125 12.1875 3.36375 12.1875 6.5C12.1875 9.63625 9.63625 12.1875 6.5 12.1875Z" fill="#402F22"/>
<path d="M7.89586 8.62631C7.59361 8.83269 7.26049 8.9375 6.90624 8.9375C6.15793 8.9375 5.50956 8.4435 5.15774 7.71875H6.49999C6.72424 7.71875 6.90624 7.53675 6.90624 7.3125C6.90624 7.08825 6.72424 6.90625 6.49999 6.90625H4.90912C4.89043 6.77381 4.875 6.63894 4.875 6.5C4.875 6.36106 4.89043 6.22619 4.90912 6.09375H6.90624C7.13049 6.09375 7.31249 5.91175 7.31249 5.6875C7.31249 5.46325 7.13049 5.28125 6.90624 5.28125H5.15774C5.50956 4.5565 6.15793 4.0625 6.90624 4.0625C7.26049 4.0625 7.59361 4.16731 7.89586 4.37369C8.08111 4.49962 8.33461 4.45331 8.46055 4.26725C8.5873 4.082 8.53936 3.82931 8.35411 3.70256C7.92024 3.40681 7.41974 3.25 6.90624 3.25C5.71593 3.25 4.69706 4.09256 4.27375 5.28125H3.65625C3.432 5.28125 3.25 5.46325 3.25 5.6875C3.25 5.91175 3.432 6.09375 3.65625 6.09375H4.09825C4.08362 6.22863 4.0625 6.36106 4.0625 6.5C4.0625 6.63894 4.08362 6.77137 4.09825 6.90625H3.65625C3.432 6.90625 3.25 7.08825 3.25 7.3125C3.25 7.53675 3.432 7.71875 3.65625 7.71875H4.27375C4.69706 8.90744 5.71593 9.75 6.90624 9.75C7.41974 9.75 7.92024 9.59319 8.35411 9.29744C8.53936 9.17069 8.5873 8.918 8.46055 8.73275C8.33461 8.5475 8.08111 8.50037 7.89586 8.62631Z" fill="#402F22"/>
</svg>
