<svg width="12" height="12" viewBox="0 0 12 12" fill="none" xmlns="http://www.w3.org/2000/svg">
<g clip-path="url(#for1clip0)">
<path d="M11.6558 9.41352C12.1127 9.87046 12.1127 10.6139 11.6558 11.0708C11.6552 11.0715 11.6544 11.0722 11.6537 11.0729L10.8519 11.8648C10.7605 11.9549 10.6415 12 10.5226 12C10.4015 12 10.2807 11.9535 10.1889 11.8606C10.0071 11.6764 10.0089 11.3796 10.1931 11.1977L10.6623 10.7344H3.13966C2.10576 10.7344 1.26467 9.89326 1.26467 8.85936V1.32541L0.797018 1.78683C0.612722 1.96865 0.315909 1.96664 0.134086 1.78234C-0.0477377 1.59805 -0.0457235 1.30124 0.138572 1.11941L0.930501 0.338195C1.38616 -0.111328 2.12755 -0.111328 2.58321 0.338195L3.37514 1.11941C3.55943 1.30124 3.56145 1.59805 3.37962 1.78234C3.28789 1.87527 3.16695 1.92187 3.04591 1.92187C2.92699 1.92187 2.80806 1.87692 2.71669 1.78683L2.20217 1.27917V8.85936C2.20217 9.37626 2.62276 9.79685 3.13966 9.79685H10.7098L10.1931 9.28663C10.0089 9.10472 10.007 8.8079 10.1889 8.6237C10.3709 8.43959 10.6677 8.43767 10.8519 8.61958L11.6537 9.41142C11.6544 9.41215 11.6552 9.41279 11.6558 9.41352ZM10.5928 0H4.52247C4.26292 0 4.05281 0.210937 4.05373 0.470489C4.05473 0.728667 4.2643 0.937498 4.52247 0.937498H10.5928C10.8517 0.937498 11.0615 1.14734 11.0615 1.40625V7.49998C11.0615 7.75816 11.2704 7.96782 11.5285 7.96873C11.7881 7.96965 11.999 7.75954 11.999 7.49998V1.40625C11.999 0.629607 11.3694 0 10.5928 0ZM6.88966 8.03648C7.14857 8.03648 7.35841 7.82664 7.35841 7.56773V5.48143C7.35841 4.77062 6.78016 4.19237 6.06935 4.19237C5.75798 4.19237 5.47206 4.30334 5.24904 4.48781C5.02601 4.30334 4.74009 4.19237 4.42872 4.19237C4.24992 4.19237 4.07945 4.22909 3.92454 4.29519C3.84114 4.21883 3.73036 4.17187 3.60841 4.17187C3.3495 4.17187 3.13966 4.3817 3.13966 4.64062V7.5703C3.13966 7.82921 3.3495 8.03905 3.60841 8.03905C3.86732 8.03905 4.07716 7.82921 4.07716 7.5703V5.48143C4.07716 5.28762 4.23491 5.12987 4.42872 5.12987C4.62254 5.12987 4.78029 5.28762 4.78029 5.48143V7.5703C4.78029 7.82921 4.99012 8.03905 5.24904 8.03905C5.50795 8.03905 5.71778 7.82921 5.71778 7.5703V5.48143C5.71778 5.28762 5.87553 5.12987 6.06935 5.12987C6.26316 5.12987 6.42091 5.28762 6.42091 5.48143V7.56773C6.42091 7.82664 6.63075 8.03648 6.88966 8.03648ZM9.01661 2.53124C9.01413 2.53124 9.01175 2.53161 9.00928 2.53161C9.0069 2.53161 9.00452 2.53124 9.00205 2.53124C8.40595 2.53124 7.9209 3.01684 7.9209 3.61367C7.9209 3.87249 8.13074 4.08242 8.38965 4.08242C8.64856 4.08242 8.8584 3.87249 8.8584 3.61367C8.8584 3.53512 8.92423 3.46874 9.00205 3.46874C9.00452 3.46874 9.0069 3.46838 9.00937 3.46838C9.01175 3.46838 9.01413 3.46874 9.01661 3.46874C9.09122 3.46874 9.15476 3.52972 9.15989 3.60397C9.15064 3.6383 9.07877 3.85061 8.62961 4.34472C8.35102 4.65105 8.07728 4.90053 8.07462 4.90291C7.93116 5.0331 7.88264 5.23818 7.9524 5.41881C8.02216 5.59954 8.19593 5.71874 8.38965 5.71874H9.65528C9.91419 5.71874 10.124 5.5089 10.124 5.24999C10.124 4.99108 9.91419 4.78124 9.65528 4.78124H9.49405C9.91025 4.29125 10.0977 3.9266 10.0977 3.61367C10.0977 3.01684 9.6127 2.53124 9.01661 2.53124Z" fill="#402F22"/>
</g>
<defs>
<clipPath id="for1clip0">
<rect width="12" height="12" fill="white"/>
</clipPath>
</defs>
</svg>
