<svg width="38" height="38" viewBox="0 0 38 38" fill="none" xmlns="http://www.w3.org/2000/svg">
<path d="M4.1403 24.249H4.8433L7.11014 35.0167C7.1381 35.1495 7.21088 35.2687 7.31626 35.3542C7.42165 35.4397 7.55323 35.4864 7.68894 35.4863H13.0119C13.4723 35.4865 13.9147 35.3076 14.2457 34.9876C14.5767 34.6675 14.7703 34.2314 14.7857 33.7712C14.801 33.3111 14.6369 32.8629 14.328 32.5216C14.0191 32.1802 13.5896 31.9722 13.1302 31.9416L12.1913 27.7976H13.6033C13.7602 27.7976 13.9106 27.7353 14.0216 27.6244C14.1325 27.5135 14.1948 27.363 14.1948 27.2062V24.4954C17.2905 25.6615 20.0838 27.5097 22.3676 29.9029L24.2653 31.8954C24.3307 32.4177 24.5926 32.8955 24.9978 33.2315C25.4029 33.5676 25.9209 33.7367 26.4463 33.7044C26.9717 33.6721 27.465 33.4409 27.826 33.0577C28.1869 32.6746 28.3884 32.1684 28.3893 31.642V22.3843L31.4437 21.8752C31.5819 21.8522 31.7073 21.781 31.7978 21.6741C31.8883 21.5673 31.938 21.4318 31.938 21.2918V16.5603C31.938 16.4203 31.8883 16.2848 31.7978 16.1779C31.7073 16.0711 31.5819 15.9998 31.4437 15.9768L28.3893 15.4677V6.21008C28.3884 5.6837 28.1869 5.17746 27.826 4.79433C27.465 4.41121 26.9717 4.17999 26.4463 4.1477C25.9209 4.11541 25.4029 4.28449 24.9978 4.62053C24.5926 4.95658 24.3307 5.43435 24.2653 5.95665L22.3676 7.94921C19.9131 10.5216 16.8723 12.4614 13.505 13.6031H4.1403C3.35628 13.604 2.60461 13.9158 2.05022 14.4702C1.49583 15.0246 1.18399 15.7762 1.18311 16.5603V21.2918C1.18399 22.0758 1.49583 22.8275 2.05022 23.3819C2.60461 23.9363 3.35628 24.2481 4.1403 24.249ZM12.657 33.1206H13.0119C13.1688 33.1206 13.3192 33.1829 13.4301 33.2938C13.541 33.4047 13.6033 33.5552 13.6033 33.712C13.6033 33.8689 13.541 34.0193 13.4301 34.1302C13.3192 34.2412 13.1688 34.3035 13.0119 34.3035H8.16882L6.05206 24.249H10.1737L12.0804 32.6599C12.11 32.7907 12.1833 32.9075 12.288 32.9912C12.3928 33.0749 12.5229 33.1206 12.657 33.1206ZM13.0119 26.6147H11.9229L11.3866 24.249H13.0119V26.6147ZM30.7551 17.0613V20.7908L28.3893 21.1851V16.667L30.7551 17.0613ZM26.3193 5.32292C26.5545 5.32318 26.78 5.41673 26.9463 5.58305C27.1126 5.74937 27.2062 5.97487 27.2065 6.21008V31.642C27.2065 31.8773 27.113 32.1029 26.9466 32.2693C26.7802 32.4357 26.5546 32.5291 26.3193 32.5291C26.084 32.5291 25.8583 32.4357 25.692 32.2693C25.5256 32.1029 25.4321 31.8773 25.4321 31.642V6.21008C25.4324 5.97487 25.5259 5.74937 25.6923 5.58305C25.8586 5.41673 26.0841 5.32318 26.3193 5.32292ZM23.2241 8.7651L24.2493 7.68868V30.1634L23.2241 29.087C20.7141 26.4563 17.6212 24.452 14.1948 23.2355V14.6166C17.6213 13.4001 20.7141 11.3958 23.2241 8.7651ZM13.0119 23.0661H5.91462V14.786H13.0119V23.0661ZM2.36598 16.5603C2.36651 16.0899 2.55362 15.6389 2.88625 15.3062C3.21889 14.9736 3.66989 14.7865 4.1403 14.786H4.73174V23.0661H4.1403C3.66989 23.0656 3.21889 22.8785 2.88625 22.5458C2.55362 22.2132 2.36651 21.7622 2.36598 21.2918V16.5603Z" fill="#402F22"/>
<path d="M8.28054 18.926H7.09766V21.2918H8.28054V18.926Z" fill="#402F22"/>
<path d="M10.6463 18.926H9.46338V21.2918H10.6463V18.926Z" fill="#402F22"/>
<path d="M36.5536 14.7977L33.0049 15.5073L33.2368 16.6672L36.7855 15.9576L36.5536 14.7977Z" fill="#402F22"/>
<path d="M35.6598 1.35591L31.5195 5.49585L32.3559 6.3323L36.4962 2.19237L35.6598 1.35591Z" fill="#402F22"/>
<path d="M36.376 7.76687L32.2358 10.1326L32.8227 11.1597L36.9628 8.79398L36.376 7.76687Z" fill="#402F22"/>
<path d="M33.2368 21.3032L33.0049 22.4631L36.5536 23.1728L36.7855 22.0129L33.2368 21.3032Z" fill="#402F22"/>
<path d="M32.3564 31.6384L31.52 32.4749L35.6603 36.6148L36.4966 35.7783L32.3564 31.6384Z" fill="#402F22"/>
<path d="M32.8228 26.811L32.2358 27.8381L36.3759 30.2039L36.9628 29.1768L32.8228 26.811Z" fill="#402F22"/>
<path d="M22.8546 12.3496L22.0952 11.4426C21.8143 11.6782 21.5235 11.9104 21.2319 12.1328L21.9491 13.0732C22.255 12.8401 22.5596 12.5965 22.8546 12.3496Z" fill="#402F22"/>
<path d="M20.9781 13.7787L20.3054 12.8057C18.8771 13.7931 17.3477 14.6256 15.7432 15.2893L16.1947 16.3825C17.8771 15.6868 19.4806 14.814 20.9781 13.7787Z" fill="#402F22"/>
</svg>
