<svg width="32" height="32" viewBox="0 0 32 32" fill="none" xmlns="http://www.w3.org/2000/svg">
<path d="M22.9179 17.0764C23.1268 15.7316 22.9391 14.3551 22.3779 13.1153C21.8167 11.8755 20.9062 10.8262 19.7579 10.0957C18.6096 9.36534 17.2733 8.98552 15.9125 9.00276C14.5517 9.02 13.2254 9.43356 12.096 10.1928C10.9665 10.9521 10.0829 12.0241 9.55331 13.2778C9.02367 14.5314 8.87096 15.9122 9.11387 17.2513C9.35679 18.5904 9.98479 19.8296 10.921 20.8173C11.8572 21.805 13.0611 22.4983 14.3853 22.8125L14.6151 21.8393C13.3135 21.5282 12.1525 20.7927 11.3151 19.7488C10.4591 18.6874 9.99477 17.3636 10.0002 16C10.001 15.1735 10.1725 14.3561 10.504 13.5991C10.8355 12.842 11.3199 12.1616 11.9267 11.6005C12.5335 11.0394 13.2497 10.6097 14.0304 10.3383C14.811 10.067 15.6393 9.95987 16.4634 10.0237C17.2874 10.0875 18.0893 10.3208 18.8189 10.7091C19.5485 11.0973 20.19 11.6322 20.7032 12.28C21.2164 12.9278 21.5903 13.6747 21.8013 14.4737C22.0123 15.2728 22.056 16.1069 21.9296 16.9236L22.9179 17.0764Z" fill="#402F22"/>
<path d="M7.30386 8.26975C7.36953 8.26977 7.43455 8.25685 7.49523 8.23174C7.55591 8.20662 7.61104 8.1698 7.65748 8.12338L8.12354 7.65731C8.17301 7.60783 8.21155 7.54852 8.23665 7.48322C8.26176 7.41791 8.27288 7.34806 8.26929 7.27819L8.08667 3.70319L11.6915 2.20994L11.3087 1.28613L7.37798 2.91413C7.28259 2.95364 7.20177 3.02172 7.14663 3.10901C7.09148 3.1963 7.0647 3.29852 7.06998 3.40163L7.25923 7.10738L7.10748 7.25913L6.52561 7.22944L6.47461 8.22806L7.27836 8.26919C7.28692 8.2695 7.29542 8.26975 7.30386 8.26975Z" fill="#402F22"/>
<path d="M4.47656 8.12476L4.52756 7.12582L5.52787 7.17689L5.47688 8.17582L4.47656 8.12476Z" fill="#402F22"/>
<path d="M12.3617 27.903L10.1563 26.9894L10.3125 23.9361C10.3161 23.8662 10.305 23.7963 10.2799 23.731C10.2548 23.6657 10.2162 23.6064 10.1668 23.5569L8.4437 21.8339C8.39422 21.7844 8.33491 21.7459 8.2696 21.7208C8.20429 21.6957 8.13445 21.6846 8.06457 21.6881L5.01126 21.8444L4.09701 19.6383L6.36632 17.5896C6.41825 17.5427 6.45977 17.4854 6.48818 17.4215C6.51659 17.3575 6.53127 17.2884 6.53126 17.2184V14.7816C6.53127 14.7117 6.51659 14.6425 6.48818 14.5785C6.45977 14.5146 6.41825 14.4573 6.36632 14.4104L4.09701 12.3617L5.01063 10.1563L8.06395 10.3125C8.13383 10.3162 8.20371 10.3051 8.26904 10.28C8.33436 10.2549 8.39366 10.2163 8.44307 10.1668L10.1661 8.4437C10.2156 8.39422 10.2541 8.33491 10.2792 8.2696C10.3043 8.20429 10.3155 8.13445 10.3119 8.06457L10.1563 5.01063L12.362 4.09701L14.4108 6.36632C14.4576 6.41825 14.5149 6.45977 14.5788 6.48818C14.6428 6.51659 14.712 6.53127 14.7819 6.53126H17.2187C17.2887 6.53127 17.3579 6.51659 17.4218 6.48818C17.4857 6.45977 17.543 6.41825 17.5899 6.36632L19.6386 4.09701L21.8441 5.01063L21.6878 8.06395C21.6842 8.13382 21.6954 8.20367 21.7205 8.26898C21.7456 8.33428 21.7841 8.39359 21.8336 8.44307L23.5566 10.1661C23.6061 10.2156 23.6654 10.2542 23.7307 10.2793C23.796 10.3044 23.8659 10.3155 23.9358 10.3119L26.9891 10.1556L27.9027 12.3614L25.6334 14.4101C25.5815 14.457 25.5399 14.5143 25.5115 14.5782C25.4831 14.6422 25.4684 14.7114 25.4684 14.7813V17H26.4684V15.0039L28.8348 12.8675C28.9114 12.7983 28.9647 12.7071 28.9875 12.6064C29.0102 12.5057 29.0012 12.4004 28.9616 12.305L27.7779 9.44726C27.7382 9.35197 27.6701 9.27125 27.5829 9.21613C27.4956 9.16101 27.3935 9.13419 27.2904 9.13932L24.1066 9.30182L22.6981 7.89307L22.8606 4.70926C22.8659 4.60615 22.8392 4.50394 22.784 4.41665C22.7289 4.32936 22.6481 4.26128 22.5527 4.22176L19.695 3.03807C19.5996 2.99856 19.4943 2.98954 19.3936 3.01225C19.2929 3.03497 19.2017 3.08831 19.1325 3.16495L16.9961 5.53126H15.0039L12.8675 3.16495C12.7983 3.08831 12.7071 3.03497 12.6064 3.01225C12.5057 2.98954 12.4004 2.99856 12.305 3.03807L9.44726 4.22182C9.35188 4.26134 9.27108 4.32942 9.21594 4.41671C9.1608 4.504 9.13404 4.60621 9.13932 4.70932L9.30182 7.89313L7.89307 9.30188L4.70926 9.13938C4.60617 9.13423 4.50401 9.16105 4.41675 9.21617C4.32949 9.27129 4.26139 9.35202 4.22176 9.44732L3.03807 12.305C2.99856 12.4004 2.98954 12.5057 3.01225 12.6064C3.03497 12.7071 3.08831 12.7983 3.16495 12.8675L5.53126 15.0039V16.9961L3.16495 19.1325C3.08831 19.2017 3.03497 19.2929 3.01225 19.3936C2.98954 19.4943 2.99856 19.5996 3.03807 19.695L4.22182 22.5528C4.26143 22.6481 4.32953 22.7288 4.41679 22.784C4.50406 22.8391 4.60623 22.8659 4.70932 22.8607L7.89313 22.6982L9.30195 24.107L9.13945 27.2908C9.13416 27.3939 9.16093 27.4961 9.21606 27.5834C9.2712 27.6707 9.35201 27.7388 9.44738 27.7783L12.3051 28.9621C12.4005 29.0016 12.5058 29.0106 12.6065 28.9879C12.7072 28.9652 12.7984 28.9118 12.8676 28.8352L14.8713 26.6159L14.1289 25.9456L12.3617 27.903Z" fill="#402F22"/>
<path d="M29 18H21.2071L20.3536 17.1465C20.3071 17.1 20.252 17.0632 20.1913 17.0381C20.1307 17.0129 20.0657 17 20 17C19.9343 17 19.8693 17.0129 19.8087 17.0381C19.748 17.0632 19.6929 17.1 19.6464 17.1465L18.7929 18H17.5C16.9697 18.0006 16.4614 18.2115 16.0864 18.5865C15.7115 18.9614 15.5006 19.4698 15.5 20V29C15.5006 29.5303 15.7115 30.0386 16.0864 30.4136C16.4614 30.7885 16.9697 30.9994 17.5 31H29C29.5303 30.9994 30.0386 30.7885 30.4136 30.4136C30.7885 30.0386 30.9994 29.5303 31 29V20C30.9994 19.4698 30.7885 18.9614 30.4136 18.5865C30.0386 18.2115 29.5303 18.0006 29 18ZM30 29C29.9997 29.2651 29.8942 29.5193 29.7068 29.7068C29.5193 29.8942 29.2651 29.9997 29 30H17.5C17.2349 29.9997 16.9807 29.8942 16.7932 29.7068C16.6058 29.5193 16.5003 29.2651 16.5 29V20C16.5003 19.7349 16.6058 19.4807 16.7932 19.2933C16.9807 19.1058 17.2349 19.0003 17.5 19H19C19.0657 19 19.1307 18.9871 19.1913 18.962C19.252 18.9368 19.3071 18.9 19.3536 18.8536L20 18.2071L20.6464 18.8536C20.6929 18.9 20.748 18.9368 20.8087 18.962C20.8693 18.9871 20.9343 19 21 19H29C29.2651 19.0003 29.5193 19.1058 29.7068 19.2933C29.8942 19.4807 29.9997 19.7349 30 20V29Z" fill="#402F22"/>
<path d="M23 21H24V22H23V21Z" fill="#402F22"/>
<path d="M25 21H28.5V22H25V21Z" fill="#402F22"/>
<path d="M22 23H28.5V24H22V23Z" fill="#402F22"/>
<path d="M22 25H28.5V26H22V25Z" fill="#402F22"/>
<path d="M22 27H27.5V28H22V27Z" fill="#402F22"/>
<path d="M20 21C20 21.1326 19.9473 21.2598 19.8536 21.3536C19.7598 21.4473 19.6326 21.5 19.5 21.5C19.3674 21.5 19.2402 21.4473 19.1464 21.3536C19.0527 21.2598 19 21.1326 19 21V20H18V21C18.0004 21.3101 18.0967 21.6124 18.2758 21.8656C18.4548 22.1187 18.7078 22.3103 19 22.414V26.086C18.6664 26.2039 18.3852 26.436 18.2062 26.7412C18.0271 27.0464 17.9618 27.4051 18.0216 27.7539C18.0814 28.1026 18.2626 28.419 18.5332 28.6471C18.8037 28.8751 19.1462 29.0002 19.5 29.0002C19.8538 29.0002 20.1963 28.8751 20.4668 28.6471C20.7374 28.419 20.9186 28.1026 20.9784 27.7539C21.0382 27.4051 20.9728 27.0464 20.7938 26.7412C20.6148 26.436 20.3336 26.2039 20 26.086V22.414C20.2922 22.3103 20.5452 22.1187 20.7242 21.8656C20.9033 21.6124 20.9996 21.3101 21 21V20H20V21ZM19.5 28C19.4011 28 19.3044 27.9707 19.2222 27.9157C19.14 27.8608 19.0759 27.7827 19.0381 27.6913C19.0002 27.6 18.9903 27.4994 19.0096 27.4025C19.0289 27.3055 19.0765 27.2164 19.1464 27.1464C19.2164 27.0765 19.3055 27.0289 19.4025 27.0096C19.4994 26.9903 19.6 27.0002 19.6913 27.0381C19.7827 27.0759 19.8608 27.14 19.9157 27.2222C19.9707 27.3044 20 27.4011 20 27.5C19.9998 27.6326 19.9471 27.7597 19.8534 27.8534C19.7597 27.9471 19.6326 27.9999 19.5 28Z" fill="#402F22"/>
</svg>
