<svg width="32" height="32" viewBox="0 0 32 32" fill="none" xmlns="http://www.w3.org/2000/svg">
<path d="M28.9213 28.1539H3.07516C2.05713 28.1539 1.229 27.3257 1.229 26.3077V9.64755C1.229 8.62952 2.05713 7.80139 3.07516 7.80139H28.9213C29.9393 7.80139 30.7675 8.62952 30.7675 9.64755V26.3077C30.7675 27.3257 29.9393 28.1539 28.9213 28.1539ZM3.07516 9.03216C2.73592 9.03216 2.45977 9.3083 2.45977 9.64755V26.3077C2.45977 26.6469 2.73592 26.9231 3.07516 26.9231H28.9213C29.2606 26.9231 29.5367 26.6469 29.5367 26.3077V9.64755C29.5367 9.3083 29.2606 9.03216 28.9213 9.03216H3.07516Z" fill="black"/>
<path d="M21.0659 9.03219H10.9307V5.69235C10.9307 4.67432 11.7588 3.84619 12.7768 3.84619H19.2197C20.2378 3.84619 21.0659 4.67432 21.0659 5.69235V9.03219ZM12.1614 7.80142H19.8351V5.69235C19.8351 5.3531 19.559 5.07696 19.2197 5.07696H12.7768C12.4376 5.07696 12.1614 5.3531 12.1614 5.69235V7.80142Z" fill="black"/>
<path d="M8.61653 19.0258H5.44736C5.25475 19.0258 5.07356 18.9357 4.95697 18.7825L1.35721 14.0379C1.15168 13.7671 1.20457 13.381 1.4753 13.1758C1.74603 12.9703 2.13245 13.0228 2.33738 13.2939L5.75295 17.7951H8.61653C8.95637 17.7951 9.23191 18.0706 9.23191 18.4105C9.23191 18.7503 8.95637 19.0258 8.61653 19.0258Z" fill="black"/>
<path d="M26.5491 19.0258H23.3859C23.046 19.0258 22.7705 18.7503 22.7705 18.4104C22.7705 18.0706 23.046 17.7951 23.3859 17.7951H26.2438L29.665 13.2936C29.8703 13.0237 30.257 12.9705 30.5274 13.1758C30.7982 13.3816 30.8507 13.7677 30.6452 14.0382L27.0391 18.7827C26.9226 18.936 26.7414 19.0258 26.5491 19.0258Z" fill="black"/>
<path d="M20.3089 19.0259H11.6935C11.3537 19.0259 11.0781 18.7504 11.0781 18.4106C11.0781 18.0707 11.3537 17.7952 11.6935 17.7952H20.3089C20.6487 17.7952 20.9243 18.0707 20.9243 18.4106C20.9243 18.7504 20.6487 19.0259 20.3089 19.0259Z" fill="black"/>
<path d="M11.0784 20.8721H9.23223C8.55345 20.8721 8.00146 20.3201 8.00146 19.6413V17.1797C8.00146 16.501 8.55345 15.949 9.23223 15.949H11.0784C11.7572 15.949 12.3092 16.501 12.3092 17.1797V19.6413C12.3092 20.3201 11.7572 20.8721 11.0784 20.8721ZM9.23223 17.1797V19.6413H11.0784V17.1815L9.23223 17.1797ZM11.0784 17.1797H11.6938H11.0784Z" fill="black"/>
<path d="M22.7708 20.8721H20.9246C20.2458 20.8721 19.6938 20.3201 19.6938 19.6413V17.1797C19.6938 16.501 20.2458 15.949 20.9246 15.949H22.7708C23.4496 15.949 24.0015 16.501 24.0015 17.1797V19.6413C24.0015 20.3201 23.4496 20.8721 22.7708 20.8721ZM20.9246 17.1797V19.6413H22.7708V17.1815L20.9246 17.1797ZM22.7708 17.1797H23.3862H22.7708Z" fill="black"/>
</svg>
