<svg width="48" height="48" viewBox="0 0 48 48" fill="none" xmlns="http://www.w3.org/2000/svg">
<path d="M44.5781 18.328L43.8375 10.4812C43.8375 10.4718 43.8375 10.453 43.8281 10.4437C43.8281 10.4343 43.8281 10.4343 43.8281 10.4249C43.8281 10.4155 43.8187 10.3968 43.8187 10.3874C43.8187 10.378 43.8187 10.378 43.8187 10.3687C43.8187 10.3593 43.8093 10.3499 43.8093 10.3312C43.8093 10.3218 43.8094 10.3218 43.8 10.3124C43.8 10.303 43.7906 10.2937 43.7906 10.2843C43.7906 10.2749 43.7812 10.2655 43.7812 10.2655C43.7719 10.2562 43.7719 10.2468 43.7625 10.2374C43.7625 10.228 43.7531 10.2187 43.7531 10.2187C43.7437 10.2093 43.7344 10.1999 43.725 10.1812L43.7156 10.1718C43.6406 10.078 43.5281 10.0124 43.4062 9.98428H43.3969C43.3875 9.98428 43.3781 9.98428 43.3594 9.9749C43.35 9.9749 43.3406 9.9749 43.3406 9.9749C43.3312 9.9749 43.3218 9.9749 43.3125 9.9749C43.3031 9.9749 43.2937 9.9749 43.2844 9.9749H40.1437C39.9469 8.31553 38.8969 7.0874 37.5844 7.0874C36.975 7.0874 36.375 7.36865 35.9156 7.88428C35.7094 8.11865 35.7281 8.4749 35.9531 8.68115C36.1875 8.8874 36.5437 8.86865 36.75 8.64365C36.9281 8.44678 37.2094 8.22178 37.5844 8.22178C38.2593 8.22178 38.8406 8.98115 39.0094 9.98428H32.6437C32.4469 8.3249 31.3969 7.09678 30.0844 7.09678C29.475 7.09678 28.875 7.37803 28.4156 7.89365C28.2094 8.12803 28.2281 8.48428 28.4531 8.69053C28.6875 8.89678 29.0437 8.87803 29.25 8.65303C29.4281 8.45615 29.7094 8.23115 30.0844 8.23115C30.7593 8.23115 31.3406 8.99053 31.5094 9.99365H25.1437C24.9469 8.33428 23.8968 7.10615 22.5843 7.10615C21.975 7.10615 21.375 7.3874 20.9156 7.90303C20.7094 8.1374 20.7281 8.49365 20.9531 8.6999C21.1875 8.90615 21.5437 8.8874 21.75 8.6624C21.9281 8.46553 22.2093 8.24053 22.5843 8.24053C23.2593 8.24053 23.8406 8.9999 24.0093 10.003H17.6437C17.4468 8.34365 16.3968 7.11553 15.0843 7.11553C14.475 7.11553 13.875 7.39678 13.4156 7.9124C13.2093 8.14678 13.2281 8.50303 13.4531 8.70928C13.6875 8.91553 14.0437 8.89678 14.25 8.67178C14.4281 8.4749 14.7093 8.2499 15.0843 8.2499C15.7593 8.2499 16.3406 9.00928 16.5093 10.0124H9.6281H9.61872C9.60935 10.0124 9.60935 10.0124 9.59997 10.0124C9.5906 10.0124 9.5906 10.0124 9.58122 10.0124H9.57185H9.56247H9.5531C9.54372 10.0124 9.54372 10.0124 9.53435 10.0124H9.52497H9.5156H9.50622C9.49685 10.0124 9.49685 10.0124 9.48747 10.0218H9.4781H9.46872H9.45935C9.44997 10.0218 9.44997 10.0218 9.4406 10.0312C9.43122 10.0312 9.43122 10.0312 9.42185 10.0405H9.41247H9.4031C9.39372 10.0405 9.39372 10.0499 9.38435 10.0499C9.37497 10.0499 9.37497 10.0593 9.3656 10.0593C9.3656 10.0593 9.3656 10.0593 9.35622 10.0593C9.35622 10.0593 9.34685 10.0593 9.34685 10.0687L9.33747 10.078C9.3281 10.078 9.3281 10.0874 9.31872 10.0874L9.30935 10.0968L9.29997 10.1062L9.2906 10.1155L9.28122 10.1249L9.27185 10.1343L9.26247 10.1437L9.2531 10.153C9.2531 10.1624 9.24372 10.1624 9.24372 10.1718L9.23435 10.1812C9.23435 10.1812 9.23435 10.1812 9.22497 10.1905L9.2156 10.1999C9.2156 10.2093 9.20622 10.2093 9.20622 10.2187L9.19685 10.228C9.19685 10.228 9.19685 10.2374 9.18747 10.2374C9.18747 10.2374 9.18747 10.2468 9.1781 10.2468C9.1781 10.2562 9.16872 10.2562 9.16872 10.2655C9.16872 10.2655 9.16872 10.2749 9.15935 10.2749C9.15935 10.2749 9.15935 10.2843 9.14997 10.2843C9.14997 10.2843 9.14997 10.2843 9.14997 10.2937L1.7156 25.4062C1.40622 26.0437 1.44372 26.7843 1.81872 27.3843C2.19372 27.9843 2.8406 28.3405 3.5531 28.3405H4.55622L2.09997 38.1468C1.93122 38.8124 2.08122 39.5155 2.5031 40.0593C2.92497 40.603 3.56247 40.9124 4.25622 40.9124H13.95H27.15C27.4594 40.9124 27.7125 40.6593 27.7125 40.3499C27.7125 40.0405 27.4594 39.7874 27.15 39.7874H13.95C13.3781 39.7874 12.9093 39.3562 12.8531 38.7937L11.8125 27.7312L10.9875 18.9468H39.45H41.3156H43.5187L45.375 38.5874C45.4031 38.8968 45.3 39.1968 45.0937 39.4312C44.8875 39.6655 44.5969 39.7874 44.2781 39.7874H34.4812H30.8906C30.5812 39.7874 30.3281 40.0405 30.3281 40.3499C30.3281 40.6593 30.5812 40.9124 30.8906 40.9124H34.4812H44.2594C44.8875 40.9124 45.4875 40.6499 45.9 40.1812C46.3219 39.7218 46.5281 39.0937 46.4719 38.4749L44.5781 18.328ZM2.77497 26.7937C2.60622 26.5218 2.58747 26.1937 2.7281 25.903L7.76247 15.6093L4.84685 27.2249H3.5531C3.23435 27.2249 2.94372 27.0655 2.77497 26.7937ZM4.25622 39.7874C3.91872 39.7874 3.59997 39.6374 3.39372 39.3655C3.18747 39.0937 3.11247 38.7562 3.19685 38.4187L5.8406 27.9187L9.38435 13.8374L10.6875 27.8343L11.7281 38.8874C11.7562 39.2155 11.8593 39.5155 12.0093 39.778H4.25622V39.7874ZM10.2375 11.0999H16.5C16.3406 12.0937 15.75 12.8624 15.075 12.8624C14.7 12.8624 14.4187 12.628 14.2406 12.4405C14.0343 12.2062 13.6781 12.1874 13.4437 12.403C13.2093 12.6093 13.1906 12.9655 13.4062 13.1999C13.8656 13.7155 14.4656 13.9968 15.075 13.9968C16.3875 13.9968 17.4375 12.7687 17.6343 11.1093H24C23.8406 12.103 23.25 12.8718 22.575 12.8718C22.2 12.8718 21.9187 12.6374 21.7406 12.4499C21.5343 12.2155 21.1781 12.1968 20.9437 12.4124C20.7093 12.6187 20.6906 12.9749 20.9062 13.2093C21.3656 13.7249 21.9656 14.0062 22.575 14.0062C23.8875 14.0062 24.9375 12.778 25.1343 11.1187H31.5C31.3406 12.1124 30.75 12.8812 30.075 12.8812C29.7 12.8812 29.4187 12.6468 29.2406 12.4593C29.0343 12.2249 28.6781 12.2062 28.4437 12.4218C28.2094 12.628 28.1906 12.9843 28.4062 13.2187C28.8656 13.7343 29.4656 14.0155 30.075 14.0155C31.3875 14.0155 32.4375 12.7874 32.6344 11.128H39C38.8406 12.1218 38.25 12.8905 37.575 12.8905C37.2 12.8905 36.9187 12.6562 36.7406 12.4687C36.5344 12.2343 36.1781 12.2155 35.9437 12.4312C35.7094 12.6374 35.6906 12.9937 35.9062 13.228C36.3656 13.7437 36.9656 14.0249 37.575 14.0249C38.8875 14.0249 39.9375 12.7968 40.1344 11.1374H42.7594L43.3969 17.8593H41.2969H39.4312H10.875L10.2375 11.0999Z" fill="#402F22"/>
<path d="M19.8656 27.225C20.3624 27.225 20.8406 27.0093 21.1687 26.6437C21.4968 26.2781 21.6656 25.7812 21.6093 25.2843L21.3843 23.1656C21.2906 22.2656 20.5406 21.5906 19.6406 21.5906H17.5406C17.0437 21.5906 16.5656 21.8062 16.2374 22.1718C15.9093 22.5375 15.7406 23.0343 15.7968 23.5312L16.0218 25.65C16.1156 26.55 16.8656 27.225 17.7656 27.225H19.8656ZM17.1374 25.5281L16.9124 23.4093C16.8937 23.2312 16.9499 23.0531 17.0718 22.9218C17.1937 22.7906 17.3624 22.7156 17.5406 22.7156H19.6406C19.9687 22.7156 20.2312 22.9593 20.2687 23.2781L20.4937 25.3968C20.5124 25.575 20.4562 25.7531 20.3343 25.8843C20.2124 26.0156 20.0437 26.0906 19.8656 26.0906H17.7656C17.4374 26.1 17.1749 25.8562 17.1374 25.5281Z" fill="#402F22"/>
<path d="M29.0794 27.6344C29.5763 27.6344 30.0544 27.4188 30.3826 27.0531C30.7107 26.6875 30.8794 26.1906 30.8232 25.6938L30.5982 23.575C30.5044 22.675 29.7544 22 28.8544 22H26.7544C26.2576 22 25.7794 22.2156 25.4513 22.5813C25.1232 22.9469 24.9544 23.4438 25.0107 23.9406L25.2357 26.0594C25.3294 26.9594 26.0794 27.6344 26.9794 27.6344H29.0794ZM26.3513 25.9375L26.1263 23.8188C26.1076 23.6406 26.1638 23.4625 26.2857 23.3313C26.4076 23.2 26.5763 23.125 26.7544 23.125H28.8544C29.1826 23.125 29.4451 23.3688 29.4826 23.6875L29.7076 25.8063C29.7263 25.9844 29.6701 26.1625 29.5482 26.2938C29.4263 26.425 29.2576 26.5 29.0794 26.5H26.9794C26.6513 26.5094 26.3888 26.2656 26.3513 25.9375Z" fill="#402F22"/>
<path d="M40.2848 24.5812L40.1348 23.1656C40.041 22.2656 39.291 21.5906 38.391 21.5906H37.5942H36.291C35.7942 21.5906 35.316 21.8062 34.9879 22.1718C34.6598 22.5375 34.491 23.0343 34.5473 23.5312L34.7723 25.65C34.8098 25.9968 34.9504 26.325 35.1754 26.5968C35.5129 27 36.0004 27.225 36.516 27.225H38.616C38.9629 27.225 39.291 27.1218 39.5817 26.9343C40.1254 26.5687 40.4254 25.9406 40.3598 25.2937L40.2848 24.5812ZM36.516 26.1C36.3285 26.1 36.1504 26.0156 36.0379 25.875C35.9535 25.7812 35.9067 25.6593 35.8973 25.5375L35.6723 23.4187C35.6535 23.2406 35.7098 23.0625 35.8317 22.9312C35.9535 22.8 36.1223 22.725 36.3004 22.725H37.5942H38.4004C38.7285 22.725 38.991 22.9687 39.0285 23.2875L39.1785 24.7031L39.2535 25.4062C39.2817 25.6406 39.1692 25.8656 38.9723 25.9968C38.8692 26.0625 38.7473 26.1 38.6254 26.1H36.516Z" fill="#402F22"/>
<path d="M16.9593 35.9625C17.0531 36.8625 17.8031 37.5375 18.7031 37.5375H20.8031C21.2999 37.5375 21.7781 37.3218 22.1062 36.9562C22.4343 36.5906 22.6031 36.0937 22.5468 35.5968L22.3218 33.4781C22.2281 32.5781 21.4781 31.9031 20.5781 31.9031H18.4781C17.9812 31.9031 17.5031 32.1187 17.1749 32.4843C16.8468 32.85 16.6781 33.3468 16.7343 33.8437L16.9593 35.9625ZM18.0093 33.2437C18.1312 33.1125 18.2999 33.0375 18.4781 33.0375H20.5781C20.9062 33.0375 21.1687 33.2812 21.2062 33.6L21.4312 35.7187C21.4499 35.8968 21.3937 36.075 21.2718 36.2062C21.1499 36.3375 20.9812 36.4125 20.8031 36.4125H18.7031C18.3749 36.4125 18.1124 36.1687 18.0749 35.85L17.8499 33.7312C17.8406 33.5531 17.8968 33.375 18.0093 33.2437Z" fill="#402F22"/>
<path d="M31.9223 35.5968L31.6973 33.4781C31.6035 32.5781 30.8535 31.9031 29.9535 31.9031H27.8535C27.3567 31.9031 26.8786 32.1187 26.5504 32.4843C26.2223 32.85 26.0535 33.3468 26.1098 33.8437L26.3348 35.9625C26.4285 36.8625 27.1785 37.5375 28.0785 37.5375H30.1785C30.6754 37.5375 31.1535 37.3218 31.4817 36.9562C31.8098 36.5906 31.9785 36.0937 31.9223 35.5968ZM30.6473 36.1968C30.5254 36.3281 30.3567 36.4031 30.1785 36.4031H28.0785C27.7504 36.4031 27.4879 36.1593 27.4504 35.8406L27.2254 33.7218C27.2067 33.5437 27.2629 33.3656 27.3848 33.2343C27.5067 33.1031 27.6754 33.0281 27.8535 33.0281H29.9535C30.2817 33.0281 30.5442 33.2718 30.5817 33.5906L30.8067 35.7093C30.8254 35.8968 30.7692 36.0656 30.6473 36.1968Z" fill="#402F22"/>
<path d="M37.7628 31.9124H37.2378C36.741 31.9124 36.2628 32.128 35.9347 32.4936C35.6066 32.8592 35.4378 33.3561 35.4941 33.853L35.7191 35.9717C35.766 36.4311 35.991 36.853 36.3472 37.1436C36.6566 37.3967 37.0597 37.5467 37.4628 37.5467H39.5628C40.0597 37.5467 40.5378 37.3311 40.866 36.9655C41.1941 36.5999 41.3628 36.103 41.3066 35.6061L41.0816 33.4874C40.9878 32.5874 40.2378 31.9124 39.3378 31.9124H37.7628ZM39.9566 33.5999L40.1816 35.7186C40.2003 35.8967 40.1441 36.0749 40.0222 36.2061C39.9003 36.3374 39.7316 36.4124 39.5535 36.4124H37.4535C37.266 36.4124 37.1347 36.3374 37.0503 36.2717C36.9191 36.1686 36.8441 36.0186 36.8253 35.8499L36.6003 33.7311C36.5816 33.553 36.6378 33.3749 36.7597 33.2436C36.8816 33.1124 37.0503 33.0374 37.2285 33.0374H37.7535H39.3285C39.6566 33.0374 39.9285 33.2811 39.9566 33.5999Z" fill="#402F22"/>
</svg>
