<svg width="48" height="40" viewBox="0 0 48 40" fill="none" xmlns="http://www.w3.org/2000/svg">
<g clip-path="url(#franclip0)">
<path d="M25.5983 22.7952C23.3607 22.7952 21.1733 22.1316 19.3128 20.8885C17.4523 19.6453 16.0022 17.8784 15.1459 15.8111C14.2896 13.7438 14.0655 11.469 14.5021 9.2744C14.9386 7.07978 16.0161 5.06389 17.5984 3.48165C19.1806 1.89942 21.1965 0.821899 23.3911 0.385361C25.5857 -0.0511763 27.8605 0.172871 29.9278 1.02917C31.9951 1.88547 33.762 3.33556 35.0052 5.19607C36.2483 7.05659 36.9119 9.24396 36.9119 11.4816C36.9093 14.4813 35.7165 17.3575 33.5954 19.4787C31.4742 21.5998 28.598 22.7926 25.5983 22.7952ZM25.5983 1.80477C23.6832 1.80477 21.8112 2.37271 20.219 3.43675C18.6267 4.50079 17.3858 6.01313 16.6532 7.7825C15.9205 9.55186 15.7291 11.4987 16.1031 13.3769C16.477 15.2551 17.3996 16.9802 18.754 18.334C20.1085 19.6878 21.8341 20.6095 23.7124 20.9825C25.5908 21.3556 27.5376 21.1631 29.3066 20.4296C31.0756 19.6961 32.5873 18.4545 33.6506 16.8617C34.7138 15.2689 35.2808 13.3966 35.2799 11.4816C35.2761 8.91547 34.2547 6.45562 32.4397 4.64156C30.6247 2.82749 28.1644 1.80731 25.5983 1.80477Z" fill="#402F22"/>
<path d="M43.445 25.7713C42.9848 25.2186 42.3474 24.8424 41.6412 24.7068C40.9349 24.5711 40.2035 24.6844 39.5714 25.0273L38.6786 23.9425C38.2877 23.4844 37.7442 23.1834 37.1485 23.0952C36.5529 23.0069 35.9454 23.1374 35.4386 23.4625L34.5602 24.0433L34.0322 23.4145C33.6421 22.9568 33.0994 22.656 32.5046 22.5677C31.9097 22.4794 31.3031 22.6098 30.797 22.9345L24.8354 26.8177L18.2114 24.0913C17.1856 23.6728 16.067 23.5349 14.9703 23.6918C13.8737 23.8488 12.8386 24.2948 11.9714 24.9841L3.52335 31.7041C3.43231 31.7682 3.35536 31.8503 3.29724 31.9453C3.23911 32.0403 3.20104 32.1461 3.18537 32.2564C3.1697 32.3666 3.17675 32.4789 3.20611 32.5863C3.23546 32.6938 3.28649 32.794 3.35606 32.881C3.42562 32.9679 3.51224 33.0397 3.6106 33.092C3.70895 33.1442 3.81695 33.1757 3.92795 33.1846C4.03895 33.1935 4.15059 33.1796 4.25602 33.1438C4.36144 33.1079 4.45841 33.0509 4.54095 32.9761L12.989 26.2561C13.6315 25.7439 14.3994 25.4128 15.213 25.2971C16.0266 25.1815 16.8563 25.2856 17.6162 25.5985L29.3282 30.3985C29.6845 30.5585 29.9651 30.8503 30.1112 31.2127C30.2572 31.575 30.2573 31.9798 30.1115 32.3423C29.9656 32.7047 29.6852 32.9966 29.3288 33.1568C28.9725 33.317 28.5681 33.3331 28.2002 33.2017L20.2754 30.1105C20.1744 30.0642 20.0651 30.0389 19.9541 30.0363C19.8431 30.0337 19.7328 30.0538 19.6298 30.0953C19.5268 30.1368 19.4334 30.1989 19.3552 30.2778C19.2771 30.3567 19.2158 30.4507 19.1753 30.554C19.1347 30.6574 19.1157 30.7679 19.1193 30.8789C19.123 30.9899 19.1492 31.0989 19.1965 31.1994C19.2438 31.2999 19.311 31.3897 19.3942 31.4632C19.4774 31.5368 19.5747 31.5926 19.6802 31.6273L27.581 34.7425C27.9469 34.8843 28.3357 34.9575 28.7282 34.9585C29.5374 34.9571 30.3153 34.645 30.9012 34.0868C31.4871 33.5286 31.8364 32.7668 31.877 31.9585L31.9682 31.9105L40.2242 26.5201C40.5527 26.3159 40.9475 26.2468 41.3259 26.3272C41.7043 26.4075 42.0369 26.6312 42.2541 26.9514C42.4712 27.2715 42.5561 27.6633 42.4909 28.0446C42.4256 28.4259 42.2154 28.7672 41.9042 28.9969L30.7202 36.9265C30.0107 37.4317 29.1964 37.7705 28.338 37.9176C27.4795 38.0647 26.5989 38.0163 25.7618 37.7761L16.3202 35.1169C15.4642 34.8755 14.5626 34.8441 13.6918 35.0255C12.8211 35.2068 12.007 35.5955 11.3186 36.1585L8.77455 38.2465C8.64708 38.3539 8.55555 38.4978 8.51229 38.6588C8.46903 38.8197 8.4761 38.9901 8.53256 39.1469C8.58902 39.3038 8.69216 39.4396 8.8281 39.536C8.96405 39.6325 9.12627 39.685 9.29295 39.6865C9.48034 39.6884 9.66232 39.6238 9.80655 39.5041L12.3746 37.4401C12.8592 37.0428 13.4326 36.7686 14.0461 36.6407C14.6595 36.5128 15.2948 36.5351 15.8978 36.7057L25.3154 39.3601C26.3852 39.662 27.5092 39.7195 28.6043 39.5284C29.6993 39.3373 30.7374 38.9025 31.6418 38.2561L42.8498 30.3265C43.2022 30.0775 43.4993 29.7581 43.7223 29.3885C43.9452 29.019 44.0892 28.6072 44.1451 28.1793C44.201 27.7513 44.1677 27.3164 44.0472 26.902C43.9267 26.4875 43.7216 26.1026 43.445 25.7713ZM31.6514 24.2977C31.8254 24.1873 32.0334 24.1435 32.2372 24.1743C32.4409 24.2052 32.6267 24.3087 32.7602 24.4657L33.1634 24.9457L28.2146 28.2049L26.6642 27.5665L31.6514 24.2977ZM31.469 30.2833C31.1432 29.6989 30.6384 29.2346 30.029 28.9585L36.3122 24.8257C36.4859 24.7157 36.6934 24.6717 36.8968 24.7016C37.1003 24.7316 37.2863 24.8335 37.421 24.9889L38.1794 25.9201L31.469 30.2833Z" fill="#402F22"/>
<path d="M25.6993 7.97771C26.4948 8.00383 27.285 8.1165 28.0561 8.31371C28.2649 8.371 28.4879 8.343 28.676 8.23588C28.8642 8.12876 29.002 7.95129 29.0593 7.74251C29.1166 7.53373 29.0886 7.31075 28.9815 7.12261C28.8744 6.93448 28.6969 6.7966 28.4881 6.73931C27.8401 6.57368 27.1807 6.45655 26.5153 6.38891V5.28011C26.5153 5.0637 26.4293 4.85614 26.2763 4.70311C26.1233 4.55008 25.9157 4.46411 25.6993 4.46411C25.4829 4.46411 25.2753 4.55008 25.1223 4.70311C24.9693 4.85614 24.8833 5.0637 24.8833 5.28011V6.39851C22.6945 6.69611 22.4305 8.18891 22.4305 8.87051C22.4305 10.5649 24.1777 11.2705 25.2241 11.7121L25.4257 11.7937L25.7329 11.9185C26.7889 12.3361 27.2497 12.6001 27.2497 13.3585C27.2497 14.1169 26.7409 14.4865 25.7473 14.5297H25.6993H25.5745C24.6387 14.4437 23.7203 14.2222 22.8481 13.8721C22.7471 13.828 22.6382 13.8048 22.528 13.8039C22.4178 13.8031 22.3086 13.8245 22.2069 13.867C22.1052 13.9095 22.0132 13.9722 21.9364 14.0512C21.8596 14.1302 21.7996 14.224 21.76 14.3268C21.7204 14.4297 21.7021 14.5395 21.7061 14.6496C21.7101 14.7597 21.7364 14.8679 21.7833 14.9676C21.8303 15.0673 21.897 15.1565 21.9793 15.2297C22.0617 15.3029 22.158 15.3587 22.2625 15.3937C23.1098 15.7165 23.988 15.9514 24.8833 16.0945V17.1937C24.8833 17.4101 24.9693 17.6177 25.1223 17.7707C25.2753 17.9237 25.4829 18.0097 25.6993 18.0097C25.9157 18.0097 26.1233 17.9237 26.2763 17.7707C26.4293 17.6177 26.5153 17.4101 26.5153 17.1937V16.0561C27.9985 15.7681 28.8817 14.7841 28.8817 13.3345C28.8817 11.4145 27.2881 10.7809 26.3377 10.4017L25.8577 10.2001C25.1089 9.89291 24.0769 9.47051 24.0769 8.87051C24.0625 8.58251 24.0625 7.97771 25.6993 7.97771Z" fill="#402F22"/>
</g>
<defs>
<clipPath id="franclip0">
<rect width="48" height="39.84" fill="white"/>
</clipPath>
</defs>
</svg>
