<svg width="34" height="35" viewBox="0 0 34 35" fill="none" xmlns="http://www.w3.org/2000/svg">
<path d="M26.5148 4.77268H20.1512V3.18177C20.1512 3.04113 20.0953 2.90624 19.9959 2.80679C19.8964 2.70734 19.7615 2.65147 19.6209 2.65147H19.0216C18.903 2.19753 18.6372 1.79574 18.2659 1.50897C17.8945 1.22221 17.4386 1.06665 16.9694 1.06665C16.5002 1.06665 16.0442 1.22221 15.6729 1.50897C15.3015 1.79574 15.0357 2.19753 14.9171 2.65147H14.3179C14.1772 2.65147 14.0423 2.70734 13.9429 2.80679C13.8434 2.90624 13.7876 3.04113 13.7876 3.18177V4.77268H7.42392C7.00198 4.77268 6.59733 4.94029 6.29897 5.23865C6.00062 5.537 5.83301 5.94166 5.83301 6.36359V31.2878C5.83301 31.7098 6.00062 32.1144 6.29897 32.4128C6.59733 32.7111 7.00198 32.8787 7.42392 32.8787H26.5148C26.9368 32.8787 27.3414 32.7111 27.6398 32.4128C27.9381 32.1144 28.1057 31.7098 28.1057 31.2878V6.36359C28.1057 5.94166 27.9381 5.537 27.6398 5.23865C27.3414 4.94029 26.9368 4.77268 26.5148 4.77268ZM13.9838 5.83329H14.3179C14.4585 5.83329 14.5934 5.77742 14.6928 5.67797C14.7923 5.57851 14.8482 5.44363 14.8482 5.30298V3.71208H15.3785C15.5191 3.71208 15.654 3.6562 15.7534 3.55675C15.8529 3.4573 15.9088 3.32242 15.9088 3.18177C15.9088 2.90048 16.0205 2.63071 16.2194 2.43181C16.4183 2.23291 16.6881 2.12117 16.9694 2.12117C17.2507 2.12117 17.5204 2.23291 17.7193 2.43181C17.9182 2.63071 18.03 2.90048 18.03 3.18177C18.03 3.32242 18.0858 3.4573 18.1853 3.55675C18.2848 3.6562 18.4196 3.71208 18.5603 3.71208H19.0906V5.30298C19.0905 5.40919 19.1223 5.51299 19.1818 5.60092C19.2414 5.68885 19.326 5.75687 19.4247 5.79617V5.83329H20.6815C21.2927 5.83316 21.8853 6.04423 22.3588 6.43078C22.8323 6.81732 23.1577 7.35559 23.28 7.9545H10.6588C10.781 7.35559 11.1064 6.81732 11.58 6.43078C12.0535 6.04423 12.646 5.83316 13.2573 5.83329H13.9838ZM23.8633 9.01511C24.004 9.01511 24.1388 8.95923 24.2383 8.85978C24.3377 8.76033 24.3936 8.62545 24.3936 8.4848C24.3929 8.30722 24.3787 8.12994 24.3512 7.9545H24.9239V25.9848H22.2724C22.1318 25.9848 21.9969 26.0407 21.8974 26.1401C21.798 26.2396 21.7421 26.3745 21.7421 26.5151V29.1666H9.01483V7.9545H9.58755C9.56004 8.12994 9.54586 8.30722 9.54513 8.4848C9.54513 8.62545 9.601 8.76033 9.70045 8.85978C9.7999 8.95923 9.93479 9.01511 10.0754 9.01511H23.8633ZM24.1762 27.0454L22.8027 28.4189V27.0454H24.1762ZM27.0451 31.2878C27.0451 31.4285 26.9893 31.5634 26.8898 31.6628C26.7904 31.7623 26.6555 31.8181 26.5148 31.8181H7.42392C7.28327 31.8181 7.14839 31.7623 7.04894 31.6628C6.94949 31.5634 6.89361 31.4285 6.89361 31.2878V6.36359C6.89361 6.22295 6.94949 6.08806 7.04894 5.98861C7.14839 5.88916 7.28327 5.83329 7.42392 5.83329H10.6641C10.3503 6.13779 10.0951 6.49728 9.91104 6.89389H8.48452C8.34388 6.89389 8.20899 6.94976 8.10954 7.04922C8.01009 7.14867 7.95422 7.28355 7.95422 7.4242V29.6969C7.95422 29.8376 8.01009 29.9725 8.10954 30.0719C8.20899 30.1714 8.34388 30.2272 8.48452 30.2272H22.2724C22.3417 30.2264 22.4102 30.212 22.4739 30.1848C22.5382 30.1579 22.5974 30.1203 22.6489 30.0734L25.8307 26.8916C25.8722 26.844 25.9062 26.7904 25.9315 26.7325C25.9335 26.7167 25.9335 26.7006 25.9315 26.6848C25.9459 26.6401 25.9548 26.5938 25.958 26.5469C25.958 26.5469 25.958 26.5469 25.958 26.5151V7.4242C25.958 7.28355 25.9021 7.14867 25.8027 7.04922C25.7032 6.94976 25.5684 6.89389 25.4277 6.89389H24.0277C23.8437 6.49728 23.5884 6.13779 23.2747 5.83329H26.5148C26.6555 5.83329 26.7904 5.88916 26.8898 5.98861C26.9893 6.08806 27.0451 6.22295 27.0451 6.36359V31.2878Z" fill="#402F22"/>
<path d="M16.5934 5.14926C16.6674 5.22374 16.7618 5.27458 16.8647 5.29535C16.9676 5.31612 17.0743 5.30588 17.1714 5.26593C17.2348 5.23518 17.2937 5.19593 17.3464 5.14926C17.3933 5.09772 17.4309 5.03853 17.4578 4.97426C17.485 4.91051 17.4994 4.84205 17.5002 4.77275C17.4983 4.63234 17.4433 4.49786 17.3464 4.39623C17.2949 4.34939 17.2357 4.31173 17.1714 4.28487C17.0748 4.24426 16.9684 4.23316 16.8655 4.25298C16.7627 4.2728 16.668 4.32265 16.5934 4.39623C16.4965 4.49786 16.4416 4.63234 16.4396 4.77275C16.4378 4.84231 16.4523 4.91133 16.482 4.97426C16.5089 5.03853 16.5465 5.09772 16.5934 5.14926Z" fill="#402F22"/>
<path d="M15.9095 10.606H10.6064V11.6666H15.9095V10.606Z" fill="#402F22"/>
<path d="M13.258 13.2576H10.6064V14.3182H13.258V13.2576Z" fill="#402F22"/>
<path d="M12.1974 15.9092H10.6064V16.9698H12.1974V15.9092Z" fill="#402F22"/>
<path d="M13.258 18.5605H10.6064V19.6212H13.258V18.5605Z" fill="#402F22"/>
<path d="M15.9092 13.2576H14.8486V14.3182H15.9092V13.2576Z" fill="#402F22"/>
<path d="M15.9092 15.9092H14.8486V16.9698H15.9092V15.9092Z" fill="#402F22"/>
<path d="M15.9092 18.5605H14.8486V19.6212H15.9092V18.5605Z" fill="#402F22"/>
<path d="M23.3333 10.606H18.0303V11.6666H23.3333V10.606Z" fill="#402F22"/>
<path d="M20.1515 13.2576H18.0303V14.3182H20.1515V13.2576Z" fill="#402F22"/>
<path d="M19.0909 15.9092H18.0303V16.9698H19.0909V15.9092Z" fill="#402F22"/>
<path d="M20.1515 18.5605H18.0303V19.6212H20.1515V18.5605Z" fill="#402F22"/>
<path d="M23.3331 13.2576H22.2725V14.3182H23.3331V13.2576Z" fill="#402F22"/>
<path d="M23.3331 15.9092H22.2725V16.9698H23.3331V15.9092Z" fill="#402F22"/>
<path d="M23.3331 18.5605H22.2725V19.6212H23.3331V18.5605Z" fill="#402F22"/>
<path d="M15.9095 21.2122H10.6064V22.2728H15.9095V21.2122Z" fill="#402F22"/>
<path d="M13.258 23.8635H10.6064V24.9241H13.258V23.8635Z" fill="#402F22"/>
<path d="M12.1974 26.5151H10.6064V27.5757H12.1974V26.5151Z" fill="#402F22"/>
<path d="M15.9092 23.8635H14.8486V24.9241H15.9092V23.8635Z" fill="#402F22"/>
<path d="M15.9092 26.5151H14.8486V27.5757H15.9092V26.5151Z" fill="#402F22"/>
<path d="M23.3333 21.2122H18.0303V22.2728H23.3333V21.2122Z" fill="#402F22"/>
<path d="M20.1515 23.8635H18.0303V24.9241H20.1515V23.8635Z" fill="#402F22"/>
<path d="M19.0909 26.5151H18.0303V27.5757H19.0909V26.5151Z" fill="#402F22"/>
<path d="M23.3331 23.8635H22.2725V24.9241H23.3331V23.8635Z" fill="#402F22"/>
</svg>
