<svg width="36" height="36" viewBox="0 0 36 36" fill="none" xmlns="http://www.w3.org/2000/svg">
<g clip-path="url(#z5clip0)">
<path d="M6.26784 35.738H3.86725C2.64959 35.738 1.65918 34.7473 1.65918 33.53V29.8685C1.65918 28.6508 2.64959 27.6604 3.86725 27.6604H6.26784C7.48549 27.6604 8.47591 28.6508 8.47591 29.8685V33.53C8.47591 34.7473 7.48549 35.738 6.26784 35.738ZM3.86725 28.709C3.22798 28.709 2.7078 29.2292 2.7078 29.8685V33.53C2.7078 34.1692 3.22798 34.6891 3.86725 34.6891H6.26784C6.90711 34.6891 7.42701 34.1692 7.42701 33.53V29.8685C7.42701 29.2292 6.90711 28.709 6.26784 28.709H3.86725Z" fill="#402F22"/>
<path d="M14.887 35.7379H12.4864C11.2687 35.7379 10.2783 34.7473 10.2783 33.5299V25.7876C10.2783 24.5703 11.2687 23.5796 12.4864 23.5796H14.887C16.1046 23.5796 17.095 24.5703 17.095 25.7876V33.5299C17.095 34.7473 16.1046 35.7379 14.887 35.7379ZM12.4864 24.6285C11.8471 24.6285 11.3269 25.1484 11.3269 25.7876V33.5299C11.3269 34.1691 11.8471 34.689 12.4864 34.689H14.887C15.5262 34.689 16.0462 34.1691 16.0462 33.5299V25.7876C16.0462 25.1484 15.5262 24.6285 14.887 24.6285H12.4864Z" fill="#402F22"/>
<path d="M23.5061 35.7381H21.1055C19.8879 35.7381 18.8975 34.7474 18.8975 33.53V20.7908C18.8975 19.5732 19.8879 18.5828 21.1055 18.5828H23.5061C24.7235 18.5828 25.7142 19.5732 25.7142 20.7908V33.53C25.7142 34.7474 24.7235 35.7381 23.5061 35.7381ZM21.1055 19.6317C20.4663 19.6317 19.9464 20.1516 19.9464 20.7908V33.53C19.9464 34.1693 20.4663 34.6892 21.1055 34.6892H23.5061C24.1454 34.6892 24.6653 34.1693 24.6653 33.53V20.7908C24.6653 20.1516 24.1454 19.6317 23.5061 19.6317H21.1055Z" fill="#402F22"/>
<path d="M32.1253 35.7381H29.7247C28.507 35.7381 27.5166 34.7474 27.5166 33.53V12.063C27.5166 10.8457 28.507 9.85498 29.7247 9.85498H32.1253C33.3429 9.85498 34.3334 10.8457 34.3334 12.063V27.4015C34.3334 27.6912 34.0986 27.9259 33.8089 27.9259C33.5194 27.9259 33.2847 27.6912 33.2847 27.4015V12.063C33.2847 11.4238 32.7646 10.9039 32.1253 10.9039H29.7247C29.0854 10.9039 28.5655 11.4238 28.5655 12.063V33.53C28.5655 34.1693 29.0854 34.6892 29.7247 34.6892H32.1253C32.7646 34.6892 33.2847 34.1693 33.2847 33.53V29.4992C33.2847 29.2095 33.5194 28.9748 33.8089 28.9748C34.0986 28.9748 34.3334 29.2095 34.3334 29.4992V33.53C34.3334 34.7474 33.3429 35.7381 32.1253 35.7381Z" fill="#402F22"/>
<path d="M5.7382 20.0346C5.56089 20.0346 5.3924 19.9443 5.2952 19.7905C5.17958 19.6076 5.18785 19.3724 5.31656 19.1983L8.89208 14.3618L5.11789 11.6512C4.94379 11.526 4.86341 11.3075 4.91468 11.0993C4.96622 10.8912 5.13925 10.7353 5.35154 10.7059C5.36997 10.7033 7.23196 10.4405 9.83016 9.77373C10.1111 9.70163 10.3965 9.87066 10.4684 10.1513C10.5402 10.4317 10.3714 10.7174 10.0908 10.7895C8.71958 11.1415 7.56174 11.3815 6.75104 11.5329L9.9359 13.8203C10.0499 13.9023 10.1263 14.0262 10.1479 14.165C10.1698 14.3036 10.1351 14.4451 10.0515 14.5578L6.99805 18.688C9.27287 18.1072 11.5205 17.1961 13.6973 15.9717C15.7924 14.7933 17.8274 13.3233 19.746 11.6026C23.0222 8.66369 24.8439 5.97817 24.8618 5.9512C24.9494 5.82116 25.0904 5.73705 25.2463 5.72183C25.4028 5.7066 25.5571 5.76215 25.6679 5.87296L26.4012 6.60623L27.3975 1.93028L22.745 2.84565L23.6228 3.72311C23.7261 3.82645 23.7816 3.96824 23.776 4.11431C23.7702 4.26037 23.7039 4.39763 23.5926 4.49242C20.8999 6.79448 17.1177 8.69974 12.3509 10.1553C12.0743 10.24 11.7808 10.084 11.6964 9.80684C11.6118 9.52993 11.7677 9.23673 12.0446 9.15235C16.3526 7.8367 19.9431 6.08098 22.4735 4.05716L21.3079 2.89158C21.1712 2.75459 21.1207 2.55325 21.1773 2.36794C21.2336 2.18288 21.3875 2.04376 21.5776 2.00638L27.9748 0.747869C28.1478 0.713956 28.3262 0.768964 28.4499 0.894468C28.5735 1.01997 28.6258 1.19942 28.589 1.37165L27.2255 7.76887C27.1857 7.95686 27.0458 8.10773 26.8616 8.16221C26.6773 8.21695 26.4778 8.16621 26.3419 8.03029L25.3638 7.05217C24.669 7.98997 23.0086 10.0811 20.4694 12.3626C18.4926 14.1386 16.3927 15.6575 14.2281 16.8764C11.5154 18.4047 8.69315 19.4637 5.8394 20.0247C5.80576 20.0311 5.77185 20.0346 5.7382 20.0346Z" fill="#402F22"/>
</g>
<defs>
<clipPath id="z5clip0">
<rect width="35" height="35" fill="white" transform="translate(0.428711 0.738037)"/>
</clipPath>
</defs>
</svg>
