<svg width="35" height="35" viewBox="0 0 35 35" fill="none" xmlns="http://www.w3.org/2000/svg">
<path d="M28.3205 9.06395L28.4594 9.16457C28.5648 9.24083 28.694 9.277 28.8237 9.26657C28.9534 9.25615 29.0751 9.19982 29.167 9.1077L31.5591 6.71457C31.982 6.2745 32.2156 5.68613 32.2096 5.07578C32.2036 4.46544 31.9585 3.88178 31.527 3.45011C31.0954 3.01844 30.5119 2.77317 29.9015 2.76697C29.2912 2.76076 28.7027 2.99411 28.2625 3.41692L25.8661 5.81223C25.7705 5.90798 25.7137 6.03578 25.7069 6.17094C25.7 6.30609 25.7435 6.43899 25.8289 6.54395L26.1035 6.88301L24.7833 8.0227C24.6386 7.42694 24.2979 6.89709 23.8159 6.51823C23.3339 6.13937 22.7386 5.93348 22.1255 5.93363H13.4914C12.398 5.93368 11.3357 6.29784 10.4722 6.96864C9.60866 7.63944 8.99312 8.57869 8.72267 9.63817L7.15423 15.7839H4.48439C4.25324 15.7859 4.02479 15.8338 3.81235 15.925C3.59991 16.0161 3.40773 16.1486 3.24699 16.3147C3.08626 16.4808 2.96019 16.6773 2.87613 16.8926C2.79207 17.108 2.75169 17.3379 2.75736 17.5689C2.75815 17.8144 2.81158 18.0568 2.91403 18.2798C3.01648 18.5028 3.16558 18.7013 3.35127 18.8618L4.74252 31.7779C4.75713 31.9124 4.82114 32.0368 4.92216 32.1269C5.02318 32.217 5.15403 32.2665 5.28939 32.2657H12.4469C12.5823 32.2665 12.7131 32.217 12.8141 32.1269C12.9151 32.0368 12.9791 31.9124 12.9938 31.7779L14.3828 18.8552C14.5709 18.6855 14.7209 18.4779 14.8229 18.246C14.9249 18.0141 14.9766 17.7632 14.9745 17.5099C14.974 17.0523 14.7919 16.6137 14.4684 16.2901C14.1448 15.9666 13.7062 15.7845 13.2486 15.7839H10.861L12.1242 10.9255C12.2156 10.5738 12.4211 10.2624 12.7085 10.0401C12.9959 9.81778 13.349 9.69719 13.7124 9.69723H21.7656L21.0591 11.0589C21.0591 11.0589 21.0591 11.071 21.0591 11.0764C21.0228 11.1496 21.0034 11.23 21.0022 11.3116V13.8382C20.0454 14.1752 19.2164 14.8002 18.6289 15.6271C18.0414 16.4541 17.7243 17.4427 17.721 18.4571V31.7188C17.721 31.8638 17.7786 32.0029 17.8811 32.1055C17.9837 32.208 18.1228 32.2657 18.2678 32.2657H28.7153C28.8604 32.2657 28.9995 32.208 29.102 32.1055C29.2046 32.0029 29.2622 31.8638 29.2622 31.7188V18.4571C29.2589 17.4427 28.9417 16.4541 28.3542 15.6271C27.7667 14.8002 26.9377 14.1752 25.981 13.8382V11.5293L28.3205 9.06395ZM23.9805 9.69723L24.535 10.7647H22.4427L22.9961 9.69723H23.9805ZM25.5664 10.3786L24.9977 9.28488L26.8363 7.69785L27.4925 8.3541L25.5664 10.3786ZM29.0358 4.1902C29.2704 3.97075 29.5811 3.85107 29.9023 3.85643C30.2234 3.86178 30.53 3.99175 30.7571 4.21889C30.9842 4.44604 31.1142 4.75256 31.1196 5.07374C31.1249 5.39492 31.0052 5.70561 30.7858 5.9402L28.723 8.0041L28.6081 7.92207L27.2716 6.58551L26.9883 6.23442L29.0358 4.1902ZM11.9558 31.1719H5.7772L4.49752 19.296H13.2344L11.9558 31.1719ZM13.8808 17.5689C13.8808 17.7367 13.8142 17.8976 13.6957 18.0164C13.5772 18.1351 13.4164 18.2019 13.2486 18.2022H4.48439C4.39675 18.2002 4.31043 18.1805 4.23062 18.1442C4.15081 18.1079 4.07916 18.0559 4.01999 17.9912C3.96083 17.9265 3.91536 17.8505 3.88634 17.7678C3.85731 17.6851 3.84533 17.5974 3.85111 17.5099C3.8514 17.3421 3.91825 17.1813 4.03698 17.0628C4.15571 16.9443 4.31662 16.8777 4.48439 16.8777H13.2486C13.3362 16.8796 13.4224 16.8992 13.5022 16.9353C13.5819 16.9715 13.6535 17.0234 13.7126 17.0881C13.7717 17.1527 13.8171 17.2286 13.846 17.3113C13.8749 17.3939 13.8867 17.4816 13.8808 17.5689ZM11.0666 10.6499L9.73439 15.7839H8.28298L9.78252 9.90942C9.99272 9.08527 10.4714 8.35459 11.143 7.83271C11.8146 7.31084 12.6409 7.02749 13.4914 7.02738H22.1255C22.5485 7.02875 22.9547 7.19347 23.2592 7.48715C23.5636 7.78083 23.7429 8.18077 23.7595 8.60348H13.7124C13.107 8.60362 12.5189 8.80461 12.0401 9.17495C11.5613 9.54529 11.2189 10.064 11.0666 10.6499ZM28.1652 18.4571V31.1719H18.8125V26.1669H26.25C26.3951 26.1669 26.5342 26.1093 26.6367 26.0067C26.7393 25.9042 26.7969 25.7651 26.7969 25.62C26.7969 25.475 26.7393 25.3359 26.6367 25.2333C26.5342 25.1308 26.3951 25.0732 26.25 25.0732H18.8125V21.9593H26.5344C26.6794 21.9593 26.8185 21.9016 26.9211 21.7991C27.0236 21.6965 27.0813 21.5574 27.0813 21.4124C27.0813 21.2673 27.0236 21.1282 26.9211 21.0257C26.8185 20.9231 26.6794 20.8655 26.5344 20.8655H18.8125V18.4593C18.8125 17.444 19.2158 16.4703 19.9337 15.7524C20.6517 15.0345 21.6254 14.6311 22.6406 14.6311H24.3381C25.3529 14.6314 26.3259 15.0346 27.0436 15.752C27.7612 16.4694 28.1646 17.4424 28.1652 18.4571ZM22.6395 13.5352H22.0927V11.8585H24.8905V13.5352H22.6406H22.6395ZM6.63908 27.5396L6.17205 22.5149C6.15866 22.3706 6.20309 22.2269 6.29557 22.1153C6.38806 22.0038 6.52105 21.9335 6.66533 21.9199C6.80942 21.9088 6.95218 21.9542 7.06342 22.0464C7.17466 22.1387 7.24566 22.2706 7.26142 22.4143L7.72845 27.4389C7.74184 27.5832 7.69741 27.727 7.60493 27.8385C7.51244 27.9501 7.37945 28.0204 7.23517 28.0339H7.18377C7.04776 28.034 6.9166 27.9834 6.81588 27.892C6.71517 27.8006 6.65214 27.675 6.63908 27.5396Z" fill="#402F22"/>
</svg>
