<svg width="40" height="40" viewBox="0 0 40 40" fill="none" xmlns="http://www.w3.org/2000/svg">
<g clip-path="url(#clip03)">
<path d="M23.9102 13.9844C24.3414 13.9844 24.6914 13.6343 24.6914 13.2031C24.6914 12.7719 24.3414 12.4219 23.9102 12.4219C23.478 12.4219 23.1289 12.7719 23.1289 13.2031C23.1289 13.6343 23.478 13.9844 23.9102 13.9844Z" fill="#402F22"/>
<path d="M16.0977 13.9844C16.5289 13.9844 16.8789 13.6343 16.8789 13.2031C16.8789 12.7719 16.5289 12.4219 16.0977 12.4219C15.6655 12.4219 15.3164 12.7719 15.3164 13.2031C15.3164 13.6343 15.6655 13.9844 16.0977 13.9844Z" fill="#402F22"/>
<path d="M17.9151 19.3543C18.571 19.6634 19.2738 19.8203 20.0035 19.8203C20.7173 19.8203 21.4064 19.6698 22.0518 19.3732C22.444 19.1928 22.6155 18.729 22.4354 18.3368C22.2551 17.945 21.7912 17.7732 21.399 17.9535C20.9599 18.1552 20.4902 18.2578 20.0035 18.2578C19.5057 18.2578 19.0272 18.1513 18.5813 17.941C18.191 17.757 17.7253 17.9242 17.5416 18.3145C17.3576 18.7049 17.5248 19.1703 17.9151 19.3543Z" fill="#402F22"/>
<path d="M37.2337 31.6227C37.2337 27.3267 32.3411 23.9576 28.1473 23.798L26.0077 21.8757C28.6136 19.9744 30.1954 16.919 30.1954 13.6719V8.51564C30.1954 3.77717 26.3279 -0.078125 21.5741 -0.078125H18.4491C13.7018 -0.078125 9.88283 3.76344 9.88283 8.51564V13.6719C9.88283 16.9135 11.4435 19.9631 14.0155 21.861L11.8598 23.798C7.67518 23.9573 2.77344 27.3179 2.77344 31.6227V39.1407C2.77344 39.5722 3.12317 39.922 3.55469 39.922H36.4524C36.8839 39.922 37.2337 39.5722 37.2337 39.1407V31.6227ZM18.273 34.7657H21.7298L22.5489 38.3595H17.4301L18.273 34.7657ZM21.7969 33.2032H18.2236L17.6242 31.3358L20.004 30.1459L22.4347 31.3618L21.7969 33.2032ZM20.0037 27.7985L17.2888 23.4556C18.1705 23.7006 19.0866 23.8279 20.0116 23.8279C20.9278 23.8279 21.8372 23.7031 22.7143 23.462L20.0037 27.7985ZM21.1219 28.9582L24.8728 22.9563L26.8958 24.7739L24.3216 30.5585L21.1219 28.9582ZM18.4491 1.48438H21.5741C25.4664 1.48438 28.6329 4.63838 28.6329 8.51564V9.1614L27.1659 7.04896C27.0331 6.85762 26.8216 6.73555 26.5894 6.71602C26.3569 6.69649 26.1286 6.78163 25.9656 6.94826C24.3775 8.5724 22.5388 9.29689 20.004 9.29689C17.4695 9.29689 15.6305 8.5724 14.0412 6.94826C13.8776 6.78071 13.6472 6.69588 13.4143 6.71632C13.1812 6.73677 12.9694 6.86067 12.8375 7.05415L11.4453 9.09426V8.51564C11.4453 4.63838 14.5871 1.48438 18.4491 1.48438ZM11.4453 13.6719V11.8662L13.6151 8.68654C15.3534 10.1651 17.4076 10.8594 20.004 10.8594C22.6032 10.8594 24.6589 10.1636 26.3974 8.68196L28.6329 11.901V13.6719C28.6329 18.3506 24.8087 22.2657 20.0116 22.2657C15.2301 22.2657 11.4453 18.3628 11.4453 13.6719ZM15.1343 22.9566L18.8858 28.9582L15.6855 30.5585L13.1113 24.7739L15.1343 22.9566ZM4.33594 31.6227C4.33594 28.4043 8.2483 25.6254 11.6672 25.3727L14.5902 31.9404C14.6768 32.1351 14.8395 32.2861 15.0403 32.3582C15.2411 32.4302 15.4624 32.4168 15.6534 32.3215L16.21 32.0429L16.8439 34.0168L15.8252 38.3595H4.33594V31.6227ZM35.6711 38.3595H24.1513L23.1644 34.0287L23.844 32.0664L24.3537 32.3215C24.5459 32.4177 24.7678 32.4296 24.9668 32.3582C25.1676 32.2861 25.3302 32.1351 25.4169 31.9404L28.3399 25.3727C31.7588 25.6257 35.6711 28.4043 35.6711 31.6227V38.3595Z" fill="#402F22"/>
<path d="M30.1602 34.7657H27.0352C26.6036 34.7657 26.2539 35.1154 26.2539 35.5469C26.2539 35.9785 26.6036 36.3282 27.0352 36.3282H30.1602C30.5917 36.3282 30.9414 35.9785 30.9414 35.5469C30.9414 35.1154 30.5917 34.7657 30.1602 34.7657Z" fill="#402F22"/>
<path d="M33.2422 34.7657C33.6734 34.7657 34.0234 35.1157 34.0234 35.5469C34.0234 35.9782 33.6734 36.3282 33.2422 36.3282C32.811 36.3282 32.4609 35.9782 32.4609 35.5469C32.4609 35.1157 32.811 34.7657 33.2422 34.7657Z" fill="#402F22"/>
</g>
<defs>
<clipPath id="clip03">
<rect width="39.922" height="40" fill="white"/>
</clipPath>
</defs>
</svg>
